<svg xmlns="http://www.w3.org/2000/svg" data-name="Layer 1" viewBox="0 0 101 101"><g fill="none" stroke="#4b3fff" stroke-linecap="round" stroke-linejoin="round" stroke-width="2.7"><path d="M83.38 80.66c-.37.04-.68.26-.84.6-.16.33-.13.72.07 1.03l7.8 11.94-5.28 3.42-7.8-11.95c-.2-.3-.53-.48-.88-.48h-.03c-.37 0-.7.21-.88.52l-4.1 7.07-3.92-28.16 13.59 8.59s.01 0 .02.01l10.39 6.57-8.12.84Z"/><path d="M18.5 45.7 22.44 49.65 30.5 41.65"/><path d="M38.5 41.65 67.5 41.65"/><path d="M38.5 47.65 56.5 47.65"/><path d="M18.5 22.7 22.44 26.65 30.5 18.65"/><path d="M38.5 18.65 56.5 18.65"/><path d="M38.5 24.65 56.5 24.65"/><path d="M38.5 64.65 56.5 64.65"/><path d="M38.5 70.65 56.5 70.65"/><circle cx="24.5" cy="68.65" r="5"/><path d="M9.5 69.65 9.5 4.65 49.63 4.65"/><path d="M62.5 85.65 9.5 85.65 9.5 79.65"/><path d="M62.5 92.65 16.5 92.65 16.5 86.65"/><path d="M83.5 66.65v-56h-7v51"/></g><path fill="#f86a0b" d="M74.59 3.36H54.4c-.93 0-1.25 1.22-.45 1.69l9.64 5.56v11.13c0 .93 1.22 1.25 1.69.45L75.37 4.7a.9.9 0 0 0-.78-1.35Z"/></svg>