<svg xmlns="http://www.w3.org/2000/svg" data-name="Layer 1" viewBox="0 0 101 101"><path fill="#f86a0b" d="M29.09 24.67H8.9c-.93 0-1.25 1.22-.45 1.69l9.64 5.56v11.13c0 .93 1.22 1.25 1.69.45l10.09-17.49a.9.9 0 0 0-.78-1.35Z"/><g fill="none" stroke="#4b3fff" stroke-linecap="round" stroke-linejoin="round" stroke-width="2.7"><path d="M77.97 25.5 49.5 25.5"/><path d="M75.06 31.5 58.5 31.5"/><path d="M41.5 25.5H49.5V53.5H41.5z"/><path d="M64.5 53.5 49.5 53.5"/><path d="M1.5 85.5H53a4 4 0 0 0 3.6-2.25l31.81-65.5a4 4 0 0 1 3.6-2.25h7.5"/><path d="M50.5 67a4.82 4.82 0 0 1 4.48-1.4M43.5 67c1.92 2 5.07 2 7 0M36.5 67c1.92-2 5.08-2 7 0M15.5 67c1.92 2 5.07 2 7 0M1.5 67c1.92 2 5.07 2 7 0M8.5 67c1.92-2 5.08-2 7 0M29.5 67c1.92 2 5.07 2 7 0M22.5 67c1.92-2 5.08-2 7 0M19.5 76c1.92 2 5.07 2 7 0M5.5 76c1.92 2 5.07 2 7 0M12.5 76c1.92-2 5.08-2 7 0M33.5 76c1.92 2 5.07 2 7 0M26.5 76c1.92-2 5.08-2 7 0M28.5 58.5c0-3.87 3.13-7 7-7M20.5 58.5c0-8.28 6.72-15 15-15"/></g></svg>