<svg xmlns="http://www.w3.org/2000/svg" data-name="Layer 1" viewBox="0 0 101 101"><g fill="none" stroke="#4b3fff" stroke-linecap="round" stroke-linejoin="round" stroke-width="2.7"><path d="m19.5 1.62 14.67 14.67c.84.84 2.09 1.11 3.19.68 4.07-1.6 8.5-2.47 13.14-2.47M1.63 19.5 16.3 34.17c.84.84 1.11 2.09.68 3.19-1.6 4.07-2.47 8.5-2.47 13.14M81.5 1.63 66.83 16.3c-.84.84-2.09 1.11-3.19.68-4.07-1.6-8.5-2.47-13.14-2.47M99.37 19.5 84.7 34.17c-.84.84-1.11 2.09-.68 3.19 1.6 4.07 2.47 8.5 2.47 13.14M19.5 99.38l14.67-14.67c.84-.84 2.09-1.11 3.19-.68 4.07 1.6 8.5 2.47 13.14 2.47M1.63 81.5 16.3 66.83c.84-.84 1.11-2.09.68-3.19-1.6-4.07-2.47-8.5-2.47-13.14M81.5 99.37 66.83 84.7a2.98 2.98 0 0 0-3.19-.68c-4.07 1.6-8.5 2.47-13.14 2.47M99.37 81.5 84.7 66.83a2.98 2.98 0 0 1-.68-3.19c1.6-4.07 2.47-8.5 2.47-13.14"/></g><g fill="none" stroke="#4b3fff" stroke-linecap="round" stroke-linejoin="round" stroke-width="2.7"><path d="M10.56 10.56 12.94 12.94"/><path d="M17.31 17.31 19.69 19.69"/><path d="M24.06 24.06 26.44 26.44"/><path d="M90.44 10.56 88.06 12.94"/><path d="M83.69 17.31 81.31 19.69"/><path d="M76.94 24.06 74.56 26.44"/><path d="M10.56 90.44 12.94 88.06"/><path d="M17.31 83.69 19.69 81.31"/><path d="M24.06 76.94 26.44 74.56"/><path d="M90.44 90.44 88.06 88.06"/><path d="M83.69 83.69 81.31 81.31"/><path d="M76.94 76.94 74.56 74.56"/></g><path fill="#f86a0b" d="M60.49 43.5H40.3c-.93 0-1.25 1.22-.45 1.69l9.64 5.56v11.13c0 .93 1.22 1.25 1.69.45l10.09-17.49a.9.9 0 0 0-.78-1.35Z"/><circle cx="50.5" cy="50.5" r="24.06" fill="none" stroke="#4b3fff" stroke-linecap="round" stroke-linejoin="round" stroke-width="2.7"/></svg>