<svg xmlns="http://www.w3.org/2000/svg" data-name="Layer 1" viewBox="0 0 101 101"><g fill="none" stroke="#4b3fff" stroke-linecap="round" stroke-linejoin="round" stroke-width="2.7"><path d="M66.98 56.5c-2.47 6.99-9.14 12-16.98 12-9.94 0-18-8.06-18-18s8.06-18 18-18c7.84 0 14.5 5.01 16.98 12"/><path d="M44 33.5 44 13.5 50 8.5 56 13.5 56 33.5"/><path d="M44 67.5 44 87.5 50 92.5 56 87.5 56 67.5"/><path d="M50 8.5 50 32.5"/><path d="M50 68.5 50 92.5"/><path d="M44 81.5 50 86.5"/><path d="M44 75.5 50 80.5"/><path d="M44 69.5 50 74.5"/><path d="M56 81.5 50 86.5"/><path d="M56 75.5 50 80.5"/><path d="M56 69.5 50 74.5"/><path d="M56 19.5 50 14.5"/><path d="M56 25.5 50 20.5"/><path d="M56 31.5 50 26.5"/><path d="M44 19.5 50 14.5"/><path d="M44 25.5 50 20.5"/><path d="M44 31.5 50 26.5"/><path d="M66.98 44.5 99 44.5"/><path d="M99 56.5 66.98 56.5"/><path d="M95.62 56.5c-2.95 23.12-22.7 41-46.62 41-25.96 0-47-21.04-47-47s21.04-47 47-47c23.92 0 43.67 17.88 46.62 41"/><path d="M38 90C20.72 85.18 8 69.3 8 50.5S20.72 15.82 38 11M88.21 62.5C84.33 75.14 74.5 85.2 62 89.39M62 11.61C74.5 15.8 84.33 25.86 88.21 38.5"/><path d="M38 79.48C26.32 75.03 18 63.72 18 50.5s8.32-24.54 20-28.98M77.58 62.5c-3 7.12-8.59 12.9-15.58 16.14M62 22.36A31.18 31.18 0 0 1 77.58 38.5"/></g><path fill="#f86a0b" d="M59.49 44.07H39.3c-.93 0-1.25 1.22-.45 1.69l9.64 5.56v11.13c0 .93 1.22 1.25 1.69.45l10.09-17.49a.9.9 0 0 0-.78-1.35Z"/></svg>