<svg xmlns="http://www.w3.org/2000/svg" data-name="Layer 1" viewBox="0 0 101 101"><g fill="none" stroke="#4b3fff" stroke-linecap="round" stroke-linejoin="round" stroke-width="2.7"><path d="M74.89 99.13H26.07v-2.17c0-3.35 2.72-6.07 6.07-6.07h36.67c3.35 0 6.07 2.72 6.07 6.07v2.17Z"/><path d="M47.7 90.24 47.7 41"/><path d="M53.15 90.24 53.15 35.17"/><path d="M47.76 8.62V4.64a2.77 2.77 0 1 1 5.54 0v3.98"/><path d="M95.74 54.7 80.57 23.36 65.4 54.7"/><path d="M61.31 23.36 86.64 23.36"/><path d="M37.08 54.7 21.91 23.36 6.75 54.7"/><path d="M15.85 23.36 41.28 23.36"/><path d="M42.15 55.72c0 8.94-9.05 16.18-20.22 16.18S1.69 64.65 1.69 55.72h40.45ZM99.29 55.72c0 8.94-9.05 16.18-20.22 16.18s-20.22-7.24-20.22-16.18H99.3z"/></g><path fill="#f86a0b" d="M59.13 13.66h-20c-.91 0-1.24 1.21-.44 1.66l9.55 5.51v11.03c0 .91 1.21 1.24 1.66.44l10-17.31c.34-.59-.09-1.34-.77-1.34"/></svg>