<svg xmlns="http://www.w3.org/2000/svg" data-name="Layer 1" viewBox="0 0 101 101"><g fill="none" stroke="#4b3fff" stroke-linecap="round" stroke-linejoin="round" stroke-width="2.7"><path d="M95.5 63c0 12.15-9.85 22-22 22s-22-9.85-22-22 9.85-22 22-22v22z"/><path d="M79.5 37c11.05 0 20 8.95 20 20h-20z"/><path d="M2.5 28 85.5 28"/><path d="M91.5 33V20c0-2.21-1.79-4-4-4h-82c-2.21 0-4 1.79-4 4v60c0 2.21 1.79 4 4 4h49"/><path d="M31.5 64 46.5 64"/><path d="M31.5 72 46.5 72"/><circle cx="9.5" cy="22" r="2"/><circle cx="17.5" cy="22" r="2"/><circle cx="25.5" cy="22" r="2"/><path d="M33 37H47V51H33z"/><path d="M9.5 39 23.5 39"/><path d="M9.5 47 23.5 47"/></g><path fill="#f86a0b" d="M26.59 58.36H6.4c-.93 0-1.25 1.22-.45 1.69l9.64 5.56v11.13c0 .93 1.22 1.25 1.69.45L27.37 59.7a.9.9 0 0 0-.78-1.35Z"/></svg>