<svg xmlns="http://www.w3.org/2000/svg" data-name="Layer 1" viewBox="0 0 101 101"><path fill="none" stroke="#4b3fff" stroke-linecap="round" stroke-linejoin="round" stroke-width="2.7" d="M47.5 91.5 13.5 91.5 13.5 15.5 22.5 15.5"/><path fill="none" stroke="#4b3fff" stroke-linecap="round" stroke-linejoin="round" stroke-width="2.7" d="M64.5 15.5 73.5 15.5 73.5 47.5"/><circle cx="43.5" cy="9.5" r="3" fill="none" stroke="#4b3fff" stroke-linecap="round" stroke-linejoin="round" stroke-width="2.7"/><path fill="none" stroke="#4b3fff" stroke-linecap="round" stroke-linejoin="round" stroke-width="2.7" d="M54.5 19.5h5c0-3.98-2.9-7.27-6.7-7.89-.74-.12-1.3-.73-1.3-1.48v-.35c0-4.26-3.22-7.98-7.47-8.26A8 8 0 0 0 35.5 9.5v.62c0 .75-.56 1.36-1.3 1.48-3.8.62-6.7 3.92-6.7 7.89h19"/><path fill="none" stroke="#4b3fff" stroke-linecap="round" stroke-linejoin="round" stroke-width="2.7" d="M36.5 27.5 64.5 27.5"/><path fill="none" stroke="#4b3fff" stroke-linecap="round" stroke-linejoin="round" stroke-width="2.7" d="M36.5 33.5 58.5 33.5"/><path fill="none" stroke="#4b3fff" stroke-linecap="round" stroke-linejoin="round" stroke-width="2.7" d="M36.5 41.5 64.5 41.5"/><path fill="none" stroke="#4b3fff" stroke-linecap="round" stroke-linejoin="round" stroke-width="2.7" d="M36.5 47.5 44.5 47.5"/><circle cx="26.5" cy="31.5" r="4" fill="none" stroke="#4b3fff" stroke-linecap="round" stroke-linejoin="round" stroke-width="2.7"/><circle cx="26.5" cy="45.5" r="4" fill="none" stroke="#4b3fff" stroke-linecap="round" stroke-linejoin="round" stroke-width="2.7"/><circle cx="26.5" cy="59.5" r="4" fill="none" stroke="#4b3fff" stroke-linecap="round" stroke-linejoin="round" stroke-width="2.7"/><circle cx="26.5" cy="73.5" r="4" fill="none" stroke="#4b3fff" stroke-linecap="round" stroke-linejoin="round" stroke-width="2.7"/><path fill="none" stroke="#4b3fff" stroke-linecap="round" stroke-linejoin="round" stroke-width="2.7" d="M69 81 72.5 84.5"/><path fill="none" stroke="#4b3fff" stroke-linecap="round" stroke-linejoin="round" stroke-width="2.7" d="M76.42 82.41H82.08V100.09H76.42z" transform="rotate(-45 79.245 91.246)"/><path fill="#f86a0b" d="M66.07 61.31H45.88c-.93 0-1.25 1.22-.45 1.69l9.64 5.56v11.13c0 .93 1.22 1.25 1.69.45l10.09-17.49a.9.9 0 0 0-.78-1.35Z"/><circle cx="56.65" cy="68.55" r="16.96" fill="none" stroke="#4b3fff" stroke-linecap="round" stroke-linejoin="round" stroke-width="2.7"/></svg>