<svg xmlns="http://www.w3.org/2000/svg" data-name="Layer 1" viewBox="0 0 101 101"><path fill="#f86a0b" d="M61.5 43.68h-20c-.91 0-1.23 1.2-.44 1.67l9.55 5.52V61.9c0 .91 1.2 1.23 1.67.44l10-17.31a.89.89 0 0 0-.77-1.33Z"/><g fill="none" stroke="#4b3fff" stroke-linecap="round" stroke-linejoin="round" stroke-width="2.7"><path d="M6.65 60.63c-3.02-3.02-2.79-7.85.5-10.11l48.86-37.96c2.58-1.78 6.2-1.34 8.58 1.04l22.75 22.75c2.38 2.38 2.81 6 1.04 8.58L66.77 72.75 58.7 83.14l-5.69 7.33-2.58 3.33c-2.26 3.28-7.09 3.52-10.11.5L13.54 67.52"/><path d="m87.52 36.54 7.03-7.03c2.51-2.51 2.57-6.53.12-8.97L80.52 6.39c-2.44-2.44-6.46-2.39-8.97.12l-7.03 7.03 4.19 4.19 5.19-5.19c1.21-1.21 3.15-1.24 4.33-.06l10.34 10.34c1.18 1.18 1.15 3.12-.06 4.33"/><path d="M25.06 65.88 51.33 92.14"/></g></svg>