<svg xmlns="http://www.w3.org/2000/svg" data-name="Layer 1" viewBox="0 0 101 101"><path fill="none" stroke="#4b3fff" stroke-linecap="round" stroke-linejoin="round" stroke-width="2.7" d="M37.19 72.05h45c4.12 0 7.49-3.35 7.49-7.48V23.6c0-4.12-3.36-7.48-7.49-7.48H20.62c-4.12 0-7.49 3.35-7.49 7.48v36.71m51.6-10.11c.95 0 1.87.27 2.66.76-.2.3-.37.61-.52.93-.02.04-.04.08-.05.11-.3.64-.5 1.32-.61 2.03 0 .05-.02.1-.02.16-.05.35-.08.7-.08 1.06s.03.71.08 1.07c0 .05.02.1.02.16.11.7.32 1.38.61 2.03.02.04.04.08.05.11.15.32.32.63.52.93a5.04 5.04 0 0 1-6.23-.72 5.04 5.04 0 0 1-1.48-3.57c0-1.34.53-2.62 1.48-3.57a5.04 5.04 0 0 1 3.57-1.48Zm7.15 0c1.34 0 2.62.53 3.57 1.48s1.48 2.23 1.48 3.57-.53 2.62-1.48 3.57-2.23 1.48-3.57 1.48-2.62-.53-3.57-1.48c0 0-.02-.02-.02-.03q0 0 0 0a5.044 5.044 0 0 1 0-7.08c.01-.02.03-.03.04-.05a5.05 5.05 0 0 1 3.56-1.47Z"/><path fill="none" stroke="#4b3fff" stroke-linecap="round" stroke-linejoin="round" stroke-width="2.7" d="M13.14 29.77 88.31 29.77"/><path fill="none" stroke="#4b3fff" stroke-linecap="round" stroke-linejoin="round" stroke-width="2.7" d="M22.2 52.96 43.82 52.96"/><path fill="none" stroke="#4b3fff" stroke-linecap="round" stroke-linejoin="round" stroke-width="2.7" d="M22.2 58.66 43.82 58.66"/><path fill="none" stroke="#4b3fff" stroke-linecap="round" stroke-linejoin="round" stroke-width="2.7" d="M13.14 37.26 88.31 37.26"/><path fill="#f86a0b" d="M32.41 65.59H12.23c-.93 0-1.25 1.22-.45 1.69l9.64 5.56v11.13c0 .93 1.22 1.25 1.69.45L33.2 66.93a.9.9 0 0 0-.78-1.35Z"/></svg>