<svg xmlns="http://www.w3.org/2000/svg" data-name="Layer 1" viewBox="0 0 101 101"><g fill="none" stroke="#4b3fff" stroke-width="2.7"><g stroke-linecap="round" stroke-miterlimit="10"><circle cx="33.5" cy="24.5" r="6.67"/><path d="M39.45 10.12c-.59-.25-1.21-.46-1.83-.63a.7.7 0 0 1-.53-.64l-.2-3.12c-.04-.56-.46-1.04-1.02-1.1-.77-.09-1.56-.14-2.36-.14s-1.59.05-2.36.14c-.56.07-.99.54-1.02 1.1-.06.95-.16 2.37-.2 3.12-.02.31-.24.55-.53.64-.66.18-1.31.41-1.94.67"/><path d="M27.55 10.12c-.5.21-.99.44-1.47.7-.43.24-.96.19-1.33-.13l-2.11-1.85c-.42-.37-1.06-.41-1.5-.06-.61.48-1.2 1.01-1.77 1.57-.56.56-1.09 1.15-1.57 1.77-.35.44-.31 1.08.06 1.5l1.83 2.09c.34.38.38.93.14 1.38-.27.5-.52 1.02-.73 1.55"/><path d="M19.12 18.55c-.21.5-.39 1.01-.54 1.54-.14.47-.54.82-1.03.85l-2.8.18c-.56.04-1.04.46-1.1 1.02-.09.77-.14 1.56-.14 2.36s.05 1.59.14 2.36c.07.56.54.99 1.1 1.02l2.77.18c.51.03.93.39 1.07.88.16.55.36 1.09.58 1.61"/><path d="M19.12 30.45c.21.5.44.99.7 1.47.24.43.19.96-.13 1.33l-1.85 2.11c-.37.42-.41 1.06-.06 1.5.48.61 1.01 1.2 1.57 1.77s1.15 1.09 1.77 1.57c.44.35 1.08.31 1.5-.06l2.09-1.83c.38-.34.93-.38 1.38-.14.5.27 1.02.52 1.55.73"/><path d="M27.55 38.88c.59.25 1.21.46 1.83.63.3.08.51.33.53.64l.2 3.12c.04.56.46 1.04 1.02 1.1.77.09 1.56.14 2.36.14s1.59-.05 2.36-.14c.56-.07.99-.54 1.02-1.1.06-.95.16-2.37.2-3.12.02-.31.24-.55.53-.64.66-.18 1.31-.41 1.94-.67"/><path d="M39.45 38.88c.5-.21.99-.44 1.47-.7.43-.24.96-.19 1.33.13l2.11 1.85c.42.37 1.06.41 1.5.06.61-.48 1.2-1.01 1.77-1.57s1.09-1.15 1.57-1.77c.35-.44.31-1.08-.06-1.5l-1.83-2.09c-.34-.38-.38-.93-.14-1.38.27-.5.52-1.02.73-1.55"/><path d="M47.88 30.45c.21-.5.39-1.01.54-1.54.14-.47.54-.82 1.03-.85l2.8-.18c.56-.04 1.04-.46 1.1-1.02.09-.77.14-1.56.14-2.36s-.05-1.59-.14-2.36c-.07-.56-.54-.99-1.1-1.02l-2.77-.18c-.51-.03-.93-.39-1.07-.88-.16-.55-.36-1.09-.58-1.61"/><path d="M47.88 18.55c-.21-.5-.44-.99-.7-1.47-.24-.43-.19-.96.13-1.33l1.85-2.11c.37-.42.41-1.06.06-1.5-.48-.61-1.01-1.2-1.57-1.77S46.5 9.28 45.88 8.8c-.44-.35-1.08-.31-1.5.06l-2.09 1.83c-.38.34-.93.38-1.38.14-.5-.27-1.02-.52-1.55-.73"/></g><g stroke-linejoin="round"><circle cx="20.5" cy="67.5" r="7"/><path d="M20.5 74.5c-6.08 0-11 2.37-11 8v6h22v-6c0-5.63-4.92-8-11-8Z"/><circle cx="50.5" cy="67.5" r="7"/><path d="M50.5 74.5c-6.08 0-11 2.37-11 8v6h22v-6c0-5.63-4.92-8-11-8Z"/><circle cx="80.5" cy="67.5" r="7"/><path d="M80.5 74.5c-6.08 0-11 2.37-11 8v6h22v-6c0-5.63-4.92-8-11-8Z"/><path stroke-linecap="round" d="M6.5 24.5h-5v72h98v-47l-24-24h-15"/><path stroke-linecap="round" d="M75.5 26.5 75.5 49.5 98.5 49.5"/></g></g><path fill="#f86a0b" d="M73.49 51.09H53.3c-.93 0-1.25 1.22-.45 1.69l9.64 5.56v11.13c0 .93 1.22 1.25 1.69.45l10.09-17.49a.9.9 0 0 0-.78-1.35Z"/></svg>