<svg xmlns="http://www.w3.org/2000/svg" data-name="Layer 1" viewBox="0 0 101 101"><g fill="none" stroke="#4b3fff" stroke-linejoin="round" stroke-width="2.7"><rect width="59.75" height="59.75" x="20.47" y="20.72" stroke-linecap="round" rx="8.05" ry="8.05"/><path stroke-linecap="square" d="M50.55 80.98 50.55 91.21"/><path stroke-linecap="round" d="M61.3 85.91 61.3 91.25"/><path stroke-linecap="round" d="M39.63 85.91 39.63 91.25"/><path d="M69.5 80.29 69.5 85.9 73.19 89.59"/><circle cx="50.55" cy="95.33" r="4.07" stroke-linecap="round"/><circle cx="76.35" cy="92.65" r="4.07" stroke-linecap="round"/><path d="M31.5 80.29 31.5 85.9 27.8 89.59"/><circle cx="24.64" cy="92.65" r="4.07" stroke-linecap="round"/><path stroke-linecap="square" d="M50.55 20.02 50.55 9.8"/><path stroke-linecap="round" d="M61.3 15.09 61.3 9.75"/><path stroke-linecap="round" d="M39.63 15.09 39.63 9.75"/><path d="M69.5 20.72 69.5 15.11 73.19 11.41"/><circle cx="50.55" cy="5.67" r="4.07" stroke-linecap="round"/><circle cx="76.35" cy="8.36" r="4.07" stroke-linecap="round"/><path d="M31.5 20.72 31.5 15.11 27.8 11.41"/><circle cx="24.64" cy="8.36" r="4.07" stroke-linecap="round"/><path stroke-linecap="square" d="M80.98 50.45 91.2 50.45"/><path stroke-linecap="round" d="M85.91 39.7 91.25 39.7"/><path stroke-linecap="round" d="M85.91 61.38 91.25 61.38"/><path d="M80.28 31.51 85.89 31.51 89.59 27.81"/><circle cx="95.33" cy="50.45" r="4.07" stroke-linecap="round"/><circle cx="92.64" cy="24.65" r="4.07" stroke-linecap="round"/><path d="M80.28 69.5 85.89 69.5 89.59 73.2"/><circle cx="92.64" cy="76.36" r="4.07" stroke-linecap="round"/><path stroke-linecap="square" d="M20.02 50.45 9.79 50.45"/><path stroke-linecap="round" d="M15.09 39.7 9.75 39.7"/><path stroke-linecap="round" d="M15.09 61.38 9.75 61.38"/><path d="M20.71 31.51 15.1 31.51 11.41 27.81"/><circle cx="5.67" cy="50.45" r="4.07" stroke-linecap="round"/><circle cx="8.35" cy="24.65" r="4.07" stroke-linecap="round"/><path d="M20.71 69.5 15.1 69.5 11.41 73.2"/><circle cx="8.35" cy="76.36" r="4.07" stroke-linecap="round"/><path stroke-linecap="round" d="m39.37 42.34 5.37-12.79c.11-.43.51-.73.98-.73h3.48c.46 0 .86.3.98.73l5.6 12.79"/><path stroke-linecap="round" d="M41.89 36.98 53.01 36.98"/><path stroke-linecap="round" d="M61.32 28.82 61.32 42.44"/></g><path fill="#f86a0b" d="M60.35 52.11h-20c-.91 0-1.24 1.21-.44 1.66l9.55 5.51v11.03c0 .91 1.21 1.24 1.66.44l10-17.31c.34-.59-.09-1.34-.77-1.34"/></svg>