<svg xmlns="http://www.w3.org/2000/svg" data-name="Layer 1" viewBox="0 0 101 101"><g fill="none" stroke="#4b3fff" stroke-linecap="round" stroke-linejoin="round" stroke-width="2.7"><path d="M11.5 66.5 20.4 51.56 26.56 63.36 37.08 58.48 41.5 48.5"/><circle cx="26.5" cy="30.5" r="14"/><path d="M26.5 30.5 26.5 16.5"/><path d="M36.4 40.4 16.6 20.6"/><path d="M26.5 30.5 15.5 37.5"/></g><g fill="none" stroke="#4b3fff" stroke-linecap="round" stroke-linejoin="round" stroke-width="2.7"><path d="M53.5 21.5 62.94 21.5"/><path d="M53.5 29.95 69.28 29.95"/><path d="M53.5 38.39 73.51 38.39"/><path d="M53.5 54.96 89.5 54.96"/><path d="M53.5 46.51 89.5 46.51"/><path d="M53.5 63.41 89.5 63.41"/></g><g fill="none" stroke="#4b3fff" stroke-linecap="round" stroke-linejoin="round" stroke-width="2.7"><rect width="98" height="71" x="1.5" y="9.5" rx="3" ry="3"/><path d="M1.5 73.5 99.5 73.5"/><path d="M30.5 91.5 70.5 91.5"/><path d="M44.5 91.5 44.5 80.5"/><path d="M56.5 91.5 56.5 80.5"/></g><path fill="#f86a0b" d="M89.59 20.66H69.4c-.93 0-1.25 1.22-.45 1.69l9.64 5.56v11.13c0 .93 1.22 1.25 1.69.45L90.37 22a.9.9 0 0 0-.78-1.35Z"/></svg>