<svg xmlns="http://www.w3.org/2000/svg" data-name="Layer 1" viewBox="0 0 101 101"><g fill="none" stroke="#4b3fff" stroke-linecap="round" stroke-linejoin="round" stroke-width="2.7"><path d="M83.38 80.83c-.37.04-.68.26-.84.6-.16.33-.13.72.07 1.03l7.8 11.94-5.28 3.42-7.8-11.95c-.2-.3-.53-.48-.88-.48h-.03c-.37 0-.7.21-.88.52l-4.1 7.07-3.92-28.16 13.59 8.59s.01 0 .02.01l10.39 6.57-8.12.84Z"/><path d="M18.5 67.87 22.44 71.82 30.5 63.82"/><path d="M38.5 41.82 67.5 41.82"/><path d="M38.5 47.82 56.5 47.82"/><path d="M18.5 44.87 22.44 48.82 30.5 40.82"/><path d="M38.5 18.82 56.5 18.82"/><path d="M38.5 24.82 56.5 24.82"/><path d="M38.5 64.82 56.5 64.82"/><path d="M38.5 70.82 56.5 70.82"/><path d="M76.5 61.82 76.5 10.82 83.5 10.82 83.5 66.82"/><path d="M9.5 69.82 9.5 4.82 49.37 4.82"/><path d="M62.5 85.82 9.5 85.82 9.5 79.82"/><path d="M62.5 92.82 16.5 92.82 16.5 86.82"/><path d="M28.5 18.82c0-1-1-3-4-3s-4 2-4 3c0 4 8 1 8 5 0 1-1 3-4 3s-4-2-4-3"/><path d="M24.5 26.82 24.5 28.82"/><path d="M24.5 13.82 24.5 15.82"/></g><path fill="#f86a0b" d="M75.83 3.19H55.64c-.93 0-1.25 1.22-.45 1.69l9.64 5.56v11.13c0 .93 1.22 1.25 1.69.45L76.61 4.53a.9.9 0 0 0-.78-1.35Z"/></svg>