<svg xmlns="http://www.w3.org/2000/svg" data-name="Layer 1" viewBox="0 0 101 101"><g fill="none" stroke="#4b3fff" stroke-linecap="round" stroke-linejoin="round" stroke-width="2.7"><path d="M29.5 27.5 29.5 15.5 72.5 15.5 72.5 53.5"/><path d="M64.5 43.5 59.5 43.5"/><path d="M64.5 53.5 59.5 53.5"/><path d="M42.5 43.5 37.5 43.5"/><path d="M53.5 53.5 48.5 53.5"/><path d="M53.5 63.5 48.5 63.5"/><path d="M53.5 73.5 48.5 73.5"/><path d="M37.5 15.5 37.5 9.5 64.5 9.5 64.5 15.5"/></g><g fill="none" stroke="#4b3fff" stroke-linecap="round" stroke-linejoin="round" stroke-width="2.7"><path d="M1.5 91.5 99.5 91.5"/><path d="M21.5 43.5 21.5 31.5"/><path d="M25.5 39.39c3.67.88 7.33-4.11 11-2.95-3.67-3.12-7.33-.1-11-2.95"/><path d="M5.5 57.5 5.5 85.5"/><path d="M37.5 57.5 37.5 85.5"/><path d="M1.5 53.5 21.5 43.5 41.5 53.5"/><circle cx="21.5" cy="59.5" r="6"/><path d="M17.5 85.5v-8c0-2.21 1.79-4 4-4s4 1.79 4 4v8M61.5 85.5V66.8c0-.79.47-1.51 1.19-1.83l15.19-6.75a4 4 0 0 1 3.25 0l15.19 6.75c.72.32 1.19 1.04 1.19 1.83v18.7"/><path d="M89.5 85.5 89.5 69.5 69.5 69.5 69.5 85.5"/><path d="M69.5 81.5 89.5 81.5"/><path d="M70.5 75.5 89.5 75.5"/></g><path fill="#f86a0b" d="M60.49 26.07H40.3c-.93 0-1.25 1.22-.45 1.69l9.64 5.56v11.13c0 .93 1.22 1.25 1.69.45l10.09-17.49a.9.9 0 0 0-.78-1.35Z"/></svg>