<svg xmlns="http://www.w3.org/2000/svg" data-name="Layer 1" viewBox="0 0 101 101"><g fill="none" stroke="#4b3fff" stroke-linecap="round" stroke-linejoin="round" stroke-width="2.7"><circle cx="54.45" cy="26.14" r="20.27"/><path d="M46.02 76.03 25.72 76.03 6.98 20.48 1.67 20.48"/><path d="M67.98 76.03 82.89 76.03 99.33 27.29 82.85 27.29"/><circle cx="33.66" cy="88.34" r="6.79"/><circle cx="76.67" cy="88.34" r="6.79"/><path d="M10.08 27.42 27.71 27.42"/><path d="M65 23.29h-7.84v-7.84c0-.89-.72-1.62-1.62-1.62h-2.17c-.89 0-1.62.72-1.62 1.62v7.84h-7.84c-.89 0-1.62.72-1.62 1.62v2.17c0 .89.72 1.62 1.62 1.62h7.84v7.84c0 .89.72 1.62 1.62 1.62h2.17c.89 0 1.62-.72 1.62-1.62V28.7H65c.89 0 1.62-.72 1.62-1.62v-2.17c0-.89-.72-1.62-1.62-1.62"/><path d="M87.36 60.62 77.4 70.59"/><path d="M95.25 39.24 72.02 62.48"/><path d="M85.59 35.41 61.13 59.88"/><path d="M55.94 51.58 47.86 59.65"/><path d="M44.44 49.58 24.17 69.86"/><path d="M36.43 44.15 20.56 59.89"/><path d="M31 36.14 17.01 50.03"/><path d="M18.28 35.41 13.64 40.05"/></g><path fill="#f86a0b" d="M64.59 65.51H44.6c-.91 0-1.24 1.21-.44 1.66l9.55 5.52v11.03c0 .91 1.21 1.24 1.66.44l10-17.32c.34-.59-.09-1.34-.77-1.34"/></svg>