<svg xmlns="http://www.w3.org/2000/svg" data-name="Layer 1" viewBox="0 0 101 101"><g fill="none" stroke="#4b3fff" stroke-linecap="round" stroke-linejoin="round" stroke-width="2.7"><path d="M43.06 17.86 75.5 17.86"/><path d="M43.06 23.27 64.05 23.27"/><path d="M16.01 70.57c.05-19.06.05-66.22.05-66.22l70.17-.23s0 56.44-.05 83.9H31.81"/><path d="M26.82 96.22h67.47V11.18h-7.61"/><path d="M26.83 70.7 26.83 39.46 75.4 39.46 75.4 77.37 37.57 77.37"/><path d="M36.12 17.73c0-1.16-1.16-3.48-4.63-3.48s-4.63 2.32-4.63 3.48c0 4.63 9.27 1.16 9.27 5.79 0 1.16-1.16 3.48-4.63 3.48s-4.63-2.32-4.63-3.48"/><path d="M31.48 27 31.48 29.31"/><path d="M31.48 11.94 31.48 14.26"/></g><path fill="#f86a0b" d="M27.6 77.81H7.61c-.91 0-1.24 1.21-.44 1.66l9.55 5.51v11.03c0 .91 1.21 1.24 1.66.44l10-17.31c.34-.59-.09-1.34-.77-1.34"/></svg>