<svg xmlns="http://www.w3.org/2000/svg" data-name="Layer 1" viewBox="0 0 101 101"><path fill="none" stroke="#4b3fff" stroke-linecap="round" stroke-linejoin="round" stroke-width="2.7" d="M73.65 28.58C61.99 18.91 48.62 7.83 48.62 7.83L6.56 42.71h10.91v5.68h31.16"/><path fill="none" stroke="#4b3fff" stroke-linecap="round" stroke-linejoin="round" stroke-width="2.7" d="M48.62 48.39h31.16v-5.68h10.91L77.94 32.14"/><rect width="17.71" height="5.44" x="17.68" y="48.32" fill="none" stroke="#4b3fff" stroke-linecap="round" stroke-linejoin="round" stroke-width="2.7" rx="2.72" ry="2.72"/><rect width="17.71" height="5.44" x="39.76" y="48.32" fill="none" stroke="#4b3fff" stroke-linecap="round" stroke-linejoin="round" stroke-width="2.7" rx="2.72" ry="2.72"/><rect width="17.71" height="5.44" x="61.64" y="48.32" fill="none" stroke="#4b3fff" stroke-linecap="round" stroke-linejoin="round" stroke-width="2.7" rx="2.72" ry="2.72"/><rect width="17.71" height="5.44" x="17.68" y="78.41" fill="none" stroke="#4b3fff" stroke-linecap="round" stroke-linejoin="round" stroke-width="2.7" rx="2.72" ry="2.72"/><rect width="17.71" height="5.44" x="39.76" y="78.41" fill="none" stroke="#4b3fff" stroke-linecap="round" stroke-linejoin="round" stroke-width="2.7" rx="2.72" ry="2.72"/><path fill="none" stroke="#4b3fff" stroke-linecap="round" stroke-linejoin="round" stroke-width="2.7" d="M51.13 89.29H16.05c-1.5 0-2.72-1.22-2.72-2.72h0c0-1.5 1.22-2.72 2.72-2.72h53.53"/><path fill="none" stroke="#4b3fff" stroke-linecap="round" stroke-linejoin="round" stroke-width="2.7" d="M72.68 89.29 57.48 89.29"/><path fill="none" stroke="#4b3fff" stroke-linecap="round" stroke-linejoin="round" stroke-width="2.7" d="M66.91 83.85h-2.55c-1.5 0-2.72-1.22-2.72-2.72s1.22-2.72 2.72-2.72h4.5-.3c-1.5 0-2.72-1.22-2.72-2.72V56.47c0-1.5 1.22-2.72 2.72-2.72h3.88c1.5 0 2.72 1.22 2.72 2.72v13.27M21.88 62.1v-5.63c0-1.5 1.22-2.72 2.72-2.72h3.88c1.5 0 2.72 1.22 2.72 2.72v19.22c0 1.5-1.22 2.72-2.72 2.72H24.6c-1.5 0-2.72-1.22-2.72-2.72v-7.61"/><rect width="9.32" height="24.66" x="43.86" y="53.76" fill="none" stroke="#4b3fff" stroke-linecap="round" stroke-linejoin="round" stroke-width="2.7" rx="2.72" ry="2.72"/><path fill="#f86a0b" d="M58.6 23.89H38.41c-.93 0-1.25 1.22-.45 1.69l9.64 5.56v11.13c0 .93 1.22 1.25 1.69.45l10.09-17.49a.9.9 0 0 0-.78-1.35Z"/><g fill="none" stroke="#4b3fff" stroke-linecap="round" stroke-linejoin="round" stroke-width="2.7"><path d="M76.58 81.26 79.56 84.24 87 76.79"/><circle cx="81.79" cy="80.51" r="12.65"/></g></svg>