<svg xmlns="http://www.w3.org/2000/svg" data-name="Layer 1" viewBox="0 0 101 101"><g fill="none" stroke="#4b3fff" stroke-linecap="round" stroke-linejoin="round" stroke-width="2.7"><circle cx="50.5" cy="16" r="4"/><path d="M61.49 37H96.5c1.66 0 3 1.34 3 3v46c0 1.66-1.34 3-3 3h-65M23.5 89h-19c-1.66 0-3-1.34-3-3V40c0-1.66 1.34-3 3-3h36.96"/><path d="M58 43 75.5 43"/><path d="M83.5 43H92c.83 0 1.5.67 1.5 1.5v37c0 .83-.67 1.5-1.5 1.5H9c-.83 0-1.5-.67-1.5-1.5v-37c0-.83.67-1.5 1.5-1.5h33.5"/><path d="M47.05 18.02 14.5 37"/><path d="M53.95 18.01 86.5 37"/><path d="M30.5 67.5c0 3.04-2 5.5-6 5.5s-6-2.46-6-5.5v-9c0-3.04 2-5.5 6-5.5s6 2.46 6 5.5zM36.5 63h7c2.76 0 5-2.24 5-5s-2.24-5-5-5h-7v20"/><path d="M53.5 53 53.5 73"/><path d="M53.5 53 65.5 53"/><path d="M53.5 73 65.5 73"/><path d="M53.5 63 62.5 63"/><path d="M70.5 73 70.5 53"/><path d="M82.5 73 82.5 53"/><path d="M70.5 53 82.5 73"/></g><path fill="#f86a0b" d="M59.45 27.7H39.26c-.93 0-1.25 1.22-.45 1.69l9.64 5.56v11.13c0 .93 1.22 1.25 1.69.45l10.09-17.49a.9.9 0 0 0-.78-1.35Z"/></svg>