<svg xmlns="http://www.w3.org/2000/svg" data-name="Layer 1" viewBox="0 0 101 101"><g fill="none" stroke="#4b3fff" stroke-linecap="round" stroke-linejoin="round" stroke-width="2.7"><path d="M7.5 99.5 93.5 99.5"/><path d="M32.5 71.5H68.5V76.5H32.5z"/><path d="M15 47H33V52H15z" transform="rotate(-90 24 49.5)"/><path d="M32.5 89.5H68.5V94.5H32.5z"/><path d="M31.5 94.5h38c1.66 0 3 1.34 3 3v2h-44v-2c0-1.66 1.34-3 3-3"/><path d="M32.5 24.5H68.5V31.5H32.5z"/><path d="M34.5 76.5 34.5 89.5"/><path d="M66.5 76.5 66.5 89.5"/><path d="M34.5 31.5 34.5 71.5"/><path d="M66.5 31.5 66.5 71.5"/><path d="M26.5 58.5 34.5 62.5 34.5 36.5 26.5 40.5 26.5 58.5z"/><path d="M16.5 45.5H21.5V53.5H16.5z"/><path d="M68 47H86V52H68z" transform="rotate(-90 77 49.5)"/><path d="M74.5 58.5 66.5 62.5 66.5 36.5 74.5 40.5 74.5 58.5z"/><path d="M79.5 45.5H84.5V53.5H79.5z" transform="rotate(-180 82 49.5)"/><path d="M34.26 24.49c0-5.41 2.78-10.18 7-13M59.26 11.49c4.22 2.82 7 7.59 7 13"/><path d="M47.5 1.5H53.5V6.5H47.5z"/><path d="M41.5 6.5H59.5V11.5H41.5z"/></g><path fill="#f86a0b" d="M60.49 43.53H40.3c-.93 0-1.25 1.22-.45 1.69l9.64 5.56v11.13c0 .93 1.22 1.25 1.69.45l10.09-17.49a.9.9 0 0 0-.78-1.35Z"/></svg>