<svg xmlns="http://www.w3.org/2000/svg" data-name="Layer 1" viewBox="0 0 101 101"><g fill="none" stroke="#4b3fff" stroke-linecap="round" stroke-linejoin="round" stroke-width="2.7"><path d="M30.5 78.5 33.5 81.5 40.5 74.5"/><path d="M35.5 96.5s-13-8.07-13-14.92V67.7l13-5.2 13 5.2v13.88c0 6.85-13 14.92-13 14.92M72.5 24.5h-2.75c-6.12 0-11.56 3.92-13.5 9.73l-.69 2.06a4.75 4.75 0 0 1-3.57 3.15l-1.09.22a4.745 4.745 0 0 0-3.79 5.12l.32 3.18a9.476 9.476 0 0 0 9.44 8.54H58"/><path d="M62.5 37.5c0-1.1.9-2 2-2s2 .9 2 2zM99.5 57.31c0 18.33-14.86 33.19-33.19 33.19H52.5"/><path d="M99.5 57.5v-4.1c0-28.45-27-37.94-27-37.94v13.03M26.5 20.5c0-1.1.9-2 2-2s2 .9 2 2z"/><path d="M27.5 42.5H13.65c-4.35 0-8.15-2.97-9.2-7.2L1.5 23.5l14.27-3.9a6.35 6.35 0 0 0 4.26-3.89l2.35-6.27a6.3 6.3 0 0 1 4.99-4.04c2.96-.43 7.59-.91 13.66-.91 15.3 0 20.27 12.25 21.28 15.31"/><path d="M10.5 21.5v1.68a6.32 6.32 0 0 1-6.32 6.32H2.99M41.58 18.5s0 6.34-7.93 20.62C27.78 49.68 35.48 56.5 42.5 56.5M44.47 56.31c-.64.13-1.3.19-1.97.19"/></g><path fill="#f86a0b" d="M84.59 55.21H64.4c-.93 0-1.25 1.22-.45 1.69l9.64 5.56v11.13c0 .93 1.22 1.25 1.69.45l10.09-17.49a.9.9 0 0 0-.78-1.35Z"/></svg>