<svg xmlns="http://www.w3.org/2000/svg" data-name="Layer 1" viewBox="0 0 101 101"><g fill="none" stroke="#4b3fff" stroke-linecap="round" stroke-linejoin="round" stroke-width="2.7"><circle cx="76.5" cy="23.26" r="15"/><path d="M76.5 16.26c3 0 4 1.5 4 3M76.5 30.26c-3 0-4-1.34-4-3"/><path d="M75.25 22.68 77.75 23.85"/><path d="M75.25 22.68c-1.35-.56-2.75-1.42-2.75-3.17 0-1.93 1.79-3.25 4-3.25M77.75 23.85c1.35.56 2.75 1.42 2.75 3.17 0 1.93-1.79 3.25-4 3.25"/><path d="M76.5 16.26 76.5 13.26"/><path d="M76.5 33.26 76.5 30.26"/><path d="M37.5 70.26h33a9 9 0 0 0 9-9v-17M55.5 20.26h-45a9 9 0 0 0-9 9v32c0 2.49 1.01 4.74 2.64 6.36"/><path d="M95.65 31.88a8.99 8.99 0 0 1 3.85 7.38v34a9 9 0 0 1-9 9h-5v8.72c0 1.33-1.42 2.17-2.59 1.53L68 82.25H38.5a8.97 8.97 0 0 1-6.76-3.06"/><path d="M13.5 62.26 67.5 62.26"/><path d="M13.5 56.26 13.5 50.26 19.5 50.26 19.5 56.26"/><path d="M25.5 56.26 25.5 42.26 31.5 42.26 31.5 56.26"/><path d="M37.5 56.26 37.5 34.26 43.5 34.26 43.5 56.26"/><path d="M49.5 56.26 49.5 28.26 55.5 28.26 55.5 56.26"/><path d="M67.5 42.26 67.5 56.26"/><path d="M61.5 56.26 61.5 38.26"/></g><path fill="#f86a0b" d="M29.66 69.1H9.47c-.93 0-1.25 1.22-.45 1.69l9.64 5.56v11.13c0 .93 1.22 1.25 1.69.45l10.09-17.49a.9.9 0 0 0-.78-1.35Z"/></svg>