<svg xmlns="http://www.w3.org/2000/svg" data-name="Layer 1" viewBox="0 0 101 101"><g fill="none" stroke="#4b3fff" stroke-linejoin="round" stroke-width="2.7"><path stroke-linecap="round" d="M54.59 8.69c3.64.87 8.06-4.89 11.69-3.74-3.64-3.1-8.06.02-11.69-2.8"/><path stroke-linecap="round" d="M87.88 88.62 84.61 81.21 69.61 81.21"/><path stroke-linecap="round" d="M12.68 89.37 16.38 81.2 31.39 81.2"/><path stroke-linecap="round" d="M57.03 97.55 98.17 97.55 91.55 89.4 61.42 89.4"/><path stroke-linecap="round" d="M42.31 89.4 9.46 89.4 2.83 97.55 42.31 97.55"/><path stroke-linecap="round" d="M23.2 64.83 23.2 80.68"/><path stroke-linecap="round" d="M77.8 64.81 77.8 80.66"/><path stroke-linecap="round" d="M28.66 48.45 28.66 56.7"/><path stroke-linecap="round" d="M72.34 48.45 72.34 57.54"/><path stroke-linecap="round" d="M33.27 40.28c.64-10.93 7.92-19.55 16.8-19.55h.05c8.88 0 16.16 8.63 16.8 19.55M47.77 20.07V15.4c0-1.71 1.19-3.1 2.66-3.1s2.8 1.27 2.8 2.99v4.67"/><path stroke-linecap="round" d="M50.48 12.25 50.5 2.05"/><path d="M28.81 51.54c-2.57-1.24-5.05-2.71-5.05-4.27 0-4.46 11.92-8.07 26.63-8.07s26.63 3.62 26.63 8.07c0 1.57-1.48 3.04-4.05 4.28"/><path stroke-linecap="round" d="M37.22 55.5v-8.39c0-.69.56-1.24 1.24-1.24M64.15 55.62v-8.39c0-.69.11-1.36.79-1.36M50.5 54.7v-8.78c0-.69.46-1.24 1.14-1.24M45.04 71.09v-9.33c0-.69.56-1.24 1.24-1.24M55.96 71.09v-9.33c0-.69.56-1.24 1.24-1.24M66.88 73.58v-9.33c0-.69.56-1.24 1.24-1.24M34.12 73.58v-9.33c0-.69.56-1.24 1.24-1.24"/><path d="M22.68 69.47c-3.23-1.46-4.11-3.21-4.11-5.08 0-5.15 14.22-9.32 31.76-9.32s31.76 4.18 31.76 9.32c0 1.9-.93 3.67-4.25 5.14"/></g><path fill="#f86a0b" d="M59.1 79.84h-20c-.91 0-1.23 1.2-.44 1.67l9.55 5.52v11.03c0 .91 1.2 1.23 1.67.44l10-17.31a.89.89 0 0 0-.77-1.33Z"/></svg>