<svg xmlns="http://www.w3.org/2000/svg" data-name="Layer 1" viewBox="0 0 101 101"><path fill="none" stroke="#4b3fff" stroke-linecap="round" stroke-linejoin="round" stroke-width="2.7" d="M34.12 20.47 55.96 20.47"/><path fill="none" stroke="#4b3fff" stroke-linecap="round" stroke-linejoin="round" stroke-width="2.7" d="M34.12 28.66 55.96 28.66"/><g fill="none" stroke="#4b3fff" stroke-linecap="round" stroke-linejoin="round" stroke-width="2.7"><path d="M9.55 80.53 9.55 85.99 75.07 85.98 75.05 10.92 83.24 10.92 83.26 66.82 83.26 94.18 15.01 94.18 15.01 86.75"/><path d="M9.55 69.61 9.55 4.09 47.77 4.09"/></g><g fill="none" stroke="#4b3fff" stroke-linecap="round" stroke-linejoin="round" stroke-width="2.7"><path d="M28.57 18.64c0-1-1-3-4-3s-4 2-4 3c0 4 8 1 8 5 0 1-1 3-4 3s-4-2-4-3"/><path d="M24.57 26.64 24.57 28.64"/><path d="M24.57 13.64 24.57 15.64"/></g><path fill="none" stroke="#4b3fff" stroke-linecap="round" stroke-linejoin="round" stroke-width="2.7" d="M20.47 69.61 64.15 69.61"/><path fill="none" stroke="#4b3fff" stroke-linecap="round" stroke-linejoin="round" stroke-width="2.7" d="M20.47 77.8 64.15 77.8"/><path fill="none" stroke="#4b3fff" stroke-linecap="round" stroke-linejoin="round" stroke-width="2.7" d="M20.47 61.42 64.15 61.42"/><path fill="none" stroke="#4b3fff" stroke-linecap="round" stroke-linejoin="round" stroke-width="2.7" d="M20.47 53.23 64.15 53.23"/><path fill="none" stroke="#4b3fff" stroke-linecap="round" stroke-linejoin="round" stroke-width="2.7" d="M20.47 45.04 64.15 45.04"/><path fill="none" stroke="#4b3fff" stroke-linecap="round" stroke-linejoin="round" stroke-width="2.7" d="M20.47 36.85 64.15 36.85"/><path fill="#f86a0b" d="M72.8 2.74H52.81c-.92 0-1.23 1.21-.44 1.67l9.55 5.51v11.02c0 .92 1.21 1.23 1.67.44l9.99-17.31a.891.891 0 0 0-.77-1.34Z"/></svg>