<svg xmlns="http://www.w3.org/2000/svg" data-name="Layer 1" viewBox="0 0 101 101"><g fill="none" stroke="#4b3fff" stroke-linecap="round" stroke-linejoin="round" stroke-width="2.7"><path d="M10.03 75.95a40.8 40.8 0 0 1-5.78-21c0-22.64 18.36-41 41-41 2.74 0 5.43.27 8.02.78M86.25 55.08c-.07 22.58-18.4 40.87-41 40.87-7.66 0-14.82-2.1-20.96-5.75"/><path d="M66.05 49.34c.13 1.83.2 3.71.2 5.61 0 22.64-9.4 41-21 41s-21-18.36-21-41 9.4-41 21-41"/><path d="M45.25 13.95 45.25 95.95"/><path d="M4.25 54.95 70.15 54.95"/><path d="M10.03 33.95 55.18 33.95"/><path d="M10.03 75.95 80.47 75.95"/></g><g fill="none" stroke="#4b3fff" stroke-linecap="round" stroke-linejoin="round" stroke-width="2.7"><circle cx="78.25" cy="21.95" r="9"/><path d="M62.05 33.69c-2.39-3.3-3.8-7.35-3.8-11.73 0-11.05 8.95-20 20-20s20 8.95 20 20c0 4.38-1.41 8.44-3.8 11.73l-16.2 22.18z"/></g><path fill="#f86a0b" d="M23.84 79.76H3.65c-.93 0-1.25 1.22-.45 1.69l9.64 5.56v11.13c0 .93 1.22 1.25 1.69.45L24.62 81.1a.9.9 0 0 0-.78-1.35Z"/></svg>