<svg xmlns="http://www.w3.org/2000/svg" data-name="Layer 1" viewBox="0 0 101 101"><g fill="none" stroke="#4b3fff" stroke-linecap="round" stroke-linejoin="round" stroke-width="2.7"><path d="M70.24 83.61 74.24 87.61 84.24 77.61"/><circle cx="77" cy="82.5" r="15"/><path d="M33.46 83.99 54 97.5l6.23-4.1M16.27 56.1c-.17 1.08-.27 2.21-.27 3.4 0 9.28 4.48 15.73 11.96 20.86M90.51 67.75c.97-2.61 1.49-5.47 1.49-8.62 0-9.59-6.35-14.39-6.35-23.02S91 19.5 91 19.5l-8-8s-4.79 2.51-13.65 2.51C59.03 14.01 54 3.5 54 3.5s-5.03 10.51-15.35 10.51C29.79 14.01 25 11.5 25 11.5l-8 8s5.35 7.98 5.35 16.61c0 1.66-.23 3.19-.61 4.64"/><path d="m24.44 20.54 2.11-2.11c2.79.79 6.86 1.57 12.11 1.57 6.86 0 11.93-3.24 15.35-6.59C57.42 16.76 62.49 20 69.36 20c5.24 0 9.32-.78 12.11-1.57l2.11 2.11c-1.8 3.72-3.91 9.4-3.91 15.57 0 5.51 1.91 9.68 3.59 13.37 1.48 3.24 2.76 6.03 2.76 9.65 0 1.73-.2 3.36-.6 4.9M27.96 40.36c.24-1.33.38-2.74.38-4.24 0-2.78-.43-5.47-1.06-7.92M57.73 87.86 54 90.31 32.02 75.85c-5.27-3.46-8.27-7.08-9.44-11.56"/><path d="m55 35.54 2.98 9.16h9.63c1.02 0 1.44 1.31.62 1.91l-7.79 5.66 2.98 9.16c.32.97-.8 1.78-1.62 1.18l-7.79-5.66-7.79 5.66c-.83.6-1.94-.21-1.62-1.18l2.98-9.16-7.79-5.66c-.83-.6-.4-1.91.62-1.91h9.63l2.98-9.16c.32-.97 1.69-.97 2 0Z"/></g><path fill="#f86a0b" d="M30.09 43.53H9.9c-.93 0-1.25 1.22-.45 1.69l9.64 5.56v11.13c0 .93 1.22 1.25 1.69.45l10.09-17.49a.9.9 0 0 0-.78-1.35Z"/></svg>