<svg xmlns="http://www.w3.org/2000/svg" data-name="Layer 1" viewBox="0 0 101 101"><g fill="none" stroke="#4b3fff" stroke-linecap="round" stroke-linejoin="round" stroke-width="2.7"><path d="M26.59 65.67 26.59 94.11 90.18 94.11 90.18 12.58 38.9 12.58"/><path d="M90.18 88.42 96.34 88.42 96.34 6.89 32.74 6.89 32.74 8.79"/><path d="M36.07 77.05 80.89 77.05"/><path d="M36.07 85.4 80.89 85.4"/><path d="M36.07 69.46 80.89 69.46"/><path d="M51.01 61.88 80.89 61.88"/><path d="M59.55 54.29 80.89 54.29"/><path d="M59.55 46.43 80.89 46.43"/></g><path fill="#f86a0b" d="M80.44 19.61H60.25c-.93 0-1.25 1.22-.45 1.69l9.64 5.56v11.13c0 .93 1.22 1.25 1.69.45l10.09-17.49a.9.9 0 0 0-.78-1.35Z"/><path fill="none" stroke="#4b3fff" stroke-linecap="round" stroke-linejoin="round" stroke-width="2.7" d="M45.91 29.41c-3.04-7.7-10.54-13.15-19.32-13.15M34.18 56.36c7.71-3.03 13.18-10.54 13.18-19.33M7.27 44.64c3.04 7.7 10.54 13.15 19.32 13.15M18.23 18.01c-7.3 3.22-12.4 10.52-12.4 19.01"/><g fill="none" stroke="#4b3fff" stroke-linecap="round" stroke-linejoin="round" stroke-width="2.7"><path d="M26.59 30.24c2.91 0 3.88 1.45 3.88 2.91M26.59 43.81c-2.91 0-3.88-1.3-3.88-2.91"/><path d="M25.38 36.46 27.8 37.59"/><path d="M25.38 36.46c-1.31-.54-2.66-1.37-2.66-3.07 0-1.87 1.74-3.15 3.88-3.15M27.8 37.59c1.31.54 2.66 1.37 2.66 3.07 0 1.87-1.74 3.15-3.88 3.15"/><path d="M26.59 30.24 26.59 27.34"/><path d="M26.59 46.71 26.59 43.81"/></g><path fill="none" stroke="#4b3fff" stroke-linecap="round" stroke-linejoin="round" stroke-width="2.7" d="M4.66 49.72 6.08 43.13 12.66 44.55"/><path fill="none" stroke="#4b3fff" stroke-linecap="round" stroke-linejoin="round" stroke-width="2.7" d="M15.18 14.23 21.29 17.08 18.44 23.18"/><path fill="none" stroke="#4b3fff" stroke-linecap="round" stroke-linejoin="round" stroke-width="2.7" d="M36.99 60.55 31.37 56.83 35.08 51.21"/><path fill="none" stroke="#4b3fff" stroke-linecap="round" stroke-linejoin="round" stroke-width="2.7" d="M49.72 25.67 46.87 31.78 40.76 28.93"/></svg>