<svg xmlns="http://www.w3.org/2000/svg" data-name="Layer 1" viewBox="0 0 101 101"><g fill="none" stroke="#4b3fff" stroke-linecap="round" stroke-linejoin="round" stroke-width="2.7"><circle cx="31.76" cy="12.63" r="10.86"/><path d="M29.01 15.38c0 1.14.69 2.07 2.76 2.07 1.52 0 2.76-.91 2.76-2.24 0-1.21-.96-1.8-1.89-2.18l-1.72-.8c-.93-.39-1.89-.98-1.89-2.18 0-1.33 1.23-2.24 2.76-2.24 2.07 0 2.76 1.03 2.76 2.07"/><path d="M31.76 7.81 31.76 5.74"/><path d="M31.76 19.52 31.76 17.45"/><path d="M29.86 69.24H14.25c-.39 0-.73.21-.92.54L5.51 83.59c-.19.33-.19.72 0 1.05l7.82 13.81c.19.34.55.54.92.54h15.61c.39 0 .73-.21.92-.54l7.82-13.81c.19-.33.19-.72 0-1.05l-7.82-13.81c-.19-.34-.55-.54-.92-.54"/><circle cx="22.05" cy="84.1" r="7.67"/><path d="M51.48 17.87 51.48 22.2"/><path d="M51.48 56.86 51.48 61.2"/><path d="M29.82 39.53 34.16 39.53"/><path d="M68.81 39.53 73.14 39.53"/><path d="M47.5 7.32c1.3-.16 2.63-.24 3.98-.24 17.92 0 32.45 14.53 32.45 32.45S69.4 71.98 51.48 71.98 19.03 57.45 19.03 39.53c0-4.66.98-9.1 2.76-13.11"/><path d="M26.62 28.74c-1.44 3.3-2.23 6.95-2.23 10.78 0 14.97 12.13 27.11 27.1 27.11s27.1-12.14 27.1-27.11-12.13-27.1-27.1-27.1c-1.07 0-2.12.06-3.16.19"/><path d="M74.73 77.17 79.02 80.81 83.38 77.36"/><path d="m83.38 93.72-3.47-2.73c-.52-.41-1.25-.4-1.76.03l-2.56 2.17c-.5.43-1.24.44-1.76.03l-2.61-2.06c-.5-.4-1.21-.4-1.71 0l-2.57 2c-.5.39-1.21.39-1.71 0l-2.65-2.09c-.5-.4-1.21-.4-1.71 0l-2.57 2c-.5.39-1.21.39-1.71 0l-2.65-2.09c-.5-.4-1.21-.4-1.71 0l-2.58 2.01c-.5.39-1.21.39-1.71 0l-2.9-2.26c-.34-.26-.54-.67-.54-1.09v-8.12c0-.43.2-.83.54-1.1l2.9-2.26c.5-.39 1.21-.39 1.71 0l2.58 2.01c.5.39 1.21.39 1.71 0l2.65-2.09c.5-.4 1.21-.4 1.71 0l2.57 2c.5.39 1.21.39 1.71 0l2.65-2.09c.5-.4 1.21-.4 1.71 0l2.57 2c.5.39 1.21.39 1.71 0l3.5-2.76"/><path d="M44.49 90.28 53.07 80.81"/><path d="M53.14 90.28 61.72 80.81"/><path d="M61.79 90.28 70.63 80.45"/><path d="M93.09 99.22 83.88 99.22 83.88 71.82 93.09 71.82 95.63 76.22 95.63 94.82 93.09 99.22z"/><path d="M93.09 71.82 89.99 78.42 95.46 85.29"/><path d="M93.09 99.22 89.99 92.13 95.63 85.29"/><path d="M89.99 92.13 84.22 92.13"/><path d="M89.99 78.42 83.88 78.42"/><path d="M70.5 90.28 79.34 80.45"/><path d="M79.21 90.28 83.39 85.63"/></g><path fill="#f86a0b" d="M60.49 30.56H40.5c-.92 0-1.24 1.21-.44 1.67l9.55 5.51v11.03c0 .92 1.21 1.24 1.67.44l10-17.31a.89.89 0 0 0-.77-1.34"/></svg>