<svg xmlns="http://www.w3.org/2000/svg" data-name="Layer 1" viewBox="0 0 101 101"><g fill="none" stroke="#4b3fff" stroke-linecap="round" stroke-linejoin="round" stroke-width="2.7"><path d="M9.55 20.31V17.8c0-1.68 1.36-3.04 3.04-3.04h54.28M9.55 66.67h27.3m5.46 10.92H13.08c-1.68 0-3.53-1.86-3.53-3.54V39.32m54.62 27.35h27.28v7.66c0 1.68-2.41 3.26-4.09 3.26H58.7M30.15 29.76a4.06 4.06 0 0 1 0 8.12 4.06 4.06 0 0 1 0-8.12M70.75 41.66a4.06 4.06 0 0 1 0 8.12 4.06 4.06 0 0 1 0-8.12M50.45 41.89a4.06 4.06 0 0 1 0 8.12 4.06 4.06 0 0 1 0-8.12M91.04 52.99a4.06 4.06 0 0 1 0 8.12 4.06 4.06 0 0 1 0-8.12M9.86 25.87a4.06 4.06 0 0 1 0 8.12 4.06 4.06 0 0 1 0-8.12M82.58 2.47 69.52 22.98c-.82 1.28.12 2.95 1.65 2.95h26.1c1.53 0 2.47-1.66 1.65-2.95L85.86 2.47a1.96 1.96 0 0 0-3.3 0z"/><path d="M84.28 9.58 84.28 15.17"/><path d="M84.28 20.56 84.28 19.28"/><path d="M14.51 30.03 25.77 32.71"/><path d="M33.59 36.81 46.36 44.17"/><path d="M55.02 45.99 65.35 46.12"/><path d="M74.55 47.77 87.21 55.12"/><path d="M95.59 57.13 99.03 57.13"/><path d="M1.78 29.96 5.14 29.96"/><path d="M41.57 98.79 43.92 82.43"/><path d="M59.28 98.79 56.93 82.43"/><path d="M34.81 99.43 66.04 99.43"/><path d="M91.45 31.28 91.45 47.56"/></g><path fill="#f86a0b" d="M59.13 59.86h-20c-.91 0-1.24 1.21-.44 1.66l9.55 5.51v11.03c0 .91 1.21 1.24 1.66.44l10-17.31c.34-.59-.09-1.34-.77-1.34"/></svg>