<svg xmlns="http://www.w3.org/2000/svg" data-name="Layer 1" viewBox="0 0 101 101"><g fill="none" stroke="#4b3fff" stroke-linecap="round" stroke-linejoin="round" stroke-width="2.7"><path d="M85.83 30.2h3.95c2.23 0 4.04 1.81 4.04 4.04v52.41M7.46 86.66V34.89c.36-2.51 2.4-4.55 4.92-4.55h3.05M75.04 92.43H4.79c-1.68 0-3.03-1.36-3.03-3.03v-2.34h97.48v2.34c0 1.68-1.36 3.03-3.03 3.03H85.62"/><path d="M12.73 57.49 12.73 81.75 30.93 81.75"/><path d="M88.45 57.28 88.45 81.56 70.25 81.56"/><ellipse cx="50.61" cy="41" rx="32.48" ry="32.43"/><path d="M50.61 65.28c-13.39 0-24.29-10.9-24.29-24.29S37.22 16.7 50.61 16.7 74.9 27.6 74.9 40.99 64 65.28 50.61 65.28"/></g><path fill="#f86a0b" d="M60.5 32.77h-20c-.91 0-1.24 1.21-.44 1.66l9.55 5.51v11.03c0 .91 1.21 1.24 1.66.44l10-17.31c.34-.59-.09-1.34-.77-1.34"/></svg>