<svg xmlns="http://www.w3.org/2000/svg" data-name="Layer 1" viewBox="0 0 101 101"><g fill="none" stroke="#4b3fff" stroke-linecap="round" stroke-linejoin="round" stroke-width="2.7"><circle cx="20.5" cy="33.43" r="12"/><path d="M8.5 72.43 14.5 60.43 19.5 68.43 27.5 64.43 32.5 54.43"/><path d="M12.5 25.43 20.5 33.43 28.5 41.43"/><path d="M19.5 22.43 20.5 33.43 10.5 38.43"/></g><g fill="none" stroke="#4b3fff" stroke-linecap="round" stroke-linejoin="round" stroke-width="2.7"><path d="M1.5 10.43H39.5V82.43H1.5z"/><path d="M45.5 10.43 49.5 10.43"/><path d="M55.5 10.43 59.5 10.43"/><path d="M65.5 10.43 69.5 10.43"/><path d="M75.5 10.43 79.5 10.43"/><path d="M85.5 10.43 89.5 10.43"/><path d="M95.5 10.43h2c1.1 0 2 .9 2 2v1"/><path d="M75.5 82.43 79.5 82.43"/><path d="M85.5 82.43 89.5 82.43"/><path d="M99.5 79.43v1c0 1.1-.9 2-2 2h-2"/><path d="M99.5 19.43 99.5 23.43"/><path d="M99.5 29.43 99.5 33.43"/><path d="M99.5 39.43 99.5 43.43"/><path d="M99.5 49.43 99.5 53.43"/><path d="M99.5 59.43 99.5 63.43"/><path d="M99.5 69.43 99.5 73.43"/><path d="M45.5 20.43 89.5 20.43 89.5 72.43 76.19 72.43"/><path d="M80.5 61.43 49.5 61.43"/><path d="M80.5 51.43 49.5 51.43"/><path d="M80.5 41.43 49.5 41.43"/><path d="M80.5 31.43 49.5 31.43"/></g><path fill="#f86a0b" d="M68.59 71.29H48.4c-.93 0-1.25 1.22-.45 1.69l9.64 5.56v11.13c0 .93 1.22 1.25 1.69.45l10.09-17.49a.9.9 0 0 0-.78-1.35Z"/></svg>