<svg xmlns="http://www.w3.org/2000/svg" data-name="Layer 1" viewBox="0 0 101 101"><path fill="#f86a0b" d="M59.59 34.86H39.4c-.93 0-1.25 1.22-.45 1.69l9.64 5.56v11.13c0 .93 1.22 1.25 1.69.45L60.37 36.2a.9.9 0 0 0-.78-1.35Z"/><g fill="none" stroke="#4b3fff" stroke-linecap="round" stroke-linejoin="round" stroke-width="2.7"><path d="M56.51 64.55a9.75 9.75 0 0 1 4.3-8.09l.67-.46c4.85-3.44 8.01-9.1 8.01-15.5 0-10.49-8.51-19-19-19s-19 8.51-19 19c0 6.35 3.11 11.96 7.9 15.41a9.76 9.76 0 0 1 4.6 8.29v4.31h11.5c2.21 0 4 1.79 4 4v13c0 2.21-1.79 4-4 4h-25v-10c0-2.21-1.79-4-4-4h-10c-2.21 0-4 1.79-4 4v10h-7c-2.21 0-4-1.79-4-4V15.5c0-2.21 1.79-4 4-4h90c2.21 0 4 1.79 4 4v70c0 2.21-1.79 4-4 4h-7v-10c0-2.21-1.79-4-4-4h-10c-2.21 0-4 1.79-4 4v10h-5"/><circle cx="21.5" cy="65.5" r="5"/><circle cx="79.5" cy="65.5" r="5"/><path d="M70.5 27.5 79 19"/><path d="M21 19 29.5 27.5"/><path d="M26.75 31.5 20 29.58"/><path d="M73.15 31.5 79.9 29.58"/></g></svg>