<svg xmlns="http://www.w3.org/2000/svg" data-name="Layer 1" viewBox="0 0 101 101"><g fill="none" stroke="#4b3fff" stroke-linecap="round" stroke-linejoin="round" stroke-width="2.7"><path d="M70.24 83.61 74.24 87.61 84.24 77.61"/><circle cx="77" cy="82.5" r="15"/><path d="M33.46 83.99 54 97.5l6.23-4.1M16.18 62.62c.9 7.64 5.17 13.21 11.78 17.75M90.51 67.75c.97-2.61 1.49-5.47 1.49-8.62 0-9.59-6.35-14.39-6.35-23.02S91 19.5 91 19.5l-8-8s-4.79 2.51-13.65 2.51C59.03 14.01 54 3.5 54 3.5s-5.03 10.51-15.35 10.51C29.79 14.01 25 11.5 25 11.5l-8 8s5.35 7.98 5.35 16.61"/><path d="m24.44 20.54 2.11-2.11c2.79.79 6.86 1.57 12.11 1.57 6.86 0 11.93-3.24 15.35-6.59C57.42 16.76 62.49 20 69.36 20c5.24 0 9.32-.78 12.11-1.57l2.11 2.11c-1.8 3.72-3.91 9.4-3.91 15.57 0 5.51 1.91 9.68 3.59 13.37 1.48 3.24 2.76 6.03 2.76 9.65 0 1.73-.2 3.36-.6 4.9M28.35 36.11c0-2.78-.43-5.47-1.06-7.92M57.73 87.86 54 90.31 32.02 75.85c-3.64-2.39-6.19-4.86-7.81-7.63"/></g><path fill="#f86a0b" d="M30.09 40.53H9.9c-.93 0-1.25 1.22-.45 1.69l9.64 5.56v11.13c0 .93 1.22 1.25 1.69.45l10.09-17.49a.9.9 0 0 0-.78-1.35Z"/><g fill="none" stroke="#4b3fff" stroke-linecap="round" stroke-linejoin="round" stroke-width="2.7"><circle cx="54.22" cy="49.83" r="6.06"/><path d="M60.22 37.02c-.53-.25-1.08-.46-1.64-.65a.65.65 0 0 1-.46-.6l-.06-2.84a1.09 1.09 0 0 0-.88-1.05c-.7-.11-1.41-.19-2.14-.22-.72-.03-1.44-.02-2.15.03-.51.04-.92.45-.97.96-.1.86-.24 2.15-.31 2.83-.03.28-.24.49-.51.56-.61.14-1.21.32-1.79.53"/><path d="M49.41 36.53c-.46.17-.92.36-1.37.58-.4.2-.88.14-1.2-.17L45 35.17c-.37-.36-.95-.41-1.36-.11-.58.41-1.13.86-1.67 1.35s-1.04 1-1.5 1.54c-.34.39-.33.97-.01 1.37l1.58 1.97c.29.36.31.86.07 1.26-.27.45-.51.91-.73 1.38"/><path d="M41.41 43.83c-.21.45-.4.9-.56 1.37-.15.42-.53.72-.97.73l-2.55.05c-.51.01-.96.38-1.05.88-.11.7-.19 1.41-.22 2.14s-.02 1.44.03 2.15c.04.51.45.92.96.97l2.51.28c.46.05.83.39.94.84.13.51.28 1 .46 1.49"/><path d="M40.92 54.64c.17.46.36.92.58 1.37.2.4.14.88-.17 1.2l-1.77 1.84c-.36.37-.41.95-.11 1.36.41.58.86 1.13 1.35 1.67s1 1.04 1.54 1.5c.39.34.97.33 1.37.01l1.97-1.58c.36-.29.86-.31 1.26-.07.45.27.91.51 1.38.73"/><path d="M48.22 62.64c.53.25 1.08.46 1.64.65.27.09.45.32.46.6l.06 2.84c.01.51.38.96.88 1.05.7.11 1.41.19 2.14.22s1.44.02 2.15-.03c.51-.04.92-.45.97-.96.1-.86.24-2.15.31-2.83.03-.28.24-.49.51-.56.61-.14 1.21-.32 1.79-.53"/><path d="M59.03 63.13c.46-.17.92-.36 1.37-.58.4-.2.88-.14 1.2.17l1.84 1.77c.37.36.95.41 1.36.11.58-.41 1.13-.86 1.67-1.35s1.04-1 1.5-1.54c.34-.39.33-.97.01-1.37l-1.58-1.97c-.29-.36-.31-.86-.07-1.26.27-.45.51-.91.73-1.38"/><path d="M67.03 55.83c.21-.45.4-.9.56-1.37.15-.42.53-.72.97-.73l2.55-.05c.51-.01.96-.38 1.05-.88.11-.7.19-1.41.22-2.14s.02-1.44-.03-2.15c-.04-.51-.45-.92-.96-.97l-2.51-.28c-.46-.05-.83-.39-.94-.84-.13-.51-.28-1-.46-1.49"/><path d="M67.52 45.01c-.17-.46-.36-.92-.58-1.37-.2-.4-.14-.88.17-1.2l1.77-1.84c.36-.37.41-.95.11-1.36-.41-.58-.86-1.13-1.35-1.67s-1-1.04-1.54-1.5c-.39-.34-.97-.33-1.37-.01l-1.97 1.58c-.36.29-.86.31-1.26.07-.45-.27-.91-.51-1.38-.73"/></g></svg>