<svg xmlns="http://www.w3.org/2000/svg" data-name="Layer 1" viewBox="0 0 101 101"><g fill="none" stroke="#4b3fff" stroke-linecap="round" stroke-linejoin="round" stroke-width="2.7"><path d="M70.35 13.36h-58.8c-4.87 0-8.82 4.62-8.82 9.46v34.12c0 4.84 3.74 8.29 8.61 8.29h5.1v9.55c0 1.3 1.48 1.71 2.64 1.09l15.04-10.64h36.85c4.87 0 8.19-3.44 8.19-8.29v-34.1c0-4.84-3.95-9.46-8.82-9.46h0Z"/><path d="M31.39 74.79c1.61 1.82 4.71 1.36 7.34 1.36h28.76l14.62 11.27c1.14.62 2.52-.2 2.52-1.5v-8.41h4.87c4.84 0 8.78-4.02 8.78-8.87V38.42c0-4.84-3.15-8.68-8-8.68h-2.92"/><path d="M16.38 51.59 68.24 51.59"/><path d="M30.03 40.67 68.24 40.67"/><path d="M35.49 29.75 68.24 29.75"/></g><path fill="#f86a0b" d="M30.45 20.19h-20c-.91 0-1.23 1.2-.44 1.67l9.55 5.52v11.03c0 .91 1.2 1.23 1.67.44l10-17.31a.89.89 0 0 0-.77-1.33Z"/></svg>