<svg xmlns="http://www.w3.org/2000/svg" data-name="Layer 1" viewBox="0 0 101 101"><g fill="none" stroke="#4b3fff" stroke-linecap="round" stroke-linejoin="round" stroke-width="2.7"><path d="M89.5 63.5 89.5 93.5 37.5 93.5 37.5 63.5"/><path d="M69 75.5h11c.83 0 1.5.67 1.5 1.5v16.5h-14V77c0-.83.67-1.5 1.5-1.5"/><path d="M74.5 75.5 74.5 93.5"/><path d="M42.18 59.5 35.5 59.5 35.5 63.5 42.11 63.5"/><path d="M56.05 63.5 91.5 63.5 91.5 59.5 58.39 59.5"/><rect width="16" height="14" x="45.5" y="71.5" rx="1.5" ry="1.5"/><path d="M53.5 71.5 53.5 85.5"/><path d="M45.5 78.71 61.5 78.71"/><path d="M29.5 81.5H37.5V93.5H29.5z"/><path d="M31.5 71.5 1.5 71.5 1.5 47.5 33.5 47.5"/><path d="M15.5 40.5 15.5 71.5"/><path d="M9.5 59.5 15.5 59.5"/><path d="M9.5 63.5 15.5 63.5"/><path d="M9.5 67.5 15.5 67.5"/><path d="M9.5 55.5 15.5 55.5"/><path d="M9.5 51.5 15.5 51.5"/><path d="M9.5 71.5 9.5 40.5 39.5 40.5 39.5 40.5"/><path d="M21.5 40.5 21.5 47.5"/><path d="M27.5 40.5 27.5 47.5"/><path d="M33.5 40.5 33.5 47.5"/><path d="M51.5 41.71 99.5 41.71"/><path d="M51.5 15.5 99.5 15.5"/><path d="M63.97 47.71 99.5 47.71"/><path d="M95.5 80.71h4v-65.1c0-.39-.2-.75-.53-.94-7.63-4.49-14.71-7.16-23.47-7.16s-15.85 2.68-23.47 7.17a1.1 1.1 0 0 0-.53.94v26.1"/><path d="M75.5 21.5c-.7 3.71-5 5.26-5 9.11 0 2.6 2.34 4.89 5 4.89s5-2.28 5-4.89c0-3.85-4.3-5.4-5-9.11"/></g><path fill="#f86a0b" d="M38.4 46.74c-.93 0-1.25 1.22-.45 1.69l9.64 5.56v11.13c0 .93 1.22 1.25 1.69.45l10.09-17.49a.9.9 0 0 0-.78-1.35H38.4Z"/></svg>