<svg xmlns="http://www.w3.org/2000/svg" data-name="Layer 1" viewBox="0 0 101 101"><g fill="none" stroke="#4b3fff" stroke-linecap="round" stroke-linejoin="round" stroke-width="2.7"><path d="M18.74 80.7 21.87 83.82 29.15 76.53"/><path d="M23.95 99.44s-13.54-8.4-13.54-15.53V69.46l13.54-5.42 13.54 5.42v14.45c0 7.13-13.54 15.53-13.54 15.53"/></g><g fill="none" stroke="#4b3fff" stroke-linecap="round" stroke-linejoin="round" stroke-width="2.7"><path d="M23.95 57.31V46.34c0-5.75 4.66-10.41 10.41-10.41h45.81c5.75 0 10.41 4.66 10.41 10.41M90.59 56.75v27.07c0 5.75-4.66 10.41-10.41 10.41H39.51M71.85 35.92V24.47c0-7.46-6.07-13.54-13.54-13.54S44.77 17 44.77 24.47v11.45"/><path d="M81.22 35.92V24.47c0-12.65-10.26-22.91-22.91-22.91h0c-12.65 0-22.91 10.26-22.91 22.91v11.45"/></g><path fill="#f86a0b" d="M66.5 57.32h-20c-.91 0-1.23 1.2-.44 1.67l9.55 5.52v11.03c0 .91 1.2 1.23 1.67.44l10-17.31a.89.89 0 0 0-.77-1.33Z"/></svg>