<svg xmlns="http://www.w3.org/2000/svg" data-name="Layer 1" viewBox="0 0 101 101"><path fill="#f86a0b" d="M85.49 18.75H65.3c-.93 0-1.25 1.22-.45 1.69L74.49 26v11.13c0 .93 1.22 1.25 1.69.45l10.09-17.49a.9.9 0 0 0-.78-1.35Z"/><g fill="none" stroke="#4b3fff" stroke-linecap="round" stroke-linejoin="round" stroke-width="2.7"><path d="M91.47 36.03A23.93 23.93 0 0 1 98.5 53c0 5.52-1.87 10.91-5 15M50.5 53c0-10.52 6.77-19.46 16.18-22.7"/><path d="M3.5 21 57.5 21"/><path d="M92.5 26V13c0-2.21-1.79-4-4-4h-82c-2.21 0-4 1.79-4 4v60c0 2.21 1.79 4 4 4h38"/><path d="M10.5 31 49.5 31"/><path d="M10.5 39 44.5 39"/><circle cx="10.5" cy="15" r="2"/><circle cx="18.5" cy="15" r="2"/><circle cx="26.5" cy="15" r="2"/><path d="M32.5 53 44.5 53"/><path d="M32.5 61 44.5 61"/><path d="M17.03 49.76c3.4 0 4.53 1.7 4.53 3.4M17.03 65.61c-3.4 0-4.53-1.52-4.53-3.4"/><path d="M15.61 57.02 18.44 58.34"/><path d="M15.61 57.02c-1.53-.63-3.11-1.6-3.11-3.59 0-2.19 2.03-3.68 4.53-3.68M18.44 58.34c1.53.63 3.11 1.6 3.11 3.59 0 2.19-2.03 3.68-4.53 3.68"/><path d="M17.03 49.76 17.03 46.36"/><path d="M17.03 69 17.03 65.61"/><path d="M59.5 74v-7c0-1.66 1.34-3 3-3h0c1.66 0 3 1.34 3 3v5M53.5 79V69c0-1.66 1.34-3 3-3h0c1.66 0 3 1.34 3 3v5M65.5 72v-7c0-1.66 1.34-3 3-3h0c1.66 0 3 1.34 3 3v6M59.5 92c-3.31 0-6-2.69-6-6v-7M71.5 71V53c0-1.66 1.34-3 3-3h0c1.66 0 3 1.34 3 3v22l5.28-5.28a3.85 3.85 0 0 1 5.44 0h0a3.84 3.84 0 0 1 .43 4.92l-9.76 13.94a7.99 7.99 0 0 1-6.55 3.41"/><path d="M64.5 53c0-5.52 4.48-10 10-10s10 4.48 10 10c0 2.25-.74 4.33-2 6"/></g></svg>