<svg xmlns="http://www.w3.org/2000/svg" data-name="Layer 1" viewBox="0 0 101 101"><g fill="none" stroke="#4b3fff" stroke-linecap="round" stroke-linejoin="round" stroke-width="2.7"><path d="M50.5 1.5s-6 10-6 19c0 7 4 13 4 13M27.5 19.6s3.09 7.41 8.26 11.08c2.99 2.12 6.57 2.75 8.2 2.93"/><path d="M27.49 19.62s8.02.48 13.18 4.15c.02.02.05.03.07.05M30.76 37.56s5.85 2.59 10.84 1.88c1.8-.26 3.41-.97 4.62-1.66"/><path d="M30.76 37.58s1.69-1.42 4.09-2.73M50.5 36.5c0 3.31-2.69 6-6 6M50.5 1.5s6 10 6 19c0 7-4 13-4 13M73.5 19.6s-3.09 7.41-8.26 11.08c-2.99 2.12-6.57 2.75-8.2 2.93"/><path d="M73.51 19.62s-8.02.48-13.18 4.15c-.02.02-.05.03-.07.05M70.24 37.56s-5.85 2.59-10.84 1.88c-1.8-.26-3.41-.97-4.62-1.66"/><path d="M70.24 37.58s-1.69-1.42-4.09-2.73M50.5 36.5c0 3.31 2.69 6 6 6"/><path d="M50.5 36.5 50.5 44.5"/></g><path fill="none" stroke="#4b3fff" stroke-linecap="round" stroke-linejoin="round" stroke-width="2.7" d="M39.5 44.5 1.5 44.5 1.5 34.5 27.5 34.5"/><path fill="none" stroke="#4b3fff" stroke-linecap="round" stroke-linejoin="round" stroke-width="2.7" d="M73.5 34.5 99.5 34.5 99.5 44.5 61.5 44.5"/><path fill="none" stroke="#4b3fff" stroke-linecap="round" stroke-linejoin="round" stroke-width="2.7" d="M7.5 44.5 7.5 99.5"/><path fill="none" stroke="#4b3fff" stroke-linecap="round" stroke-linejoin="round" stroke-width="2.7" d="M93.5 44.5 93.5 99.5"/><path fill="none" stroke="#4b3fff" stroke-linecap="round" stroke-linejoin="round" stroke-width="2.7" d="M1.5 99.5 99.5 99.5"/><path fill="none" stroke="#4b3fff" stroke-linecap="round" stroke-linejoin="round" stroke-width="2.7" d="M35.5 83.5 35.5 99.5 15.5 99.5 15.5 59.5 35.5 59.5 35.5 77.5 30.5 77.5"/><path fill="none" stroke="#4b3fff" stroke-linecap="round" stroke-linejoin="round" stroke-width="2.7" d="M20.5 52.5 30.5 52.5"/><path fill="none" stroke="#4b3fff" stroke-linecap="round" stroke-linejoin="round" stroke-width="2.7" d="M58.5 52.5 84.5 52.5 84.5 91.5 45.5 91.5 45.5 52.5 52.5 52.5"/><path fill="#f86a0b" d="M74.59 64.42H54.4c-.93 0-1.25 1.22-.45 1.69l9.64 5.56V82.8c0 .93 1.22 1.25 1.69.45l10.09-17.49a.9.9 0 0 0-.78-1.35Z"/></svg>