<svg xmlns="http://www.w3.org/2000/svg" data-name="Layer 1" viewBox="0 0 101 101"><g fill="none" stroke="#4b3fff" stroke-linecap="round" stroke-linejoin="round" stroke-width="2.7"><path d="M1.5 94.5 99.5 94.5"/><path d="M60.5 73.5 60.5 79.5"/><path d="M92.5 73.5 92.5 79.5"/><path d="M53.5 79.5H99.5V85.5H53.5z"/><path d="M53.5 73.5 99.5 73.5"/><path d="M53.5 68.5 99.5 68.5"/><path d="M53.5 63.5 99.5 63.5"/><path d="M57.5 85.5 57.5 94.5"/><path d="M63.5 85.5 63.5 94.5"/><path d="M89.5 85.5 89.5 94.5"/><path d="M95.5 85.5 95.5 94.5"/><path d="M26.5 77.5 26.5 94.5"/><path d="M18.5 77.5 18.5 94.5"/><path d="m37.15 54.26-7.1-11.58h3.17c1.18 0 1.92-1.28 1.33-2.3L23.83 21.77c-.59-1.02-2.07-1.03-2.66 0L10.41 40.38c-.59 1.02.15 2.31 1.33 2.31h10.25M35.79 77.5h6.17c1.18 0 1.92-1.28 1.33-2.3l-3.31-5.72"/><path d="M14.04 42.68 5.91 56.76c-.59 1.02.15 2.3 1.33 2.3h3.78L1.71 75.2c-.59 1.02.15 2.3 1.33 2.3H26.5"/></g><g fill="none" stroke="#4b3fff" stroke-linecap="round" stroke-linejoin="round" stroke-width="2.7"><circle cx="80.5" cy="25.5" r="10"/><path d="M61.5 25.5 65.5 25.5"/><path d="M95.5 25.5 99.5 25.5"/><path d="M67.06 38.94 69.89 36.11"/><path d="M91.11 14.89 93.94 12.07"/><path d="M80.5 44.5 80.5 40.5"/><path d="M80.5 10.5 80.5 6.5"/><path d="M93.94 38.94 91.11 36.11"/><path d="M69.89 14.89 67.06 12.07"/></g><path fill="#f86a0b" d="M40.92 57.86H20.73c-.93 0-1.25 1.22-.45 1.69l9.64 5.56v11.13c0 .93 1.22 1.25 1.69.45L41.7 59.2a.9.9 0 0 0-.78-1.35Z"/></svg>