<svg xmlns="http://www.w3.org/2000/svg" data-name="Layer 1" viewBox="0 0 101 101"><path fill="#f86a0b" d="M53.59 48.36H33.4c-.93 0-1.25 1.22-.45 1.69l9.64 5.56v11.13c0 .93 1.22 1.25 1.69.45L54.37 49.7a.9.9 0 0 0-.78-1.35Z"/><path fill="none" stroke="#4b3fff" stroke-linecap="round" stroke-linejoin="round" stroke-width="2.7" d="M83.38 80.01c-.37.04-.68.26-.84.6-.16.33-.13.72.07 1.03l7.8 11.94L85.13 97l-7.8-11.95c-.2-.3-.53-.48-.88-.48h-.03c-.37 0-.7.21-.88.52l-4.1 7.07L67.52 64l13.59 8.59s.01 0 .02.01l10.39 6.57-8.12.84Z"/><path fill="none" stroke="#4b3fff" stroke-linecap="round" stroke-linejoin="round" stroke-width="2.7" d="M38.5 18 67.5 18"/><path fill="none" stroke="#4b3fff" stroke-linecap="round" stroke-linejoin="round" stroke-width="2.7" d="M38.5 24 56.5 24"/><path fill="none" stroke="#4b3fff" stroke-linecap="round" stroke-linejoin="round" stroke-width="2.7" d="M61.5 75 21.5 75 21.5 39 67.5 39 67.5 57"/><g fill="none" stroke="#4b3fff" stroke-linecap="round" stroke-linejoin="round" stroke-width="2.7"><path d="M9.5 69 9.5 4 76.5 4 76.5 61"/><path d="M62.5 85 9.5 85 9.5 79"/><path d="M62.5 92 16.5 92 16.5 86"/><path d="M83.5 66 83.5 10 77.5 10"/></g><g fill="none" stroke="#4b3fff" stroke-linecap="round" stroke-linejoin="round" stroke-width="2.7"><path d="M28.5 18c0-1-1-3-4-3s-4 2-4 3c0 4 8 1 8 5 0 1-1 3-4 3s-4-2-4-3"/><path d="M24.5 26 24.5 28"/><path d="M24.5 13 24.5 15"/></g></svg>