<svg xmlns="http://www.w3.org/2000/svg" data-name="Layer 1" viewBox="0 0 101 101"><g fill="none" stroke="#4b3fff" stroke-linecap="round" stroke-linejoin="round" stroke-width="2.7"><path d="M39.5 10.5c0-2.21-1.79-4-4-4s-4 1.79-4 4M54.5 10.5c0-2.21-1.79-4-4-4s-4 1.79-4 4M69.5 10.5c0-2.21-1.79-4-4-4s-4 1.79-4 4M30.5 48.5v7H19.63c-.67 0-1.26-.44-1.44-1.09l-1.14-4c-.27-.96.45-1.91 1.44-1.91zM70.5 48.5v7h10.87c.67 0 1.26-.44 1.44-1.09l1.14-4c.27-.96-.45-1.91-1.44-1.91z"/><path d="M37.5 48.5 44.17 48.5"/><path d="M56.9 48.5 63.57 48.5"/><path d="M37.5 54.5 63.5 54.5"/><path d="M37.5 60.5 63.5 60.5"/><path d="m13.5 42.5 7.35-23.88a3 3 0 0 1 2.87-2.12h53.57c1.32 0 2.48.86 2.87 2.12l7.35 23.88"/><path d="M81.5 42.5 75.5 22.5 25.5 22.5 19.5 42.5"/><path d="M7.5 29.5h6v13h-6c-1.66 0-3-1.34-3-3v-7c0-1.66 1.34-3 3-3M87.5 29.5h6c1.66 0 3 1.34 3 3v7c0 1.66-1.34 3-3 3h-6zM60.23 42.5h29.2c.59 0 1.07.48 1.07 1.07v21.86c0 .59-.48 1.07-1.07 1.07H11.57c-.59 0-1.07-.48-1.07-1.07V43.57c0-.59.48-1.07 1.07-1.07h32.6"/><rect width="86" height="12" x="7.5" y="66.5" rx="1.07" ry="1.07"/><path d="M70.5 82.5v2.93c0 .59.48 1.07 1.07 1.07h4.93M30.5 82.5v2.93c0 .59-.48 1.07-1.07 1.07H24.5"/><path d="M24.5 82.5 76.5 82.5"/><path d="M1.5 94.5 99.5 94.5"/><path d="M10.5 78.5h14v13c0 1.66-1.34 3-3 3h-8c-1.66 0-3-1.34-3-3zM76.5 78.5h14v13c0 1.66-1.34 3-3 3h-8c-1.66 0-3-1.34-3-3z"/></g><path fill="#f86a0b" d="M59.32 32.86H39.13c-.93 0-1.25 1.22-.45 1.69l9.64 5.56v11.13c0 .93 1.22 1.25 1.69.45L60.1 34.2a.9.9 0 0 0-.78-1.35Z"/></svg>