<svg xmlns="http://www.w3.org/2000/svg" data-name="Layer 1" viewBox="0 0 101 101"><path fill="none" stroke="#4b3fff" stroke-linecap="round" stroke-linejoin="round" stroke-width="2.7" d="M36.31 6.04c1.3-4.38 6.59-6.1 10.23-3.32h0a6.54 6.54 0 0 0 7.94 0h0c2.03-1.56 4.58-1.7 6.67-.76a6.44 6.44 0 0 1 3.56 4.09h0a6.53 6.53 0 0 0 6.42 4.67h0c4.57-.12 7.84 4.39 6.32 8.7h0c-.98 2.78.02 5.88 2.45 7.55h0c3.77 2.59 3.77 8.16 0 10.75h0a6.515 6.515 0 0 0-2.45 7.55h0c1.52 4.31-1.75 8.81-6.32 8.7h0a6.52 6.52 0 0 0-6.42 4.67h0c-1.3 4.38-6.59 6.1-10.23 3.32h0a6.54 6.54 0 0 0-7.94 0h0c-3.63 2.78-8.92 1.06-10.23-3.32h0a6.53 6.53 0 0 0-6.42-4.67h0c-4.57.12-7.84-4.39-6.32-8.7h0c.98-2.78-.02-5.88-2.45-7.55h0c-3.77-2.59-3.77-8.16 0-10.75h0a6.515 6.515 0 0 0 2.45-7.55h0c-1.52-4.31 1.75-8.81 6.32-8.7h0"/><circle cx="50.5" cy="32.76" r="20.47" fill="none" stroke="#4b3fff" stroke-linecap="round" stroke-linejoin="round" stroke-width="2.7"/><path fill="none" stroke="#4b3fff" stroke-linecap="round" stroke-linejoin="round" stroke-width="2.7" d="M26.5 60.5 12.5 90.5 24.5 88.5 29.5 99.5 43.5 69.5"/><path fill="none" stroke="#4b3fff" stroke-linecap="round" stroke-linejoin="round" stroke-width="2.7" d="M70.5 64.5 79.5 83.5"/><path fill="none" stroke="#4b3fff" stroke-linecap="round" stroke-linejoin="round" stroke-width="2.7" d="M74.5 60.5 88.5 90.5 76.5 88.5 71.5 99.5 57.5 69.5"/><path fill="#f86a0b" d="M60.5 25.57h-20c-.91 0-1.23 1.2-.44 1.67l9.55 5.52v11.03c0 .91 1.2 1.23 1.67.44l10-17.31a.89.89 0 0 0-.77-1.33Z"/></svg>