<svg xmlns="http://www.w3.org/2000/svg" data-name="Layer 1" viewBox="0 0 101 101"><g fill="none" stroke="#4b3fff" stroke-linecap="round" stroke-linejoin="round" stroke-width="2.7"><path d="M41.5 49.99 37.5 49.99"/><path d="M62.5 49.99 58.5 49.99"/><path d="M32.5 43.99h-2c-1.1 0-2 .9-2 2v2c0 1.1.9 2 2 2h0c1.1 0 2 .9 2 2v2c0 1.1-.9 2-2 2h-2"/><path d="M41.5 43.99 37.5 43.99 37.5 55.99 41.5 55.99"/><path d="M62.5 43.99 58.5 43.99 58.5 55.99 62.5 55.99"/><path d="M46.5 43.99 46.5 55.99 50 49.99 53.5 55.99 53.5 43.99"/><path d="M67.5 55.99v-12h3c1.1 0 2 .9 2 2v3c0 1.1-.9 2-2 2h-3"/><path d="M69.5 50.99 72.5 55.99"/><path d="M42 96.22c-21.9-4-38.5-23.17-38.5-46.23 0-25.96 21.04-47 47-47s47 21.04 47 47c0 22.49-15.8 41.29-36.9 45.91"/><path d="M50.5 2.99 50.5 8.85"/><rect width="58" height="26" x="21.5" y="36.99" rx="3" ry="3"/><path d="M41.07 89.9C22.97 85.64 9.5 69.39 9.5 49.99c0-20.61 15.21-37.67 35.02-40.57.22 3.11 2.82 5.57 5.98 5.57s5.76-2.45 5.98-5.57c19.81 2.9 35.02 19.96 35.02 40.57 0 19.04-12.97 35.04-30.56 39.66"/><path d="M75.5 62.99 84.87 72.36"/><path d="M28.13 15.63 49.5 36.99"/><path d="M51.5 62.99 72.87 84.36"/><path d="M16.13 27.63 25.5 36.99"/><path d="M27.5 62.99 38.54 74.03"/><path d="M9.77 45.26 21.5 56.99"/><path d="M79.5 42.99 91.23 54.72"/><path d="M51.43 14.92 73.5 36.99"/><path d="M25.5 62.99 16.13 72.36"/><path d="M72.87 15.63 51.5 36.99"/><path d="M49.5 62.99 28.13 84.36"/><path d="M84.87 27.63 75.5 36.99"/><path d="M73.5 62.99 62.5 73.99"/><path d="M91.23 45.26 79.5 56.99"/><path d="M21.5 42.99 9.77 54.72"/><path d="M49.57 14.92 27.5 36.99"/></g><path fill="#f86a0b" d="M60.49 78.72H40.3c-.93 0-1.25 1.22-.45 1.69l9.64 5.56V97.1c0 .93 1.22 1.25 1.69.45l10.09-17.49a.9.9 0 0 0-.78-1.35Z"/></svg>