<svg xmlns="http://www.w3.org/2000/svg" data-name="Layer 1" viewBox="0 0 101 101"><path fill="none" stroke="#4b3fff" stroke-linecap="round" stroke-linejoin="round" stroke-width="2.7" d="M62.64 90.72A42 42 0 0 1 50.5 92.5c-23.2 0-42-18.8-42-42s18.8-42 42-42 42 18.8 42 42c0 4.22-.62 8.29-1.78 12.13"/><path fill="none" stroke="#4b3fff" stroke-linecap="round" stroke-linejoin="round" stroke-width="2.7" d="M66.2 95.87a48 48 0 0 1-15.7 2.63c-26.51 0-48-21.49-48-48s21.49-48 48-48 48 21.49 48 48c0 5.5-.92 10.78-2.63 15.7"/><path fill="none" stroke="#4b3fff" stroke-linecap="round" stroke-linejoin="round" stroke-width="2.7" d="M50.5 18.5 50.5 14.5"/><path fill="none" stroke="#4b3fff" stroke-linecap="round" stroke-linejoin="round" stroke-width="2.7" d="M50.5 86.5 50.5 82.5"/><path fill="none" stroke="#4b3fff" stroke-linecap="round" stroke-linejoin="round" stroke-width="2.7" d="M34.5 22.79 32.5 19.32"/><path fill="none" stroke="#4b3fff" stroke-linecap="round" stroke-linejoin="round" stroke-width="2.7" d="M22.79 34.5 19.32 32.5"/><path fill="none" stroke="#4b3fff" stroke-linecap="round" stroke-linejoin="round" stroke-width="2.7" d="M18.5 50.5 14.5 50.5"/><path fill="none" stroke="#4b3fff" stroke-linecap="round" stroke-linejoin="round" stroke-width="2.7" d="M86.5 50.5 82.5 50.5"/><path fill="none" stroke="#4b3fff" stroke-linecap="round" stroke-linejoin="round" stroke-width="2.7" d="M22.79 66.5 19.32 68.5"/><path fill="none" stroke="#4b3fff" stroke-linecap="round" stroke-linejoin="round" stroke-width="2.7" d="M81.68 32.5 78.21 34.5"/><path fill="none" stroke="#4b3fff" stroke-linecap="round" stroke-linejoin="round" stroke-width="2.7" d="M34.5 78.21 32.5 81.68"/><path fill="none" stroke="#4b3fff" stroke-linecap="round" stroke-linejoin="round" stroke-width="2.7" d="M68.5 19.32 66.5 22.79"/><path fill="none" stroke="#4b3fff" stroke-linecap="round" stroke-linejoin="round" stroke-width="2.7" d="M50.3 39.09 50.3 28.09"/><path fill="none" stroke="#4b3fff" stroke-linecap="round" stroke-linejoin="round" stroke-width="2.7" d="M45.48 53.91 31.8 61.59"/><path fill="#f86a0b" d="M60.49 43.81H40.5c-.92 0-1.24 1.21-.44 1.67l9.55 5.51v11.03c0 .92 1.21 1.24 1.67.44l10-17.31a.89.89 0 0 0-.77-1.34"/><g fill="none" stroke="#4b3fff" stroke-linecap="round" stroke-linejoin="round" stroke-width="2.7"><path d="M74.74 82.84 78.74 86.84 88.74 76.84"/><circle cx="81.5" cy="81.73" r="15"/></g></svg>