<svg xmlns="http://www.w3.org/2000/svg" data-name="Layer 1" viewBox="0 0 101 101"><g fill="none" stroke="#4b3fff" stroke-linecap="round" stroke-linejoin="round" stroke-width="2.7"><path d="M64.74 56.36v-18c0-9.02-6.64-16.49-15.29-17.8M44.03 20.57c-8.66 1.31-15.29 8.78-15.29 17.8v59.5c0 .83.67 1.5 1.5 1.5h33c.83 0 1.5-.67 1.5-1.5v-1.5"/><path d="M60.74 42.36h-15.2c-.44 0-.8.48-.8 1.07v35.86c0 .59.36 1.07.8 1.07h9.2"/><circle cx="46.74" cy="16.36" r="5"/><path d="m57.1 10.98 18.87 2.18c1.01.12 1.77.97 1.77 1.99v1.22h-26"/><path d="M51.74 16.36V12.7l26-8.34L77.29 3a2.006 2.006 0 0 0-2.25-1.34L44.21 7.18c-1.43.26-2.47 1.5-2.47 2.95v6.22M37.74 18.36c-9.95 0-18 8.05-18 18"/><path d="M19.74 36.36 19.74 52.36"/><path d="M15.74 36.36 15.74 52.36"/><path d="M15.74 36.36c0-12.16 9.84-22 22-22"/><path d="M13.74 52.36H21.740000000000002V57.36H13.74z"/><path d="M15.74 57.36 12.74 73.36 22.74 73.36 19.74 57.36"/><path d="M41.74 20.36 37.74 20.36 37.74 12.36 41.74 12.36"/><path d="M73.74 96.36s-14.53-9.02-14.53-16.67V64.18l14.53-5.82 14.53 5.82v15.51c0 7.65-14.53 16.67-14.53 16.67"/></g><path fill="#f86a0b" d="M83.82 68.81H63.63c-.93 0-1.25 1.22-.45 1.69l9.64 5.56v11.13c0 .93 1.22 1.25 1.69.45L84.6 70.15a.9.9 0 0 0-.78-1.35Z"/></svg>