<svg xmlns="http://www.w3.org/2000/svg" data-name="Layer 1" viewBox="0 0 101 101"><g fill="none" stroke="#4b3fff" stroke-linecap="round" stroke-linejoin="round" stroke-width="2.7"><path d="M81.46 35.5 81.46 15.5 67.46 1.5 11.46 1.5 11.46 99.5 57.46 99.5"/><path d="M67.46 1.5 67.46 15.5 81.46 15.5"/><path d="M47.46 13.5 57.46 13.5"/><path d="M42.93 21.5 71.46 21.5"/><path d="M21.46 21.5 27.39 21.5"/><path d="M21.46 37.5 65.46 37.5"/><path d="M21.46 53.5 65.46 53.5"/><path d="M21.46 69.5 65.46 69.5"/><path d="M21.46 45.5 51.46 45.5"/><path d="M21.46 29.5 27.46 29.5"/><path d="M57.46 45.5 65.46 45.5"/><path d="M38.46 29.5 71.46 29.5"/><path d="M21.46 61.5 29.46 61.5"/><path d="M35.46 61.5 65.46 61.5"/><path d="M37.46 89.5 21.46 89.5 21.46 79.5 49.46 79.5 49.46 89.5 43.46 89.5"/><path d="M11.46 8.3 2.08 9.7c-.35.05-.59.38-.54.73l9.91 66.29M83.46 93.5h-18V98c0 .83.67 1.5 1.5 1.5h27c.83 0 1.5-.67 1.5-1.5v-4.5h-6M65.46 93.5h-2.93c-.59 0-1.07-.48-1.07-1.07V90.5c0-.65.31-1.26.84-1.63 2.19-1.54 8.58-4.37 18.16-4.37s15.97 2.82 18.16 4.37c.53.37.84.98.84 1.63v1.93c0 .59-.48 1.07-1.07 1.07h-2.93M84.18 78.63l3.21-27.13h0c.27-1.86-.2-3.95-1.69-5.98-.07-.1-.16-.19-.26-.26-5.73-4.22-11.98-.22-11.98 5.24 0 .34.02.67.07 1h0l2.93 33"/></g><path fill="#f86a0b" d="M42.27 11.91H22.08c-.93 0-1.25 1.22-.45 1.69l9.64 5.56v11.13c0 .93 1.22 1.25 1.69.45l10.09-17.49a.9.9 0 0 0-.78-1.35Z"/></svg>