<svg xmlns="http://www.w3.org/2000/svg" data-name="Layer 1" viewBox="0 0 101 101"><g fill="none" stroke="#4b3fff" stroke-linecap="round" stroke-linejoin="round" stroke-width="2.7"><circle cx="50.5" cy="50.5" r="15.8"/><path d="M36.68 44.58 64.32 44.58"/><path d="M36.68 56.42 64.32 56.42"/><path d="M50.5 34.7c-9.21 7.9-9.21 23.69 0 31.59M50.5 66.3c9.21-7.9 9.21-23.69 0-31.59M67.28 67.22c-4.29 4.3-10.23 6.97-16.78 6.97s-12.49-2.66-16.78-6.97M57.41 27.83c9.71 2.96 16.78 11.99 16.78 22.67 0 2.4-.36 4.72-1.02 6.91"/><circle cx="50.5" cy="5.09" r="3.95"/><circle cx="11.01" cy="27.79" r="3.95"/><circle cx="89.99" cy="27.79" r="3.95"/><circle cx="89.99" cy="73.21" r="3.95"/><path d="M19.9 68.27 31.74 61.36"/><path d="M81.1 68.27 69.26 61.36"/><path d="M81.1 32.73 71.23 38.65"/><path d="M50.5 86.04 50.5 74.19"/><path d="M50.5 28.78 50.5 14.96"/><circle cx="11.01" cy="73.21" r="3.95"/><circle cx="50.5" cy="50.5" r="15.8"/><path d="M36.68 44.58 64.32 44.58"/><path d="M36.68 56.42 64.32 56.42"/><path d="M50.5 34.7c-9.21 7.9-9.21 23.69 0 31.59M50.5 66.3c9.21-7.9 9.21-23.69 0-31.59M67.28 67.22c-4.29 4.3-10.23 6.97-16.78 6.97s-12.49-2.66-16.78-6.97M57.41 27.83c9.71 2.96 16.78 11.99 16.78 22.67 0 2.4-.36 4.72-1.02 6.91M40.08 29.22c1.12-.55 2.3-1.02 3.51-1.39M27.83 57.41c-.31-1.02-.55-2.07-.73-3.14"/><circle cx="50.5" cy="95.91" r="3.95"/><path d="M19.9 68.27 31.74 61.36"/><path d="M81.1 68.27 69.26 61.36"/><path d="M81.1 32.73 71.23 38.65"/><path d="M50.5 86.04 50.5 74.19"/><path d="M50.5 28.78 50.5 14.96"/></g><path fill="#f86a0b" d="M17.37 31.21c-.93 0-1.25 1.22-.45 1.69l9.64 5.56v11.13c0 .93 1.22 1.25 1.69.45l10.09-17.49a.9.9 0 0 0-.78-1.35H17.37Z"/></svg>