<svg xmlns="http://www.w3.org/2000/svg" data-name="Layer 1" viewBox="0 0 101 101"><g fill="none" stroke="#4b3fff" stroke-linecap="round" stroke-linejoin="round" stroke-width="2.7"><circle cx="28.03" cy="10.38" r="4.38"/><path d="M19.85 35.08V24.59c0-3.24 2.62-5.86 5.86-5.86h4.63c3.24 0 5.86 2.62 5.86 5.86v10.49"/><path d="M24.17 33.41 24.17 47.5"/><path d="M31.89 33.41 31.89 47.5"/><path d="M28.03 35.65 28.03 47.5"/></g><g fill="none" stroke="#4b3fff" stroke-linecap="round" stroke-linejoin="round" stroke-width="2.7"><circle cx="51.7" cy="10.38" r="4.38"/><path d="M43.53 35.08V24.59c0-3.24 2.62-5.86 5.86-5.86h4.63c3.24 0 5.86 2.62 5.86 5.86v10.49"/><path d="M47.84 33.41 47.84 47.5"/><path d="M55.57 33.41 55.57 47.5"/><path d="M51.7 35.65 51.7 47.5"/></g><g fill="none" stroke="#4b3fff" stroke-linecap="round" stroke-linejoin="round" stroke-width="2.7"><circle cx="75.8" cy="10.38" r="4.38"/><path d="M67.62 35.08V24.59c0-3.24 2.62-5.86 5.86-5.86h4.63c3.24 0 5.86 2.62 5.86 5.86v10.49"/><path d="M71.94 33.41 71.94 47.5"/><path d="M79.66 33.41 79.66 47.5"/><path d="M75.8 35.65 75.8 47.5"/></g><g fill="none" stroke="#4b3fff" stroke-linecap="round" stroke-linejoin="round" stroke-width="2.7"><circle cx="51.7" cy="57.88" r="4.38"/><path d="M43.53 82.59V72.1c0-3.24 2.62-5.86 5.86-5.86h4.63c3.24 0 5.86 2.62 5.86 5.86v10.49"/><path d="M47.84 80.92 47.84 95"/><path d="M55.57 80.92 55.57 95"/><path d="M51.7 83.16 51.7 95"/></g><g fill="none" stroke="#4b3fff" stroke-linecap="round" stroke-linejoin="round" stroke-width="2.7"><circle cx="75.8" cy="57.88" r="4.38"/><path d="M67.62 82.59V72.1c0-3.24 2.62-5.86 5.86-5.86h4.63c3.24 0 5.86 2.62 5.86 5.86v10.49"/><path d="M71.94 80.92 71.94 95"/><path d="M79.66 80.92 79.66 95"/><path d="M75.8 83.16 75.8 95"/></g><path fill="#f86a0b" d="M38.12 64.73H17.93c-.93 0-1.25 1.22-.45 1.69l9.64 5.56v11.13c0 .93 1.22 1.25 1.69.45L38.9 66.07a.9.9 0 0 0-.78-1.35Z"/></svg>