<svg xmlns="http://www.w3.org/2000/svg" data-name="Layer 1" viewBox="0 0 101 101"><g fill="none" stroke="#4b3fff" stroke-linecap="round" stroke-linejoin="round" stroke-width="2.7"><path d="M71.74 36.46c1.29 7 1.3 11.97 1.3 14.04 0 24.58-9.25 44.51-21.84 44.51S27.44 75.08 27.44 50.5 38.6 5.46 51.2 5.46"/><path d="M51.2 5.46 51.2 95.01"/><path d="M6.15 50.5 86.68 50.5"/><path d="M10.66 28.66 78.52 28.66"/><path d="M11.66 72.3 87.13 72.3"/></g><path fill="#f86a0b" d="M95.32 16.39h-20c-.91 0-1.24 1.19-.44 1.63l9.55 5.41v10.82c0 .9 1.21 1.22 1.66.44l10-16.98c.34-.58-.09-1.32-.77-1.32"/><path fill="none" stroke="#4b3fff" stroke-linecap="round" stroke-linejoin="round" stroke-width="2.7" d="M91.41 36.46c1.3 4.18 2.1 9.43 2.1 14.04 0 24.58-17.73 45.04-42.31 45.04S4.79 75.03 4.79 50.45 26.61 5.46 51.2 5.46c8.33 0 13.83 2.82 20.5 6.8"/></svg>