<svg xmlns="http://www.w3.org/2000/svg" data-name="Layer 1" viewBox="0 0 101 101"><circle cx="50.49" cy="19.13" r="10" fill="none" stroke="#4b3fff" stroke-linecap="round" stroke-linejoin="round" stroke-width="2.7"/><circle cx="50.49" cy="46.6" r="10.89" fill="none" stroke="#4b3fff" stroke-linecap="round" stroke-linejoin="round" stroke-width="2.7"/><path fill="#f86a0b" d="M60.49 64.52h-20c-.92 0-1.23 1.21-.45 1.66l9.55 5.51v11.03c0 .92 1.21 1.23 1.66.45l10-17.32c.34-.59-.09-1.34-.77-1.34Z"/><g fill="none" stroke="#4b3fff" stroke-linecap="round" stroke-linejoin="round" stroke-width="2.7"><rect width="36" height="88" x="32.5" y="1.5" rx="3" ry="3"/><path d="M32.5 8.5H17c-1.34 0-2.01 1.62-1.06 2.56L32.5 27.5"/><path d="M46.5 99.5 46.5 89.5"/><path d="M54.5 99.5 54.5 89.5"/><path d="M32.5 35.5H17c-1.34 0-2.01 1.62-1.06 2.56L32.5 54.5M32.5 62.5H17c-1.34 0-2.01 1.62-1.06 2.56L32.5 81.5M68.5 8.5H84c1.34 0 2.01 1.62 1.06 2.56l-16.5 16.5M68.5 35.5H84c1.34 0 2.01 1.62 1.06 2.56l-16.5 16.5M68.5 62.5H84c1.34 0 2.01 1.62 1.06 2.56L68.5 81.5"/></g></svg>