<svg xmlns="http://www.w3.org/2000/svg" data-name="Layer 1" viewBox="0 0 101 101"><g fill="none" stroke="#4b3fff" stroke-linecap="round" stroke-linejoin="round" stroke-width="2.7"><path d="M95.5 63.82c0 12.15-9.85 22-22 22s-22-9.85-22-22 9.85-22 22-22v22z"/><path d="M79.5 37.82c11.05 0 20 8.95 20 20h-20z"/><path d="M70.64 28.82 85.5 28.82"/><path d="M2.5 28.82 55.14 28.82"/><path d="M46.07 16.82H5.5c-2.21 0-4 1.79-4 4v60c0 2.21 1.79 4 4 4h49M91.5 33.82v-13c0-2.21-1.79-4-4-4H77.14"/><path d="M9.5 38.82 48.5 38.82"/><path d="M9.5 46.82 48.5 46.82"/><circle cx="9.5" cy="22.82" r="2"/><circle cx="17.5" cy="22.82" r="2"/><circle cx="25.5" cy="22.82" r="2"/><path d="M9.5 60.82H23.5V74.82H9.5z"/><path d="M31.5 60.82 43.5 60.82"/><path d="M31.5 68.82 43.5 68.82"/></g><path fill="#f86a0b" d="M71.52 15.19H51.33c-.93 0-1.25 1.22-.45 1.69l9.64 5.56v11.13c0 .93 1.22 1.25 1.69.45L72.3 16.53a.9.9 0 0 0-.78-1.35Z"/></svg>