<svg xmlns="http://www.w3.org/2000/svg" data-name="Layer 1" viewBox="0 0 101 101"><g fill="none" stroke="#4b3fff" stroke-linecap="round" stroke-linejoin="round" stroke-width="2.7"><path d="M34 58.47c.38-.02.76-.03 1.15-.03 5.24 0 9.86 2.22 12.37 3.7 1.47.87 3.15 1.3 4.85 1.3H64.5M1.5 79.45s10.14-9.04 16.12-14.38c.59-.53 1.27-1.08 2.04-1.62M64.5 63.45c3.31 0 6 2.69 6 6s-2.69 6-6 6"/><path d="m70.5 68.45 10-8s3-9 12.81-9c4.19 0 6.19 2 6.19 2s-7.86 14.32-12.26 19.42c-4.41 5.1-15.87 17.58-22.74 17.58M64.5 90.45h-31c-6 0-13 9-13 9"/><path d="M43.5 75.45 64.5 75.45"/></g><g fill="none" stroke="#4b3fff" stroke-linecap="round" stroke-linejoin="round" stroke-width="2.7"><circle cx="58.91" cy="29.36" r="9.27"/><path d="M68.09 9.77c-.81-.38-1.65-.71-2.51-.99a.985.985 0 0 1-.7-.92l-.09-4.34c-.02-.79-.58-1.47-1.35-1.6-1.07-.18-2.16-.29-3.27-.34s-2.21-.04-3.29.04c-.78.06-1.4.69-1.49 1.47-.15 1.32-.37 3.28-.48 4.32-.05.42-.36.76-.78.85-.93.21-1.85.48-2.73.81"/><path d="M51.55 9.02c-.71.26-1.41.55-2.09.88-.62.3-1.35.21-1.84-.27L44.8 6.92c-.57-.54-1.45-.63-2.09-.17q-1.32.945-2.55 2.07c-1.23 1.125-1.58 1.53-2.29 2.35-.51.59-.51 1.48-.02 2.09l2.41 3.02c.44.55.47 1.32.1 1.93-.41.68-.78 1.39-1.11 2.1"/><path d="M39.32 20.18c-.32.68-.61 1.38-.85 2.1-.22.65-.81 1.1-1.49 1.11l-3.91.08c-.79.02-1.47.58-1.6 1.35-.18 1.07-.29 2.16-.34 3.27s-.04 2.21.04 3.29c.06.78.69 1.4 1.47 1.49l3.84.43c.7.08 1.26.6 1.43 1.29.19.77.43 1.53.7 2.27"/><path d="M38.57 36.73c.26.71.55 1.41.88 2.09.3.62.21 1.35-.27 1.84l-2.71 2.82c-.54.57-.63 1.45-.17 2.09q.945 1.32 2.07 2.55c.75.82 1.53 1.58 2.35 2.29.59.51 1.48.51 2.09.02l3.02-2.41c.55-.44 1.32-.47 1.93-.1.68.41 1.39.78 2.1 1.11"/><path d="M49.73 48.95c.81.38 1.65.71 2.51.99.41.13.69.49.7.92l.09 4.34c.02.79.58 1.47 1.35 1.6 1.07.18 2.16.29 3.27.34s2.21.04 3.29-.04c.78-.06 1.4-.69 1.49-1.47.15-1.32.37-3.28.48-4.32.05-.42.36-.76.78-.85.93-.21 1.85-.48 2.73-.81"/><path d="M66.28 49.71c.71-.26 1.41-.55 2.09-.88.62-.3 1.35-.21 1.84.27l2.82 2.71c.57.54 1.45.63 2.09.17q1.32-.945 2.55-2.07c.82-.75 1.58-1.53 2.29-2.35.51-.59.51-1.48.02-2.09l-2.41-3.02c-.44-.55-.47-1.32-.1-1.93.41-.68.78-1.39 1.11-2.1"/><path d="M78.51 38.54c.32-.68.61-1.38.85-2.1.22-.65.81-1.1 1.49-1.11l3.91-.08c.79-.02 1.47-.58 1.6-1.35.18-1.07.29-2.16.34-3.27s.04-2.21-.04-3.29c-.06-.78-.69-1.4-1.47-1.49l-3.84-.43c-.7-.08-1.26-.6-1.43-1.29-.19-.77-.43-1.53-.7-2.27"/><path d="M79.26 22c-.26-.71-.55-1.41-.88-2.09-.3-.62-.21-1.35.27-1.84l2.71-2.82c.54-.57.63-1.45.17-2.09q-.945-1.32-2.07-2.55c-1.125-1.23-1.53-1.58-2.35-2.29-.59-.51-1.48-.51-2.09-.02L72 10.71c-.55.44-1.32.47-1.93.1-.68-.41-1.39-.78-2.1-1.11"/></g><path fill="#f86a0b" d="M34.09 50.8H13.9c-.93 0-1.25 1.22-.45 1.69l9.64 5.56v11.13c0 .93 1.22 1.25 1.69.45l10.09-17.49a.9.9 0 0 0-.78-1.35Z"/></svg>