<svg xmlns="http://www.w3.org/2000/svg" data-name="Layer 1" viewBox="0 0 101 101"><g fill="none" stroke="#4b3fff" stroke-linecap="round" stroke-linejoin="round" stroke-width="2.7"><path d="M21.93 86.5 28 51.5"/><path d="M33.36 86.5 37 51.5"/><path d="M45.83 56.47 46 51.5"/><path d="M44.79 86.5 44.95 81.9"/><path d="M79.07 86.5 73 51.5"/><path d="M67.64 86.5 64 51.5"/><path d="M55.17 56.27 55 51.5"/><path d="M56.22 86.5 56.04 81.6"/><path d="M15.5 67.5 35.18 67.5"/><path d="M66.2 67.5 85.88 67.5"/><path d="M79.5 45.5 87.5 45.5 99.5 93.5 19.5 93.5"/><path d="M11.5 93.5 1.5 93.5 13.5 45.5 71.5 45.5"/><path d="M10.5 86.5 19 51.5 82 51.5 90.5 86.5 10.5 86.5z"/></g><g fill="none" stroke="#4b3fff" stroke-linecap="round" stroke-linejoin="round" stroke-width="2.7"><path d="M29.5 17.5c-.7 3.71-5 5.26-5 9.11 0 2.6 2.34 4.89 5 4.89s5-2.28 5-4.89c0-3.85-4.3-5.4-5-9.11M71.5 17.5c-.7 3.71-5 5.26-5 9.11 0 2.6 2.34 4.89 5 4.89s5-2.28 5-4.89c0-3.85-4.3-5.4-5-9.11M50.5 7.5c-1.39 7.43-10 10.53-10 18.22 0 5.21 4.67 9.78 10 9.78s10-4.57 10-9.78c0-7.7-8.61-10.8-10-18.22"/><path d="M50.5 30.5c-2.76 0-5-2.24-5-5"/></g><path fill="#f86a0b" d="M59.49 60.66H39.3c-.93 0-1.25 1.22-.45 1.69l9.64 5.56v11.13c0 .93 1.22 1.25 1.69.45L60.27 62a.9.9 0 0 0-.78-1.35Z"/></svg>