<svg xmlns="http://www.w3.org/2000/svg" data-name="Layer 1" viewBox="0 0 101 101"><g fill="none" stroke="#4b3fff" stroke-linecap="round" stroke-linejoin="round" stroke-width="2.7"><rect width="12.55" height="34.03" x="8.15" y="23.59" rx="1.07" ry="1.07" transform="rotate(26.72 14.426 40.61)"/><circle cx="10.5" cy="49.5" r="1"/><rect width="12.55" height="34.03" x="80.3" y="20.67" rx="1.07" ry="1.07" transform="rotate(153.28 86.57 37.684)"/><circle cx="90.5" cy="46.5" r="1"/><path d="M74.8 66.33 63.68 59.11"/><path d="M61.85 27.46c-1.28-.45-2.6-.88-3.99-1.2 6.67 1.53 11.86 5.53 17.57 3.23M74.8 66.33c1.87 1.22 4.39.66 5.63-1.24l.09-.14c1.23-1.9.72-4.43-1.16-5.65L46.92 38.24c-.5-.32-1.16-.18-1.48.32l-3.07 4.72c-1.56 2.46-7.3 5.82-11.76 3.12-.48-.29-.66-.91-.4-1.41 1.07-2.09 3.84-7.55 4.53-9.61.85-2.56.88-4.13 4.21-6.39.81-.55 1.87-1.12 3.16-1.63"/><path d="M66.24 70.63 57.16 64.73"/><path d="M71.55 64.22a4.094 4.094 0 0 1 .46 5.06l-.09.14a4.11 4.11 0 0 1-5.68 1.21M62.94 68.45a4.11 4.11 0 0 1 .56 5.16l-.7 1.07a3 3 0 0 1-4.15.88l-7.43-4.82"/><path d="M56.65 74.25c.21 1.1.06 2.15-.51 3.02h0c-1.58 2.43-5.79 2.49-9.42.13M18.78 61.62c-2.28-1.48-4.23-3.06-5.64-4.51M67.08 43.17c-1.09 1.98-3.14 3.43-5.56 3.43-1.36 0-2.57-.55-3.77-1.32M17.62 63.418l2.729-4.046a4 4 0 0 1 5.553-1.08h0a4 4 0 0 1 1.079 5.553l-2.729 4.046a2.996 2.996 0 0 1-4.165.81l-1.658-1.119a2.996 2.996 0 0 1-.81-4.164M23.742 68.656l5.407-8.017a4 4 0 0 1 5.553-1.08h0a4 4 0 0 1 1.08 5.553l-5.408 8.017a2.996 2.996 0 0 1-4.164.81l-1.658-1.119a2.996 2.996 0 0 1-.81-4.164"/><path d="m31.314 71.725 4.267-6.326a4 4 0 0 1 5.552-1.08h0a4 4 0 0 1 1.08 5.554l-4.267 6.325a2.996 2.996 0 0 1-4.164.81l-1.659-1.118a2.996 2.996 0 0 1-.81-4.165M38.475 75.42l2.768-4.104a4 4 0 0 1 5.553-1.08h0a4 4 0 0 1 1.08 5.553l-2.768 4.104a2.996 2.996 0 0 1-4.165.81l-1.658-1.119a2.996 2.996 0 0 1-.81-4.164M35.11 34.33c-3.29-.29-6.29-1.55-8.74-3.48M79.91 59.74c.83-3.6 3.4-6.53 6.77-7.88"/><path d="M50.5 89.5 50.5 99.5"/><path d="M70.5 84.5 75.5 89.5"/><path d="M25.5 89.5 30.5 84.5"/><path d="M50.5 11.5 50.5 1.5"/><path d="M30.5 16.5 25.5 11.5"/><path d="M75.5 11.5 70.5 16.5"/></g><path fill="#f86a0b" d="M58.06 15.93H37.87c-.93 0-1.25 1.22-.45 1.69l9.64 5.56v11.13c0 .93 1.22 1.25 1.69.45l10.09-17.49a.9.9 0 0 0-.78-1.35Z"/></svg>