<svg xmlns="http://www.w3.org/2000/svg" data-name="Layer 1" viewBox="0 0 101 101"><g fill="none" stroke="#4b3fff" stroke-linecap="round" stroke-linejoin="round" stroke-width="2.7"><path d="M59.79 61.22 2.23 3.66c-.65-.65-.19-1.77.73-1.77h96.13v96.13c0 .93-1.12 1.39-1.77.73L81.08 82.51"/><path d="M46.46 39.58 42.31 43.73"/><path d="M53.93 47.06 49.78 51.21"/><path d="M31.51 24.63 27.35 28.78"/><path d="M38.98 32.1 34.83 36.26"/><path d="M24.03 17.15 19.88 21.31"/><path d="M16.56 9.68 12.4 13.83"/><path d="M61.41 54.53 57.26 58.69"/><path d="M87.29 80.03 83.14 84.19"/><path d="M94.77 87.51 90.61 91.66"/><path d="M41.75 17.93h41.31v41.31c0 .4-.48.6-.76.32L41.43 18.69a.446.446 0 0 1 .32-.76"/><path d="M93.83 39.4 93.83 7.16 64.02 7.16"/><path d="M25.5 26.4H39.44V98.88H25.5z" transform="rotate(-45 32.459 62.645)"/><path d="M63.01 83.34 68.92 99.11 53.15 93.2"/><path d="M7.82 47.86 17.67 38.01"/><path d="M51.18 84.33 16.69 49.83"/></g><path fill="#f86a0b" d="M82.34 65.52h-20c-.91 0-1.24 1.21-.44 1.66l9.55 5.51v11.03c0 .91 1.21 1.24 1.66.44l10-17.31c.34-.59-.09-1.34-.77-1.34"/></svg>