<svg xmlns="http://www.w3.org/2000/svg" data-name="Layer 1" viewBox="0 0 101 101"><g fill="none" stroke="#4b3fff" stroke-linecap="round" stroke-linejoin="round" stroke-width="2.7"><path d="M25.42 69.62 25.42 99.45 87.07 99.45 87.07 13.93 37.35 13.93"/><path d="M93.03 87.52 99 87.52 99 2 37.35 2 37.35 7.97"/><path d="M87.07 93.48 93.03 93.48 93.03 7.97 31.38 7.97 31.38 9.96"/><path d="M35.36 77.57 77.12 77.57"/><path d="M35.36 69.62 77.12 69.62"/><path d="M49.28 61.66 77.12 61.66"/><path d="M57.24 53.71 77.12 53.71"/><path d="M57.24 45.75 77.12 45.75"/><path d="M57.24 37.8 77.12 37.8"/><path d="M63.2 91.92s3.91-3.67 5.94-6.59-1.94 7.23-1.94 7.23 2.11-2.21 12.7-2.47"/></g><path fill="none" stroke="#4b3fff" stroke-linecap="round" stroke-linejoin="round" stroke-width="2.7" d="M32.52 22.63c-.71-.29-1.44-.55-2.19-.75a.86.86 0 0 1-.64-.76l-.24-3.72c-.04-.67-.55-1.24-1.22-1.32-.92-.11-1.86-.16-2.82-.16s-1.89.06-2.82.16a1.4 1.4 0 0 0-1.22 1.31c-.07 1.14-.19 2.83-.24 3.72-.02.37-.28.66-.64.76-.79.22-1.56.49-2.31.8"/><path fill="none" stroke="#4b3fff" stroke-linecap="round" stroke-linejoin="round" stroke-width="2.7" d="M18.31 22.63c-.6.25-1.18.53-1.76.84-.52.28-1.15.23-1.59-.16l-2.52-2.21c-.51-.44-1.27-.49-1.8-.07-.73.58-1.43 1.2-2.11 1.87-.67.67-1.3 1.38-1.87 2.11-.42.53-.38 1.29.07 1.8l2.19 2.49c.4.46.45 1.11.16 1.65-.33.6-.62 1.22-.87 1.85"/><path fill="none" stroke="#4b3fff" stroke-linecap="round" stroke-linejoin="round" stroke-width="2.7" d="M8.26 32.68c-.25.6-.46 1.21-.65 1.84-.17.56-.65.98-1.23 1.01l-3.35.22c-.67.04-1.24.55-1.32 1.22-.11.92-.16 1.86-.16 2.82 0 .95.06 1.89.16 2.82.08.67.65 1.18 1.32 1.22l3.31.22c.61.04 1.11.47 1.28 1.05q.3.99.69 1.92"/><path fill="none" stroke="#4b3fff" stroke-linecap="round" stroke-linejoin="round" stroke-width="2.7" d="M8.26 46.89c.25.6.53 1.18.84 1.76.28.52.23 1.15-.16 1.59l-2.21 2.52c-.44.51-.49 1.27-.07 1.8.58.73 1.2 1.43 1.87 2.11s1.38 1.3 2.11 1.87c.53.42 1.29.38 1.8-.07l2.49-2.19c.46-.4 1.11-.45 1.65-.16.6.33 1.22.62 1.85.87"/><path fill="none" stroke="#4b3fff" stroke-linecap="round" stroke-linejoin="round" stroke-width="2.7" d="M18.31 56.94c.71.29 1.44.55 2.19.75.35.1.61.39.64.76l.24 3.72c.04.67.55 1.24 1.22 1.32.92.11 1.86.16 2.82.16s1.89-.06 2.82-.16a1.4 1.4 0 0 0 1.22-1.31c.07-1.14.19-2.83.24-3.72.02-.37.28-.66.64-.76.79-.22 1.56-.49 2.31-.8"/><path fill="none" stroke="#4b3fff" stroke-linecap="round" stroke-linejoin="round" stroke-width="2.7" d="M32.52 56.94c.6-.25 1.18-.53 1.76-.84.52-.28 1.15-.23 1.59.16l2.52 2.21c.51.44 1.27.49 1.8.07.73-.58 1.43-1.2 2.11-1.87s1.3-1.38 1.87-2.11c.42-.53.38-1.29-.07-1.8l-2.19-2.49c-.4-.46-.45-1.11-.16-1.65.33-.6.62-1.22.87-1.85"/><path fill="none" stroke="#4b3fff" stroke-linecap="round" stroke-linejoin="round" stroke-width="2.7" d="M42.57 46.89c.25-.6.46-1.21.65-1.84.17-.56.65-.98 1.23-1.01l3.35-.22c.67-.04 1.24-.55 1.32-1.22.11-.92.16-1.86.16-2.82s-.06-1.89-.16-2.82c-.08-.67-.65-1.18-1.32-1.22l-3.31-.22c-.61-.04-1.11-.47-1.28-1.05q-.3-.99-.69-1.92"/><path fill="none" stroke="#4b3fff" stroke-linecap="round" stroke-linejoin="round" stroke-width="2.7" d="M42.57 32.68c-.25-.6-.53-1.18-.84-1.76-.28-.52-.23-1.15.16-1.59l2.21-2.52c.44-.51.49-1.27.07-1.8-.58-.73-1.2-1.43-1.87-2.11s-1.38-1.3-2.11-1.87c-.53-.42-1.29-.38-1.8.07l-2.49 2.19c-.46.4-1.11.45-1.65.16-.6-.33-1.22-.62-1.85-.87"/><path fill="#f86a0b" d="M35.29 32.03H15.3c-.92 0-1.24 1.21-.44 1.67l9.55 5.51v11.03c0 .92 1.21 1.24 1.67.44l10-17.31a.89.89 0 0 0-.77-1.34"/></svg>