<svg xmlns="http://www.w3.org/2000/svg" data-name="Layer 1" viewBox="0 0 101 101"><g fill="none" stroke="#4b3fff" stroke-linecap="round" stroke-linejoin="round" stroke-width="2.7"><path d="M66.2 50.52 66.2 19.24"/><path d="M39.36 7.07H21.24c-7.02 7.02-10.96 10.95-17.98 17.97v66.68c0 1.24 1.01 2.25 2.25 2.25h58.44c1.24 0 2.25-1.01 2.25-2.25v-3.67"/><path d="M3.26 25.04h15.73c1.24 0 2.25-1.01 2.25-2.25V7.06"/><path d="M12.25 84.98 57.21 84.98"/><path d="M12.25 75.99 12.25 52.01 21.24 52.01 21.24 75.99"/><path d="M30.23 75.99 30.23 31.03 39.22 31.03 39.22 75.99"/><path d="M48.21 75.99 48.21 43.02 57.21 43.02 57.21 75.99"/></g><path fill="#f86a0b" d="M66.06 7.04H45.87c-.93 0-1.25 1.22-.45 1.69l9.64 5.56v11.13c0 .93 1.22 1.25 1.69.45L66.84 8.38a.9.9 0 0 0-.78-1.35Z"/><g fill="none" stroke="#4b3fff" stroke-linecap="round" stroke-linejoin="round" stroke-width="2.7"><path d="M53.71 39.31H109.53999999999999V50.050000000000004H53.71z" transform="rotate(-66.36 81.624 44.683)"/><path d="M75.35 72.41 65.69 81.07 65.51 68.1"/><path d="M85.32 22.85 95.16 27.16"/><path d="M71.32 64.2 86.4 29.77"/></g></svg>