<svg xmlns="http://www.w3.org/2000/svg" data-name="Layer 1" viewBox="0 0 101 101"><path fill="none" stroke="#4b3fff" stroke-linecap="round" stroke-linejoin="round" stroke-width="2.7" d="M9.55 77.84H91.44V83.3H9.55z"/><g fill="none" stroke="#4b3fff" stroke-linecap="round" stroke-linejoin="round" stroke-width="2.7"><path d="M9.55 90.12H28.68V96.86H9.55z"/><path d="M15.7 82.61H22.52V90.8H15.7z" transform="rotate(90 19.11 86.71)"/><path d="M15.01 77.41 15.01 15.05 23.2 15.05 23.2 69.65"/><path d="M72.31 90.12H91.71000000000001V96.86H72.31z"/><path d="M78.48 82.61H85.30000000000001V90.8H78.48z" transform="rotate(90 81.89 86.71)"/><path d="M85.99 16.42 85.99 77.41 77.8 77.41 77.8 23.24"/></g><g fill="none" stroke="#4b3fff" stroke-linecap="round" stroke-linejoin="round" stroke-width="2.7"><path d="M91.86 15.05H9.55c-.43 0-.81-.27-.95-.67L4.59 5.57c-.24-.66.25-1.35 1.05-1.43h89.92c.6.08 1.09.77.85 1.43l-3.6 8.82c-.14.4-.52.67-.95.67Z"/><path d="M36.85 9.59 36.85 33.05"/><path d="M64.15 9.59 64.15 33.05"/><circle cx="50.5" cy="45.08" r="21.84"/></g><path fill="#f86a0b" d="M60.5 39.26h-20c-.91 0-1.23 1.2-.44 1.67l9.55 5.52v11.03c0 .91 1.2 1.23 1.67.44l10-17.31a.89.89 0 0 0-.77-1.33Z"/></svg>