<svg xmlns="http://www.w3.org/2000/svg" data-name="Layer 1" viewBox="0 0 101 101"><g fill="none" stroke="#4b3fff" stroke-linecap="round" stroke-linejoin="round" stroke-width="2.7"><path d="M23.29 30.21a9.95 9.95 0 0 1-1.79-5.71c0-5.52 4.48-10 10-10s10 4.48 10 10c0 1.38-.28 2.7-.79 3.89"/><path d="M12.5 24.5 16.5 24.5"/><path d="M46.5 24.5 50.5 24.5"/><path d="M17.06 36.94 19.89 34.11"/><path d="M42.11 13.89 44.94 11.07"/><path d="M31.5 9.5 31.5 5.5"/><path d="M20.89 13.89 18.06 11.07"/><path d="M6.5 63.5H46.5V95.5H6.5z"/><path d="M86.5 63.5 94.5 63.5 94.5 95.5 46.5 95.5 46.5 63.5 80.5 63.5"/><path d="M27.5 34.5 2.5 63.5 50.5 63.5 27.5 34.5z"/><path d="M75.54 36.86 73.5 34.5"/><path d="M98.5 63.5 90.6 54.34"/><path d="M98.5 63.5 92.5 63.5"/><path d="M55.5 39.5 55.5 24.5 63.5 24.5 63.5 44.5"/><path d="M21.5 70.5H31.5V90.5H21.5z"/><path d="M11.5 90.5H31.5V95.5H11.5z"/><path d="M31.5 90.5H36.5V95.5H31.5z"/><path d="M16.5 73.5 16.5 79.5"/><path d="M36.5 73.5 36.5 79.5"/><circle cx="26.5" cy="53.5" r="4"/><path d="M6.5 95.5 1.5 95.5"/><path d="M99.5 95.5 94.5 95.5"/><path d="M27.5 34.5 50.5 34.5"/><path d="M73.5 34.5 68.5 34.5"/><path d="M61.5 72.5H79.5V82.5H61.5z"/><path d="M56.5 77.5 52.5 77.5"/><path d="M88.5 77.5 84.5 77.5"/></g><path fill="#f86a0b" d="M93.59 39.86H73.4c-.93 0-1.25 1.22-.45 1.69l9.64 5.56v11.13c0 .93 1.22 1.25 1.69.45L94.37 41.2a.9.9 0 0 0-.78-1.35Z"/></svg>