<svg xmlns="http://www.w3.org/2000/svg" data-name="Layer 1" viewBox="0 0 101 101"><path fill="#f86a0b" d="M64.01 5.47H44.02c-.92 0-1.23 1.21-.44 1.67l9.55 5.51v11.03c0 .92 1.21 1.23 1.67.44L64.79 6.8a.891.891 0 0 0-.77-1.34Z"/><g fill="none" stroke="#4b3fff" stroke-linecap="round" stroke-linejoin="round" stroke-width="2.7"><path d="M30.82 72.34v-9.51c.28-2.4 1.87-4.15 4.09-4.15h0c2.22 0 4.08 1.89 4.08 4.11v6.82M39.01 69.61V60.1c-.01-2.22 1.87-4.15 4.09-4.15h0c2.22 0 4.09 1.8 4.09 4.02v6.91M30.82 96.9c-4.45 0-8.19-3.74-8.19-8.18v-23.2c-.01-2.22 1.87-4.11 4.09-4.11h0c2.22 0 4.08 1.89 4.08 4.11v6.82M47.2 66.88v-23.2c-.01-2.22 1.8-4.09 4.02-4.09h0c2.22 0 4.15 1.87 4.15 4.09v28.66l6.96-6.3c2.01-2.01 5.28-2.01 7.3 0h0a5.17 5.17 0 0 1 .58 6.61l-13.1 18.71c-2.01 2.87-6.41 5.55-9.91 5.55"/><path d="M37.81 43.87c0-7.41 6.01-13.42 13.42-13.42s13.42 6.01 13.42 13.42c0 3.02-1 5.81-2.68 8.05M63.15 24.29c6.57 4.04 10.95 11.3 10.95 19.58 0 4.1-1.08 7.95-2.96 11.29-.43.77-.91 1.51-1.43 2.22M28.2 45.42c-.03-.51-.05-1.03-.05-1.55 0-4.76 1.45-9.18 3.92-12.85 2.95-4.37 7.36-7.66 12.53-9.19"/><path d="M67.35 16.07c9.21 5.67 15.35 15.84 15.35 27.45 0 5.75-1.51 11.15-4.15 15.82-.61 1.08-1.28 2.11-2 3.11M18.37 45.7c-.05-.72-.07-1.45-.07-2.18 0-6.67 2.03-12.87 5.5-18.01 4.06-6 10.08-10.57 17.15-12.76.32-.1.65-.19.97-.28"/></g></svg>