<svg xmlns="http://www.w3.org/2000/svg" data-name="Layer 1" viewBox="0 0 101 101"><g fill="none" stroke="#4b3fff" stroke-linecap="round" stroke-linejoin="round" stroke-width="2.7"><path d="M6.5 62.49H46.5V94.49000000000001H6.5z"/><path d="M46.5 94.49 46.5 62.49 80.5 62.49"/><path d="M86.5 62.49 94.5 62.49 94.5 94.49"/><path d="M22.29 39.54 2.5 62.49 50.5 62.49 32.46 39.74"/><path d="M75.54 35.85 73.5 33.49"/><path d="M98.5 62.49 90.6 53.33"/><path d="M98.5 62.49 92.5 62.49"/><path d="M55.5 38.49 55.5 23.49 63.5 23.49 63.5 43.49"/><path d="M21.5 69.49H31.5V89.49H21.5z"/><path d="M11.5 89.49H31.5V94.49H11.5z"/><path d="M31.5 89.49H36.5V94.49H31.5z"/><path d="M16.5 72.49 16.5 78.49"/><path d="M36.5 72.49 36.5 78.49"/><circle cx="26.5" cy="52.49" r="4"/><path d="M6.5 94.49 1.5 94.49"/><path d="M99.5 94.49 94.5 94.49"/><path d="M41.94 33.49 50.5 33.49"/><path d="M73.5 33.49 68.5 33.49"/></g><path fill="#f86a0b" d="M93.59 38.85H73.4c-.93 0-1.25 1.22-.45 1.69l9.64 5.56v11.13c0 .93 1.22 1.25 1.69.45l10.09-17.49a.9.9 0 0 0-.78-1.35Z"/><g fill="none" stroke="#4b3fff" stroke-linecap="round" stroke-linejoin="round" stroke-width="2.7"><circle cx="27.5" cy="23.49" r="16.98"/><path d="M27.5 15.57c3.4 0 4.53 1.7 4.53 3.4M27.5 31.42c-3.4 0-4.53-1.52-4.53-3.4"/><path d="M26.08 22.83 28.92 24.15"/><path d="M26.08 22.83c-1.53-.63-3.11-1.6-3.11-3.59 0-2.19 2.03-3.68 4.53-3.68M28.92 24.15c1.53.63 3.11 1.6 3.11 3.59 0 2.19-2.03 3.68-4.53 3.68"/><path d="M27.5 15.57 27.5 12.17"/><path d="M27.5 34.81 27.5 31.42"/></g><g fill="none" stroke="#4b3fff" stroke-linecap="round" stroke-linejoin="round" stroke-width="2.7"><path d="m56.46 79.82 2.69-8.74c.14-.46.57-.78 1.05-.78h19.61c.48 0 .91.31 1.05.78l2.69 8.74M73.56 79.82h10.69c.22 0 .39.18.39.39v8c0 .22-.18.39-.39.39h-28.5a.39.39 0 0 1-.39-.39v-8c0-.22.18-.39.39-.39h11.93M77.32 90.07v1.07c0 .22.18.39.39.39h1.8M62.68 90.07v1.07c0 .22-.18.39-.39.39h-1.8M55.36 88.61h5.12v3.29c0 1.41-1.15 2.56-2.56 2.56h0c-1.41 0-2.56-1.15-2.56-2.56zM79.52 88.61h5.12v3.29c0 1.41-1.15 2.56-2.56 2.56h0c-1.41 0-2.56-1.15-2.56-2.56z"/><path d="M61.96 84.22 60.39 84.22"/><path d="M79.61 84.22 78.04 84.22"/></g><path fill="none" stroke="#4b3fff" stroke-linecap="round" stroke-linejoin="round" stroke-width="2.7" d="M52.06 94.47 87.94 94.47"/></svg>