<svg xmlns="http://www.w3.org/2000/svg" data-name="Layer 1" viewBox="0 0 101 101"><g fill="none" stroke="#4b3fff" stroke-linecap="round" stroke-linejoin="round" stroke-width="2.7"><path d="M4.76 30.71 86.76 30.71"/><path d="m94.9 66.19-.03-45.04c0-2.21-1.85-4.09-4.06-4.09H8.91c-2.21 0-4.13 1.89-4.13 4.09V81.2c0 2.21 1.96 4.13 4.17 4.13l66.81-.04"/><path d="M15.74 41.62H26.66V52.54H15.74z"/><path d="M34.84 41.62H45.760000000000005V52.54H34.84z"/><path d="M53.95 41.62H64.87V52.54H53.95z"/><path d="M15.74 60.73H26.66V71.64999999999999H15.74z"/><path d="M34.84 60.73H45.760000000000005V71.64999999999999H34.84z"/><path d="M53.95 60.73H64.87V71.64999999999999H53.95z"/><path d="M73.06 41.62H83.98V52.54H73.06z"/><path d="M73.06 66.19 73.06 60.73 83.98 60.73 83.98 66.19"/></g><path fill="#f86a0b" d="M95.34 73.04h-20c-.91 0-1.24 1.21-.44 1.66l9.55 5.51v11.03c0 .91 1.21 1.24 1.66.44l10-17.31c.34-.59-.09-1.34-.77-1.34"/><g fill="none" stroke="#4b3fff" stroke-linecap="round" stroke-linejoin="round" stroke-width="2.7"><path d="M26.65 8.86 26.65 16"/><path d="M75.79 8.86 75.79 16"/></g></svg>