<svg xmlns="http://www.w3.org/2000/svg" data-name="Layer 1" viewBox="0 0 101 101"><g fill="none" stroke="#4b3fff" stroke-linecap="round" stroke-linejoin="round" stroke-width="2.7"><path d="M36.5 31.44 64.5 31.44"/><path d="M22.5 54.44 78.5 54.44"/><path d="M44.5 16.44 56.5 16.44"/></g><g fill="none" stroke="#4b3fff" stroke-linecap="round" stroke-linejoin="round" stroke-width="2.7"><path d="M35.06 86.44 99.5 86.44 99.5 86.44 99.5 78.44 58.5 8.44 42.5 8.44 1.5 78.44 1.5 86.44 16.86 86.44"/><path d="M1.5 78.44 9.75 78.44"/><path d="M40.16 78.44 99.5 78.44"/></g><path fill="#f86a0b" d="M34.49 73.27H14.3c-.93 0-1.25 1.22-.45 1.69l9.64 5.56v11.13c0 .93 1.22 1.25 1.69.45l10.09-17.49a.9.9 0 0 0-.78-1.35Z"/></svg>