<svg xmlns="http://www.w3.org/2000/svg" data-name="Layer 1" viewBox="0 0 101 101"><circle cx="50.5" cy="50.5" r="23.64" fill="none" stroke="#4b3fff" stroke-linecap="round" stroke-linejoin="round" stroke-width="2.7"/><g fill="none" stroke="#4b3fff" stroke-linecap="round" stroke-linejoin="round" stroke-width="2.7"><circle cx="50.5" cy="5.5" r="4"/><circle cx="11.5" cy="28.5" r="4"/><circle cx="89.5" cy="28.5" r="4"/><circle cx="89.5" cy="72.5" r="4"/><circle cx="50.5" cy="95.5" r="4"/><circle cx="11.5" cy="72.5" r="4"/><circle cx="50.5" cy="5.5" r="4"/><circle cx="11.5" cy="28.5" r="4"/><circle cx="89.5" cy="28.5" r="4"/><circle cx="89.5" cy="72.5" r="4"/><circle cx="50.5" cy="95.5" r="4"/><circle cx="11.5" cy="72.5" r="4"/><path d="M9.53 69.04A44.8 44.8 0 0 1 5.5 50.41c0-6.21 1.26-12.13 3.54-17.52M46.52 95.23c-13.56-1.19-25.4-8.39-32.82-18.92M87.53 75.98c-7.41 10.71-19.35 18.05-33.05 19.25M91.55 31.94c2.54 5.63 3.95 11.88 3.95 18.46s-1.44 12.95-4.03 18.63M54.49 5.58c13.7 1.2 25.63 8.55 33.04 19.26M13.7 24.5C21.13 13.97 32.95 6.77 46.51 5.58"/></g><path fill="#f86a0b" d="M60.59 43.86H40.4c-.93 0-1.25 1.22-.45 1.69l9.64 5.56v11.13c0 .93 1.22 1.25 1.69.45L61.37 45.2a.9.9 0 0 0-.78-1.35Z"/><g fill="none" stroke="#4b3fff" stroke-linecap="round" stroke-linejoin="round" stroke-width="2.7"><path d="M50.53 17.35 50.53 24.97"/><path d="M45.88 20.32 50.5 15.7 55.12 20.32"/><path d="M50.53 82.75 50.53 75.14"/><path d="M45.88 79.78 50.5 84.41 55.12 79.78"/></g><g fill="none" stroke="#4b3fff" stroke-linecap="round" stroke-linejoin="round" stroke-width="2.7"><path d="M22.11 33.82 28.73 37.6"/><path d="M22.39 39.33 20.67 33.02 26.97 31.3"/><path d="M78.91 66.24 72.3 62.46"/><path d="M74.03 68.8 80.33 67.08 78.61 60.78"/></g><g fill="none" stroke="#4b3fff" stroke-linecap="round" stroke-linejoin="round" stroke-width="2.7"><path d="M22.33 66.66 28.89 62.79"/><path d="M27.25 69.15 20.92 67.52 22.55 61.19"/><path d="M78.64 33.4 72.08 37.27"/><path d="M78.45 38.91 80.08 32.58 73.75 30.95"/></g></svg>