<svg xmlns="http://www.w3.org/2000/svg" data-name="Layer 1" viewBox="0 0 101 101"><g fill="none" stroke="#4b3fff" stroke-linecap="round" stroke-linejoin="round" stroke-width="2.7"><path d="M75.86 41.55v52.82c0 2.68-2.17 4.86-4.86 4.86H13.1c-2.68 0-4.86-2.17-4.86-4.86V18.56c0-2.68 2.17-4.86 4.86-4.86h41.89"/><path d="M20.71 40.26 23 42.55 28.72 36.82"/><circle cx="24.65" cy="40.06" r="8.45"/><path d="M39.06 37.57 58.95 37.57"/><path d="M39.06 43.54 51.99 43.54"/><path d="M20.71 62.74 23 65.03 28.72 59.31"/><circle cx="24.65" cy="62.43" r="8.45"/><path d="M39.06 59.45 66.91 59.45"/><path d="M39.06 65.42 51.99 65.42"/><path d="M39.06 82.32 66.91 82.32"/><path d="M39.06 88.29 51.99 88.29"/><circle cx="24.65" cy="84.81" r="8.45"/><path d="M9.23 25.64 52.99 25.64"/><path d="M15.2 19.67 30.12 19.67"/></g><circle cx="76.86" cy="18.68" r="16.9" fill="none" stroke="#4b3fff" stroke-linecap="round" stroke-linejoin="round" stroke-width="2.7"/><path fill="#f86a0b" d="M86.42 10.92H66.43c-.92 0-1.24 1.21-.44 1.67l9.55 5.51v11.03c0 .92 1.21 1.24 1.67.44l10-17.31a.89.89 0 0 0-.77-1.34"/></svg>