<svg xmlns="http://www.w3.org/2000/svg" data-name="Layer 1" viewBox="0 0 101 101"><g fill="none" stroke="#4b3fff" stroke-linecap="round" stroke-linejoin="round" stroke-width="2.7"><path d="M31.5 35.5 31.5 21.5 71.5 21.5 71.5 75.5"/><path d="M44.5 29.5 39.5 29.5 39.5 35.5"/><path d="M64.5 29.5 59.5 29.5 59.5 35.5"/><path d="M54.5 29.5 49.5 29.5 49.5 35.5"/><path d="M64.5 45.5 59.5 45.5 59.5 51.5"/><path d="M54.5 45.5 49.5 45.5 49.5 51.5"/><path d="M64.5 61.5 59.5 61.5 59.5 67.5"/><path d="M54.5 61.5 49.5 61.5 49.5 67.5"/><path d="M59.5 15.5 59.5 1.5 99.5 1.5 99.5 55.5"/><path d="M72.5 9.5 67.5 9.5 67.5 15.5"/><path d="M92.5 9.5 87.5 9.5 87.5 15.5"/><path d="M82.5 9.5 77.5 9.5 77.5 15.5"/><path d="M92.5 25.5 87.5 25.5 87.5 31.5"/><path d="M82.5 25.5 77.5 25.5 77.5 31.5"/><path d="M92.5 41.5 87.5 41.5 87.5 47.5"/><path d="M82.5 41.5 77.5 41.5 77.5 47.5"/><path d="M18.92 41.51H13.5c-4.69 4.69-7.31 7.31-12 11.99V98c0 .83.67 1.5 1.5 1.5h39c.83 0 1.5-.67 1.5-1.5V49.63"/><path d="M1.5 53.5H12c.83 0 1.5-.67 1.5-1.5V41.5"/><path d="M7.5 93.5 37.5 93.5"/><path d="M7.5 87.5 7.5 71.5 13.5 71.5 13.5 87.5"/><path d="M19.5 87.5 19.5 57.5 25.5 57.5 25.5 87.5"/><path d="M31.5 87.5 31.5 65.5 37.5 65.5 37.5 87.5"/></g><path fill="#f86a0b" d="M43.59 40.86H23.4c-.93 0-1.25 1.22-.45 1.69l9.64 5.56v11.13c0 .93 1.22 1.25 1.69.45L44.37 42.2a.9.9 0 0 0-.78-1.35Z"/></svg>