<svg xmlns="http://www.w3.org/2000/svg" data-name="Layer 1" viewBox="0 0 101 101"><path fill="#f86a0b" d="M25.76 23.56H5.57c-.93 0-1.25 1.22-.45 1.69l9.64 5.56v11.13c0 .93 1.22 1.25 1.69.45L26.54 24.9a.9.9 0 0 0-.78-1.35Z"/><path fill="#4b3fff" d="M40.46 52.37a1.741 1.741 0 0 0 0 3.48 1.741 1.741 0 0 0 0-3.48"/><path fill="none" stroke="#4b3fff" stroke-linecap="round" stroke-linejoin="round" stroke-width="2.7" d="M63.04 60.31 69.34 66.61"/><path fill="none" stroke="#4b3fff" stroke-linecap="round" stroke-linejoin="round" stroke-width="2.7" d="M76.39 62.85H86.57V94.66H76.39z" transform="rotate(-45 81.491 78.755)"/><path fill="none" stroke="#4b3fff" stroke-linecap="round" stroke-linejoin="round" stroke-width="2.7" d="M10.32 37.16v.75c0 5.75 1.59 11.13 4.36 15.72 3.51 5.83 8.92 10.4 15.38 12.83 3.35 1.27 6.99 1.96 10.78 1.96 16.85 0 30.51-13.66 30.51-30.51S57.67 7.4 40.82 7.4c-9.15 0-17.35 4.02-22.94 10.4"/><path fill="none" stroke="#4b3fff" stroke-linecap="round" stroke-linejoin="round" stroke-width="2.7" d="M25.72 17.8c4.21-3.16 9.43-5.04 15.1-5.04M21.19 53.63a24.8 24.8 0 0 1-3.16-5.08M32.19 61.54a25.2 25.2 0 0 1-11-7.91M54.88 17.05c6.69 4.52 11.09 12.17 11.09 20.86 0 13.89-11.26 25.15-25.15 25.15-3.03 0-5.94-.54-8.63-1.52"/><path fill="none" stroke="#4b3fff" stroke-linecap="round" stroke-linejoin="round" stroke-width="2.7" d="M31.46 33.17a9 9 0 1 1 9 9v6.94"/></svg>