<svg xmlns="http://www.w3.org/2000/svg" data-name="Layer 1" viewBox="0 0 101 101"><g fill="none" stroke="#4b3fff" stroke-linecap="round" stroke-linejoin="round" stroke-width="2.7"><path d="M37.97 55.91c4.05.58 7.5 2.28 9.55 3.49 1.47.87 3.15 1.3 4.85 1.3H64.5M1.5 76.71s10.14-9.04 16.12-14.38M64.5 60.71c3.31 0 6 2.69 6 6s-2.69 6-6 6"/><path d="m70.5 65.71 10-8s3-9 12.81-9c4.19 0 6.19 2 6.19 2s-7.86 14.32-12.26 19.42c-4.41 5.1-15.87 17.58-22.74 17.58M64.5 87.71h-31c-6 0-13 9-13 9"/><path d="M43.5 72.71 64.5 72.71"/></g><path fill="#f86a0b" d="M34.09 48.06H13.9c-.93 0-1.25 1.22-.45 1.69l9.64 5.56v11.13c0 .93 1.22 1.25 1.69.45L34.87 49.4a.9.9 0 0 0-.78-1.35Z"/><g fill="none" stroke="#4b3fff" stroke-linecap="round" stroke-linejoin="round" stroke-width="2.7"><circle cx="60.52" cy="28.38" r="24.08"/><path d="M60.52 17.14c4.82 0 6.42 2.41 6.42 4.82M60.52 39.62c-4.82 0-6.42-2.16-6.42-4.82"/><path d="M58.51 27.44 62.52 29.31"/><path d="M58.51 27.44c-2.17-.9-4.42-2.28-4.42-5.09 0-3.1 2.88-5.22 6.42-5.22M62.52 29.31c2.17.9 4.42 2.28 4.42 5.09 0 3.1-2.88 5.22-6.42 5.22"/><path d="M60.52 17.14 60.52 12.32"/><path d="M60.52 44.43 60.52 39.62"/></g></svg>