<svg xmlns="http://www.w3.org/2000/svg" data-name="Layer 1" viewBox="0 0 101 101"><g fill="none" stroke="#4b3fff" stroke-linecap="round" stroke-linejoin="round" stroke-width="2.7"><path d="M20.43 65.56c-1.12 0-2.56-.1-3.66-.29l-.42-.07c-2.4-.42-4.73-1.23-6.77-2.56-5.36-3.51-8.73-9.8-8.07-16.82.74-7.81 6.65-14.31 14.34-15.89 3.37-.69 6.57-.36 9.46.64 2.18-8.46 8.21-15.38 16.12-18.76h0a29.4 29.4 0 0 1 16.48-1.65l1.52.29C70.35 13.26 78.69 22.5 80.18 33.9c1.65-.34 3.39-.43 5.19-.22 7.4.88 13.45 6.91 14.12 14.33.78 8.51-5.25 15.85-13.18 17.29h0c-1.25.17-2.52.26-3.78.26h-2.1"/><path d="M9.43 47.56c0-5.52 4.48-10 10-10M56.46 17.56c7.98 2 13.98 8 15.98 16"/></g><g fill="none" stroke="#4b3fff" stroke-linecap="round" stroke-linejoin="round" stroke-width="2.7"><circle cx="50.22" cy="66.56" r="24.78"/><path d="M49.89 86.22c-10.84 0-19.66-8.82-19.66-19.66S39.05 46.9 49.89 46.9s19.66 8.82 19.66 19.66-8.82 19.66-19.66 19.66"/></g><path fill="#f86a0b" d="M59.07 60.19h-20c-.91 0-1.24 1.19-.44 1.63l9.55 5.41v10.82c0 .9 1.21 1.22 1.66.44l10-16.98c.34-.58-.09-1.32-.77-1.32"/></svg>