<svg xmlns="http://www.w3.org/2000/svg" data-name="Layer 1" viewBox="0 0 101 101"><path fill="none" fill-rule="evenodd" stroke="#4b3fff" stroke-linecap="round" stroke-linejoin="round" stroke-width="2.7" d="M13.18 73.03V23.79c0-3.6 2.92-6.52 6.52-6.52h6.06M91.7 34.44v48.34c0 3.6-2.92 6.52-6.52 6.52H24.86"/><path fill="none" stroke="#4b3fff" stroke-linecap="round" stroke-linejoin="round" stroke-width="2.7" d="M31.96 17.27 64.86 17.27"/><path fill="none" stroke="#4b3fff" stroke-linecap="round" stroke-linejoin="round" stroke-width="2.7" d="M21.86 42.88H35.86V56.88H21.86z"/><rect width="6.2" height="14" x="25.76" y="10.27" fill="none" stroke="#4b3fff" stroke-linecap="round" stroke-linejoin="round" stroke-width="2.7" rx="3.1" ry="3.1"/><path fill="none" stroke="#4b3fff" stroke-linecap="round" stroke-linejoin="round" stroke-width="2.7" d="M45.51 42.88H59.51V56.88H45.51z"/><path fill="none" stroke="#4b3fff" stroke-linecap="round" stroke-linejoin="round" stroke-width="2.7" d="M69.16 42.88H83.16V56.88H69.16z"/><path fill="none" stroke="#4b3fff" stroke-linecap="round" stroke-linejoin="round" stroke-width="2.7" d="M45.51 66.47H59.51V80.47H45.51z"/><path fill="none" stroke="#4b3fff" stroke-linecap="round" stroke-linejoin="round" stroke-width="2.7" d="M21.86 72.86 21.86 66.47 35.86 66.47 35.86 80.47 29.47 80.47"/><path fill="none" stroke="#4b3fff" stroke-linecap="round" stroke-linejoin="round" stroke-width="2.7" d="M69.16 66.47H83.16V80.47H69.16z"/><g fill="none" stroke="#4b3fff" stroke-linecap="round" stroke-linejoin="round" stroke-width="2.7"><circle cx="81.84" cy="20.62" r="16.98"/><path d="M81.84 12.69c3.4 0 4.53 1.7 4.53 3.4M81.84 28.55c-3.4 0-4.53-1.52-4.53-3.4"/><path d="M80.43 19.96 83.26 21.28"/><path d="M80.43 19.96c-1.53-.63-3.11-1.6-3.11-3.59 0-2.19 2.03-3.68 4.53-3.68M83.26 21.28c1.53.63 3.11 1.6 3.11 3.59 0 2.19-2.03 3.68-4.53 3.68"/><path d="M81.84 12.69 81.84 9.3"/><path d="M81.84 31.94 81.84 28.55"/></g><path fill="none" stroke="#4b3fff" stroke-linecap="round" stroke-linejoin="round" stroke-width="2.7" d="M14.12 34.18 59.51 34.18"/><path fill="#f86a0b" d="M23.26 78.08H3.08c-.93 0-1.25 1.22-.45 1.69l9.64 5.56v11.13c0 .93 1.22 1.25 1.69.45l10.09-17.49a.9.9 0 0 0-.78-1.35Z"/></svg>