<svg xmlns="http://www.w3.org/2000/svg" data-name="Layer 1" viewBox="0 0 101 101"><g fill="none" stroke="#4b3fff" stroke-linecap="round" stroke-linejoin="round" stroke-width="2.7"><path d="M79.5 73.5 82.5 76.5 89.5 69.5"/><path d="M84.5 91.5s-13-8.07-13-14.92V62.7l13-5.2 13 5.2v13.88c0 6.85-13 14.92-13 14.92"/></g><g fill="none" stroke="#4b3fff" stroke-linecap="round" stroke-linejoin="round" stroke-width="2.7"><path d="M9.5 15.5 9.5 81.5"/><path d="M51.5 75.5 51.5 15.5"/><path d="M23.5 15.5 53.5 15.5 53.5 9.5 7.5 9.5 7.5 15.5 15.5 15.5"/><path d="M15.5 45.5h2.93c.59 0 1.07-.64 1.07-1.43V37.5M39.5 45.5h2.93c.59 0 1.07-.64 1.07-1.43V37.5M15.5 61.5h2.93c.59 0 1.07-.64 1.07-1.43V53.5M27.5 61.5h2.93c.59 0 1.07-.64 1.07-1.43V53.5M39.5 61.5h2.93c.59 0 1.07-.64 1.07-1.43V53.5"/><path d="M85.5 51.5 85.5 27.5"/><path d="M57.5 27.5 87.5 27.5 87.5 21.5 57.5 21.5"/><path d="M59.5 39.5h2.93c.59 0 1.07-.48 1.07-1.07V33.5M71.5 39.5h2.93c.59 0 1.07-.48 1.07-1.07V33.5M59.5 53.5h2.93c.59 0 1.07-.48 1.07-1.07V47.5M59.5 67.5h2.93c.59 0 1.07-.48 1.07-1.07V61.5M71.5 53.5h2.93c.59 0 1.07-.48 1.07-1.07V47.5"/><path d="M34.5 81.5 66.5 81.5"/><path d="M26.5 81.5 26.5 69.5 34.5 69.5 34.5 81.5"/><path d="M26.5 81.5 3.5 81.5"/></g><path fill="#f86a0b" d="M40.49 23.39H20.3c-.93 0-1.25 1.22-.45 1.69l9.64 5.56v11.13c0 .93 1.22 1.25 1.69.45l10.09-17.49a.9.9 0 0 0-.78-1.35Z"/></svg>