<svg xmlns="http://www.w3.org/2000/svg" data-name="Layer 1" viewBox="0 0 101 101"><path fill="none" stroke="#4b3fff" stroke-linecap="round" stroke-linejoin="round" stroke-width="2.7" d="M39.76 95.5 5.76 95.5 5.76 19.5 14.76 19.5"/><path fill="none" stroke="#4b3fff" stroke-linecap="round" stroke-linejoin="round" stroke-width="2.7" d="M56.76 19.5 65.76 19.5 65.76 51.5"/><circle cx="35.76" cy="13.5" r="3" fill="none" stroke="#4b3fff" stroke-linecap="round" stroke-linejoin="round" stroke-width="2.7"/><path fill="none" stroke="#4b3fff" stroke-linecap="round" stroke-linejoin="round" stroke-width="2.7" d="M46.76 23.5h5c0-3.98-2.9-7.27-6.7-7.89-.74-.12-1.3-.73-1.3-1.48v-.35c0-4.26-3.22-7.98-7.47-8.26a8 8 0 0 0-8.53 7.98v.62c0 .75-.56 1.36-1.3 1.48-3.8.62-6.7 3.92-6.7 7.89h19"/><path fill="none" stroke="#4b3fff" stroke-linecap="round" stroke-linejoin="round" stroke-width="2.7" d="M28.76 31.5 56.76 31.5"/><path fill="none" stroke="#4b3fff" stroke-linecap="round" stroke-linejoin="round" stroke-width="2.7" d="M28.76 37.5 50.76 37.5"/><path fill="none" stroke="#4b3fff" stroke-linecap="round" stroke-linejoin="round" stroke-width="2.7" d="M28.76 45.5 56.76 45.5"/><path fill="none" stroke="#4b3fff" stroke-linecap="round" stroke-linejoin="round" stroke-width="2.7" d="M28.76 51.5 36.76 51.5"/><circle cx="18.76" cy="35.5" r="4" fill="none" stroke="#4b3fff" stroke-linecap="round" stroke-linejoin="round" stroke-width="2.7"/><circle cx="18.76" cy="63.5" r="4" fill="none" stroke="#4b3fff" stroke-linecap="round" stroke-linejoin="round" stroke-width="2.7"/><circle cx="18.76" cy="77.5" r="4" fill="none" stroke="#4b3fff" stroke-linecap="round" stroke-linejoin="round" stroke-width="2.7"/><path fill="none" stroke="#4b3fff" stroke-linecap="round" stroke-linejoin="round" stroke-width="2.7" d="M74.24 63.7 78.36 60.96"/><path fill="none" stroke="#4b3fff" stroke-linecap="round" stroke-linejoin="round" stroke-width="2.7" d="M77.47 52.84H95.15V58.5H77.47z" transform="rotate(-33.63 86.31 55.677)"/><path fill="#f86a0b" d="M65.34 68.31H45.15c-.93 0-1.25 1.22-.45 1.69l9.64 5.56v11.13c0 .93 1.22 1.25 1.69.45l10.09-17.49a.9.9 0 0 0-.78-1.35Z"/><circle cx="56.12" cy="75.67" r="19.83" fill="none" stroke="#4b3fff" stroke-linecap="round" stroke-linejoin="round" stroke-width="2.7"/><path fill="none" stroke="#4b3fff" stroke-linecap="round" stroke-linejoin="round" stroke-width="2.7" d="M14.76 45.5 22.76 53.5"/><path fill="none" stroke="#4b3fff" stroke-linecap="round" stroke-linejoin="round" stroke-width="2.7" d="M22.76 45.5 14.76 53.5"/></svg>