<svg xmlns="http://www.w3.org/2000/svg" data-name="Layer 1" viewBox="0 0 101 101"><path fill="none" stroke="#4b3fff" stroke-linecap="round" stroke-linejoin="round" stroke-width="2.7" d="M25.99 70.07v17.72c0 2.91 2.37 5.27 5.28 5.27h50.47c2.91 0 5.26-2.36 5.26-5.27V13.22c0-2.91-2.36-5.27-5.26-5.27H31.27c-2.91 0-5.28 2.36-5.28 5.27v29.64m50.38-25.72H36.64c-.75 0-1.36.54-1.37 1.22v16.91c0 .67.61 1.22 1.37 1.22h39.73c.75 0 1.36-.54 1.36-1.22h0V18.36c0-.67-.61-1.22-1.36-1.22M36.64 53.07h7.49c.75 0 1.36-.61 1.36-1.36v-7.49c0-.75-.61-1.36-1.36-1.36h-7.49m16.11 10.21h7.49c.75 0 1.36-.61 1.36-1.36v-7.49c0-.75-.61-1.36-1.36-1.36h-7.48c-.75 0-1.36.61-1.36 1.36v7.49c0 .75.61 1.36 1.36 1.37h0Zm23.62-10.22h-7.48c-.75 0-1.36.61-1.36 1.36v7.49c0 .75.61 1.36 1.36 1.36h7.49c.75 0 1.36-.61 1.36-1.36h0v-7.49c0-.75-.61-1.36-1.36-1.36h0ZM36.64 68.97h7.49c.75 0 1.36-.61 1.36-1.36v-7.49c0-.75-.61-1.36-1.36-1.36h-7.49c-.75 0-1.36.61-1.37 1.36v7.49c0 .75.61 1.36 1.37 1.36m14.75-1.37c0 .75.61 1.36 1.36 1.36h7.49c.75 0 1.36-.61 1.36-1.36v-7.49c0-.75-.61-1.36-1.36-1.36h-7.49c-.75 0-1.36.61-1.36 1.36zm8.86 7.05H36.64c-.75 0-1.36.61-1.37 1.36v7.49c0 .75.61 1.36 1.37 1.36h23.61c.75 0 1.36-.61 1.36-1.36h0v-7.49c0-.75-.61-1.36-1.36-1.36m16.12-15.9h-7.49c-.75 0-1.36.68-1.36 1.51v23.1c0 .83.61 1.51 1.36 1.51h7.49c.75 0 1.36-.68 1.36-1.51h0v-23.1c0-.83-.61-1.51-1.36-1.51"/><path fill="#f86a0b" d="M35.08 46.97H14.89c-.93 0-1.25 1.22-.45 1.69l9.64 5.56v11.13c0 .93 1.22 1.25 1.69.45l10.09-17.49a.9.9 0 0 0-.78-1.35Z"/></svg>