<svg xmlns="http://www.w3.org/2000/svg" data-name="Layer 1" viewBox="0 0 101 101"><g fill="none" stroke="#4b3fff" stroke-linecap="round" stroke-linejoin="round" stroke-width="2.7"><circle cx="74.51" cy="52.5" r="7"/><circle cx="43.99" cy="26" r="24.5"/><path d="m42.07 68.93 6.44-5.43-11.11 3.17a3.15 3.15 0 0 1-3.85-2.03h0c-.57-1.71.41-3.55 2.15-4.03l20.37-5.62c3.16-.87 6.49.61 7.96 3.54h0c1.45 2.89.68 6.4-1.85 8.42l-10.67 8.54 6.59 4.39c1.44.96 2.1 2.73 1.64 4.4l-3.63 13.08a2.91 2.91 0 0 1-2.8 2.13h0a2.91 2.91 0 0 1-2.81-3.66l3.02-11.34-9-6-6.26 18.79a3.225 3.225 0 0 1-3.06 2.21h-.09c-2.28 0-3.91-2.19-3.23-4.36l6.76-21.77a7.96 7.96 0 0 1 3.45-4.44ZM62.51 25.5c.13 4.91-1.68 9.86-5.42 13.6M30.88 12.9c7.24-7.24 18.97-7.24 26.2 0"/></g><path fill="#f86a0b" d="M53.21 21.07H33.02c-.93 0-1.25 1.22-.45 1.69l9.64 5.56v11.13c0 .93 1.22 1.25 1.69.45l10.09-17.49a.9.9 0 0 0-.78-1.35Z"/></svg>