<svg xmlns="http://www.w3.org/2000/svg" data-name="Layer 1" viewBox="0 0 101 101"><circle cx="84.34" cy="50.53" r="12.65" fill="none" stroke="#4b3fff" stroke-linecap="round" stroke-linejoin="round" stroke-width="2.7"/><g fill="none" stroke="#4b3fff" stroke-linecap="round" stroke-linejoin="round" stroke-width="2.7"><path d="M43.57 84.13 46.55 87.11 53.99 79.66"/><circle cx="48.78" cy="83.38" r="12.65"/></g><g fill="none" stroke="#4b3fff" stroke-linecap="round" stroke-linejoin="round" stroke-width="2.7"><path d="M11.45 51.08 14.42 54.05 21.87 46.61"/><circle cx="16.66" cy="50.33" r="12.65"/></g><g fill="none" stroke="#4b3fff" stroke-linecap="round" stroke-linejoin="round" stroke-width="2.7"><path d="M43.57 18.36 46.55 21.34 53.99 13.89"/><circle cx="48.78" cy="17.62" r="12.65"/></g><path fill="none" stroke="#4b3fff" stroke-linecap="round" stroke-linejoin="round" stroke-width="2.7" d="M32.56 79.16a33.1 33.1 0 0 1-14.1-15.83M77.64 66.36a33 33 0 0 1-16.05 14.49M66.71 22.92a33 33 0 0 1 12.62 15.34M20.9 33.03c3.6-5.73 8.92-10.26 15.23-12.89"/><path fill="#f86a0b" d="M59.13 42.85H38.94c-.93 0-1.25 1.22-.45 1.69l9.64 5.56v11.13c0 .93 1.22 1.25 1.69.45l10.09-17.49a.9.9 0 0 0-.78-1.35Z"/></svg>