<svg xmlns="http://www.w3.org/2000/svg" data-name="Layer 1" viewBox="0 0 101 101"><g fill="none" stroke="#4b3fff" stroke-linecap="round" stroke-linejoin="round" stroke-width="2.7"><circle cx="47.5" cy="37.5" r="6"/><path d="M52.86 24.56c-.53-.22-1.09-.41-1.65-.57a.64.64 0 0 1-.48-.57l-.18-2.81c-.03-.51-.42-.93-.92-.99-.7-.08-1.4-.12-2.12-.12s-1.43.04-2.12.12c-.5.06-.89.48-.92.99-.06.86-.14 2.13-.18 2.81-.02.28-.21.5-.48.57-.6.16-1.18.37-1.74.6"/><path d="M42.14 24.56c-.45.19-.89.4-1.33.63-.39.21-.87.17-1.2-.12l-1.9-1.67c-.38-.34-.95-.37-1.35-.05-.55.43-1.08.91-1.59 1.41s-.98 1.04-1.41 1.59c-.31.4-.28.97.05 1.35l1.65 1.88c.3.35.34.84.12 1.24-.25.45-.46.92-.66 1.39"/><path d="M34.56 32.14c-.19.45-.35.91-.49 1.38-.13.42-.49.74-.93.76l-2.52.17c-.51.03-.93.42-.99.92a18.7 18.7 0 0 0 0 4.24c.06.5.49.89.99.92l2.5.16c.46.03.83.35.96.79.15.5.32.98.52 1.45"/><path d="M34.56 42.86c.19.45.4.89.63 1.33.21.39.17.87-.12 1.2l-1.67 1.9c-.34.38-.37.95-.05 1.35.43.55.91 1.08 1.41 1.59s1.04.98 1.59 1.41c.4.31.97.28 1.35-.05l1.88-1.65c.35-.3.84-.34 1.24-.12.45.25.92.46 1.39.66"/><path d="M42.14 50.44c.53.22 1.09.41 1.65.57.27.07.46.3.48.57l.18 2.81c.03.51.42.93.92.99.7.08 1.4.12 2.12.12s1.43-.04 2.12-.12c.5-.06.89-.48.92-.99.06-.86.14-2.13.18-2.81.02-.28.21-.5.48-.57.6-.16 1.18-.37 1.74-.6"/><path d="M52.86 50.44c.45-.19.89-.4 1.33-.63.39-.21.87-.17 1.2.12l1.9 1.67c.38.34.95.37 1.35.05.55-.43 1.08-.91 1.59-1.41s.98-1.04 1.41-1.59c.31-.4.28-.97-.05-1.35l-1.65-1.88c-.3-.35-.34-.84-.12-1.24.25-.45.46-.92.66-1.39"/><path d="M60.44 42.86c.19-.45.35-.91.49-1.38.13-.42.49-.74.93-.76l2.52-.17c.51-.03.93-.42.99-.92a18.7 18.7 0 0 0 0-4.24c-.06-.5-.49-.89-.99-.92l-2.5-.16c-.46-.03-.83-.35-.96-.79-.15-.5-.32-.98-.52-1.45"/><path d="M60.44 32.14c-.19-.45-.4-.89-.63-1.33-.21-.39-.17-.87.12-1.2l1.67-1.9c.34-.38.37-.95.05-1.35-.43-.55-.91-1.08-1.41-1.59s-1.04-.98-1.59-1.41c-.4-.31-.97-.28-1.35.05l-1.88 1.65c-.35.3-.84.34-1.24.12-.45-.25-.92-.46-1.39-.66M52.95 79.5h5.55c1.66 0 3 1.34 3 3v8c0 1.66-1.34 3-3 3h-22c-1.66 0-3-1.34-3-3v-8c0-1.66 1.34-3 3-3H42M53.5 93.5c0 3.31-2.69 6-6 6s-6-2.69-6-6"/><circle cx="90.5" cy="37.5" r="6"/><circle cx="78.5" cy="7.5" r="6"/><circle cx="78.5" cy="71.5" r="6"/><path d="M84.5 37.5 75.5 37.5"/><path d="M13.5 37.5 4.5 37.5"/><path d="m72.05 24.04 5.89-3.23c.34-.19.56-.55.56-.94V13.5M72.05 50.96l5.89 3.23c.34.19.56.55.56.94V65.5"/><path d="M23.5 13.5 18.5 8.5"/><path d="M22.5 60.5 17.5 65.5"/><path d="M36.5 79.5c0-9-3.33-16.7-8.85-22.25A27.9 27.9 0 0 1 19.5 37.5c0-15.46 12.54-28 28-28s28 12.54 28 28c0 7.71-3.11 14.68-8.15 19.75C61.83 62.8 58.5 70.5 58.5 79.5"/><path d="M33.5 86.5 61.5 86.5"/></g><path fill="#f86a0b" d="M56.99 62.39H36.8c-.93 0-1.25 1.22-.45 1.69l9.64 5.56v11.13c0 .93 1.22 1.25 1.69.45l10.09-17.49a.9.9 0 0 0-.78-1.35Z"/></svg>