<svg xmlns="http://www.w3.org/2000/svg" data-name="Layer 1" viewBox="0 0 101 101"><path fill="none" stroke="#4b3fff" stroke-linecap="round" stroke-linejoin="round" stroke-width="2.7" d="M58.18 31.96q-1.155-.48-2.37-.81a.93.93 0 0 1-.69-.82l-.26-4.02c-.05-.73-.6-1.34-1.32-1.42-1-.12-2.01-.18-3.04-.18s-2.05.06-3.04.18c-.72.09-1.27.69-1.32 1.42-.08 1.23-.2 3.06-.26 4.02-.03.4-.3.72-.69.82-.86.23-1.69.52-2.5.87"/><path fill="none" stroke="#4b3fff" stroke-linecap="round" stroke-linejoin="round" stroke-width="2.7" d="M42.82 31.96c-.65.27-1.28.57-1.9.91-.56.3-1.24.25-1.72-.17l-2.73-2.39c-.55-.48-1.37-.53-1.94-.07-.79.62-1.55 1.3-2.28 2.03s-1.4 1.49-2.03 2.28c-.45.57-.41 1.39.07 1.94l2.36 2.7c.43.49.49 1.2.18 1.78-.35.65-.67 1.32-.94 2"/><path fill="none" stroke="#4b3fff" stroke-linecap="round" stroke-linejoin="round" stroke-width="2.7" d="M31.96 42.82c-.27.65-.5 1.31-.7 1.98-.18.61-.7 1.05-1.33 1.1l-3.62.24c-.73.05-1.34.6-1.42 1.32-.12 1-.18 2.01-.18 3.04s.06 2.05.18 3.04c.09.72.7 1.27 1.42 1.32l3.58.23c.66.04 1.19.5 1.38 1.13.21.71.46 1.4.75 2.08"/><path fill="none" stroke="#4b3fff" stroke-linecap="round" stroke-linejoin="round" stroke-width="2.7" d="M31.96 58.18c.27.65.57 1.28.91 1.9.3.56.25 1.24-.17 1.72l-2.39 2.73c-.48.55-.53 1.37-.07 1.94.62.79 1.3 1.55 2.03 2.28s1.49 1.4 2.28 2.03c.57.45 1.39.41 1.94-.07l2.7-2.36c.49-.43 1.2-.49 1.78-.18.65.35 1.32.67 2 .94"/><path fill="none" stroke="#4b3fff" stroke-linecap="round" stroke-linejoin="round" stroke-width="2.7" d="M42.82 69.04q1.155.48 2.37.81c.38.1.66.43.69.82l.26 4.02c.05.73.6 1.34 1.32 1.42 1 .12 2.01.18 3.04.18s2.05-.06 3.04-.18c.72-.09 1.27-.69 1.32-1.42.08-1.23.2-3.06.26-4.02.03-.4.3-.72.69-.82.86-.23 1.69-.52 2.5-.87"/><path fill="none" stroke="#4b3fff" stroke-linecap="round" stroke-linejoin="round" stroke-width="2.7" d="M58.18 69.04c.65-.27 1.28-.57 1.9-.91.56-.3 1.24-.25 1.72.17l2.73 2.39c.55.48 1.37.53 1.94.07.79-.62 1.55-1.3 2.28-2.03s1.4-1.49 2.03-2.28c.45-.57.41-1.39-.07-1.94l-2.36-2.7c-.43-.49-.49-1.2-.18-1.78.35-.65.67-1.32.94-2"/><path fill="none" stroke="#4b3fff" stroke-linecap="round" stroke-linejoin="round" stroke-width="2.7" d="M69.04 58.18c.27-.65.5-1.31.7-1.98.18-.61.7-1.05 1.33-1.1l3.62-.24c.73-.05 1.34-.6 1.42-1.32.12-1 .18-2.01.18-3.04s-.06-2.05-.18-3.04c-.09-.72-.7-1.27-1.42-1.32l-3.58-.23c-.66-.04-1.19-.5-1.38-1.13-.21-.71-.46-1.4-.75-2.08"/><path fill="none" stroke="#4b3fff" stroke-linecap="round" stroke-linejoin="round" stroke-width="2.7" d="M69.04 42.82c-.27-.65-.57-1.28-.91-1.9-.3-.56-.25-1.24.17-1.72l2.39-2.73c.48-.55.53-1.37.07-1.94-.62-.79-1.3-1.55-2.03-2.28s-1.49-1.4-2.28-2.03c-.57-.45-1.39-.41-1.94.07l-2.7 2.36c-.49.43-1.2.49-1.78.18-.65-.35-1.32-.67-2-.94"/><path fill="#f86a0b" d="M60.5 43.68h-20c-.91 0-1.23 1.2-.44 1.67l9.55 5.52V61.9c0 .91 1.2 1.23 1.67.44l10-17.31a.89.89 0 0 0-.77-1.33Z"/><circle cx="7.51" cy="50.5" r="5.37" fill="none" stroke="#4b3fff" stroke-linecap="round" stroke-linejoin="round" stroke-width="2.7"/><circle cx="93.49" cy="50.5" r="5.37" fill="none" stroke="#4b3fff" stroke-linecap="round" stroke-linejoin="round" stroke-width="2.7"/><g fill="none" stroke="#4b3fff" stroke-linecap="round" stroke-linejoin="round" stroke-width="2.7"><path d="M39.49 93.16C24.01 89.18 11.83 76.99 7.85 61.52l-2.49 4.4"/><path d="M11.96 63.72 7.85 61.51"/></g><g fill="none" stroke="#4b3fff" stroke-linecap="round" stroke-linejoin="round" stroke-width="2.7"><path d="M61.51 7.56c15.48 3.98 27.66 16.17 31.64 31.64l2.49-4.4"/><path d="M89.04 37 93.15 39.21"/></g><g fill="none" stroke="#4b3fff" stroke-linecap="round" stroke-linejoin="round" stroke-width="2.7"><path d="M7.7 39.35c3.98-15.48 16.17-27.66 31.64-31.64l-4.4-2.49"/><path d="M37.14 11.82 39.35 7.71"/></g><g fill="none" stroke="#4b3fff" stroke-linecap="round" stroke-linejoin="round" stroke-width="2.7"><path d="M93.3 61.37c-3.98 15.48-16.17 27.66-31.64 31.64l4.4 2.49"/><path d="M63.86 88.9 61.65 93.01"/></g><path fill="none" stroke="#4b3fff" stroke-linecap="round" stroke-linejoin="round" stroke-width="2.7" d="M46.2 3.21H54.800000000000004V11.809999999999999H46.2z" transform="rotate(-45 50.501 7.512)"/><path fill="none" stroke="#4b3fff" stroke-linecap="round" stroke-linejoin="round" stroke-width="2.7" d="M46.2 89.19H54.800000000000004V97.78999999999999H46.2z" transform="rotate(-45 50.496 93.494)"/></svg>