<svg xmlns="http://www.w3.org/2000/svg" data-name="Layer 1" viewBox="0 0 101 101"><path fill="none" stroke="#4b3fff" stroke-linecap="round" stroke-linejoin="round" stroke-width="2.7" d="M76.43 51.88V22.45c0-1.84-1.49-3.32-3.32-3.32H27.89c-1.84 0-3.32 1.49-3.32 3.32v2.14"/><path fill="#f86a0b" d="M35.91 28.71H15.92c-.92 0-1.23 1.21-.44 1.67l9.55 5.51v11.03c0 .92 1.21 1.23 1.67.44l9.99-17.32a.891.891 0 0 0-.77-1.34Z"/><g fill="none" stroke="#4b3fff" stroke-linecap="round" stroke-linejoin="round" stroke-width="2.7"><path d="M50.48 36.61c4.15 0 5.54 2.08 5.54 4.15M50.48 55.98c-4.15 0-5.54-1.86-5.54-4.15"/><path d="M48.75 45.49 52.21 47.1"/><path d="M48.75 45.49c-1.87-.78-3.81-1.96-3.81-4.38 0-2.68 2.48-4.5 5.54-4.5M52.21 47.1c1.87.78 3.81 1.96 3.81 4.38 0 2.68-2.48 4.5-5.54 4.5"/><path d="M50.48 36.61 50.48 32.45"/><path d="M50.48 60.14 50.48 55.98"/></g><path fill="none" stroke="#4b3fff" stroke-linecap="round" stroke-linejoin="round" stroke-width="2.7" d="M24.57 51.88v7.03"/><g fill="none" stroke="#4b3fff" stroke-linecap="round" stroke-linejoin="round" stroke-width="2.7"><path d="M5.46 47.41 50.5 76.44 95.53 47.41"/><path d="m81.64 34.21 13.9 13.2h0V92.6c0 1.62-1.32 2.94-2.94 2.94H32.76"/><path d="M40.71 13.92 50.5 5.47 60.64 14.26"/><path d="M24.57 95.53H8.4c-1.62 0-2.94-1.32-2.94-2.94V47.4l11.72-11.13"/></g></svg>