<svg xmlns="http://www.w3.org/2000/svg" data-name="Layer 1" viewBox="0 0 101 101"><g fill="none" stroke="#4b3fff" stroke-linecap="round" stroke-linejoin="round" stroke-width="2.7"><path d="M81.5 24.5 81.5 95.5 19.5 95.5 19.5 32.5"/><path d="M19.5 13.5 53 13.5"/><path d="M19.5 95.5h-5c-1.66 0-3-1.34-3-3v-76c0-1.66 1.34-3 3-3h5v10M45.75 48.12c0 2.15 1.86 4.12 5.25 4.12 3.18 0 4.5-1.31 4.5-3 0-2.15-1.74-2.95-5.71-4.43-4.35-1.52-9.29-3.5-9.29-9.07 0-5.19 4.52-8.25 10.5-8.25s9.85 2.76 10.5 7.5l-5.62 1.5c0-2.19-1.36-4.12-4.88-4.12-2.68 0-4.5 1.39-4.5 3.38 0 2.19 1.57 2.87 6.22 4.51 3.81 1.39 8.78 3.25 8.78 8.99 0 5.15-3.85 8.36-10.42 8.36-6.14 0-10.07-2.83-10.58-7.61z"/><path d="M48 60.5 48 57.5"/><path d="M54 60.5 54 57.5"/><path d="M48 27.5 48 24.5"/><path d="M54 27.5 54 24.5"/><path d="M86.5 90.5h3v-85h-66c-1.66 0-3 1.34-3 3h0"/><path d="M34.5 70.5 66.5 70.5"/><path d="M34.5 76.5 66.5 76.5"/><path d="M40.5 82.5 60.5 82.5"/></g><path fill="#f86a0b" d="M80.59 12.34H60.4c-.93 0-1.25 1.22-.45 1.69l9.64 5.56v11.13c0 .93 1.22 1.25 1.69.45l10.09-17.49a.9.9 0 0 0-.78-1.35Z"/></svg>