<svg xmlns="http://www.w3.org/2000/svg" data-name="Layer 1" viewBox="0 0 101 101"><g fill="none" stroke="#4b3fff" stroke-linecap="round" stroke-linejoin="round" stroke-width="2.7"><path d="M22.86 74.67h10c2.21 0 4 1.79 4 4v8h-18v-8c0-2.21 1.79-4 4-4M64.86 74.67h10c2.21 0 4 1.79 4 4v8h-18v-8c0-2.21 1.79-4 4-4M43.86 35.67h10c2.21 0 4 1.79 4 4v8h-18v-8c0-2.21 1.79-4 4-4"/><circle cx="48.86" cy="25.67" r="6"/><circle cx="69.86" cy="64.67" r="6"/><circle cx="27.86" cy="64.67" r="6"/><path d="M28.78 53.67c1.39-3.11 3.49-5.83 6.08-7.97M55.86 83.53a21.9 21.9 0 0 1-7 1.14c-2.29 0-4.5-.35-6.58-1M62.83 45.67c2.56 2.1 4.64 4.78 6.04 7.82"/></g><path fill="none" stroke="#4b3fff" stroke-linecap="round" stroke-linejoin="round" stroke-width="2.7" d="M99.14 86.6a5.93 5.93 0 0 0-5.93-5.93V8.33a5.93 5.93 0 0 1 5.93 5.93v73.11c0 2.93-2.37 5.3-5.3 5.3H7.16c-2.93 0-5.3-2.37-5.3-5.3V19.56c0-2.93 2.37-5.3 5.3-5.3H92.4"/><path fill="#f86a0b" d="M58.16 56.27H37.97c-.93 0-1.25 1.22-.45 1.69l9.64 5.56v11.13c0 .93 1.22 1.25 1.69.45l10.09-17.49a.9.9 0 0 0-.78-1.35Z"/></svg>