<svg xmlns="http://www.w3.org/2000/svg" data-name="Layer 1" viewBox="0 0 101 101"><g fill="none" stroke="#4b3fff" stroke-linecap="round" stroke-linejoin="round" stroke-width="2.7"><rect width="92" height="20" x="4.5" y="20.5" rx="1.07" ry="1.07"/><path d="M4.5 35.39 16.68 20.5"/><path d="M12.32 40.5 28.68 20.5"/><path d="M24.32 40.5 40.68 20.5"/><path d="M60.32 40.5 76.68 20.5"/><path d="M48.32 40.5 64.68 20.5"/><path d="M36.32 40.5 52.68 20.5"/><path d="M72.32 40.5 88.68 20.5"/><path d="M84.32 40.5 96.5 25.61"/><path d="M43.11 72.5H5.57c-.59 0-1.07-.48-1.07-1.07V53.57c0-.59.48-1.07 1.07-1.07h89.86c.59 0 1.07.48 1.07 1.07v17.86c0 .59-.48 1.07-1.07 1.07H60.59"/><path d="M4.5 67.39 16.68 52.5"/><path d="M12.32 72.5 28.68 52.5"/><path d="M24.32 72.5 40.68 52.5"/><path d="M60.59 72.17 76.68 52.5"/><path d="M56.5 62.5 64.68 52.5"/><path d="M44.5 62.5 52.68 52.5"/><path d="M72.32 72.5 88.68 52.5"/><path d="M84.32 72.5 96.5 57.61"/></g><g fill="none" stroke="#4b3fff" stroke-linecap="round" stroke-linejoin="round" stroke-width="2.7"><circle cx="18.5" cy="7.5" r="6"/><path d="M23.5 76.5 23.5 99.5 13.5 99.5 13.5 76.5"/><path d="M16.5 13.5 16.5 16.5"/><path d="M20.5 13.5 20.5 16.5"/><path d="M13.5 44.5 13.5 48.5"/><path d="M23.5 44.5 23.5 48.5"/><circle cx="82.5" cy="7.5" r="6"/><path d="M80.5 13.5 80.5 16.5"/><path d="M84.5 13.5 84.5 16.5"/><path d="M87.5 76.5 87.5 99.5 77.5 99.5 77.5 76.5"/><path d="M77.5 44.5 77.5 48.5"/><path d="M87.5 44.5 87.5 48.5"/></g><path fill="#f86a0b" d="M59.55 65.07H39.36c-.93 0-1.25 1.22-.45 1.69l9.64 5.56v11.13c0 .93 1.22 1.25 1.69.45l10.09-17.49a.9.9 0 0 0-.78-1.35Z"/></svg>