<svg xmlns="http://www.w3.org/2000/svg" data-name="Layer 1" viewBox="0 0 101 101"><path fill="none" stroke="#4b3fff" stroke-linecap="round" stroke-linejoin="round" stroke-width="2.7" d="M30.29 12.13c6.74-3.79 14.51-5.94 22.78-5.94 25.72 0 46.57 20.85 46.57 46.57S78.79 99.33 53.07 99.33 6.5 78.47 6.5 52.75c0-8.28 2.16-16.05 5.95-22.79"/><path fill="none" stroke="#4b3fff" stroke-linecap="round" stroke-linejoin="round" stroke-width="2.7" d="M34.34 25.91a32.6 32.6 0 0 1 18.84-5.96c18.09 0 32.8 14.72 32.8 32.8s-14.72 32.8-32.8 32.8-32.8-14.72-32.8-32.8c0-7.02 2.22-13.54 6-18.89"/><path fill="none" stroke="#4b3fff" stroke-linecap="round" stroke-linejoin="round" stroke-width="2.7" d="M44.18 35.98c2.7-1.45 5.77-2.28 9.05-2.28 10.53 0 19.11 8.55 19.11 19.05S63.77 71.8 53.23 71.8s-19.11-8.55-19.11-19.05c0-3.05.72-5.94 2.01-8.5"/><path fill="none" stroke="#4b3fff" stroke-linecap="round" stroke-linejoin="round" stroke-width="2.7" d="M12.28 12.28 1.53 12.28 11.31 22.07 22.07 22.07 22.07 11.31 12.28 1.53 12.28 12.28 40.95 40.95"/><path fill="none" stroke="#4b3fff" stroke-linecap="round" stroke-linejoin="round" stroke-width="2.7" d="M13.33 19.2 8.44 19.2"/><path fill="none" stroke="#4b3fff" stroke-linecap="round" stroke-linejoin="round" stroke-width="2.7" d="M17.25 11.37 17.25 6.48"/><path fill="#f86a0b" d="M62.87 46.41h-20c-.91 0-1.23 1.2-.44 1.67l9.55 5.52v11.03c0 .91 1.2 1.23 1.67.44l10-17.31a.89.89 0 0 0-.77-1.33Z"/></svg>