<svg xmlns="http://www.w3.org/2000/svg" data-name="Layer 1" viewBox="0 0 101 101"><path fill="none" stroke="#4b3fff" stroke-linecap="round" stroke-linejoin="round" stroke-width="2.7" d="M75.28 69.2V15.21c0-1.87-1.52-3.39-3.39-3.39H26.46c-1.87 0-3.39 1.52-3.39 3.39v2.96"/><path fill="none" stroke="#4b3fff" stroke-linecap="round" stroke-linejoin="round" stroke-width="2.7" d="M75.28 72.78 75.28 69.2"/><path fill="#f86a0b" d="M33.16 22.1H12.97c-.93 0-1.25 1.22-.45 1.69l9.64 5.56v11.13c0 .93 1.22 1.25 1.69.45l10.09-17.49a.9.9 0 0 0-.78-1.35Z"/><g fill="none" stroke="#4b3fff" stroke-linecap="round" stroke-linejoin="round" stroke-width="2.7"><path d="M51.24 22.47c2.91 0 3.88 1.45 3.88 2.91M51.24 36.03c-2.91 0-3.88-1.3-3.88-2.91"/><path d="M50.03 28.68 52.46 29.81"/><path d="M50.03 28.68c-1.31-.54-2.66-1.37-2.66-3.07 0-1.87 1.74-3.15 3.88-3.15M52.46 29.81c1.31.54 2.66 1.37 2.66 3.07 0 1.87-1.74 3.15-3.88 3.15"/><path d="M51.24 22.47 51.24 19.56"/><path d="M51.24 38.94 51.24 36.03"/></g><path fill="none" stroke="#4b3fff" stroke-linecap="round" stroke-linejoin="round" stroke-width="2.7" d="M32.29 49.01 68.08 49.01"/><path fill="none" stroke="#4b3fff" stroke-linecap="round" stroke-linejoin="round" stroke-width="2.7" d="M32.29 57.09 68.08 57.09"/><path fill="none" stroke="#4b3fff" stroke-linecap="round" stroke-linejoin="round" stroke-width="2.7" d="M32.29 65.17 68.08 65.17"/><path fill="none" stroke="#4b3fff" stroke-linecap="round" stroke-linejoin="round" stroke-width="2.7" d="M23.07 45.34v27.98c0 9.02 5.17 16.28 11.44 15.85 6.26.43 11.44-6.83 11.44-15.85M78.03 89.19c6.02 0 10.9-7.11 10.9-15.87"/><path fill="none" stroke="#4b3fff" stroke-linecap="round" stroke-linejoin="round" stroke-width="2.7" d="M78.03 89.19 35.04 89.19"/><path fill="none" stroke="#4b3fff" stroke-linecap="round" stroke-linejoin="round" stroke-width="2.7" d="M45.94 73.32 88.93 73.32"/></svg>