<svg xmlns="http://www.w3.org/2000/svg" data-name="Layer 1" viewBox="0 0 101 101"><g fill="none" stroke="#4b3fff" stroke-linecap="round" stroke-linejoin="round" stroke-width="2.7"><rect width="26.95" height="13.48" x="34.13" y="78.42" rx="3" ry="3"/><path d="M53.39 91.9c0 3.19-2.59 5.77-5.77 5.77s-5.77-2.59-5.77-5.77"/><circle cx="89.01" cy="37.99" r="5.77"/><circle cx="77.45" cy="9.1" r="5.77"/><circle cx="77.45" cy="70.72" r="5.77"/><path d="M83.23 37.99 74.56 37.99"/><path d="M14.88 37.99 6.22 37.99"/><path d="m71.25 25.02 5.67-3.11c.33-.18.53-.53.53-.9v-6.13M71.25 50.95l5.67 3.11c.33.18.53.53.53.9v9.98"/><path d="M24.51 14.88 19.7 10.07"/><path d="M23.55 60.13 18.73 64.94"/><path d="M37.02 78.42c0-8.66-3.21-16.08-8.52-21.42a26.86 26.86 0 0 1-7.85-19.01c0-14.89 12.07-26.95 26.95-26.95s26.95 12.07 26.95 26.95c0 7.42-2.99 14.14-7.85 19.01-5.31 5.34-8.52 12.76-8.52 21.42"/><path d="M34.13 85.16 61.09 85.16"/></g><path fill="#f86a0b" d="M56.41 32.76h-20c-.91 0-1.23 1.2-.44 1.67l9.55 5.52v11.03c0 .91 1.2 1.23 1.67.44l10-17.31a.89.89 0 0 0-.77-1.33Z"/></svg>