<svg xmlns="http://www.w3.org/2000/svg" viewBox="0 0 24 24" fill="none" stroke="currentColor" stroke-width="2" stroke-linecap="round" stroke-linejoin="round">
  <path d="M12 2a3 3 0 0 0-3 3v4a3 3 0 1 0 6 0V5a3 3 0 0 0-3-3z"></path>
  <path d="M19 10v2a7 7 0 0 1-7 7v0a7 7 0 0 1-7-7v-2"></path>
  <line x1="12" y1="19" x2="12" y2="23"></line>
  <line x1="8" y1="23" x2="16" y2="23"></line>
  <path d="M6 7 4 9"></path>
  <path d="M18 7 20 9"></path>
  <path d="M3 11 2 13"></path>
  <path d="M22 13 21 11"></path>
</svg>
