<?xml version="1.0" encoding="iso-8859-1"?>
<!-- Generator: Adobe Illustrator 15.1.0, SVG Export Plug-In . SVG Version: 6.00 Build 0)  -->
<!DOCTYPE svg PUBLIC "-//W3C//DTD SVG 1.1//EN" "http://www.w3.org/Graphics/SVG/1.1/DTD/svg11.dtd">
<svg version="1.1" id="Layer_1" xmlns="http://www.w3.org/2000/svg" xmlns:xlink="http://www.w3.org/1999/xlink" x="0px" y="0px"
	 width="288px" height="288px" viewBox="0 0 288 288" style="enable-background:new 0 0 288 288;" xml:space="preserve">
<g>
	<path d="M102.389,248.329c-0.11,0-0.369,0-0.569-0.198c-0.194-0.195-0.271-0.452-0.214-0.708c0.097-0.431,0.472-0.779,2.167-1.386
		c1.333-0.476,3.648-0.702,5.033-0.837c0.396-0.038,0.738-0.071,0.91-0.098l0.112-0.017c1.295-0.19,2.051-0.456,2.252-0.791
		c-0.224-0.238-0.84-0.674-1.266-0.975c-0.757-0.535-1.54-1.089-2.017-1.646c-0.37-0.432-1.203-0.803-2.009-1.163
		c-1.012-0.452-2.059-0.919-2.714-1.668c-1.222-1.395-0.042-3.025,0.662-3.999c0.138-0.19,0.269-0.371,0.368-0.526
		c0.092-0.371-0.23-2.057-1.229-4.588c-1.028-2.605-1.947-3.98-2.271-4.124c-0.018-0.008-0.033-0.015-0.048-0.021
		c-0.038,0.135-0.077,0.339-0.108,0.501c-0.138,0.723-0.346,1.813-1.186,2.822c-1.321,1.583-1.482,8.629-1.127,11.786
		c0.159,1.402-0.083,2.476-0.72,3.188c-0.59,0.66-1.502,0.995-2.712,0.995c-0.253,0-0.925,0-1.187-0.51
		c-0.253-0.49,0.081-0.958,0.35-1.334c0.085-0.118,0.23-0.322,0.285-0.446c-0.246-0.176-1.085-0.448-1.921-0.448
		c-0.293,0-0.471,0.037-0.559,0.067c-0.059,0.417-0.386,0.697-0.837,0.697c-0.2,0-0.808,0-2.863-1.425
		c-0.14-0.097-0.231-0.249-0.253-0.418l-7.813-61.856c-0.004-0.031-0.006-0.062-0.005-0.093l3.611-125.917
		c-2.377-0.974-3.986-3.229-4.662-4.938c-0.07-0.178-0.052-0.378,0.05-0.54s0.274-0.266,0.465-0.279
		c19.214-1.402,50.041-3.967,60.653-4.945c6.783-0.627,13.517-1.431,20.029-2.209c1.97-0.235,3.926-0.469,5.868-0.695
		c0.294-0.038,0.567,0.148,0.647,0.433l25.147,88.906c0.396,0.456,1.289,1.434,1.803,1.799c0.685,0.488,0.753,1.27,0.808,1.898
		c0.026,0.298,0.051,0.58,0.132,0.769c0.009,0.021,0.056,0.049,0.165,0.107c0.802,0.428,1.193,1.085,0.817,3.178
		c-0.148,0.834-0.168,1.186-0.15,1.328c0.06,0.018,0.151,0.04,0.229,0.058c0.427,0.101,1.07,0.253,1.894,0.86
		c2.012,1.48,2.87,2.6,2.87,3.742c0,0.256,0.096,0.495,0.229,0.827c0.196,0.489,0.439,1.099,0.506,2.068
		c0.059,0.896-0.377,1.779-0.727,2.488c-0.128,0.259-0.312,0.629-0.364,0.831c0.197,0.082,0.479,0.189,0.797,0.312
		c2.303,0.88,3.371,1.38,3.619,2.015c0.084,0.217,0.075,0.447-0.024,0.649c-0.139,0.276-0.484,0.591-1.322,1.339
		c-1.084,0.968-3.622,3.234-3.457,4.173c0.323,1.837,0.223,4.918,0.113,6.448c-0.053,0.731-0.484,1.827-0.941,2.986
		c-0.375,0.954-1.003,2.549-0.891,2.931c0.179,0.403,0.365,1.272,0.654,2.655c0.264,1.264,0.704,3.37,0.981,3.751
		c0.077,0.062,0.174,0.131,0.286,0.211c0.861,0.617,2.654,1.901,2.952,4.794c0.241,2.33-0.283,5.638-0.565,7.416
		c-0.081,0.507-0.164,1.031-0.164,1.151c0.003,0.192,0.311,0.793,0.495,1.152c0.343,0.67,0.554,1.101,0.554,1.476
		c0,0.441-0.285,0.699-0.493,0.888c-0.288,0.261-0.613,0.556-0.557,1.602c0.01,0.184,0.016,0.348,0.022,0.498
		c0.056,1.318,0.056,1.318,1.833,3.454c2.501,2.999,3.476,4.42,3.032,5.453c-0.159,0.371-0.188,0.438-3.899,0.981
		c-2.146,0.314-5.174,0.722-8.999,1.21c-7.73,0.986-17.968,2.206-28.089,3.347c-25.865,2.915-44.845,4.655-50.769,4.655
		c-0.257,0-0.49-0.003-0.701-0.009c0.263,1.02,0.49,2.654-0.41,3.552c-0.424,0.425-0.641,1.105-0.553,1.732
		c0.053,0.375,0.21,0.667,0.42,0.783c1.024,0.568,2.653,1.882,3.418,2.757c0.472,0.538,1.41,0.975,2.404,1.438
		c0.355,0.165,0.722,0.336,1.088,0.52l0.295,0.146c1.372,0.68,2.557,1.267,2.557,2.91c0,1.357-0.913,4.33-2.113,4.675
		c-0.041,0.021-0.148,0.186-0.156,0.463c-0.005,0.164,0.024,0.727,0.608,1.067c0.561,0.326,2.382,1.463,2.315,2.396
		c-0.021,0.283-0.187,0.521-0.447,0.647c-0.411,0.366-1.852,2.837-1.822,5.699c0.003,0.261-0.163,0.494-0.41,0.576
		c-0.709,0.235-1.226,0.35-1.581,0.35l0,0c-0.054,0-0.104-0.002-0.15-0.007c-0.296-0.032-0.539-0.177-0.689-0.41
		c-0.271-0.419-0.17-0.981,0.027-1.632c-0.19,0.263-0.466,0.484-0.885,0.574c-0.132,0.029-0.262,0.042-0.384,0.037
		c0.036,0.077,0.066,0.158,0.089,0.243c0.025,0.094,0.05,0.178,0.072,0.253c0.357,1.222-0.085,1.43-1.733,2.203l-0.12,0.056
		c-1.727,0.812-6.164,2.39-8.137,2.39c-0.238,0-0.438-0.021-0.613-0.065c-0.102-0.025-0.297-0.055-0.66-0.055
		c-0.995,0-2.476,0.219-3.665,0.396C103.231,248.252,102.695,248.329,102.389,248.329z M107.817,246.521
		c0.396,0,0.706,0.029,0.951,0.091c0.053,0.014,0.151,0.029,0.322,0.029c1.725,0,5.918-1.474,7.627-2.275l0.12-0.057
		c0.515-0.241,0.969-0.454,1.148-0.575c-0.015-0.06-0.037-0.137-0.057-0.204c-0.024-0.083-0.052-0.175-0.079-0.277
		c-0.068-0.251-0.546-0.571-0.862-0.783c-0.479-0.321-0.932-0.624-0.875-1.156c0.036-0.33,0.265-0.58,0.679-0.743
		c0.196-0.077,0.388-0.116,0.569-0.116c0.624,0,0.982,0.433,1.22,0.719c0.256,0.31,0.31,0.351,0.471,0.314
		c0.171-0.037,0.245-0.188,0.395-0.653c0.165-0.512,0.441-1.369,1.464-1.369c0.314,0,0.581,0.128,0.75,0.362
		c0.365,0.505,0.119,1.251-0.165,2.115c-0.092,0.278-0.229,0.697-0.28,0.971c0.129-0.021,0.316-0.063,0.584-0.141
		c0.101-2.699,1.325-5.204,2.139-6.063c-0.253-0.278-0.816-0.753-1.596-1.207c-1.021-0.596-1.277-1.643-1.187-2.358
		c0.087-0.688,0.474-1.211,1.01-1.363c0.384-0.213,1.243-2.271,1.243-3.521c0-0.864-0.546-1.169-1.891-1.835l-0.3-0.148
		c-0.355-0.179-0.711-0.345-1.057-0.505c-1.112-0.519-2.162-1.008-2.8-1.736c-0.681-0.778-2.186-1.991-3.098-2.497
		c-0.545-0.302-0.919-0.909-1.025-1.665c-0.142-1.002,0.2-2.056,0.893-2.749c0.585-0.583,0.161-2.368-0.136-3.142
		c-0.075-0.196-0.042-0.418,0.087-0.583c0.129-0.166,0.335-0.253,0.544-0.229c0.33,0.039,0.822,0.06,1.464,0.06
		c13.179,0,84.955-8.382,90.645-9.678c-0.215-0.85-2.161-3.184-2.844-4.001c-1.96-2.357-2.039-2.514-2.109-4.173
		c-0.006-0.146-0.013-0.307-0.021-0.485c-0.088-1.614,0.587-2.226,0.949-2.554c0.024-0.022,0.054-0.049,0.079-0.072
		c-0.063-0.192-0.264-0.583-0.402-0.854c-0.323-0.629-0.627-1.224-0.627-1.699c0-0.202,0.055-0.558,0.179-1.34
		c0.273-1.724,0.782-4.931,0.558-7.104c-0.243-2.355-1.629-3.349-2.457-3.942c-0.15-0.107-0.278-0.2-0.375-0.28
		c-0.49-0.407-0.794-1.657-1.369-4.411c-0.216-1.036-0.439-2.107-0.579-2.422c-0.325-0.726,0.12-1.936,0.874-3.85
		c0.385-0.977,0.821-2.084,0.86-2.633c0.099-1.374,0.206-4.429-0.098-6.154c-0.26-1.475,1.668-3.337,3.84-5.276
		c0.305-0.272,0.638-0.569,0.851-0.776c-0.575-0.378-2.063-0.946-2.753-1.21c-0.396-0.152-0.739-0.283-0.961-0.382
		c-0.344-0.153-0.493-0.401-0.559-0.583c-0.196-0.543,0.099-1.14,0.439-1.83c0.301-0.61,0.643-1.303,0.605-1.877
		c-0.054-0.78-0.25-1.271-0.423-1.703c-0.161-0.404-0.314-0.785-0.314-1.272c0-0.698-0.757-1.58-2.382-2.775
		c-0.626-0.462-1.087-0.571-1.457-0.659c-1.295-0.306-1.298-1.001-0.983-2.766c0.295-1.643,0.031-1.783-0.201-1.907
		c-0.21-0.112-0.528-0.282-0.704-0.694c-0.156-0.364-0.19-0.757-0.224-1.136c-0.047-0.535-0.091-0.87-0.308-1.025
		c-0.789-0.561-2.051-2.032-2.104-2.095c-0.056-0.066-0.098-0.144-0.121-0.227l-25.045-88.543c-1.774,0.208-3.561,0.422-5.357,0.637
		c-6.521,0.778-13.263,1.583-20.062,2.211c-10.458,0.965-40.538,3.469-59.808,4.884c0.693,1.288,2.04,2.994,3.992,3.642
		c0.252,0.084,0.419,0.322,0.411,0.587l-3.622,126.301l7.773,61.543c0.859,0.582,1.41,0.869,1.712,0.989
		c0.168-0.329,0.591-0.693,1.644-0.693c0.951,0,2.502,0.32,2.974,1.031c0.412,0.624-0.008,1.263-0.321,1.704
		c0.769-0.026,1.305-0.22,1.637-0.592c0.399-0.447,0.542-1.205,0.423-2.254c-0.312-2.762-0.353-10.592,1.397-12.689
		c0.642-0.77,0.801-1.606,0.929-2.278c0.122-0.639,0.289-1.514,1.165-1.514c0.198,0,0.413,0.053,0.658,0.161
		c1.355,0.604,3.074,5.006,3.694,7.043c0.808,2.651,0.487,3.161,0.351,3.378c-0.123,0.195-0.271,0.4-0.428,0.617
		c-0.774,1.071-1.281,1.878-0.731,2.506c0.481,0.551,1.406,0.963,2.3,1.362c0.969,0.433,1.885,0.842,2.43,1.478
		c0.381,0.443,1.134,0.977,1.799,1.446c1.202,0.85,1.928,1.362,1.802,2.047c-0.268,1.439-2.32,1.741-3.307,1.887l-0.108,0.016
		c-0.202,0.03-0.542,0.063-0.972,0.105c-0.359,0.035-0.783,0.076-1.235,0.127C107.731,246.521,107.774,246.521,107.817,246.521z"/>
</g>
</svg>
