<?xml version="1.0" encoding="iso-8859-1"?>
<!-- Generator: Adobe Illustrator 15.1.0, SVG Export Plug-In . SVG Version: 6.00 Build 0)  -->
<!DOCTYPE svg PUBLIC "-//W3C//DTD SVG 1.1//EN" "http://www.w3.org/Graphics/SVG/1.1/DTD/svg11.dtd">
<svg version="1.1" id="Layer_1" xmlns="http://www.w3.org/2000/svg" xmlns:xlink="http://www.w3.org/1999/xlink" x="0px" y="0px"
	 width="288px" height="288px" viewBox="0 0 288 288" style="enable-background:new 0 0 288 288;" xml:space="preserve">
<g>
	<g>
		<path d="M290.5,255.009c-0.563,0-1.197-0.11-1.998-0.346c-0.874-0.258-1.028-1.503-1.178-2.708
			c-0.068-0.56-0.141-1.138-0.27-1.425c-0.164-0.361-0.252-0.422-0.256-0.425c-0.006,0.001-0.058,0.001-0.097,0.001
			c-0.248-0.002-0.663-0.005-1.181-0.497c-0.544-0.517-0.796-0.583-0.954-0.583c-0.249,0-0.587,0.183-1.052,0.437l-0.445,0.239
			c-0.322,0.168-0.711,0.261-1.096,0.261c-0.628,0-1.137-0.246-1.359-0.659c-0.146-0.271-0.236-0.723,0.164-1.335
			c0.91-1.389,1.301-2.638,0.993-3.182c-0.4-0.705-0.393-1.314-0.386-1.853c0.006-0.419,0.01-0.781-0.184-1.165
			c-0.06-0.117-0.113-0.215-0.16-0.295c-0.004,0.121-0.002,0.269,0.013,0.442c0.129,1.578,0.124,4.271-1.36,4.589
			c-0.509,0.107-1.035-0.133-1.457-0.678c-0.413-0.534-0.766-1.437-0.604-2.059c0.11-0.428,0.191-0.985,0.277-1.576
			c0.022-0.151,0.044-0.307,0.068-0.466c-0.236,0.409-0.562,0.473-0.739,0.473c-0.618,0-1.105-0.713-1.576-1.403
			c-0.148-0.219-0.334-0.49-0.416-0.562c-0.104-0.083-0.552-0.161-0.848-0.213c-0.822-0.144-1.947-0.341-1.947-1.323
			c0-0.343,1.027-2.471,1.525-2.663l0.587-0.222c0.827-0.31,1.548-0.58,2.308-1.093c-0.23-0.255-0.832-0.653-1.082-0.819
			c-0.236-0.158-0.436-0.293-0.537-0.383c-0.109-0.097-0.486-0.146-0.76-0.183c-0.195-0.025-0.398-0.052-0.594-0.099v2.173
			l-0.521-1.651c-0.038,0.028-0.077,0.054-0.118,0.076c-0.323,0.182-0.749,0.22-1.05,0.22c-0.875,0-1.979-0.299-2.471-0.966
			c-0.025-0.035-0.049-0.062-0.068-0.083c-0.025,0.07-0.049,0.177-0.049,0.315c0,0.929-1.174,2.248-2.27,2.248
			c-0.154,0-0.303-0.025-0.441-0.076c-0.941-0.343-1.494-1.355-1.689-3.096c-0.135-1.237-0.711-2.262-1.581-2.811l-0.142-0.089
			c-0.931-0.581-1.492-0.933-1.208-1.908c0.169-0.57,0.398-1.348,1.159-1.348c0.225,0,0.443,0.069,0.72,0.156
			c0.161,0.051,0.351,0.111,0.577,0.167c0.42,0.102,0.973,0.173,1.557,0.249c1.119,0.146,2.277,0.296,2.991,0.709
			c0.522,0.301,1.093,0.945,1.696,1.628c0.6,0.68,1.279,1.447,1.793,1.701l-0.07-0.664c-1.253-0.412-2.102-1.456-2.86-2.391
			c-0.21-0.258-0.417-0.514-0.63-0.751c-0.57-0.64-0.756-0.732-0.799-0.746c0.029,0.01,0,0.029-0.033,0.047
			c-0.25,0.137-0.75,0.337-1.479,0.143c-0.521-0.14-1.024-1.067-1.139-1.371c-0.047-0.125-0.189-0.505,0.021-0.819
			c0.282-0.425,0.874-0.457,1.35-0.483c0.086-0.004,0.164-0.007,0.224-0.015c-0.184-0.333-0.819-0.936-1.048-1.151
			c-0.179-0.17-0.322-0.309-0.392-0.392c-0.703-0.847-0.81-1.465-0.922-2.119c-0.035-0.21-0.074-0.435-0.137-0.688l-0.059-0.236
			l0.154-0.224c0.141-0.183,0.43-0.295,1.535-0.011c0.014,0.003,0.027,0.007,0.041,0.01c-0.84-0.842-2.747-2.041-3.488-2.506
			c-0.396-0.249-0.72-0.454-0.91-0.59c-0.025-0.018-2.35-1.847-2.287-2.836c0.01-0.141,0.066-0.345,0.225-0.895
			c0.09-0.313,0.252-0.875,0.36-1.34c-0.081,0.094-0.161,0.189-0.231,0.272c-0.553,0.66-1.242,1.482-2.189,1.482
			c-1.813-0.061-3.067-2.606-3.817-4.128l-0.187-0.375c-0.07-0.14-0.179-0.362-0.314-0.645c-1.039-2.147-1.785-3.537-2.322-4.421
			c0.222,0.532,0.449,1.049,0.592,1.354c0.534,1.139,0.84,2.336,1.135,3.494c0.092,0.361,0.184,0.725,0.283,1.087
			c0.135,0.488,0.355,2.897-0.332,3.8c-0.408,0.534-1.082,0.558-1.758-0.023c-0.617-0.534-0.863-0.978-1.043-1.302
			c-0.209-0.375-0.24-0.433-0.929-0.433c-0.146,0-0.312,0.006-0.5,0.017c-1.958,0.11-2.024-1.195-2.091-2.141
			c-0.027-0.398-0.056-0.812-0.186-1.17l-0.046-0.136c-0.481-1.483-0.826-2.217-1.04-2.576c0.004,0.059,0.01,0.116,0.016,0.164
			c0.047,0.465,0.111,1.101-0.42,1.47c-0.174,0.12-0.363,0.181-0.563,0.181c-0.767,0-1.317-0.895-1.577-1.428
			c-0.177-0.203-1.293-0.59-2.117-0.762c0.554,0.504,1.54,1.198,2.149,1.627c1.12,0.788,1.714,1.216,1.923,1.564
			c0.125,0.208,0.423,0.466,0.711,0.715c0.604,0.521,1.287,1.11,1.287,1.923c0,1.344-1.25,2.283-3.52,2.646
			c-1.08,0.165-2.064-0.246-2.766-1.12c-0.482-0.6-2.168-1.191-3.174-1.545c-0.209-0.073-0.398-0.14-0.559-0.199
			c-1.608-0.597-2.202-1.699-2.776-2.765c-0.348-0.646-0.707-1.313-1.311-1.887c-1.778-1.693-3.536-2.828-5.532-3.573
			c-0.229-0.086-0.496-0.179-0.789-0.28c-2.334-0.813-6.242-2.173-6.242-4.932c0-0.842,0.98-1.483,2.018-2.163
			c0.471-0.31,1.574-1.033,1.534-1.292c-0.001-0.003-0.088-0.322-1.496-0.716c-1.552-0.433-3.312,0.563-4.946,1.554
			c-0.829,0.503-1.612,0.979-2.41,1.288c-0.672,0.261-1.248,0.387-1.766,0.387c-1.371,0-2.066-0.895-2.738-1.761
			c-0.475-0.609-0.964-1.24-1.737-1.704c-2.509-1.506-5.776-2.687-8.741-3.159c-1.603-0.262-3.313,0.217-4.824,0.771l-0.267,0.1
			c-0.681,0.256-1.612,0.606-2.468,0.606c-0.441,0-0.828-0.093-1.152-0.275c-0.577-0.324-0.68-0.921-0.762-1.401
			c-0.051-0.298-0.1-0.579-0.239-0.72c-0.397-0.397-0.957-0.482-1.604-0.58c-0.584-0.089-1.245-0.189-1.828-0.563
			c-0.424-0.271-0.705-0.694-0.813-1.223c-0.139-0.677,0.03-1.489,0.428-2.069c0.145-0.211,0.293-0.579,0.381-0.886
			c-0.177,0.21-0.41,0.701-0.604,1.105c-0.494,1.039-1.054,2.217-2.015,2.217c-0.474,0-0.914-0.286-1.349-0.874
			c-0.215-0.291-0.377-0.556-0.523-0.794c-0.443-0.723-0.646-1.053-1.851-1.232c-1.243-0.179-1.687,0.163-2.713,1.027l-0.443,0.369
			c-0.188,0.156-1.774,1.038-2.644,1.038c-0.278,0-0.498-0.084-0.653-0.249c-0.099-0.105-0.213-0.291-0.194-0.578
			c0.021-0.327,0.25-0.594,0.452-0.829c0.056-0.064,0.14-0.163,0.161-0.2c0.088-0.177,0.064-0.315,0.009-0.589
			c-0.046-0.223-0.103-0.499-0.056-0.821c0.039-0.356,0.379-0.416,0.543-0.444c3.01-0.522,3.801-1.02,3.988-1.185
			c-0.113-0.101-0.447-0.319-1.381-0.599c-0.039-0.01-0.131-0.022-0.249-0.041c-1.097-0.17-1.946-0.35-2.079-0.977
			c-0.049-0.237,0-0.59,0.521-0.923c0.121-0.078,0.328-0.153,0.73-0.294c-0.729-0.097-0.967-0.141-1.117-0.216
			c-0.74-0.367-0.752-1.288-0.76-1.897c-0.002-0.117-0.002-0.226-0.01-0.316c-0.01-0.134-0.024-0.23-0.038-0.299
			c-0.054,0.026-0.114,0.058-0.167,0.084c-0.303,0.156-0.719,0.37-1.204,0.37L173,175.823c-0.162-0.013-0.33-0.02-0.502-0.02
			c-0.602,0-1.725,0.089-2.492,0.688c-0.365,0.284-3.086,1.717-3.879,1.638c0.121,0.255,0.179,0.546,0.223,0.771
			c0.031,0.162,0.059,0.321,0.109,0.443c0.112,0.273,0.234,0.51,0.347,0.726c0.467,0.904,0.908,1.759-0.497,3.165
			c-1.097,1.1-0.771,1.743-0.059,3.154l0.061,0.121c0.232,0.465,0.177,1.058-0.15,1.587c-0.545,0.884-1.621,1.183-2.313,0.605
			c-0.367-0.308-0.486-0.821-0.601-1.318c-0.06-0.261-0.111-0.454-0.163-0.597c-0.152,0.766-0.461,1.818-1.373,1.925
			c-0.709,0.077-2.255-0.211-2.916-0.631c-0.118-0.074-0.22-0.19-0.389-0.389c-0.049-0.056-0.123-0.143-0.195-0.222
			c-0.159,0.142-0.345,0.254-0.555,0.334l-0.117,0.029c-0.004,0-0.006,0-0.009,0c-0.583,0-0.726-0.462-0.78-0.808
			c-0.115,0.277-0.238,0.587-0.346,0.854c-0.982,2.464-1.307,3.084-1.887,3.084h-0.213l-0.227-0.191
			c-0.154-0.162-0.256-0.409-0.281-1.017c-0.061,0.103-0.111,0.192-0.144,0.256c-0.249,0.528-0.715,0.867-1.165,1.194
			c-0.367,0.266-0.713,0.518-0.914,0.852c-0.515,0.851-1.416,1.625-2.297,1.973c-0.656,0.262-1.361,0.093-1.596-0.387
			c-0.098-0.199-0.197-0.614,0.225-1.157c0.041-0.053,0.149-0.163,0.291-0.3c0.072-0.069,0.209-0.202,0.346-0.344
			c-0.416,0.085-0.832,0.218-0.933,0.271c-0.319,0.256-2.347,2.921-2.524,3.336l-0.355-0.152l-0.617,0.084l0,0l0,0v-0.001
			c-0.013-0.091-0.1-0.199-0.23-0.306c-0.022,0.265-0.089,0.524-0.217,0.729c-0.257,0.411-0.725,0.551-1.218,0.335
			c-0.354-0.153-0.533-0.403-0.665-0.586c-0.134-0.188-0.14-0.188-0.235-0.188c-0.224,0.021-0.432,0.034-0.679,0.034
			c-0.763,0-2.612-0.108-3.3-1.113c-0.207-0.301-0.394-0.812-0.114-1.534c0.176-0.456,2.797-1.649,2.822-1.659
			c0.214-0.08,0.417-0.152,0.61-0.221c0.954-0.339,1.583-0.563,2.368-1.292c0.132-0.123,0.394-0.292,0.845-0.579
			c0.332-0.211,0.958-0.609,1.25-0.851c-0.062-0.063-0.112-0.063-0.146-0.063c-0.147,0-0.374,0.09-0.671,0.266l-0.474,0.286
			c-0.917,0.557-1.708,1.037-2.532,1.037c-0.795,0-1.485-0.454-2.108-1.39c-1.088-1.634,0.57-3.377,1.781-4.65
			c0.198-0.208,0.385-0.404,0.544-0.585c0.471-0.534,0.794-1.146,1.135-1.795c0.209-0.396,0.419-0.793,0.665-1.18
			c0.209-0.328,0.483-0.573,0.725-0.79c0.488-0.437,0.65-0.61,0.512-1.062c-0.075-0.246-0.25-0.503-0.419-0.751
			c-0.291-0.428-0.621-0.913-0.506-1.478c0.078-0.379,0.337-0.706,0.795-1.001c0.689-0.443,1.287-0.577,1.979-0.733
			c0.703-0.158,1.343-0.498,2.021-0.858c0.418-0.224,0.852-0.454,1.308-0.642c0.978-0.402,1.729-0.216,2.374,0.035
			c0.27,0.105,0.549,0.214,0.9,0.284c0.414,0.083,0.66,0.008,0.661,0.008c0.06-0.168-0.311-0.876-0.829-1.186l-0.657-0.394
			l0.624-0.443c1.085-0.772,1.107-1.092,1.108-1.095c-0.202-0.302-1.956-0.411-2.704-0.458c-0.229-0.015-0.447-0.028-0.646-0.044
			c-1.491-0.116-2.064,0.321-3.063,1.112c-0.272,0.216-0.569,0.449-0.913,0.695c-0.523,0.373-1.063,0.556-1.539,0.718
			c-0.816,0.276-1.356,0.46-1.608,1.426c-0.018,0.069-0.036,0.176-0.058,0.301c-0.134,0.771-0.359,2.063-1.323,2.063
			c-0.138,0-0.279-0.031-0.419-0.093c-0.123-0.054-0.262-0.142-0.409-0.237c-0.15-0.099-0.377-0.248-0.483-0.248
			c-0.491,0.353-2.013,1.553-1.557,2.466c0.08,0.161,0.142,0.43-0.021,0.795c-0.426,0.96-2.448,2.45-3.108,2.636
			c-0.435,0.122-0.848,0.082-1.168-0.056c0.049,0.048,0.099,0.096,0.15,0.145c0.737,0.712,0.817,1.398,0.757,1.851
			c-0.103,0.776-0.688,1.496-1.646,2.024c-0.207,0.114-0.49,0.185-0.817,0.267c-0.272,0.068-0.839,0.21-0.946,0.336
			c-0.045,0.114-0.071,0.245-0.099,0.37c-0.06,0.271-0.134,0.609-0.412,0.955c-0.351,0.437-0.912,0.667-1.622,0.667
			c-0.365,0-0.971-0.089-1.415-0.288c-0.133,0.158-0.258,0.322-0.387,0.492c-0.408,0.537-0.831,1.092-1.59,1.557
			c-0.307,0.188-0.822,0.339-1.418,0.514c-0.359,0.105-0.948,0.278-1.29,0.431c0.202,0.346,0.332,0.646,0.264,0.938
			c-0.148,0.64-0.57,1.024-0.943,1.364c-0.194,0.178-0.378,0.345-0.505,0.532c0.08,0.281,1.154,0.539,1.613,0.649
			c0.686,0.165,1.12,0.276,1.375,0.482l0.128,0.104c0.959,0.773,2.153,1.735,2.131,2.864c-0.011,0.548-0.302,1.037-0.865,1.456
			c-0.719,0.535-1.518,0.978-2.291,1.406c-0.896,0.496-1.742,0.965-2.463,1.56c-0.473,0.39-0.916,1.091-1.386,1.834
			c-0.771,1.222-1.569,2.484-2.776,2.813c-0.299,0.081-0.616,0.158-0.944,0.238c-0.527,0.129-1.085,0.265-1.647,0.438l-0.779,0.233
			c-1.414,0.418-2.124,0.627-3.329,1.679c-0.288,0.252-1.576,0.725-2.238,0.725c-0.092,0-0.173-0.009-0.246-0.023
			c-0.464,0.593-1.006,1.049-1.64,1.385c-0.621,0.329-1.21,0.372-1.654,0.372c-0.183,0-0.365-0.009-0.548-0.017
			c-0.497-0.022-0.97-0.021-1.333,0.086c-0.609,0.179-1.78,0.683-2.273,1.036c0.052,0.105,0.145,0.254,0.213,0.362
			c0.291,0.466,0.654,1.046,0.409,1.631c-0.356,0.851-1.583,2.188-2.623,2.268c-0.189,0.015-0.356,0.018-0.507,0.02
			c-0.464,0.008-0.574,0.01-0.806,0.302c-0.67,0.846-2.288,2.072-3.46,2.079c-0.403,0-0.807-0.372-1.548-1.16
			c-0.001,0.003-0.001,0.005-0.002,0.008c-0.254,0.95-0.639,2.387-1.978,2.387c-0.212,0-0.438-0.04-0.673-0.119l-0.206-0.068
			c-0.464-0.156-0.745-0.25-0.937-0.25c-0.185,0-0.38,0.095-0.905,0.442c-0.67,0.443-1.533,0.596-2.367,0.743
			c-1.179,0.209-2.002,0.4-2.408,0.993c0.811,0.059,1.496,0.207,1.724,0.721c0.078,0.178,0.155,0.539-0.213,0.979
			c-0.115,0.137-0.237,0.302-0.366,0.477c-0.369,0.497-0.787,1.062-1.275,1.356c-0.456,0.272-1,0.053-1.28-0.212
			c-1.687,0.878-3.333,1.125-5.14,1.331l-0.196,0.021c-0.823,0.091-1.534,0.17-1.971,0.76c-0.112,0.151-0.223,0.334-0.338,0.522
			c-0.379,0.622-0.809,1.327-1.539,1.595c-0.524,0.192-0.943,0.104-1.197-0.218c-0.396-0.503-0.184-1.392,0.022-2.25
			c0.018-0.077,0.039-0.162,0.058-0.247c-0.788,0.294-1.643,0.564-2.627,0.706c-0.23,0.033-0.499,0.224-0.759,0.408
			c-0.349,0.248-0.71,0.505-1.138,0.505l-0.137-0.001c-0.445,0-0.89,0.042-1.333,0.084c-0.471,0.044-0.941,0.088-1.408,0.088
			l-0.208-0.003c-0.491-0.015-0.858-0.175-1.153-0.304c-0.184-0.08-0.342-0.149-0.462-0.149c-0.041,0-0.165,0-0.405,0.21
			c-0.419,0.365-0.996,0.566-1.625,0.566c-0.893,0-1.758-0.392-2.259-1.022c-0.696-0.877-0.083-1.605,0.283-2.041
			c0.153-0.183,0.311-0.37,0.369-0.528c-0.26,0.114-0.616,0.358-0.733,0.51c-0.203,0.26-0.354,0.579-0.514,0.916
			c-0.307,0.647-0.656,1.383-1.461,1.773c-0.22,0.107-0.563,0.161-1.104,0.241c-0.336,0.049-0.918,0.135-1.187,0.232
			c0.102,0.792,0.103,1.35-0.18,1.673c-0.133,0.151-0.316,0.235-0.517,0.235l-0.207-0.029c-0.291-0.082-0.457-0.334-0.551-0.627
			c-0.162,0.031-0.353,0.05-0.578,0.05c-0.024,0-2.128-0.064-2.635-0.789c-0.01,0.329-0.036,0.52-0.092,0.662
			c-0.125,0.314-0.476,0.69-1.43,0.69c-0.66,0-1.516-0.185-1.908-0.411c-0.343-0.199-0.494-0.553-0.59-0.895
			c-0.188,0.721-0.481,1.538-1.25,1.538c-0.322,0-0.646-0.161-0.989-0.493c-0.588-0.569-0.848-1.365-0.732-2.243
			c0.141-1.065,0.819-2.054,1.77-2.58c0.475-0.263,1.038-0.297,1.475-0.297c0.222,0,0.452,0.01,0.686,0.021
			c0.226,0.01,0.455,0.02,0.683,0.02c0.698,0,1.14-0.103,1.478-0.345l0.245-0.174c1.038-0.739,2.111-1.504,2.889-2.437
			c1.754-2.104,7.02-3.049,10.199-3.049c0.4,0,0.763,0.016,1.075,0.048c0.731,0.073,2.052,0.353,2.675,1.399
			c0.205,0.342,0.009,0.647-0.463,1.386c-0.075,0.117-0.171,0.268-0.267,0.423c0.316-0.222,0.723-0.422,1.158-0.313
			c0.685,0.162,1.259,0.707,1.72,1.146l0.185,0.174c0.059,0.055,0.148,0.154,0.256,0.275c0.112,0.125,0.354,0.397,0.547,0.567
			c-0.021-0.106-0.061-0.217-0.1-0.265c-0.127-0.125-0.286-0.254-0.45-0.388c-0.702-0.574-1.662-1.359-1.299-2.724
			c0.2-0.752,1.195-1.561,2.378-2.464c0.232-0.178,0.434-0.331,0.571-0.449c0.781-0.666,1.294-0.821,1.837-0.985
			c0.229-0.069,0.477-0.144,0.777-0.271c0.464-0.195,1.013-0.584,1.544-0.96c0.786-0.556,1.599-1.131,2.383-1.29
			c0.468-0.096,0.982,0.037,1.39,0.161c0.354,0.107,0.685,0.196,0.954,0.126l0.526-0.145c0.705-0.193,1.41-0.387,2.124-0.541
			c0.403-0.087,0.977,0.092,1.59,0.296c0.358,0.117,0.759,0.25,1,0.271c0.112-0.391,0.167-0.752,0.221-1.103
			c0.156-1.021,0.304-1.985,1.771-2.859c0.523-0.312,0.954-0.716,1.411-1.144c0.574-0.537,1.167-1.093,1.96-1.461l0.32-0.15
			c0.8-0.381,1.795-0.854,2.747-0.854c0.398,0,0.761,0.084,1.079,0.251c0.125-0.361,0.153-1.271,0.17-1.788
			c0.023-0.74,0.043-1.21,0.152-1.524c0.115-0.333,0.188-0.735,0.265-1.161c0.111-0.616,0.227-1.253,0.491-1.772
			c0.267-0.525,0.729-0.843,1.137-1.122c0.235-0.161,0.457-0.313,0.62-0.487c0.459-0.491,0.623-1.106,0.797-1.758
			c0.239-0.896,0.51-1.912,1.602-2.647c1.549-1.043,2.082-1.686,2.854-3.44c0.084-0.191,0.284-0.427,0.659-0.86
			c0.049-0.058,0.109-0.126,0.175-0.203c-1.284,0.764-2.768,1.544-2.792,1.55c-1.823,0.464-3.761,0.786-5.458,0.909
			c-1.315,0.077-1.598-1.067-1.805-1.902c-0.125-0.505-0.254-1.028-0.541-1.315c-0.286-0.287-0.242-0.584,0.31-1.317
			c-0.597,0.251-0.739,0.472-1.151,1.108c-0.192,0.297-0.436,0.549-0.671,0.792c-0.387,0.398-0.721,0.743-0.749,1.183
			c-0.017,0.261,0.063,0.546,0.146,0.848c0.103,0.372,0.22,0.793,0.17,1.242c-0.117,1.041-0.845,1.122-1.066,1.122
			c-0.939,0-2.185-1.234-2.353-2.103c-0.076-0.393-0.088-0.861-0.102-1.358c-0.024-0.944-0.053-2.014-0.535-2.441
			c-0.161-0.143-0.381-0.24-0.614-0.345c-0.219-0.098-0.437-0.197-0.638-0.331c-0.562-0.374-0.522-0.826-0.396-1.146
			c-0.753,0.231-1.727,0.312-2.221-0.157l-0.119-0.113c-1.066-1.012-1.623-1.541-1.07-3.015c-0.61,0.035-1.691,0.396-2.224,0.573
			c-0.201,0.067-0.351,0.116-0.42,0.133c-0.731,0.181-1.645,0.117-2.475,0.019c-0.197-0.022-0.394-0.046-0.59-0.063
			c-0.001,0-0.003,0-0.005,0c-0.653,0-1.192,0.694-1.713,1.365c-0.633,0.816-1.288,1.66-2.26,1.66c-0.596,0-1.187-0.327-1.805-1.001
			c-0.046-0.05-0.157-0.146-0.3-0.272c-1.271-1.13-1.803-1.729-1.592-2.296c0.063-0.169,0.248-0.454,0.78-0.462
			c0.401,0.037,0.687,0.021,0.949,0.042c0.2,0.016,0.385,0.03,0.556,0.03c0.403,0,0.751,0,1.035-1.166
			c0.091-0.376,0.133-0.658,0.166-0.885c0.115-0.784,0.236-1.113,1.131-1.726c0.017-0.012,0.033-0.023,0.049-0.034
			c-0.091,0.031-0.18,0.069-0.268,0.112c-0.601,0.299-1.083,0.217-1.351-0.165c-0.347-0.494-0.231-1.408,0.4-3.156
			c0.223-0.615,0.641-1.089,1.046-1.546c0.256-0.29,0.498-0.563,0.662-0.834c0.53-0.874,0.608-1.038,0.258-1.71
			c-0.726-1.395-0.51-2.188-0.237-3.193c0.07-0.258,0.146-0.539,0.214-0.86c0.121-0.583-0.125-1.376-0.362-2.142
			c-0.057-0.187-0.115-0.373-0.169-0.56c-0.018,0.033-0.037,0.065-0.057,0.099c-0.38,0.617-1.301,0.758-1.973,0.86
			c-0.146,0.021-0.277,0.041-0.381,0.064c-0.349,0.077-0.696,0.159-1.04,0.24c-1.287,0.305-2.618,0.619-3.913,0.619
			c-1.514,0-2.816-0.437-3.981-1.335l-0.149-0.112c-0.854-0.641-1.683-1.33-1.641-2.084c0.011-0.192,0.094-0.552,0.535-0.813
			c0.274-0.161,0.432-0.384,0.446-0.626c0.014-0.246-0.117-0.494-0.361-0.679c-1.356-1.031-1.452-1.477-1.574-2.86l-0.017-0.187
			c-0.042-0.477-0.33-0.731-0.796-1.108c-0.442-0.357-0.992-0.802-1.134-1.596c-0.085-0.473,0.083-0.81,0.205-1.057
			c0.089-0.18,0.122-0.257,0.111-0.346c-0.008-0.058-0.037-0.09-0.327-0.211c-0.228-0.096-0.512-0.214-0.719-0.471
			c-0.224-0.278-0.298-0.602-0.209-0.911c0.217-0.756,1.314-1.195,2.419-1.58c0.144-0.05,0.258-0.089,0.321-0.116
			c0.771-0.344,1.409-1.204,1.139-2.185c-0.013-0.033-0.084-0.135-0.132-0.202c-0.17-0.243-0.403-0.575-0.317-0.965
			c0.035-0.156,0.137-0.378,0.424-0.543c0.071-0.041,0.198-0.094,0.35-0.151c0.059-0.022,0.149-0.058,0.242-0.096
			c-0.086-0.006-0.195-0.011-0.332-0.011l-0.731,0.01c-0.591,0-1.187-0.056-1.539-0.462c-0.146-0.168-0.306-0.468-0.238-0.942
			c0.039-0.274,0.115-0.557,0.192-0.841c0.15-0.547,0.292-1.063,0.108-1.497c-0.127-0.303-0.304-0.57-0.491-0.853
			c-0.319-0.483-0.65-0.983-0.758-1.688c-0.35-2.268,0.057-3.873,1.211-4.771c0.486-0.379,1.011-0.423,1.364-0.423
			c0.222,0,0.447,0.021,0.668,0.043c0.182,0.018,0.36,0.036,0.531,0.036c0.36,0,0.63-0.047,0.824-0.65
			c0.117-0.363,0.201-0.677,0.276-0.956c0.284-1.058,0.471-1.756,1.725-2.723c1.326-1.021,2.431-1.794,3.478-2.437
			c0.522-0.319,1.08-0.368,1.528-0.407c0.758-0.065,0.938-0.081,0.949-0.907c0.023-1.848,1.65-3.347,2.348-3.905
			c1.326-1.061,2.871-2.191,4.432-2.191c1.188,0,2.228,0.618,3.179,1.889c0.167,0.224,0.317,0.529,0.492,0.884
			c0.22,0.447,0.679,1.378,0.978,1.384c0.001,0,0.002,0,0.003,0c1.288,0,2.193-0.472,3.185-1.181
			c0.243-0.173,0.646-0.383,1.113-0.626c0.649-0.338,2.373-1.234,2.425-1.648h0c-0.007,0-0.085-0.107-0.42-0.24
			c-0.981-0.392-1.489-0.952-1.391-1.538c0.064-0.386,0.397-0.859,1.618-0.92c0.001,0,0.003,0,0.004,0
			c1.176,0,1.363,0.915,1.475,1.462c0.066,0.326,0.13,0.635,0.296,0.746c0.39,0.26,0.593,0.646,0.771,0.987
			c0.203,0.386,0.34,0.628,0.617,0.742c0.533,0.221,1.177,0.288,1.791,0.339c0.401,0.033,0.789,0.064,1.165,0.064
			c0.871,0,1.473-0.184,2.013-0.614c0.842-0.669,1.641-1.571,2.25-2.542c0.282-0.448,0.181-0.868-0.008-1.515
			c-0.193-0.663-0.434-1.488,0.085-2.375c0.498-0.85,0.19-1.677-0.201-2.724l-0.114-0.309c-0.112-0.227-1.031-1.109-1.289-1.231
			l0.198-0.419l-0.554-0.232c0.001-0.002,0.001-0.004,0.002-0.006l0.144-0.302c0.594-1.105,1.54-1.356,2.902-0.641
			c0.974,0.512,1.413,0.35,2.106-1.102c0.363-0.76-0.039-1.584-0.464-2.457l-0.054-0.112c-0.238,0.128-0.624,0.393-0.879,0.567
			c-0.638,0.437-1.046,0.707-1.385,0.748c-0.546-0.017-0.82-0.509-1.057-0.959c-0.044-0.086-0.082-0.16-0.11-0.203
			c-0.115,0.061-0.384,0.188-0.601,0.29c-0.315,0.148-0.641,0.303-0.973,0.303l-0.145-0.004c-0.902,0-2.175,0.706-3.198,1.274
			c-0.377,0.209-0.729,0.403-1.032,0.549c-0.034,0.031-0.174,0.177-0.345,0.347c-0.832,0.828-1.244,1.174-1.641,1.174
			c-0.201,0-0.382-0.092-0.497-0.252c-0.208-0.292-0.134-0.695,0.042-1.211c0.077-0.226,0.229-0.456,0.389-0.699
			c0.112-0.169,0.3-0.453,0.316-0.558c0-0.059-0.211-0.272-0.312-0.375c-0.211-0.215-0.45-0.457-0.554-0.781
			c-0.064-0.201-0.343-0.462-0.58-0.616c0.101,0.172,0.284,0.422,0.407,0.59c0.491,0.67,1,1.363,0.457,1.837
			c-0.193,0.17-0.425,0.26-0.669,0.26c-0.864,0-1.614-1.103-2.339-2.17c-0.253-0.372-0.599-0.881-0.734-0.972
			c-0.917-0.497-2.663-0.909-3.615-0.814c-3.908,0.408-5.529-0.532-8.447-3.146l-0.333-0.291c-0.981-0.851-2.325-2.014-2.042-3.59
			c0.094-0.526,0.518-0.934,0.892-1.293c0.277-0.267,0.623-0.599,0.574-0.772c-0.14-0.499-0.47-0.945-0.82-1.417
			c-0.42-0.567-0.855-1.153-1.02-1.906c-0.125-0.577-0.084-1.382,0.409-1.914l0.151-0.163l0.088,0.001
			c0.822-0.462,1.131-0.523,1.327-0.523c0.218,0,0.407,0.096,0.519,0.262c0.083,0.124,0.156,0.334,0.033,0.632
			c-0.048,0.117-0.14,0.272-0.246,0.443c-0.1,0.162-0.331,0.533-0.333,0.678c0.021,0.002,0.165,0.059,0.582,0.059
			c0.319,0,0.628-0.136,0.927-0.268c0.428-0.188,0.94-0.344,1.333-0.208c-0.481-0.415-1.033-0.722-1.607-1.041
			c-0.462-0.257-0.941-0.522-1.416-0.86l-0.442-0.307c-0.758-0.521-1.475-1.011-2.02-1.892c-0.125-0.203-0.267-0.474-0.42-0.77
			c-0.324-0.623-0.768-1.478-1.144-1.726c-0.641-0.425-0.94-1.214-0.728-1.919c0.22-0.728,0.881-1.151,1.757-1.041
			c0.458,0.058,0.745,0.25,0.976,0.404c0.269,0.18,0.378,0.236,0.657,0.187c0.202-0.034,0.335-0.208,0.536-0.489
			c0.25-0.35,0.592-0.829,1.261-0.829c0.148,0,0.306,0.024,0.468,0.074c0.449,0.138,0.678,0.363,0.845,0.528
			c0.196,0.192,0.267,0.223,0.635,0.187c0.124-0.013,0.168-0.056,0.32-0.445c0.157-0.403,0.42-1.077,1.292-1.127
			c0.856-0.048,1.585-0.195,2.429-0.367l0.368-0.078c0.329-0.07,0.589-0.127,0.836-0.127c0.972,0,1.131,0.954,1.191,1.313
			c0.001,0.004,0.087,0.412,1.697,0.792c-0.058-0.065-0.115-0.128-0.166-0.185c-0.56-0.617-1.002-1.105-0.882-1.611
			c0.28-1.187,2.312-1.787,6.037-1.787c2.249,0,4.409,0.236,5.121,0.456c1.071,0.329,1.688,0.809,1.885,1.466
			c0.315,1.049-0.578,2.135-1.366,3.092c-0.353,0.429-0.685,0.833-0.849,1.157c-0.14,0.274-0.173,0.891-0.001,1.372
			c0.083,0.233,0.203,0.395,0.336,0.454c0.137,0.06,0.353,0.041,0.557,0.021c0.615-0.065,1.165,0.045,1.559,0.502
			c0.205,0.238,0.762,0.306,1.254,0.365c0.307,0.037,0.624,0.076,0.898,0.157c0.689,0.203,0.848,0.736,0.943,1.055
			c0.097,0.322,0.114,0.38,0.488,0.402c0.171-0.029,0.358-0.024,0.612-0.052c0.416-0.044,0.934-0.1,1.392-0.1
			c0.334,0,1.351,0,1.466,0.763c0.019,0.123,0.007,0.253-0.022,0.395c0.894-0.87,1.977-1.796,1.996-1.807
			c0.397-0.242,0.739-0.404,1.293-0.063c-0.209-0.291-0.423-0.515-0.59-0.599c-0.419-0.21-0.817-0.278-1.168-0.339
			c-0.462-0.08-0.939-0.162-1.193-0.597c-0.242-0.413-0.19-0.985,0.185-2.039c0.316-0.889-0.087-1.417-0.826-2.274
			c-0.556-0.645-1.186-1.375-1.272-2.41c-0.043-0.516,0.145-1.031,0.531-1.45c0.319-0.348,0.736-0.587,1.164-0.679
			c-0.993-0.359-1.875-0.888-2.787-1.434c-0.255-0.152-0.565-0.272-0.893-0.399c-0.971-0.376-2.179-0.844-2.228-2.455
			c-0.035-1.163,0.065-2.363,0.161-3.523l0.042-0.521c0.275-3.438-1.538-6.13-3.456-8.981l-0.128-0.19
			c-0.389-0.579-0.775-1.18-1.164-1.784c-1.127-1.756-2.294-3.571-3.631-4.968c-0.308-0.321-0.402-0.631-0.279-0.92
			c0.193-0.451,0.758-0.451,0.943-0.451c0.513,0,0.849,0.046,1.068,0.116c0.572-0.042,1.12-0.509,1.605-0.923l0.104-0.089
			c0.552-0.468,1.08-1.666,1.271-2.555c0.031-0.146,0.054-0.317,0.078-0.497c0.104-0.766,0.262-1.923,1.25-1.923
			c0.326,0,0.682,0.149,1.09,0.457c0.27,0.203,0.498,0.411,0.719,0.615c0.364,0.333,0.678,0.622,1.14,0.833
			c1.538,0.706,3.086,1.064,4.604,1.064c3.528-0.001,6.835-1.996,9.073-5.476c0.119-0.186,0.24-0.409,0.369-0.646
			c0.538-0.987,1.274-2.341,2.6-2.341c0.122-0.035,0.346-0.503,0.467-0.755c0.345-0.718,0.817-1.7,1.912-1.7
			c0.35,0,0.917-0.527,1.373-0.95c0.351-0.326,0.682-0.634,1.013-0.824c0.392-0.226,0.657-0.322,0.886-0.322
			c0.469,0,0.708,0.324,0.708,0.963c0,0.311,0.022,0.369,0.073,0.391c0.296,0.122,0.674,0.185,1.122,0.185
			c1.515,0,3.263-0.688,3.763-0.899c0.218-0.092,0.449-0.227,0.687-0.363c0.565-0.325,1.205-0.694,1.882-0.694
			c0.351,0,0.678,0.099,0.972,0.295c0.345,0.229,0.386,0.601,0.29,1.072c0.078-0.082,0.142-0.163,0.161-0.23
			c0.046-0.156-0.1-0.487-0.217-0.753c-0.124-0.28-0.251-0.569-0.284-0.868c-0.039-0.351,0.101-0.706,0.415-1.057
			c0.725-0.81,2.344-1.519,3.466-1.519c0.972,0,1.288,0.512,1.39,0.817c0.129,0.39-0.193,0.584-0.385,0.7
			c-0.12,0.071-0.223,0.137-0.311,0.195c0.449,0.066,0.924,0.086,1.387,0.105l0.409,0.019c0.258,0.013,0.524,0.03,0.794,0.049
			c0.522,0.035,1.063,0.072,1.599,0.072c1.262,0,2.126-0.212,2.806-0.688c0.382-0.269,0.925-0.834,1.499-1.433
			c1.283-1.339,2.738-2.855,4.012-2.855c0.633,0,0.878,0.591,1.056,1.023c0.087,0.208,0.205,0.494,0.311,0.558
			c0.248,0.146,0.5,0.28,0.75,0.413c0.596,0.316,1.211,0.643,1.76,1.143c0.518,0.473,0.762,0.979,0.727,1.506
			c-0.066,0.987-1.066,1.682-1.949,2.295c-0.275,0.19-0.664,0.46-0.834,0.637c0.157,0.086,0.272,0.112,0.395,0.112
			c0.787,0,1.754-1.106,2.394-1.838c0.186-0.213,0.355-0.406,0.505-0.562c0.455-0.47,0.882-0.698,1.305-0.698
			c1.213,0,1.612,1.726,1.964,3.249c0.126,0.548,0.3,1.299,0.432,1.453c0.034,0.023,0.13,0.079,0.323,0.079
			c0.381,0,0.897-0.203,1.445-0.418c0.688-0.271,1.4-0.55,2.111-0.55c0.818,0,1.466,0.379,1.926,1.128
			c0.129,0.207,0.568,0.241,1.033,0.276c0.752,0.058,1.782,0.137,2.232,1.15c0.451,1.017-0.18,1.521-0.52,1.791
			c-0.268,0.214-0.34,0.293-0.334,0.438c0.045,1.137,0.425,1.033,1.064,0.972c0.803-0.076,1.492,0.221,1.739,0.748
			c0.121,0.258,0.239,0.792-0.331,1.479c-0.022,0.026-0.042,0.051-0.06,0.073c0.009,0.002,0.019,0.003,0.027,0.005
			c0.397,0.07,0.942,0.167,1.292,0.612c0.273,0.35,0.402,0.375,0.402,0.376c0.078-0.028,0.293-0.313,0.42-0.482l0.088-0.114
			c0.793-1.044,2.154-1.106,3.269-0.165c0.247,0.21,0.263,0.454,0.25,0.58c-0.015,0.15-0.076,0.275-0.169,0.386
			c0.714-0.279,1.461-0.602,1.872-0.778c0.325-0.14,0.579-0.248,0.713-0.3c0.182-0.069,0.407-0.104,0.688-0.104
			c1.15,0,3.449,0.644,4.002,1.406c0.187,0.258,0.438,0.457,0.705,0.667c0.321,0.255,0.654,0.518,0.91,0.908
			c0.209,0.318,0.383,0.192,0.611,0.166c0.548-0.063,1.105,0.004,1.527,0.362c0.271,0.229,0.438,0.561,0.6,0.881
			c0.121,0.24,0.304,0.604,0.431,0.613c1.052,0.08,1.932,0.487,2.69,1.245c0.225-0.016,0.572-0.133,0.908-0.246
			c0.82-0.275,1.859-0.512,2.504-0.074c0.416,0.286,0.895,0.402,1.402,0.525c0.52,0.127,1.058,0.258,1.587,0.573
			c0.524,0.314,0.931,0.689,1.323,1.052c0.592,0.548,1.102,1.021,1.921,1.191c0.614,0.125,1.317-0.095,2.04-0.346
			c0.154-0.053,0.307-0.105,0.459-0.154c1.23-0.398,2.857-0.855,4.518-0.855c0.531,0,1.052,0.048,1.545,0.141
			c1.355,0.256,2.27,1.177,3.154,2.066c0.283,0.286,0.564,0.57,0.86,0.828l0.489,0.433c1.246,1.105,2.953,2.621,4.434,2.782
			c0.324,0.034,0.75,0.152,0.702,0.771c-0.003,0.037-0.007,0.081-0.007,0.136V186.66c1.184-0.227,2.408-0.505,3.562-0.926
			c0.192-0.07,0.392-0.106,0.589-0.106c0.744,0,1.318,0.484,1.779,0.873c0.178,0.149,0.445,0.375,0.547,0.393
			c0.108-0.063,0.4-0.239,0.771-0.46c1.309-0.778,3.287-1.954,4.637-1.954c0.726,0,1.242,0.343,1.454,0.963
			c0.206,0.601-0.144,1.432-0.549,2.394c-0.35,0.83-0.829,1.968-0.575,2.359c0.115,0.178,0.479,0.212,0.686,0.216
			c1.104,0.024,1.711,0.962,2.197,1.716c0.146,0.226,0.286,0.445,0.435,0.627c1.011,1.239,2.06,2.325,3.117,3.229
			c0.591,0.504,1.214,0.887,1.815,1.258c1.471,0.905,2.859,1.761,3.086,4.018c0.15,1.514,0.699,1.513,0.879,1.513
			c1.111,0,3.046-1.875,3.682-2.491c1.09-1.057,1.674-2.026,2.014-3.348c0.082-0.314,0.145-0.668,0.209-1.034
			c0.189-1.059,0.403-2.258,1.115-3.068c0.686-0.782,1.664-1.196,2.828-1.196c1.824,0,3.771,1.03,4.631,2.449
			c0.248,0.407,0.473,0.829,0.696,1.251c0.372,0.699,0.723,1.358,1.176,1.957c0.497,0.658,1.005,0.852,1.708,1.118
			c0.314,0.12,0.646,0.247,0.999,0.423c0.722,0.36,1.239,1.092,1.737,1.8c0.293,0.414,0.568,0.806,0.852,1.072
			c0.902,0.845,1.938,1.582,2.938,2.294c0.418,0.298,0.836,0.595,1.246,0.9c2.013,1.5,3.002,3.479,4.05,5.574
			c0.253,0.506,0.509,1.018,0.784,1.529c1.832,3.415,3.538,6.23,5.904,8.872c0.903,1.009,1.389,2.244,1.857,3.438
			c0.356,0.908,0.725,1.849,1.273,2.657c2.251,3.315,5.684,4.904,9.319,6.586c1.231,0.57,2.504,1.159,3.71,1.815
			c0.576,0.314,1.27,0.487,1.94,0.654c1.116,0.278,2.171,0.541,2.603,1.444c0.32,0.67,0.217,1.53-0.329,2.708
			c-0.159,0.344-0.345,0.61-0.511,0.847c-0.361,0.518-0.497,0.712-0.193,1.294c0.279,0.534,0.644,1.017,1.029,1.527
			c0.314,0.417,0.641,0.848,0.92,1.313c1.125,1.874-0.162,4.558-1.102,6.517c-0.143,0.294-0.273,0.569-0.385,0.817
			C292.936,254.256,291.97,255.009,290.5,255.009z M284.567,248.026c0.525,0,1.001,0.248,1.644,0.858
			c0.23,0.22,0.332,0.221,0.499,0.222c0.52,0.004,0.874,0.166,1.256,1.013c0.192,0.426,0.269,1.051,0.351,1.713
			c0.062,0.492,0.224,1.8,0.469,1.872c0.696,0.205,1.258,0.305,1.715,0.305c0.895,0,1.594-0.322,2.314-1.927
			c0.113-0.255,0.25-0.537,0.395-0.84c0.795-1.655,1.994-4.157,1.146-5.569c-0.252-0.421-0.547-0.812-0.859-1.225
			c-0.395-0.521-0.802-1.061-1.119-1.668c-0.584-1.12-0.135-1.763,0.262-2.33c0.146-0.212,0.3-0.431,0.422-0.693
			c0.398-0.862,0.512-1.486,0.334-1.856c-0.229-0.479-1.061-0.686-1.942-0.905c-0.697-0.174-1.487-0.371-2.177-0.746
			c-1.178-0.642-2.436-1.224-3.651-1.786c-3.599-1.666-7.32-3.388-9.727-6.933c-0.611-0.901-1.001-1.894-1.378-2.854
			c-0.456-1.163-0.888-2.262-1.671-3.136c-2.433-2.717-4.174-5.589-6.04-9.067c-0.279-0.52-0.54-1.04-0.797-1.555
			c-0.994-1.986-1.932-3.862-3.754-5.219c-0.404-0.302-0.816-0.595-1.228-0.889c-1.028-0.731-2.091-1.487-3.042-2.379
			c-0.357-0.336-0.677-0.788-0.984-1.225c-0.428-0.607-0.871-1.234-1.367-1.482c-0.32-0.16-0.622-0.273-0.908-0.382
			c-0.761-0.29-1.479-0.563-2.15-1.45c-0.5-0.662-0.887-1.389-1.261-2.091c-0.216-0.405-0.431-0.811-0.669-1.203
			c-0.679-1.121-2.303-1.967-3.775-1.967c-0.605,0-1.456,0.148-2.076,0.856c-0.528,0.601-0.717,1.654-0.883,2.584
			c-0.069,0.393-0.137,0.771-0.225,1.108c-0.391,1.514-1.053,2.62-2.286,3.816c-1.415,1.371-3.042,2.772-4.378,2.772
			c-0.745,0.001-1.675-0.418-1.874-2.413c-0.177-1.765-1.2-2.395-2.616-3.267c-0.604-0.372-1.289-0.794-1.939-1.348
			c-1.104-0.942-2.193-2.072-3.242-3.356c-0.17-0.209-0.333-0.459-0.5-0.717c-0.486-0.753-0.846-1.247-1.379-1.259
			c-0.718-0.016-1.223-0.241-1.502-0.672c-0.543-0.835-0.018-2.084,0.491-3.291c0.241-0.574,0.606-1.442,0.524-1.682
			c-0.049-0.146-0.129-0.287-0.508-0.287c-1.075,0-3.06,1.18-4.126,1.813c-0.417,0.248-0.747,0.441-0.93,0.523
			c-0.113,0.051-0.235,0.076-0.36,0.076c-0.439,0-0.801-0.305-1.184-0.627c-0.431-0.363-0.908-0.762-1.381-0.592
			c-1.417,0.517-2.91,0.825-4.314,1.081l-0.59,0.107V62.608c-1.784-0.328-3.513-1.863-4.793-2.999l-0.482-0.426
			c-0.313-0.273-0.613-0.574-0.914-0.877c-0.812-0.818-1.578-1.591-2.629-1.789c-0.432-0.081-0.89-0.123-1.359-0.123
			c-1.521,0-3.049,0.432-4.211,0.807l-0.438,0.148c-0.811,0.281-1.726,0.559-2.572,0.379c-1.09-0.227-1.754-0.841-2.396-1.436
			c-0.371-0.343-0.721-0.667-1.156-0.927c-0.4-0.239-0.842-0.347-1.311-0.46c-0.572-0.14-1.164-0.283-1.731-0.673
			c-0.31-0.211-0.993-0.015-1.618,0.197c-0.788,0.266-1.527,0.413-1.935,0.005c-0.591-0.59-1.245-0.893-2.06-0.954
			c-0.691-0.052-1-0.668-1.249-1.162c-0.11-0.22-0.236-0.469-0.353-0.567c-0.264-0.223-0.51-0.163-0.764-0.132
			c-0.66,0.076-1.207-0.064-1.564-0.61c-0.167-0.255-0.424-0.458-0.694-0.672c-0.294-0.232-0.628-0.495-0.896-0.866
			c-0.244-0.336-2.054-0.992-3.191-0.992c-0.217,0-0.307,0.028-0.33,0.037c-0.127,0.049-0.367,0.152-0.676,0.285
			c-2.039,0.877-3.34,1.385-3.95,1.385c-0.423,0-0.628-0.246-0.68-0.477c-0.157-0.706,0.592-1.115,1.139-1.414
			c0.045-0.024,0.097-0.053,0.148-0.081c-0.566-0.32-1.101-0.249-1.479,0.251l-0.084,0.11c-0.311,0.412-0.662,0.88-1.223,0.88
			c-0.529,0-0.93-0.433-1.186-0.758c-0.113-0.145-0.428-0.2-0.68-0.245c-0.357-0.063-0.801-0.142-0.955-0.562
			c-0.148-0.408,0.114-0.805,0.393-1.14c0.184-0.221,0.217-0.37,0.195-0.416c-0.041-0.087-0.34-0.219-0.731-0.179
			c-1.89,0.205-2.13-1.02-2.166-1.927c-0.026-0.672,0.417-1.025,0.71-1.259c0.325-0.26,0.367-0.293,0.229-0.604
			c-0.197-0.445-0.658-0.503-1.395-0.56c-0.662-0.051-1.412-0.107-1.809-0.749c-0.277-0.451-0.608-0.652-1.074-0.652
			c-0.521,0-1.145,0.244-1.746,0.48c-1.049,0.41-2.086,0.696-2.758,0.188c-0.369-0.279-0.521-0.881-0.781-2.007
			c-0.172-0.741-0.572-2.475-0.99-2.475c-0.048,0-0.232,0.028-0.586,0.394c-0.14,0.145-0.298,0.326-0.471,0.524
			c-0.805,0.92-1.906,2.18-3.146,2.18c-0.324,0-0.635-0.086-0.925-0.255c-0.431-0.25-0.53-0.56-0.54-0.775
			c-0.023-0.599,0.576-1.015,1.334-1.541c0.628-0.436,1.488-1.032,1.521-1.539c0.015-0.208-0.121-0.443-0.403-0.701
			c-0.454-0.414-0.987-0.697-1.554-0.997c-0.265-0.141-0.531-0.282-0.793-0.438c-0.391-0.234-0.567-0.659-0.723-1.034
			c-0.063-0.151-0.157-0.38-0.216-0.433c-0.764,0.027-2.176,1.5-3.207,2.574c-0.636,0.663-1.185,1.235-1.646,1.56
			c-1.111,0.78-2.461,0.87-3.38,0.87c-0.559,0-1.123-0.037-1.667-0.074c-0.264-0.019-0.524-0.036-0.777-0.049l-0.4-0.018
			c-0.606-0.025-1.234-0.052-1.847-0.179c-0.59-0.121-0.761-0.423-0.801-0.654c-0.069-0.403,0.221-0.725,0.573-0.984
			c-0.839,0.017-2.157,0.596-2.686,1.186c-0.143,0.16-0.168,0.258-0.166,0.28c0.016,0.146,0.112,0.363,0.205,0.574
			c0.192,0.436,0.41,0.93,0.262,1.437c-0.111,0.382-0.388,0.642-0.633,0.87c-0.131,0.122-0.329,0.308-0.329,0.389l0.028,0.137
			c0.308,1.757,0.287,2.61-0.077,3.042c-0.299,0.356-0.792,0.382-1.305,0.005c-1.113-0.821-0.519-2.506-0.085-3.736
			c0.126-0.358,0.293-0.831,0.321-1.06c-0.447-0.203-1.08,0.147-1.686,0.497c-0.276,0.159-0.544,0.313-0.797,0.419
			c-0.543,0.229-2.449,0.978-4.152,0.978c-0.58,0-1.085-0.088-1.504-0.261c-0.587-0.243-0.675-0.782-0.688-1.144
			c-0.029,0.017-0.062,0.034-0.097,0.055c-0.232,0.134-0.523,0.404-0.832,0.69c-0.645,0.599-1.311,1.218-2.053,1.218
			c-0.434,0-0.682,0.449-1.011,1.134c-0.298,0.619-0.635,1.321-1.369,1.321c-0.731,0-1.28,1.009-1.722,1.819
			c-0.142,0.261-0.275,0.505-0.407,0.709c-2.425,3.771-6.039,5.934-9.914,5.935c-1.663,0-3.353-0.389-5.021-1.155
			c-0.606-0.277-1.01-0.647-1.4-1.006c-0.198-0.183-0.402-0.37-0.644-0.553c-0.33-0.249-0.474-0.256-0.489-0.256
			c-0.128,0.099-0.216,0.747-0.259,1.059c-0.028,0.206-0.056,0.403-0.091,0.57c-0.185,0.861-0.764,2.399-1.602,3.109l-0.102,0.087
			c-0.609,0.519-1.367,1.164-2.337,1.164h-0.523c1.232,1.389,2.305,3.059,3.346,4.679c0.385,0.6,0.767,1.193,1.152,1.767l0.128,0.19
			c2.019,3,3.926,5.834,3.624,9.62l-0.043,0.523c-0.094,1.133-0.191,2.305-0.158,3.412c0.027,0.903,0.592,1.166,1.588,1.552
			c0.353,0.137,0.718,0.277,1.046,0.475c1.498,0.896,2.792,1.672,4.605,1.748l0.4,0.012c1.02,0.023,2.072,0.047,2.738,1.356h0.012
			l0.092,0.224c0.013,0.03,0.026,0.062,0.039,0.093l0,0.001l-0.464,0.198l0.173,0.448c-0.258,0.13-2.035,1.491-2.387,2.749
			c-0.1,0.357-0.069,0.657,0.094,0.919l0.211,0.344c0.683,1.125,0.862,1.24,1.649,0.833c0.545-0.278,0.981-0.407,1.375-0.407
			c0.643,0,1.048,0.344,1.44,0.676c0.314,0.267,0.64,0.542,1.165,0.753c1.469,0.587,1.44,1.551,1.396,1.832
			c-0.127,0.821-0.996,1.451-2.111,1.532c-1.161,0.089-1.792-0.751-2.292-1.415c-0.478-0.635-0.798-1.023-1.335-1.023
			c-1.501,0-2.634-0.457-3.24-1.268c-0.279,0.83-0.214,1.017-0.205,1.036c0.048,0.036,0.309,0.081,0.499,0.114
			c0.378,0.064,0.896,0.153,1.446,0.43c0.896,0.448,2.192,2.548,1.891,3.824c-0.074,0.313-0.366,1.037-1.486,1.037v-1
			c-0.226,0-0.37,0.16-0.396,0.245c0.068-0.216,0.018-1.236-0.301-1.671c-0.051-0.069-0.096-0.105-0.134-0.105
			c-0.022,0-0.088,0.008-0.204,0.079c-0.281,0.188-2.127,1.985-2.658,2.537l0.124,0.861l-0.924-0.6
			c-0.552-0.358-0.328-1.083-0.147-1.665c0.028-0.091,0.065-0.21,0.09-0.306c-0.243-0.046-1.125-0.003-1.731,0.062
			c-0.3,0.032-0.553,0.058-0.701,0.058c-1.149-0.064-1.346-0.723-1.464-1.116c-0.085-0.286-0.11-0.335-0.269-0.382
			c-0.195-0.058-0.458-0.09-0.735-0.123c-0.672-0.082-1.434-0.175-1.891-0.706c-0.214-0.25-0.433-0.188-0.693-0.16
			c-0.376,0.041-0.757,0.036-1.067-0.1c-0.394-0.174-0.696-0.531-0.875-1.033c-0.25-0.7-0.229-1.608,0.051-2.16
			c0.214-0.422,0.581-0.868,0.969-1.34c0.598-0.727,1.341-1.631,1.18-2.169c-0.116-0.385-0.729-0.646-1.222-0.799
			c-0.561-0.173-2.549-0.411-4.827-0.411c-3.609,0-4.848,0.596-5.041,0.958c0.091,0.179,0.422,0.543,0.627,0.77
			c0.565,0.623,0.973,1.073,0.76,1.556c-0.091,0.203-0.366,0.538-1.409,0.309c-1.633-0.363-2.486-0.898-2.609-1.637
			c-0.066-0.398-0.143-0.474-0.146-0.477c-0.19,0.018-0.423,0.047-0.683,0.104l-0.296,0.063c-0.966,0.196-1.728,0.352-2.656,0.402
			c-0.199,0.012-0.254,0.076-0.416,0.492c-0.155,0.397-0.389,0.998-1.15,1.076c-0.908,0.1-1.203-0.235-1.439-0.469
			c-0.128-0.127-0.221-0.218-0.435-0.283c-0.25-0.078-0.315-0.049-0.623,0.379c-0.237,0.333-0.563,0.788-1.181,0.895
			c-0.707,0.115-1.083-0.141-1.383-0.342c-0.187-0.125-0.321-0.215-0.544-0.243c-0.433-0.049-0.622,0.16-0.675,0.337
			c-0.07,0.234,0,0.583,0.323,0.797c0.591,0.392,1.063,1.299,1.479,2.099c0.141,0.271,0.269,0.519,0.383,0.704
			c0.435,0.701,1.037,1.114,1.735,1.593l0.456,0.317c0.429,0.305,0.883,0.558,1.322,0.801c0.862,0.479,1.754,0.975,2.464,1.877
			c0.191,0.244,0.324,0.531,0.441,0.784c0.229,0.498,0.336,0.664,0.513,0.664c0.611,0,1.291,0.063,1.696,0.538
			c0.28,0.327,0.375,0.788,0.283,1.372c-0.191,1.216-1.483,1.227-2.178,1.232c-0.136,0.001-0.266,0.002-0.381,0.01
			c-0.001,0-0.003,0-0.004,0c-1.215,0-1.394-1.355-1.512-2.253c-0.037-0.28-0.075-0.57-0.125-0.702
			c-0.077-0.201-0.275-0.671-0.458-0.671c-0.125,0-0.34,0.095-0.548,0.187c-0.356,0.157-0.799,0.353-1.328,0.353
			c-0.3-0.024-1.141,0-1.467-0.588c-0.19-0.34-0.126-0.704,0.018-1.041c-0.152,0.24-0.171,0.639-0.105,0.941
			c0.119,0.544,0.472,1.02,0.846,1.524c0.389,0.524,0.791,1.066,0.98,1.744c0.209,0.75-0.375,1.311-0.844,1.762
			c-0.264,0.254-0.563,0.542-0.601,0.748c-0.182,1.017,0.869,1.927,1.713,2.658l0.346,0.303c2.641,2.364,3.997,3.275,7.678,2.896
			c1.14-0.124,3.092,0.331,4.202,0.934c0.308,0.167,0.595,0.576,1.077,1.284c0.229,0.336,0.656,0.965,1.02,1.365
			c-0.036-0.05-0.071-0.097-0.102-0.139c-0.315-0.431-0.587-0.802-0.652-1.138c-0.073-0.382-0.021-0.684,0.157-0.898
			c0.146-0.176,0.361-0.273,0.607-0.273c0.648,0,1.601,0.754,1.82,1.44c0.031,0.097,0.188,0.256,0.313,0.384
			c0.267,0.271,0.599,0.608,0.599,1.09c0,0.269-0.13,0.538-0.292,0.804c0.334-0.333,0.46-0.453,0.596-0.519
			c0.288-0.138,0.621-0.323,0.979-0.522c1.124-0.623,2.522-1.399,3.683-1.399l0.143,0.004l0,0c0.11,0,0.363-0.12,0.548-0.207
			c0.542-0.256,1.261-0.472,1.723-0.096c0.116,0.096,0.182,0.221,0.301,0.448c0.049,0.094,0.133,0.256,0.207,0.371
			c0.186-0.11,0.535-0.35,0.785-0.521c0.74-0.507,1.213-0.816,1.614-0.816c0.268,0,0.493,0.139,0.602,0.371l0.181,0.378
			c0.463,0.949,1.04,2.131,0.468,3.326c-0.454,0.95-1.069,1.923-2.188,1.923c-0.394,0-0.814-0.12-1.286-0.368
			c-0.359-0.188-0.657-0.283-0.884-0.283c-0.107,0-0.324,0-0.559,0.329c0.61,0.444,1.333,1.25,1.445,1.558l0.112,0.303
			c0.425,1.14,0.865,2.317,0.127,3.578c-0.287,0.489-0.183,0.923,0.012,1.589c0.191,0.657,0.43,1.476-0.105,2.327
			c-0.668,1.063-1.547,2.056-2.475,2.793c-0.925,0.736-1.895,0.831-2.635,0.831c-0.402,0-0.817-0.032-1.247-0.068
			c-0.693-0.057-1.425-0.135-2.091-0.411c-0.625-0.259-0.899-0.781-1.12-1.201c-0.142-0.27-0.264-0.502-0.441-0.62
			c-0.023-0.016-0.046-0.032-0.067-0.049c-0.229,0.784-1.376,1.438-2.922,2.243c-0.416,0.216-0.809,0.421-0.994,0.553
			c-0.994,0.71-2.128,1.367-3.677,1.367l-0.112-0.001c-0.907-0.019-1.433-1.085-1.855-1.942c-0.146-0.297-0.285-0.577-0.396-0.726
			c-0.75-1.001-1.528-1.488-2.378-1.488c-1.237,0-2.614,1.019-3.807,1.973c-1.223,0.979-1.96,2.151-1.973,3.138
			c-0.022,1.729-1.13,1.826-1.863,1.891c-0.396,0.034-0.771,0.066-1.092,0.264c-1.016,0.622-2.093,1.377-3.39,2.376
			c-0.986,0.76-1.106,1.207-1.37,2.188c-0.079,0.294-0.167,0.622-0.29,1.004c-0.291,0.904-0.872,1.344-1.776,1.344
			c-0.202,0-0.414-0.02-0.628-0.041c-0.188-0.019-0.381-0.038-0.571-0.038c-0.335,0-0.559,0.063-0.75,0.212
			c-0.846,0.659-1.127,1.947-0.837,3.83c0.075,0.489,0.32,0.859,0.604,1.289c0.204,0.309,0.416,0.627,0.579,1.016
			c0.317,0.754,0.114,1.495-0.065,2.15c-0.066,0.242-0.134,0.482-0.167,0.717c-0.015,0.102,0,0.143,0.003,0.146
			c0.024,0.027,0.151,0.117,0.784,0.117l0.731-0.01c0.448,0,1.498,0,1.615,0.902c0.085,0.659-0.669,0.947-1.168,1.138
			c-0.027,0.011-0.054,0.021-0.078,0.03c0.028,0.043,0.06,0.087,0.083,0.121c0.11,0.157,0.225,0.32,0.277,0.511
			c0.37,1.346-0.343,2.76-1.695,3.363c-0.078,0.035-0.22,0.085-0.399,0.147c-1.461,0.509-1.747,0.79-1.787,0.911
			c0.074,0.067,0.222,0.129,0.352,0.184c0.317,0.133,0.849,0.354,0.933,1.005c0.052,0.398-0.097,0.699-0.206,0.919
			c-0.096,0.194-0.142,0.294-0.116,0.436c0.073,0.407,0.343,0.644,0.778,0.995c0.482,0.389,1.081,0.873,1.164,1.796l0.017,0.188
			c0.105,1.189,0.118,1.343,1.183,2.151c0.513,0.39,0.788,0.949,0.754,1.534c-0.033,0.576-0.375,1.098-0.936,1.429
			c-0.04,0.119,0.129,0.433,1.198,1.236l0.159,0.119c0.998,0.77,2.069,1.127,3.371,1.127c1.178,0,2.395-0.287,3.683-0.592
			c0.349-0.083,0.7-0.166,1.054-0.244c0.121-0.026,0.275-0.051,0.446-0.077c0.369-0.056,1.135-0.173,1.272-0.396
			c0.177-0.285,0.122-0.555,0.009-1.005c-0.153-0.615-0.364-1.458,0.549-2.313l0.662-0.63c0.682-0.654,1.387-1.33,2.151-1.93
			c0.35-0.274,0.838-0.458,1.214-0.458c0.506,0,0.667,0.328,0.704,0.428c0.187,0.506-0.336,0.954-0.533,1.123
			c-0.943,0.809-2.236,1.917-2.926,2.96c-0.393,0.594-0.104,1.526,0.203,2.515c0.275,0.888,0.56,1.806,0.386,2.642
			c-0.072,0.344-0.153,0.644-0.228,0.92c-0.249,0.916-0.386,1.421,0.159,2.468c0.592,1.138,0.308,1.705-0.289,2.69
			c-0.211,0.348-0.495,0.669-0.769,0.979c-0.342,0.388-0.697,0.788-0.836,1.175c-0.502,1.389-0.569,1.955-0.556,2.181
			c0.028-0.011,0.063-0.025,0.103-0.046c0.42-0.209,0.857-0.324,1.229-0.324c0.671,0,0.861,0.379,0.911,0.542
			c0.205,0.661-0.635,1.235-0.911,1.425c-0.614,0.42-0.623,0.479-0.706,1.047c-0.037,0.248-0.083,0.56-0.184,0.975
			c-0.333,1.371-0.915,1.93-2.007,1.93c-0.195,0-0.406-0.016-0.634-0.033c-0.14-0.012-0.288-0.022-0.443-0.03
			c0.318,0.353,0.836,0.813,1.048,1.001c0.178,0.158,0.315,0.282,0.373,0.345c0.413,0.449,0.772,0.677,1.068,0.677
			c0.483,0,0.985-0.646,1.47-1.272c0.671-0.865,1.439-1.848,2.6-1.749c0.205,0.019,0.409,0.043,0.614,0.066
			c0.779,0.091,1.53,0.149,2.12,0.004c0.057-0.014,0.178-0.056,0.342-0.11c0.91-0.304,1.939-0.628,2.631-0.628
			c0.416,0,0.709,0.125,0.875,0.372c0.105,0.158,0.197,0.429,0.034,0.82c-0.412,0.988-0.323,1.072,0.759,2.101l0.12,0.113
			c0.082,0.078,0.24,0.095,0.357,0.095c0.385,0,0.875-0.163,1.234-0.282c0.283-0.095,0.47-0.156,0.636-0.156h0.309l0.192,0.297
			c0.24,0.48-0.03,0.905-0.175,1.133c-0.02,0.031-0.045,0.071-0.066,0.106c0.183,0.121,0.335,0.187,0.486,0.254
			c0.278,0.124,0.593,0.265,0.869,0.51c0.808,0.716,0.842,2.016,0.872,3.163c0.012,0.454,0.023,0.884,0.083,1.195
			c0.089,0.458,0.974,1.292,1.372,1.292c0.014,0.007,0.051-0.046,0.072-0.233c0.029-0.257-0.053-0.551-0.14-0.863
			c-0.098-0.352-0.208-0.75-0.181-1.179c0.051-0.807,0.57-1.343,1.028-1.815c0.211-0.218,0.411-0.424,0.55-0.639
			c0.506-0.781,0.792-1.174,1.758-1.55c0.391-0.152,0.454-0.29,0.604-0.624c0.083-0.185,0.188-0.415,0.365-0.668
			c0.435-0.618,0.94-0.974,1.387-0.974c0.286,0,0.531,0.146,0.655,0.392c0.139,0.274,0.178,0.772-0.423,1.594
			c-0.04,0.054-0.174,0.211-0.358,0.424c-0.292,0.338-1.096,1.27-1.385,1.704c0.325,0.455,0.465,1.021,0.591,1.53
			c0.233,0.942,0.356,1.146,0.694,1.146c1.707-0.121,3.583-0.434,5.35-0.883c0.422-0.132,3.693-2.11,4.053-2.417l0.348,0.35
			l0.366-0.347l0.198,0.207l-0.022,0.081c0.205,0.637-0.54,1.498-1.322,2.402c-0.192,0.222-0.455,0.525-0.504,0.616
			c-0.843,1.917-1.503,2.713-3.207,3.86c-0.781,0.525-0.972,1.244-1.194,2.075c-0.189,0.707-0.402,1.509-1.033,2.184
			c-0.237,0.253-0.515,0.443-0.784,0.628c-0.339,0.233-0.66,0.453-0.811,0.751c-0.197,0.389-0.3,0.952-0.398,1.497
			c-0.081,0.444-0.164,0.904-0.304,1.31c-0.064,0.188-0.082,0.741-0.098,1.23c-0.044,1.385-0.089,2.816-1.084,2.816h0
			c-0.165,0-0.334-0.05-0.502-0.149c-0.703-0.416-2.016,0.137-2.977,0.596l-0.329,0.155c-0.647,0.3-1.158,0.777-1.698,1.283
			c-0.476,0.445-0.967,0.905-1.583,1.272c-1.062,0.633-1.149,1.204-1.294,2.151c-0.063,0.413-0.135,0.882-0.302,1.406
			c-0.053,0.165-0.241,0.548-0.845,0.548c-0.39,0-0.869-0.158-1.376-0.325c-0.383-0.127-0.817-0.27-1.035-0.27
			c-0.727,0.152-1.414,0.341-2.101,0.53l-0.53,0.145c-0.502,0.136-1.066-0.001-1.507-0.135c-0.332-0.101-0.643-0.192-0.899-0.137
			c-0.579,0.117-1.304,0.63-2.005,1.126c-0.574,0.406-1.168,0.827-1.732,1.065c-0.34,0.144-0.62,0.229-0.877,0.307
			c-0.497,0.15-0.855,0.259-1.477,0.789c-0.148,0.127-0.365,0.292-0.614,0.482c-0.613,0.469-1.89,1.444-2.018,1.928
			c-0.184,0.69,0.242,1.1,0.965,1.691c0.19,0.155,0.373,0.306,0.526,0.458c0.29,0.286,0.507,0.957,0.356,1.463
			c-0.099,0.331-0.343,0.559-0.67,0.625l-0.145,0.014c-0.484,0-0.922-0.448-1.445-1.036c-0.08-0.09-0.145-0.165-0.189-0.205
			l-0.194-0.184c-0.374-0.354-0.84-0.797-1.262-0.897c-0.124-0.017-0.33,0.142-0.501,0.268c-0.288,0.213-0.647,0.478-1.102,0.478
			l-0.142-0.009c-0.228-0.028-0.412-0.158-0.506-0.357c-0.214-0.456,0.127-1.028,0.748-1.999c0.104-0.164,0.236-0.369,0.319-0.513
			c-0.474-0.55-1.39-0.7-1.788-0.74c-0.283-0.028-0.612-0.042-0.975-0.042c-3.013,0-7.967,0.935-9.431,2.689
			c-0.86,1.031-1.987,1.834-3.077,2.61l-0.244,0.174c-0.006,0.004-0.012,0.009-0.019,0.013c0.007-0.001,0.014,0.001,0.021-0.002
			c0.805,0,1.989,1.634,2.087,1.979c0.162,0.569-0.126,0.926-0.424,1.143c0.362,0.095,0.843,0.176,1.29,0.176
			c0.416,0,0.534-0.075,0.536-0.076c-0.026,0.018-0.073,0.081-0.073,0.16h0.607c-0.01-0.095-0.022-0.201-0.039-0.323
			c-0.013-0.101-0.021-0.175-0.022-0.206c-0.022-0.772,0.992-0.921,2.065-1.079c0.299-0.044,0.708-0.104,0.813-0.151
			c0.489-0.237,0.723-0.73,0.994-1.302c0.176-0.371,0.358-0.755,0.628-1.103c0.254-0.325,1.099-0.959,1.743-0.959
			c0.261,0,0.486,0.102,0.634,0.287c0.183,0.227,0.227,0.534,0.137,0.94c-0.09,0.408-0.358,0.728-0.595,1.009
			c-0.437,0.52-0.418,0.584-0.266,0.776c0.515,0.647,1.846,0.843,2.443,0.323c0.671-0.584,1.374-0.463,1.925-0.223
			c0.249,0.108,0.484,0.211,0.781,0.22l0.179,0.003c0.436,0,0.875-0.042,1.314-0.084c0.463-0.043,0.942-0.088,1.427-0.088
			l0.136,0.001l0,0c0.109,0,0.37-0.185,0.56-0.319c0.34-0.242,0.725-0.517,1.195-0.584c1.026-0.147,1.879-0.434,3.004-0.878
			l0.254-0.051c0.182,0,0.35,0.081,0.461,0.223c0.243,0.308,0.138,0.745-0.036,1.47c-0.083,0.348-0.246,1.027-0.219,1.321
			c0.022-0.006,0.048-0.015,0.079-0.025c0.401-0.146,0.734-0.693,1.029-1.176c0.132-0.216,0.259-0.423,0.388-0.597
			c0.696-0.941,1.742-1.057,2.665-1.159l0.192-0.021c1.824-0.208,3.468-0.457,5.118-1.402l0.114-0.065l0.382-0.002l0.184,0.239
			c0.157,0.208,0.233,0.241,0.253,0.247c0.285-0.191,0.64-0.671,0.954-1.094c0.125-0.168,0.244-0.328,0.356-0.467
			c-0.186-0.058-0.55-0.114-1.253-0.143l-0.78-0.044l0.122-0.568c0.384-1.794,2.083-2.095,3.447-2.336
			c0.768-0.136,1.493-0.265,1.989-0.593c0.556-0.368,0.958-0.608,1.457-0.608c0.355,0,0.694,0.113,1.255,0.302l0.204,0.068
			c0.81,0.271,1.068-0.464,1.367-1.578c0.087-0.325,0.169-0.632,0.28-0.868l0.135-0.289l0.329-0.007c0.269,0,0.4,0.14,0.886,0.658
			c0.244,0.261,0.736,0.786,0.947,0.914c0.785-0.056,2.091-1.034,2.617-1.697c0.524-0.662,1.033-0.671,1.572-0.681
			c0.133-0.002,0.28-0.004,0.447-0.017c0.53-0.041,1.512-1.021,1.777-1.656c0.045-0.107-0.23-0.549-0.334-0.715
			c-0.267-0.428-0.671-1.073-0.153-1.541c0.575-0.519,2.116-1.152,2.78-1.347c0.474-0.141,1.053-0.155,1.659-0.126
			c0.515,0.024,1.061,0.094,1.689-0.239c0.677-0.359,1.229-0.897,1.684-1.646c0.001-0.002,0.002-0.005,0.004-0.007l0,0l0,0
			l0.851,0.518c-0.004-0.017-0.001-0.103-0.052-0.193c-0.061-0.108-0.152-0.147-0.18-0.153c0.002,0,0.003,0,0.005,0
			c0.479,0,1.454-0.363,1.639-0.489c1.352-1.181,2.23-1.44,3.685-1.87l0.768-0.229c0.582-0.18,1.158-0.32,1.704-0.453
			c0.319-0.078,0.627-0.153,0.919-0.232c0.831-0.226,1.523-1.321,2.193-2.382c0.514-0.813,0.999-1.58,1.595-2.071
			c0.792-0.653,1.718-1.166,2.614-1.663c0.744-0.412,1.514-0.839,2.179-1.334c0.455-0.338,0.46-0.59,0.461-0.672
			c0.012-0.64-1.054-1.498-1.759-2.066l-0.129-0.104c-0.114-0.08-0.636-0.205-0.981-0.288c-1.025-0.246-2.085-0.501-2.36-1.209
			c-0.084-0.217-0.126-0.563,0.153-0.974c0.193-0.285,0.43-0.502,0.659-0.711c0.303-0.275,0.565-0.515,0.642-0.85
			c-0.025-0.005-0.193-0.277-0.256-0.38c-0.141-0.229-0.287-0.467-0.107-0.746c0.278-0.424,0.972-0.652,2.083-0.978
			c0.461-0.136,0.984-0.289,1.178-0.408c0.599-0.366,0.947-0.824,1.316-1.309c0.231-0.304,0.47-0.618,0.778-0.924l0.353,0.354
			l0.486-0.006c-0.012-0.157-0.097-0.252-0.129-0.275c0.095,0.069,0.58,0.252,1.111,0.252c0.277,0,0.647-0.052,0.843-0.294
			c0.131-0.162,0.164-0.313,0.214-0.542c0.04-0.182,0.083-0.367,0.166-0.565c0.23-0.551,0.965-0.734,1.613-0.896
			c0.216-0.054,0.484-0.121,0.576-0.172c0.664-0.366,1.079-0.834,1.139-1.281c0.043-0.326-0.108-0.659-0.45-0.989
			c-2.052-1.956-1.937-2.414-1.874-2.661c0.055-0.22,0.224-0.389,0.45-0.45c0.777-0.212,1.345,0.336,1.732,0.771
			c0.408,0.46,0.655,0.693,1.124,0.559c0.47-0.134,2.307-1.574,2.473-2.089c-0.493-1.094,0.188-2.419,1.883-3.647
			c0.18-0.131,0.382-0.197,0.601-0.197c0.405,0,0.752,0.229,1.032,0.411c0.095,0.063,0.182,0.123,0.261,0.158
			c0.098-0.067,0.228-0.486,0.356-1.226c0.027-0.159,0.052-0.292,0.075-0.381c0.389-1.488,1.38-1.824,2.255-2.121
			c0.43-0.146,0.875-0.297,1.279-0.585c0.329-0.234,0.612-0.459,0.874-0.665c1.056-0.836,1.847-1.488,3.763-1.324
			c0.193,0.015,0.406,0.028,0.63,0.042c1.633,0.103,3.323,0.208,3.605,1.195c0.184,0.646-0.346,1.263-0.979,1.78
			c0.495,0.516,0.893,1.263,0.724,1.875c-0.075,0.274-0.368,0.99-1.813,0.695c-0.437-0.088-0.771-0.218-1.065-0.332
			c-0.571-0.222-0.954-0.321-1.63-0.044c-0.411,0.17-0.805,0.379-1.221,0.601c-0.706,0.375-1.437,0.764-2.271,0.951
			c-0.649,0.146-1.118,0.252-1.657,0.6c-0.208,0.133-0.337,0.264-0.356,0.359c-0.031,0.15,0.173,0.45,0.353,0.715
			c0.201,0.296,0.43,0.631,0.549,1.021c0.332,1.086-0.322,1.672-0.801,2.1c-0.213,0.19-0.414,0.37-0.548,0.582
			c-0.23,0.362-0.427,0.737-0.624,1.109c-0.354,0.672-0.72,1.366-1.27,1.99c-0.167,0.188-0.362,0.395-0.57,0.612
			c-1.269,1.334-2.27,2.511-1.673,3.406c0.564,0.847,0.998,0.944,1.276,0.944c0.545,0,1.225-0.413,2.013-0.892l0.484-0.291
			c0.319-0.189,0.741-0.406,1.181-0.406c0.308,0,0.873,0.116,1.195,0.891c0.237,0.566-0.333,0.958-1.763,1.867
			c-0.279,0.178-0.626,0.398-0.701,0.468c-0.936,0.87-1.72,1.148-2.714,1.502c-0.188,0.066-0.386,0.137-0.596,0.216
			c-0.217,0.088-1.835,0.946-2.283,1.216c-0.069,0.255-0.007,0.392,0.05,0.475c0.321,0.469,1.475,0.679,2.476,0.679
			c0.2,0,0.368-0.009,0.483-0.022c0.782-0.09,1.065,0.344,1.244,0.592c0.098,0.138,0.154,0.211,0.25,0.252
			c0.073-0.071,0.064-0.614-0.02-0.788l-0.486-1.002l1.072,0.302c0.335,0.095,0.816,0.305,1.183,0.633
			c0.804-1.221,2.347-3.015,2.504-3.11c0.29-0.176,1.407-0.491,1.995-0.491c0.117,0,0.479,0,0.692,0.269
			c0.452,0.57-0.263,1.263-0.894,1.874c-0.091,0.088-0.165,0.157-0.199,0.198c-0.016,0.021-0.029,0.039-0.041,0.056
			c0.079-0.003,0.17-0.023,0.258-0.059c0.68-0.269,1.406-0.896,1.809-1.561c0.306-0.507,0.771-0.845,1.182-1.144
			c0.364-0.265,0.709-0.515,0.854-0.821c0.133-0.274,0.818-1.623,1.455-1.623h0.213l0.201,0.178
			c0.184,0.192,0.195,0.456,0.186,0.663c-0.006,0.13-0.011,0.248-0.014,0.355c0.241-0.536,0.504-1.194,0.682-1.64
			c0.678-1.701,0.84-2.106,1.312-2.106l0.168,0.027c0.534,0.178,0.676,0.707,0.737,1.114l0.068-0.107l0.233-0.107l0.157-0.01
			c0.395,0,0.695,0.352,1.014,0.724c0.076,0.089,0.142,0.17,0.189,0.212c0.385,0.241,1.662,0.521,2.241,0.463
			c0.21-0.024,0.399-0.509,0.565-1.442c0.074-0.414,0.15-0.843,0.611-0.843c1.057,0.028,1.293,1.051,1.448,1.727
			c0.066,0.289,0.157,0.684,0.268,0.775c0.244,0.203,0.602-0.01,0.82-0.363c0.14-0.225,0.181-0.466,0.107-0.613l-0.061-0.119
			c-0.731-1.448-1.363-2.699,0.245-4.312c0.889-0.889,0.756-1.146,0.315-1.999c-0.123-0.239-0.258-0.501-0.382-0.802
			c-0.072-0.175-0.121-0.401-0.167-0.635c-0.034-0.174-0.098-0.499-0.165-0.571c0.017,0.019-2.947-0.189-3.22-1.242
			c-0.071-0.275-0.022-0.677,0.614-1.03c0.773-0.428,5.506-4.078,5.889-4.542l0.361,0.298l0.469-0.313c0,0.001,0,0.001,0,0.001
			l0.122,0.183l-0.007,0.03c0.412,0.994-0.62,2.297-1.62,3.56c-0.346,0.437-0.853,1.076-1.114,1.536
			c0.868-0.312,2.422-1.085,2.693-1.297c1.004-0.782,2.378-0.898,3.107-0.898c0.199,0,0.395,0.008,0.582,0.023
			c0.002,0,0.004,0,0.006,0c0.293,0,0.547-0.131,0.793-0.257c0.254-0.131,0.494-0.254,0.761-0.254c0.798,0,0.874,0.962,0.898,1.278
			c0.009,0.109,0.011,0.241,0.013,0.383c0.004,0.321,0.012,0.919,0.205,1.015c0.092,0.027,0.664,0.102,1.043,0.151
			c1.455,0.189,1.801,0.235,1.801,0.75c0,0.512-0.549,0.703-1.753,1.123c-0.126,0.044-0.245,0.084-0.346,0.12
			c0.222,0.056,0.524,0.112,0.907,0.172c0.185,0.028,0.324,0.054,0.383,0.071c1.084,0.323,2.186,0.768,2.135,1.606
			c-0.037,0.623-0.616,1.353-4.563,2.068c0.008,0.042,0.017,0.085,0.026,0.13c0.064,0.313,0.153,0.744-0.096,1.241
			c-0.054,0.107-0.133,0.209-0.219,0.313c0.605-0.187,1.415-0.603,1.575-0.722l0.428-0.357c1.067-0.897,1.766-1.508,3.505-1.25
			c1.665,0.248,2.058,0.888,2.555,1.697c0.134,0.217,0.281,0.459,0.477,0.724c0.329,0.445,0.511,0.468,0.544,0.468
			c0.329,0,0.839-1.071,1.112-1.646c0.316-0.666,0.59-1.241,0.954-1.529c0.73-0.575,1.284-0.507,1.527-0.043
			c0.353,0.67-0.319,2.04-0.532,2.348c-0.244,0.356-0.355,0.894-0.272,1.305c0.054,0.261,0.179,0.456,0.372,0.58
			c0.404,0.258,0.906,0.334,1.438,0.415c0.719,0.109,1.532,0.232,2.161,0.862c0.366,0.365,0.451,0.86,0.52,1.259
			c0.064,0.376,0.111,0.611,0.266,0.698c0.611,0.343,1.881-0.059,2.777-0.396l0.275-0.103c1.293-0.473,2.692-0.909,4.172-0.909
			c0.389,0,0.777,0.03,1.154,0.09c3.129,0.5,6.445,1.699,9.098,3.29c0.934,0.561,1.507,1.298,2.012,1.948
			c0.682,0.878,1.107,1.374,1.949,1.374c0.391,0,0.85-0.104,1.404-0.318c0.716-0.278,1.463-0.731,2.253-1.211
			c1.468-0.892,2.985-1.813,4.627-1.813c0.377,0,0.749,0.051,1.106,0.15c1.431,0.399,2.114,0.87,2.216,1.525
			c0.14,0.896-0.888,1.568-1.975,2.281c-0.547,0.358-1.565,1.025-1.565,1.327c0,2.048,3.487,3.262,5.57,3.987
			c0.302,0.104,0.576,0.2,0.811,0.287c2.127,0.794,3.993,1.997,5.873,3.786c0.718,0.685,1.134,1.456,1.5,2.137
			c0.531,0.985,0.99,1.836,2.244,2.302l0.543,0.193c1.559,0.548,3.01,1.103,3.621,1.861c0.326,0.405,0.957,0.898,1.828,0.759
			c1-0.159,2.678-0.587,2.678-1.658c0-0.354-0.499-0.786-0.939-1.166c-0.365-0.314-0.709-0.612-0.916-0.958
			c-0.131-0.198-1.004-0.813-1.641-1.261c-2.24-1.576-3.195-2.348-2.937-3.12c0.062-0.186,0.236-0.41,0.716-0.41
			c0.698,0,3.271,0.602,3.664,1.411c0.248,0.51,0.563,0.848,0.681,0.864c0.032-0.072,0.001-0.383-0.017-0.55
			c-0.035-0.358-0.076-0.764,0.114-1.107c0.229-0.41,0.544-0.472,0.71-0.472c0.592,0,1.183,0.609,2.147,3.581l0.034,0.104
			c0.178,0.49,0.213,0.996,0.244,1.441c0.074,1.059,0.15,1.273,1.033,1.212c0.211-0.013,0.396-0.019,0.56-0.019
			c1.191,0,1.476,0.358,1.804,0.948c0.158,0.287,0.339,0.612,0.821,1.028c0.214,0.185,0.313,0.193,0.314,0.193
			c0.304-0.225,0.347-2.26,0.158-2.946c-0.102-0.369-0.195-0.738-0.289-1.106c-0.296-1.164-0.576-2.263-1.07-3.316
			c-1.593-3.399-1.356-3.771-1.242-3.95l0.147-0.231l0.311-0.021c0.901,0,2.031,1.678,4.32,6.411
			c0.133,0.273,0.236,0.491,0.306,0.626l0.192,0.387c0.564,1.146,1.74,3.529,2.9,3.568l0,0c0.5,0,1.001-0.597,1.443-1.124
			c0.477-0.568,0.888-1.059,1.446-1.059l0.14,0.012c0.167,0.026,0.311,0.122,0.403,0.268c0.238,0.376,0.11,1.021-0.392,2.767
			c-0.096,0.327-0.174,0.59-0.189,0.696c0.078,0.315,1.363,1.579,1.871,1.943c0.181,0.128,0.488,0.32,0.863,0.557
			c2.818,1.771,4.349,2.929,4.363,3.967l0.004,0.209l-0.158,0.175c-0.251,0.255-0.598,0.203-1.543-0.039
			c-0.082-0.021-0.18-0.046-0.275-0.07c0.005,0.031,0.01,0.062,0.016,0.092c0.104,0.607,0.172,1.008,0.705,1.649
			c0.055,0.065,0.17,0.171,0.31,0.304c0.869,0.823,1.572,1.559,1.374,2.231c-0.066,0.229-0.26,0.522-0.795,0.624
			c-0.094,0.018-0.23,0.027-0.389,0.036c-0.112,0.006-0.307,0.017-0.453,0.04c0.117,0.247,0.363,0.607,0.496,0.696
			c0.073,0.01,0.199,0.029,0.303,0.029c0.164,0,0.246-0.044,0.369-0.111c0.128-0.069,0.303-0.165,0.538-0.165
			c0.417,0,0.8,0.271,1.519,1.076c0.223,0.249,0.439,0.517,0.66,0.787c0.814,1.003,1.584,1.95,2.745,2.159
			c0.468,0.085,0.789,0.287,0.954,0.602c0.275,0.525,0.009,1.11-0.227,1.626c-0.076,0.17-0.154,0.334-0.197,0.482l-0.006,0.146
			c0.08,0.077,0.498,0.133,0.725,0.162c0.467,0.062,0.951,0.126,1.289,0.423c0.082,0.072,0.242,0.176,0.431,0.301
			c0.933,0.619,1.595,1.104,1.604,1.707c0.004,0.261-0.119,0.494-0.348,0.657c-0.922,0.657-1.778,0.978-2.686,1.317l-0.492,0.187
			c-0.246,0.305-0.914,1.539-0.975,1.815c0.093,0.104,0.789,0.226,1.123,0.284c0.553,0.097,1.03,0.181,1.332,0.444
			c0.18,0.156,0.359,0.419,0.586,0.751c0.161,0.236,0.463,0.68,0.672,0.88c0.284-0.681,0.273-1.534,0.264-2.361
			c-0.006-0.445-0.011-0.906,0.027-1.328c0.051-0.549,0.363-1.47,1.895-1.47c0.486,0,0.996,0.089,1.404,0.159l0.318,0.054
			c0.363,0.057,1.213,0.188,1.227,0.821c0.015,0.647-0.882,0.827-1.22,0.895c-1.576,0.316-1.896,2.515-2.177,4.455
			c-0.09,0.619-0.174,1.203-0.299,1.683c-0.051,0.194,0.107,0.782,0.428,1.196c0.18,0.232,0.337,0.315,0.424,0.315
			c0.5-0.104,0.757-1.687,0.605-3.532c-0.044-0.544-0.026-1.267,0.308-1.63c0.138-0.149,0.322-0.232,0.518-0.232
			c0.433,0,0.794,0.354,1.212,1.183c0.304,0.603,0.297,1.147,0.291,1.628c-0.006,0.471-0.012,0.877,0.256,1.347
			c0.701,1.241-0.342,3.179-1.026,4.224c-0.132,0.199-0.127,0.3-0.121,0.311c0.02,0.036,0.169,0.135,0.479,0.135
			c0.223,0,0.453-0.054,0.632-0.146l0.431-0.231C283.633,248.261,284.063,248.026,284.567,248.026z M279.348,236.953
			c-0.848,0-0.878,0.338-0.898,0.561c-0.035,0.381-0.029,0.798-0.023,1.225c0.004,0.285,0.007,0.572,0,0.858
			c0.344-1.12,0.905-2.111,1.932-2.537C280.027,237.004,279.673,236.953,279.348,236.953z M263.457,227.243
			c0.025,0.008-0.059,0.134-0.205,0.629c-0.071,0.243-0.072,0.247,0.778,0.779l0.144,0.09c1.131,0.714,1.875,2.007,2.043,3.548
			c0.146,1.306,0.495,2.068,1.037,2.266c0.029,0.011,0.063,0.016,0.1,0.016c0.498,0,1.27-0.829,1.27-1.248
			c0-0.798,0.424-1.378,1.008-1.378c0.23,0,0.576,0.096,0.914,0.551c0.229,0.31,0.975,0.561,1.666,0.561
			c0.293,0,0.484-0.048,0.559-0.09c0.113-0.064,0.215-0.257,0.189-0.5l-0.035-0.143c-0.072-0.23-0.258-0.421-0.535-0.551
			c-0.706-0.329-1.438-1.156-2.146-1.957c-0.524-0.593-1.065-1.205-1.447-1.425c-0.542-0.313-1.646-0.457-2.62-0.584
			c-0.611-0.079-1.19-0.154-1.664-0.269c-0.252-0.063-0.463-0.129-0.643-0.185C263.703,227.301,263.531,227.246,263.457,227.243z
			 M272.893,230.243l0.378,0.728c0.093-0.214,0.201-0.486,0.173-0.579l0,0c-0.004,0-0.062-0.046-0.244-0.079
			C273.094,230.294,272.992,230.271,272.893,230.243z M46.256,226.666c-0.471,0-0.776,0.054-0.991,0.172
			c-0.668,0.37-1.164,1.091-1.263,1.836c-0.074,0.556,0.081,1.051,0.436,1.394c0.204,0.197,0.298,0.212,0.299,0.213
			c0.107-0.095,0.274-0.773,0.346-1.063c0.151-0.614,0.293-1.193,0.839-1.193l0.17,0.024c0.551,0.162,0.689,0.745,0.79,1.17
			c0.042,0.175,0.118,0.499,0.193,0.553c0.167,0.096,0.829,0.275,1.406,0.275c0.343,0,0.491-0.065,0.52-0.09
			c0.014-0.099,0.01-0.708,0.007-1.153c-0.007-1.218-0.012-2.027,0.274-2.396c-0.561,0.259-1.166,0.298-1.658,0.298
			c-0.242,0-0.486-0.01-0.726-0.021C46.68,226.676,46.464,226.666,46.256,226.666z M50.027,227.465
			c-0.024,0.408-0.021,0.973-0.019,1.333c0,0.068,0.001,0.134,0.001,0.196c0.132-0.179,0.349-0.283,0.502-0.356
			c0.097-0.047,0.277-0.133,0.313-0.187C50.743,228.271,50.349,227.788,50.027,227.465z M163.14,177.083
			c0.543,0.231,1.786,0.452,2.123,0.462c0.101,0,0.192,0.013,0.274,0.036c-0.084-0.752,0.646-1.675,1.49-2.739
			c0.34-0.429,0.8-1.01,1.121-1.524C166.455,174.715,163.58,176.773,163.14,177.083z M86.425,121.351
			c0.096,0.1,0.309,0.26,0.715,0.422c0.134,0.054,0.255,0.111,0.363,0.173c-0.003-0.013-0.005-0.026-0.008-0.039
			c-0.136-0.665-0.198-0.665-0.404-0.665C86.738,121.259,86.533,121.309,86.425,121.351z M96.06,112.861l-0.071,0.438
			c0.184,0,0.356-0.116,0.429-0.288L96.06,112.861z M75.78,94.548c0.031,0.164,0.055,0.346,0.081,0.542
			c0.055,0.415,0.182,1.387,0.441,1.387c0.15-0.01,0.3-0.012,0.457-0.013c0.894-0.008,1.151-0.091,1.198-0.388
			c0.043-0.274,0.023-0.475-0.055-0.566c-0.161-0.188-0.745-0.188-0.937-0.188C76.357,95.321,76.014,94.951,75.78,94.548z
			 M106.607,86.699c0.738,0.21,1.206,0.831,1.596,1.349c0.478,0.634,0.797,1.022,1.333,1.022c0.776-0.054,1.236-0.393,1.283-0.692
			c0.04-0.254-0.26-0.541-0.78-0.75c-0.677-0.271-1.1-0.63-1.44-0.918c-0.648-0.55-0.862-0.575-1.712-0.141
			C106.791,86.618,106.698,86.661,106.607,86.699z M102.976,79.417c0.151,0.143,0.278,0.321,0.376,0.53
			c0.468,1.003,0.296,2.11,0.13,3.181c-0.106,0.686-0.207,1.334-0.134,1.908c0.102,0.807,0.71,1.209,1.358,1.406
			c-0.298-0.285-0.535-0.676-0.779-1.079l-0.203-0.332c-0.305-0.488-0.534-1.313,0.109-2.474c0.491-0.886,1.504-1.881,2.21-2.375
			c-0.389-0.637-0.923-0.649-1.79-0.669l-0.419-0.012C103.535,79.489,103.25,79.46,102.976,79.417z M101.921,80.005
			c-0.27,0-0.586,0.155-0.808,0.396c-0.112,0.122-0.297,0.374-0.271,0.689c0.06,0.712,0.533,1.261,1.034,1.842
			c0.177,0.206,0.36,0.419,0.528,0.645c0.027-0.201,0.058-0.402,0.089-0.602c0.15-0.965,0.292-1.877-0.048-2.604
			C102.33,80.124,102.159,80.005,101.921,80.005z M127.542,40.668c-0.166,0.63-0.222,1.214,0.087,1.46
			C127.658,41.922,127.663,41.504,127.542,40.668z"/>
	</g>
	<g>
		<path d="M87.595,54.433h-0.278l-0.181-0.253c-0.177-0.285-0.023-0.594,0.042-0.726c0-0.001,0.001-0.001,0.001-0.002l0.328,0.163
			l-0.044-0.159l0.118,0.196l0.015-0.22v0.228l0.191,0.095l-0.001,0.001l0.284,0.142c0-0.001,0-0.002-0.001-0.003l0.006,0.003
			c0.056-0.112,0.041-0.202,0.04-0.203l0.146,0.438l-0.5,0.284L87.595,54.433z"/>
	</g>
	<g>
		<path d="M32.158,232.866c-0.385,0-0.775-0.116-1.193-0.354c-1.133-0.648-1.822-1.69-1.716-2.593
			c0.065-0.554,0.42-0.965,0.973-1.126c0.766-0.224,1.559-0.942,2.258-1.575c0.173-0.157,0.342-0.31,0.503-0.449l0.259-0.228
			c0.67-0.592,1.041-0.932,1.92-0.857c0.478,0.036,0.969,0.04,1.452,0.04l0.532-0.001c1.5,0,2.707,0.058,3.433,0.784
			c0.391,0.391,0.72,0.58,0.985,0.732c0.338,0.194,0.687,0.396,0.794,0.874c0.092,0.414,0.185,3.197-0.954,3.931
			c-0.188,0.12-0.416,0.178-0.699,0.178l0,0c-0.464,0-1.041-0.158-1.709-0.342c-1.09-0.301-2.447-0.624-3.417-0.396
			c-0.767,0.183-1.312,0.503-1.793,0.785C33.263,232.576,32.769,232.866,32.158,232.866z M34.946,226.674
			c-0.331,0-0.477,0.118-1.043,0.617l-0.266,0.233c-0.157,0.136-0.319,0.282-0.487,0.435c-0.779,0.705-1.663,1.506-2.648,1.793
			c-0.165,0.049-0.242,0.134-0.26,0.284c-0.048,0.413,0.362,1.117,1.219,1.607c0.694,0.396,1.089,0.19,1.819-0.237
			c0.515-0.302,1.156-0.678,2.068-0.895c0.317-0.075,0.662-0.113,1.027-0.113c1.006,0,2.004,0.274,2.885,0.518
			c0.573,0.157,1.114,0.306,1.444,0.306c0.12,0,0.159-0.021,0.16-0.021c0.473-0.304,0.638-2.329,0.517-2.87
			c-0.01-0.044-0.109-0.105-0.317-0.225c-0.299-0.173-0.708-0.408-1.193-0.893c-0.455-0.454-1.503-0.491-2.726-0.491l-0.532,0.001
			c-0.507,0-1.024-0.005-1.529-0.043C35.035,226.676,34.99,226.674,34.946,226.674z"/>
	</g>
	<g>
		<path d="M11.032,238.812c-0.543,0-0.868-0.483-1.182-0.951c-0.188-0.279-0.445-0.662-0.63-0.704
			c-0.31,0.023-0.968,0.109-1.618,0.228c-0.925,0.168-1.973,0.359-2.752,0.359c-0.305,0-1.231,0-1.439-0.709
			c-0.081-0.275-0.277-0.436-0.45-0.576c-0.176-0.145-0.442-0.361-0.376-0.722c0.072-0.394,0.479-0.531,0.749-0.621
			c0.464-0.153,1.388-0.168,2.855-0.175c0.968-0.004,2.531-0.011,3.045-0.155c-0.01-0.053-0.028-0.104-0.05-0.165
			c-0.273-0.768,0.238-1.066,0.774-1.257c0.723-0.256,1.382-0.02,1.889,0.216c0.174,0.08,0.342,0.158,0.519,0.214
			c-0.024-0.031-0.051-0.063-0.079-0.099c-0.282-0.353-0.565-0.538-0.815-0.702c-0.594-0.39-1.021-0.778-0.692-1.907
			c0.245-0.84,0.961-1.303,2.015-1.303c0.495,0,0.9,0.105,0.917,0.11c0.112,0.006,0.306,0.021,0.5,0.038
			c1.122,0.093,2.181,0.18,2.354,0.958c0.046,0.206,0.021,0.393-0.028,0.553c0.035-0.013,0.069-0.026,0.104-0.039
			c0.228-0.088,0.485-0.187,0.76-0.187c0.266,0,0.64,0.094,0.916,0.543c0.089,0.146,0.197,0.284,0.298,0.414
			c0.28,0.362,0.598,0.773,0.42,1.231c-0.167,0.431-0.654,0.566-1.059,0.637c-0.447,0.079-0.863,0.112-1.219,0.142
			c-0.048,0.004-0.099,0.008-0.15,0.012c0.255,0.129,0.513,0.344,0.585,0.74c0.019,0.101,0.065,0.216,0.11,0.328
			c0.107,0.269,0.255,0.636,0.021,0.981c-0.246,0.363-0.741,0.413-1.24,0.413c-0.655,0-1.016,0.244-1.397,0.503
			c-0.311,0.21-0.632,0.428-1.065,0.46c-0.558,0.042-1.03,0.024-1.357,0.01c-0.02-0.001-0.039-0.002-0.058-0.003
			c-0.021,0.047-0.043,0.097-0.061,0.138C11.976,238.156,11.692,238.812,11.032,238.812z M9.16,236.154
			c0.11,0,0.204,0.009,0.285,0.027c0.569,0.131,0.923,0.657,1.235,1.121c0.102,0.151,0.246,0.365,0.347,0.468
			c0.07-0.102,0.155-0.298,0.201-0.403c0.144-0.332,0.323-0.746,0.77-0.746c0.082,0,0.186,0.004,0.31,0.01
			c0.299,0.013,0.724,0.031,1.238-0.008c0.17-0.013,0.351-0.136,0.581-0.291c0.42-0.285,0.997-0.675,1.958-0.675
			c0.127,0,0.223-0.005,0.294-0.012c-0.001-0.004-0.002-0.007-0.004-0.011c-0.058-0.144-0.129-0.321-0.166-0.521
			c-0.031-0.033-0.197-0.085-0.296-0.116c-0.275-0.087-0.846-0.268-0.846-0.88c0-0.803,0.856-0.871,1.611-0.932
			c0.329-0.026,0.713-0.057,1.126-0.129c0.08-0.015,0.143-0.028,0.193-0.041c-0.054-0.077-0.121-0.164-0.174-0.231
			c-0.121-0.157-0.25-0.325-0.358-0.502c-0.155-0.067-0.319-0.002-0.464,0.054c-0.293,0.112-0.653,0.245-1.011,0.177
			c-0.113-0.021-0.454-0.082-0.605-0.398c-0.148-0.311,0.003-0.588,0.104-0.771c0.036-0.064,0.109-0.199,0.101-0.237
			c-0.126-0.068-0.961-0.138-1.461-0.179c-0.201-0.017-0.402-0.033-0.597-0.054c-0.078-0.014-0.378-0.091-0.738-0.091
			c-0.885,0-1.013,0.438-1.055,0.583c-0.148,0.509-0.141,0.514,0.281,0.791c0.281,0.185,0.666,0.437,1.047,0.913
			c0.549,0.685,0.85,1.093,0.652,1.506c-0.063,0.131-0.228,0.35-0.633,0.35c-0.151,0-0.378-0.035-0.671-0.09
			c-0.39-0.071-0.708-0.219-0.989-0.349c-0.428-0.198-0.729-0.322-1.135-0.181c-0.057,0.021-0.103,0.038-0.139,0.054
			c0.067,0.211,0.12,0.448,0.071,0.746c-0.131,0.785-1.33,0.823-4.029,0.835c-0.825,0.004-1.737,0.008-2.246,0.067
			c0.16,0.176,0.317,0.406,0.414,0.714c0.016-0.024,0.15,0.021,0.489,0.021c0.689,0,1.69-0.183,2.573-0.343
			C8.149,236.268,8.776,236.154,9.16,236.154z"/>
	</g>
	<g>
		<path d="M-7.382,238.208c-0.385,0-0.734-0.084-1.039-0.25c-0.623-0.339-0.587-0.775-0.544-0.948
			c0.118-0.464,0.648-0.672,1.121-0.672c0.209,0,0.891-0.311,1.298-0.495c0.371-0.169,0.692-0.315,0.938-0.39
			c0.227-0.068,0.404-0.369,0.61-0.718c0.1-0.168,0.202-0.341,0.317-0.505c0.486-0.686,1.292-0.767,1.826-0.82l0.305-0.025
			c0.342,0,0.627,0.136,0.879,0.256c0.051,0.024,0.102,0.049,0.151,0.07c-0.042-0.139-0.078-0.287-0.078-0.443
			c0-0.436,0.288-0.653,0.499-0.813c0.193-0.146,0.435-0.329,0.715-0.764c0.288-0.444,0.687-0.67,1.186-0.67
			c0.359,0,0.716,0.118,1.062,0.231c0.292,0.097,0.594,0.196,0.864,0.211c1.297,0.073,2.001,1.406,2.212,2.182
			c0.059,0.218,0.027,0.438-0.091,0.639c-0.341,0.578-1.399,0.877-2.454,1.134l-0.142,0.034c-0.261,0.065-0.665,0.148-1.103,0.238
			c-0.688,0.141-1.469,0.3-1.862,0.432c-0.186,0.062-0.382,0.23-0.589,0.409c-0.353,0.303-0.753,0.647-1.315,0.647l0,0
			c-0.065,0-0.132-0.005-0.201-0.016c-0.56-0.09-1.153,0.1-1.809,0.296l-0.3,0.088c-0.166,0.047-0.355,0.12-0.56,0.197
			C-6.031,237.951-6.708,238.208-7.382,238.208z M-2.551,234.385l-0.204,0.021c-0.52,0.052-0.904,0.111-1.11,0.402
			c-0.099,0.141-0.187,0.29-0.272,0.437c-0.273,0.462-0.582,0.986-1.183,1.166c-0.197,0.061-0.494,0.197-0.812,0.343
			c-0.414,0.188-0.761,0.342-1.054,0.444c0.44-0.044,0.917-0.226,1.345-0.388c0.234-0.089,0.451-0.17,0.639-0.224l0.292-0.086
			c0.73-0.217,1.503-0.438,2.246-0.325c0.002,0,0.004,0,0.007,0c0.237,0,0.464-0.195,0.705-0.402
			c0.259-0.223,0.552-0.475,0.924-0.599c0.451-0.151,1.263-0.317,1.98-0.464c0.42-0.085,0.808-0.164,1.06-0.228l0.148-0.036
			c1.206-0.294,1.646-0.498,1.79-0.628c-0.158-0.498-0.589-1.317-1.276-1.356c-0.401-0.021-0.784-0.147-1.122-0.259
			c-0.283-0.094-0.551-0.182-0.749-0.182c-0.109,0-0.219,0.017-0.346,0.213c-0.376,0.582-0.723,0.845-0.952,1.018
			c-0.031,0.023-0.066,0.051-0.094,0.072c0.014,0.063,0.043,0.152,0.065,0.218c0.086,0.262,0.204,0.619-0.002,0.932
			c-0.086,0.131-0.257,0.292-0.584,0.32l-0.112,0.005c-0.341,0-0.626-0.136-0.878-0.256C-2.273,234.462-2.436,234.385-2.551,234.385
			z"/>
	</g>
	<g>
		<path d="M24.036,233.461c-0.569,0-0.902-0.33-1.094-0.546c-0.019,0.012-0.04,0.024-0.062,0.037
			c-0.332,0.19-0.833,0.478-1.486,0.478l-0.131-0.004c-0.343-0.02-0.667-0.058-0.853-0.313c-0.088-0.121-0.111-0.246-0.11-0.348
			c-0.74-0.433-1.047-1.248-0.979-1.871c0.108-0.944,1.564-1.209,2.216-1.106c0.534,0.077,1.089,0.525,1.676,1.001
			c0.118,0.095,0.236,0.19,0.355,0.283c0.073-0.123,0.157-0.325,0.208-0.448c0.122-0.293,0.227-0.546,0.411-0.712
			c0.318-0.289,0.592-0.424,0.863-0.424c0.752,0,0.858,0.856,0.928,1.424c0.024,0.197,0.052,0.422,0.092,0.53
			c0.242,0.659,0.334,1,0.139,1.279l-0.149,0.214l-0.298,0.019c-0.131,0-0.242-0.044-0.335-0.1c-0.016,0.015-0.035,0.03-0.052,0.044
			c-0.202,0.164-0.508,0.411-0.964,0.518C24.284,233.445,24.157,233.461,24.036,233.461z M23.586,232.134
			c0.022,0.023,0.043,0.048,0.063,0.071c0.206,0.235,0.298,0.291,0.533,0.237c0.233-0.055,0.4-0.19,0.562-0.321
			c0.122-0.098,0.253-0.205,0.412-0.268c-0.008-0.021-0.016-0.043-0.024-0.066c-0.08-0.216-0.112-0.477-0.146-0.753
			c-0.015-0.124-0.037-0.299-0.064-0.437c-0.019,0.016-0.04,0.034-0.062,0.055c-0.027,0.037-0.107,0.229-0.16,0.356
			C24.5,231.488,24.229,232.143,23.586,232.134z M21.303,232.427c0.009,0.001,0.019,0.003,0.026,0.001
			c0.456,0,0.787-0.19,1.053-0.343c0.195-0.112,0.367-0.211,0.557-0.235c-0.119-0.093-0.237-0.188-0.354-0.283
			c-0.414-0.335-0.929-0.751-1.195-0.789c-0.403-0.067-1.005,0.147-1.089,0.271c-0.02,0.262,0.165,0.688,0.532,0.869
			C20.997,231.997,21.229,232.155,21.303,232.427z"/>
	</g>
	<g>
		<path d="M118.18,224.794l-0.143-0.011c-0.749-0.114-1.613-0.698-1.699-1.444c-0.028-0.242-0.002-0.841,0.834-1.175
			c0.414-0.165,0.848-0.524,1.18-0.876c-0.076,0.04-0.149,0.079-0.217,0.115c-0.99,0.53-1.676,0.878-2.18,0.878
			c-0.474,0-0.659-0.301-0.717-0.431l-0.056-0.124c-0.723-1.615-1.386-3.387-0.817-4.28c0.045-0.07,0.05-0.102,0.05-0.103
			c-0.018-0.017-0.149-0.126-0.237-0.198c-0.266-0.221-0.667-0.554-0.719-1.125c-0.093-0.985,0.966-1.853,2.307-2.949l0.516-0.425
			c0.906-0.756,2.035-1.244,2.876-1.244c0.746,0,1.246,0.384,1.339,1.027c0.04,0.28,0.033,0.585,0.008,0.895
			c0.048-0.453,0.172-0.826,0.277-1.139c0.127-0.381,0.219-0.657,0.165-0.96c-0.035-0.193-0.107-0.388-0.172-0.569
			c-0.15-0.42-0.321-0.896-0.045-1.289c0.273-0.388,0.792-0.388,0.963-0.388h2.167c0.002-0.074,0.017-0.152,0.05-0.232
			c0.17-0.417,0.679-0.57,1.391-0.672c2.306-0.328,4.575,1.244,4.575,2.157c0,0.115-0.02,0.241-0.042,0.365
			c-0.003,0.018-0.007,0.039-0.011,0.06c0.104,0.002,0.27-0.005,0.463-0.034c0.219-0.031,0.415-0.046,0.589-0.046
			c0.785,0,1.72,0.308,1.72,1.772c0,0.611-0.448,0.938-0.744,1.153c-0.066,0.048-0.159,0.115-0.208,0.162
			c0.016,0.016,0.04,0.052,0.081,0.102c0.11,0.132,0.223,0.258,0.332,0.381c0.632,0.709,1.498,1.681,0.394,2.787
			c-0.574,0.574-1.27,0.876-1.884,1.143c-0.444,0.192-0.863,0.374-1.176,0.63c-0.492,0.401-1.23,0.515-1.881,0.615
			c-0.152,0.023-0.35,0.054-0.506,0.087c0.193,0.425,0.432,1.142,0.134,1.646c-0.097,0.164-0.334,0.44-0.834,0.44c0,0,0,0,0,0
			c-0.11,0-0.23-0.015-0.356-0.042c-0.003,0-0.006,0-0.009,0c-0.418,0-0.997,0.396-1.419,0.686
			c-0.456,0.312-0.786,0.537-1.111,0.537c-0.314,0-0.652-0.228-0.652-0.728c0-0.665-0.101-0.665-0.285-0.665
			c-0.079,0-0.167,0.009-0.267,0.025c-0.262,0.067-0.99,0.899-1.471,1.449C119.621,224.024,118.896,224.794,118.18,224.794z
			 M119.266,219.854l0.216,0.034c0.258,0.085,0.425,0.314,0.434,0.598c0.022,0.735-1.287,2.173-2.373,2.607
			c-0.15,0.06-0.206,0.118-0.213,0.134c-0.003,0.121,0.361,0.489,0.854,0.566c0.338-0.031,1.285-1.113,1.795-1.695
			c0.912-1.041,1.5-1.685,2.06-1.776c1.329-0.219,1.61,0.554,1.69,1.144c0.076-0.051,0.154-0.104,0.225-0.153
			c0.644-0.438,1.496-0.982,2.203-0.837c0.072,0.016,0.12,0.02,0.147,0.02c0.002-0.033-0.063-0.425-0.311-0.874
			c-0.172-0.31-0.097-0.561-0.037-0.683c0.206-0.421,0.734-0.502,1.402-0.604c0.5-0.077,1.121-0.173,1.401-0.401
			c0.419-0.344,0.923-0.563,1.411-0.773c0.584-0.253,1.136-0.492,1.575-0.932c0.384-0.385,0.332-0.557-0.433-1.415
			c-0.117-0.131-0.237-0.266-0.354-0.405c-0.251-0.302-0.357-0.589-0.321-0.876c0.052-0.418,0.372-0.65,0.628-0.838
			c0.201-0.146,0.333-0.248,0.333-0.344c0-0.755-0.285-0.865-1.166-0.736c-0.22,0.032-0.401,0.046-0.551,0.046
			c-0.001,0-0.002,0-0.002,0c-0.154,0-0.609-0.002-0.882-0.327c-0.254-0.304-0.189-0.668-0.146-0.91
			c0.011-0.064,0.026-0.129,0.026-0.189c-0.111-0.182-1.613-1.423-3.434-1.167c-0.194,0.027-0.336,0.057-0.438,0.082
			c0.063,0.139,0.092,0.305,0.001,0.487c-0.17,0.345-0.575,0.345-0.77,0.345h-2.542c-0.035,0-0.064,0.001-0.089,0.003
			c0.027,0.102,0.076,0.236,0.112,0.337c0.083,0.23,0.17,0.48,0.215,0.729c0.1,0.555-0.053,1.012-0.201,1.454
			c-0.121,0.361-0.246,0.735-0.246,1.206l0.005,0.233c0.018,0.565,0.053,1.742-1.137,1.853c-0.417,0.015-0.603-0.142-0.711-0.263
			c-0.344-0.385-0.271-1.02-0.188-1.755c0.049-0.434,0.101-0.882,0.054-1.205c-0.009-0.063-0.024-0.17-0.349-0.17
			c-0.603,0-1.522,0.416-2.236,1.012l-0.523,0.431c-0.885,0.725-1.987,1.627-1.944,2.084c0.014,0.151,0.146,0.269,0.362,0.447
			c0.301,0.25,0.927,0.77,0.392,1.607c-0.106,0.167-0.233,0.82,0.863,3.281c0.369-0.087,1.121-0.49,1.592-0.742
			C118.482,220.083,118.925,219.854,119.266,219.854z M120.493,213.457c-0.014,0.145-0.03,0.29-0.047,0.434
			c-0.031,0.273-0.075,0.657-0.062,0.874c0.081-0.059,0.123-0.232,0.105-0.792l-0.005-0.264
			C120.484,213.622,120.487,213.538,120.493,213.457z"/>
	</g>
	<g>
		<path d="M128.72,209.205c-0.985,0-1.852-0.388-2.262-1.011c-0.281-0.427-0.321-0.928-0.113-1.41
			c0.218-0.505,0.36-0.906,0.472-1.224c0.302-0.853,0.502-1.415,1.536-1.495c0.497-0.04,1.027,0.136,1.45,0.274
			c0.046,0.015,0.097,0.031,0.148,0.048c-0.208-1.182,0.37-2.025,1.779-2.694c0.449-0.212,0.751-0.394,0.964-0.521
			c0.284-0.171,0.471-0.283,0.708-0.283c0.439,0,0.634,0.393,0.728,0.581c0.317,0.63-0.235,1.105-0.6,1.421
			c-0.351,0.304-0.597,0.536-0.562,0.769c0.056,0.364,0.056,0.364,0.322,0.438c0.167,0.047,0.397,0.11,0.663,0.251
			c0.188,0.099,0.544,0.194,0.889,0.287c0.792,0.212,1.475,0.396,1.712,0.894c0.101,0.211,0.102,0.451,0.002,0.675
			c-0.301,0.683-1.664,2.301-2.685,2.301l0,0c-0.14,0-0.272-0.027-0.393-0.081c-0.579-0.259-1.23-0.438-1.47-0.479
			c-0.031,0.021-0.065,0.046-0.107,0.074c-0.301,0.207-0.861,0.592-1.986,0.983C129.533,209.138,129.131,209.205,128.72,209.205z
			 M128.494,205.06c-0.449,0.032-0.449,0.032-0.734,0.835c-0.118,0.333-0.268,0.755-0.497,1.286
			c-0.074,0.172-0.064,0.319,0.031,0.464c0.321,0.488,1.438,0.715,2.292,0.415c0.998-0.349,1.468-0.671,1.749-0.864
			c0.202-0.139,0.376-0.258,0.609-0.258c0.345,0,1.271,0.273,1.942,0.572c0.368-0.005,1.35-0.976,1.692-1.584
			c-0.221-0.116-0.711-0.248-0.995-0.324c-0.416-0.112-0.809-0.218-1.096-0.368c-0.172-0.091-0.321-0.132-0.465-0.173
			c-0.503-0.14-0.899-0.321-1.042-1.25c-0.097-0.636,0.272-1.101,0.631-1.44c-0.134,0.071-0.284,0.147-0.454,0.228
			c-1.396,0.662-1.351,1.238-1.172,1.819c0.038,0.122,0.153,0.495-0.069,0.796c-0.075,0.102-0.25,0.271-0.582,0.271
			c-0.243,0-0.52-0.09-0.84-0.194C129.161,205.183,128.784,205.06,128.494,205.06z"/>
	</g>
	<g>
		<path d="M258.666,239.985c-0.236,0-0.631-0.089-1.34-0.856c-0.898-0.972-2.154-2.898-2.08-3.842
			c0.025-0.321-0.633-1.069-1.113-1.615c-0.586-0.665-1.189-1.352-1.432-2.03c-0.288-0.823-0.025-1.712,0.186-2.426
			c0.072-0.249,0.18-0.611,0.182-0.77c-0.345-0.253-0.643-0.748-0.957-1.271c-0.102-0.167-0.238-0.395-0.365-0.581
			c-0.036,0.186-0.07,0.396-0.098,0.564c-0.168,1.026-0.34,2.089-1.145,2.089c-0.162,0-0.322-0.052-0.477-0.154
			c-0.775-0.518-0.742-1.487-0.714-2.343c0.018-0.514,0.036-1.045-0.095-1.484c-0.248-0.849-0.557-1.244-1.066-1.899
			c-0.199-0.257-0.424-0.545-0.677-0.901c-0.313-0.445-0.862-1.051-1.443-1.693c-1.358-1.499-2.26-2.541-2.421-3.337
			c-0.057-0.289-0.186-0.536-0.312-0.775c-0.302-0.573-0.714-1.36,0.515-2.225c0.297-0.208,0.557-0.422,0.803-0.623
			c0.746-0.612,1.451-1.19,2.605-1.19c0.34,0,0.697,0.05,1.092,0.153c0.501,0.13,1.092,0.25,1.703,0.376
			c2.144,0.438,4.168,0.853,4.732,1.91c0.354,0.662,0.288,1.045,0.174,1.441c-0.076,0.267-0.141,0.497,0.146,1.169
			c0.896,2.084,1.428,3.857,1.623,5.422c0.136,1.085,0.711,3.67,1.617,7.279l0.036,0.144c0.024,0.1,0.063,0.238,0.11,0.409
			c0.258,0.924,0.734,2.645,0.734,4.099c0,0.543,0.089,1.227,0.174,1.889c0.188,1.462,0.277,2.313-0.093,2.777
			c-0.133,0.167-0.321,0.271-0.531,0.291L258.666,239.985z M251.596,225.301c0.553,0,0.914,0.6,1.371,1.359
			c0.211,0.35,0.529,0.879,0.701,0.986c0.611,0.384,0.391,1.13,0.178,1.853c-0.18,0.605-0.383,1.293-0.201,1.81
			c0.176,0.495,0.717,1.109,1.238,1.703c0.761,0.864,1.418,1.61,1.36,2.354c-0.05,0.622,1.534,3.015,2.279,3.532
			c0.038-0.406-0.071-1.26-0.149-1.857c-0.089-0.693-0.182-1.409-0.182-2.017c0-1.318-0.453-2.953-0.697-3.831
			c-0.051-0.183-0.092-0.331-0.117-0.436l-0.035-0.141c-0.931-3.701-1.498-6.26-1.641-7.399c-0.184-1.469-0.691-3.154-1.551-5.152
			c-0.395-0.923-0.313-1.396-0.188-1.837c0.068-0.238,0.097-0.337-0.096-0.696c-0.343-0.643-2.485-1.081-4.05-1.401
			c-0.63-0.129-1.238-0.254-1.755-0.388c-1.289-0.337-1.912,0.104-2.812,0.843c-0.265,0.217-0.544,0.445-0.862,0.668
			c-0.51,0.359-0.486,0.403-0.203,0.941c0.144,0.274,0.322,0.615,0.407,1.045c0.118,0.583,1.31,1.899,2.181,2.861
			c0.603,0.665,1.172,1.294,1.52,1.788c0.241,0.34,0.457,0.616,0.648,0.863c0.543,0.697,0.936,1.201,1.236,2.23
			c0.176,0.594,0.154,1.235,0.135,1.802c-0.021,0.625-0.021,1.065,0.123,1.316c0.094-0.294,0.176-0.798,0.226-1.104
			c0.151-0.932,0.262-1.604,0.831-1.689L251.596,225.301z"/>
	</g>
	<g>
		<path d="M262.844,241.607L262.844,241.607c-0.125,0-0.256-0.016-0.4-0.046c-1.106-0.239-1.038-1.336-0.993-2.063
			c0.021-0.343,0.044-0.697-0.025-0.934c-0.155-0.534-0.054-1.077,0.286-1.53c0.293-0.39,0.72-0.652,1.112-0.692
			c0.053-0.141,0.079-0.557-0.285-1.001c-0.479-0.587-0.993-1.01-1.491-1.418c-0.172-0.142-0.338-0.277-0.494-0.413
			c-0.566-0.495-1.331-1.61-0.091-3.521c0.437-0.669,0.897-0.994,1.408-0.994c0.692,0,1.181,0.601,1.612,1.13
			c0.136,0.167,0.268,0.331,0.4,0.464c0.883,0.877,1.549,2.678,1.096,3.858c-0.123,0.322-0.125,0.528-0.125,0.789
			c-0.002,0.438-0.004,0.934-0.508,1.843c-0.305,0.547-0.192,0.815-0.037,1.187c0.148,0.353,0.35,0.835,0.047,1.441
			c-0.113,0.227-0.183,0.454-0.247,0.659C263.943,240.891,263.719,241.607,262.844,241.607z M263.199,237.289
			c-0.087,0.032-0.18,0.049-0.275,0.049c-0.061,0.003-0.271,0.098-0.426,0.315c-0.141,0.196-0.178,0.409-0.113,0.633
			c0.117,0.404,0.09,0.847,0.063,1.274c-0.052,0.833,0.003,0.979,0.204,1.023c0.074,0.016,0.126-0.002,0.192,0.023
			c0.104,0,0.141-0.003,0.31-0.54c0.076-0.243,0.163-0.519,0.307-0.807c0.094-0.187,0.057-0.295-0.074-0.607
			C263.252,238.333,263.067,237.891,263.199,237.289z M261.87,229.996c-0.105,0-0.31,0.142-0.57,0.54
			c-0.854,1.314-0.46,1.897-0.089,2.221c0.148,0.13,0.306,0.259,0.469,0.394c0.512,0.419,1.092,0.895,1.633,1.559
			c0.277,0.338,0.436,0.695,0.502,1.032c0.037-0.186,0.038-0.341,0.039-0.508c0-0.305,0.002-0.65,0.191-1.145
			c0.297-0.772-0.232-2.158-0.867-2.791c-0.156-0.156-0.313-0.347-0.471-0.54C262.445,230.437,262.088,229.996,261.87,229.996z"/>
	</g>
	<g>
		<path d="M280.809,257.586L280.809,257.586c-0.722,0-1.361-0.688-2.037-1.414c-0.402-0.433-0.819-0.88-1.151-1.052
			c-0.198-0.104-0.39-0.192-0.565-0.275c-0.754-0.354-1.607-0.755-1.35-1.732c0.059-0.226,0.12-0.455,0.125-0.564
			c-0.033,0.007-0.112-0.012-0.264-0.018c-0.799-0.032-1.316-0.595-1.734-1.047c-0.214-0.232-0.416-0.452-0.617-0.569
			c-0.224-0.13-0.651-0.271-1.028-0.396c-0.858-0.284-1.378-0.455-1.446-0.934c-0.017-0.111-0.021-0.394,0.287-0.608
			c0.114-0.079,0.228-0.136,0.332-0.185c-0.053-0.091-0.143-0.228-0.293-0.431c-0.432-0.58-0.652-1.122-0.83-1.558
			c-0.215-0.527-0.341-0.813-0.636-1.009c-0.292-0.194-0.384-0.439-0.409-0.611c-0.072-0.479,0.273-0.903,0.58-1.277
			c0.047-0.058,0.108-0.133,0.165-0.206c-0.3,0.074-0.835,0.13-1.098-0.657c-0.12-0.357-0.129-0.775-0.137-1.145
			c-0.005-0.231-0.013-0.619-0.073-0.716c-0.105,0.088-0.592,0.552-0.883,0.829c-0.646,0.616-1.064,0.993-1.52,0.993
			c-0.16,0-0.691-0.063-0.775-0.862c-0.102-0.967,0.538-1.669,1.006-2.182c0.161-0.177,0.405-0.444,0.426-0.548
			c-0.629-0.698-0.685-1.031-0.527-1.649c0.211-0.844,0.999-1.349,2.023-1.349c0.996,0,1.891,0.459,2.277,1.169l0.195,0.36
			c0.54,1.008,1.007,1.878,2.084,2.416c1.58,0.789,3.025,3.58,3.074,4.385c0.01,0.193-0.016,0.408-0.047,0.638
			c-0.094,0.672-0.114,1.071,0.525,1.459c2.436,1.478,3.741,2.416,3.863,3.268c0.068,0.479-0.147,0.98-0.355,1.465
			c-0.101,0.234-0.269,0.625-0.25,0.747c0.004-0.045,0.041-0.039,0.069-0.04c0.06,0,0.138-0.024,0.22-0.05
			c0.119-0.038,0.255-0.08,0.414-0.08c0.236,0,0.566,0.098,0.799,0.563c0.298,0.598,0.97,3.108,0.514,4.207
			c-0.162,0.39-0.424,0.547-0.615,0.611C281.039,257.567,280.925,257.586,280.809,257.586z M272.188,249.464
			c0.109,0.037,0.219,0.073,0.313,0.104c0.445,0.146,0.904,0.299,1.217,0.481c0.332,0.192,0.596,0.479,0.852,0.756
			c0.351,0.381,0.654,0.71,1.038,0.725c0.323,0.013,0.784,0.071,1.048,0.427c0.287,0.39,0.164,0.854,0.034,1.346
			c-0.052,0.197,0.05,0.288,0.79,0.637c0.188,0.088,0.392,0.184,0.602,0.293c0.486,0.251,0.963,0.763,1.423,1.258
			c0.406,0.437,1.02,1.096,1.306,1.096c0.011,0,0.017-0.002,0.021-0.004c0.305-0.322-0.098-2.64-0.469-3.406
			c-0.009,0.003-0.018,0.006-0.027,0.009c-0.263,0.081-0.755,0.151-1.148-0.08c-0.746-0.439-0.362-1.334-0.108-1.926
			c0.14-0.324,0.313-0.728,0.284-0.93c-0.068-0.37-1.186-1.215-3.321-2.511c-1.304-0.79-1.156-1.856-1.068-2.493
			c0.022-0.16,0.046-0.311,0.04-0.443c-0.031-0.511-1.324-2.949-2.523-3.548c-1.361-0.681-1.949-1.777-2.519-2.838l-0.19-0.354
			c-0.209-0.382-0.784-0.648-1.4-0.648c-0.418,0-0.94,0.139-1.038,0.529c-0.091,0.36-0.099,0.391,0.313,0.877
			c0.572,0.683-0.048,1.363-0.459,1.813c-0.348,0.381-0.705,0.773-0.75,1.215c0.186-0.156,0.438-0.396,0.611-0.562
			c0.58-0.554,1.082-1.031,1.588-1.055c0.002,0,0.002,0,0.002,0c1.021,0,1.043,1.029,1.055,1.645
			c0.007,0.303,0.014,0.615,0.08,0.828c0.295-0.083,0.802-0.075,1.107,0.256c0.502,0.545-0.008,1.167-0.344,1.578
			c-0.107,0.13-0.272,0.333-0.338,0.459c0.529,0.379,0.736,0.889,0.955,1.428c0.173,0.423,0.351,0.859,0.706,1.337
			c0.417,0.562,0.64,0.961,0.54,1.344C272.368,249.265,272.285,249.378,272.188,249.464z"/>
	</g>
	<g>
		<path d="M274.49,257.578c-0.354,0-0.729-0.187-1.147-0.569c-1.06-0.966-1.448-1.896-1.759-2.644l-0.273-0.655
			c-0.251-0.629-0.359-0.853-0.773-0.972c-0.68-0.193-1.636-0.951-1.586-1.695c0.015-0.219,0.143-0.741,1.007-0.867
			c1.528-0.215,2.874,1.79,3.343,2.632c0.223,0.402,0.932,1.18,1.355,1.644c0.039,0.044,0.075,0.083,0.108,0.119
			c0.182-0.16,0.417-0.309,0.697-0.309c0.498,0,0.831,0.411,0.99,1.224c0.144,0.733,0.095,1.217-0.155,1.521
			c-0.158,0.192-0.389,0.298-0.65,0.298l0,0c-0.148,0-0.291-0.034-0.411-0.075C275.073,257.402,274.838,257.578,274.49,257.578z
			 M274.49,256.578v0.5V256.578L274.49,256.578L274.49,256.578z M269.996,251.187c0.125,0.187,0.477,0.494,0.815,0.591
			c0.907,0.259,1.172,0.921,1.429,1.562l0.267,0.643c0.288,0.689,0.613,1.472,1.511,2.288c0.279,0.257,0.422,0.3,0.461,0.307
			c0.025-0.022,0.066-0.076,0.092-0.109c0.087-0.116,0.248-0.331,0.542-0.331l0.294,0.08c0.023,0.011,0.074,0.035,0.125,0.056
			c0.006-0.105,0-0.29-0.061-0.594c-0.029-0.15-0.059-0.255-0.085-0.326c-0.044,0.049-0.096,0.104-0.126,0.137
			c-0.139,0.148-0.283,0.303-0.529,0.303h-0.308l-0.154-0.286c-0.022-0.022-0.167-0.178-0.351-0.38
			c-0.639-0.699-1.232-1.366-1.491-1.831c-0.62-1.114-1.583-2.255-2.323-2.128C270.059,251.172,270.023,251.179,269.996,251.187z"/>
	</g>
</g>
</svg>
