<?xml version="1.0" encoding="iso-8859-1"?>
<!-- Generator: Adobe Illustrator 15.1.0, SVG Export Plug-In . SVG Version: 6.00 Build 0)  -->
<!DOCTYPE svg PUBLIC "-//W3C//DTD SVG 1.1//EN" "http://www.w3.org/Graphics/SVG/1.1/DTD/svg11.dtd">
<svg version="1.1" id="Layer_1" xmlns="http://www.w3.org/2000/svg" xmlns:xlink="http://www.w3.org/1999/xlink" x="0px" y="0px"
	 width="288px" height="288px" viewBox="0 0 288 288" style="enable-background:new 0 0 288 288;" xml:space="preserve">
<g>
	<path d="M208.337,249.144c-0.029,0-0.059-0.003-0.088-0.007l-57.702-8.53c-0.075-0.011-0.148-0.036-0.214-0.074L53.41,184.169
		c-0.152-0.089-0.257-0.239-0.289-0.412s0.015-0.351,0.126-0.487c0.194-0.237,0.738-0.946,0.917-1.361
		c0.036-0.084,0.083-0.202,0.139-0.342c0.661-1.646,1.136-2.6,1.728-2.883c0.181-0.192,0.45-1.086,0.578-1.922l0.007-0.504
		c0.003-0.255,0.168-0.48,0.41-0.562c0.031-0.01,0.763-0.251,1.63-0.251c0.538,0,1.019,0.093,1.43,0.274
		c0.09,0.04,0.3,0.107,0.695,0.107c1.217,0,2.775-0.608,3.03-1.183c0.149-0.336,0.409-0.659,0.71-1.034
		c0.88-1.096,2.086-2.597,1.387-5.479c-0.38-1.57-0.836-1.57-1.056-1.57c-0.193,0-0.422,0.05-0.666,0.103
		c-0.299,0.065-0.609,0.133-0.94,0.133c-0.773,0-1.363-0.374-1.804-1.143c-0.997-1.737,0.017-3.896,0.756-5.472
		c0.27-0.574,0.637-1.357,0.611-1.603c-0.47-0.931-1.309-1.999-1.317-2.01c-0.092-0.117-0.138-0.265-0.127-0.414
		c0.026-0.375,0.318-3.668,2.459-3.668c0.237,0,0.484,0.045,0.735,0.133c0.134,0.048,0.257,0.071,0.375,0.071
		c0.752-0.001,1.399-1.027,2.083-2.114c0.475-0.753,0.965-1.532,1.576-2.096c0.887-0.819,0.744-1.953,0.65-2.703
		c-0.055-0.434-0.121-0.959,0.249-1.217c0.169-0.345,0.514-1.516,0.795-2.47c0.454-1.541,0.969-3.287,1.438-4.226
		c0.277-0.555,0.373-0.904,0.45-1.186c0.213-0.779,0.436-1.065,1.591-1.6c0.412-0.189,0.579-0.648,0.818-1.382
		c0.354-1.087,0.84-2.575,2.973-2.931c3.017-0.502,5.674-1.952,6.182-3.373c0.318-0.891-2.11-3.526-3.277-4.793
		c-0.731-0.793-1.309-1.42-1.565-1.847c-0.571-0.953-0.838-3.402-0.838-7.709c0-0.593-0.518-1.162-0.975-1.666
		c-0.413-0.454-0.771-0.848-0.781-1.323c-0.038-0.17-0.339-0.687-0.56-1.065c-0.589-1.011-1.322-2.27-1.322-3.346
		c0-0.169-0.003-0.366-0.006-0.584c-0.021-1.37-0.052-3.441,0.502-4.722c0.248-0.574,0.57-0.946,0.984-1.137
		c1.02-0.463,2.408-4.351,2.536-6.145c0.06-0.836-0.44-2.761-0.881-4.458c-0.507-1.949-0.814-3.178-0.749-3.839
		c0.075-0.748,0.479-1.27,0.835-1.73c0.358-0.463,0.667-0.863,0.667-1.471c0-0.34-0.013-0.898-0.028-1.571
		c-0.076-3.302-0.114-6.102,0.192-6.919c0.186-0.497,0.573-0.72,0.829-0.866c0.263-0.151,0.264-0.169,0.273-0.264
		c0.022-0.24-0.081-0.787-0.702-2.028c-0.962-1.924-0.558-3.31-0.048-4.134c0.804-1.302,2.388-2.004,3.47-2.004
		c1.38,0,3.238,0.219,4.312,0.832c0.672,0.385,1.965-0.096,3.011,0.503c0.992,0.567,2.435,2.469,2.435,4.158
		c0,0.251,0.203,0.476,0.604,0.667c0.656,0.314,1.489,0.324,1.669,0.291c0.145-0.152,0.453-0.646,0.703-1.049
		c0.848-1.361,2.093-3.363,3.682-3.906l4.865-25.81c0.061-0.32,0.366-0.532,0.687-0.481L234.4,60.294
		c0.32,0.053,0.541,0.352,0.497,0.675l-25.966,187.656c-0.022,0.159-0.107,0.302-0.234,0.398
		C208.592,249.102,208.466,249.144,208.337,249.144z M150.836,239.437l56.99,8.425l25.803-186.478L104.647,40.26L99.82,65.867
		c-0.047,0.247-0.243,0.439-0.491,0.48c-1.255,0.21-2.523,2.247-3.281,3.464c-0.604,0.971-0.864,1.371-1.236,1.52
		c-0.192,0.077-0.444,0.115-0.751,0.115c-0.643,0-1.362-0.16-1.922-0.428c-0.829-0.396-1.286-1.019-1.286-1.75
		c0-1.144-1.107-2.703-1.83-3.116c-0.672-0.385-1.964,0.096-3.011-0.503c-0.716-0.409-2.175-0.674-3.716-0.674
		c-0.63,0-1.845,0.456-2.45,1.435c-0.507,0.82-0.473,1.818,0.101,2.966c1.116,2.231,1.104,3.208-0.047,3.869
		c-0.208,0.12-0.273,0.167-0.303,0.247c-0.25,0.667-0.16,4.587-0.116,6.471c0.016,0.684,0.028,1.253,0.028,1.599
		c0,1.018-0.509,1.676-0.918,2.205c-0.307,0.397-0.55,0.711-0.59,1.115c-0.048,0.48,0.358,2.041,0.715,3.418
		c0.487,1.874,0.991,3.813,0.917,4.846c-0.125,1.743-1.513,6.368-3.235,7.15c-0.126,0.058-0.259,0.238-0.38,0.521
		c-0.451,1.045-0.421,3.038-0.403,4.229c0.003,0.225,0.006,0.428,0.006,0.602c0,0.753,0.669,1.902,1.159,2.741
		c0.458,0.788,0.706,1.229,0.722,1.609c0.053,0.117,0.293,0.382,0.47,0.577c0.543,0.598,1.287,1.417,1.287,2.473
		c0,5.203,0.418,6.677,0.667,7.092c0.192,0.321,0.788,0.967,1.418,1.651c2.315,2.513,4.046,4.551,3.524,6.01
		c-0.775,2.169-4.231,3.673-7.115,4.152c-1.414,0.236-1.686,1.067-2.028,2.119c-0.257,0.788-0.549,1.681-1.457,2.1
		c-0.813,0.375-0.823,0.409-0.937,0.827c-0.081,0.296-0.204,0.745-0.534,1.404c-0.421,0.844-0.92,2.536-1.36,4.028
		c-0.553,1.877-0.784,2.614-1.035,2.937c0.007,0.078,0.02,0.176,0.03,0.262c0.11,0.872,0.314,2.496-1.026,3.734
		c-0.494,0.455-0.941,1.166-1.374,1.854c-0.828,1.314-1.684,2.674-3.099,2.674c-0.253,0-0.514-0.046-0.775-0.139
		c-0.122-0.043-0.235-0.064-0.336-0.064c-0.748,0-1.136,1.45-1.241,2.332c0.284,0.377,0.907,1.237,1.31,2.043
		c0.323,0.646-0.067,1.478-0.608,2.629c-0.663,1.412-1.487,3.169-0.801,4.364c0.286,0.498,0.543,0.54,0.763,0.54
		c0.202,0,0.437-0.051,0.685-0.105c0.294-0.063,0.599-0.13,0.921-0.13c1.451,0,1.963,1.42,2.222,2.487
		c0.838,3.457-0.7,5.371-1.618,6.515c-0.249,0.31-0.463,0.576-0.549,0.77c-0.55,1.236-2.75,1.895-4.127,1.895
		c-0.47,0-0.868-0.07-1.182-0.21c-0.256-0.113-0.574-0.171-0.943-0.171c-0.32,0-0.62,0.043-0.846,0.089l-0.001,0.084
		c0,0.027-0.002,0.054-0.006,0.08c-0.168,1.135-0.523,2.555-1.262,2.871c-0.197,0.14-0.583,0.898-1.123,2.244
		c-0.06,0.149-0.111,0.275-0.15,0.367c-0.148,0.345-0.425,0.763-0.665,1.093L150.836,239.437z"/>
</g>
</svg>
