<?xml version="1.0" encoding="iso-8859-1"?>
<!-- Generator: Adobe Illustrator 15.1.0, SVG Export Plug-In . SVG Version: 6.00 Build 0)  -->
<!DOCTYPE svg PUBLIC "-//W3C//DTD SVG 1.1//EN" "http://www.w3.org/Graphics/SVG/1.1/DTD/svg11.dtd">
<svg version="1.1" id="Layer_1" xmlns="http://www.w3.org/2000/svg" xmlns:xlink="http://www.w3.org/1999/xlink" x="0px" y="0px"
	 width="288px" height="288px" viewBox="0 0 288 288" style="enable-background:new 0 0 288 288;" xml:space="preserve">
<g>
	<path d="M78.663,237.929c-3.848,0-7.17-0.033-9.873-0.099c-0.323-0.007-0.582-0.27-0.586-0.593l-0.314-28.6
		c-2.252,0.502-9.062,1.959-12.214,1.959c-0.325,0-0.61-0.016-0.848-0.046c-2.894-0.375-4.951-2.341-5.443-3
		c-0.078-0.104-0.12-0.229-0.12-0.358v-93.503l-8.136-55.407c-0.024-0.168,0.023-0.339,0.131-0.469
		c0.107-0.131,0.266-0.21,0.435-0.219l180.691-8.437c0.183-0.011,0.372,0.072,0.492,0.219c0.578,0.706,2.463,3.099,2.463,4.257
		c0.116,0.347,1.653,1.201,3.221,1.763c0.249,0.089,0.41,0.331,0.397,0.595l-0.256,5.17c-0.007,0.14-0.063,0.273-0.158,0.377
		c-0.828,0.898-3.019,3.521-3.21,4.851c-0.247,1.711-2.113,2.285-3.76,2.792c-0.549,0.168-1.067,0.328-1.514,0.52
		c-0.989,0.425-2.946,4.543-4.23,7.795l27.977-2.998c0.163-0.018,0.326,0.032,0.451,0.138s0.202,0.258,0.212,0.421
		c0.127,2.029,0.781,5.029,1.839,5.348c0.362,0.108,0.858,0.257,0.779,0.794c-0.028,0.194-0.199,0.523-0.658,0.523
		c-0.084,0-0.239-0.011-0.445-0.027c-0.344-0.026-0.862-0.067-1.4-0.067c-1.499,0-1.93,0.313-2.046,0.448
		c-0.054,0.063-0.105,0.156-0.073,0.361c0.179,1.173,0.943,1.526,1.557,1.811c0.388,0.179,0.789,0.365,0.872,0.812
		c0.052,0.277-0.046,0.546-0.289,0.797c-0.365,0.378-0.895,0.429-1.363,0.429c-0.166,0-0.342-0.007-0.522-0.015
		c-0.172-0.008-0.348-0.016-0.523-0.016c-0.933,0-1.219,0.219-1.277,0.975c-0.132,1.715-1.947,1.768-3.273,1.807
		c-1.938,0.057-2.542,0.236-2.542,1.25c0,1.436,0.559,1.623,1.331,1.883c0.628,0.211,1.577,0.529,1.577,1.803
		c0,1.505-1.272,1.992-2.114,2.314c-0.275,0.105-0.734,0.281-0.795,0.397c0.001,0.17,0.449,0.608,0.69,0.844
		c0.563,0.55,1.201,1.173,1.102,1.979c-0.065,0.529-0.432,0.981-1.119,1.383c-0.563,0.329-1.141,0.495-1.715,0.495
		c-0.693,0-1.265-0.243-1.673-0.456v5.454c0,0.29-0.207,0.538-0.492,0.591c-1.535,0.278-3.081,0.729-3.54,1.021
		c0.037,0.13,0.086,0.289,0.14,0.469c0.808,2.676,1.047,3.95,0.329,4.429c-0.223,0.148-0.558,0.257-0.981,0.395
		c-0.337,0.109-1.089,0.353-1.317,0.551c0.015,0.02,0.035,0.043,0.063,0.07c0.402,0.402,1.148,0.548,1.87,0.689
		c1.034,0.201,2.207,0.43,2.371,1.59c0.053,0.367,0.342,1.1,0.622,1.808c0.761,1.928,1.229,3.253,0.82,4.081
		c-0.146,0.295-0.39,0.499-0.708,0.59c-0.156,0.045-0.325,0.067-0.502,0.067c-0.607,0-1.227-0.268-1.773-0.504
		c-0.34-0.147-0.725-0.313-0.927-0.322c-0.015,0.038-0.036,0.111-0.049,0.241c-0.201,2.012-2.497,4.432-3.787,4.432
		c-0.05,0-0.099-0.003-0.146-0.01c-0.242,0.165-0.726,0.948-0.738,1.72c-0.013,0.753,0.441,0.97,0.591,1.041
		c0.132,0.063,0.236,0.173,0.293,0.307c0.734,1.73,1.045,5.545-0.947,6.989c-0.577,0.42-1.233,0.634-1.95,0.634
		c-0.775,0-1.5-0.24-2.14-0.452c-0.457-0.152-0.89-0.296-1.197-0.296c-0.174,0-0.252,0.046-0.306,0.09
		c-0.417,0.349-0.157,2.348,0.016,3.671c0.183,1.399,0.371,2.847,0.193,3.918c-0.26,1.56-1.211,1.743-1.975,1.891
		c-0.707,0.137-1.439,0.278-2.186,1.438c-0.729,1.135-0.153,2.038,0.807,3.288c0.653,0.852,1.396,1.816,0.729,2.748
		c-0.498,0.697-0.718,1.553-0.995,2.636c-0.213,0.827-0.453,1.766-0.872,2.854c-1.07,2.78-2.672,3.646-5.641,4.436
		c-1.417,0.378-1.905,2.137-2.471,4.174c-0.403,1.455-0.82,2.96-1.655,4.128c-0.551,0.771-1.161,1.146-1.867,1.146
		c-0.565,0-1.06-0.248-1.495-0.466c-0.313-0.157-0.61-0.307-0.826-0.307c-0.252,0-0.521,0.301-0.799,0.893
		c-0.722,1.53,0.824,3.421,1.954,4.801c0.873,1.067,1.45,1.772,1.2,2.452c-0.087,0.236-0.31,0.54-0.876,0.644
		c-3.729,0.677-4.04,2.397-3.949,3.633c0.032,0.455,0.101,0.975,0.172,1.525c0.367,2.83,0.923,7.107-3.128,8.397
		c-0.757,0.24-0.952,0.439-0.994,0.493c0.067,0.212,0.633,0.655,0.941,0.896c0.68,0.532,1.322,1.034,1.218,1.726
		c-0.062,0.411-0.377,0.729-0.939,0.944c-2.425,0.934-2.517,4.054-2.511,4.669c0.003,0.748-0.522,1.212-0.985,1.621
		c-0.742,0.655-1.278,1.129-0.282,2.723c0.592,0.947,1.515,1.402,2.405,1.843c0.93,0.458,1.891,0.933,2.199,1.963
		c0.288,0.965-0.052,2.195-1.104,3.99c-0.688,1.174-0.914,2.101-0.652,2.679c0.347,0.766,1.564,1.001,2.371,1.156
		c0.66,0.128,1.183,0.229,1.279,0.753c0.062,0.328-0.102,0.614-0.482,0.853c-0.466,0.291-0.5,1.541-0.53,2.645
		c-0.044,1.607-0.094,3.43-1.322,4.315c-0.409,0.294-0.796,0.436-1.183,0.436c-0.687,0-1.127-0.444-1.448-0.77
		c-0.073-0.075-0.177-0.179-0.248-0.235c-0.057,0.05-0.162,0.161-0.316,0.404c-0.435,0.683,0.797,1.609,2.097,2.5
		c0.923,0.632,1.479,1.014,1.322,1.618c-0.142,0.543-0.759,0.6-0.962,0.618c-0.402,0.035-1.479,0.438-4.194,2.732
		c-0.204,0.174-0.5,0.189-0.723,0.039c-0.033-0.022-0.063-0.039-0.088-0.052C185.708,235.192,113.785,237.929,78.663,237.929z
		 M69.397,236.645c2.585,0.056,5.698,0.084,9.266,0.084c35.794,0,109.861-2.845,110.604-2.874c0.059-0.002,0.118,0.005,0.175,0.02
		c0.017,0.004,0.046,0.013,0.086,0.026c2.05-1.704,3.205-2.358,3.915-2.609c-0.1-0.068-0.198-0.137-0.289-0.198
		c-1.318-0.904-3.524-2.416-2.431-4.135c0.27-0.424,0.7-0.987,1.325-0.987c0.494,0,0.833,0.344,1.106,0.62
		c0.246,0.249,0.421,0.413,0.594,0.413c0.123,0,0.29-0.073,0.482-0.211c0.745-0.537,0.787-2.045,0.823-3.374
		c0.032-1.187,0.063-2.322,0.538-3.071c-0.995-0.195-2.5-0.549-3.069-1.808c-0.442-0.976-0.21-2.212,0.71-3.779
		c0.834-1.424,1.168-2.446,0.989-3.039c-0.15-0.505-0.698-0.797-1.579-1.232c-0.944-0.466-2.119-1.046-2.893-2.282
		c-1.534-2.456-0.258-3.584,0.505-4.258c0.299-0.264,0.581-0.513,0.58-0.713c-0.021-2.182,0.828-4.854,3.28-5.798
		c0.033-0.013,0.062-0.024,0.086-0.035c-0.164-0.171-0.471-0.411-0.673-0.569c-0.723-0.565-1.541-1.206-1.389-2.054
		c0.145-0.805,1.106-1.198,1.816-1.425c2.868-0.913,2.752-3.635,2.302-7.099c-0.073-0.568-0.144-1.104-0.179-1.594
		c-0.13-1.783,0.601-4.066,4.79-4.874c-0.179-0.304-0.583-0.798-0.896-1.182c-1.257-1.535-3.155-3.856-2.111-6.072
		c0.184-0.391,0.743-1.581,1.885-1.581c0.5,0,0.939,0.221,1.364,0.434c0.348,0.175,0.676,0.339,0.957,0.339
		c0.185,0,0.479-0.066,0.891-0.643c0.712-0.996,1.101-2.396,1.476-3.752c0.608-2.191,1.237-4.456,3.317-5.012
		c2.798-0.745,3.948-1.417,4.831-3.708c0.393-1.022,0.624-1.925,0.828-2.721c0.297-1.157,0.553-2.155,1.182-3.036
		c0.149-0.208-0.304-0.799-0.704-1.319c-0.838-1.09-2.104-2.738-0.864-4.667c1.024-1.592,2.147-1.809,2.968-1.967
		c0.706-0.137,0.896-0.173,1.019-0.909c0.148-0.896-0.028-2.254-0.2-3.566c-0.277-2.134-0.518-3.977,0.407-4.748
		c0.294-0.244,0.654-0.368,1.073-0.368c0.501,0,1.023,0.174,1.575,0.356c0.58,0.192,1.18,0.392,1.762,0.392
		c0.471,0,0.866-0.129,1.244-0.404c1.239-0.898,1.225-3.733,0.624-5.361c-0.877-0.534-1.237-1.536-0.967-2.729
		c0.247-1.085,0.994-2.207,1.818-2.207c0.064,0,0.128,0.007,0.189,0.021c0.51-0.045,2.419-1.722,2.582-3.351
		c0.119-1.193,0.897-1.322,1.228-1.322c0.446,0,0.919,0.204,1.419,0.421c0.439,0.19,0.938,0.405,1.297,0.405
		c0.054,0,0.104-0.005,0.146-0.015c0.17-0.442-0.532-2.219-0.873-3.082c-0.333-0.844-0.621-1.572-0.693-2.079
		c-0.042-0.293-0.587-0.421-1.413-0.582c-0.856-0.167-1.827-0.356-2.489-1.019c-0.468-0.468-0.486-0.898-0.419-1.177
		c0.191-0.8,1.233-1.137,2.152-1.435c0.191-0.063,0.437-0.142,0.582-0.202c0.06-0.587-0.514-2.485-0.709-3.133
		c-0.096-0.316-0.174-0.574-0.213-0.732c-0.056-0.224-0.014-0.46,0.119-0.666c0.463-0.718,2.488-1.237,3.936-1.525v-5.515
		c0-0.892,0.679-0.917,0.757-0.917c0.261,0,0.479,0.123,0.757,0.277c0.359,0.202,0.806,0.452,1.358,0.452
		c0.364,0,0.728-0.108,1.11-0.331c0.483-0.282,0.528-0.461,0.532-0.494c0.027-0.217-0.439-0.672-0.748-0.974
		c-0.517-0.505-1.052-1.026-1.052-1.699c0-0.921,0.867-1.254,1.564-1.521c0.913-0.351,1.344-0.582,1.344-1.194
		c0-0.368-0.078-0.437-0.759-0.665c-0.855-0.287-2.149-0.723-2.149-3.021c0-2.342,2.231-2.406,3.708-2.449
		c1.547-0.046,2.069-0.152,2.111-0.699c0.159-2.082,1.901-2.082,2.474-2.082c0.192,0,0.386,0.008,0.574,0.016
		c0.078,0.003,0.155,0.007,0.231,0.009c-0.679-0.376-1.506-1.046-1.723-2.46c-0.078-0.509,0.043-0.968,0.35-1.325
		c0.5-0.583,1.467-0.867,2.956-0.867c0.015,0,0.029,0,0.044,0c-0.865-1.354-1.189-3.515-1.305-4.67l-28.343,3.037
		c-0.206,0.023-0.41-0.064-0.538-0.229c-0.127-0.164-0.16-0.383-0.088-0.578c0.533-1.421,3.287-8.554,5.233-9.389
		c0.505-0.216,1.079-0.393,1.634-0.563c1.369-0.422,2.786-0.857,2.924-1.816c0.255-1.762,2.685-4.57,3.368-5.33l0.224-4.516
		c-1.506-0.576-3.598-1.584-3.598-2.737c0-0.461-1.003-2.005-2.003-3.263L42.412,58.763l8.047,54.795
		c0.004,0.029,0.006,0.059,0.006,0.088v93.332c0.53,0.599,2.211,2.084,4.519,2.383c0.187,0.024,0.419,0.036,0.692,0.036
		c3.591,0,12.579-2.071,12.67-2.092c0.177-0.043,0.363,0,0.507,0.112c0.143,0.112,0.227,0.283,0.229,0.465L69.397,236.645z"/>
</g>
</svg>
