<?xml version="1.0" encoding="iso-8859-1"?>
<!-- Generator: Adobe Illustrator 15.1.0, SVG Export Plug-In . SVG Version: 6.00 Build 0)  -->
<!DOCTYPE svg PUBLIC "-//W3C//DTD SVG 1.1//EN" "http://www.w3.org/Graphics/SVG/1.1/DTD/svg11.dtd">
<svg version="1.1" id="Layer_1" xmlns="http://www.w3.org/2000/svg" xmlns:xlink="http://www.w3.org/1999/xlink" x="0px" y="0px"
	 width="288px" height="288px" viewBox="0 0 288 288" style="enable-background:new 0 0 288 288;" xml:space="preserve">
<g>
	<path d="M196.217,265.005c-0.023,0-0.046-0.001-0.069-0.004c-0.108-0.013-11.017-1.28-21.839-2.606
		c-22.15-2.715-22.34-2.977-22.58-3.307c-0.099-0.136-0.139-0.318-0.105-0.482c0.038-0.48-0.788-3.631-1.182-4.474
		c-0.381-0.815-0.49-1.687-0.324-2.592c0.104-0.575,0.541-0.929,0.938-1.114c0.591-4.645-2.064-9.605-3.257-11.556
		c-0.229-0.374-0.703-0.979-1.161-1.563c-1.099-1.4-1.552-2.018-1.598-2.478c-0.088-0.352-1.038-1.471-1.428-1.686
		c-0.027,0.003-0.054,0.005-0.081,0.005c-1.177,0-2.887-3.791-2.903-3.829c-0.304-0.722-1.697-1.326-2.292-1.584
		c-0.01-0.004-0.02-0.009-0.03-0.013c-0.016,0.049-0.031,0.099-0.043,0.141c-0.071,0.237-0.152,0.506-0.301,0.753
		c-0.172,0.288-0.456,0.452-0.778,0.452c-0.404,0-0.763-0.252-1.11-0.496c-0.143-0.101-0.382-0.269-0.472-0.29
		c-0.511-0.103-1.125-0.521-1.307-1.122c-0.132-0.436-0.011-0.883,0.333-1.227c0.37-0.37,0.597-0.462,0.865-0.494
		c0.005-0.004,0.011-0.008,0.019-0.013c0.089-0.783-0.873-4.067-1.268-4.545c-0.277-0.245-1.993-0.659-3.341-0.721
		c-0.811-0.037-1.468-0.262-2.048-0.461c-0.361-0.123-0.674-0.23-0.957-0.269c-0.9-0.12-4.089-2.953-4.741-3.971
		c-0.106-0.022-0.301-0.034-0.581-0.034c-0.193,0-0.378-0.085-0.509-0.232c-0.166-0.188-0.416-0.471-0.108-3.02
		c-0.057-0.037-0.132-0.081-0.192-0.118c-0.291-0.173-0.689-0.41-1.081-0.832l-0.219-0.235c-0.774-0.83-1.943-2.084-2.385-2.968
		c-0.222-0.294-1.801-0.546-2.649-0.681c-0.86-0.137-1.672-0.267-2.214-0.479c-1.339-0.523-3.95-1.88-4.813-2.68
		c-0.48-0.389-3.688-0.579-4.742-0.642c-0.931-0.056-1.127-0.07-1.278-0.121c-0.772-0.256-1.042-2.174-1.113-2.875
		c-0.087-0.023-0.196-0.048-0.28-0.065c-0.506-0.11-1.272-0.277-1.451-0.992c-0.207-0.825,0.825-2.265,1.462-2.881
		c-0.02-0.164-0.063-0.412-0.092-0.578c-0.093-0.53-0.14-0.817-0.095-1.039c0.04-0.199,0.167-0.436,0.426-0.908
		c0.119-0.217,0.319-0.582,0.412-0.796c-0.005-0.005-0.011-0.011-0.017-0.017c-0.213-0.216-0.611-0.619-0.611-1.337
		c0-0.564,0.435-1.289,1.151-2.416c0.321-0.505,0.76-1.196,0.813-1.44c0.056-0.26-0.204-0.549-0.637-0.994
		c-0.107-0.11-0.217-0.223-0.324-0.341c-0.089,0.054-0.199,0.092-0.335,0.092c-0.127,0-0.316-0.037-0.491-0.212
		c-0.021-0.021-1.954-2.098-2.117-2.991c-0.152-0.84,0.779-1.431,1.528-1.904c0.089-0.057,0.201-0.128,0.28-0.182
		c0.002-0.33-0.206-1.111-0.365-1.338l-0.09-0.06c-0.937-0.618-1.615-1.112-1.879-1.52c-0.34-0.525-1.595-3.71-1.673-3.918
		c-0.055-0.087-0.408-0.399-0.642-0.606c-0.567-0.502-1.153-1.021-1.361-1.562c-0.212-0.551-0.195-1.23-0.18-1.831
		c0.007-0.272,0.015-0.581-0.013-0.706c-0.077-0.243-0.772-1.158-1.373-1.854c-0.099-0.115-0.15-0.262-0.146-0.413l0.098-2.834
		c-1.17-0.633-1.367-1.684-1.558-2.703l-0.034-0.179c-0.192-1.011-1.764-3.395-2.454-4.01c-0.726-0.646-1.465-2.243-1.26-3.118
		c0.068-0.29,0.237-0.513,0.473-0.631c0.057-0.225,0.061-0.753,0.063-1.117c0.005-0.754,0.011-1.534,0.285-2.047
		c0.231-0.436,0.024-0.813-0.05-0.904c-0.201-0.113-0.33-0.319-0.342-0.557c-0.035-0.642,0.916-1.521,1.414-1.792
		c0.159-0.087,0.321-0.131,0.482-0.131c0.627,0,0.882,0.55,1.021,1.025c0.264-0.283,0.679-0.783,1.303-1.661
		c1.012-1.427-0.252-4.602-0.751-5.06c-0.051-0.047-0.128-0.091-0.339-0.091c-0.142,0-0.307,0.02-0.483,0.041
		c-0.213,0.025-0.434,0.052-0.667,0.052c-0.407,0-0.751-0.085-1.052-0.26c-1.113-0.648-3.022-4.205-3.633-5.885
		c-0.726-1.995-1.09-2.997-0.282-3.717c0.239-0.289,0.524-2.133,0.524-3.451c0-0.271-0.14-0.469-0.367-0.768
		c-0.274-0.359-0.649-0.852-0.514-1.571c0.176-0.942,0.629-1.646,1.026-1.971c0.055-0.186,0.131-0.603,0.189-0.919
		c0.24-1.308,0.461-2.349,0.939-2.865c0.052-0.057,0.107-0.108,0.165-0.156c-0.522-0.338-1.191-0.971-2.002-1.892
		c-0.238,0.024-0.535-0.006-0.808-0.097c-0.505-0.168-0.74-0.792-1.095-1.737c-0.182-0.485-0.522-1.389-0.733-1.537
		c-0.495-0.267-0.731-0.675-0.828-1.058c-0.057,0.108-0.108,0.213-0.146,0.288c-0.254,0.509-0.422,0.845-0.852,0.845
		c-0.153,0-0.384,0-1.22-0.696c-0.243-0.202-0.287-0.558-0.101-0.813l2.228-3.064c0.106-0.146,0.271-0.235,0.45-0.246
		c-0.024-0.054-0.045-0.103-0.064-0.146c-0.122-0.275-0.21-0.476-0.234-0.538c-0.101-0.253-0.126-0.687-0.104-1.77
		c-0.075-0.025-0.159-0.052-0.226-0.073c-0.389-0.122-0.756-0.238-0.974-0.511c-0.238-0.299-0.213-0.703-0.168-1.438
		c0.038-0.618,0.089-1.465-0.093-1.958c-0.188-0.511-1.066-1.475-1.707-2.179c-0.696-0.765-1.036-1.146-1.141-1.461
		c-0.087-0.26-0.171-0.795-0.3-1.647c-0.103-0.676-0.259-1.696-0.356-1.94c-0.061-0.151-0.288-0.417-0.528-0.697
		c-0.4-0.468-0.898-1.05-1.336-1.857c-0.748-1.381-1.223-2.949-1.348-3.822c-0.109-0.767,0.32-1.207,0.698-1.596
		c0.208-0.213,0.423-0.434,0.605-0.743c0.352-0.598-0.018-1.917-0.196-2.551c-0.037-0.131-0.069-0.246-0.092-0.341
		c-0.224-0.894,0.162-3.445,0.328-4.274c0.196-0.98,1.525-3.475,2.175-4.154c0.03-0.206,0.023-0.726,0.017-1.229
		c-0.009-0.688-0.021-1.63,0.026-2.768c0.101-2.402-1.06-5.778-1.492-6.329c-0.265-0.09-0.401-0.256-0.471-0.389
		c-0.189-0.362-0.036-0.716,0.088-1c0.072-0.165,0.153-0.352,0.15-0.487c-0.117-0.405-1.225-2.071-1.89-3.072
		c-0.958-1.44-1.208-1.834-1.271-2.09c-0.14-0.558,0.126-1.371,0.231-1.658l0.102-0.413c0.079-0.315,0.049-1.576-0.013-2.128
		c-0.031-0.276-0.066-0.59,1.79-2.933c0.898-1.133,2.137-2.605,3.315-3.938c1.352-1.53,1.917-2.391,2.291-2.959
		c0.215-0.328,0.385-0.587,0.61-0.835c0.255-0.279,0.276-0.924,0.296-1.546c0.01-0.296,0.02-0.601,0.053-0.901
		c0.089-0.806,0.499-1.438,1.018-2.237c0.239-0.368,0.51-0.786,0.781-1.274c0.905-1.629,1.881-3.844,1.909-4.741
		c0.029-0.938,0.216-3.958,0.279-4.977c-0.654-0.528-1.252-1.411-1.327-1.524c-0.143-0.214-0.133-0.496,0.024-0.699
		c0.71-0.919,1.903-2.563,2.083-3.064c0.01-0.029,0.024-0.119,0.033-0.171c-0.005-0.042-0.028-0.131-0.044-0.191
		c-0.043-0.169-0.098-0.38-0.093-0.604c0.003-0.194,0.1-0.374,0.259-0.483c0.16-0.109,0.362-0.136,0.544-0.07
		c0.191,0.069,0.772,0.279,1.336,0.455c6.807,2.124,37.377,10.91,64.897,18.317c0.317,0.085,0.507,0.409,0.425,0.728l-16.456,64.551
		l72.173,107.198c0.114,0.17,0.134,0.385,0.053,0.572c-0.283,0.658-0.264,1.958-0.252,2.735c0.002,0.15,0.004,0.286,0.004,0.402
		c0,0.447,0.447,1.216,0.744,1.725c0.279,0.479,0.473,0.811,0.504,1.112c0.05,0.073,0.173,0.208,0.266,0.311
		c0.385,0.423,0.91,1.001,0.91,1.782c0,3.545,0.291,4.413,0.416,4.621c0.117,0.196,0.525,0.639,0.92,1.066
		c1.589,1.725,2.773,3.129,2.389,4.207c-0.543,1.52-2.918,2.567-4.895,2.896c-0.786,0.131-0.949,0.527-1.194,1.276
		c-0.175,0.535-0.392,1.202-1.076,1.519c-0.376,0.173-0.452,0.241-0.466,0.258c-0.009,0.017-0.031,0.098-0.049,0.164
		c-0.057,0.205-0.141,0.516-0.37,0.973c-0.272,0.546-0.617,1.714-0.894,2.652c-0.328,1.112-0.49,1.661-0.674,1.95
		c0.004,0.032,0.008,0.066,0.012,0.096c0.072,0.573,0.223,1.766-0.746,2.659c-0.31,0.286-0.602,0.749-0.883,1.196
		c-0.553,0.878-1.18,1.874-2.232,1.874c-0.001,0-0.001,0-0.001,0c-0.191,0-0.388-0.035-0.582-0.104
		c-0.061-0.021-0.114-0.032-0.158-0.032c-0.286,0-0.533,0.707-0.616,1.298c0.209,0.281,0.589,0.819,0.842,1.326
		c0.26,0.517-0.018,1.108-0.402,1.927c-0.422,0.898-0.946,2.016-0.541,2.722c0.147,0.259,0.246,0.259,0.334,0.259
		c0.113,0,0.26-0.032,0.414-0.065c0.196-0.043,0.42-0.092,0.656-0.092c1.236,0,1.566,1.362,1.675,1.811
		c0.581,2.398-0.481,3.721-1.116,4.512c-0.145,0.179-0.293,0.363-0.34,0.469c-0.418,0.941-1.996,1.381-2.931,1.381
		c-0.342,0-0.634-0.053-0.868-0.157c-0.145-0.064-0.328-0.097-0.547-0.097c-0.133,0-0.264,0.013-0.377,0.029
		c-0.025,0.127-0.091,0.242-0.189,0.329C196.506,264.951,196.363,265.005,196.217,265.005z M152.793,258.293
		c3.152,0.701,26.764,3.569,42.905,5.447c0.071-0.123,0.187-0.22,0.329-0.268c0.055-0.018,0.555-0.179,1.154-0.179
		c0.387,0,0.734,0.067,1.033,0.2c0.029,0.013,0.141,0.054,0.382,0.054c0.819,0,1.723-0.416,1.835-0.668
		c0.109-0.248,0.291-0.473,0.5-0.733c0.592-0.736,1.328-1.653,0.885-3.478c-0.216-0.893-0.436-0.893-0.508-0.893
		c-0.107,0-0.25,0.03-0.401,0.063c-0.2,0.044-0.427,0.093-0.669,0.093c-0.585,0-1.047-0.289-1.375-0.861
		c-0.716-1.247-0.016-2.739,0.496-3.828c0.152-0.325,0.356-0.761,0.385-0.941c-0.309-0.59-0.826-1.251-0.832-1.257
		c-0.092-0.117-0.138-0.266-0.127-0.414c0.019-0.269,0.23-2.629,1.837-2.629c0.181,0,0.368,0.034,0.558,0.101
		c0.066,0.023,0.127,0.035,0.183,0.035l0,0c0.391,0,0.83-0.698,1.218-1.313c0.324-0.514,0.658-1.044,1.085-1.438
		c0.476-0.438,0.446-1.021,0.37-1.628c-0.033-0.263-0.09-0.713,0.201-0.964c0.111-0.257,0.324-0.979,0.499-1.571
		c0.306-1.035,0.651-2.208,0.972-2.85c0.176-0.352,0.236-0.574,0.285-0.753c0.157-0.571,0.339-0.811,1.17-1.194
		c0.199-0.092,0.296-0.364,0.438-0.801c0.237-0.729,0.597-1.831,2.138-2.088c1.912-0.318,3.652-1.248,3.962-2.116
		c0.106-0.326-0.614-1.332-2.142-2.99c-0.494-0.537-0.885-0.961-1.066-1.263c-0.4-0.667-0.586-2.331-0.586-5.238
		c0-0.317-0.332-0.683-0.599-0.976c-0.282-0.311-0.55-0.604-0.571-0.981c-0.041-0.117-0.217-0.42-0.348-0.644
		c-0.404-0.694-0.906-1.558-0.906-2.329c0-0.111-0.002-0.241-0.005-0.385c-0.013-0.824-0.03-2.022,0.235-2.906l-72.154-107.17
		c-0.096-0.142-0.126-0.318-0.084-0.483l16.377-64.237c-27.384-7.379-57.603-16.065-64.371-18.177
		c-0.151-0.047-0.303-0.097-0.449-0.146c-0.001,0.018-0.004,0.034-0.006,0.051c-0.021,0.14-0.046,0.285-0.092,0.415
		c-0.246,0.687-1.413,2.275-1.993,3.041c0.298,0.393,0.704,0.855,1.004,1.031c0.196,0.114,0.311,0.329,0.296,0.556
		c-0.002,0.042-0.265,4.181-0.299,5.272c-0.05,1.625-1.853,4.917-2.059,5.286c-0.292,0.525-0.575,0.961-0.824,1.346
		c-0.449,0.692-0.774,1.192-0.832,1.717c-0.028,0.254-0.037,0.522-0.046,0.808c-0.027,0.84-0.056,1.708-0.607,2.314
		c-0.162,0.178-0.302,0.391-0.496,0.687c-0.393,0.597-0.986,1.5-2.395,3.095c-2.388,2.702-4.544,5.415-4.802,6.035
		c0.052,0.552,0.111,1.914-0.024,2.458l-0.11,0.444c-0.005,0.023-0.012,0.046-0.021,0.067c-0.131,0.352-0.228,0.803-0.207,0.961
		c0.104,0.223,0.661,1.06,1.11,1.735c1.529,2.302,2.045,3.146,2.085,3.616c0.035,0.424-0.116,0.788-0.233,1.059
		c1.073,0.988,2.051,5.18,1.961,7.316c-0.046,1.105-0.035,1.991-0.025,2.702c0.017,1.3,0.024,1.817-0.383,2.1
		c-0.309,0.339-1.642,2.583-1.832,3.535c-0.25,1.251-0.461,3.267-0.34,3.748c0.021,0.085,0.05,0.189,0.083,0.308
		c0.257,0.914,0.686,2.445,0.074,3.484c-0.255,0.434-0.546,0.731-0.779,0.972c-0.344,0.353-0.392,0.43-0.37,0.588
		c0.092,0.643,0.491,2.085,1.215,3.421c0.377,0.695,0.83,1.224,1.193,1.648c0.333,0.389,0.596,0.696,0.73,1.032
		c0.139,0.346,0.26,1.098,0.428,2.205c0.086,0.567,0.194,1.272,0.252,1.448c0.067,0.13,0.543,0.652,0.89,1.033
		c0.786,0.863,1.676,1.842,1.944,2.57c0.27,0.73,0.212,1.683,0.165,2.447c-0.012,0.201-0.028,0.456-0.027,0.62
		c0.101,0.038,0.237,0.081,0.332,0.111c0.477,0.15,1.071,0.338,1.071,0.927c0,0.056-0.001,0.146-0.004,0.261
		c-0.017,0.78-0.008,1.245,0.027,1.382c0.014,0.032,0.096,0.217,0.208,0.471c1.379,3.12,1.346,3.171,1.13,3.503
		c-0.111,0.17-0.309,0.277-0.512,0.277c-0.278,0-0.433,0-1.608-1.541l-0.34,0.468c0.173-0.002,0.356,0.063,0.5,0.186l0.389,0.333
		c0.167,0.144,0.242,0.366,0.196,0.581c-0.012,0.073-0.037,0.359,0.256,0.517c0.544,0.292,0.86,1.048,1.281,2.168
		c0.131,0.349,0.323,0.858,0.443,1.047c0.155,0.034,0.305-0.003,0.308-0.004c0.251-0.154,0.508-0.067,0.701,0.157
		c0.699,0.814,1.497,1.603,1.923,1.913c0.005-0.007,0.01-0.015,0.015-0.021c0.18-0.271,0.453-0.68,0.392-0.832
		c-0.284-0.71-0.51-1.388-0.175-1.883c0.083-0.123,0.262-0.315,0.588-0.373c0.158-0.387,0.218-1.563,0.16-2.141
		c-0.035-0.351,0.065-0.677,0.284-0.918c0.226-0.25,0.562-0.388,0.945-0.388c0.379,0,0.807,0.13,1.271,0.385
		c0.757,0.416,1.415,1.101,1.851,1.553c0.099,0.103,0.216,0.225,0.291,0.295c0.17,0.052,0.317,0.175,0.526,0.348
		c0.311,0.259,0.888,0.739,1.311,0.739c0.1,0,0.181-0.029,0.264-0.095c0.354-0.28,0.507-0.486,0.63-0.652
		c0.151-0.204,0.379-0.512,0.849-0.512c0.161,0,0.331,0.034,0.586,0.119c0.404,0.135,0.568,0.382,0.635,0.566
		c0.139,0.384-0.031,0.725-0.189,0.988c0.052,0.003,0.111,0.004,0.18,0.004l0.276-0.002c0.284,0,0.76,0,1.001,0.391
		c0.062,0.101,0.14,0.283,0.094,0.528c0.014,0,0.028,0,0.043,0c0.695,0,1.64,0,1.886-0.065c0.06-0.037,0.195-0.141,0.296-0.218
		c0.522-0.4,0.924-0.684,1.342-0.684c0.131,0,0.253,0.028,0.365,0.084c0.279,0.14,0.431,0.438,0.385,0.763
		c-0.042,0.295-0.28,0.667-0.597,1.003c0.232-0.02,0.463-0.033,0.679-0.033c0.472,0,1.134,0.057,1.443,0.543
		c0.08,0.125,0.224,0.307,0.377,0.497c0.594,0.744,1.491,1.867,0.605,2.577c-0.156,0.125-0.34,0.19-0.534,0.191
		c-0.602,0-1.025-0.604-1.474-1.244c-0.141-0.2-0.365-0.52-0.496-0.647c-0.141,0.032-0.376,0.144-0.541,0.221
		c-0.329,0.155-0.668,0.314-1.006,0.314c-0.17,0-0.327-0.039-0.464-0.118c-0.103-0.059-0.681-0.323-1.24-0.579
		c-2.558-1.17-3.497-1.635-3.832-1.908c-0.018-0.002-0.044-0.003-0.08-0.003c-0.243,0-0.618,0.072-0.949,0.137
		c-0.357,0.069-0.693,0.136-0.961,0.136c-0.224,0-0.403-0.047-0.549-0.144c-0.536-0.357-1.362-0.815-1.586-0.849
		c-0.002,0-0.005,0-0.008,0c-0.141,0-0.285-0.035-0.413-0.065c-0.104-0.024-0.193-0.046-0.276-0.046c-0.059,0-0.215,0-0.504,0.247
		c-0.275,0.236-0.537,0.39-0.746,0.514c-0.086,0.051-0.197,0.116-0.259,0.162c0.008,0.029,0.022,0.072,0.049,0.133
		c0.089,0.203,0.31,0.354,0.543,0.513c0.392,0.267,1.209,0.823,0.595,1.869c-0.259,0.44-0.536,0.698-0.719,0.869
		c-0.038,0.035-0.085,0.08-0.118,0.113c0.007,0.021,0.018,0.053,0.035,0.093c0.096,0.224,0.351,0.465,0.621,0.72
		c0.457,0.433,0.974,0.922,1.141,1.67c0.132,0.598,0.141,1.502,0.147,2.3c0.004,0.488,0.01,1.156,0.059,1.318
		c0.063,0.191,0.091,0.417,0.124,0.679c0.078,0.631,0.168,0.962,0.268,0.983c0.332,0.072,1.406,0.362,1.351,1.122
		c-0.019,0.25-0.171,0.678-0.99,0.732c-0.034,0.003-0.068,0.004-0.102,0.004c-1.408,0-2.805-1.902-2.819-1.921
		c-0.106-0.146-0.344-0.42-0.62-0.738c-1.098-1.268-2.018-2.377-2.159-3.123c-0.108-0.579,0.159-1.41,0.58-2.613
		c0.153-0.437,0.376-1.076,0.413-1.341c-0.14-0.158-0.46-0.377-0.716-0.377c-0.1,0-0.173,0.034-0.248,0.114
		c-0.28,0.304-0.515,1.582-0.641,2.269c-0.184,1.004-0.26,1.42-0.606,1.627c-0.107,0.069-0.47,0.518-0.61,1.268
		c-0.034,0.179,0.048,0.306,0.289,0.623c0.259,0.339,0.612,0.804,0.612,1.494c0,0.035-0.04,3.558-0.925,4.347
		c-0.201,0.179,0.175,1.214,0.611,2.411c0.738,2.027,2.51,4.908,3.11,5.258c0.115,0.067,0.253,0.097,0.448,0.097
		c0.163,0,0.339-0.021,0.525-0.043c0.202-0.024,0.412-0.05,0.625-0.05c0.476,0,0.852,0.133,1.15,0.406
		c0.824,0.756,2.376,4.584,0.919,6.639c-1.638,2.307-2.154,2.5-2.543,2.5c-0.283,0-0.527-0.152-0.655-0.407
		c-0.074-0.147-0.116-0.321-0.166-0.523c-0.019-0.077-0.046-0.188-0.075-0.289c-0.173,0.139-0.332,0.309-0.44,0.445
		c0.113,0.153,0.2,0.328,0.257,0.485c0.2,0.555,0.155,1.15-0.125,1.678c-0.135,0.254-0.141,0.97-0.145,1.492
		c-0.006,0.922-0.013,1.798-0.574,2.118c0.021,0.4,0.415,1.415,0.895,1.843c0.86,0.766,2.585,3.368,2.835,4.682l0.035,0.183
		c0.212,1.133,0.342,1.648,1.21,1.988c0.237,0.092,0.39,0.324,0.381,0.579l-0.104,2.999c0.563,0.664,1.367,1.683,1.482,2.197
		c0.06,0.27,0.051,0.606,0.042,0.997c-0.012,0.464-0.026,1.042,0.1,1.37c0.103,0.267,0.665,0.765,1.037,1.094
		c0.539,0.477,0.85,0.763,0.97,1.084c0.218,0.579,1.336,3.346,1.558,3.688c0.083,0.127,0.415,0.434,1.531,1.169l0.137,0.091
		c0.567,0.379,0.808,1.712,0.841,2.048c0.031,0.312,0.039,0.759-0.249,1.047c-0.125,0.125-0.313,0.244-0.572,0.409
		c-0.232,0.146-0.823,0.521-0.969,0.734c0.149,0.373,0.923,1.347,1.427,1.928c0.083-0.036,0.18-0.059,0.291-0.059
		c0.373,0,0.639,0.268,0.807,0.47c0.119,0.143,0.256,0.283,0.402,0.433c0.51,0.523,1.145,1.176,0.95,2.083
		c-0.098,0.454-0.503,1.093-0.974,1.832c-0.354,0.559-0.948,1.492-0.963,1.774c0,0.215,0.086,0.312,0.265,0.493
		c0.161,0.163,0.404,0.409,0.404,0.787c0,0.314-0.183,0.682-0.601,1.444c-0.104,0.19-0.243,0.443-0.294,0.56
		c0.009,0.126,0.059,0.409,0.093,0.604c0.137,0.78,0.239,1.359-0.222,1.593c-0.318,0.29-1.075,1.338-1.154,1.744
		c0.121,0.059,0.381,0.115,0.531,0.148c0.45,0.098,1.202,0.262,1.202,0.981c0,0.394,0.256,1.576,0.44,2
		c0.203,0.017,0.539,0.037,0.845,0.055c3.085,0.184,4.874,0.391,5.487,0.96c0.667,0.619,3.103,1.922,4.434,2.442
		c0.421,0.164,1.206,0.29,1.965,0.41c1.94,0.31,3.146,0.554,3.534,1.33c0.364,0.729,1.507,1.954,2.189,2.686l0.221,0.237
		c0.274,0.296,0.562,0.467,0.815,0.618c0.366,0.218,0.867,0.516,0.788,1.146c-0.119,0.949-0.163,1.674-0.154,2.065
		c0.468,0.031,1.008,0.154,1.174,0.635c0.42,0.565,3.239,3.206,3.883,3.373c0.385,0.051,0.767,0.182,1.17,0.32
		c0.528,0.181,1.075,0.368,1.714,0.397c1.078,0.049,3.389,0.405,4.104,1.043c0.628,0.558,1.647,4.066,1.648,5.333
		c0,0.271-0.031,0.661-0.311,0.911c-0.31,0.274-0.519,0.35-0.752,0.379c-0.025,0.019-0.078,0.061-0.169,0.152
		c-0.029,0.029-0.036,0.046-0.036,0.046c0.014,0.056,0.205,0.24,0.398,0.278c0.331,0.067,0.633,0.279,0.925,0.485
		c0.075,0.052,0.177,0.124,0.268,0.182c0.028-0.081,0.055-0.169,0.081-0.256c0.123-0.405,0.327-1.085,1.027-1.085
		c0.145,0,0.295,0.035,0.447,0.104c0.063,0.029,0.14,0.063,0.226,0.1c0.849,0.368,2.43,1.054,2.92,2.22
		c0.423,1.007,1.472,2.699,1.892,3.075c0.005,0,0.009,0,0.014,0c0.937,0,2.481,2.02,2.59,2.751c0.097,0.286,0.851,1.247,1.352,1.886
		c0.502,0.64,0.976,1.243,1.24,1.678c1.293,2.112,4.207,7.582,3.367,12.721c-0.039,0.244-0.225,0.438-0.467,0.49
		c-0.1,0.023-0.396,0.141-0.426,0.3c-0.119,0.654-0.041,1.283,0.231,1.867C151.804,254.213,152.645,256.973,152.793,258.293z
		 M123.046,215.225c0.011,0.055,0.031,0.101,0.055,0.139C123.072,215.31,123.054,215.264,123.046,215.225z M101.383,196.323
		c-0.11,0.038-0.19,0.101-0.248,0.167C101.236,196.403,101.322,196.345,101.383,196.323z M90.054,122.601
		c-0.075,0.238-0.17,0.511-0.28,0.828c-0.221,0.632-0.59,1.688-0.533,1.995c0.092,0.488,1.304,1.887,1.886,2.559
		c0.306,0.353,0.547,0.631,0.683,0.818c0.052,0.071,0.108,0.144,0.168,0.217c-0.014-0.102-0.026-0.197-0.037-0.285
		c-0.021-0.172-0.045-0.368-0.072-0.447c-0.103-0.308-0.112-0.815-0.12-1.686c-0.006-0.739-0.014-1.576-0.119-2.051
		c-0.086-0.389-0.43-0.713-0.794-1.058C90.551,123.221,90.257,122.942,90.054,122.601z M88.889,120.206
		c0.493,0.158,0.941,0.5,1.185,0.845c0.077-0.09,0.159-0.167,0.232-0.235c0.164-0.152,0.333-0.31,0.503-0.599
		c0.017-0.029,0.028-0.053,0.036-0.07c-0.062-0.057-0.185-0.141-0.272-0.2c-0.312-0.212-0.738-0.503-0.967-1.022
		c-0.014-0.031-0.026-0.062-0.038-0.092c-0.069,0.459-0.348,0.878-0.588,1.237C88.949,120.115,88.918,120.16,88.889,120.206z
		 M100.627,118.722c0.036,0.017,0.071,0.032,0.106,0.049c0.005-0.018,0.01-0.034,0.016-0.051
		C100.709,118.721,100.669,118.721,100.627,118.722z M89.255,117.453c0.034,0.142,0.103,0.347,0.208,0.611
		c0.091-0.508,0.537-0.771,0.842-0.95c0.187-0.11,0.38-0.225,0.575-0.392c0.42-0.36,0.841-0.536,1.285-0.536
		c0.224,0,0.408,0.044,0.555,0.079c0.059,0.014,0.139,0.033,0.166,0.033c0.142,0,0.318,0.044,0.51,0.114
		c-0.017-0.014-0.033-0.027-0.048-0.041c-0.054-0.045-0.101-0.085-0.141-0.116c-0.238-0.062-0.429-0.26-0.773-0.617
		c-0.386-0.4-0.968-1.005-1.564-1.333c-0.421-0.231-0.643-0.241-0.726-0.235c0.022,0.329,0.139,2.414-0.505,3.126
		C89.528,117.317,89.397,117.404,89.255,117.453z M96.847,116.669c-0.113,0.112-0.249,0.235-0.415,0.366
		c-0.009,0.008-0.019,0.015-0.028,0.022c0.152-0.021,0.301-0.036,0.442-0.04C96.821,116.896,96.825,116.779,96.847,116.669z"/>
</g>
</svg>
