<?xml version="1.0" encoding="iso-8859-1"?>
<!-- Generator: Adobe Illustrator 15.1.0, SVG Export Plug-In . SVG Version: 6.00 Build 0)  -->
<!DOCTYPE svg PUBLIC "-//W3C//DTD SVG 1.1//EN" "http://www.w3.org/Graphics/SVG/1.1/DTD/svg11.dtd">
<svg version="1.1" id="Layer_1" xmlns="http://www.w3.org/2000/svg" xmlns:xlink="http://www.w3.org/1999/xlink" x="0px" y="0px"
	 width="288px" height="288px" viewBox="0 0 288 288" style="enable-background:new 0 0 288 288;" xml:space="preserve">
<g>
	<path d="M237.832,227.189c-0.012,0-0.022,0-0.033,0c-3.291-0.179-6.314-0.345-9.043-0.494l-2.467-0.135
		c-8.812-0.496-14.037-0.813-14.088-0.815c-1.068-0.077-106.908-7.741-172.59-18.497c-0.321-0.053-0.542-0.352-0.497-0.675
		L59.099,61.779c0.045-0.325,0.346-0.554,0.668-0.513c0.72,0.089,72.602,9.027,127.828,14.442c1.904,0.187,3.783,0.37,5.643,0.549
		c21.658,2.068,42.058,3.664,54.57,4.269c0.16,0.008,0.313,0.08,0.419,0.2c0.107,0.12,0.161,0.279,0.15,0.439l-2.717,39.737
		l-7.231,105.728C238.408,226.947,238.145,227.189,237.832,227.189z M40.382,206.158c65.67,10.697,170.84,18.313,171.897,18.389
		c0.046,0.003,5.269,0.319,14.076,0.815l2.466,0.135c2.565,0.141,5.39,0.296,8.452,0.462l7.479-109.356l2.386-34.908
		c-12.576-0.626-32.688-2.205-54.014-4.242c-1.861-0.179-3.742-0.362-5.646-0.549C134.894,71.747,67.216,63.398,60.207,62.529
		L40.382,206.158z"/>
</g>
</svg>
