<?xml version="1.0" encoding="iso-8859-1"?>
<!-- Generator: Adobe Illustrator 15.1.0, SVG Export Plug-In . SVG Version: 6.00 Build 0)  -->
<!DOCTYPE svg PUBLIC "-//W3C//DTD SVG 1.1//EN" "http://www.w3.org/Graphics/SVG/1.1/DTD/svg11.dtd">
<svg version="1.1" id="Layer_1" xmlns="http://www.w3.org/2000/svg" xmlns:xlink="http://www.w3.org/1999/xlink" x="0px" y="0px"
	 width="288px" height="288px" viewBox="0 0 288 288" style="enable-background:new 0 0 288 288;" xml:space="preserve">
<g>
	<path d="M63.252,240.562c-0.148,0-0.294-0.055-0.407-0.159l-12.51-11.551c-0.122-0.113-0.192-0.272-0.192-0.438
		c-0.001-0.167,0.067-0.326,0.189-0.44L71.8,207.844l-9.497-11.869c-0.063-0.079-0.105-0.174-0.123-0.274L43.572,86.164
		c-0.054-0.317,0.151-0.62,0.466-0.688l69.433-14.875c0.167-0.035,0.342,0.002,0.479,0.103c0.139,0.102,0.227,0.256,0.243,0.427
		c0.004,0.042,0.451,4.245,2.851,4.245c0.235,0,0.488-0.039,0.754-0.114c3.333-0.96,3.125-5.645,3.123-5.691
		c-0.009-0.16,0.047-0.316,0.155-0.436c0.107-0.118,0.258-0.188,0.418-0.195l18.798-0.815l80.048-21.593
		c0.154-0.043,0.32-0.02,0.459,0.062c0.139,0.08,0.239,0.214,0.279,0.369l0.715,2.794l20.903,81.411
		c0.043,0.167,0.012,0.344-0.085,0.486l-3.872,5.679l5.242,7.865c0.141,0.21,0.134,0.485-0.017,0.688
		c-0.743,1.009-3.298,4.301-4.925,4.301l0,0c-0.379,0-0.717-0.161-0.951-0.455c-0.162-0.202-0.937-0.546-2.799-0.546
		c-2.566,0-5.729,0.633-7.69,1.539c-1.498,0.691-2.858,1.644-4.059,2.483c-1.568,1.098-2.807,1.964-3.9,1.964
		c-0.11,0-0.219-0.009-0.323-0.026c-1.569-0.253-2.073-3.432-2.549-10.017c-0.049-0.663-0.091-1.253-0.134-1.723
		c-0.042-0.467-0.216-0.467-0.383-0.467c-1.435,0-4.721,2.858-5.276,4.943c-0.412,1.505,1.504,4.357,2.902,6.441
		c1.394,2.076,2.176,3.293,2.033,4.162c-0.238,1.432-1.906,1.432-2.619,1.432c-0.492,0-1.054-0.031-1.647-0.065
		c-0.7-0.039-1.493-0.085-2.313-0.085c-0.483,0-0.927,0.016-1.356,0.047c-2.115,0.148-2.748,1.067-4.008,2.898
		c-0.758,1.103-1.701,2.474-3.264,4.039c-1.419,1.417-2.689,2.105-3.886,2.105c-1.744,0-3.108-1.479-3.944-4.28
		c-1.4-4.656-3.769-8.031-6.851-9.759c-0.579-0.327-1.107-0.492-1.572-0.492c-1.126,0-1.689,1.009-1.736,1.947
		c-0.033,0.657,0.195,1.453,0.948,1.528c2.961,0.297,5.718,9.828,5.599,12.211c-0.058,1.153-0.688,1.278-0.956,1.278
		c-0.05,0-0.104-0.005-0.158-0.014c-0.578-0.097-0.911-0.074-1.391-0.012c-0.377,0.048-0.847,0.108-1.63,0.108
		c-0.529,0-1.127-0.027-1.828-0.083c-0.056-0.004-0.115-0.006-0.176-0.006c-2.149,0-5.284,2.563-7.573,4.436
		c-1.48,1.211-2.349,1.905-2.971,2.112c-0.184,0.061-0.374,0.092-0.564,0.092c-0.643,0-1.181-0.335-1.804-0.724
		c-0.863-0.536-1.937-1.205-3.73-1.205c-0.586,0-1.223,0.072-1.894,0.215c-3.157,0.665-6.494,3.063-8.702,4.65
		c-1.613,1.158-2.289,1.629-2.826,1.629c-0.102,0-0.198-0.017-0.288-0.051c-0.244-0.092-1.191-0.39-3.132-0.39
		c-1.332,0-2.841,0.141-4.485,0.419c-2.294,0.388-4.562,2.252-6.383,3.75c-1.624,1.334-2.907,2.389-4.034,2.389
		c-0.224,0-0.436-0.042-0.632-0.124c-1.219-0.505-1.419-2.432-1.631-4.472c-0.193-1.855-0.412-3.959-1.365-3.959
		c-1.18,0.254-5.506,7.691-8.664,13.123c-4.913,8.449-8.021,13.62-9.741,14.192c-0.515,0.171-0.907,0.251-1.235,0.251
		c-1.082,0-1.29-0.847-1.427-1.407c-0.187-0.761-0.398-1.624-2.303-2.103c-0.158-0.04-0.313-0.06-0.46-0.06
		c-2.672,0-3.733,6.767-4.083,8.99c-0.122,0.78-0.169,1.06-0.242,1.232c-0.146,0.378-0.473,0.605-0.888,0.605
		c-0.396,0-0.849-0.19-1.751-0.57c-0.712-0.3-1.686-0.709-3.038-1.193c-0.197-0.071-0.392-0.105-0.595-0.105
		c-2.9,0-6.368,6.982-8.44,11.154c-0.215,0.432-0.42,0.846-0.615,1.233c-2.401,4.832-5.726,5.223-9.576,5.676
		c-0.322,0.038-0.651,0.077-0.986,0.119c-2.953,0.37-4.132,3.991-4.765,5.937c-0.281,0.864-0.41,1.259-0.689,1.472
		c-0.531,0.41-1.49,0.106-3.543-0.64c-1.047-0.381-2.234-0.813-3.239-1.037c-0.344-0.077-0.569-0.038-0.73,0.151
		c-0.399,0.47-0.422,1.688-0.265,2.711c0.017,0.056,0.026,0.115,0.026,0.177c0,0.331-0.269,0.6-0.601,0.6
		C63.256,240.562,63.254,240.562,63.252,240.562z M51.623,228.407l10.919,10.082c0.016-0.782,0.164-1.633,0.641-2.193
		c0.448-0.525,1.116-0.722,1.906-0.545c1.081,0.242,2.307,0.688,3.388,1.081c0.952,0.346,1.935,0.703,2.396,0.752
		c0.077-0.191,0.187-0.524,0.284-0.828c0.665-2.041,2.048-6.29,5.757-6.755c0.339-0.043,0.67-0.082,0.995-0.12
		c3.791-0.446,6.53-0.769,8.644-5.021c0.196-0.389,0.4-0.8,0.614-1.229c2.477-4.989,5.87-11.821,9.515-11.821
		c0.34,0,0.676,0.06,1,0.177c1.382,0.494,2.374,0.911,3.098,1.216c0.437,0.184,0.855,0.36,1.103,0.437
		c0.035-0.192,0.082-0.491,0.128-0.784c0.47-2.993,1.57-10.004,5.269-10.004c0.245,0,0.498,0.032,0.752,0.096
		c2.605,0.655,2.963,2.111,3.176,2.981c0.042,0.17,0.104,0.426,0.156,0.483c-0.002,0,0.034,0.009,0.105,0.009
		c0.19,0,0.479-0.063,0.856-0.19c1.414-0.47,5.666-7.781,9.083-13.656c5.547-9.539,8.142-13.72,9.701-13.72
		c2.035,0,2.313,2.675,2.559,5.035c0.143,1.374,0.339,3.256,0.9,3.488c0.051,0.021,0.105,0.031,0.169,0.031
		c0.697,0,2.006-1.075,3.271-2.116c1.933-1.588,4.337-3.563,6.945-4.005c1.71-0.29,3.287-0.437,4.686-0.437
		c1.906,0,2.985,0.273,3.441,0.427c0.34-0.122,1.274-0.794,2.104-1.39c2.29-1.646,5.751-4.132,9.154-4.851
		c0.751-0.159,1.473-0.24,2.142-0.24c2.137,0,3.424,0.802,4.364,1.387c0.486,0.304,0.871,0.542,1.17,0.542
		c0.063,0,0.123-0.01,0.186-0.03c0.444-0.147,1.535-1.04,2.59-1.902c2.515-2.057,5.99-4.899,8.601-4.697
		c0.673,0.053,1.239,0.079,1.736,0.079c0.707,0,1.116-0.053,1.478-0.099c0.443-0.058,0.881-0.097,1.462-0.023
		c0.152-1.204-1.014-5.999-2.798-9.146c-0.771-1.358-1.396-1.877-1.725-1.91c-1.27-0.128-2.104-1.271-2.027-2.783
		c0.077-1.534,1.109-3.087,2.935-3.087c0.674,0,1.401,0.218,2.16,0.646c3.357,1.882,5.921,5.499,7.411,10.46
		c0.468,1.563,1.331,3.426,2.796,3.426c0.851,0,1.872-0.591,3.037-1.755c1.484-1.487,2.394-2.809,3.124-3.87
		c1.288-1.874,2.22-3.228,4.91-3.416c0.458-0.033,0.931-0.049,1.442-0.049c0.854,0,1.665,0.046,2.38,0.086
		c0.577,0.033,1.122,0.063,1.58,0.063c1.364,0,1.412-0.288,1.435-0.427c0.073-0.442-1.035-2.093-1.845-3.298
		c-1.697-2.527-3.62-5.393-3.064-7.423c0.667-2.505,4.335-5.83,6.435-5.83c0.899,0,1.489,0.582,1.578,1.557
		c0.043,0.476,0.086,1.074,0.135,1.745c0.127,1.751,0.284,3.929,0.569,5.761c0.452,2.901,0.968,3.151,0.99,3.161
		c0.034,0.005,0.075,0.008,0.116,0.008c0.716,0,1.929-0.849,3.212-1.746c1.241-0.869,2.648-1.854,4.244-2.591
		c2.103-0.971,5.472-1.649,8.193-1.649c1.947,0,3.203,0.335,3.735,0.995c0,0,0.002,0.001,0.003,0.001
		c0.661,0,2.388-1.737,3.719-3.473l-5.23-7.848c-0.136-0.203-0.135-0.469,0.003-0.671l3.947-5.788L220.63,50.054l-0.564-2.205
		L140.541,69.3c-0.043,0.012-0.086,0.019-0.13,0.021l-18.292,0.793c-0.053,1.501-0.535,5.307-3.99,6.302
		c-0.374,0.106-0.738,0.161-1.085,0.161c-2.772,0-3.68-3.234-3.946-4.667l-68.246,14.62l18.485,108.817l9.746,12.181
		c0.195,0.245,0.171,0.599-0.058,0.813L51.623,228.407z"/>
</g>
</svg>
