<?xml version="1.0" encoding="iso-8859-1"?>
<!-- Generator: Adobe Illustrator 15.1.0, SVG Export Plug-In . SVG Version: 6.00 Build 0)  -->
<!DOCTYPE svg PUBLIC "-//W3C//DTD SVG 1.1//EN" "http://www.w3.org/Graphics/SVG/1.1/DTD/svg11.dtd">
<svg version="1.1" id="Layer_1" xmlns="http://www.w3.org/2000/svg" xmlns:xlink="http://www.w3.org/1999/xlink" x="0px" y="0px"
	 width="288px" height="288px" viewBox="0 0 288 288" style="enable-background:new 0 0 288 288;" xml:space="preserve">
<g>
	<path d="M136.019,233.801c-0.261,0-0.498-0.172-0.575-0.431l-24.919-84.599L88.482,73.955c-0.033-0.112-0.033-0.231,0.001-0.343
		c0.228-0.757,5.681-18.559,14.823-19.066c2.614-0.146,5.743-0.219,9.3-0.219c6.047,0,11.311,0.216,11.363,0.219
		c0.183,0.008,0.352,0.098,0.46,0.245c0.107,0.148,0.142,0.337,0.093,0.514l-3.922,14.227c-0.016,0.057-0.039,0.11-0.07,0.159
		l-4.907,7.843c-0.024,0.039-0.052,0.074-0.084,0.106c-1.42,1.423-4.87,5.665-3.795,8.172c0.58,1.355,1.473,1.916,2.418,2.51
		c1.246,0.782,2.535,1.592,2.535,4.104c0,1.264-0.324,2.663-0.667,4.146c-0.74,3.192-1.505,6.495,0.955,8.644
		c1.448,1.271,2.62,2.59,3.753,3.865c1.901,2.14,3.696,4.161,6.394,5.36c2.26,1.005,3.451,2.142,4.603,3.24
		c1.173,1.119,2.28,2.176,4.521,3.132c4.786,2.04,9.929,9.166,9.367,11.95c-0.115,0.571-0.315,1.125-0.527,1.712
		c-0.675,1.87-1.439,3.99,0.014,7.901c0.053,0.138,0.104,0.28,0.154,0.425c0.104,0.291,0.201,0.567,0.345,0.867
		c0.543,1.189,1.006,2.251,1.414,3.188c1.847,4.233,2.863,6.566,6.795,10.894c1.306,1.436,1.788,1.478,1.839,1.478
		c0.044-0.042,0.117-0.285,0.148-0.39c0.068-0.228,0.21-0.702,0.712-0.702c0.592,0,0.592,0,2.333,5.222
		c2.911,8.724,7.916,11.273,12.757,13.74c0.717,0.365,1.458,0.743,2.17,1.131c3.848,2.099,6.694,3.118,8.703,3.118
		c1.828,0,2.834-0.857,3.168-2.698c0.046-0.248,0.24-0.441,0.489-0.484c0.251-0.042,0.497,0.075,0.622,0.294
		c0.803,1.403,7.764,13.665,7.927,16.864c0.131,0.392,0.49,1.69-0.126,2.58c-0.244,0.352-0.736,0.771-1.699,0.771
		c-0.598,0-1.307-0.154-2.168-0.472c-0.844-0.311-1.51-0.468-1.979-0.468c-0.634,0-0.73,0.254-0.944,0.811
		c-0.193,0.505-0.486,1.268-1.445,1.404c-0.229,0.033-0.443,0.058-0.641,0.081c-1.196,0.138-1.294,0.149-1.294,1.534
		c0,0.779-0.187,1.852-0.384,2.988c-0.179,1.031-0.467,2.688-0.364,3.285c0.341-0.164,0.737-0.452,1.154-0.757
		c0.942-0.686,2.116-1.54,3.494-1.54c0.952,0,1.884,0.411,2.769,1.223c2.933,2.688,6.633,6.869,6.67,6.911
		c0.073,0.084,0.122,0.186,0.142,0.296l1.224,7.112c0.056,0.322-0.157,0.629-0.478,0.69l-62.481,12.018
		C136.095,233.797,136.057,233.801,136.019,233.801z M89.685,73.79l21.991,74.643l24.766,84.076l61.368-11.804l-1.095-6.364
		c-0.64-0.717-3.868-4.311-6.47-6.694c-0.665-0.61-1.306-0.907-1.957-0.907c-0.987,0-1.902,0.666-2.788,1.311
		c-0.51,0.371-0.991,0.723-1.477,0.93c-0.5,0.214-0.971,0.12-1.263-0.227c-0.556-0.661-0.339-2.105,0.062-4.407
		c0.18-1.036,0.365-2.107,0.365-2.783c0-2.336,0.896-2.558,2.357-2.727c0.186-0.021,0.388-0.045,0.606-0.076
		c0.224-0.032,0.298-0.129,0.496-0.646c0.227-0.591,0.605-1.581,2.064-1.581c0.62,0,1.403,0.178,2.395,0.542
		c0.716,0.264,1.306,0.397,1.753,0.397c0.536,0,0.668-0.19,0.712-0.253c0.266-0.381,0.084-1.228-0.046-1.578
		c-0.024-0.066-0.037-0.139-0.037-0.21c0-2.072-4.619-10.756-7.09-15.171c-0.697,1.502-2.03,2.286-3.919,2.286
		c-2.215,0-5.25-1.067-9.278-3.265c-0.697-0.38-1.398-0.737-2.141-1.115c-4.82-2.456-10.284-5.24-13.351-14.43
		c-0.553-1.659-0.959-2.878-1.231-3.646c-0.191,0.193-0.455,0.337-0.823,0.337c-0.709,0-1.55-0.577-2.727-1.87
		c-4.064-4.475-5.172-7.014-7.007-11.222c-0.406-0.932-0.867-1.988-1.401-3.159c-0.166-0.347-0.279-0.666-0.389-0.975
		c-0.048-0.134-0.095-0.267-0.146-0.4c-1.608-4.33-0.728-6.771-0.02-8.733c0.196-0.544,0.382-1.058,0.48-1.542
		c0.425-2.104-4.187-8.701-8.662-10.609c-2.44-1.041-3.68-2.224-4.878-3.367c-1.127-1.075-2.192-2.092-4.263-3.012
		c-2.934-1.306-4.813-3.421-6.802-5.66c-1.109-1.248-2.255-2.539-3.646-3.76c-3.001-2.621-2.115-6.444-1.335-9.817
		c0.327-1.413,0.637-2.747,0.637-3.874c0-1.85-0.828-2.369-1.974-3.089c-1.01-0.635-2.155-1.354-2.882-3.053
		c-1.553-3.619,3.409-8.841,3.999-9.443l4.826-7.713l3.698-13.412c-1.665-0.059-5.876-0.189-10.559-0.189
		c-3.534,0-6.641,0.073-9.233,0.218C95.505,56.181,90.261,71.977,89.685,73.79z"/>
</g>
</svg>
