<?xml version="1.0" encoding="iso-8859-1"?>
<!-- Generator: Adobe Illustrator 15.1.0, SVG Export Plug-In . SVG Version: 6.00 Build 0)  -->
<!DOCTYPE svg PUBLIC "-//W3C//DTD SVG 1.1//EN" "http://www.w3.org/Graphics/SVG/1.1/DTD/svg11.dtd">
<svg version="1.1" id="Layer_1" xmlns="http://www.w3.org/2000/svg" xmlns:xlink="http://www.w3.org/1999/xlink" x="0px" y="0px"
	 width="288px" height="288px" viewBox="0 0 288 288" style="enable-background:new 0 0 288 288;" xml:space="preserve">
<g>
	<path d="M231.61,228.009c-1.703,0-4.189-1.233-4.842-2.824c-0.341-0.822-0.222-1.799,0.32-2.61
		c0.376-0.563,0.863-0.897,1.305-0.897c0.729,0,1.91,0.406,2.249,1.309c0.11,0.22,1.015,0.752,2.019,0.752
		c0.179,0,0.347-0.019,0.499-0.054c0.493-0.116,0.686-0.19,0.76-0.229c0.004-0.058,0.004-0.147,0.003-0.225v-0.111
		c-0.011-0.138-0.399-0.501-0.609-0.696c-0.311-0.29-0.659-0.616-0.881-1.002c-0.266,0.107-0.664,0.266-1.241,0.266
		c-0.172,0-0.351-0.015-0.531-0.043c-1.777-0.275-2.833-0.624-3.422-1.132c-0.482-0.414-0.586-0.963-0.687-1.494
		c-0.058-0.307-0.117-0.624-0.249-0.969c-0.158-0.413-0.398-0.627-0.63-0.833c-0.249-0.222-0.558-0.497-0.558-0.958
		c0-0.181,0.049-0.375,0.158-0.566c-0.293,0.088-0.614,0.021-0.826-0.19c-0.31-0.307-0.331-0.609-0.345-0.79
		c-0.01-0.145-0.021-0.309-0.437-0.759c-0.222-0.24-0.431-0.449-0.618-0.637c-0.643-0.643-1.149-1.149-1.149-1.922
		c0-0.661,0.48-1.105,1.196-1.105c0.457,0,0.97,0.18,1.372,0.48c0.002,0.002,0.003,0.002,0.005,0.004
		c0.07-0.09,0.185-0.337,0.185-0.75c0-0.179-0.592-0.47-1.76-0.863c-0.438-0.148-0.851-0.288-1.146-0.449
		c-0.294-0.16-0.505-0.325-0.673-0.457c-0.091-0.071-0.216-0.169-0.258-0.181c0,0-0.07,0.002-0.256,0.104
		c-0.196,0.106-0.439,0.158-0.745,0.158c-1.099,0-3.075-0.702-4.519-1.215c-0.418-0.148-0.779-0.276-1.023-0.353
		c-0.41-0.128-0.722-0.19-0.953-0.19c-0.245,0-0.384,0.063-0.591,0.271c-0.524,0.524-1.754,0.919-2.86,0.919
		c-0.413,0-0.808-0.051-1.172-0.152c-1.021-0.282-1.057-0.868-1.024-1.106c0.08-0.587,0.741-0.903,1.324-0.903
		c0.252,0,0.485,0.057,0.687,0.166c0.14-0.154,0.325-0.494,0.472-0.848c-0.05,0.011-0.1,0.022-0.146,0.033
		c-0.333,0.078-0.646,0.151-0.921,0.151c-0.623,0-0.976-0.521-1.286-0.982c-0.205-0.304-0.438-0.649-0.678-0.736
		c-0.646-0.237-0.888-0.682-1.032-0.948c-0.016-0.028-0.034-0.064-0.052-0.093c-0.155-0.013-0.354-0.075-0.539-0.277
		c-0.745-0.814-0.974-4.409-0.917-5.043c0.005-0.055,0.005-0.57-1.463-2.043l-0.05-0.05c-0.251-0.249-0.265-0.5-0.23-0.667
		c0.074-0.363,0.391-0.49,0.526-0.544c0.009-0.003,0.02-0.008,0.029-0.012c0.001-0.183,0.004-0.39,0.008-0.606
		c0.005-0.307,0.01-0.638,0.008-0.928c-0.343,0.115-0.816,0.255-1.368,0.255c-1.124,0-1.909-0.665-2.54-1.199
		c-0.156-0.132-0.309-0.261-0.463-0.377c-0.288-0.216-0.374-0.458-0.39-0.645c-0.103,0.009-0.201,0.016-0.299,0.016
		c-0.638,0-1.091-0.269-1.704-0.764c-0.331-0.267-0.743-0.599-0.657-1.069c0.073-0.41,0.438-0.532,0.595-0.584
		c0.014-0.005,0.029-0.01,0.046-0.016c0.03-0.322-0.198-1.154-0.346-1.387c-0.087-0.142-0.151-0.29-0.214-0.434
		c-0.073-0.17-0.175-0.403-0.262-0.461c-0.91-0.604-0.416-3.721-0.409-3.752c0.162-0.83-0.102-1.657-0.299-2.049
		c-0.027-0.006-0.063-0.012-0.092-0.017c-0.177-0.027-0.507-0.08-0.699-0.396c-0.204-0.337-0.08-0.709-0.039-0.832
		c0.034-0.104,0.082-0.201,0.14-0.293c-0.4,0.178-0.87,0.326-1.412,0.318c0.523,0.771,1.072,2.08,1.168,2.628
		c0.016,0.091,0.036,0.184,0.055,0.273c0.097,0.452,0.207,0.966-0.118,1.367c-0.196,0.242-0.489,0.364-0.872,0.364
		c-0.515,0-0.752-0.188-0.907-0.388c-0.052-0.004-0.153-0.005-0.273,0.004c-1.286,0.087-2.085-0.405-3.029-1.065
		c-0.625-0.432-0.76-0.789-0.852-1.146c-0.035-0.134-0.044-0.169-0.136-0.252c-0.153,0.086-0.375,0.171-0.709,0.122
		c-0.462-0.064-0.802-0.45-3.649-4.727c-1.162-1.745-2.479-3.722-2.932-4.176c-0.786-0.785-1.151-1.247-1.102-1.75
		c0.041-0.42,0.362-0.634,0.468-0.704c0.036-0.032,0.086-0.125,0.121-0.217c-0.354-0.229-0.428-0.702-0.472-0.985
		c-0.04-0.256-0.085-0.545-0.228-0.804c-0.386-0.702-0.611-1.041-1.521-1.067c-1.012-0.033-1.396-0.301-1.526-1.061
		c-0.021-0.13-0.043-0.252-0.11-0.395c-0.104-0.219-0.252-0.417-0.384-0.593c-0.229-0.306-0.465-0.621-0.387-1.018
		c0.043-0.223,0.184-0.414,0.395-0.54c0.173-0.105,0.403-0.152,0.744-0.152c0.497,0,1.23,0.101,1.954,0.218
		c-0.298-0.1-0.585-0.26-0.791-0.518c-0.527-0.659-0.135-1.408,0.101-1.855c0.052-0.1,0.129-0.245,0.151-0.315
		c-0.054-0.928,1.854-3.043,2.242-3.372c0.029-0.114-0.001-0.42-0.021-0.626c-0.025-0.252-0.054-0.537-0.04-0.821
		c0.04-0.732,0.695-1.063,1.174-1.304c0.257-0.129,0.576-0.29,0.635-0.431c0.171-0.407-0.313-1.899-0.744-2.529
		c-0.269-0.388-0.301-0.791-0.278-1.113c-0.161,0.107-0.341,0.226-0.545,0.339c-0.075,0.042-0.095,0.068-0.096,0.068
		c-0.006,0.053,0.062,0.281,0.105,0.433c0.044,0.148,0.094,0.316,0.132,0.501c0.029,0.137,0.092,0.315,0.158,0.503
		c0.213,0.602,0.654,1.854-0.541,2.288c-0.208,0.075-0.416,0.114-0.617,0.114c-0.881,0-1.396-0.701-1.772-1.213l-0.021-0.029
		c-0.156-0.213-0.249-0.448-0.299-0.7c-0.029,0.013-0.059,0.024-0.091,0.034c-0.112,0.168-0.204,0.613-0.095,0.766
		c0.507,0.714,0.169,1.882-0.158,3.012l-0.096,0.334c-0.069,0.246-0.102,0.457-0.13,0.645c-0.072,0.476-0.182,1.195-1.182,1.247
		c-0.022,0.001-0.045,0.002-0.067,0.002c-0.348,0-0.591-0.132-0.764-0.31c0.032,0.151,0.032,0.296,0.003,0.437
		c-0.104,0.498-0.526,0.693-0.779,0.81c-0.044,0.021-0.088,0.041-0.129,0.063c-0.125,0.068-0.254,0.102-0.386,0.102
		c-0.604,0-0.823-0.609-0.982-1.055c-0.06-0.166-0.171-0.476-0.244-0.549c-0.228-0.205-0.509-0.583-0.835-1.021
		c-0.327-0.438-0.733-0.984-0.97-1.17c-0.755-0.593-1.039-2.114-0.993-2.955c0.018-0.35,0.047-0.923,0.616-1.034
		c0.063-0.336,0.158-1.272,0.149-3.857l-0.001-0.171c0-0.462,0.1-1.272,0.314-2.549c0.07-0.428,0.001-0.555-0.187-0.893
		l-0.055-0.101c-0.316-0.581-0.283-0.819,0.006-1.393l0.059-0.118c0.076-0.179,0.133-0.953,0.166-1.417
		c0.077-1.072,0.12-1.658,0.401-1.96c0.029-0.298-0.057-1.046-0.101-1.424c-0.03-0.269-0.058-0.509-0.068-0.681
		c-0.029-0.533,0.183-1.275,0.406-2.062c0.103-0.356,0.198-0.693,0.26-0.975c0.105-0.484-0.037-2.313-0.132-3.521
		c-0.06-0.768-0.111-1.431-0.111-1.788c0-0.724,0-0.996,0.405-1.25c-0.082-0.259-0.378-0.856-1.321-2.237
		c-0.119-0.173-0.202-0.298-0.232-0.35c-0.121-0.214-0.137-0.454-0.045-0.661c0.163-0.37,0.539-0.458,0.871-0.534
		c0.081-0.019,0.165-0.038,0.239-0.06c0.092-0.229,0.106-0.879-0.176-1.242c-0.344-0.441-1.865-1.53-2.774-2.182
		c-0.372-0.267-0.695-0.497-0.906-0.658c-0.882-0.67-0.653-1.712-0.543-2.212c0.008-0.037,0.018-0.08,0.025-0.119
		c-0.12-0.077-0.342-0.175-0.486-0.237l-0.184-0.081c-0.386-0.176-0.543-0.571-0.694-0.954c-0.184-0.461-0.336-0.795-0.639-0.904
		c-0.604-0.218-1.686-0.266-2.476-0.301c-0.251-0.011-0.476-0.021-0.662-0.034c-0.122,0.313-0.415,0.845-1.409,0.906
		c-0.034,0.002-0.065,0.003-0.098,0.003c-1.349,0-1.805-1.571-2.078-2.51c-0.051-0.176-0.118-0.407-0.163-0.515
		c-0.181-0.092-0.744-0.125-1.022-0.142c-0.546-0.032-0.907-0.054-1.165-0.276c-0.295-0.251-0.409-0.666-0.53-1.106
		c-0.059-0.214-0.119-0.436-0.188-0.573c-0.104-0.208-0.573-0.683-0.854-0.966c-0.226-0.229-0.422-0.427-0.54-0.579
		c-0.242-0.314-0.7-0.65-1.021-0.65c-0.608,0-0.972-0.408-1.264-0.737c-0.184-0.205-0.356-0.399-0.582-0.519
		c-0.301-0.157-0.58-0.288-0.852-0.416c-0.379-0.178-0.737-0.346-1.094-0.559c-0.622-0.374-0.822-1.309-1.016-2.213
		c-0.067-0.316-0.132-0.616-0.203-0.83c-0.195-0.584-1.676-1.854-2.084-2c-0.12-0.043-0.271-0.085-0.435-0.132
		c-0.614-0.175-1.454-0.414-1.947-0.943c-0.345-0.372-0.507-0.774-0.678-1.199c-0.13-0.324-0.265-0.659-0.501-1.036
		c-0.149-0.239-1.524-2.348-4.033-3.12c-1.224-0.377-1.603-0.622-1.828-0.769c-0.026-0.017-0.048-0.032-0.069-0.043
		c0.002,0.002-0.037-0.004-0.145-0.004c-0.061,0-0.13,0.002-0.213,0.005l-0.061,0.001c-0.921,0-2.005-0.715-2.961-1.346
		c-0.353-0.232-0.685-0.452-0.896-0.552c-0.489-0.234-0.755-0.667-0.968-1.015c-0.31-0.504-0.399-0.562-0.629-0.538
		c-0.349,0.036-0.957,0.353-1.545,0.658c-0.921,0.479-1.873,0.974-2.745,0.974c-0.123,0-0.243-0.01-0.357-0.03
		c-0.647-0.114-0.912-0.246-1.127-0.372c-0.018-0.01-0.032-0.021-0.049-0.028c-0.002,0.003-0.023-0.001-0.072-0.001
		c-0.079,0-0.194,0.008-0.342,0.023c-0.113,0.012-0.149,0.037-0.149,0.037c-0.016,0.021-0.041,0.125-0.056,0.187
		c-0.052,0.213-0.21,0.861-0.941,0.861c-0.06,0-0.125-0.005-0.196-0.016c-0.224-0.033-0.409-0.089-0.55-0.135
		c-0.014,0.042-0.028,0.093-0.044,0.153c-0.096,0.369,0.024,0.837,0.111,1.179c0.097,0.375,0.179,0.698-0.047,0.989
		c-0.125,0.161-0.316,0.254-0.524,0.254c-0.189,0-0.35-0.078-0.454-0.136c-0.136-0.077-0.442,0.011-0.578,0.169
		c-0.019,0.021-0.031,0.041-0.041,0.06c0.17,0.036,0.457,0.055,0.646,0.067c0.699,0.045,1.569,0.102,1.889,0.813
		c0.2,0.442,0.162,0.931-0.102,1.34c-0.255,0.395-0.688,0.648-1.103,0.648c-0.313,0-0.597-0.143-0.782-0.389
		c-0.186-0.248-0.775-0.53-1.672-0.604l-0.03-0.001c-0.242,0-0.528,0.255-0.805,0.502c-0.381,0.342-0.826,0.734-1.41,0.688
		c-0.687,0.122-3.51,2.537-5.031,3.838l-0.137,0.117c-0.549,0.469-1.013,0.891-1.385,1.229c-0.963,0.878-1.403,1.278-1.924,1.278
		c-0.189,0-0.545-0.063-0.783-0.485c-0.067-0.119-0.105-0.242-0.121-0.369c-0.321,0.224-0.701,0.374-1.046,0.401
		c-0.023,0.044-0.05,0.102-0.07,0.146c-0.147,0.318-0.395,0.853-1.065,0.995c-0.313,0.064-0.671,0.081-1.051,0.099
		c-0.218,0.011-0.445,0.021-0.681,0.041c0.031,0.052,0.059,0.108,0.083,0.17c0.203,0.521,0.092,1.39-0.443,1.881
		c-0.194,0.179-0.457,0.265-0.803,0.265c-0.553,0-1.296-0.227-1.952-0.427c-0.29-0.089-0.687-0.21-0.8-0.218
		c-0.156,0.001-0.424,0.05-0.707,0.102c-0.433,0.079-0.924,0.169-1.429,0.169c-0.421,0-0.662-0.181-0.79-0.331
		c-0.333-0.393-0.248-0.909-0.141-1.562c0.06-0.36,0.127-0.769,0.139-1.214c0.027-1.073-1.954-3.553-3.164-4.44
		c-0.52-0.38-1.12-0.451-1.603-0.508c-0.401-0.047-1.236-0.145-1.168-0.911c0.013-0.129,0.044-0.465-1.468-0.858
		c-1.481-0.384-3.646-1.54-4.262-2.553c-0.103,0.188-0.299,0.309-0.516,0.313c-0.004,0-0.008,0-0.012,0
		c-0.231,0-0.442-0.133-0.542-0.343c-0.328-0.483-3.297-2.014-4.892-2.835c-0.456-0.235-0.88-0.454-1.242-0.645
		c-1.938-1.023-7.157-1.897-9.393-2.117c-0.895-0.088-1.835-0.095-2.664-0.101c-1.799-0.013-2.789-0.021-2.854-0.872
		c-0.026-0.346,0.09-0.685,0.317-0.93c0.359-0.387,0.956-0.454,1.341-0.157c0.06,0.011,0.195,0.025,0.469,0.025
		c0.349,0,0.772-0.023,1.182-0.046c0.474-0.025,0.915-0.05,1.189-0.035l0.069,0.004c0.41,0.021,1.097,0.058,1.691,0.058
		c0.199,0,0.354-0.004,0.471-0.01c-0.03-0.205-0.026-0.453,0.146-0.671c0.083-0.105,0.273-0.284,0.617-0.284
		c0.09,0,0.185,0.013,0.29,0.037c0.212,0.05,0.461,0.139,0.749,0.242c0.474,0.169,1.052,0.375,1.493,0.409
		c-0.069-0.067-0.14-0.134-0.196-0.188c-0.093-0.088-0.186-0.175-0.271-0.261l-0.126-0.126c-0.344-0.345-0.982-0.986-1.354-0.986
		c-0.019,0-0.035,0.002-0.051,0.006c-0.313,0.084-0.786,0.156-1.288,0.232c-0.681,0.104-1.527,0.232-1.872,0.388
		c-0.164,0.072-0.334,0.203-0.514,0.342c-0.335,0.259-0.716,0.553-1.208,0.553c-0.239,0-0.472-0.071-0.688-0.212
		c-0.156-0.101-0.289-0.203-0.407-0.293c-0.101-0.078-0.235-0.182-0.305-0.214c-0.024,0.015-0.073,0.048-0.146,0.121
		c-0.421,0.419-1.249,0.914-1.979,1.351c-0.328,0.196-0.772,0.462-0.893,0.562c-0.162,0.212-0.521,0.513-2.957,0.513
		c-0.412,0-0.832-0.01-1.248-0.029h-0.041c-1.261,0-5.981,1.742-8.249,2.58c-0.87,0.32-1.497,0.553-1.805,0.648
		c-0.349,0.109-0.665,0.164-0.939,0.164c-0.676,0-0.979-0.328-1.101-0.524c-0.191-0.311-0.197-0.694-0.017-1.056
		c0.223-0.445,0.792-0.699,1.395-0.969c0.285-0.127,0.677-0.302,0.787-0.411c0.082-0.084,0.174-0.151,0.27-0.205
		c-0.123-0.041-0.237-0.112-0.334-0.21c-0.421-0.429-0.488-1.363-0.462-2.833c0.002-0.073,0.003-0.138,0.003-0.189
		c-0.12-0.257-0.75-0.717-1.181-0.9c0.012,0.055,0.023,0.108,0.035,0.155c0.059,0.263,0.127,0.561,0.127,0.853
		c0.003,0.101,0.196,0.388,0.312,0.56c0.353,0.523,0.835,1.239,0.483,2.084c-0.435,1.045-1.458,2.004-2.2,2.375
		c-0.031,0.044-0.033,0.208-0.034,0.306c-0.003,0.281-0.009,0.706-0.372,0.979c-0.194,0.146-0.483,0.271-0.817,0.418
		c-0.296,0.131-0.665,0.293-0.813,0.412c-0.393,0.312-2.253,1.183-3.473,1.586c-0.182,0.06-0.381,0.03-0.537-0.082
		c-0.155-0.111-0.249-0.29-0.251-0.481c-0.021-1.985,0.83-3.936,1.506-4.745c-0.198-0.19-0.549-0.469-1.024-0.746
		c-0.669-0.391-1.04-1.128-0.945-1.88c0.069-0.549,0.377-0.972,0.809-1.116c0.285-0.239,0.833-1.617,0.833-2.425
		c0-0.501-0.261-0.685-1.287-1.192l-0.22-0.109c-0.259-0.13-0.517-0.25-0.767-0.366c-0.827-0.386-1.608-0.749-2.096-1.307
		c-0.479-0.547-1.575-1.432-2.215-1.786c-0.443-0.245-0.746-0.731-0.831-1.334c-0.109-0.78,0.157-1.601,0.697-2.142
		c0.319-0.318,0.126-1.435-0.136-2.118c-0.075-0.196-0.042-0.418,0.087-0.584s0.335-0.252,0.544-0.228
		c0.234,0.027,0.587,0.042,1.049,0.042c9.451,0,63.591-6.32,66.222-7.093c0.045-0.025,0.093-0.045,0.144-0.058
		c0.181-0.046,0.373-0.006,0.52,0.109c0.104,0.081,0.713,0.637,2.516,3.566c1.454,2.364,1.24,3.571,0.823,4.434
		c0.211,0.26,0.86,0.796,1.652,0.796c1.056-0.006,45.299-3.232,68.546-4.938c0.22-0.013,0.423,0.086,0.543,0.265
		s0.135,0.408,0.038,0.602c-0.032,0.07-0.328,0.779,0.438,1.469c0.641,0.577,0.761,1.408,0.866,2.142
		c0.156,1.089,0.269,1.266,0.801,1.266c0.817,0,1.545,0.094,2.129,0.17c0.26,0.034,0.494,0.063,0.679,0.078
		c-0.015-0.101-0.03-0.211-0.046-0.314c-0.196-1.332-0.562-3.811,0.149-5.231c0.302-0.604-0.196-1.211-0.991-2.067
		c-0.489-0.527-0.952-1.025-1.117-1.595c-0.409-1.408,0.002-2.777,1.187-3.962c0.218-0.218,0.39-0.418,0.542-0.594
		c0.466-0.542,0.869-1.011,1.838-1.011c0.195,0,0.412,0.019,0.662,0.058c0.4,0.061,0.906,0.228,1.607,0.458
		c1.671,0.55,4.196,1.38,7.624,1.533c0.154,0.007,0.297,0.072,0.401,0.178c0.598,0.075,1.521,0.317,1.631,1.098
		c0.066,0.469-0.009,2.322-0.051,3.225c0.468,0.222,1.223,0.624,1.6,1.064c0.482,0.561,0.558,2.571,0.529,4.245
		c1.266,1.627,1.74,3.184,2.056,5.004c0.127,0.739,0.368,1.149,0.733,1.771c0.416,0.707,0.933,1.588,1.47,3.281
		c0.481,1.523,1.169,1.904,1.67,2.182c0.454,0.251,1.141,0.631,0.779,1.713c-0.321,0.965,0.014,1.9,1.193,3.336
		c0.976,1.183,1.473,2.416,1.604,2.772c0.415,0.547,2.82,3.758,3.694,5.798c0.702,1.64,0.794,2.064,0.76,2.363
		c0.411,0.71,2.459,3.789,3.847,5.873c1.023,1.539,1.908,2.869,2.242,3.397c0.378,0.599,1.703,2.231,2.985,3.81
		c3.6,4.435,3.576,4.483,3.352,4.955c-0.1,0.208-0.333,0.354-0.564,0.354c-0.282,0-0.658-0.147-1.354-0.43
		c-0.148-0.061-0.334-0.136-0.518-0.207c0.253,0.609,0.62,1.435,0.898,2.062c0.658,1.479,0.911,2.063,0.954,2.313
		c0.075,0.456,1.071,3.89,2.584,6.125c0.358,0.527,0.917,1.373,1.581,2.38c2.057,3.115,5.885,8.913,6.644,9.508
		c1.265,0.999,7.273,12.377,7.905,13.714c0.366,0.771,0.768,1.356,1.274,2.098c0.614,0.896,1.378,2.013,2.39,3.911
		c0.285,0.534,0.683,1.241,1.142,2.06c2.461,4.381,7.042,12.534,7.508,17.699c0.288,3.214,0.312,6.998,0.33,10.038
		c0.014,2.081,0.026,4.232,0.148,4.619c0.386,0.851,1.731,8.586,1.122,9.623c-0.128,0.218-0.349,0.349-0.59,0.349
		c-0.222,0-0.52,0-0.794-0.6c0.056,0.277,0.091,0.509,0.091,0.689c0,0.835-0.678,1.055-1.125,1.2
		c-0.291,0.094-0.62,0.201-0.963,0.44c-0.316,0.222-0.334,1.292-0.345,1.932c-0.014,0.876-0.024,1.568-0.459,1.939
		c-0.341,0.291,0.025,2.354,0.201,3.346c0.162,0.91,0.356,1.769,0.514,2.458c0.272,1.201,0.39,1.747,0.331,2.109
		c-0.053,0.319-0.323,1.045-1.692,1.11c-0.124,0.258-0.279,0.86-0.377,1.241c-0.289,1.122-0.49,1.824-0.964,2.119
		c-0.04,0.025-0.059,0.217-0.069,0.331c-0.025,0.264-0.103,1.066-0.942,1.066c-0.042,0-0.087-0.002-0.135-0.007
		c-0.556-0.063-0.929-0.498-1.259-0.882c-0.173-0.201-0.379-0.441-0.547-0.532c-0.003,0.095,0,0.21,0.002,0.292
		c0.012,0.406,0.026,0.913-0.362,1.224c-0.219,0.174-0.664,0.453-1.229,0.806c-0.537,0.336-1.146,0.717-1.638,1.058
		c-0.48,0.333-0.894,0.481-1.339,0.481c-0.088,0-0.172-0.006-0.253-0.012c-0.108-0.008-0.192-0.03-0.319,0.033
		c-0.163,0.081-0.336,0.121-0.515,0.121c-0.356,0-0.671-0.157-1.003-0.324c-0.434-0.218-0.926-0.465-1.69-0.5
		c-0.341-0.017-0.518,0.052-0.563,0.114c-0.066,0.093-0.038,0.333,0.007,0.463c0.097,0.282-0.026,0.599-0.291,0.735
		C235.947,226.643,233.242,228.009,231.61,228.009z M228.436,222.878c-0.092,0.049-0.337,0.263-0.51,0.657
		c-0.127,0.289-0.238,0.731-0.048,1.192c0.407,0.993,2.36,2.081,3.732,2.081c0.978,0,2.736-0.738,3.691-1.191
		c-0.022-0.302,0.016-0.682,0.249-1.015c0.212-0.305,0.652-0.67,1.603-0.627c1.02,0.047,1.714,0.396,2.174,0.627
		c0.165,0.083,0.391,0.196,0.464,0.197c0.271-0.144,0.587-0.179,0.924-0.152c0.052,0.004,0.105,0.009,0.163,0.009
		c0.088,0,0.27,0,0.655-0.268c0.514-0.356,1.137-0.746,1.686-1.089c0.42-0.263,0.82-0.513,1.029-0.661
		c0.006-0.085,0.002-0.22-0.001-0.316c-0.012-0.406-0.025-0.911,0.318-1.265c0.133-0.137,0.372-0.3,0.757-0.3
		c0.729,0,1.201,0.548,1.579,0.988c0.07,0.082,0.165,0.191,0.255,0.284c0.044-0.313,0.161-0.734,0.577-1.01
		c0.147-0.187,0.346-0.956,0.465-1.42c0.308-1.193,0.551-2.137,1.336-2.137c0.411,0,0.643-0.082,0.712-0.132
		c0.001-0.218-0.168-0.965-0.318-1.627c-0.158-0.702-0.356-1.575-0.524-2.514c-0.404-2.281-0.597-3.729,0.16-4.432
		c0.065-0.174,0.074-0.718,0.08-1.083c0.018-1.089,0.037-2.323,0.856-2.896c0.49-0.342,0.946-0.49,1.279-0.599
		c0.096-0.031,0.219-0.07,0.293-0.103c-0.017-0.209-0.106-0.617-0.188-0.981c-0.329-1.485-0.512-2.503-0.073-3.088
		c0.464-0.618,0.847-1.078,0.862-1.097c0.119-0.145,0.296-0.227,0.477-0.216c-0.264-1.872-0.593-3.702-0.775-4.097
		c-0.223-0.399-0.254-1.396-0.276-5.15c-0.02-3.019-0.043-6.774-0.326-9.938c-0.443-4.909-4.941-12.917-7.358-17.219
		c-0.463-0.825-0.863-1.537-1.154-2.083c-0.98-1.84-1.724-2.925-2.321-3.798c-0.516-0.753-0.961-1.404-1.368-2.262
		c-0.947-2.006-6.654-12.553-7.563-13.284c-0.841-0.659-3.745-5.007-6.903-9.791c-0.66-1-1.216-1.842-1.572-2.367
		c-1.654-2.443-2.679-6.018-2.773-6.6c-0.047-0.18-0.502-1.202-0.867-2.023c-1.06-2.381-1.288-2.963-1.288-3.28
		c0-0.349,0.26-0.703,0.755-0.703c0.272,0,0.624,0.107,1.11,0.294c-0.648-0.83-1.513-1.895-2.228-2.775
		c-1.364-1.681-2.652-3.267-3.067-3.926c-0.327-0.516-1.208-1.84-2.228-3.373c-4.069-6.114-4.069-6.158-4.069-6.443
		c0-0.096,0.016-0.169,0.024-0.212c-0.012-0.091-0.099-0.45-0.665-1.773c-0.879-2.05-3.574-5.581-3.602-5.617
		c-0.04-0.053-0.072-0.111-0.093-0.175c-0.004-0.012-0.443-1.295-1.427-2.488c-1.02-1.24-1.983-2.742-1.406-4.478
		c0.021-0.063,0.031-0.105,0.035-0.133c-0.059-0.042-0.17-0.104-0.257-0.151c-0.601-0.333-1.606-0.89-2.233-2.869
		c-0.495-1.564-0.975-2.38-1.359-3.035s-0.717-1.221-0.882-2.175c-0.294-1.7-0.737-3.137-1.943-4.626
		c-0.09-0.11-0.137-0.249-0.134-0.391c0.033-1.488-0.059-3.305-0.249-3.67c-0.267-0.295-1.046-0.698-1.523-0.896
		c-0.234-0.097-0.383-0.331-0.37-0.585c0.058-1.138,0.118-2.84,0.088-3.325c-0.171-0.097-0.643-0.181-0.943-0.181
		c-0.168,0-0.323-0.063-0.438-0.172c-3.357-0.214-5.914-1.055-7.469-1.566c-0.622-0.204-1.112-0.366-1.414-0.412
		c-0.189-0.029-0.347-0.043-0.48-0.043c-0.405,0-0.499,0.094-0.929,0.593c-0.157,0.183-0.354,0.41-0.604,0.66
		c-0.868,0.868-1.165,1.804-0.882,2.778c0.086,0.296,0.472,0.712,0.844,1.113c0.794,0.855,1.882,2.026,1.186,3.421
		c-0.542,1.083-0.2,3.403-0.035,4.52c0.064,0.44,0.099,0.678,0.099,0.841c0,0.144-0.051,0.855-1.06,0.855
		c-0.275,0-0.617-0.044-1.013-0.095c-0.551-0.071-1.235-0.16-1.976-0.16c-1.658,0-1.856-1.381-1.988-2.294
		c-0.084-0.584-0.164-1.136-0.481-1.421c-0.715-0.645-0.922-1.377-0.914-1.974c-7.905,0.58-66.637,4.885-67.849,4.885
		c-1.544,0-2.898-1.234-2.898-1.979c0-0.204,0.082-0.369,0.154-0.515c0.185-0.375,0.57-1.153-0.753-3.307
		c-1.159-1.883-1.78-2.712-2.062-3.053c-0.943,0.229-3.192,0.547-8.787,1.261c-5.637,0.72-13.104,1.609-20.485,2.441
		c-7.068,0.797-30.631,3.396-37.045,3.396c-0.105,0-0.206-0.001-0.301-0.002c0.177,0.784,0.262,1.883-0.395,2.538
		c-0.274,0.274-0.415,0.717-0.357,1.125c0.03,0.217,0.118,0.395,0.224,0.453c0.76,0.421,1.969,1.396,2.536,2.045
		c0.321,0.366,0.991,0.679,1.7,1.009c0.261,0.121,0.529,0.246,0.797,0.381l0.215,0.106c1.005,0.498,1.955,0.968,1.955,2.269
		c0,0.902-0.623,3.197-1.61,3.549c-0.025,0.046-0.063,0.166-0.037,0.33c0.024,0.149,0.104,0.359,0.355,0.505
		c0.683,0.398,1.82,1.174,1.769,1.9c-0.019,0.256-0.162,0.472-0.391,0.593c-0.222,0.232-1,1.513-1.211,3.147
		c1.044-0.42,2.097-0.951,2.261-1.074c0.268-0.215,0.68-0.396,1.078-0.571c0.151-0.066,0.344-0.15,0.471-0.216
		c0.001-0.033,0.001-0.067,0.002-0.096c0.004-0.332,0.012-1.021,0.695-1.365c0.458-0.229,1.291-0.946,1.631-1.763
		c0.096-0.231-0.085-0.527-0.371-0.952c-0.254-0.378-0.517-0.768-0.517-1.23c0-0.158-0.05-0.376-0.098-0.587
		c-0.106-0.469-0.217-0.954,0.075-1.343c0.112-0.149,0.324-0.332,0.7-0.354c0.024-0.001,0.048-0.002,0.071-0.002
		c0.883,0,2.671,1.174,2.671,2.134c0,0.064-0.002,0.152-0.004,0.256c-0.014,0.755,0.006,1.237,0.039,1.542
		c0.092-0.264,0.182-0.723,0.182-1.493c0-0.938,0.226-1.349,0.577-1.606c-0.092-0.477,0.043-0.772,0.176-0.938
		c0.162-0.203,0.407-0.319,0.672-0.319c0.524,0,1.003,0.424,1.138,1.007c0.122,0.513-0.102,0.971-0.264,1.306
		c-0.046,0.094-0.11,0.227-0.137,0.309c0.336,0.246,1.531,0.72,2.125,0.955c0.837,0.332,1.135,0.454,1.301,0.598
		c0.216,0.185,0.295,0.475,0.199,0.736c-0.052,0.14-0.146,0.249-0.267,0.333c1.634-0.526,2.947-0.866,3.609-0.832
		c0.398,0.019,0.8,0.027,1.193,0.027c1.312,0,1.917-0.099,2.099-0.152c0.163-0.164,0.467-0.353,1.136-0.752
		c0.604-0.36,1.432-0.855,1.747-1.169c0.322-0.322,0.646-0.479,0.989-0.479c0.431,0,0.755,0.249,1.041,0.469
		c0.1,0.076,0.206,0.159,0.327,0.237c0.025,0.017,0.038,0.02,0.039,0.02c0.081,0,0.326-0.189,0.473-0.303
		c0.218-0.168,0.464-0.357,0.759-0.488c0.491-0.22,1.35-0.351,2.18-0.478c0.468-0.071,0.91-0.139,1.162-0.206
		c0.117-0.031,0.237-0.046,0.357-0.046c0.871,0,1.642,0.774,2.205,1.34l0.123,0.124c0.079,0.079,0.163,0.157,0.247,0.236
		c0.464,0.438,0.944,0.891,0.816,1.471c-0.05,0.229-0.216,0.537-0.722,0.706c-0.18,0.06-0.381,0.089-0.6,0.089
		c-0.66,0-1.413-0.269-2.019-0.484c-0.042-0.015-0.084-0.029-0.124-0.044c-0.008,0.129-0.042,0.264-0.128,0.393
		c-0.092,0.139-0.213,0.234-0.41,0.298c2.651,0.391,6.337,1.138,8.004,2.019c0.358,0.189,0.779,0.406,1.231,0.639
		c0.452,0.233,0.871,0.45,1.26,0.654c-0.03-0.161-0.05-0.341-0.07-0.53c-0.026-0.247-0.08-0.752-0.173-0.901
		c-0.463-0.245-0.685-0.619-0.593-1.008c0.16-0.677,1.034-0.677,1.363-0.677c0.192,0,0.414,0.011,0.659,0.032
		c1.521,0.136,2.108,0.301,2.418,0.679c0.112,0.138,0.179,0.299,0.196,0.473c0.202-0.362,0.549-0.804,1.22-0.915
		c0.427-0.071,0.8-0.005,1.054,0.105c0.004-0.019,0.008-0.036,0.013-0.053c0.188-0.797,0.366-1.549,1.05-1.549
		c0.155,0,0.307,0.051,0.439,0.146c0.345,0.251,1.26,0.915,1.034,1.818c-0.173,0.69-1.495,1.849-2.177,1.907
		c-0.067,0.006-0.163,0.011-0.271,0.017c-0.175,0.009-0.602,0.03-0.805,0.095c-0.067,0.378-0.342,0.711-0.587,1.008
		c-0.014,0.016-0.027,0.032-0.041,0.05c0.084,0.056,0.165,0.115,0.244,0.174c0.324,0.239,0.631,0.466,1.311,0.486
		c1.022,0.029,1.36,0.434,1.565,0.871c0.168-0.059,0.451-0.213,0.635-0.313c0.422-0.229,0.82-0.446,1.195-0.446
		c0.182,0,0.352,0.051,0.491,0.147c0.398,0.279,0.417,0.78,0.435,1.266c0.008,0.214,0.026,0.715,0.125,0.799
		c0.33,0.105,0.569,0.027,0.875-0.082c0.228-0.082,0.485-0.175,0.788-0.175c0.745,0,1.485,0.827,1.77,1.183
		c0.163,0.204,0.175,0.491,0.03,0.708c-0.146,0.218-0.415,0.315-0.666,0.243c-0.001-0.001-0.271-0.075-0.586-0.075
		c-0.219,0-0.404,0.036-0.535,0.106c-0.364,0.192-0.892,0.245-1.624,0.132c0.159,0.201,0.253,0.424,0.287,0.673
		c0.04,0.005,0.081,0.01,0.118,0.015c0.557,0.065,1.397,0.164,2.172,0.731c1.114,0.816,3.7,3.652,3.654,5.439
		c-0.014,0.528-0.091,0.999-0.153,1.378c-0.025,0.154-0.058,0.346-0.072,0.49c0.353-0.019,0.71-0.084,1.031-0.143
		c0.354-0.064,0.658-0.12,0.931-0.12c0.248,0,0.563,0.092,1.143,0.27c0.518,0.158,1.229,0.375,1.602,0.375
		c0.014,0,0.024-0.001,0.034-0.001c0.064-0.096,0.102-0.246,0.108-0.365c-1.001-0.017-1.528-0.148-1.616-0.687
		c-0.1-0.613,0.584-0.842,0.876-0.939c0.886-0.294,1.718-0.333,2.387-0.363c0.345-0.017,0.643-0.03,0.859-0.075
		c0.064-0.014,0.106-0.074,0.223-0.324c0.135-0.293,0.388-0.838,1.048-0.838c0.249,0,0.635-0.271,0.709-0.424
		c-0.092-0.498,0.156-1.091,0.434-1.44c0.271-0.34,0.613-0.527,0.966-0.527c0.22,0,0.436,0.073,0.623,0.212
		c0.709,0.519,0.266,1.396-0.058,2.035c-0.023,0.046-0.049,0.096-0.076,0.15c0.181-0.158,0.382-0.342,0.58-0.521
		c0.378-0.345,0.85-0.773,1.413-1.255l0.136-0.117c3.404-2.91,4.963-4.127,5.808-4.127c0.034,0,0.066,0.001,0.098,0.005
		c0.095-0.008,0.358-0.244,0.517-0.385c0.418-0.375,0.947-0.836,1.687-0.807c-0.067-0.105-0.114-0.231-0.137-0.381
		c-0.062-0.408,0.06-0.813,0.341-1.139c0.306-0.355,0.777-0.585,1.251-0.613c-0.082-0.396-0.136-0.878-0.011-1.36
		c0.087-0.333,0.289-1.11,1.025-1.11c0.185,0,0.35,0.054,0.508,0.104c0.07,0.022,0.142,0.045,0.217,0.064
		c0.091-0.34,0.317-0.94,1.219-1.038c0.195-0.021,0.346-0.03,0.471-0.03c0.365,0,0.545,0.087,0.727,0.193
		c0.101,0.06,0.24,0.141,0.73,0.227c0.045,0.008,0.095,0.012,0.148,0.012c0.579,0,1.436-0.445,2.191-0.838
		c0.72-0.374,1.399-0.728,1.976-0.787c1.036-0.108,1.484,0.63,1.775,1.104c0.15,0.245,0.292,0.478,0.461,0.559
		c0.285,0.136,0.635,0.366,1.04,0.633c0.692,0.457,1.739,1.147,2.3,1.147c0.116-0.004,0.201-0.005,0.273-0.005
		c0.427,0,0.604,0.07,0.866,0.239c0.162,0.104,0.465,0.301,1.529,0.628c2.221,0.684,3.918,2.384,4.697,3.631
		c0.292,0.468,0.461,0.888,0.597,1.225c0.146,0.361,0.25,0.622,0.443,0.83c0.265,0.284,0.919,0.471,1.396,0.606
		c0.195,0.056,0.371,0.106,0.511,0.157c0.672,0.239,2.476,1.726,2.817,2.748c0.093,0.278,0.164,0.609,0.239,0.96
		c0.09,0.42,0.276,1.293,0.464,1.438c0.299,0.179,0.615,0.327,0.981,0.499c0.283,0.133,0.576,0.27,0.898,0.439
		c0.42,0.221,0.698,0.532,0.922,0.783c0.133,0.149,0.298,0.335,0.367,0.335c0.877,0,1.65,0.701,1.969,1.115
		c0.073,0.094,0.264,0.285,0.446,0.471c0.518,0.523,0.898,0.922,1.074,1.273c0.12,0.243,0.197,0.521,0.271,0.792
		c0.04,0.145,0.096,0.349,0.145,0.466c0.122,0.016,0.314,0.027,0.465,0.036c0.762,0.046,1.626,0.097,1.975,0.706
		c0.113,0.199,0.192,0.47,0.292,0.813c0.167,0.574,0.479,1.645,0.926,1.645c0.346-0.021,0.357-0.054,0.414-0.213
		c0.069-0.195,0.254-0.713,0.907-0.713c0.045,0,0.094,0.002,0.146,0.008c0.171,0.019,0.44,0.031,0.754,0.045
		c0.867,0.038,2.055,0.091,2.829,0.37c0.835,0.301,1.144,1.077,1.348,1.591c0.045,0.112,0.104,0.26,0.145,0.334l0.101,0.044
		c0.498,0.219,1.063,0.467,1.198,1.018c0.057,0.219,0.009,0.44-0.048,0.696c-0.12,0.548-0.135,0.822,0.098,0.999
		c0.205,0.156,0.518,0.38,0.878,0.638c1.407,1.008,2.605,1.885,3.023,2.421c0.504,0.649,0.579,1.634,0.394,2.271
		c-0.154,0.525-0.446,0.729-0.665,0.807c-0.062,0.022-0.124,0.042-0.186,0.06c1.231,1.822,1.713,2.808,1.192,3.381
		c-0.084,0.093-0.159,0.16-0.223,0.21c-0.002,0.091-0.002,0.212-0.002,0.343c0,0.312,0.053,0.983,0.108,1.694
		c0.146,1.881,0.24,3.26,0.108,3.871c-0.07,0.318-0.171,0.673-0.278,1.048c-0.17,0.595-0.381,1.335-0.362,1.664
		c0.009,0.151,0.034,0.369,0.063,0.612c0.145,1.255,0.208,1.996-0.167,2.354c-0.057,0.242-0.1,0.842-0.129,1.252
		c-0.067,0.935-0.118,1.524-0.289,1.867l-0.062,0.122c-0.029,0.058-0.061,0.12-0.082,0.167c0.014,0.028,0.033,0.066,0.059,0.112
		l0.052,0.094c0.226,0.407,0.458,0.829,0.319,1.67c-0.198,1.178-0.298,1.969-0.298,2.352v0.167c0.017,4.46-0.256,4.642-0.571,4.854
		c-0.068,0.045-0.134,0.079-0.195,0.104c-0.038,0.7,0.243,1.719,0.537,1.949c0.169,0.133,0.351,0.326,0.537,0.552
		c-0.04-0.188-0.056-0.371-0.039-0.548c0.032-0.35,0.186-0.643,0.445-0.847c0.19-0.149,0.392-0.225,0.599-0.225
		c0.643,0,0.883,0.637,1.042,1.059c0.045,0.118,0.105,0.279,0.142,0.332l0.081,0.115c0.134,0.192,0.529,0.76,0.731,0.893
		c0.545,0.047,0.705,0.59,0.784,0.856c0.016,0.052,0.037,0.123,0.059,0.184c0.009-0.053,0.018-0.11,0.025-0.163
		c0.032-0.211,0.072-0.473,0.161-0.789c0.03-0.108,0.064-0.225,0.099-0.343c0.148-0.514,0.497-1.718,0.333-1.981
		c-0.321-0.448-0.322-1.074-0.17-1.585c-1.22-0.174-2.347-0.424-2.911-0.913c-0.271-0.233-0.551-0.525-0.574-0.92
		c-0.022-0.385,0.205-0.633,0.356-0.798c0.119-0.13,0.188-0.21,0.22-0.337c0.04-0.158-0.05-0.397-0.136-0.629
		c-0.143-0.384-0.439-1.183,0.349-1.625c0.188-0.106,0.415-0.161,0.671-0.161c0.859,0,2.176,0.675,2.429,1.245
		c0.09,0.2,0.095,0.398,0.079,0.563c0.043-0.001,0.087-0.003,0.131-0.005c0.116-0.005,0.235-0.009,0.354-0.009
		c1.389,0,1.597,0.864,1.597,1.38c0,0.323-0.024,0.636-0.047,0.938c-0.042,0.551-0.085,1.121,0.082,1.349l0.021,0.029
		c0.312,0.424,0.551,0.724,0.805,0.724c0.061,0,0.13-0.014,0.206-0.042c0.008-0.003,0.014-0.005,0.02-0.008
		c0.014-0.15-0.123-0.538-0.199-0.752c-0.076-0.217-0.154-0.44-0.201-0.656c-0.03-0.147-0.07-0.282-0.108-0.409
		c-0.148-0.507-0.398-1.355,0.559-1.889c0.182-0.101,0.349-0.213,0.51-0.321c0.354-0.237,0.659-0.442,1.018-0.442
		c0.23,0,0.44,0.087,0.605,0.251c0.33,0.332,0.265,0.771,0.222,1.061c-0.041,0.274-0.061,0.449,0.039,0.595
		c0.426,0.62,1.305,2.62,0.864,3.673c-0.23,0.551-0.77,0.821-1.203,1.04c-0.169,0.085-0.448,0.226-0.516,0.311
		c-0.007,0.19,0.016,0.41,0.037,0.622c0.057,0.571,0.128,1.282-0.434,1.689c-0.307,0.228-1.612,1.896-1.78,2.38
		c0.022,0.325-0.136,0.628-0.29,0.922c-0.078,0.148-0.24,0.457-0.224,0.557c0.065,0.076,0.367,0.21,0.89,0.21
		c0.427,0,0.791-0.091,0.963-0.182c0.142-0.075,0.26-0.156,0.364-0.228c0.202-0.138,0.41-0.281,0.686-0.281
		c0.558,0,0.76,0.536,0.825,0.713c0.15,0.399,0.053,0.895-0.269,1.357c-0.358,0.517-1.107,1.121-2.04,1.121
		c-0.115,0-0.232-0.01-0.346-0.028c-0.156-0.026-0.333-0.057-0.522-0.09c-0.709-0.122-1.634-0.281-2.278-0.334
		c0.116,0.164,0.237,0.353,0.341,0.57c0.139,0.292,0.182,0.542,0.209,0.707c0.003,0.011,0.004,0.021,0.006,0.03
		c0.067,0.013,0.184,0.026,0.375,0.032c1.508,0.045,2.06,0.825,2.535,1.689c0.244,0.443,0.312,0.879,0.361,1.197
		c0.008,0.05,0.017,0.109,0.026,0.161c0.232,0.097,0.405,0.297,0.473,0.563c0.119,0.467-0.13,1.169-0.518,1.539
		c0.098,0.13,0.289,0.354,0.665,0.729c0.538,0.538,1.774,2.394,3.083,4.359c1.015,1.524,2.37,3.56,2.885,4.143
		c0.104-0.068,0.26-0.148,0.473-0.148c0.319,0,0.577,0.187,0.766,0.349c0.396,0.344,0.479,0.665,0.533,0.878
		c0.041,0.159,0.064,0.247,0.375,0.462c0.809,0.565,1.383,0.916,2.26,0.854c0.099-0.007,0.186-0.01,0.263-0.01
		c0.379,0,0.643,0.075,0.85,0.251c-0.01-0.05-0.021-0.099-0.029-0.142c-0.022-0.104-0.045-0.209-0.063-0.315
		c-0.098-0.558-0.857-2.137-1.145-2.38c-0.09-0.046-0.476-0.088-0.706-0.112c-0.638-0.069-1.356-0.146-1.476-0.767
		c-0.066-0.11-0.273-0.357-0.414-0.526c-0.567-0.678-1.015-1.214-0.828-1.762c0.087-0.258,0.302-0.442,0.588-0.506
		c0.16-0.036,0.316-0.054,0.464-0.054c0.73,0,1.201,0.409,1.698,0.904c0.193,0.194,0.316,0.401,0.4,0.578
		c0.102-0.038,0.202-0.057,0.304-0.057c0.396,0,0.62,0.274,0.74,0.422c0.13,0.157,0.183,0.223,0.431,0.223
		c0.461,0,0.832-0.184,1.262-0.397c0.354-0.176,0.722-0.357,1.157-0.437c0.402-0.073,1.088-1.195,1.126-1.599
		c-0.084-0.362-0.008-0.773,0.193-1.037c0.152-0.2,0.376-0.315,0.613-0.315c0.246,0,0.595,0.118,0.861,0.681
		c0.491,1.036,0.301,1.579-0.521,2.684c-0.441,0.597-1.053,1.006-1.545,1.335c-0.187,0.125-0.416,0.278-0.578,0.413
		c0.188,0.08,0.385,0.222,0.525,0.481c0.34,0.637,0.659,1.774,0.441,2.889c-0.176,0.919-0.135,2.242-0.012,2.592
		c0.319,0.256,0.477,0.618,0.605,0.915c0.048,0.109,0.093,0.213,0.132,0.275c0.2,0.317,0.735,1.736,0.435,2.521
		c-0.054,0.14-0.129,0.248-0.214,0.336c0.476,0.369,0.64,0.398,0.827,0.398c0.13,0,0.295-0.021,0.504-0.047
		c0.111-0.014,0.231-0.028,0.366-0.043c0.515-0.055,1.087-0.249,1.466-0.377c0.308-0.104,0.448-0.152,0.602-0.152
		c0.243,0,0.485,0.155,0.578,0.38c0.037,0.091,0.135,0.41-0.171,0.714c-0.168,0.169-0.419,0.263-0.925,0.442
		c-0.163,0.058-0.428,0.151-0.647,0.244c0.052,0.043,0.103,0.086,0.154,0.13c0.556,0.47,1.08,0.914,1.765,0.914
		c0.427,0,0.807-0.13,1.111-0.234c0.241-0.083,0.449-0.154,0.659-0.154c0.434,0,0.748,0.302,0.78,0.752
		c0.026,0.396,0.018,0.998,0.01,1.528c-0.004,0.241-0.008,0.471-0.008,0.661c0,0.332-0.118,0.563-0.267,0.723
		c1.06,1.128,1.51,1.948,1.449,2.626c-0.068,0.763,0.239,3.388,0.556,4.038c0.486,0.096,0.693,0.479,0.813,0.697
		c0.108,0.201,0.169,0.313,0.388,0.393c0.605,0.219,0.969,0.759,1.262,1.192c0.103,0.152,0.253,0.375,0.341,0.451
		c0.147-0.012,0.395-0.07,0.598-0.117c0.332-0.078,0.646-0.151,0.919-0.151c0.398,0,0.614,0.17,0.726,0.312
		c0.086,0.111,0.218,0.351,0.128,0.706c-0.003,0.014-0.287,1.143-0.866,1.838c0.614-0.117,1.093-0.347,1.239-0.493
		c0.29-0.289,0.715-0.622,1.439-0.622c0.359,0,0.775,0.078,1.311,0.245c0.267,0.083,0.638,0.215,1.068,0.367
		c1.205,0.429,3.224,1.146,4.116,1.146c0.133,0,0.182-0.017,0.182-0.017c0.3-0.165,0.565-0.244,0.821-0.244
		c0.44,0,0.735,0.231,0.996,0.436c0.147,0.115,0.3,0.234,0.508,0.348c0.203,0.112,0.568,0.235,0.954,0.365
		c1.147,0.388,2.575,0.87,2.575,2.001c0,1.142-0.574,1.972-1.366,1.972c-0.255,0-0.512-0.092-0.742-0.266
		c-0.185-0.138-0.443-0.235-0.636-0.24c0.059,0.243,0.325,0.519,0.785,0.979c0.197,0.198,0.417,0.418,0.651,0.672
		c0.465,0.505,0.637,0.862,0.706,1.16c0.121-0.104,0.251-0.224,0.355-0.319c0.491-0.452,0.999-0.919,1.518-1.022
		c0.138-0.027,0.3-0.041,0.481-0.041c0.482,0,2.992,0.244,3.284,1.403c0.023,0.094,0.085,0.257,0.146,0.415
		c0.238,0.628,0.485,1.277,0.152,1.759c-0.094,0.137-0.314,0.365-0.738,0.365c-0.191,0-0.41-0.049-0.666-0.148
		c-0.661-0.257-0.998-0.537-1.244-0.742c-0.235-0.196-0.285-0.237-0.547-0.237c-0.084,0-0.184,0.007-0.295,0.021
		c-0.829,0.097-1.209,0.341-1.338,0.471c0.035,0.032,0.075,0.068,0.109,0.099c0.273,0.244,0.688,0.613,0.951,1.299
		c0.172,0.446,0.248,0.851,0.309,1.177c0.083,0.438,0.133,0.672,0.289,0.807c0.394,0.338,1.344,0.626,2.824,0.855
		c0.12,0.02,0.237,0.028,0.347,0.028c0.35,0,0.589-0.096,0.8-0.182c0.18-0.072,0.365-0.147,0.582-0.147
		c0.374,0,0.669,0.21,0.878,0.624c0.119,0.239,0.405,0.507,0.682,0.765c0.486,0.454,0.99,0.924,0.99,1.573v0.104
		c0.007,1.054-0.416,1.331-1.688,1.629c-0.241,0.057-0.502,0.086-0.773,0.086c-1.368,0-2.836-0.715-3.142-1.53
		C229.418,223.136,228.843,222.894,228.436,222.878z M227.995,214.53c0.696,0,1.024,0.273,1.314,0.514
		c0.186,0.155,0.376,0.313,0.738,0.475c-0.045-0.13-0.095-0.263-0.132-0.359c-0.066-0.176-0.13-0.343-0.172-0.491
		c-0.224-0.212-1.312-0.553-2.136-0.553c-0.137,0-0.214,0.011-0.247,0.018c-0.171,0.034-0.591,0.409-0.863,0.658
		c0.298-0.104,0.649-0.185,1.062-0.233C227.72,214.539,227.862,214.53,227.995,214.53z M179.586,162.577
		c0.006,0.001,0.013,0.002,0.02,0.004c0.187,0.031,0.361,0.062,0.517,0.088c0.321,0.054,0.669-0.074,0.958-0.325
		c-0.368,0.149-0.853,0.236-1.34,0.236C179.692,162.58,179.641,162.579,179.586,162.577z M174.11,149.88
		c0.02,0.018,0.041,0.037,0.065,0.059c0.317,0.274,1.295,0.515,2.907,0.713c0.169,0.021,0.354,0.044,0.513,0.104
		c0.008-0.118,0.017-0.238,0.026-0.358c0.021-0.279,0.043-0.568,0.043-0.847c0-0.086-0.014-0.129-0.019-0.139
		c-0.003,0.006-0.069-0.042-0.378-0.042c-0.102,0-0.204,0.005-0.305,0.009c-0.179,0.007-0.349,0.013-0.498,0.004
		c-0.326-0.019-0.577-0.132-0.742-0.337c-0.244-0.304-0.186-0.653-0.151-0.862c0.004-0.021,0.008-0.048,0.012-0.072
		c-0.22-0.183-0.848-0.511-1.263-0.534c0.02,0.057,0.042,0.117,0.061,0.166c0.129,0.346,0.305,0.819,0.175,1.341
		C174.459,149.467,174.263,149.712,174.11,149.88z M121.643,96.033c0.144,0.096,0.27,0.201,0.376,0.315
		c0.02-0.021,0.039-0.047,0.054-0.077c0.022-0.049,0.025-0.092,0.009-0.142C122.006,96.084,121.829,96.054,121.643,96.033z
		 M89.567,94.729c0.58,0.218,0.996,0.385,1.278,0.568c-0.104-0.345-0.118-0.716-0.129-0.997c-0.001-0.042-0.003-0.091-0.005-0.14
		c-0.118,0.06-0.247,0.13-0.344,0.183C90.093,94.493,89.827,94.638,89.567,94.729z M87.754,93.94
		c0.076,0.043,0.153,0.087,0.233,0.132c0.029,0.017,0.06,0.032,0.091,0.049C88.033,94.023,88.007,93.966,87.754,93.94z
		 M82.456,91.982c0.575,0.312,1.058,0.584,1.459,0.827c-0.061-0.106-0.104-0.234-0.116-0.389l-0.008-0.098
		c-0.043-0.582-0.112-0.821-0.17-0.916c-0.168,0.033-0.447,0.194-0.638,0.305C82.798,91.819,82.626,91.918,82.456,91.982z
		 M84.688,90.873c0.109,0.219,0.178,0.465,0.221,0.696c0.076-0.106,0.161-0.21,0.246-0.313c0.071-0.086,0.172-0.208,0.245-0.311
		C85.193,91.01,84.917,90.98,84.688,90.873z M82.168,89.468c0.162,0.355,0.216,0.791,0.258,1.181
		c0.336-0.193,0.746-0.421,1.172-0.445c0.179-0.01,0.34,0.018,0.478,0.069c-0.095-0.177-0.151-0.368-0.164-0.559
		c-0.173-0.058-0.577-0.146-1.521-0.229C82.313,89.478,82.239,89.472,82.168,89.468z M49.234,89.663
		c-0.391,0-0.479,0.063-0.488,0.07c-0.268,0.267-0.694,0.457-1.146,0.658c-0.135,0.061-0.313,0.14-0.472,0.219
		c0.081-0.017,0.177-0.04,0.286-0.075c0.278-0.087,0.927-0.326,1.747-0.629c0.202-0.074,0.403-0.149,0.605-0.224
		c-0.032-0.001-0.065-0.003-0.098-0.004C49.527,89.671,49.379,89.663,49.234,89.663z M86.696,89.694
		c-0.052,0-0.109,0.005-0.171,0.015c-0.125,0.021-0.21,0.08-0.29,0.191c0.229-0.081,0.48-0.123,0.711-0.147
		C86.88,89.716,86.807,89.694,86.696,89.694z M52.307,88.247c-0.157,0.124-0.393,0.352-0.547,0.502
		c-0.122,0.118-0.24,0.233-0.355,0.339c0.735-0.265,1.45-0.516,2.126-0.743C52.977,88.413,52.595,88.367,52.307,88.247z
		 M88.642,88.537c-0.03,0.115-0.058,0.23-0.078,0.317c-0.012,0.05-0.023,0.099-0.034,0.146c0.115-0.122,0.201-0.234,0.23-0.31
		C88.755,88.689,88.739,88.642,88.642,88.537z M49.234,88.463c0.165,0,0.334,0.009,0.496,0.017c0.187,0.01,0.366,0.021,0.506,0.009
		c0.145-0.074,0.482-0.402,0.688-0.601c0.302-0.292,0.565-0.549,0.825-0.713c-0.999-0.415-1.523-0.69-1.768-0.985
		c-0.058,1.146-0.327,1.905-0.805,2.274C49.196,88.463,49.215,88.463,49.234,88.463z"/>
</g>
</svg>
