<?xml version="1.0" encoding="iso-8859-1"?>
<!-- Generator: Adobe Illustrator 15.1.0, SVG Export Plug-In . SVG Version: 6.00 Build 0)  -->
<!DOCTYPE svg PUBLIC "-//W3C//DTD SVG 1.1//EN" "http://www.w3.org/Graphics/SVG/1.1/DTD/svg11.dtd">
<svg version="1.1" id="Layer_1" xmlns="http://www.w3.org/2000/svg" xmlns:xlink="http://www.w3.org/1999/xlink" x="0px" y="0px"
	 width="288px" height="288px" viewBox="0 0 288 288" style="enable-background:new 0 0 288 288;" xml:space="preserve">
<g>
	<path d="M210.275,249.726c-0.4,0-0.916-0.066-1.512-0.144c-0.853-0.11-1.914-0.248-3.069-0.248c-2.266,0-2.535-1.874-2.732-3.243
		c-0.138-0.954-0.268-1.855-0.84-2.371c-1.162-1.046-1.379-2.248-1.276-3.133c-10.535,0.772-102.507,7.515-104.373,7.515
		c-2.086,0-4.124-1.718-4.124-2.715c0-0.237,0.099-0.437,0.202-0.647c0.31-0.625,0.954-1.928-1.17-5.38
		c-2.643-4.295-3.48-5.051-3.515-5.08c-0.214-0.168-0.274-0.448-0.168-0.697c0.006-0.012,0.115-0.3-0.584-1.395
		c-0.615-0.962-1.667-2.253-2.615-3.389c-2.177-2.618-2.265-2.791-2.342-4.624c-0.008-0.164-0.015-0.343-0.025-0.543
		c-0.096-1.772,0.614-2.415,1.038-2.8c0.039-0.035,0.087-0.078,0.122-0.112c-0.059-0.212-0.302-0.685-0.467-1.009
		c-0.357-0.695-0.694-1.354-0.694-1.867c0-0.222,0.065-0.639,0.2-1.488c0.306-1.93,0.876-5.522,0.624-7.962
		c-0.275-2.665-1.842-3.787-2.777-4.458c-0.166-0.119-0.308-0.222-0.415-0.311c-0.528-0.439-0.882-1.898-1.507-4.894
		c-0.243-1.161-0.494-2.362-0.653-2.722c-0.352-0.786,0.144-2.127,0.979-4.251c0.453-1.15,0.922-2.341,0.967-2.965
		c0.119-1.655,0.229-4.973-0.11-6.898c-0.284-1.613,1.858-3.681,4.271-5.835c0.373-0.332,0.781-0.697,1.016-0.932
		c-0.597-0.428-2.36-1.103-3.167-1.411c-0.441-0.168-0.822-0.314-1.068-0.423c-0.361-0.161-0.519-0.422-0.587-0.611
		c-0.209-0.579,0.114-1.233,0.488-1.991c0.341-0.691,0.728-1.474,0.685-2.136c-0.061-0.883-0.282-1.437-0.478-1.925
		c-0.178-0.445-0.347-0.866-0.347-1.397c0-0.507-0.278-1.386-2.691-3.161c-0.712-0.525-1.235-0.648-1.656-0.748
		c-1.395-0.33-1.396-1.047-1.046-3.012c0.339-1.888,0.02-2.058-0.261-2.208c-0.227-0.121-0.569-0.304-0.756-0.741
		c-0.171-0.397-0.208-0.831-0.245-1.25c-0.054-0.617-0.105-1.006-0.373-1.196c-0.876-0.622-2.281-2.262-2.341-2.331
		c-0.056-0.066-0.097-0.144-0.121-0.228L42.599,50.798c-0.047-0.169-0.019-0.351,0.079-0.497c0.098-0.146,0.255-0.242,0.43-0.262
		c49.653-5.791,91.012-11.75,95.564-12.41l0.463-0.068c0.198-0.029,0.399,0.044,0.533,0.194c0.135,0.15,0.185,0.357,0.133,0.552
		l-0.585,2.232c-0.396,1.497-1.39,1.972-2.188,2.353c-0.632,0.303-1.03,0.514-1.247,1.021c-0.224,0.521-0.302,0.902-0.37,1.24
		c-0.163,0.804-0.342,1.331-1.438,1.879c-0.709,0.354-0.834,0.571-1.203,1.215c-0.24,0.418-0.568,0.99-1.177,1.785
		c-0.986,1.289-0.269,2.343,0.985,3.955c0.187,0.24,0.374,0.481,0.553,0.725c1.236,1.692,3.047,2.406,4.348,2.707
		c0.315,0.073,0.585,0.102,0.845,0.13c1.103,0.118,1.86,0.286,3.469,2.181c1.163,1.366,3.014,2.06,5.501,2.06
		c0.329,0,0.673-0.012,1.05-0.036c0.122-0.009,0.243-0.013,0.36-0.013c1.868,0,2.929,1.048,3.662,3.617
		c0.35,1.225,0.903,1.501,1.67,1.884c0.562,0.28,1.199,0.6,1.753,1.321c0.561,0.729,0.897,1.897,1.254,3.135
		c0.409,1.419,0.872,3.026,1.594,3.388c1.679,0.842,4.52,4.363,7.527,8.092l0.423,0.524c2.705,3.357,5.645,4.33,7.058,4.798
		l0.18,0.061c1.211,0.401,5.267,1.972,6.594,5.277c1.013,2.535,4.486,4.515,5.12,4.672c0.292,0.007,0.985,0.145,5.908,3.143
		c1.355,0.824,2.969,2.731,2.986,7.136c0.117,0.037,0.333,0.073,0.5,0.101c0.645,0.107,1.619,0.27,2.478,1.055
		c1.055,0.969,1.134,1.613,1.134,2.486c0,0.327,0,0.666,0.103,1.109c0.106,0.464,0.628,0.698,1.54,1.07
		c0.9,0.368,2.021,0.826,2.905,1.842c1.432,1.635,8.551,3.41,10.55,3.675c0.565,0.075,0.825,0.365,0.942,0.596
		c0.344,0.673-0.107,1.507-0.629,2.473c-0.259,0.479-0.798,1.476-0.677,1.719c0.56,1.117,3.448,4.315,4.245,4.811
		c0.718,0.45,1.018,1.957,1.485,4.582c0.259,1.453,0.527,2.956,0.855,3.659c0.739,1.584,3.619,3.588,4.32,3.79
		c0.084,0.024,0.265,0.053,0.457,0.084c1.334,0.214,4.457,0.714,5.356,4.096c0.519,1.939,1.309,2.813,1.885,3.45
		c0.451,0.498,0.876,0.968,0.706,1.661c-0.198,0.785,0.506,4.311,1.7,5.403c1.034,0.95,0.923,2.172,0.834,3.152
		c-0.052,0.576-0.102,1.12,0.095,1.447c0.361,0.603,2.98,0.612,3.966,0.615c0.517,0.002,0.89,0.004,1.127,0.038
		c0.515,0.075,1.647,0.649,2.516,1.384c0.92,0.772,1.383,1.59,1.336,2.363c-0.04,0.656-0.424,1.228-1.143,1.695
		c-0.696,0.454-1.241,0.665-1.716,0.665c-0.268,0-0.485-0.064-0.663-0.167c0.218,0.292,0.778,0.84,1.17,1.223
		c1.029,1.006,1.616,1.602,1.709,2.138c0.042,0.254-0.026,0.504-0.191,0.709c-0.404,0.503-1.394,0.854-5.069,1.049
		c-0.152,0.009-0.289,0.012-0.412,0.012c-0.001,0-0.001,0-0.002,0c-1.188,0-1.513-0.421-1.675-1.148
		c-0.066-0.3-0.136-0.609-0.579-1.017c-0.282-0.26-0.562-0.396-0.808-0.396c-0.518,0-1.002,0.625-1.128,1.454
		c-0.058,0.372,1.055,0.553,1.59,0.64c0.639,0.104,1.101,0.178,1.247,0.631c0.017,0.051,0.026,0.102,0.03,0.153
		c0.25,0.131,0.673,0.31,1.004,0.45c1.547,0.657,2.575,1.144,2.77,1.896c0.077,0.297,0.011,0.6-0.188,0.853
		c-0.153,0.198-0.313,0.449-0.481,0.716c-0.688,1.084-1.63,2.57-3.63,2.57c-0.638,0-1.087-0.158-1.374-0.482
		c-0.346-0.391-0.326-0.871-0.286-1.226c-0.097,0.034-0.184,0.082-0.219,0.146c-0.084,0.156-0.077,0.593,0.433,1.782
		c0.334,0.778,0.181,1.47-0.133,2.042c0.907-0.471,1.568-0.763,2.047-0.763c1.587,0,1.909,0.884,2.129,3.724
		c0.092,1.216-0.015,1.867-0.367,2.248c-0.195,0.211-0.456,0.322-0.755,0.322c-0.37,0-0.735-0.171-1.121-0.352
		c-0.248-0.115-0.505-0.235-0.748-0.302c-0.018-0.005-0.049-0.011-0.099-0.011c-0.885,0-2.859,1.435-3.803,2.332
		c0.495-0.023,1.133-0.101,1.752-0.175c0.523-0.063,1.019-0.122,1.443-0.153c0.501-0.034,0.905-0.053,1.202-0.053
		c0.354,0,1.087,0,1.089,0.65c0,0.025-0.002,0.051-0.005,0.076c-0.051,0.404-0.534,3.989-1.799,5.381
		c-0.394,0.434-0.456,0.877-0.534,1.44c-0.108,0.784-0.245,1.762-1.433,2.633c-0.57,0.418-1.403,0.611-2.621,0.611
		c-0.773,0-1.581-0.075-2.361-0.148c-0.643-0.06-1.25-0.116-1.723-0.116c-0.18,0-0.314,0.008-0.415,0.02
		c0.628,0.358,2.425,0.793,4.182,0.793c0.152,0,0.299-0.004,0.435-0.012c1.539-0.093,3.013,0.429,3.809,1.304
		c0.432,0.474,0.632,1.021,0.579,1.584c-0.128,1.432-2.917,6.057-4.415,6.508c-1.238,0.372-1.363-0.647-1.407-1.039
		c-0.05-0.445-0.117-1.049-0.752-1.725c-0.034,0.232-0.061,0.521-0.08,0.744c-0.117,1.288-0.263,2.892-1.505,3.306
		c-0.829,0.277-0.793,0.651-0.564,1.695c0.061,0.275,0.123,0.561,0.151,0.847c0.044,0.446,0.707,0.772,1.191,1.01
		c0.381,0.188,0.692,0.34,0.842,0.617c0.058,0.047,0.165,0.124,0.24,0.179c0.438,0.314,0.936,0.671,0.758,1.224
		c-0.127,0.395-0.498,0.506-0.801,0.538c0.372,0.049,0.569,0.112,0.702,0.172c0.445,0.199,0.688,0.481,0.727,0.839
		c0.065,0.612-0.475,1.01-1.159,1.512c-0.275,0.203-0.561,0.412-0.82,0.644c-0.226,0.199-0.033,0.628,0.427,1.4
		c0.369,0.621,0.718,1.207,0.393,1.748c-0.218,0.365-0.646,0.552-1.273,0.553c1.068,1.268,2.214,2.92,1.923,3.891
		c-0.259,0.859-1.087,1.668-1.635,2.202c-0.111,0.108-0.208,0.203-0.279,0.279c-0.12,0.128-0.283,0.193-0.465,0.188
		c-5.466-0.244-9.618-1.61-12.099-2.426c-0.967-0.318-1.73-0.569-2.219-0.645c-0.307-0.047-0.563-0.069-0.785-0.069
		c-0.788,0-1.027,0.277-1.667,1.021c-0.25,0.291-0.533,0.62-0.908,0.994c-1.42,1.421-1.903,2.96-1.434,4.575
		c0.152,0.527,0.77,1.192,1.367,1.836c1.218,1.312,2.733,2.945,1.765,4.885c-0.876,1.751-0.341,5.377-0.085,7.119
		c0.09,0.605,0.148,1.005,0.148,1.244C211.58,249.032,211.453,249.726,210.275,249.726z M201.643,239.326
		c0.199,0,0.387,0.1,0.498,0.267c0.12,0.179,0.135,0.408,0.039,0.602c-0.065,0.137-0.614,1.409,0.745,2.634
		c0.896,0.807,1.07,2.021,1.225,3.092c0.236,1.641,0.419,2.214,1.545,2.214c1.232,0,2.337,0.144,3.224,0.258
		c0.555,0.072,1.034,0.135,1.357,0.135c0.033,0,0.063-0.001,0.089-0.002c-0.024-0.213-0.07-0.529-0.119-0.859
		c-0.296-2.007-0.847-5.742,0.198-7.831c0.556-1.112-0.262-2.12-1.571-3.532c-0.724-0.779-1.407-1.516-1.64-2.316
		c-0.592-2.039,0.009-4.03,1.737-5.759c0.343-0.343,0.611-0.653,0.848-0.929c0.691-0.803,1.237-1.438,2.576-1.438
		c0.283,0,0.6,0.027,0.967,0.084c0.587,0.09,1.393,0.354,2.412,0.69c2.535,0.834,6.346,2.087,11.513,2.354
		c0.037-0.036,0.076-0.074,0.117-0.114c0.432-0.422,1.154-1.127,1.323-1.689c0.101-0.467-1.229-2.37-2.792-3.99
		c-0.188-0.196-0.222-0.494-0.081-0.728c0.142-0.232,0.421-0.342,0.683-0.265c0.008,0.003,0.813,0.237,1.412,0.237
		c0.049,0,0.092-0.002,0.128-0.005c-0.075-0.148-0.188-0.339-0.273-0.481c-0.449-0.755-1.201-2.019-0.192-2.912
		c0.301-0.268,0.623-0.504,0.906-0.713c0.143-0.104,0.313-0.229,0.451-0.341c-0.253-0.046-0.787-0.103-1.877-0.103
		c-2.075,0-4.762,0.204-4.789,0.206c-0.211,0.014-0.408-0.077-0.53-0.244c-0.074-0.102-0.706-1.009-0.279-1.85
		c0.481-0.947,1.912-1.18,4.503-0.739c0.712,0.121,1.305,0.208,1.774,0.263c-0.011-0.016-0.021-0.031-0.03-0.047
		c-0.078-0.049-0.231-0.124-0.349-0.182c-0.654-0.32-1.748-0.858-1.857-1.969c-0.021-0.217-0.074-0.456-0.129-0.708
		c-0.201-0.919-0.538-2.458,1.357-3.091c0.497-0.166,0.612-1.436,0.688-2.275c0.092-1.02,0.188-2.074,1.083-2.074
		c0.405,0,0.74,0.287,0.957,0.503c0.988,0.987,1.111,1.92,1.176,2.491c0.94-0.561,3.338-4.283,3.438-5.41
		c0.021-0.223-0.07-0.445-0.271-0.666c-0.543-0.598-1.705-0.981-2.85-0.913c-0.158,0.009-0.328,0.014-0.506,0.014
		c-1.441,0-4.657-0.369-5.399-1.51c-0.2-0.309-0.23-0.66-0.085-0.989c0.319-0.714,1.299-0.714,1.718-0.714
		c0.528,0,1.163,0.06,1.835,0.122c0.753,0.07,1.531,0.143,2.249,0.143c0.925,0,1.568-0.127,1.912-0.379
		c0.778-0.571,0.855-1.127,0.953-1.831c0.09-0.644,0.191-1.374,0.834-2.082c0.716-0.787,1.191-2.855,1.402-4.097
		c-0.245,0.006-0.552,0.021-0.916,0.047c-0.395,0.028-0.876,0.087-1.386,0.147c-0.781,0.094-1.589,0.191-2.18,0.191
		c-0.488,0-1.02-0.058-1.257-0.479c-0.065-0.118-0.194-0.433,0.041-0.819c0.494-0.817,3.568-3.441,5.304-3.441
		c0.146,0,0.286,0.018,0.414,0.052c0.343,0.094,0.66,0.242,0.94,0.373c0.156,0.073,0.374,0.175,0.514,0.218
		c0.037-0.146,0.083-0.49,0.025-1.258c-0.066-0.861-0.184-2.058-0.424-2.477c-0.063-0.109-0.079-0.14-0.509-0.14
		c-0.324,0-1.479,0.617-2.099,0.948c-1.04,0.556-1.466,0.766-1.805,0.766c-0.203,0-0.346-0.076-0.43-0.141
		c-0.164-0.125-0.258-0.317-0.258-0.528c0-0.394,0.277-0.671,0.662-1.055c0.677-0.676,1.213-1.293,0.911-1.995
		c-0.507-1.185-0.767-2.118-0.385-2.825c0.232-0.432,0.672-0.708,1.305-0.821c0.104-0.019,0.202-0.028,0.294-0.028
		c0.361,0,0.575,0.155,0.69,0.286c0.276,0.313,0.229,0.704,0.189,1.02c-0.015,0.119-0.042,0.342-0.014,0.405l0,0
		c0.006,0,0.113,0.069,0.47,0.069c1.34,0,1.989-1.023,2.617-2.013c0.154-0.244,0.301-0.476,0.456-0.688
		c-0.326-0.313-1.447-0.789-2.013-1.029c-1.043-0.442-1.606-0.682-1.764-1.115c-0.081-0.014-0.166-0.027-0.241-0.039
		c-0.916-0.148-2.823-0.458-2.583-2.006c0.217-1.432,1.189-2.473,2.313-2.473c0.56,0,1.104,0.24,1.619,0.713
		c0.722,0.661,0.858,1.273,0.939,1.64c0.012,0.055,0.027,0.124,0.04,0.168c0.055,0.016,0.186,0.042,0.463,0.042
		c0.104,0,0.222-0.004,0.351-0.011c2.704-0.144,3.686-0.37,4.041-0.52c-0.247-0.325-0.867-0.931-1.265-1.319
		c-0.864-0.845-1.402-1.386-1.552-1.834c-0.046-0.137-0.164-0.322-0.278-0.501c-0.271-0.423-0.577-0.903-0.39-1.432
		c0.115-0.327,0.39-0.564,0.815-0.706c0.12-0.04,0.239-0.061,0.354-0.061c0.673,0,0.92,0.603,1.067,0.963
		c0.179,0.437,0.229,0.456,0.314,0.456c0.127,0,0.433-0.061,1.061-0.47c0.383-0.25,0.585-0.507,0.601-0.763
		c0.021-0.368-0.311-0.868-0.912-1.373c-0.77-0.65-1.703-1.081-1.915-1.114c-0.152-0.022-0.544-0.023-0.959-0.025
		c-2.255-0.008-4.334-0.105-4.99-1.198c-0.397-0.663-0.328-1.431-0.261-2.173c0.091-1.003,0.106-1.648-0.45-2.16
		c-1.557-1.424-2.354-5.384-2.053-6.577c0.018-0.07-0.242-0.357-0.432-0.566c-0.584-0.646-1.561-1.725-2.154-3.945
		c-0.699-2.63-3.099-3.014-4.388-3.221c-0.247-0.039-0.441-0.07-0.597-0.114c-0.981-0.283-4.186-2.525-5.077-4.437
		c-0.396-0.845-0.665-2.356-0.949-3.956c-0.246-1.381-0.618-3.468-0.958-3.788c-1.057-0.655-4.034-4.018-4.664-5.277
		c-0.402-0.802,0.154-1.831,0.693-2.828c0.212-0.391,0.551-1.019,0.599-1.306c-0.005-0.001-0.009-0.002-0.014-0.002
		c-1.483-0.196-9.437-1.951-11.296-4.075c-0.699-0.802-1.633-1.184-2.456-1.52c-0.985-0.403-2.004-0.819-2.256-1.912
		c-0.133-0.576-0.133-1.021-0.133-1.379c0-0.63,0-0.918-0.745-1.602c-0.595-0.545-1.269-0.657-1.863-0.756
		c-0.599-0.1-1.503-0.25-1.503-1.212c0-3.086-0.833-5.224-2.409-6.183c-4.369-2.66-5.218-2.94-5.356-2.969
		c-0.886-0.058-4.958-2.409-6.163-5.425c-1.164-2.898-5.084-4.328-5.858-4.586l-0.178-0.059c-1.522-0.504-4.688-1.553-7.615-5.185
		l-0.422-0.523c-2.665-3.304-5.686-7.048-7.131-7.772c-1.191-0.597-1.709-2.393-2.21-4.129c-0.31-1.075-0.631-2.187-1.052-2.736
		c-0.386-0.503-0.827-0.724-1.339-0.979c-0.84-0.42-1.791-0.896-2.286-2.628c-0.656-2.297-1.417-2.746-2.509-2.746
		c-0.091,0-0.185,0.003-0.28,0.01c-0.406,0.026-0.774,0.039-1.13,0.039c-2.855,0-5.014-0.835-6.415-2.482
		c-1.38-1.625-1.87-1.678-2.683-1.765c-0.281-0.03-0.602-0.064-0.987-0.154c-1.499-0.347-3.592-1.178-5.045-3.167
		c-0.172-0.233-0.353-0.466-0.533-0.697c-1.153-1.484-2.59-3.331-0.99-5.421c0.561-0.732,0.854-1.243,1.09-1.653
		c0.405-0.707,0.674-1.174,1.706-1.69c0.653-0.326,0.682-0.464,0.8-1.044c0.072-0.355,0.171-0.842,0.442-1.475
		c0.406-0.948,1.164-1.311,1.833-1.63c0.723-0.345,1.292-0.617,1.546-1.576l0.354-1.354c-6.272,0.906-46.411,6.654-94.465,12.269
		l27.935,98.757c0.439,0.506,1.453,1.619,2.038,2.034c0.738,0.526,0.813,1.383,0.873,2.071c0.03,0.339,0.058,0.66,0.152,0.881
		c0.019,0.043,0.053,0.067,0.218,0.155c0.889,0.474,1.292,1.169,0.878,3.478c-0.183,1.027-0.193,1.414-0.162,1.552
		c0.065,0.025,0.195,0.056,0.303,0.081c0.471,0.111,1.183,0.279,2.092,0.95c2.229,1.64,3.18,2.874,3.18,4.127
		c0,0.3,0.109,0.573,0.261,0.951c0.217,0.543,0.487,1.218,0.561,2.291c0.064,0.984-0.418,1.962-0.806,2.747
		c-0.157,0.319-0.387,0.783-0.425,1.002c0.226,0.097,0.561,0.226,0.943,0.372c2.558,0.977,3.743,1.528,4.01,2.214
		c0.087,0.224,0.078,0.461-0.025,0.669c-0.148,0.296-0.555,0.666-1.461,1.476c-1.325,1.182-4.08,3.643-3.889,4.73
		c0.36,2.042,0.248,5.482,0.126,7.194c-0.059,0.807-0.539,2.026-1.048,3.318c-0.428,1.088-1.146,2.909-0.998,3.325
		c0.2,0.451,0.408,1.419,0.73,2.962c0.301,1.443,0.806,3.859,1.121,4.236c0.068,0.055,0.187,0.139,0.324,0.237
		c0.955,0.684,2.942,2.107,3.272,5.31c0.269,2.596-0.317,6.29-0.633,8.274c-0.091,0.572-0.185,1.163-0.185,1.3
		c0,0.225,0.352,0.91,0.562,1.32c0.38,0.739,0.612,1.214,0.612,1.617c0,0.462-0.306,0.738-0.529,0.94
		c-0.333,0.302-0.71,0.644-0.646,1.847c0.011,0.205,0.019,0.389,0.025,0.557c0.063,1.498,0.063,1.498,2.066,3.905
		c2.397,2.875,3.563,4.494,3.482,5.6c0.448,0.501,1.476,1.813,3.499,5.101c2.471,4.019,1.628,5.723,1.224,6.541
		c-0.019,0.037-0.04,0.081-0.058,0.118c0.217,0.406,1.433,1.512,2.903,1.512c1.895,0,104.094-7.498,105.126-7.573
		C201.613,239.327,201.628,239.326,201.643,239.326z M223.837,216.244c-0.886,0-1.219,0.186-1.275,0.296
		c-0.036,0.07-0.013,0.198,0.036,0.326c0.833-0.057,2.848-0.182,4.492-0.182c0.113,0,0.221,0,0.323,0.002
		c-0.452-0.058-0.99-0.139-1.62-0.246C225.024,216.31,224.366,216.244,223.837,216.244z"/>
</g>
</svg>
