<?xml version="1.0" encoding="iso-8859-1"?>
<!-- Generator: Adobe Illustrator 15.1.0, SVG Export Plug-In . SVG Version: 6.00 Build 0)  -->
<!DOCTYPE svg PUBLIC "-//W3C//DTD SVG 1.1//EN" "http://www.w3.org/Graphics/SVG/1.1/DTD/svg11.dtd">
<svg version="1.1" id="Layer_1" xmlns="http://www.w3.org/2000/svg" xmlns:xlink="http://www.w3.org/1999/xlink" x="0px" y="0px"
	 width="288px" height="288px" viewBox="0 0 288 288" style="enable-background:new 0 0 288 288;" xml:space="preserve">
<g>
	<g>
		<path d="M189.939,187.86c-0.588,0-0.914-0.456-1.202-0.859c-0.329-0.461-0.702-0.984-1.533-1.303
			c-1.686-0.648-4.823-1.854-4.494-4.482c0.062-0.492,0.203-1.001,0.353-1.539c0.538-1.932,1.207-4.335-1.073-8.304
			c-2.968-5.163-2.306-7.133-1.267-8.379c0.654-0.785,3.316-3.334,3.606-3.611c0.196-0.229,0.339-0.388,0.487-0.479
			c0.055-0.082,0.133-0.2,0.246-0.369c0.139-0.209,0.121-0.318-0.379-1.004c-0.467-0.64-1.105-1.515-1.182-2.876
			c-0.025-0.464-0.08-0.909-0.129-1.302c-0.126-1.018-0.226-1.821,0.25-2.359c0.259-0.292,0.641-0.44,1.137-0.44
			c0.309,0,0.678,0.056,1.127,0.17c1.389,0.354,2.27,1.104,3.121,1.831c0.865,0.738,1.684,1.436,3.056,1.748
			c2.966,0.675,10.288,4.852,11.436,5.999c0.87,0.869,1.231,2.565,1.495,3.804c0.054,0.254,0.117,0.553,0.167,0.731
			c0.024,0.004,0.05,0.007,0.073,0.011c0.997,0.14,1.998,0.591,2.596,2.866c1.34,0.553,3.806,1.753,3.806,3.096
			c0,1.646-4.845,5.901-6.082,6.396c-1.133,0.452-3.591,1.078-5.258,1.078l0,0c-0.446,0-0.81-0.043-1.107-0.133
			c-0.037-0.011-0.081-0.017-0.132-0.017c-0.807,0-2.492,1.293-4.293,3.294c-0.477,0.53-1.229,1.753-1.958,2.937
			C191.089,187.153,190.584,187.86,189.939,187.86z M185.365,160.022c-0.037,0.041-0.084,0.094-0.145,0.164
			c-0.013,0.015-0.027,0.029-0.041,0.044c-0.029,0.027-2.901,2.771-3.536,3.532c-0.468,0.562-1.565,1.878,1.386,7.013
			c2.531,4.403,1.756,7.189,1.189,9.224c-0.144,0.516-0.268,0.961-0.318,1.366c-0.195,1.565,1.824,2.479,3.734,3.212
			c1.167,0.449,1.716,1.218,2.079,1.727c0.06,0.083,0.131,0.183,0.192,0.261c0.428-0.474,1.285-1.868,1.877-2.83
			c0.791-1.285,1.539-2.5,2.09-3.11c1.515-1.685,3.645-3.691,5.184-3.691c0.167,0,0.327,0.023,0.477,0.067
			c0.125,0.038,0.359,0.082,0.763,0.082c1.497,0,3.796-0.587,4.813-0.992c1.321-0.528,5.254-4.432,5.326-5.286
			c-0.026-0.408-1.646-1.427-3.334-2.091c-0.184-0.072-0.32-0.23-0.365-0.423c-0.481-2.089-1.168-2.186-1.669-2.256
			c-0.287-0.04-0.722-0.101-0.937-0.53c-0.109-0.217-0.182-0.543-0.311-1.148c-0.206-0.969-0.551-2.588-1.17-3.206
			c-0.936-0.935-7.959-5.02-10.854-5.678c-1.66-0.378-2.674-1.242-3.568-2.006c-0.781-0.666-1.52-1.296-2.638-1.58
			c-0.347-0.089-0.626-0.133-0.831-0.133c-0.186,0-0.238,0.036-0.238,0.036c-0.115,0.139-0.021,0.907,0.043,1.416
			c0.051,0.412,0.107,0.879,0.137,1.383c0.055,1.007,0.531,1.659,0.951,2.234c0.465,0.636,1.042,1.427,0.408,2.377
			C185.664,159.794,185.547,159.972,185.365,160.022z"/>
	</g>
	<g>
		<path d="M136.777,125.886L136.777,125.886c-1.072,0-1.881-0.146-2.474-0.45c-1.009-0.517-1.459-1.338-1.788-1.938
			c-0.028-0.052-0.059-0.109-0.091-0.166c-0.012,0.457-0.103,1.109-0.807,1.344c-0.84,0.279-1.702,0.538-2.317,0.538
			c-0.79,0-1.005-0.457-1.061-0.653l-0.016-0.054c-0.133-0.467-0.487-1.71-1.051-2.273c-0.142-0.143-0.297-0.293-0.454-0.445
			c-0.958-0.932-1.387-1.383-1.475-1.793c-0.042-0.198-0.033-0.449-0.022-0.768c0.008-0.222,0.021-0.614-0.01-0.786
			c-0.241-0.191-0.864-0.613-1.275-0.882c-0.226-0.146-0.326-0.426-0.245-0.683c0.082-0.257,0.324-0.425,0.593-0.419l4.175,0.142
			c0.112-0.15,0.283-0.463,0.414-0.703c0.55-1.007,1.381-2.527,2.824-2.527c0.181,0,0.366,0.024,0.549,0.073
			c1.449,0.387,2.46,2.725,3.353,4.786c0.339,0.785,0.798,1.845,1.043,2.109c0.157,0.01,0.288-0.009,0.432-0.03
			c0.123-0.019,0.25-0.037,0.39-0.037c0.727,0,1.156,0.548,1.511,1.139c0.257,0.429,0.644,0.915,1.019,1.386
			c0.804,1.01,1.289,1.62,1.064,2.202c-0.102,0.266-0.336,0.446-0.643,0.497l-0.192,0.033
			C139.547,125.643,138.142,125.886,136.777,125.886z M132.224,121.78c0.72,0,1.052,0.605,1.344,1.141
			c0.282,0.515,0.602,1.099,1.282,1.446c0.285,0.146,0.85,0.319,1.927,0.319c1.085,0,2.225-0.172,2.932-0.29
			c-0.184-0.264-0.452-0.601-0.654-0.855c-0.38-0.478-0.811-1.019-1.108-1.516c-0.101-0.167-0.349-0.556-0.482-0.556
			c-0.052,0-0.127,0.011-0.214,0.024c-0.218,0.032-0.544,0.066-0.864,0.021c-0.688-0.098-1.076-0.932-1.888-2.81
			c-0.666-1.54-1.673-3.867-2.561-4.104c-0.083-0.022-0.164-0.033-0.24-0.033c-0.731,0-1.332,1.1-1.771,1.902
			c-0.388,0.71-0.668,1.224-1.167,1.323c-0.045,0.009-0.092,0.014-0.139,0.012l-2.432-0.083c0.272,0.362,0.252,0.938,0.231,1.545
			c-0.005,0.145-0.013,0.354-0.006,0.45c0.132,0.228,0.76,0.839,1.141,1.209c0.161,0.156,0.319,0.311,0.465,0.456
			c0.72,0.721,1.117,1.965,1.31,2.63c0.501-0.013,1.436-0.319,1.873-0.465c0.022-0.091,0.022-0.283,0.022-0.404
			C131.226,122.807,131.226,121.78,132.224,121.78z"/>
	</g>
	<g>
		<path d="M95.803,109.911c-0.026,0-2.665-0.025-3.735-0.603c-0.761-0.41-1.682-1.345-2.057-1.744
			c-0.496-0.063-1.598-0.277-2.377-0.996c-0.872-0.804-1.27-1.171-0.966-2.231c0.191-0.67,0.858-1.236,1.254-1.523
			c0.083-0.663,0.477-1.61,1.595-1.968c0.866-0.277,2.484-1.288,3.035-1.653c0.143-0.096,0.321-0.125,0.487-0.08
			c0.166,0.044,0.305,0.158,0.382,0.313c0.07,0.135,0.342,0.533,0.641,0.533h0.002c-0.004-0.017-0.008-0.03-0.01-0.035
			c-0.079-0.19-0.055-0.408,0.063-0.576s0.316-0.263,0.521-0.254c0.29,0.015,2.866,0.166,3.974,0.978
			c1.504,1.103,2.02,2.299,1.531,3.555c-0.255,0.656-0.573,1.063-0.784,1.331c-0.069,0.089-0.153,0.196-0.183,0.252
			c0.137,0.623-0.115,2.467-0.465,2.915c-0.095,0.121-0.221,0.205-0.359,0.241c-0.15,0.083-0.561,0.375-0.867,0.591
			C96.393,109.73,96.106,109.911,95.803,109.911z M92.727,100.506c-0.698,0.438-1.985,1.207-2.844,1.482
			c-0.81,0.259-0.779,1.09-0.778,1.125c0.01,0.217-0.097,0.423-0.282,0.538c-0.349,0.22-0.91,0.694-1.001,1.015
			c-0.1,0.351-0.1,0.351,0.626,1.021c0.684,0.63,1.866,0.703,1.877,0.704c0.16,0.007,0.311,0.079,0.417,0.197
			c0.313,0.349,1.265,1.325,1.894,1.664c0.58,0.313,2.319,0.447,3.067,0.459c0.213-0.115,0.753-0.498,1.088-0.734
			c0.505-0.357,0.792-0.558,0.99-0.667c0.131-0.425,0.292-1.554,0.225-1.833c-0.14-0.56,0.151-0.931,0.407-1.259
			c0.196-0.252,0.419-0.536,0.611-1.028c0.188-0.481,0.229-1.161-1.122-2.15c-0.494-0.362-1.707-0.592-2.663-0.694
			c-0.025,0.097-0.063,0.193-0.121,0.287c-0.13,0.214-0.396,0.477-0.926,0.521C93.527,101.21,93.033,100.846,92.727,100.506z"/>
	</g>
	<g>
		<path d="M172.094,143.827c-0.457,0-0.861-0.059-1.24-0.176c-1.27-0.397-1.27-2.391-1.27-3.71c0-0.242,0-0.471-0.012-0.59
			c-0.047-0.517-0.213-0.988-0.337-1.177c-0.157,0.073-0.275,0.138-0.375,0.191c-0.228,0.123-0.442,0.238-0.739,0.238
			c-0.312,0-0.586-0.114-1.25-0.391c-0.146-0.062-0.316-0.132-0.511-0.211c-2.274-0.932-2.681-2.229-2.95-3.706
			c-0.157-0.862,0.029-1.663,0.523-2.256c0.523-0.628,1.348-0.973,2.322-0.973c1.32,0,2.359,1.427,3.195,2.573
			c0.223,0.308,0.52,0.713,0.682,0.871c0.154-0.055,0.457-0.215,0.688-0.337c0.756-0.4,1.793-0.95,2.944-0.95
			c0.474,0,0.931,0.095,1.356,0.281c1.084,0.474,1.719,0.979,2.332,1.468c0.654,0.521,1.329,1.059,2.65,1.652
			c1.234,0.556,1.859,1.054,2.088,1.665c0.242,0.646-0.025,1.229-0.284,1.792c-0.076,0.165-0.157,0.342-0.231,0.532
			c-0.633,1.628-2.906,2.153-3.908,2.153h-0.001c-0.142,0-0.272-0.009-0.39-0.026c-0.496-0.076-0.572-0.047-1.28,0.194
			c-0.253,0.086-0.564,0.191-0.976,0.316C173.801,143.655,172.896,143.827,172.094,143.827z M169.285,136.933
			c1.234,0,1.461,2.073,1.482,2.31c0.016,0.174,0.016,0.405,0.016,0.698c0,2.01,0.233,2.504,0.429,2.565
			c0.261,0.081,0.549,0.121,0.882,0.121c0.856,0,1.881-0.278,2.678-0.521c0.396-0.121,0.696-0.223,0.939-0.306
			c0.729-0.247,1.063-0.364,1.848-0.244c0.039,0.006,0.107,0.014,0.209,0.014c0.939,0,2.455-0.528,2.789-1.389
			c0.084-0.215,0.175-0.413,0.26-0.6c0.197-0.428,0.314-0.699,0.252-0.869c-0.057-0.15-0.321-0.48-1.457-0.991
			c-1.459-0.656-2.227-1.269-2.905-1.809c-0.604-0.48-1.125-0.896-2.065-1.307c-0.277-0.122-0.564-0.181-0.876-0.181
			c-0.854,0-1.702,0.449-2.383,0.811c-0.541,0.287-0.932,0.494-1.315,0.494c-0.094,0-0.184-0.013-0.268-0.039
			c-0.435-0.13-0.786-0.612-1.318-1.343c-0.604-0.828-1.516-2.081-2.225-2.081c-0.612,0-1.109,0.192-1.401,0.542
			c-0.267,0.318-0.357,0.759-0.264,1.271c0.232,1.277,0.498,2.104,2.224,2.812c0.197,0.08,0.369,0.151,0.518,0.214
			c0.377,0.156,0.703,0.292,0.791,0.298c0.002-0.005,0.094-0.055,0.168-0.095c0.133-0.071,0.316-0.17,0.574-0.285
			C169.002,136.964,169.143,136.933,169.285,136.933z"/>
	</g>
	<g>
		<path d="M158.079,140.264L158.079,140.264c-0.392,0-0.763-0.122-1.071-0.354c-0.654-0.49-0.689-1.353-0.718-2.044
			c-0.01-0.248-0.024-0.616-0.081-0.741c-0.111-0.066-0.281-0.135-0.447-0.2c-0.547-0.217-1.685-0.669-1.365-1.952
			c0.155-0.621,0.58-1.362,1.723-1.362c0.334,0,0.68,0.063,0.973,0.125c2.051,0.431,2.953,0.706,3.626,1.714l0.019,0.027
			c0.547,0.819,1.064,1.593-0.031,3.11C159.947,139.637,158.966,140.264,158.079,140.264z M156.119,134.81
			c-0.313,0-0.461,0.063-0.559,0.453c-0.049,0.197-0.065,0.265,0.645,0.546c0.238,0.095,0.484,0.193,0.699,0.336
			c0.531,0.354,0.559,1.023,0.585,1.672c0.018,0.438,0.04,0.984,0.238,1.133c0.475,0.356,1.346-0.151,2.005-1.064
			c0.607-0.843,0.492-1.016,0.006-1.742l-0.019-0.027c-0.39-0.583-0.872-0.786-2.874-1.207
			C156.612,134.859,156.344,134.81,156.119,134.81z"/>
	</g>
	<g>
		<path d="M159.614,131.676L159.614,131.676c-1.286,0-2.665-0.572-3.577-0.952c-0.261-0.108-0.557-0.23-0.65-0.25
			c-0.115-0.024-0.25-0.061-0.404-0.103c-0.428-0.115-1.014-0.273-1.777-0.273c-0.357,0-0.729,0.034-1.102,0.104
			c-1.047,0.194-1.805,0.284-2.385,0.284c-0.689,0-1.178-0.125-1.535-0.394c-0.235-0.177-0.363-0.43-0.358-0.713
			c0.009-0.666,0.757-1.249,1.589-1.838l0.105-0.076c0.088-0.062,0.053-0.459,0.037-0.628c-0.012-0.127-0.021-0.244-0.021-0.344
			c0-0.331,0.27-0.6,0.601-0.6h0.796c0.528,0,0.91,0.186,1.248,0.35c0.283,0.139,0.508,0.247,0.809,0.247
			c0.729,0,2.687,0.217,3.431,0.303c0.331-0.3,0.653-0.446,0.975-0.446c0.525,0,0.929,0.394,1.038,1.007
			c0.066,0.039,0.297,0.132,0.99,0.132c0.137,0,0.364-0.009,0.643-0.019c0.467-0.019,1.049-0.04,1.605-0.04
			c1.322,0,1.74,0.127,1.985,0.331c0.112,0.094,0.362,0.366,0.245,0.862c-0.215,0.901-1.807,2.583-3.48,2.97
			C160.172,131.647,159.9,131.676,159.614,131.676z M153.205,128.897c0.924,0,1.626,0.19,2.091,0.316
			c0.128,0.034,0.238,0.064,0.335,0.085c0.205,0.042,0.469,0.151,0.866,0.317c0.825,0.342,2.069,0.86,3.117,0.86l0,0
			c0.195,0,0.376-0.02,0.536-0.057c1.049-0.241,2.035-1.205,2.418-1.762c-0.194-0.018-0.48-0.031-0.898-0.031
			c-0.534,0-1.103,0.021-1.56,0.039c-0.298,0.011-0.542,0.02-0.688,0.02c-0.535,0-1.939,0-2.156-1.039
			c-0.05,0.041-0.112,0.1-0.187,0.182c-0.13,0.142-0.321,0.213-0.514,0.19c-0.027-0.004-2.759-0.328-3.577-0.328
			c-0.578,0-0.997-0.204-1.334-0.368c-0.264-0.128-0.471-0.229-0.723-0.229h-0.156c0.013,0.445-0.061,0.991-0.557,1.347l-0.111,0.08
			c-0.48,0.34-0.758,0.568-0.914,0.722c0.125,0.025,0.295,0.044,0.525,0.044c0.504,0,1.193-0.084,2.166-0.265
			C152.33,128.938,152.775,128.897,153.205,128.897z"/>
	</g>
	<g>
		<path d="M165.43,146.15L165.43,146.15c-1.17,0-1.492-0.503-1.558-0.924c-0.022-0.152-0.054-0.267-0.081-0.367
			c-0.055-0.203-0.129-0.482,0.035-0.767c0.186-0.317,0.48-0.394,1.127-0.562h0.001l0.151-0.149
			c0.023-0.023,0.049-0.046,0.077-0.064c0.165-0.116,0.345-0.308,0.519-0.492c0.387-0.409,0.785-0.833,1.348-0.833
			c0.213,0,0.415,0.063,0.603,0.188c0.71,0.474,1.245,2.021,1.112,2.789c-0.096,0.556-0.479,0.708-0.639,0.748l-0.035,0.009
			C167.67,145.831,166.393,146.15,165.43,146.15z M165.036,144.914c0.067,0.017,0.188,0.036,0.394,0.036
			c0.504,0,1.229-0.113,2.159-0.337c-0.026-0.402-0.328-1.176-0.56-1.398c-0.12,0.079-0.324,0.296-0.454,0.434
			c-0.194,0.205-0.412,0.438-0.659,0.619l-0.232,0.23c-0.075,0.074-0.169,0.127-0.271,0.154l-0.158,0.041
			c-0.086,0.021-0.172,0.045-0.25,0.065C165.015,144.806,165.025,144.857,165.036,144.914z"/>
	</g>
	<g>
		<path d="M77.195,112.332c-0.083,0-0.166-0.017-0.243-0.052c-0.084-0.037-0.828-0.387-1.148-1.227
			c-0.228-0.6-0.178-1.269,0.148-1.99c0.778-1.719,1.693-2.228,1.973-2.349c0.531-0.313,0.707-0.664,0.861-0.975
			c0.159-0.319,0.399-0.801,1.023-0.801c0.101,0,0.205,0.014,0.317,0.041c0.906,0.227,0.81,1.273,0.733,2.115
			c-0.03,0.321-0.083,0.91-0.006,1.083c0.401,0.304,0.357,0.653,0.319,0.792c-0.148,0.534-0.699,0.578-1.532,0.645
			c-0.302,0.023-0.85,0.067-1.038,0.139c-0.194,0.272-0.578,1.302-0.833,2.151c-0.05,0.164-0.167,0.3-0.324,0.372
			C77.366,112.313,77.28,112.332,77.195,112.332z M78.38,107.824c0.002,0-0.686,0.301-1.335,1.734
			c-0.189,0.419-0.229,0.777-0.12,1.066c0.229-0.651,0.54-1.413,0.824-1.721c0.319-0.345,0.892-0.414,1.796-0.485
			c0.041-0.003,0.084-0.007,0.13-0.011c-0.101-0.432-0.054-0.946-0.011-1.422c0.011-0.115,0.024-0.261,0.033-0.403
			c-0.207,0.359-0.546,0.813-1.211,1.192C78.453,107.795,78.417,107.812,78.38,107.824L78.38,107.824z"/>
	</g>
</g>
</svg>
