<?xml version="1.0" encoding="iso-8859-1"?>
<!-- Generator: Adobe Illustrator 15.1.0, SVG Export Plug-In . SVG Version: 6.00 Build 0)  -->
<!DOCTYPE svg PUBLIC "-//W3C//DTD SVG 1.1//EN" "http://www.w3.org/Graphics/SVG/1.1/DTD/svg11.dtd">
<svg version="1.1" id="Layer_1" xmlns="http://www.w3.org/2000/svg" xmlns:xlink="http://www.w3.org/1999/xlink" x="0px" y="0px"
	 width="288px" height="288px" viewBox="0 0 288 288" style="enable-background:new 0 0 288 288;" xml:space="preserve">
<g>
	<path d="M200.909,253.22c-0.034,0-0.067-0.003-0.101-0.008c-0.3-0.051-30.39-5.15-62.834-11.114
		c-4.064-0.746-8.456-1.561-13.051-2.421c-16.808-3.301-38.871-7.674-48.563-9.774c-0.324-0.07-0.529-0.39-0.46-0.714
		c0,0,0.694-3.209,1.736-8.015c4.198-19.346,9.278-42.575,9.638-43.377c0.479-1.063,1.266-1.191,1.658-1.207
		c0.01-0.1,0.02-0.209,0.027-0.304c0.077-0.888,0.174-1.992,0.834-2.449c0.113-0.078,0.224-0.149,0.326-0.215
		c0.166-0.107,0.392-0.253,0.428-0.32l0,0c-0.002,0,0.002-0.058-0.055-0.201c-0.396-0.987-0.58-1.699-0.281-2.199
		c0.106-0.176,0.299-0.337,0.841-0.778c0.309-0.251,0.886-0.721,1.165-1.015c-0.185-0.146-0.472-0.332-0.65-0.447
		c-0.582-0.377-0.902-0.585-0.902-1.002c0-0.093-0.032-0.574-0.07-1.101c-0.994-0.179-1.519-0.338-1.783-0.538
		c-0.022,0-0.044,0-0.064,0c-0.434,0-1.16,0-1.532-0.557c-0.421-0.634-0.434-1.529-0.313-2.862c0.042-0.464,0.011-0.695-0.015-0.882
		c-0.048-0.347-0.06-0.608,0.192-1.072c0.037-0.067,0.045-0.308,0.05-0.467c0.021-0.623,0.057-1.665,1.312-2.217
		c1.135-0.5,4.125-4.785,4.46-5.807c0.31-0.941,1.054-0.941,1.298-0.941c0.075,0,0.152,0.003,0.233,0.006
		c0.069,0.003,0.142,0.007,0.217,0.007c0.277,0,0.555-0.033,0.9-0.428c0.511-0.584,1.067-1.067,1.515-1.456
		c0.372-0.322,0.882-0.766,0.928-0.94c0.025-0.154-0.029-0.552-0.073-0.871c-0.112-0.821-0.229-1.671,0.179-2.232
		c0.186-0.255,0.568-0.598,1.098-1.071c0.889-0.796,2.105-1.885,2.693-2.865c0.312-0.521,0.597-1.114,0.897-1.743
		c0.621-1.294,1.262-2.633,2.268-3.6c1.358-1.306,3.802-4.345,4.067-4.968c0.004-0.142,0.016-0.399,0.03-0.725
		c0.036-0.787,0.142-3.09,0.056-3.696c-0.098-0.09-0.24-0.226-0.456-0.431c-0.515-0.489-1.845-1.755-2.26-2.007h-0.263
		c-0.102,0-0.208-0.025-0.297-0.075c-0.244-0.136-1.523-1.063-2.731-5.995c-0.042-0.171-0.007-0.352,0.097-0.495
		c0.068-0.094,0.161-0.166,0.268-0.207c-0.034-0.06-0.082-0.135-0.152-0.228c-1.088-1.453-0.009-3.722,0.778-4.382
		c0.086-0.313-0.114-1.421-0.438-2.39c-0.01-0.03-0.018-0.06-0.022-0.091l-0.144-0.86c-0.087-0.522-0.812-1.474-1.148-1.854
		c-0.169-0.19-0.199-0.467-0.075-0.689l1.393-2.507l15.895-70.165c0.036-0.156,0.132-0.292,0.268-0.376
		c0.136-0.085,0.3-0.112,0.455-0.075c4.184,0.985,14.335,3.313,18.231,3.646c0.171,0.015,0.327,0.102,0.43,0.239
		c0.103,0.137,0.142,0.312,0.106,0.479l-5.697,27.773c0.444,0.887,2.051,4.128,2.319,5.17c0.129,0.501,0.16,0.993,0.187,1.429
		c0.017,0.262,0.038,0.61,0.085,0.753c0.78,0.395,2.204,1.939,1.644,3.386c-0.099,0.257-0.231,0.563-0.374,0.893
		c-0.298,0.688-0.917,2.117-0.823,2.481c0.058,0.111,0.148,0.272,0.246,0.447c0.535,0.958,1.041,1.862,0.591,2.483
		c-0.371,0.511-0.595,0.936,0.039,1.548c0.51,0.492,1.01,1.241,1.493,1.966c0.542,0.811,1.156,1.73,1.587,1.946
		c0.663,0.332,1.34,1.397,2.375,3.114c0.59,0.977,1.199,1.986,1.603,2.361c0.867,0.809,1.244,2.321,1.519,3.426
		c0.084,0.339,0.171,0.69,0.229,0.814c0.102,0.191,0.762,0.689,1.116,0.957c0.834,0.63,1.253,0.946,1.197,1.442
		c-0.012,0.101-0.042,0.229-0.103,0.489c-0.256,1.082-0.348,1.746-0.275,1.976c0.156,0.184,0.311,0.466,0.519,0.848
		c0.408,0.748,1.167,2.141,1.886,2.233c1.869,0.237,2.659,1.186,2.603,1.965c-0.004,0.097,0.101,0.573,0.482,0.971
		c0.296,0.31,0.669,0.466,1.107,0.466c0.476,0,0.979-0.048,1.422-0.091c0.391-0.037,0.76-0.072,1.072-0.072
		c0.362,0,0.815,0.041,1.106,0.361c0.121,0.133,0.258,0.364,0.225,0.712c-0.048,0.499-0.816,2.194-2.437,5.677
		c-0.729,1.567-1.418,3.049-1.655,3.661c-0.283,0.736-0.364,1.614-0.429,2.319c-0.086,0.934-0.144,1.551-0.65,1.805
		c-0.246,0.123-0.519,0.141-0.781,0.158c-0.067,0.005-0.161,0.011-0.24,0.021c0.039,0.194,0.093,0.393,0.145,0.585
		c0.168,0.622,0.342,1.267,0.007,1.812c-0.487,0.794-0.504,1.138-0.498,1.222c0.806,0.63,1.242,3.764,0.932,4.759
		c-0.21,0.673-0.713,0.726-0.861,0.726c-0.009,0-0.029-0.001-0.038-0.001c-0.252-0.011-0.501-0.054-0.741-0.095
		s-0.467-0.08-0.66-0.08c-0.265,0-0.373,0.073-0.462,0.19c-0.441,0.579-0.68,2.407-0.328,3.714c0.341,1.267-0.507,1.761-0.961,2.026
		c-0.119,0.069-0.318,0.186-0.346,0.242l0,0c0,0-0.002,0.009-0.001,0.03c0.021,0.293,0.435,0.602,0.835,0.9
		c0.45,0.336,0.915,0.684,1.103,1.196c0.274,0.753,0.747,1.651,1.434,1.651c0.266-0.008,0.418-0.14,0.762-0.486
		c0.476-0.48,1.126-1.138,2.468-1.162c0.806-0.016,1.604-0.973,2.311-1.817c0.698-0.836,1.301-1.558,2.06-1.558
		c0.037,0,0.073,0.002,0.109,0.005c1.179,0.114,1.563,1.47,1.818,2.368c0.058,0.205,0.138,0.485,0.182,0.561
		c0.034,0.04,0.132,0.125,0.235,0.215c0.394,0.343,1.052,0.917,0.839,1.854c-0.063,0.281-0.179,0.958,0.133,1.157
		c0.5,0.321,0.502,1.024,0.436,3.008c-0.044,1.327-0.1,2.979,0.172,3.845c0.165,0.526,0.33,1.134,0.506,1.776
		c0.281,1.035,0.748,2.752,1.026,3.09c0.143,0.067,0.31,0.133,0.473,0.195c0.569,0.222,1.215,0.473,1.215,1.107
		c0.003,0.042,0.033,0.267,0.061,0.466c0.394,2.871,0.421,4.285-0.488,4.558c-0.114,0.034-0.146,0.063-0.146,0.063
		c-0.049,0.115,0.074,0.649,0.127,0.878c0.199,0.863,1.042,2.3,1.788,2.786c0.106,0.07,0.202,0.101,0.312,0.101
		c0.159,0,0.346-0.063,0.542-0.131c0.24-0.082,0.512-0.175,0.809-0.175c0.253,0,0.487,0.067,0.698,0.2
		c0.971,0.613,2.515,5.429,2.348,6.259c-0.114,0.569,0.102,4.188,0.215,4.921c0.221,0.496,2.044,2.032,2.776,2.372
		c0.081-0.142,0.185-0.36,0.266-0.533c0.459-0.976,1.226-2.606,2.996-2.637h0.058c1.605,0,3.677,1.124,5.188,1.944
		c0.3,0.162,0.646,0.351,0.897,0.474c0.014-0.077,0.027-0.158,0.039-0.226c0.112-0.678,0.322-1.939,1.503-1.939
		c0.166,0,0.207-0.042,0.363-0.277c0.143-0.214,0.381-0.572,0.86-0.572c0.415,0,0.771,0.301,1.065,0.595l0.135,0.135
		c1.018,1.021,1.691,1.697,4.75,1.697c3.068,0,3.188,0,3.843,0.612c0.073,0.068,0.158,0.148,0.271,0.242
		c0.348,0.291,2.081,0.584,4.725,0.584c0.453,0,0.892-0.01,1.26-0.028c-0.369-0.597-0.957-1.642-0.305-2.945
		c0.896-1.793,2.205-2.429,3.053-2.429c0.423,0,0.801,0.146,1.065,0.41c0.592,0.591,3.746,6.632,4.698,8.469
		c0.06,0.113,0.08,0.243,0.061,0.37l-10.958,69.375c-0.024,0.158-0.112,0.3-0.242,0.394
		C201.156,253.181,201.033,253.22,200.909,253.22z M77.2,228.855c9.964,2.145,31.483,6.409,47.949,9.643
		c4.589,0.859,8.979,1.674,13.042,2.419c29.912,5.499,57.821,10.262,62.22,11.01l10.831-68.581c-1.875-3.61-4.027-7.596-4.395-8.002
		c-0.033-0.032-0.114-0.055-0.213-0.055c-0.528,0-1.373,0.553-1.979,1.767c-0.354,0.706-0.086,1.235,0.3,1.854
		c0.229,0.368,0.49,0.786,0.262,1.229c-0.237,0.462-0.814,0.498-1.061,0.514c-0.427,0.026-0.97,0.041-1.529,0.041
		c-1.666,0-4.596-0.112-5.493-0.862c-0.133-0.111-0.235-0.206-0.322-0.288c-0.309-0.289-0.309-0.289-3.022-0.289
		c-3.558,0-4.459-0.904-5.601-2.05l-0.132-0.133c-0.052-0.051-0.096-0.093-0.133-0.126c-0.193,0.281-0.563,0.732-1.309,0.732
		c-0.164,0-0.269,0.633-0.319,0.937c-0.09,0.54-0.226,1.356-0.973,1.356c-0.327,0-0.697-0.192-1.72-0.747
		c-1.32-0.716-3.315-1.799-4.616-1.799h-0.037c-0.946,0.016-1.435,0.892-1.931,1.946c-0.323,0.688-0.603,1.282-1.225,1.282
		c-0.011,0-0.033,0-0.044-0.001c-0.895-0.049-3.876-2.428-4.039-3.406c-0.104-0.618-0.38-4.538-0.212-5.381
		c0.053-0.649-1.294-4.545-1.832-5.021c0.003,0.003-0.008-0.001-0.037-0.001c-0.098,0-0.262,0.057-0.421,0.11
		c-0.255,0.087-0.571,0.195-0.93,0.195c-0.343,0-0.669-0.1-0.968-0.296c-1.127-0.735-2.076-2.549-2.301-3.521
		c-0.184-0.797-0.432-1.875,0.686-2.308c0.084-0.293,0.1-1.121-0.198-3.299c-0.026-0.192-0.045-0.324-0.056-0.42
		c-0.119-0.062-0.321-0.141-0.467-0.196c-0.204-0.08-0.416-0.162-0.616-0.262c-0.595-0.298-0.929-1.34-1.605-3.827
		c-0.172-0.632-0.334-1.229-0.492-1.732c-0.333-1.061-0.276-2.752-0.227-4.244c0.024-0.732,0.058-1.716-0.011-2.048
		c-0.381-0.305-0.84-0.97-0.529-2.343c0.047-0.203-0.073-0.35-0.457-0.684c-0.136-0.118-0.275-0.24-0.39-0.38
		c-0.179-0.218-0.269-0.534-0.393-0.973c-0.146-0.512-0.416-1.466-0.779-1.501c-0.215,0.028-0.789,0.717-1.133,1.128
		c-0.827,0.989-1.855,2.222-3.209,2.248c-0.854,0.016-1.218,0.382-1.638,0.806c-0.38,0.385-0.812,0.819-1.549,0.842l-0.065,0.001
		c-0.762,0-1.825-0.424-2.562-2.44c-0.064-0.177-0.412-0.437-0.692-0.646c-0.559-0.417-1.255-0.937-1.313-1.776
		c-0.059-0.813,0.565-1.178,0.938-1.396c0.438-0.255,0.507-0.308,0.407-0.678c-0.429-1.597-0.18-3.817,0.532-4.753
		c0.335-0.439,0.812-0.662,1.417-0.662c0.295,0,0.584,0.049,0.862,0.097c0.115,0.02,0.227,0.039,0.332,0.054
		c0.129-0.752-0.264-2.904-0.571-3.319c-0.476-0.349-0.806-1.117,0.223-2.791c0.063-0.104-0.071-0.602-0.144-0.87
		c-0.065-0.241-0.139-0.514-0.188-0.794c-0.075-0.431,0.06-0.713,0.186-0.874c0.306-0.39,0.809-0.423,1.176-0.447
		c0.063-0.004,0.145-0.01,0.212-0.017c0.044-0.2,0.078-0.572,0.104-0.859c0.071-0.779,0.161-1.748,0.505-2.641
		c0.252-0.65,0.949-2.149,1.687-3.736c0.792-1.702,1.942-4.174,2.254-5.043c-0.019,0-0.039,0-0.061,0
		c-0.256,0-0.597,0.032-0.958,0.066c-0.47,0.046-1.003,0.097-1.536,0.097c-0.783,0-1.476-0.3-2.003-0.866
		c-0.56-0.601-0.817-1.389-0.784-1.857c-0.027-0.117-0.464-0.549-1.558-0.688c-1.327-0.171-2.206-1.783-2.787-2.85
		c-0.138-0.252-0.309-0.566-0.377-0.642c-0.466-0.504-0.353-1.454,0.02-3.031c0.014-0.057,0.026-0.109,0.037-0.156
		c-0.165-0.147-0.47-0.378-0.688-0.542c-0.766-0.578-1.282-0.988-1.479-1.404c-0.108-0.231-0.192-0.568-0.309-1.035
		c-0.225-0.904-0.564-2.271-1.172-2.838c-0.525-0.489-1.15-1.523-1.812-2.619c-0.591-0.98-1.485-2.461-1.886-2.662
		c-0.714-0.357-1.361-1.326-2.046-2.353c-0.449-0.672-0.913-1.366-1.33-1.77c-0.933-0.901-1.013-1.92-0.237-3.029
		c-0.047-0.278-0.421-0.946-0.606-1.278c-0.107-0.193-0.207-0.371-0.28-0.518c-0.349-0.698,0.092-1.829,0.804-3.474
		c0.136-0.313,0.263-0.604,0.356-0.849c0.267-0.688-0.762-1.753-1.075-1.887c-0.641-0.276-0.687-1.023-0.731-1.745
		c-0.023-0.381-0.051-0.813-0.151-1.204c-0.222-0.86-1.751-3.984-2.322-5.115c-0.061-0.12-0.079-0.258-0.052-0.391l5.605-27.328
		c-4.151-0.488-12.884-2.47-17.145-3.468l-15.78,69.659c-0.013,0.056-0.033,0.108-0.061,0.158l-1.234,2.223
		c0.385,0.482,1.034,1.384,1.158,2.122l0.136,0.814c0.448,1.358,0.814,3.073,0.063,3.639c-0.344,0.258-1.217,1.919-0.596,2.748
		c0.164,0.22,0.668,0.891,0.385,1.516c-0.062,0.137-0.152,0.252-0.267,0.345c0.851,3.265,1.676,4.363,1.954,4.66h0.154
		c0.378,0,0.732,0.201,2.979,2.337c0.228,0.216,0.463,0.439,0.518,0.484c0.332,0.268,0.438,0.563,0.254,4.566
		c-0.017,0.367-0.029,0.641-0.029,0.744c0,0.975-3.713,5.064-4.435,5.759c-0.85,0.816-1.442,2.055-2.017,3.253
		c-0.301,0.626-0.61,1.273-0.951,1.842c-0.682,1.136-1.977,2.295-2.922,3.142c-0.401,0.359-0.817,0.731-0.928,0.884
		c-0.123,0.18-0.013,0.979,0.04,1.363c0.065,0.481,0.123,0.897,0.066,1.234c-0.097,0.582-0.611,1.028-1.324,1.647
		c-0.44,0.383-0.941,0.816-1.398,1.339c-0.657,0.751-1.344,0.838-1.803,0.838c-0.092,0-0.182-0.004-0.267-0.008
		c-0.129-0.005-0.26-0.005-0.294,0.001c-0.011,0.017-0.027,0.05-0.047,0.109c-0.389,1.185-3.529,5.832-5.117,6.53
		c-0.541,0.238-0.574,0.545-0.595,1.159c-0.012,0.337-0.023,0.685-0.196,1.001c-0.083,0.152-0.083,0.152-0.058,0.336
		c0.03,0.22,0.075,0.552,0.021,1.152c-0.077,0.854-0.118,1.692,0.102,2.063c0.107,0.047,0.414,0.047,0.549,0.047
		c0.188,0.001,0.662,0.001,0.892,0.284c0.296,0.101,1.02,0.252,1.615,0.349c0.273,0.045,0.48,0.271,0.502,0.546
		c0.015,0.188,0.074,0.979,0.099,1.412c0.102,0.072,0.248,0.167,0.365,0.242c0.773,0.501,1.248,0.841,1.309,1.331
		c0.069,0.554-0.443,1.031-1.719,2.069c-0.196,0.16-0.434,0.354-0.547,0.458c0.003,0.112,0.051,0.409,0.345,1.144
		c0.456,1.142-0.291,1.623-0.837,1.975c-0.093,0.06-0.191,0.123-0.294,0.194c-0.199,0.174-0.288,1.186-0.321,1.566
		c-0.063,0.736-0.11,1.269-0.653,1.38c-0.091,0.018-0.175,0.021-0.239,0.021l-0.193-0.003c-0.223,0-0.475,0-0.7,0.501
		c-0.297,0.803-3.874,16.936-9.56,43.14C78.03,225.021,77.445,227.722,77.2,228.855z"/>
</g>
</svg>
