<?xml version="1.0" encoding="iso-8859-1"?>
<!-- Generator: Adobe Illustrator 15.1.0, SVG Export Plug-In . SVG Version: 6.00 Build 0)  -->
<!DOCTYPE svg PUBLIC "-//W3C//DTD SVG 1.1//EN" "http://www.w3.org/Graphics/SVG/1.1/DTD/svg11.dtd">
<svg version="1.1" id="Layer_1" xmlns="http://www.w3.org/2000/svg" xmlns:xlink="http://www.w3.org/1999/xlink" x="0px" y="0px"
	 width="288px" height="288px" viewBox="0 0 288 288" style="enable-background:new 0 0 288 288;" xml:space="preserve">
<g>
	<path d="M156.14,250.265c-0.786,0-1.021-0.255-1.535-0.813c-0.173-0.188-0.39-0.422-0.694-0.727
		c-0.909-0.91-1.749-2.344-2.562-3.73c-0.774-1.321-1.575-2.688-2.375-3.489c-0.646-0.645-0.857-1.431-0.598-2.213
		c0.406-1.222,1.898-2.201,3.007-2.517c-0.436-0.929-2.362-3.268-4.133-5.16c-0.104-0.11-0.161-0.257-0.161-0.409v-6.519
		c-2.257-0.387-3.564-0.83-3.889-1.318c-0.624-0.934-3.3-3.935-4.082-3.935c-0.66,0.225-1.182,0.214-1.852,0.135
		c-0.407-0.049-0.916-0.109-1.734-0.109c-0.634,0-1.179-0.235-1.575-0.681c-0.72-0.81-0.783-2.112-0.761-2.793
		c-1.186-0.606-4.97-2.588-6.782-4.068c-0.995-0.815-1.373-1.527-1.707-2.156c-0.406-0.766-0.728-1.371-2.184-2.147
		c-1.2-0.641-1.871-1.72-1.941-3.12c-0.085-1.733,0.828-3.592,1.702-4.177c0.376-0.27,1.087-2.312,1.558-3.662
		c0.978-2.809,1.623-4.55,2.529-4.938c0.15-0.064,0.174-0.127,0.185-0.158c0.141-0.381-0.346-1.357-0.667-2.004
		c-0.147-0.296-0.286-0.575-0.402-0.847c-0.675-1.573,1.436-4.293,2.368-5.211c-0.62-0.95-3.534-3.591-4.59-3.591
		c-0.026,0-0.037,0.003-0.037,0.003c-0.265,0.113-0.559,0.172-0.87,0.172c-0.822,0-1.673-0.403-2.575-0.83
		c-0.662-0.314-1.347-0.639-2.071-0.837c-0.056-0.015-0.105-0.022-0.146-0.022c-0.274,0-0.49,0.769-0.663,1.386
		c-0.338,1.205-0.801,2.856-2.537,2.856c-0.12,0-0.245-0.009-0.371-0.025c-2.818-0.377-3.811-4.281-4.403-6.614
		c-0.103-0.401-0.19-0.748-0.273-1.023c-0.198-0.664-0.269-1.412-0.343-2.205c-0.155-1.661-0.331-3.544-1.673-5.62
		c-2-3.089-7.958-5.288-8.571-5.44c-0.646-0.164-0.894-0.859-1.156-1.596c-0.242-0.679-0.517-1.448-1.022-1.665
		c-1.39-0.594-6.122-6.093-7.057-7.188c-0.093-0.108-0.144-0.247-0.144-0.39v-2.03l-2.481-2.484
		c-0.113-0.112-0.176-0.265-0.176-0.424v-2.354c-0.328-0.83-2.316-5.944-3.031-9.688c-0.765-4.009,2.648-8.695,3.111-9.308
		c0.109-0.188,0.313-0.308,0.529-0.3l0.104,0.001c0.139,0,0.251-0.008,0.354-0.025c0.661-0.11,0.803-0.387,0.85-0.478
		c0.44-0.861-0.578-2.921-1.252-4.283c-0.365-0.74-0.682-1.379-0.833-1.883c-0.457-1.526,1.438-2.11,3.445-2.728
		c1.665-0.512,3.553-1.093,4.166-2.121c1.293-2.167-0.011-4.91-0.024-4.938c-0.118-0.244-0.059-0.538,0.146-0.716l4.369-3.783
		c-0.201-1.767-0.866-5.66-2.048-6.71c-1.982-1.762-3.278-5.44-2.046-8.106c1.199-2.604,1.648-3.579,2.634-3.579
		c0.615-0.012,7.32-1.15,8.135-1.477c0.166-0.066,0.435-0.424,0.671-0.739c0.642-0.857,1.611-2.152,3.54-2.152
		c1.775,0,3.681-1.662,4.597-2.462c0.197-0.172,0.352-0.307,0.478-0.402c0.176-0.57,0.062-3.1-0.164-5.208
		c-0.022-0.208,0.065-0.412,0.231-0.539c0.103-0.079,2.534-1.943,4.084-2.721c0.74-0.62,0.318-6.957-0.322-10.76
		c-0.152-0.71-3.594-2.71-6.011-3.314c-2.36-0.59-2.392-3.995-2.34-5.07c-1.128-0.969-5.297-4.6-6.061-5.948
		c-0.102-0.18-0.104-0.399-0.005-0.581s0.283-0.301,0.489-0.313l79.057-4.985c0.194-0.01,0.385,0.072,0.507,0.226
		s0.161,0.357,0.105,0.545c-0.011,0.036-1.053,3.575-0.646,6.822c0.304,2.432,2.203,5.025,3.59,6.919
		c0.471,0.645,0.878,1.2,1.169,1.672c0.91,1.48,1.54,3.991,2.046,6.009c0.157,0.624,0.305,1.215,0.441,1.69
		c0.433,1.514,2.505,3.823,3.267,4.585c0.101,0.101,0.162,0.233,0.174,0.374l7.549,89.883c0.014,0.167-0.043,0.332-0.156,0.456
		c-0.113,0.123-0.273,0.193-0.441,0.193c0,0-0.582,0.019-0.932,0.463c-0.331,0.42-0.397,1.142-0.192,2.086
		c0.341,1.564,0.643,2.169,0.788,2.459c0.286,0.572,0.208,0.819-0.192,1.319c-0.175,0.218-0.436,0.436-0.736,0.688
		c-0.475,0.397-1.192,0.997-1.211,1.418c-0.003,0.047-0.008,0.171,0.193,0.372c0.42,0.42,0.891,0.771,1.306,1.081
		c0.881,0.656,1.713,1.277,1.57,2.276c-0.065,0.455-0.306,0.833-0.518,1.167c-0.084,0.133-0.206,0.324-0.246,0.432
		c0.049,0.035,0.155,0.098,0.369,0.169c0.396,0.133,0.731,0.144,1.015,0.144h0.143c0.285,0,0.716,0,0.989,0.367
		c0.326,0.438,0.188,1.058-0.204,2.367c-0.515,1.712-0.392,1.848-0.205,2.052c0.153,0.169,0.362,0.398,0.541,0.816
		c0.464,1.067,0.837,4.685,0.18,5.686c-0.24,0.366-0.562,0.421-0.731,0.421c-0.686,0-1.361,0.199-1.507,0.445
		c-0.08,0.134,0.033,0.383,0.107,0.519c0.965,1.77-0.26,3.964-0.944,4.553c-0.045,0.146-0.094,0.48-0.13,0.733
		c-0.161,1.12-0.403,2.801-1.736,2.996c0.117,0.501,0.172,1.351-0.822,2.511c-0.673,0.785-0.955,1.627-1.205,2.37
		c-0.331,0.99-0.707,2.112-2.099,2.112c-0.637,0-1.035-0.122-1.291-0.217c-0.096,0.17-0.223,0.424-0.31,0.598
		c-0.763,1.525-0.563,2.042,0.423,2.821c0.34,0.268,0.681,0.603,0.637,1.056c-0.046,0.471-0.452,0.679-0.778,0.846
		c-0.365,0.188-0.78,0.399-0.966,0.911c-0.207,0.567-0.445,0.92-0.637,1.204c-0.33,0.49-0.467,0.692-0.066,1.974
		c0.531,1.7,0.561,3.122,0.084,4.005c-0.213,0.394-0.522,0.676-0.902,0.826c0.006,0.011,0.013,0.021,0.019,0.032
		c0.279,0.493,0.748,1.318,1.285,2.78c0.024,0.066,0.037,0.137,0.037,0.207c0,0.209-0.108,0.405-0.286,0.515
		c-0.104,0.064-0.22,0.094-0.345,0.09c0.006,0.015,0.012,0.03,0.018,0.046c0.252,0.652,0.565,1.464-0.231,3.057
		c-0.534,1.069-1.373,1.344-1.928,1.525c-0.598,0.196-0.722,0.237-0.446,1.336c0.361,1.451,1.325,2.718,2.029,3.643
		c0.751,0.986,1.294,1.699,0.893,2.368c-0.261,0.435-1.127,0.779-4.427,1.949c-2.086,0.74-5.971,2.117-6.376,2.707
		c-0.399,0.904-0.946,3.584-1.18,4.84c3.236,3.954,3.236,4.361,3.236,4.582c0,0.241-0.083,0.881-0.269,1.545
		c-0.034,0.121-0.105,0.229-0.204,0.308c-0.967,0.771-1.838,1.445-2.665,2.063c-0.145,0.109-0.332,0.146-0.508,0.102
		c-1.181-0.301-2.934-1.063-4.789-1.871c-1.749-0.761-3.558-1.548-4.711-1.852c-0.953-0.25-1.762-0.573-2.413-0.832
		c-0.688-0.274-1.28-0.511-1.677-0.511c-0.192,0-0.325,0.055-0.46,0.189c-0.389,0.389-1.928,2.162-3.71,4.216
		c-0.929,1.07-1.936,2.229-2.911,3.346c-0.125,0.143-0.31,0.22-0.501,0.203c-0.199-0.017-0.414-0.033-0.66-0.033
		c-0.494,0-0.855,0.014-1.146,0.024C156.42,250.259,156.268,250.265,156.14,250.265z M148.288,230.97
		c4.771,5.127,4.442,6.063,4.334,6.372c-0.102,0.289-0.353,0.489-0.672,0.534c-0.763,0.11-2.157,0.958-2.436,1.795
		c-0.072,0.218-0.12,0.559,0.308,0.986c0.909,0.909,1.749,2.343,2.562,3.73c0.774,1.321,1.575,2.688,2.375,3.488
		c0.322,0.322,0.557,0.576,0.728,0.762c0.394,0.427,0.394,0.427,0.653,0.427c0.116,0,0.254-0.006,0.425-0.012
		c0.284-0.011,0.673-0.024,1.189-0.024c0.164,0,0.315,0.006,0.455,0.014c0.912-1.045,1.846-2.12,2.711-3.116
		c1.871-2.156,3.349-3.859,3.768-4.278c0.359-0.359,0.8-0.541,1.309-0.541c0.626,0,1.286,0.263,2.121,0.596
		c0.652,0.26,1.393,0.555,2.274,0.787c1.242,0.326,3.094,1.133,4.884,1.911c1.593,0.693,3.235,1.408,4.334,1.733
		c0.703-0.529,1.441-1.102,2.246-1.741c0.107-0.43,0.156-0.792,0.171-0.957c-0.255-0.497-1.789-2.479-3.135-4.116
		c-0.111-0.136-0.158-0.313-0.127-0.486c0.029-0.166,0.732-4.075,1.324-5.408c0.394-0.885,2.559-1.733,7.062-3.33
		c1.416-0.502,3.142-1.114,3.709-1.419c-0.125-0.247-0.454-0.681-0.729-1.041c-0.767-1.008-1.817-2.388-2.238-4.078
		c-0.505-2.016,0.297-2.459,1.236-2.767c0.492-0.162,0.918-0.301,1.229-0.923c0.56-1.118,0.386-1.567,0.186-2.087
		c-0.116-0.303-0.249-0.646-0.249-1.083c0-0.34,0.175-0.611,0.445-0.733c-0.344-0.805-0.636-1.319-0.83-1.661
		c-0.255-0.45-0.438-0.774-0.282-1.157c0.153-0.377,0.537-0.486,0.817-0.567c0.09-0.025,0.222-0.083,0.337-0.297
		c0.313-0.578,0.247-1.729-0.174-3.077c-0.534-1.708-0.274-2.273,0.218-3.002c0.17-0.254,0.348-0.516,0.503-0.943
		c0.318-0.877,0.978-1.272,1.431-1.509c-1.462-1.182-1.647-2.341-0.691-4.252c0.444-0.888,0.667-1.333,1.236-1.333
		c0.183,0,0.331,0.058,0.474,0.112c0.191,0.075,0.455,0.177,0.964,0.177c0.454,0,0.589-0.181,0.962-1.293
		c0.27-0.806,0.605-1.808,1.431-2.771c0.739-0.862,0.618-1.281,0.521-1.619c-0.063-0.218-0.158-0.547,0.057-0.865
		c0.213-0.314,0.586-0.393,0.958-0.43c0.468-0.047,0.649-1.306,0.747-1.982c0.107-0.743,0.178-1.233,0.547-1.48
		c0.274-0.21,1.314-1.862,0.661-3.061c-0.435-0.797-0.287-1.367-0.086-1.705c0.497-0.838,1.758-0.998,2.319-1.026
		c0.246-0.746,0.056-3.549-0.33-4.438c-0.101-0.235-0.206-0.351-0.327-0.484c-0.584-0.643-0.668-1.168-0.058-3.204
		c0.165-0.55,0.271-0.947,0.314-1.189h-0.092c-0.406,0-0.856-0.025-1.396-0.206c-0.398-0.134-0.951-0.372-1.14-0.905
		c-0.198-0.559,0.125-1.067,0.385-1.477c0.154-0.243,0.313-0.494,0.343-0.693c0.041-0.293-0.513-0.707-1.101-1.145
		c-0.447-0.335-0.955-0.713-1.437-1.194c-0.382-0.382-0.564-0.811-0.544-1.274c0.042-0.948,0.928-1.689,1.64-2.285
		c0.231-0.193,0.471-0.393,0.57-0.517c0.015-0.019,0.029-0.037,0.044-0.056c-0.171-0.343-0.511-1.044-0.875-2.718
		c-0.291-1.338-0.144-2.382,0.438-3.104c0.369-0.459,0.84-0.684,1.215-0.794l-7.485-89.123c-0.623-0.646-2.884-3.082-3.417-4.944
		c-0.142-0.495-0.292-1.095-0.451-1.729c-0.485-1.938-1.091-4.35-1.904-5.672c-0.265-0.431-0.659-0.969-1.115-1.592
		c-1.464-2-3.47-4.739-3.812-7.479c-0.319-2.555,0.168-5.191,0.473-6.492l-77.097,4.861c1.344,1.482,4.182,3.981,5.376,5
		c0.149,0.127,0.227,0.319,0.208,0.515c-0.004,0.037-0.308,3.678,1.415,4.108c1.972,0.492,6.623,2.619,6.902,4.279
		c0.088,0.517,0.477,3.191,0.648,5.901c0.307,4.819-0.319,5.804-0.971,6.13c-1.164,0.584-2.953,1.896-3.625,2.398
		c0.548,5.354-0.042,5.751-0.298,5.922c-0.077,0.052-0.261,0.212-0.455,0.382c-1.026,0.896-3.16,2.758-5.386,2.758
		c-1.328,0-1.965,0.85-2.58,1.671c-0.362,0.484-0.705,0.942-1.185,1.135c-1.013,0.405-7.907,1.563-8.581,1.563
		c-0.27,0.113-0.946,1.584-1.545,2.881c-0.965,2.09,0.13,5.265,1.754,6.708c1.832,1.626,2.417,7.17,2.478,7.797
		c0.019,0.193-0.058,0.385-0.204,0.512l-4.277,3.704c0.375,0.987,1.088,3.477-0.206,5.646c-0.85,1.425-2.971,2.077-4.844,2.653
		c-0.966,0.297-2.764,0.85-2.648,1.235c0.122,0.406,0.432,1.032,0.76,1.695c0.919,1.857,1.96,3.964,1.244,5.362
		c-0.308,0.601-0.886,0.975-1.719,1.114c-0.11,0.019-0.229,0.031-0.355,0.037c-0.699,0.975-3.377,4.97-2.764,8.186
		c0.742,3.885,2.987,9.519,3.01,9.575c0.028,0.071,0.043,0.146,0.043,0.223v2.221l2.481,2.483c0.112,0.112,0.175,0.265,0.175,0.424
		v2.059c2.112,2.467,5.617,6.33,6.473,6.695c0.988,0.424,1.372,1.5,1.681,2.365c0.104,0.291,0.259,0.725,0.366,0.848
		c0.946,0.263,7.06,2.573,9.239,5.94c1.501,2.323,1.7,4.45,1.86,6.159c0.071,0.764,0.133,1.424,0.297,1.972
		c0.091,0.301,0.182,0.659,0.287,1.073c0.518,2.039,1.385,5.451,3.398,5.721c0.075,0.01,0.146,0.015,0.213,0.015
		c0.771,0,1.036-0.748,1.382-1.98c0.282-1.008,0.634-2.262,1.818-2.262c0.147,0,0.304,0.021,0.462,0.065
		c0.827,0.226,1.594,0.589,2.271,0.909c0.986,0.468,1.896,0.882,2.464,0.638c0.151-0.064,0.321-0.098,0.504-0.098
		c1.797,0,5.508,3.532,5.843,4.644c0.129,0.424-0.056,0.728-0.272,0.872c-0.542,0.362-2.622,3.136-2.246,4.014
		c0.103,0.24,0.234,0.505,0.374,0.785c0.51,1.025,1.037,2.086,0.72,2.952c-0.098,0.265-0.321,0.626-0.839,0.848
		c-0.485,0.255-1.352,2.742-1.869,4.229c-0.845,2.426-1.355,3.82-2.023,4.266c-0.511,0.342-1.237,1.76-1.17,3.119
		c0.048,0.97,0.487,1.684,1.307,2.12c1.78,0.95,2.237,1.812,2.679,2.645c0.309,0.58,0.599,1.128,1.407,1.79
		c2.016,1.646,6.868,4.081,6.917,4.105c0.226,0.113,0.356,0.355,0.327,0.606c-0.05,0.441-0.069,1.714,0.438,2.282
		c0.168,0.188,0.384,0.277,0.677,0.277c0.89,0,1.46,0.067,1.877,0.117c0.563,0.066,0.833,0.087,1.352-0.087
		c0.112-0.037,0.232-0.057,0.357-0.057c1.69,0,4.746,4.019,5.056,4.436c0.33,0.259,2.12,0.68,3.608,0.915
		c0.292,0.046,0.506,0.298,0.506,0.593V230.97z"/>
</g>
</svg>
