<?xml version="1.0" encoding="iso-8859-1"?>
<!-- Generator: Adobe Illustrator 15.1.0, SVG Export Plug-In . SVG Version: 6.00 Build 0)  -->
<!DOCTYPE svg PUBLIC "-//W3C//DTD SVG 1.1//EN" "http://www.w3.org/Graphics/SVG/1.1/DTD/svg11.dtd">
<svg version="1.1" id="Layer_1" xmlns="http://www.w3.org/2000/svg" xmlns:xlink="http://www.w3.org/1999/xlink" x="0px" y="0px"
	 width="288px" height="288px" viewBox="0 0 288 288" style="enable-background:new 0 0 288 288;" xml:space="preserve">
<g>
	<path d="M87.817,249.688c-0.748,0-1.671-0.524-2.564-1.031c-0.264-0.149-0.517-0.294-0.744-0.41
		c-0.145-0.074-0.251-0.202-0.299-0.352c-0.665-1.804-1.242-2.82-1.587-3.429c-0.331-0.584-0.531-0.937-0.36-1.354
		c0.168-0.411,0.603-0.535,0.951-0.635c0.234-0.067,0.416-0.225,0.556-0.482c0.433-0.802,0.353-2.365-0.215-4.182
		c-0.689-2.205-0.35-2.873,0.263-3.779c0.23-0.342,0.469-0.694,0.681-1.278c0.431-1.184,1.375-1.667,1.938-1.956
		c0.032-0.016,0.067-0.034,0.103-0.053c-0.04-0.034-0.087-0.073-0.145-0.118c-1.903-1.503-2.156-2.97-0.935-5.411
		c0.564-1.13,0.822-1.646,1.455-1.646c0.204,0,0.373,0.065,0.553,0.135c0.266,0.104,0.63,0.245,1.333,0.245
		c0.746,0,0.951-0.37,1.438-1.825c0.349-1.042,0.783-2.338,1.843-3.573c1.035-1.207,0.854-1.838,0.721-2.298
		c-0.077-0.268-0.184-0.634,0.05-0.978c0.223-0.33,0.608-0.432,1.119-0.483c0.762-0.075,0.994-1.691,1.148-2.761
		c0.138-0.958,0.221-1.536,0.636-1.813c0.385-0.267,1.862-2.547,0.928-4.262c-0.528-0.968-0.354-1.65-0.116-2.053
		c0.646-1.088,2.39-1.241,3.015-1.261c0.398-0.81,0.156-4.811-0.394-6.078c-0.145-0.336-0.3-0.507-0.463-0.687
		c-0.663-0.729-0.852-1.298-0.034-4.024c0.271-0.905,0.422-1.509,0.448-1.801c-0.059-0.002-0.117-0.002-0.147-0.002l-0.189,0.001
		c-0.517,0-1.089-0.031-1.771-0.261c-0.486-0.162-1.158-0.45-1.379-1.073c-0.229-0.646,0.151-1.246,0.486-1.774
		c0.214-0.335,0.434-0.682,0.477-0.983c0.067-0.471-0.532-0.944-1.516-1.679c-0.583-0.435-1.243-0.927-1.866-1.549
		c-0.461-0.463-0.683-0.978-0.658-1.532c0.052-1.161,1.18-2.104,2.086-2.862c0.324-0.271,0.631-0.527,0.773-0.705
		c0.045-0.057,0.094-0.117,0.132-0.167c-0.012-0.025-0.025-0.052-0.038-0.076c-0.216-0.432-0.664-1.329-1.147-3.552
		c-0.37-1.697-0.189-3.015,0.536-3.915c0.507-0.629,1.166-0.902,1.647-1.021L86.708,51.532c-0.021-0.26,0.127-0.504,0.368-0.604
		s0.52-0.032,0.688,0.167c0.022,0.027,2.323,2.723,5.398,4.141c0.302,0.139,0.684,0.209,1.138,0.209
		c3.67,0,10.622-4.468,13.239-6.149c3.204-2.061,3.759-2.697,3.781-2.724c0.1-0.139,0.237-0.206,0.407-0.225l76.008-7.976
		c0.17-0.019,0.337,0.037,0.464,0.15c0.126,0.114,0.198,0.276,0.198,0.446v3.953l14.441,128.074
		c0.031,0.278-0.133,0.541-0.396,0.634l-0.093,0.032c-1.134,0.398-2.305,0.81-2.305,1.307c0,0.494,0.742,1.495,1.285,2.227
		c0.921,1.241,1.872,2.524,0.919,3.287c-0.553,0.443-1.238,1.67-1.437,2.304c1.281,0.044,4.279,0.313,4.279,1.901
		c0,0.599-0.211,1.318-0.414,2.016c-0.196,0.669-0.418,1.429-0.346,1.79c0.227,1.134-1.44,1.482-3.748,1.964
		c-1.057,0.221-2.255,0.471-2.711,0.731c-1,0.571-4.782,3.635-6.644,5.176c-0.221,0.182-0.539,0.183-0.761,0.003
		c-1.515-1.23-3.139-2.282-3.548-2.297c-1.291,0-5.938,0.508-6.845,1.094c0.253,0.893,0.733,3.188,1.161,5.234
		c0.272,1.301,0.581,2.775,0.647,2.976c0.331,0.997-2.103,5.003-4.652,5.983c-0.859,0.33-1.617,2.981-2.226,5.111
		c-0.896,3.131-1.669,5.835-3.384,5.835c-0.115,0-0.232-0.014-0.349-0.04c-1.014-0.233-1.667-0.626-2.144-0.912
		c-0.208-0.125-0.467-0.28-0.559-0.28c-0.001,0-0.193,0.011-0.768,0.927c-0.221,0.353-0.43,0.671-0.624,0.968
		c-1.091,1.658-1.638,2.49-1.343,5.147l0.007,0.063c0.219,1.967,0.468,4.197,0.166,5.877c-0.027,0.154-0.115,0.292-0.243,0.383
		c-1.033,0.733-2.076,1.465-3.124,2.197c-0.095,0.066-0.207,0.104-0.323,0.107c-0.636,0.021-1.216,0.031-1.774,0.031
		c-3.717,0-6.094-0.457-7.268-1.396c-1.048-0.838-1.855-2.275-2.505-3.43c-0.357-0.635-0.841-1.494-1.09-1.666
		c-0.395,0.069-1.365,0.971-1.955,1.518c-0.526,0.488-1.07,0.994-1.576,1.355c-0.533,0.381-1.054,0.546-1.513,0.69
		c-0.779,0.246-1.25,0.396-1.637,1.456c-0.304,0.836-0.02,2.355,0.209,3.576c0.266,1.422,0.458,2.449-0.011,3.014
		c-0.186,0.224-0.456,0.347-0.762,0.347c-0.638,0-1.062,0.679-1.701,1.787c-0.188,0.325-0.382,0.661-0.6,0.994
		c-0.111,0.172-0.409,0.626-0.905,0.626c-0.605,0-0.845-0.585-1.076-1.151c-0.284-0.695-0.557-1.274-1.017-1.325
		c-0.541-0.06-1.239-0.001-1.882,0.065c-0.438,0.045-0.892,0.091-1.318,0.091c-0.736,0-1.289-0.14-1.74-0.439
		c-0.551-0.368-1.061-1.175-1.601-2.028c-0.236-0.373-0.561-0.886-0.802-1.183c-0.736,1.297-3.286,2.567-5.649,3.668
		c-0.266,0.123-0.488,0.227-0.65,0.307c-0.119,0.234-0.077,1.106-0.049,1.689c0.087,1.829,0.206,4.335-1.976,4.916
		c-0.332,0.089-0.667,0.134-0.993,0.134c-1.487,0-2.611-0.908-3.603-1.709c-0.698-0.564-1.358-1.098-2.021-1.219
		c-1.035-0.188-2.083-0.91-3.097-1.608c-1.002-0.69-2.038-1.404-2.815-1.404c-0.075,0-0.148,0.008-0.217,0.021
		c-0.543,0.108-1.127,0.305-1.692,0.493c-0.88,0.294-1.789,0.599-2.616,0.599c-0.518,0-0.975-0.121-1.358-0.358
		c-0.248-0.153-0.569-0.387-0.699-0.722c-0.09,0-0.188,0-0.293,0c-0.052,0-0.071,0.009-0.071,0.009
		c-0.185,0.227,0.062,1.494,0.193,2.176c0.249,1.286,0.483,2.501-0.073,3.176c-0.163,0.198-0.467,0.435-0.983,0.435
		c-1.894,0-3.547-2.017-4.171-2.886l-4.997,1.551c-0.27,0.083-0.559-0.031-0.698-0.275c-0.611-1.068-1.623-2.259-2.096-2.259
		c-0.07,0-0.148,0.072-0.233,0.213c-0.514,0.857-0.279,2.081-0.052,3.265c0.206,1.074,0.4,2.089,0.106,2.971
		C88.817,249.384,88.388,249.688,87.817,249.688z M85.265,247.289c0.185,0.1,0.379,0.21,0.581,0.325
		c0.65,0.369,1.54,0.874,1.972,0.874c0.015,0,0.025-0.001,0.034-0.002c0.002-0.004,0.004-0.009,0.006-0.015
		c0.194-0.583,0.028-1.449-0.147-2.365c-0.257-1.339-0.548-2.856,0.202-4.107c0.395-0.657,0.903-0.796,1.262-0.796
		c1.174,0,2.325,1.558,2.888,2.449l4.971-1.543c0.259-0.081,0.542,0.023,0.687,0.255c0.473,0.753,2.008,2.708,3.417,2.708
		c0.052,0,0.071-0.008,0.071-0.008c0.184-0.228-0.062-1.494-0.193-2.175c-0.249-1.287-0.484-2.502,0.073-3.177
		c0.163-0.199,0.467-0.435,0.983-0.435c1.141,0,1.347,0,1.521,0.398c0.034,0.079,0.086,0.248,0.017,0.446
		c0.025,0.018,0.053,0.036,0.086,0.056c0.193,0.12,0.432,0.179,0.727,0.179c0.632,0,1.411-0.261,2.236-0.536
		c0.6-0.201,1.221-0.408,1.837-0.531c0.146-0.029,0.298-0.044,0.452-0.044c1.15,0,2.343,0.821,3.496,1.615
		c0.909,0.627,1.85,1.274,2.631,1.416c0.964,0.176,1.775,0.832,2.561,1.466c0.918,0.742,1.784,1.442,2.848,1.442
		c0.226,0,0.449-0.03,0.685-0.093c1.153-0.308,1.176-1.792,1.085-3.699c-0.063-1.346-0.114-2.407,0.671-2.801
		c0.172-0.086,0.42-0.201,0.722-0.342c1.302-0.605,4.761-2.215,5.153-3.258c0.236-0.63,0.659-0.725,0.891-0.725
		c0.697,0,1.213,0.815,1.927,1.944c0.407,0.644,0.915,1.445,1.252,1.672c0.244,0.162,0.586,0.237,1.075,0.237
		c0.365,0,0.769-0.041,1.196-0.085c0.476-0.048,0.968-0.099,1.468-0.099c0.239,0,0.458,0.012,0.668,0.034
		c1.207,0.135,1.682,1.296,1.996,2.064c0.009,0.021,0.018,0.045,0.027,0.068c0.14-0.227,0.272-0.458,0.402-0.683
		c0.651-1.128,1.324-2.294,2.586-2.382c0.042-0.375-0.133-1.306-0.252-1.945c-0.269-1.436-0.572-3.062-0.156-4.207
		c0.588-1.617,1.552-1.922,2.401-2.19c0.411-0.13,0.799-0.252,1.178-0.522c0.443-0.316,0.959-0.796,1.458-1.259
		c1.064-0.988,1.984-1.842,2.815-1.842c0.807,0,1.317,0.907,2.091,2.282c0.599,1.063,1.344,2.389,2.208,3.081
		c0.646,0.516,2.302,1.132,6.519,1.132c0.493,0,1.004-0.008,1.558-0.025c0.927-0.646,1.849-1.294,2.764-1.942
		c0.209-1.49-0.016-3.506-0.215-5.295l-0.008-0.063c-0.342-3.088,0.404-4.223,1.533-5.939c0.19-0.29,0.395-0.601,0.61-0.946
		c0.576-0.919,1.076-1.489,1.784-1.489c0.425,0,0.772,0.209,1.176,0.451c0.432,0.259,0.968,0.581,1.796,0.771
		c0.028,0.007,0.055,0.01,0.079,0.01c0.811,0,1.664-2.987,2.229-4.965c0.822-2.874,1.531-5.356,2.949-5.901
		c2.028-0.78,3.83-3.868,3.923-4.557c-0.098-0.346-0.311-1.36-0.662-3.037c-0.436-2.084-0.979-4.678-1.186-5.301
		c-0.092-0.275-0.045-0.562,0.132-0.808c0.978-1.356,7.846-1.665,7.913-1.665c0.915,0,2.831,1.4,3.92,2.259
		c1.266-1.041,5.288-4.326,6.437-4.982c0.62-0.354,1.806-0.602,3.061-0.864c0.899-0.188,2.358-0.492,2.789-0.751
		c-0.055-0.618,0.165-1.371,0.397-2.165c0.18-0.615,0.366-1.252,0.366-1.679c-0.17-0.333-1.978-0.709-3.512-0.709
		c-0.355,0-0.648-0.207-0.766-0.54c-0.328-0.936,1.016-3.134,1.819-3.837c-0.061-0.334-0.686-1.176-1.067-1.69
		c-0.748-1.009-1.521-2.052-1.521-2.942c0-1.249,1.239-1.775,2.748-2.313L187.202,43.021c-0.002-0.022-0.004-0.045-0.004-0.067
		v-3.32l-75.124,7.884c-0.481,0.461-1.685,1.371-3.885,2.786c-2.953,1.897-9.867,6.341-13.889,6.341
		c-0.629,0-1.181-0.107-1.641-0.32c-1.952-0.9-3.583-2.239-4.615-3.215l9.764,116.257c0.014,0.168-0.043,0.333-0.156,0.456
		c-0.114,0.124-0.274,0.194-0.442,0.194c-0.004,0-0.848,0.021-1.366,0.674c-0.472,0.597-0.572,1.599-0.29,2.896
		c0.452,2.076,0.855,2.883,1.049,3.271c0.337,0.674,0.259,0.918-0.231,1.531c-0.217,0.271-0.552,0.551-0.939,0.875
		c-0.688,0.574-1.628,1.361-1.656,1.995c-0.004,0.076-0.014,0.308,0.308,0.63c0.562,0.561,1.185,1.025,1.735,1.436
		c1.158,0.864,2.158,1.61,1.985,2.811c-0.079,0.557-0.383,1.035-0.65,1.457c-0.137,0.214-0.39,0.613-0.369,0.73
		c0.001,0,0.076,0.15,0.629,0.336c0.546,0.183,1.003,0.198,1.39,0.198h0.189c0.356,0,0.845,0,1.147,0.405
		c0.355,0.479,0.237,1.154-0.299,2.941c-0.704,2.348-0.524,2.545-0.228,2.872c0.191,0.211,0.454,0.5,0.677,1.019
		c0.58,1.337,1.068,6.038,0.251,7.284c-0.267,0.406-0.617,0.467-0.803,0.467c-0.843,0-1.879,0.237-2.139,0.676
		c-0.116,0.195-0.069,0.486,0.138,0.866c1.24,2.275-0.387,5.104-1.236,5.775c-0.068,0.178-0.141,0.675-0.193,1.044
		c-0.208,1.439-0.521,3.615-2.216,3.784c-0.043,0.004-0.08,0.009-0.113,0.013c0.174,0.615,0.409,1.706-0.985,3.333
		c-0.907,1.058-1.283,2.182-1.616,3.173c-0.436,1.3-0.886,2.644-2.576,2.644c-0.928,0-1.453-0.203-1.767-0.325
		c-0.003-0.001-0.006-0.002-0.009-0.003c-0.133,0.212-0.343,0.632-0.492,0.931c-1.066,2.133-0.695,2.906,0.605,3.933
		c0.426,0.337,0.814,0.718,0.766,1.221c-0.051,0.517-0.513,0.753-0.921,0.961c-0.51,0.262-1.088,0.558-1.357,1.298
		c-0.263,0.723-0.568,1.176-0.814,1.539c-0.455,0.676-0.663,0.984-0.111,2.75c0.682,2.183,0.727,3.997,0.125,5.11
		c-0.293,0.542-0.736,0.91-1.282,1.065c-0.004,0.001-0.007,0.002-0.011,0.004c0.042,0.076,0.09,0.159,0.135,0.239
		C84.018,244.493,84.597,245.513,85.265,247.289z"/>
</g>
</svg>
