<?xml version="1.0" encoding="iso-8859-1"?>
<!-- Generator: Adobe Illustrator 15.1.0, SVG Export Plug-In . SVG Version: 6.00 Build 0)  -->
<!DOCTYPE svg PUBLIC "-//W3C//DTD SVG 1.1//EN" "http://www.w3.org/Graphics/SVG/1.1/DTD/svg11.dtd">
<svg version="1.1" id="Layer_1" xmlns="http://www.w3.org/2000/svg" xmlns:xlink="http://www.w3.org/1999/xlink" x="0px" y="0px"
	 width="288px" height="288px" viewBox="0 0 288 288" style="enable-background:new 0 0 288 288;" xml:space="preserve">
<g>
	<path d="M213.979,214.986c-0.05,0-0.101-0.001-0.15-0.002c-2.795-0.074-5.555-2.813-7.772-5.014
		c-1.057-1.048-2.054-2.038-2.712-2.366l-2.122-1.062c-3.068,0.296-45.804,4.306-103.521,4.306c-11.161,0-22.332-0.15-33.203-0.446
		c-0.272-0.008-0.506-0.198-0.568-0.463c-0.053-0.228-0.086-0.438-0.122-0.66c-0.081-0.508-0.182-1.139-0.591-2.362
		c-0.49-1.473-1.104-1.889-1.816-2.37c-0.647-0.438-1.381-0.935-1.919-2.189c-0.135-0.316-0.226-0.644-0.278-1.001
		c-0.223-1.481,0.422-2.884,1.045-4.241c0.346-0.752,0.702-1.529,0.911-2.313c0.315-1.185-0.249-2.622-0.748-3.891
		c-0.51-1.297-0.949-2.417-0.326-3.163c0.547-0.657-0.191-3.842-0.93-5.318c-0.758-1.517-1.091-5.694-0.915-8.494
		c0.169-2.695-0.038-3.613-1.809-4.941c-1.058-0.793-1.561-1.379-2.004-1.896c-0.43-0.501-0.802-0.935-1.652-1.496
		c-1.826-1.206-1.11-4.225-0.587-6.428c0.104-0.436,0.201-0.847,0.261-1.174c0.3-1.654-0.653-6.148-1.47-7.619
		c-0.468-0.842-0.274-1.76-0.12-2.497c0.23-1.095,0.217-1.402-0.438-1.676c-2.234-0.932-4.122-3.528-4.122-5.671
		c0-0.985-0.487-1.378-1.591-2.17c-0.438-0.315-0.936-0.673-1.453-1.138c-0.517-0.467-0.757-0.915-0.734-1.371
		c0.033-0.648,0.561-1.033,1.025-1.372c0.413-0.303,0.706-0.535,0.706-0.774c0-0.944-1.313-2.807-2.018-3.808
		c-0.172-0.244-0.324-0.46-0.441-0.636c-0.436-0.653-0.232-1.551,0.004-2.591c0.251-1.105,0.536-2.359-0.011-3.219
		c-0.347-0.545-1.013-1.021-1.978-1.414c-0.217-0.088-0.363-0.294-0.374-0.528c-0.211-4.644-1.012-5.824-1.346-6.116
		c-1.976-1.729-3.815-3.561-3.903-5.238c-0.03-0.58,0.162-1.111,0.556-1.537c1.095-1.175,2.398-4.616,3.262-6.894
		c0.235-0.623,0.439-1.16,0.607-1.569c0.435-1.058,0.329-1.64,0.227-2.203c-0.07-0.383-0.143-0.779-0.027-1.239
		c0.14-0.56,0.644-0.786,1.089-0.986c0.791-0.354,1.538-0.689,0.961-2.805c-0.516-1.892-1.448-2.387-2.271-2.824
		c-0.692-0.367-1.478-0.784-1.613-1.926c-0.108-0.923,0.205-2.227,0.507-3.487c0.208-0.866,0.694-2.894,0.388-3.148
		c-0.915-0.66-1.795-2.251-2.004-3.622c-0.138-0.897,0.012-1.668,0.431-2.227c0.113-0.151,0.291-0.24,0.479-0.24h4.309
		c0.227,0,0.434,0.128,0.535,0.33c0.068,0.134,0.126,0.249,0.175,0.344l170.504-3.402c0.311,0,0.56,0.211,0.605,0.508
		c0.256,1.66,0.871,4.587,1.432,5.372c0.225,0.314,0.738,0.639,1.283,0.981c1.227,0.772,2.752,1.733,2.752,3.633
		c0,1.55-0.907,2.593-1.637,3.431c-0.494,0.567-0.921,1.058-0.921,1.515c0,2.345,0.497,9.601,2.021,10.987
		c1.284,1.167,1.571,2.772,1.876,4.473c0.189,1.062,0.386,2.159,0.834,3.248c0.766,1.86,6.893,2.958,10.575,3.212
		c0.209,0.015,0.396,0.138,0.492,0.325l3.411,6.653c0.737,1.301,5.469,5.481,7.229,6.981c0.149,0.127,0.227,0.319,0.208,0.515
		c-0.005,0.045-0.376,4.506,1.782,5.044c2.273,0.568,7.86,3.125,8.181,5.033c0.104,0.622,0.569,3.833,0.773,7.055
		c0.362,5.703-0.351,6.854-1.097,7.229c-1.436,0.718-3.652,2.35-4.413,2.92c0.661,6.41-0.035,6.873-0.3,7.05
		c-0.097,0.064-0.32,0.259-0.557,0.466c-1.217,1.063-3.751,3.275-6.37,3.275c-1.649,0-2.465,1.088-3.185,2.048
		c-0.442,0.591-0.825,1.102-1.368,1.32c-1.211,0.483-9.431,1.86-10.232,1.86c-0.335,0-1.16,1.789-1.958,3.52
		c-1.211,2.623,0.15,6.411,2.13,8.171c2.16,1.921,2.854,8.516,2.927,9.262c0.019,0.193-0.058,0.384-0.204,0.511l-5.184,4.491
		c0.432,1.105,1.351,4.122-0.208,6.736c-0.995,1.666-3.513,2.44-5.734,3.124c-1.524,0.47-3.423,1.054-3.251,1.626
		c0.149,0.498,0.522,1.253,0.918,2.052c1.088,2.199,2.32,4.691,1.49,6.313c-0.351,0.684-1.014,1.11-1.972,1.271
		C214.435,214.97,214.228,214.986,213.979,214.986z M201.336,205.329c0.093,0,0.185,0.022,0.268,0.063l2.276,1.138
		c0.83,0.415,1.846,1.422,3.021,2.589c2.066,2.051,4.64,4.604,6.956,4.666l0.121,0.001c0.178,0,0.319-0.01,0.447-0.032
		c0.854-0.143,1.043-0.514,1.105-0.636c0.555-1.083-0.631-3.481-1.497-5.232c-0.437-0.882-0.813-1.645-0.992-2.238
		c-0.514-1.715,1.702-2.396,4.048-3.118c2.015-0.62,4.298-1.323,5.057-2.593c1.573-2.638-0.01-5.994-0.025-6.027
		c-0.117-0.244-0.058-0.537,0.147-0.715l5.277-4.572c-0.234-2.1-1.041-6.878-2.498-8.173c-2.342-2.083-3.874-6.426-2.422-9.571
		c1.416-3.068,1.945-4.216,3.048-4.216c0.722-0.007,8.771-1.37,9.786-1.774c0.229-0.093,0.547-0.517,0.854-0.927
		c0.799-1.066,1.895-2.528,4.145-2.528c2.169,0,4.474-2.013,5.581-2.979c0.252-0.22,0.445-0.389,0.598-0.502
		c0.239-0.633,0.097-3.729-0.181-6.319c-0.022-0.208,0.065-0.412,0.23-0.54c0.123-0.094,3.025-2.318,4.874-3.242
		c0.03-0.019,0.795-0.537,0.433-6.141c-0.203-3.154-0.655-6.27-0.756-6.872c-0.146-0.869-4.312-3.322-7.287-4.066
		c-2.784-0.695-2.773-4.812-2.71-6.008c-1.278-1.098-6.36-5.511-7.275-7.128l-3.27-6.376c-1.978-0.161-10.057-0.995-11.263-3.928
		c-0.497-1.207-0.715-2.422-0.906-3.493c-0.278-1.558-0.519-2.903-1.502-3.796c-2.31-2.102-2.413-11.778-2.413-11.875
		c0-0.907,0.618-1.617,1.216-2.303c0.66-0.758,1.343-1.542,1.343-2.643c0-1.236-1.115-1.938-2.192-2.617
		c-0.647-0.408-1.259-0.793-1.62-1.3c-0.756-1.06-1.34-4.103-1.557-5.367l-170.359,3.4c-0.004,0-0.008,0-0.012,0
		c-0.225,0-0.431-0.125-0.533-0.325c0,0-0.063-0.123-0.183-0.356h-3.592c-0.14,0.346-0.121,0.766-0.072,1.085
		c0.176,1.148,0.942,2.413,1.521,2.83c0.965,0.696,0.554,2.414,0.077,4.402c-0.277,1.158-0.565,2.356-0.482,3.066
		c0.06,0.497,0.328,0.658,0.984,1.007c0.935,0.496,2.214,1.176,2.866,3.568c0.847,3.105-0.763,3.827-1.628,4.215
		c-0.142,0.064-0.351,0.158-0.424,0.218c-0.04,0.199-0.001,0.411,0.051,0.698c0.115,0.63,0.272,1.491-0.296,2.874
		c-0.161,0.394-0.363,0.924-0.596,1.539c-0.95,2.506-2.25,5.938-3.504,7.285c-0.175,0.188-0.251,0.397-0.237,0.657
		c0.073,1.403,2.559,3.578,3.495,4.397c0.96,0.838,1.544,3.055,1.736,6.589c1.025,0.468,1.742,1.035,2.184,1.729
		c0.815,1.282,0.457,2.861,0.168,4.129c-0.137,0.605-0.325,1.435-0.176,1.66c0.113,0.169,0.259,0.376,0.424,0.609
		c1.179,1.673,2.237,3.276,2.237,4.499c0,0.868-0.692,1.374-1.199,1.743c-0.188,0.137-0.501,0.366-0.534,0.472l0,0
		c0.003,0,0.034,0.136,0.339,0.41c0.468,0.421,0.917,0.744,1.351,1.056c1.075,0.772,2.091,1.502,2.091,3.145
		c0,1.68,1.581,3.813,3.384,4.563c1.644,0.686,1.348,2.096,1.151,3.029c-0.132,0.627-0.256,1.218-0.006,1.669
		c0.866,1.56,1.983,6.307,1.602,8.415c-0.065,0.359-0.167,0.785-0.273,1.236c-0.417,1.755-1.046,4.406,0.081,5.15
		c0.99,0.654,1.433,1.17,1.901,1.716c0.423,0.493,0.86,1.003,1.813,1.717c2.29,1.717,2.459,3.209,2.286,5.976
		c-0.177,2.826,0.215,6.73,0.791,7.884c0.521,1.04,1.983,5.176,0.777,6.623c-0.167,0.2,0.265,1.299,0.522,1.955
		c0.538,1.369,1.208,3.073,0.79,4.639c-0.234,0.883-0.613,1.707-0.979,2.505c-0.575,1.252-1.118,2.435-0.949,3.563
		c0.038,0.257,0.103,0.487,0.195,0.707c0.398,0.931,0.903,1.271,1.488,1.668c0.779,0.527,1.662,1.125,2.282,2.982
		c0.44,1.317,0.55,2.003,0.638,2.554c0.007,0.043,0.014,0.085,0.02,0.126c10.708,0.287,21.703,0.434,32.688,0.434
		c59.562,0,103.143-4.274,103.576-4.317C201.296,205.33,201.315,205.329,201.336,205.329z"/>
</g>
</svg>
