<?xml version="1.0" encoding="iso-8859-1"?>
<!-- Generator: Adobe Illustrator 15.1.0, SVG Export Plug-In . SVG Version: 6.00 Build 0)  -->
<!DOCTYPE svg PUBLIC "-//W3C//DTD SVG 1.1//EN" "http://www.w3.org/Graphics/SVG/1.1/DTD/svg11.dtd">
<svg version="1.1" id="Layer_1" xmlns="http://www.w3.org/2000/svg" xmlns:xlink="http://www.w3.org/1999/xlink" x="0px" y="0px"
	 width="288px" height="288px" viewBox="0 0 288 288" style="enable-background:new 0 0 288 288;" xml:space="preserve">
<g>
	<path d="M215.929,200.094c-0.001,0-0.002,0-0.003,0c-57.367-0.001-133.892-3.656-174.401-5.836
		c-0.161-0.009-0.311-0.081-0.417-0.201s-0.16-0.278-0.149-0.438l7.191-105.135c0.022-0.327,0.303-0.573,0.629-0.559
		c19.073,0.983,116.471,5.888,160.936,5.888c6.872,0,12.229-0.119,15.922-0.352c0.162-0.013,0.324,0.047,0.445,0.158
		c2.168,2.007,4.947,4.174,5.657,4.174h1.076c0.463-0.642,1.317-1.644,2.14-1.644c0.225,0,0.437,0.07,0.614,0.203
		c0.448,0.337,0.564,0.867,0.677,1.381c0.164,0.746,0.309,1.219,0.938,1.498c1.247,0.555,1.807,2.014,1.626,3.104
		c-0.159,0.965-0.838,1.593-1.815,1.683c-1.85,0.167-2.783,0.657-3.328,1.75c-0.284,0.567-0.236,1.247-0.195,1.847
		c0.046,0.655,0.108,1.555-0.716,1.76c-0.283,0.071-0.843,0.393-0.903,0.752c-0.061,0.365,0.408,0.91,1.254,1.457
		c4.951,3.198,4.686,4.521,4.598,4.955c-0.145,0.718-0.16,1.53,1.507,2.085c1.579,0.527,1.247,1.715,1.104,2.223
		c-0.023,0.086-0.057,0.203-0.07,0.285c0.063,0.021,0.179,0.048,0.383,0.063c0.305,0.023,0.586,0.041,0.85,0.057
		c1.73,0.104,2.875,0.174,3.938,1.769c0.064,0.097,0.1,0.209,0.102,0.325l1.03,75.708c0.005,0.327-0.253,0.598-0.58,0.608
		C237.314,199.948,227.209,200.094,215.929,200.094z M42.197,193.092c40.652,2.183,116.676,5.802,173.729,5.802c0,0,0.002,0,0.003,0
		c11.013,0,20.902-0.139,29.409-0.412l-1.02-74.937c-0.693-0.961-1.33-0.999-2.914-1.096c-0.27-0.016-0.559-0.033-0.87-0.058
		c-0.413-0.031-0.999-0.125-1.31-0.569c-0.307-0.438-0.167-0.937-0.065-1.3c0.151-0.538,0.167-0.595-0.329-0.76
		c-1.866-0.622-2.642-1.786-2.303-3.461c0.053-0.265-0.574-1.45-4.073-3.71c-1.335-0.863-1.935-1.759-1.786-2.661
		c0.148-0.89,1-1.458,1.629-1.67c0.006-0.144-0.01-0.379-0.023-0.563c-0.047-0.678-0.111-1.606,0.32-2.467
		c0.93-1.864,2.691-2.264,4.292-2.408c0.429-0.039,0.671-0.263,0.74-0.683c0.104-0.629-0.245-1.508-0.93-1.813
		c-1.229-0.546-1.466-1.624-1.622-2.338c-0.047-0.214-0.108-0.494-0.181-0.621c-0.269,0.12-0.852,0.737-1.265,1.356
		c-0.111,0.167-0.302,0.268-0.502,0.268h-1.388c-1.428,0-4.958-3.105-6.283-4.319c-3.708,0.225-9.001,0.338-15.741,0.338
		c-44.055,0.001-139.998-4.809-160.409-5.858L42.197,193.092z"/>
</g>
</svg>
