<?xml version="1.0" encoding="iso-8859-1"?>
<!-- Generator: Adobe Illustrator 15.1.0, SVG Export Plug-In . SVG Version: 6.00 Build 0)  -->
<!DOCTYPE svg PUBLIC "-//W3C//DTD SVG 1.1//EN" "http://www.w3.org/Graphics/SVG/1.1/DTD/svg11.dtd">
<svg version="1.1" id="Layer_1" xmlns="http://www.w3.org/2000/svg" xmlns:xlink="http://www.w3.org/1999/xlink" x="0px" y="0px"
	 width="288px" height="288px" viewBox="0 0 288 288" style="enable-background:new 0 0 288 288;" xml:space="preserve">
<g>
	<path d="M30.309,203.193c-0.197,0-0.382-0.097-0.494-0.26c-0.12-0.175-0.14-0.4-0.05-0.593c0.852-1.838,1.628-3.86,1.636-3.881
		c0.08-0.21,0.271-0.357,0.494-0.382c0.225-0.026,0.441,0.077,0.565,0.264c0.304,0.451,1.309,1.626,2.304,1.626
		c0.135,0,0.27-0.022,0.399-0.065c0.938-0.313,0.938-3.134,0.938-4.649c0-0.678,0.001-1.263,0.058-1.655
		c0.118-0.824,0.675-1.358,1.302-1.685l-1.212-0.706c-0.254-0.148-0.363-0.459-0.258-0.734c0.905-2.353,1.572-5.326,1.073-6.025
		l-0.081-0.115c-0.82-1.153-1.315-1.85-3.124-1.995c-0.227-0.019-0.423-0.162-0.508-0.372c-0.086-0.211-0.045-0.451,0.104-0.621
		c1.048-1.198,2.129-2.443,3.121-3.588c1.933-2.228,3.459-3.986,3.893-4.42c0.372-0.372,0.828-0.561,1.355-0.561
		c0.653,0,1.345,0.275,2.221,0.624c0.687,0.273,1.465,0.584,2.393,0.828c1.302,0.343,3.246,1.189,5.127,2.009
		c2.168,0.944,4.625,2.015,5.503,2.015c1.114,0,1.598-2.438,1.643-3.063c-0.254-0.51-1.847-2.567-3.305-4.342
		c-0.111-0.136-0.158-0.313-0.127-0.486c0.031-0.174,0.769-4.281,1.391-5.68c0.409-0.918,2.68-1.808,7.404-3.483
		c1.512-0.536,3.356-1.19,3.931-1.509c-0.123-0.258-0.484-0.733-0.785-1.127c-0.804-1.057-1.906-2.505-2.348-4.273
		c-0.523-2.095,0.308-2.555,1.281-2.874c0.524-0.171,0.978-0.319,1.31-0.984c0.594-1.188,0.409-1.665,0.196-2.219
		c-0.122-0.315-0.26-0.674-0.26-1.128c0-0.478,0.335-0.823,0.797-0.823c0.394,0,0.819,0.231,1.539,0.642
		c0.451,0.257,1.12,0.638,1.461,0.685c0.108-0.443-0.015-1.083-0.145-1.758c-0.21-1.094-0.448-2.334,0.178-3.376
		c0.362-0.604,0.853-0.694,1.112-0.694c0.963,0,1.887,1.198,2.365,1.939l3.896-1.209c0.261-0.08,0.543,0.024,0.687,0.255
		c0.366,0.582,1.54,2.084,2.604,2.113c0.072-0.291-0.091-1.137-0.182-1.606c-0.205-1.06-0.399-2.06,0.082-2.644
		c0.147-0.179,0.42-0.392,0.881-0.392c0.911,0,1.156,0,1.328,0.392c0.029,0.065,0.07,0.196,0.042,0.353
		c0.135,0.081,0.303,0.121,0.513,0.121c0.487,0,1.104-0.206,1.755-0.424c0.484-0.162,0.985-0.329,1.486-0.43
		c0.124-0.024,0.254-0.037,0.386-0.037c0.96,0,1.931,0.669,2.869,1.315c0.718,0.495,1.46,1.007,2.062,1.116
		c0.802,0.146,1.464,0.681,2.104,1.198c0.719,0.581,1.397,1.129,2.207,1.129c0.167,0,0.342-0.023,0.518-0.07
		c0.839-0.225,0.852-1.37,0.781-2.844c-0.052-1.076-0.097-2.006,0.603-2.355c0.14-0.069,0.342-0.164,0.588-0.278
		c0.931-0.434,3.766-1.753,4.061-2.541c0.224-0.595,0.652-0.658,0.826-0.658c0.625,0,1.053,0.676,1.645,1.612
		c0.304,0.48,0.72,1.138,0.97,1.305c0.176,0.117,0.428,0.171,0.794,0.171c0.287,0,0.607-0.033,0.947-0.067
		c0.385-0.039,0.782-0.08,1.189-0.08c0.195,0,0.374,0.009,0.547,0.028c0.947,0.105,1.373,0.956,1.628,1.563
		c0.067-0.113,0.133-0.228,0.198-0.34c0.52-0.901,1.057-1.831,2.062-1.959c0.001-0.326-0.12-0.975-0.205-1.429
		c-0.218-1.165-0.465-2.485-0.12-3.434c0.492-1.351,1.329-1.615,2.001-1.827c0.32-0.102,0.622-0.196,0.911-0.403
		c0.348-0.248,0.757-0.629,1.153-0.997c0.872-0.81,1.625-1.51,2.339-1.51c0.717,0,1.162,0.793,1.779,1.89
		c0.475,0.844,1.065,1.895,1.74,2.435c0.503,0.402,1.804,0.882,5.144,0.882c0.91,0,1.755-0.036,2.389-0.067
		c0.255-0.012,0.433-0.094,0.578-0.264c0.713-0.837,0.432-3.357,0.227-5.198l-0.023-0.208c-0.28-2.518,0.328-3.441,1.248-4.84
		c0.151-0.23,0.314-0.478,0.487-0.753c0.482-0.771,0.907-1.25,1.53-1.25c0.373,0,0.679,0.185,1.003,0.379
		c0.339,0.203,0.759,0.456,1.404,0.604c0.013,0.003,0.025,0.005,0.036,0.005c0.56,0,1.34-2.729,1.673-3.894
		c0.667-2.333,1.243-4.348,2.434-4.806c1.544-0.594,2.947-2.952,3.063-3.536c-0.075-0.279-0.222-0.97-0.518-2.384
		c-0.333-1.59-0.789-3.766-0.954-4.262c-0.085-0.256-0.04-0.53,0.122-0.755c0.846-1.171,6.384-1.383,6.438-1.383
		c0.746,0,2.242,1.075,3.138,1.775c1.09-0.896,4.194-3.425,5.1-3.942c0.514-0.294,1.473-0.494,2.488-0.706
		c0.671-0.14,1.743-0.363,2.134-0.555c-0.021-0.5,0.149-1.085,0.328-1.698c0.135-0.458,0.272-0.932,0.288-1.257
		c-0.266-0.254-1.585-0.503-2.694-0.503c-0.337,0-0.615-0.197-0.726-0.514c-0.274-0.783,0.753-2.511,1.435-3.151
		c-0.1-0.282-0.54-0.877-0.814-1.247c-0.639-0.861-1.242-1.675-1.242-2.428c0-1.165,1.249-1.603,2.571-2.066
		c0.713-0.251,1.521-0.534,2.217-0.942c0.39-0.229,0.748-0.341,1.095-0.341c0.992,0,1.462,0.871,1.806,1.508
		c0.116,0.214,0.307,0.567,0.417,0.642c0.334-0.018,1.319-0.491,2.043-0.839c1.126-0.542,2.19-1.053,2.876-1.053
		c0.377,0,0.604,0.147,0.728,0.271c0.076,0.076,0.16,0.164,0.25,0.26c0.57,0.602,1.431,1.512,2.62,1.512
		c1.612,0,2.372,1.583,3.107,3.114c0.224,0.465,0.455,0.946,0.705,1.376c0.718,1.229,1.366,2.664,1.888,3.818
		c0.26,0.574,0.484,1.071,0.678,1.458c0.139,0.277,0.685,0.335,1.118,0.335c0.615,0,1.356-0.115,2.01-0.217
		c0.384-0.06,0.746-0.116,1.067-0.148c1.026-0.103,1.939-0.152,2.792-0.152c1.217,0,2.26,0.106,3.104,0.316
		c1.06,0.266,2.328,1.355,3.671,2.511c1.015,0.872,2.165,1.861,2.739,1.977c0.021,0.004,0.041,0.006,0.061,0.006h0.001
		c0.513,0,1.285-1.108,1.849-1.918c0.58-0.833,1.128-1.619,1.749-1.93c0.235-0.118,0.504-0.178,0.797-0.178
		c0.958,0,2.032,0.646,2.816,1.117c0.226,0.135,0.502,0.302,0.616,0.348c0.308,0.026,0.662,0.228,1.374,0.647
		c0.77,0.453,1.823,1.073,2.517,1.151c0.56,0.062,1.115-0.266,1.707-0.616c0.541-0.32,1.101-0.651,1.746-0.731
		c0.859-0.108,1.396-1.339,2.059-3.064c0.753-1.956,4.198-2.766,6.049-3.199c0.27-0.063,0.489-0.114,0.637-0.157
		c0.089-0.025,0.179-0.038,0.267-0.038c0.99,0,1.114,1.209,1.271,2.739c0.121,1.183,0.272,2.654,0.795,3.567
		c0.336,0.588,0.866,0.873,1.621,0.873c0.847,0,1.639-0.365,1.646-0.369c0.244-0.114,0.535-0.052,0.711,0.152
		c0.017,0.02,1.696,1.955,3.354,2.353c1.448,0.347,2.992,2.174,3.783,3.231c0.118,0.156,0.151,0.36,0.09,0.547
		s-0.21,0.331-0.397,0.387c-0.887,0.266-1.504,0.319-1.96,0.17c-0.134,0.165-0.273,0.396-0.307,0.667
		c-0.04,0.329,0.09,0.68,0.387,1.043c1.079,1.318,1.904,3.761,1.35,4.932c-0.208,0.438-0.596,0.689-1.064,0.689
		c-0.104,0-0.293,0.174-0.454,0.508c-0.317,0.659-0.324,1.436-0.209,1.635c0.838,0.322,2.068,1.994,3.652,4.4l0.198,0.301
		c0.035,0.035,0.055,0.056,0.073,0.076c0.202,0.234,0.572,0.48,0.965,0.741c0.853,0.566,1.915,1.272,1.915,2.405
		c0,0.755,1.138,1.786,1.688,2.168c0.102,0.07,0.179,0.17,0.222,0.286c0.01,0.024,0.973,2.575,2.608,3.079
		c1.504,0.461,1.669,1.84,1.778,2.752c0.053,0.441,0.112,0.942,0.29,1.043c0.438,0.25,0.68,0.316,1.046,0.416
		c0.443,0.121,0.994,0.271,2.052,0.759c0.319,0.147,0.606,0.274,0.863,0.389c1.363,0.604,2.118,0.938,2.45,2.062
		c0.16,0.173,0.96,0.365,1.441,0.481c0.693,0.167,1.41,0.34,1.966,0.653c0.077,0.043,0.144,0.104,0.194,0.175l0.66,0.931
		c0.166,0.234,0.143,0.553-0.055,0.761c-2.396,2.519-8.765,9.415-9.468,11.054c-0.592,1.386-3.028,2.581-5.608,3.847
		c-1.795,0.88-3.65,1.791-4.566,2.645c-0.659,0.616-0.714,0.902-0.715,0.976c-0.001,0.101,0.125,0.233,0.317,0.423
		c0.321,0.317,0.858,0.848,0.551,1.668c-0.443,1.181-3.014,2.925-4.006,3.563v2.366c0,2.204-4.509,3.828-5.656,4.024
		c-0.408,0.438-1.426,2.594-2.175,4.438c-0.064,0.158-0.193,0.282-0.355,0.339c-0.046,0.017-4.662,1.654-6,2.101
		c-0.41,0.137-0.728,0.384-1.129,0.697c-0.724,0.564-1.624,1.266-3.455,1.571c-0.548,0.091-1.861,0.623-4.512,3.164
		c-0.093,0.089-0.211,0.145-0.338,0.162c-14.685,1.921-23.958,2.988-27.564,3.172c-6.882,0.35-15.417,1.307-19.893,1.847
		c-5.393,0.651-9.352,1.226-9.709,1.321c-0.33,0.11-3.906,0.28-18.208,0.864c-5.96,0.244-11.589,0.475-12.673,0.557
		c-2.554,0.196-43.883,5.141-44.3,5.19c-0.231,0.028-0.457-0.081-0.581-0.278l-0.82-1.315h-5.568
		c1.796,4.711,0.74,6.522,0.607,6.723c-0.104,0.155-0.273,0.254-0.459,0.266l-41.832,2.826
		C30.336,203.193,30.322,203.193,30.309,203.193z M32.146,199.835c-0.226,0.56-0.536,1.311-0.879,2.093l40.463-2.733
		c0.178-0.615,0.434-2.463-1.14-6.183c-0.078-0.186-0.059-0.397,0.053-0.565s0.299-0.269,0.5-0.269h6.791
		c0.207,0,0.399,0.107,0.509,0.283l0.795,1.274c4.441-0.531,41.494-4.96,43.972-5.15c1.105-0.084,6.486-0.305,12.716-0.559
		c7.671-0.313,17.209-0.703,17.935-0.821c0.625-0.161,5.232-0.795,9.888-1.357c4.491-0.542,13.058-1.503,19.976-1.854
		c3.558-0.182,12.734-1.237,27.275-3.139c2.131-2.022,3.813-3.147,5.002-3.345c1.53-0.255,2.234-0.804,2.914-1.334
		c0.434-0.338,0.882-0.688,1.487-0.89c1.146-0.383,4.738-1.653,5.726-2.003c2.019-4.916,2.656-4.916,3.001-4.916
		c0.757-0.057,4.64-1.658,4.64-2.845v-2.695c0-0.207,0.106-0.399,0.282-0.51c1.421-0.888,3.539-2.451,3.8-3.146
		c0.024-0.063,0.035-0.093-0.27-0.393c-0.288-0.285-0.684-0.675-0.675-1.294c0.008-0.562,0.356-1.145,1.097-1.836
		c1.046-0.976,2.896-1.884,4.856-2.846c2.164-1.062,4.616-2.265,5.034-3.241c0.842-1.964,7.593-9.18,9.36-11.05l-0.291-0.411
		c-0.408-0.199-0.985-0.338-1.546-0.473c-1.115-0.27-2.079-0.501-2.307-1.292c-0.167-0.583-0.481-0.741-1.789-1.321
		c-0.263-0.116-0.556-0.245-0.881-0.396c-0.967-0.446-1.464-0.582-1.863-0.69c-0.406-0.11-0.758-0.206-1.327-0.532
		c-0.701-0.4-0.8-1.22-0.886-1.942c-0.113-0.939-0.219-1.526-0.939-1.748c-1.927-0.593-3.031-2.959-3.312-3.635
		c-0.523-0.391-2.055-1.653-2.055-3.045c0-0.489-0.733-0.977-1.379-1.406c-0.464-0.308-0.9-0.598-1.204-0.95
		c-0.048-0.048-0.113-0.112-0.169-0.202l-0.201-0.305c-2.122-3.223-2.838-3.852-3.076-3.939c-0.669-0.223-0.972-1.052-0.791-2.163
		c0.185-1.139,0.832-2.287,1.861-2.301c0.23-0.375-0.11-2.336-1.195-3.661c-0.517-0.632-0.734-1.292-0.646-1.964
		c0.135-1.048,0.964-1.678,1.058-1.746c0.257-0.188,0.613-0.141,0.813,0.101c0.033,0.011,0.162,0.03,0.344,0.015
		c-0.952-1.13-1.879-1.891-2.516-2.043c-1.591-0.382-3.078-1.781-3.691-2.42c-0.401,0.141-1.046,0.317-1.739,0.317
		c-1.189,0-2.111-0.511-2.663-1.478c-0.648-1.134-0.813-2.746-0.946-4.041c-0.058-0.553-0.132-1.277-0.235-1.611
		c-0.134,0.034-0.293,0.071-0.472,0.113c-1.399,0.329-4.678,1.098-5.203,2.462c-0.684,1.778-1.391,3.618-3.03,3.825
		c-0.397,0.049-0.828,0.304-1.283,0.573c-0.694,0.41-1.5,0.881-2.451,0.775c-0.949-0.106-2.082-0.773-2.992-1.31
		c-0.331-0.195-0.74-0.437-0.889-0.486c-0.289-0.021-0.59-0.201-1.111-0.515c-0.627-0.377-1.573-0.945-2.198-0.945
		c-0.105,0-0.192,0.017-0.261,0.051c-0.348,0.174-0.854,0.901-1.301,1.543c-0.832,1.195-1.693,2.431-2.833,2.432
		c-0.1,0-0.199-0.01-0.296-0.029c-0.884-0.177-1.997-1.135-3.287-2.243c-1.123-0.966-2.396-2.061-3.18-2.256
		c-1.283-0.32-3.154-0.368-5.485-0.135c-0.288,0.029-0.635,0.083-1.002,0.14c-0.696,0.109-1.486,0.231-2.194,0.231
		c-0.419,0-1.692,0.001-2.192-0.999c-0.203-0.406-0.432-0.913-0.697-1.5c-0.51-1.129-1.145-2.532-1.83-3.708
		c-0.275-0.472-0.517-0.975-0.75-1.461c-0.728-1.515-1.227-2.434-2.026-2.434c-1.706,0-2.823-1.182-3.491-1.888
		c-0.052-0.054-0.1-0.104-0.146-0.152c-0.465,0.041-1.53,0.553-2.316,0.931c-1.236,0.595-2.022,0.959-2.581,0.959
		c-0.767,0-1.147-0.706-1.454-1.272c-0.277-0.515-0.493-0.878-0.75-0.878c-0.086,0-0.24,0.03-0.486,0.175
		c-0.796,0.468-1.663,0.771-2.428,1.04c-0.788,0.276-1.769,0.621-1.769,0.935c0,0.356,0.604,1.173,1.006,1.713
		c0.771,1.04,1.568,2.116,0.715,2.8c-0.385,0.307-0.864,1.129-1.061,1.64c1.128,0.055,3.383,0.328,3.383,1.635
		c0,0.497-0.172,1.083-0.337,1.649c-0.146,0.497-0.326,1.116-0.274,1.378c0.206,1.024-1.179,1.313-3.095,1.713
		c-0.839,0.175-1.789,0.373-2.138,0.572c-0.823,0.471-4.11,3.146-5.307,4.136c-0.222,0.182-0.54,0.184-0.762,0.003
		c-1.167-0.948-2.438-1.779-2.774-1.813c-0.934,0-4.473,0.386-5.336,0.818c0.192,0.708,0.518,2.244,0.913,4.136
		c0.214,1.02,0.456,2.176,0.51,2.344c0.313,0.944-1.778,4.166-3.799,4.942c-0.632,0.243-1.255,2.423-1.711,4.016
		c-0.73,2.556-1.361,4.764-2.826,4.764c-0.102,0-0.204-0.012-0.306-0.035c-0.83-0.192-1.363-0.512-1.752-0.746
		c-0.125-0.074-0.292-0.175-0.371-0.201c-0.056,0.037-0.212,0.177-0.528,0.681c-0.178,0.283-0.345,0.539-0.502,0.776
		c-0.885,1.346-1.289,1.96-1.058,4.047l0.023,0.208c0.255,2.286,0.544,4.878-0.506,6.109c-0.357,0.42-0.854,0.656-1.433,0.685
		c-0.647,0.031-1.511,0.067-2.447,0.067c-3.003,0-4.931-0.374-5.893-1.144c-0.857-0.687-1.512-1.85-2.037-2.783
		c-0.259-0.459-0.604-1.073-0.8-1.262c-0.315,0.113-1.021,0.769-1.455,1.172c-0.425,0.395-0.863,0.802-1.273,1.095
		c-0.443,0.317-0.87,0.452-1.247,0.57c-0.609,0.192-0.945,0.299-1.234,1.094c-0.232,0.64-0.009,1.839,0.172,2.803
		c0.219,1.171,0.377,2.018-0.034,2.514c-0.172,0.207-0.421,0.32-0.702,0.32c-0.445,0-0.77,0.522-1.261,1.374
		c-0.15,0.261-0.307,0.531-0.482,0.801c-0.09,0.138-0.362,0.556-0.825,0.556c-0.564,0-0.781-0.529-0.973-0.997
		c-0.213-0.521-0.414-0.955-0.718-0.989c-0.419-0.046-0.972,0.001-1.481,0.053c-0.354,0.036-0.721,0.074-1.069,0.074
		c-0.614,0-1.078-0.118-1.459-0.373c-0.463-0.308-0.879-0.965-1.318-1.661c-0.155-0.245-0.36-0.568-0.531-0.802
		c-0.693,1.009-2.581,1.951-4.48,2.835c-0.191,0.09-0.356,0.166-0.482,0.228c-0.065,0.219-0.036,0.84-0.016,1.261
		c0.068,1.421,0.172,3.568-1.67,4.061c-0.277,0.074-0.556,0.111-0.827,0.111c-1.234,0-2.151-0.741-2.961-1.396
		c-0.548-0.442-1.065-0.86-1.565-0.951c-0.854-0.156-1.705-0.742-2.527-1.309c-0.858-0.592-1.766-1.204-2.339-1.09
		c-0.428,0.085-0.892,0.24-1.341,0.391c-0.715,0.239-1.453,0.485-2.136,0.485c-0.437,0-0.824-0.102-1.15-0.304
		c-0.196-0.122-0.445-0.302-0.575-0.561c-0.04,0-0.082,0-0.125,0c-0.072,0.291,0.092,1.137,0.183,1.606
		c0.205,1.06,0.398,2.06-0.083,2.645c-0.147,0.179-0.42,0.392-0.881,0.392c-1.536,0-2.841-1.535-3.39-2.292l-3.92,1.217
		c-0.268,0.083-0.559-0.031-0.698-0.275c-0.515-0.897-1.278-1.746-1.574-1.75c0,0-0.036,0.029-0.086,0.113
		c-0.389,0.647-0.205,1.605-0.027,2.531c0.161,0.838,0.327,1.705,0.082,2.44c-0.156,0.469-0.55,0.749-1.053,0.749
		c-0.632,0-1.388-0.431-2.119-0.848c-0.113-0.064-0.248-0.142-0.381-0.214c0.006,0.016,0.013,0.032,0.019,0.049
		c0.263,0.681,0.589,1.526-0.242,3.188c-0.556,1.112-1.431,1.398-2.009,1.588c-0.651,0.214-0.787,0.258-0.491,1.442
		c0.382,1.529,1.397,2.863,2.139,3.837c0.783,1.029,1.35,1.772,0.938,2.458c-0.27,0.449-1.177,0.81-4.637,2.036
		c-2.204,0.781-6.306,2.236-6.718,2.857c-0.427,0.961-1.004,3.799-1.248,5.114c3.404,4.157,3.404,4.58,3.404,4.808
		c0,0.676-0.524,4.344-2.846,4.344c-1.129,0-3.377-0.98-5.981-2.114c-1.84-0.802-3.741-1.63-4.953-1.949
		c-0.999-0.263-1.849-0.602-2.532-0.873c-0.756-0.302-1.354-0.539-1.776-0.539c-0.211,0-0.358,0.061-0.507,0.209
		c-0.404,0.403-1.994,2.236-3.835,4.358c-0.771,0.888-1.594,1.837-2.413,2.777c1.524,0.394,2.167,1.298,2.892,2.316l0.081,0.114
		c0.991,1.39-0.21,5.163-0.753,6.673l1.961,1.144c0.225,0.131,0.34,0.392,0.284,0.646c-0.055,0.254-0.268,0.443-0.526,0.47
		c-0.013,0.002-1.532,0.188-1.661,1.086c-0.044,0.308-0.045,0.879-0.045,1.484c-0.001,2.195-0.002,5.202-1.759,5.787
		c-0.253,0.085-0.515,0.127-0.779,0.127C33.676,201.168,32.741,200.445,32.146,199.835z"/>
</g>
</svg>
