<?xml version="1.0" encoding="iso-8859-1"?>
<!-- Generator: Adobe Illustrator 15.1.0, SVG Export Plug-In . SVG Version: 6.00 Build 0)  -->
<!DOCTYPE svg PUBLIC "-//W3C//DTD SVG 1.1//EN" "http://www.w3.org/Graphics/SVG/1.1/DTD/svg11.dtd">
<svg version="1.1" id="Layer_1" xmlns="http://www.w3.org/2000/svg" xmlns:xlink="http://www.w3.org/1999/xlink" x="0px" y="0px"
	 width="288px" height="288px" viewBox="0 0 288 288" style="enable-background:new 0 0 288 288;" xml:space="preserve">
<g>
	<g>
		<path d="M252.953,242.315L252.953,242.315c-0.087,0-0.179-0.008-0.272-0.022c-1.188-0.182-2.221-1.085-3.131-1.881
			c-0.611-0.534-1.304-1.14-1.686-1.14c-0.14,0-0.29,0.146-0.445,0.436c-0.47,0.872-1.313,1.353-2.372,1.353
			c-1.31,0-2.827-0.761-3.607-1.81c-0.462-0.621-0.616-1.294-0.436-1.896c0.021-0.071,0.139-0.764-2.318-3.014
			c-1.571-1.439-3.563-2.953-5.163-4.169c-0.542-0.412-1.028-0.781-1.419-1.089c-0.848-0.665-2.083-0.751-3.063-0.751
			c-0.44,0-0.887,0.02-1.318,0.038c-0.421,0.019-0.818,0.036-1.202,0.036c-0.817,0-2.73,0-2.987-1.797
			c-0.054-0.377-0.096-0.73-0.136-1.065c-0.236-1.964-0.365-3.046-2.24-4.199c-1.746-1.074-5.087-1.619-9.929-1.619
			c-1.328,0-2.226-0.475-2.668-1.412c-0.36-0.765-0.36-1.715-0.36-2.635c0-0.418,0-0.85-0.036-1.24
			c-0.006-0.069-0.018-0.111-0.025-0.133c-0.007-0.001-0.015-0.001-0.024-0.001c-0.876,0-3.117,1.975-3.515,3.086
			c0.12,0.537,2.213,1.896,3.469,2.71c2.615,1.697,4.212,2.81,4.331,3.943c0.04,0.379-0.088,0.728-0.368,1.008
			c-0.925,0.925-1.155,2.251-1.063,3.185c0.064,0.649,0.297,1.196,0.592,1.393c1.839,1.227,2.418,3.202,1.55,5.284
			c-0.854,2.048-4.348,4.215-6.796,4.215c-0.886,0-1.629-0.275-2.149-0.797c-1.176-1.174-1.554-2.287-1.664-3.014
			c-0.12-0.798,0.025-1.553,0.384-2.033c-0.322-0.505-1.827-1.684-3.055-2.645c-0.477-0.373-0.98-0.768-1.497-1.181
			c-0.762-0.609-1.428-0.881-2.161-0.881c-0.869,0-1.849,0.382-3.089,0.865c-1.038,0.405-2.215,0.864-3.704,1.265
			c-2.605,0.702-2.681,1.95-2.786,3.677c-0.069,1.136-0.147,2.423-1.085,3.53c-1.98,2.34-5.919,2.626-8.271,2.797
			c-0.323,0.023-0.611,0.045-0.853,0.069c-0.065,0.006-0.126,0.009-0.184,0.009c-0.624,0-1.059-0.378-1.106-0.964
			c-0.101-1.207,1.841-3.804,3.072-4.184c-0.013-0.19-0.127-0.617-0.513-1.168c-0.257-0.366-1.21-1.569-2.7-1.678
			c-1.598-0.117-2.039-0.691-2.326-1.222c-0.017-0.029-0.036-0.066-0.053-0.094c-0.063-0.003-0.198,0.007-0.435,0.063
			c0.614,0.243,0.925,0.636,0.925,1.177c0,1.682-0.554,3.384-1.612,3.384c-0.489,0-0.816-0.412-1.104-0.775
			c-0.001-0.001-0.002-0.003-0.003-0.004c-0.404,0.904-0.934,1.544-0.959,1.574c-0.116,0.14-0.285,0.222-0.47,0.216
			c-0.181-0.002-0.352-0.087-0.463-0.229l-0.004-0.005c-0.027,0.317-0.104,0.612-0.256,0.846c-0.192,0.298-0.493,0.483-0.846,0.522
			c-0.522,0.059-1.002,0.089-1.423,0.089c-2.092,0-2.53-0.785-2.53-1.443c0,0,0-0.001,0-0.002c-0.137-0.112-0.713-0.224-1.138-0.306
			c-0.727-0.14-1.721-0.332-2.798-0.785c-2.026-0.852-5.426-2.532-5.426-4.219c0-0.737,0.584-1.616,3.367-1.616
			c0.006,0,0.012,0,0.018,0c0.047-0.124,0.101-0.29,0.145-0.425c0.275-0.842,0.651-1.996,1.655-1.996
			c0.325,0,0.657,0.14,0.985,0.413c1.044,0.87,1.154,2.278,1.234,3.306c0.024,0.304,0.056,0.705,0.111,0.885
			c0.713,0.162,1.251,0.774,1.559,1.219c0.609-0.253,1.52-0.681,2.012-1.104c0.022-0.019,0.054-0.046,0.102-0.079
			c-0.366-0.161-0.747-0.357-1.149-0.592c-2.584-1.496-3.19-3.359-3.592-4.594c-0.127-0.392-0.271-0.835-0.4-0.912
			c-1.059-0.635-0.89-3.393-0.145-8.95l0.049-0.369c0.193-1.445,0.798-2.967,1.33-4.31c0.528-1.33,1.027-2.587,0.946-3.322
			c-0.187-0.326-1.97-0.581-3.035-0.733c-2.44-0.349-5.207-0.743-5.851-2.545c-0.778-2.179-6.789-5.7-9.052-7.026
			c-0.297-0.173-0.55-0.321-0.746-0.439c-1.048-0.629-1.816-2.143-2.495-3.479c-0.31-0.608-0.758-1.491-1.041-1.787
			c-0.179,0.473-0.06,2.114,0.723,3.927c0.605,1.404,1.385,2.313,1.984,2.313c2.696,0,9.252,8.275,9.841,9.563
			c0.374,0.817,2.993,1.603,5.205,1.822c0.393,0.039,0.724,0.229,0.958,0.546c0.74,1,0.398,3.078-0.125,5.691
			c-0.15,0.75-0.292,1.458-0.292,1.758c0,1.449-2.084,3.847-4.458,3.847c-0.532,0-1.048-0.122-1.532-0.363
			c-0.705-0.352-1.581-0.529-2.605-0.529c-1.515,0-2.815,0.397-2.829,0.402c-0.032,0.01-0.066,0.018-0.101,0.021
			c-0.001,0-0.593,0.077-0.947,0.124c-0.326,0.044-0.628-0.185-0.674-0.511c-0.037-0.269,0.108-0.521,0.344-0.629
			c0.227-0.407,0.418-2.158,0.131-3.604c-0.13-0.652-0.307-0.918-0.38-0.982c-0.019,0.008-0.053,0.023-0.104,0.06
			c-0.62,0.433-1.292,0.652-1.997,0.652c-0.875,0-1.627-0.339-2.125-0.563c-0.151-0.068-0.357-0.161-0.425-0.173
			c-0.002,0-0.004,0-0.005,0c-0.185,0-0.379-0.101-0.505-0.273c-0.284-0.39-0.279-0.993,0.973-4.94
			c-0.325-0.005-0.705-0.039-1.105-0.076c-0.521-0.047-1.112-0.101-1.703-0.101c-1.338,0-2.264,0.277-2.912,0.872
			c-1.092,1-1.986,1.467-2.814,1.467c-1.309,0-2.114-1.171-2.671-2.191c-0.773-1.418,0.208-2.568,0.926-3.408
			c0.776-0.911,0.955-1.235,0.646-1.633c-0.188-0.241-0.481-0.358-0.898-0.358c-1.313,0-2.904,1.094-3.148,1.497
			c0.073,1.59-5.009,4.313-6.437,4.924c-0.477,0.205-0.894,0.305-1.273,0.305c-1.168,0-1.62-0.917-1.92-1.524
			c-0.215-0.434-0.331-0.627-0.457-0.627c-0.034,0.015-0.13,0.146-0.157,0.496c-0.084,1.095,0.55,2.923,1.892,4.153
			c0.827,0.758,1.796,1.447,2.575,2.002c1.322,0.94,1.87,1.33,1.674,1.943c-0.111,0.349-0.426,0.526-0.936,0.526
			c-0.101,0-0.22-0.006-0.358-0.019c-0.575-0.052-1.461,0.275-2.616,0.695c-2.224,0.808-5.583,2.027-10.528,2.027
			c-0.66,0-1.339-0.021-2.018-0.064c-9.09-0.58-26.77-7.067-30.442-9.387c-1.081-0.683-2.244-1-3.663-1
			c-1.457,0-2.95,0.335-4.532,0.689c-0.969,0.218-1.972,0.443-2.972,0.586c-1.097,0.156-1.985,0.227-2.882,0.227
			c-0.577,0-1.125-0.028-1.704-0.06c-0.733-0.038-1.565-0.082-2.69-0.082c-1.023,0-2.135,0.036-3.396,0.11
			c-6.069,0.356-8.561,3.35-8.585,3.38c-0.104,0.129-0.258,0.21-0.423,0.222c-0.166,0.016-0.329-0.044-0.451-0.155
			c-1.472-1.352-3.878-3.808-3.45-5.061c0.083-0.242,0.33-0.659,1.06-0.722c1.923-0.164,3.3-3.089,4.631-5.918
			c0.471-1.004,0.402-2.467-0.205-4.346c-0.065-0.205-0.018-0.429,0.126-0.588c1.112-1.228,2.014-3.702,2.497-5.031
			c0.161-0.443,0.25-0.685,0.322-0.838c-0.046-0.211-0.231-0.688-0.371-1.046c-0.425-1.093-0.954-2.452-0.773-3.434
			c0.196-1.07-0.328-2.584-1.558-4.5c-1.294-2.008,0.599-6.369,1.576-7.304c0.09-0.483-0.556-2.272-0.906-3.246
			c-0.475-1.316-0.766-2.15-0.766-2.675c0-1.214,1.832-3.166,4.995-6.127c0.683-0.641,0.439-1.11-0.324-2.108
			c-0.479-0.624-1.279-1.669-0.271-2.476l1.142-0.911c0.313-0.765,1.793-4.389,2.462-6.279c0.307-0.871,0.074-1.068-0.39-1.462
			c-0.385-0.327-0.911-0.773-0.911-1.628c0-1.25,0.65-2.74,1.173-3.938c0.114-0.261,0.22-0.502,0.307-0.717
			c0.22-0.542-0.594-1.733-1.311-2.784c-0.326-0.478-0.663-0.972-0.971-1.483c-0.052-0.087-5.062-8.871-2.899-10.637
			c0.004-0.004,0.008-0.007,0.011-0.01c-0.055-0.425-1.452-1.523-2.129-2.057c-1.318-1.037-2.068-1.657-2.145-2.336
			c-0.071-0.599-2.085-3.321-3.909-5.502c-0.128-0.153-0.172-0.359-0.116-0.552c0.656-2.274,1.248-5.031,1.121-5.646
			c-0.313-0.338-0.672-1.183-1.543-3.334c-0.761-1.878-2.177-5.375-2.779-5.727c-1.302-0.523-5.549-4.731-6.387-5.569
			c-0.111-0.11-0.175-0.261-0.176-0.418l-0.569-51.857c-0.001-0.162,0.063-0.318,0.179-0.434c0.116-0.114,0.276-0.184,0.437-0.172
			c2.644,0.063,5.896,0.096,9.666,0.096c35.03,0,107.438-2.779,108.165-2.807c0.057-0.003,0.111,0.003,0.165,0.017
			c0.057,0.013,0.259,0.071,0.509,0.242c0.584,0.404,1.276,1.382,1.276,3.755c0,0.162,0.009,0.281,0.02,0.365
			c0.267-0.167,0.71-0.553,1.025-0.827c0.917-0.796,1.955-1.697,2.983-1.697c0.164,0,0.324,0.022,0.476,0.068
			c0.645,0.193,1.033,0.31,1.17,0.739c0.133,0.42-0.109,0.729-0.444,1.154c-0.489,0.624-1.51,1.921-2.615,4.777
			c-0.503,1.3-0.591,2.281-0.262,2.917c0.409,0.788,1.482,1.057,2.429,1.292c0.949,0.237,1.931,0.481,2.043,1.38
			c0.139,1.113-0.833,1.605-1.69,2.038c-0.863,0.438-1.757,0.889-1.917,1.923c-0.043,0.281,0.023,0.402,0.078,0.47
			c0.323,0.402,1.496,0.477,2.438,0.535c1.188,0.075,2.312,0.146,2.854,0.796c0.859,1.031-0.221,2.299-1.174,3.418
			c-0.486,0.57-1.152,1.353-1.152,1.709c0,0.658,1.81,2.384,3.008,3.525c0.728,0.693,1.415,1.348,1.96,1.953
			c1.213,1.348,2.551,3.106,2.136,4.771c-0.265,1.06-1.192,1.886-2.757,2.455c-4.29,1.56-6.135,3.895-6.863,5.18
			c0.305,0.195,1.261,0.378,1.853,0.491c1.415,0.271,2.638,0.504,2.948,1.358c0.104,0.289,0.132,0.753-0.335,1.323
			c-1.693,2.069-3.334,4.277-3.866,6.404c-0.599,2.398-2.964,6.38-5.846,7.615c-2.2,0.942-2.482,3.647-2.482,5.898
			c0,2.195,0,5.515-2.021,8.143c-1.001,1.302-4.049,5.263-4.049,7.222c0,0.536,0.29,1.264,0.598,2.034
			c0.651,1.636,1.462,3.671-0.249,5.07c-2.036,1.667-2.435,2.831-2.435,4.277c0,0.45-0.037,0.814-0.069,1.137
			c-0.094,0.921-0.161,1.586,0.776,3.694c0.423,0.952,0.459,1.868,0.108,2.724c-0.192,0.47-0.483,0.869-0.805,1.201
			c12.147-0.732,71.438-4.279,79.647-4.279c0.853,0,1.017,0.036,1.144,0.084c0.372,0.14,0.639,0.4,0.771,0.756
			c0.372,0.996-0.359,2.435-1.583,4.698c-0.395,0.73-0.802,1.484-1.132,2.19c-0.702,1.504-0.719,4.119-0.733,6.427
			c-0.013,1.896-0.022,3.534-0.385,4.527c-0.587,1.611,3.355,6.301,5.966,7.606c2.995,1.497,3.745,7.193,3.553,9.316
			c-0.055,0.606,0.93,1.565,1.721,2.335c0.965,0.94,1.798,1.752,1.786,2.626c-0.005,0.36-0.158,0.689-0.443,0.951
			c-0.218,0.201-0.478,0.357-0.796,0.476c-2.644,0.992-2.644,3.105-2.644,5.342c0,2.141-2.711,2.2-4.889,2.248
			c-0.942,0.021-1.832,0.04-2.369,0.201c-0.568,0.17-1.014,1.405-0.868,2.402c0.01,0.067,0.104,0.659,0.37,0.659
			c0.097,0,0.375-0.047,0.881-0.485c1.18-1.022,2.206-1.237,2.858-1.237c0.98,0,1.765,0.495,1.996,1.263
			c0.241,0.794-0.167,1.638-1.092,2.254c-0.233,0.156-0.336,0.266-0.379,0.324c0.367,0.371,2.402,0.854,5.167,0.854
			c1.43,0,2.342-1.924,3.308-3.961c0.958-2.021,1.95-4.112,3.701-4.73c0.766-0.271,1.272-0.391,1.644-0.391
			c0.513,0,0.761,0.237,0.879,0.437c0.339,0.571-0.052,1.285-0.699,2.468c-0.278,0.509-0.595,1.087-0.891,1.721
			c-0.179,0.384-0.126,0.591-0.071,0.714c0.3,0.669,1.798,1.119,3.001,1.48c1.366,0.41,2.445,0.734,2.769,1.488
			c0.126,0.293,0.193,0.768-0.198,1.36c-0.835,1.268-3.697,2.665-5.382,2.598c0.185,0.487,0.506,1.188,0.763,1.749
			c1.146,2.499,1.803,4.077,1.268,4.91c-0.213,0.332-0.566,0.498-1.035,0.461c-1.35-0.112-2.811-1.018-4.224-1.893
			c-1.173-0.728-2.387-1.479-3.449-1.724c-0.115-0.027-0.216-0.018-0.216-0.018c-0.285,0.328,0.25,2.467,0.478,3.38
			c0.339,1.352,0.63,2.519,0.455,3.217c-0.085,0.338-0.384,0.906-1.434,0.906c-0.771,0-1.797-0.287-2.883-0.592
			c-0.983-0.275-2-0.561-2.64-0.561c-0.137,0-0.225,0.014-0.278,0.027c0.062,0.982,3.412,4.518,4.846,5.277
			c1.732,0.916,3.882,3.293,5,5.529c0.145,0.288,0.719,0.632,2.64,0.632c0.579,0,1.189-0.027,1.78-0.055
			c0.564-0.025,1.098-0.05,1.584-0.05c1.144,0,1.975,0.127,2.313,0.746c0.217,0.397,0.152,0.87-0.191,1.405
			c-0.153,0.238-0.214,0.438-0.162,0.533c0.098,0.18,0.698,0.519,2.27,0.519c1.696,0,3.8-0.401,5.115-0.977
			c0.437-0.191,0.865-0.288,1.272-0.288c1.787,0,2.804,1.709,3.88,3.519c0.548,0.92,1.113,1.872,1.788,2.604
			c0.854,0.924,1.136,1.816,0.84,2.65c-0.456,1.281-2.165,1.908-3.253,2.109c0.004,0.442,0.302,1.492,0.507,2.216
			c0.599,2.112,0.921,3.448,0.345,4.21C253.769,242.065,253.472,242.315,252.953,242.315z M247.864,238.072
			c0.833,0,1.594,0.666,2.475,1.437c0.788,0.688,1.681,1.469,2.523,1.599c0.046,0.008,0.096,0.01,0.119,0.007
			c0.224-0.396-0.3-2.244-0.554-3.141c-0.486-1.716-0.743-2.715-0.363-3.3c0.143-0.218,0.363-0.358,0.623-0.396
			c0.86-0.123,2.254-0.641,2.51-1.358c0.136-0.382-0.063-0.864-0.591-1.436c-0.76-0.823-1.358-1.83-1.938-2.804
			c-0.937-1.573-1.744-2.932-2.849-2.932c-0.241,0-0.507,0.063-0.792,0.188c-1.474,0.645-3.723,1.077-5.596,1.077
			c-1.79,0-2.908-0.385-3.323-1.144c-0.193-0.354-0.314-0.947,0.207-1.758c0.051-0.079,0.081-0.139,0.099-0.182
			c-0.129-0.048-0.449-0.12-1.211-0.12c-0.459,0-0.979,0.023-1.53,0.049c-0.604,0.026-1.228,0.056-1.834,0.056
			c-1.516,0-3.143-0.154-3.713-1.295c-1.12-2.24-3.161-4.304-4.488-5.005c-1.252-0.664-5.452-4.532-5.482-6.38
			c-0.007-0.423,0.188-0.778,0.534-0.977c0.248-0.142,0.556-0.21,0.942-0.21c0.805,0,1.854,0.294,2.964,0.605
			c0.96,0.27,1.952,0.548,2.559,0.548c0.156,0,0.239-0.02,0.277-0.032c0.078-0.438-0.221-1.634-0.463-2.601
			c-0.558-2.23-0.853-3.642-0.245-4.419c0.163-0.208,0.466-0.457,0.983-0.457c0.136,0,0.282,0.018,0.435,0.053
			c1.256,0.289,2.555,1.095,3.811,1.873c1.266,0.784,2.573,1.595,3.625,1.711c0.026-0.651-0.897-2.667-1.356-3.669
			c-0.919-2.006-1.221-2.726-0.895-3.233c0.193-0.302,0.56-0.415,0.961-0.265c0.063,0.023,0.179,0.052,0.376,0.052
			c1.216,0,3.443-1.036,4.181-1.944c0.168-0.207,0.187-0.324,0.183-0.344c-0.147-0.252-1.313-0.603-2.011-0.812
			c-1.513-0.454-3.228-0.969-3.752-2.14c-0.233-0.521-0.207-1.098,0.08-1.712c0.312-0.669,0.638-1.264,0.925-1.789
			c0.199-0.363,0.431-0.787,0.564-1.087c-0.202,0.043-0.499,0.127-0.936,0.281c-1.28,0.451-2.163,2.313-3.017,4.113
			c-1.083,2.284-2.203,4.646-4.392,4.646c-1.365,0-5.858-0.125-6.346-1.736c-0.12-0.396-0.063-1.003,0.892-1.64
			c0.454-0.303,0.688-0.651,0.609-0.908c-0.06-0.198-0.351-0.41-0.848-0.41c-0.367,0-1.125,0.122-2.073,0.944
			c-0.604,0.523-1.149,0.778-1.665,0.778c-0.809,0-1.405-0.646-1.559-1.685c-0.188-1.291,0.301-3.305,1.712-3.727
			c0.691-0.208,1.66-0.229,2.687-0.252c2.104-0.046,3.715-0.152,3.715-1.048c0-2.309,0-5.181,3.424-6.466
			c0.226-0.084,0.338-0.173,0.402-0.233c0.057-0.052,0.057-0.074,0.057-0.086c0.005-0.358-0.854-1.195-1.424-1.749
			c-1.074-1.046-2.185-2.128-2.078-3.304c0.196-2.172-0.647-7.012-2.895-8.135c-2.678-1.339-7.5-6.5-6.556-9.09
			c0.29-0.799,0.301-2.414,0.312-4.125c0.016-2.43,0.033-5.185,0.847-6.926c0.345-0.738,0.761-1.509,1.163-2.254
			c0.724-1.339,1.715-3.172,1.515-3.707c-0.005-0.014-0.01-0.025-0.038-0.04c-0.063-0.007-0.251-0.021-0.753-0.021
			c-9.073,0-81.015,4.363-81.74,4.407c-0.293,0.023-0.559-0.181-0.622-0.469s0.092-0.58,0.366-0.688
			c0.014-0.005,1.558-0.633,2.045-1.831c0.223-0.548,0.191-1.129-0.097-1.777c-1.066-2.398-0.978-3.281-0.874-4.303
			c0.031-0.308,0.063-0.626,0.063-1.016c0-2.053,0.806-3.512,2.875-5.206c0.959-0.784,0.581-1.973-0.106-3.697
			c-0.351-0.88-0.682-1.712-0.682-2.479c0-1.637,1.325-4.09,4.297-7.953c1.772-2.305,1.772-5.378,1.772-7.411
			c0-1.684,0-5.626,3.21-7.001c2.491-1.068,4.629-4.701,5.154-6.804c0.589-2.355,2.319-4.695,4.102-6.873
			c0.065-0.08,0.099-0.136,0.114-0.169c-0.258-0.237-1.398-0.455-2.024-0.574c-1.302-0.249-2.427-0.464-2.769-1.195
			c-0.104-0.22-0.176-0.574,0.066-1.009c0.79-1.422,2.818-4.062,7.528-5.773c1.167-0.425,1.841-0.969,2.002-1.617
			c0.281-1.128-0.928-2.64-1.862-3.678c-0.515-0.57-1.186-1.21-1.896-1.888c-2.103-2.004-3.38-3.3-3.38-4.394
			c0-0.799,0.699-1.619,1.438-2.487c0.447-0.525,1.378-1.617,1.166-1.871c-0.211-0.253-1.292-0.321-2.007-0.366
			c-1.3-0.082-2.643-0.167-3.299-0.981c-0.303-0.376-0.413-0.849-0.328-1.403c0.254-1.645,1.587-2.319,2.562-2.812
			c0.708-0.358,1.05-0.559,1.043-0.796c-0.137-0.136-0.741-0.286-1.146-0.387c-1.073-0.269-2.545-0.635-3.203-1.904
			c-0.502-0.968-0.434-2.244,0.208-3.902c1.154-2.981,2.234-4.378,2.769-5.058c-0.034-0.011-0.069-0.021-0.104-0.031
			c-0.041-0.013-0.083-0.019-0.131-0.019c-0.58,0-1.514,0.812-2.196,1.404c-0.772,0.672-1.383,1.202-1.98,1.202
			c-0.383,0-0.703-0.213-0.876-0.584c-0.12-0.258-0.176-0.596-0.176-1.063c0-2.081-0.578-2.644-0.756-2.767
			c-0.027-0.019-0.053-0.033-0.073-0.044c-3.435,0.132-73.721,2.804-108.086,2.804c-3.49,0-6.538-0.028-9.074-0.082l0.56,50.991
			c1.896,1.885,5.011,4.81,5.825,5.138c0.868,0.345,1.724,2.164,3.432,6.384c0.483,1.193,1.083,2.674,1.297,2.953
			c0.27,0.224,0.84,0.908-0.747,6.503c1.123,1.354,3.851,4.749,3.978,5.895c0.093,0.267,1.057,1.024,1.693,1.525
			c1.327,1.044,2.58,2.029,2.59,3.012c0.002,0.252-0.075,0.618-0.454,0.927c-0.71,0.581,1.313,5.996,3.17,9.091
			c0.289,0.481,0.616,0.96,0.933,1.424c1.016,1.488,1.893,2.773,1.432,3.912c-0.091,0.224-0.201,0.475-0.319,0.746
			c-0.452,1.037-1.072,2.458-1.072,3.457c0,0.274,0.126,0.406,0.487,0.713c0.528,0.448,1.326,1.126,0.745,2.776
			c-0.757,2.14-2.525,6.437-2.544,6.479c-0.038,0.095-0.101,0.177-0.18,0.24l-1.263,1.009c-0.014,0.011-0.023,0.021-0.029,0.026
			c0.025,0.158,0.323,0.547,0.504,0.782c0.649,0.848,1.735,2.267,0.192,3.713c-1.142,1.069-4.615,4.32-4.615,5.252
			c0,0.342,0.385,1.41,0.694,2.269c0.889,2.467,1.355,3.893,0.61,4.517c-0.564,0.472-2.343,4.327-1.4,5.79
			c1.42,2.212,1.985,3.967,1.729,5.366c-0.119,0.646,0.381,1.931,0.711,2.781c0.409,1.052,0.615,1.58,0.333,1.998
			c-0.029,0.058-0.159,0.415-0.274,0.731c-0.481,1.321-1.352,3.714-2.509,5.161c0.616,2.055,0.632,3.661,0.049,4.904
			c-1.477,3.137-3.002,6.38-5.614,6.604c-0.002,0-0.004,0-0.006,0c0.143,0.552,1.289,1.961,2.678,3.3
			c1.013-0.958,3.796-3.052,9.004-3.358c1.285-0.075,2.419-0.112,3.467-0.112c1.156,0,2.005,0.045,2.754,0.084
			c0.588,0.031,1.095,0.058,1.641,0.058c0.838,0,1.674-0.066,2.712-0.214c0.954-0.137,1.933-0.356,2.879-0.568
			c1.575-0.354,3.205-0.72,4.795-0.72c1.633,0,3.04,0.388,4.304,1.186c3.501,2.21,21.134,8.646,29.879,9.203
			c0.653,0.042,1.306,0.063,1.94,0.063c4.734,0,7.975-1.177,10.119-1.956c0.969-0.352,1.728-0.627,2.385-0.729
			c-0.146-0.105-0.295-0.212-0.435-0.312c-0.807-0.573-1.81-1.287-2.691-2.096c-1.91-1.752-2.652-4.487-2.123-5.848
			c0.219-0.563,0.656-0.886,1.2-0.886c0.893,0,1.263,0.749,1.532,1.296c0.301,0.608,0.461,0.855,0.845,0.855
			c0.211,0,0.48-0.069,0.801-0.207c2.558-1.096,5.395-3.136,5.705-3.772c-0.029-0.265,0.068-0.543,0.292-0.83
			c0.624-0.8,2.471-1.915,4.061-1.915c0.789,0,1.428,0.284,1.846,0.82c0.956,1.23,0.01,2.339-0.682,3.148
			c-0.79,0.926-1.125,1.431-0.784,2.055c0.757,1.389,1.262,1.566,1.617,1.566c0.496,0,1.17-0.388,2.003-1.151
			c0.872-0.799,2.09-1.188,3.724-1.188c0.646,0,1.265,0.057,1.812,0.106c0.42,0.038,0.783,0.071,1.068,0.071
			c0.165,0,0.262-0.012,0.314-0.022c0.077-0.15,0.234-0.359,0.55-0.359c0.191,0,0.372,0.092,0.484,0.247
			c0.186,0.254,0.169,0.307-0.114,1.188c-0.712,2.22-1.118,3.655-1.212,4.282c0.112,0.044,0.231,0.098,0.36,0.155
			c0.452,0.204,1.016,0.458,1.633,0.458c0.461,0,0.889-0.143,1.309-0.437c0.266-0.187,0.537-0.281,0.808-0.281
			c0.939,0,1.535,1.064,1.678,2.996c0.017,0.228,0.098,1.517-0.126,2.561c0.511-0.132,1.621-0.374,2.889-0.374
			c1.212,0,2.269,0.221,3.141,0.656c0.315,0.156,0.651,0.236,0.997,0.236c1.709,0,3.258-1.905,3.258-2.646
			c0-0.419,0.14-1.113,0.315-1.994c0.286-1.429,0.819-4.09,0.337-4.742c-0.033-0.045-0.059-0.06-0.112-0.064
			c-0.215-0.021-5.275-0.548-6.177-2.518c-0.591-1.291-6.92-8.861-8.75-8.861c-1.813,0-2.94-2.575-3.342-3.682
			c-0.138-0.381-1.313-3.749-0.079-4.778c0.254-0.211,0.506-0.255,0.672-0.255c0.873,0,1.41,1.057,2.153,2.52
			c0.574,1.133,1.29,2.543,2.043,2.994c0.193,0.116,0.442,0.262,0.734,0.433c4.277,2.506,8.761,5.376,9.575,7.657
			c0.4,1.121,2.89,1.476,4.89,1.762c2.191,0.313,3.921,0.56,4.059,1.788c0.114,1.033-0.413,2.361-1.023,3.898
			c-0.507,1.278-1.082,2.727-1.256,4.025l-0.049,0.369c-0.259,1.929-0.943,7.032-0.397,7.78c0.491,0.313,0.679,0.889,0.895,1.552
			c0.365,1.123,0.865,2.661,3.053,3.928c1.01,0.587,1.846,0.9,2.633,0.989c0.294,0.033,0.52,0.274,0.532,0.57
			s-0.191,0.556-0.481,0.614c-1.198,0.24-1.453,0.442-1.455,0.444c-0.944,0.811-2.766,1.473-2.843,1.501
			c-0.285,0.103-0.603-0.024-0.739-0.295c-0.163-0.32-0.641-1.005-1.069-1.066c-0.866-0.124-0.942-1.097-1.01-1.956
			c-0.067-0.86-0.151-1.932-0.807-2.478c-0.11-0.093-0.178-0.122-0.205-0.131c-0.188,0.13-0.424,0.852-0.525,1.164
			c-0.221,0.676-0.411,1.261-1.011,1.261c-0.021,0-0.046-0.002-0.071-0.005c-0.036-0.001-0.114-0.003-0.222-0.003
			c-1.456,0-2.1,0.29-2.17,0.423c0.003,0.467,1.458,1.746,4.694,3.105c0.961,0.405,1.848,0.576,2.56,0.714
			c1.037,0.2,2.11,0.407,2.11,1.485c-0.002,0.001,0.197,0.243,1.33,0.243c0.372,0,0.801-0.026,1.272-0.079
			c0.148-0.244,0.037-1.275-0.236-2.132c-0.088-0.276,0.035-0.577,0.291-0.713c0.257-0.136,0.573-0.068,0.753,0.159l0.891,1.133
			c0.161-0.267,0.34-0.602,0.478-0.972c0.23-0.611,0.631-0.702,0.849-0.702c0.472,0,0.774,0.382,1.066,0.751
			c0.045,0.056,0.104,0.13,0.16,0.196c0.175-0.306,0.411-1.012,0.416-2.026c-0.073-0.06-0.451-0.302-1.786-0.302
			c-0.206,0-0.418,0.007-0.633,0.018c-0.3,0.012-0.563-0.191-0.62-0.484c-0.058-0.293,0.11-0.584,0.393-0.682
			c0.256-0.089,0.514-0.189,0.781-0.294c0.436-0.171,0.886-0.348,1.407-0.507c0.493-0.152,0.857-0.223,1.146-0.223
			c0.737,0,0.992,0.47,1.129,0.722c0.138,0.255,0.281,0.519,1.358,0.597c2.577,0.188,4.265,2.695,4.324,3.997
			c0.035,0.771-0.438,1.125-0.855,1.194c-0.591,0.108-2.086,2.042-2.214,2.793c0.243-0.024,0.532-0.045,0.854-0.068
			c2.165-0.157,5.788-0.421,7.442-2.376c0.68-0.803,0.739-1.786,0.803-2.827c0.109-1.799,0.234-3.836,3.672-4.763
			c1.427-0.385,2.571-0.83,3.58-1.225c1.358-0.529,2.431-0.947,3.525-0.947c1.011,0,1.936,0.363,2.911,1.144
			c0.513,0.411,1.014,0.803,1.486,1.174c2.436,1.905,3.514,2.782,3.563,3.592c0.016,0.258-0.075,0.5-0.257,0.681
			c-0.127,0.127-0.282,0.544-0.188,1.17c0.083,0.549,0.381,1.4,1.325,2.345c0.296,0.296,0.733,0.445,1.302,0.445
			c2.143,0,5.068-1.99,5.688-3.477c0.875-2.1-0.318-3.297-1.107-3.823c-0.609-0.405-1.018-1.234-1.12-2.273
			c-0.12-1.206,0.187-2.93,1.407-4.151c0.021-0.02,0.025-0.03,0.025-0.03c0.05-0.571-2.643-2.319-3.793-3.065
			c-2.539-1.647-4.374-2.838-3.964-4.067c0.506-1.518,3.142-3.936,4.663-3.936c0.7,0,1.177,0.47,1.245,1.226
			c0.041,0.444,0.041,0.904,0.041,1.349c0,0.824,0,1.602,0.246,2.123c0.158,0.337,0.482,0.724,1.582,0.724
			c5.139,0,8.592,0.588,10.558,1.798c2.368,1.457,2.55,2.976,2.803,5.078c0.039,0.326,0.08,0.671,0.133,1.038
			c0.058,0.404,0.238,0.767,1.799,0.767c0.357,0,0.742-0.017,1.15-0.034c0.444-0.02,0.903-0.04,1.37-0.04
			c1.174,0,2.668,0.115,3.805,1.008c0.387,0.305,0.867,0.67,1.403,1.077c4.656,3.537,8.465,6.617,7.905,8.483
			c-0.089,0.294,0.087,0.615,0.249,0.834c0.554,0.744,1.715,1.326,2.645,1.326c0.615,0,1.058-0.242,1.315-0.722
			C246.743,238.432,247.249,238.072,247.864,238.072z"/>
	</g>
	<g>
		<path d="M145.517,222.291L145.517,222.291c-0.315,0-0.576-0.244-0.598-0.559c-0.007-0.091-0.008-0.529,0.531-0.636v-0.002
			l0.025-0.003c0.013-0.002,0.024-0.004,0.037-0.006l0.185-0.025c0.172-0.024,0.347,0.027,0.478,0.142s0.206,0.278,0.206,0.452
			c0,0.302-0.224,0.56-0.523,0.599l-0.047,0.006c-0.059,0.008-0.107,0.014-0.146,0.018l-0.056,0.008l-0.001-0.001
			C145.546,222.289,145.518,222.291,145.517,222.291z"/>
	</g>
	<g>
		<path d="M135.789,226.62c-1.076,0-4.488-0.792-5.201-1.666c-0.085-0.104-0.138-0.207-0.168-0.303
			c-0.285-0.135-0.938-0.346-1.479-0.521c-2.521-0.816-4.639-1.599-5.015-2.913c-0.103-0.359-0.116-0.916,0.402-1.53
			c0.088-0.104,0.165-0.198,0.235-0.285c0.686-0.837,0.943-1.075,2.86-1.552c0.786-0.197,1.014-0.703,1.233-1.192
			c0.184-0.407,0.434-0.965,1.085-0.965c0.204,0,0.415,0.063,0.646,0.19c0.377,0.209,1.109,0.661,1.958,1.185
			c1.371,0.846,3.649,2.251,4.134,2.408c0.446,0.021,1.889,0.263,2.376,0.887c0.174,0.223,0.234,0.486,0.17,0.743
			c-0.106,0.422-0.909,1.355-2.388,2.777c0.248,0.604,0.544,1.594,0.158,2.217C136.678,226.295,136.388,226.62,135.789,226.62z
			 M131.588,224.258c0.553,0.41,3.075,1.162,4.199,1.163c0.032-0.248-0.152-0.901-0.406-1.409c-0.118-0.236-0.067-0.521,0.124-0.703
			c0.862-0.817,1.845-1.826,2.225-2.314c-0.344-0.156-1.007-0.319-1.309-0.319c-0.421,0-1.256-0.459-4.703-2.585
			c-0.808-0.498-1.509-0.931-1.874-1.137c-0.03,0.063-0.063,0.136-0.091,0.197c-0.257,0.57-0.686,1.525-2.037,1.864
			c-1.61,0.4-1.692,0.5-2.223,1.147c-0.074,0.091-0.155,0.19-0.247,0.3c-0.215,0.254-0.179,0.379-0.165,0.426
			c0.23,0.807,2.932,1.681,4.229,2.102C130.813,223.476,131.538,223.71,131.588,224.258z"/>
	</g>
</g>
</svg>
