<?xml version="1.0" encoding="iso-8859-1"?>
<!-- Generator: Adobe Illustrator 15.1.0, SVG Export Plug-In . SVG Version: 6.00 Build 0)  -->
<!DOCTYPE svg PUBLIC "-//W3C//DTD SVG 1.1//EN" "http://www.w3.org/Graphics/SVG/1.1/DTD/svg11.dtd">
<svg version="1.1" id="Layer_1" xmlns="http://www.w3.org/2000/svg" xmlns:xlink="http://www.w3.org/1999/xlink" x="0px" y="0px"
	 width="288px" height="288px" viewBox="0 0 288 288" style="enable-background:new 0 0 288 288;" xml:space="preserve">
<g>
	<g>
		<path d="M115.129,251.264c-0.055,0-0.114-0.002-0.18-0.003c-0.104-0.003-0.225-0.007-0.368-0.002c-0.006,0-0.031,0-0.038,0
			c-0.413,0-0.652-0.187-0.794-0.422c-0.094,0.15-0.235,0.27-0.416,0.346c-0.114,0.05-0.245,0.076-0.385,0.076
			c-1.104,0-3.107-2.037-3.917-2.912c-0.076-0.083-0.127-0.185-0.148-0.294l-0.632-3.272c-0.822-0.261-2.592-0.851-3.135-1.285
			c-0.603-0.485-3.804-3.994-4.167-4.393c-0.082-0.091-0.135-0.203-0.151-0.324l-0.925-6.849l-25.274-77.527
			c-0.046-0.141-0.038-0.293,0.021-0.429c0.715-1.617,1.771-3.565,2.738-3.659c0.02-0.002,0.062-0.005,0.081-0.005
			c0.46,0,1.59,0.643,4.344,3.496c-0.164-2.078-0.421-4.926-0.621-5.74c-0.144-0.595-0.07-1.105,0.217-1.522
			c0.483-0.702,1.415-0.91,2.263-1.021c0.152-0.02,0.336-0.038,0.541-0.058c0.638-0.062,2.58-0.251,2.549-0.799
			c-0.027-0.451-0.942-1.36-1.548-1.962c-0.919-0.913-1.644-1.634-1.517-2.363c0.02-0.117,0.042-0.323,0.072-0.586
			c0.318-2.767,0.785-5.457,2.033-6.395c1.252-0.938,4.819-4.966,5.498-5.928c-0.225-0.401-0.902-1.314-1.499-2.048
			c-0.175-0.215-0.18-0.523-0.01-0.744c0.854-1.112,3.076-4.31,3.084-5.722c0.002-0.93-0.466-1.189-0.962-1.465
			c-0.335-0.186-0.714-0.396-0.824-0.838c-0.077-0.318-0.839-1.953-1.53-3.352c-0.08-0.161-0.083-0.349-0.009-0.513
			c0.532-1.178,1.414-3.263,1.512-3.845c-0.008-0.336-0.969-1.555-2.019-2.54c-0.131-0.123-0.199-0.298-0.188-0.478
			c0.113-1.688,0.467-5.704,1.306-6.562c0.574-0.586,2.17-4.232,2.903-6.07c0.162-0.754-0.591-6.563-1.417-11.77
			c-0.016-0.098-0.007-0.198,0.026-0.292l14.312-40.967c0.089-0.255,0.341-0.419,0.606-0.4l5.023,0.337
			c0.235,0.015,0.439,0.167,0.522,0.388c0.806,2.157,2.356,6.283,2.675,7.057c0.489,0.333,2.939,0.948,5.125,1.375
			c0.857-0.828,3.895-3.664,6.008-4.398c1.377-0.479,2.251-1.488,2.89-2.225c0.433-0.499,0.718-0.829,1.102-0.922
			c0.684-0.171,2.628-0.864,3.092-1.175c0.053-0.303,0.079-1.047,0.07-1.65c-0.002-0.184,0.078-0.357,0.22-0.473
			c0.251-0.206,2.5-2.011,4.172-2.159c0.043-0.004,0.087-0.006,0.134-0.006c1.248,0,4.124,1.558,7.212,3.292
			c0.824,0.463,1.535,0.863,1.802,0.977c1.028,0.44,3.985,2.352,4.562,3.444c0.25,0.278,1.972,0.56,3.672,0.581
			c0.258,0.003,0.485,0.171,0.564,0.416c5.448,16.924,15.851,49.168,16.219,50.068c0.35,0.813,0.159,1.893,0.033,2.607
			c-0.019,0.108-0.041,0.232-0.054,0.325c0.023,0.025,0.051,0.055,0.079,0.085c0.338,0.361,0.847,0.907,0.875,1.551
			c0.03,0.801,0.151,3.317,0.299,4.387c0.161,1.105,1.231,2.777,1.642,2.9l0,0c0.003,0,0.118,0.017,0.574,0.017
			c2.456,0,10.151-0.459,10.539-0.51c0.025-0.003,0.065-0.006,0.092-0.006c1.251,0,2.685,4.346,2.704,4.537
			c0.054,0.493-0.354,0.858-0.869,1.32c-0.173,0.155-0.442,0.396-0.565,0.551c0.332,0.561,1.667,2.299,2.89,3.81
			c0.061,0.074,0.103,0.162,0.122,0.256c0.013,0.065,0.328,1.617,0.134,2.724c-0.124,0.709,0.326,2.441,0.568,3.372
			c0.056,0.214,0.104,0.399,0.139,0.544c0.258,0.691,3.437,3.382,4.264,3.62c0.219-0.185,0.609-0.847,0.875-1.297
			c0.62-1.049,1.206-2.039,2.001-2.275c0.155-0.048,0.335-0.071,0.532-0.071c1.416,0,3.94,1.313,5.166,2.443
			c1.26,1.158,4.078,4.977,4.631,6.693c0.315,0.987,2.799,2.819,4.291,3.741c0.146,0.091,0.245,0.238,0.274,0.406
			c0.03,0.169-0.014,0.342-0.12,0.477l-0.816,1.034c-0.08,0.113-0.695,0.992-1.278,1.959c-0.356,0.582-0.539,0.777-0.838,0.893
			c-0.024,0.023-0.082,0.087-0.188,0.234c-0.266,0.363-0.448,0.509-0.598,0.602c-0.021,0.057-0.056,0.165-0.11,0.364
			c-0.047,0.168-0.03,0.229-0.029,0.229c0.008,0.011,0.052,0.047,0.082,0.071c0.117,0.097,0.337,0.275,0.368,0.597
			c0.021,0.218-0.053,0.431-0.22,0.634c-0.091,0.11-0.394,0.667-0.638,1.115c-1.022,1.879-1.563,2.762-2.061,3.023
			c-0.256,0.136-0.473,0.199-0.683,0.199c-0.099,0-0.186-0.015-0.26-0.035c-0.012,0.363-0.053,1.063-0.738,1.229
			c-0.079,0.02-0.161,0.029-0.244,0.029c-0.973,0-1.715-1.328-1.746-1.385c-0.007-0.008-0.055-0.053-0.091-0.085
			c-0.222-0.203-0.741-0.678-0.367-1.595c0.002-0.003,0.003-0.006,0.004-0.009c-0.054-0.032-0.164-0.07-0.293-0.07
			c-0.072,0-0.11,0.012-0.117,0.015c-0.263,0.097-0.595,0.533-0.611,0.703c0.098,0.38,0.252,1.011,0.373,1.502l0.071,0.292
			c0.148,0.601,0.232,1.511-0.204,2.431c-0.27,0.557-0.697,0.616-0.869,0.616c-0.177,0-0.342-0.053-0.492-0.146
			c-0.015,0.193-0.085,0.367-0.206,0.508c-0.125,0.146-0.362,0.318-0.774,0.318c-0.551,0-1.264-0.326-1.733-0.793
			c-0.196-0.192-0.466-0.305-0.739-0.305c-0.195,0-0.364,0.061-0.442,0.158c-0.231,0.295-0.25,0.466-0.121,1.142
			c0.095,0.517,0.224,1.021,0.336,1.467c0.035,0.135,0.067,0.263,0.097,0.382c0.021,0.089,0.049,0.184,0.076,0.28
			c0.155,0.541,0.349,1.216-0.044,1.751c-0.366,0.499-0.702,0.66-1.711,1.096c-0.286,0.123-0.461,0.17-0.625,0.17
			c-0.236,0-0.443-0.107-0.567-0.294c-0.21-0.316-0.076-0.634,0.021-0.865c0.039-0.094,0.132-0.313,0.116-0.386
			c-0.078-0.313-0.275-0.541-0.492-0.578c-0.074,0.101-0.168,0.337-0.219,0.552c0.104,0.637,0.295,2.245-0.279,2.931
			c-0.214,0.256-0.517,0.387-0.852,0.367c-0.622-0.042-0.878-0.376-0.977-0.572c-0.167-0.334-0.114-0.699-0.014-0.991
			c-0.791-0.64-1.612-1.405-1.738-1.914c-0.073-0.296-0.123-0.376-0.146-0.396h-0.001c-0.005,0-0.061-0.018-0.228,0.023
			c-0.283,0.067-0.638,0.552-0.871,0.872c-0.164,0.224-0.301,0.411-0.453,0.545c0.041,0.249,0.172,0.653,0.263,0.816
			c0.118,0.098,0.235,0.264,0.254,0.544c0.031,0.476-0.324,2.162-1.146,2.617c-0.258,0.143-0.429,0.771-0.437,1.042
			c0.028,0.091,0.115,0.299,0.182,0.456c0.386,0.921,0.604,1.512,0.378,1.958c-0.1,0.197-0.272,0.335-0.486,0.387
			c-0.003,0-0.005,0.001-0.007,0.002c0.027,0.348-0.063,0.678-0.122,0.889c-0.01,0.035-0.019,0.065-0.023,0.088
			c-0.065,0.437-0.472,0.564-0.671,0.627c-0.352,0.111-0.413,0.17-0.432,0.3c-0.152,1.269-1.1,1.82-2.101,2.226
			c-0.172,0.069-0.349,0.104-0.528,0.104c-1.549,0-2.639-2.506-2.809-3.216c-0.103-0.406-0.12-0.807-0.107-1.129
			c-0.604-0.034-1.47-0.104-1.955-0.233c-0.329-0.087-0.55-0.269-0.703-0.463c-0.128,0.332-0.386,0.686-0.956,0.828
			c-0.113,0.027-0.223,0.04-0.329,0.04c-0.929,0-1.352-0.913-1.579-1.404c-0.013-0.028-0.028-0.061-0.043-0.092
			c-0.224,0.002-0.535,0.067-0.78,0.202c0.265,0.037,0.434,0.191,0.52,0.356c0.064,0.063,0.212,0.186,0.323,0.277
			c0.609,0.503,1.299,1.073,1.238,1.746c-0.045,0.583-0.463,0.882-1.243,0.882l-0.289-0.002c-0.178,0-0.386,0.006-0.574,0.052
			c-0.317,0.078-0.417,0.363-0.618,1.376l-0.048,0.239c-0.035,0.172-0.057,0.315-0.076,0.438c-0.144,0.938-0.389,1.187-1.645,1.66
			c-0.242,0.091-0.438,0.133-0.616,0.133c-0.279,0-0.521-0.11-0.68-0.31c-0.203-0.255-0.219-0.558-0.171-0.887
			c-0.018,0.016-0.034,0.031-0.051,0.045c-0.169,0.149-0.289,0.264-0.295,0.367c-0.073,1.17-0.952,1.3-1.595,1.395
			c-0.099,0.015-0.202,0.029-0.311,0.049c-0.446,0.075-0.578,0.149-0.614,0.176c0.003,0.007,0.003,0.033,0.009,0.077
			c0.047,0.335,0.561,1.301,0.963,1.938c0.205-1.463,0.607-2.277,1.196-2.421c0.066-0.017,0.137-0.025,0.207-0.025
			c1.04,0,1.825,1.906,1.948,2.631c0.056,0.329-0.006,0.603-0.183,0.813c-0.27,0.319-0.673,0.319-0.806,0.319
			c-0.122,0-0.261-0.013-0.406-0.026c-0.182-0.017-0.389-0.031-0.495-0.018c0.548,0.575,1.312,1.461,1.453,2.047
			c0.235,0.979-0.11,1.398-0.512,1.884c-0.12,0.146-0.345,0.318-0.733,0.318c-0.777,0-2.233-0.868-2.618-1.524
			c-0.064-0.017-0.196-0.04-0.438-0.04c-0.396,0-0.86,0.062-1.18,0.112c-0.228,0.037-0.436,0.056-0.632,0.056
			c-0.729,0-1.35-0.266-1.898-0.813c-0.235-0.229-0.549-0.536-0.795-0.752c-0.013,0.032-0.024,0.064-0.036,0.094
			c-0.178,0.475-0.399,1.063-0.737,1.459c-0.323,0.388-0.63,0.713-1.066,0.713c-0.604,0-0.865-0.625-0.963-0.86
			c-0.335-0.807-0.545-2.202-0.439-2.93c0.115-0.824,0.745-0.997,1.048-1.08c0.071-0.021,0.145-0.04,0.193-0.062
			c0.058-0.078,0.142-0.293,0.193-0.425c0.065-0.167,0.135-0.343,0.229-0.497c-0.243,0.188-0.493,0.362-0.693,0.48
			c-0.246,0.143-0.457,0.237-0.693,0.237c-0.304,0-0.503-0.151-0.662-0.273c-0.076-0.059-0.163-0.124-0.284-0.197
			c-0.462-0.281-0.497-0.644-0.477-0.834c0.06-0.565,0.647-0.838,1.316-1.077c0.08-0.182,0.112-0.648,0.095-1.392
			c-0.004-0.153-0.006-0.28-0.003-0.365c0.006-0.229-0.064-1.253-0.128-2.086l-1.54-0.113l-0.032,0.324
			c0.252,0.206,0.618,0.514,0.789,0.685c0.444,0.453,0.272,1.492,0.169,1.854c-0.2,0.701-0.571,0.928-0.848,0.995
			c-0.238,0.097-1.181,0.928-1.951,1.686l-0.29,1.182c-0.07,0.286-0.338,0.483-0.631,0.455c-0.009-0.001-0.084-0.006-0.193-0.006
			c-0.373,0-0.57,0.06-0.633,0.09c-0.034,0.056-0.069,0.11-0.104,0.164c-0.054,0.083-0.136,0.207-0.141,0.248l0,0
			c0,0,0.005,0.047,0.078,0.156c0.181,0.272,1.269,1.042,2.17,1.589c0.199,0.121,0.311,0.347,0.285,0.579l-0.357,3.222
			c-0.027,0.251-0.209,0.457-0.454,0.518l-0.603,0.146c-0.304,3.93-0.48,8.177-0.28,9.047c0.057-0.046,0.116-0.099,0.161-0.138
			c0.249-0.219,0.532-0.466,0.895-0.513c0.056-0.007,0.108-0.01,0.157-0.01c0.318,0,0.585,0.134,0.749,0.379
			c0.226,0.337,0.213,0.801-0.04,1.42c-0.206,0.515-1.069,1.677-1.658,2.095c-0.014,0.187,0.035,0.569,0.063,0.788
			c0.057,0.442,0.106,0.824,0.02,1.122c-0.165,0.594-0.811,0.707-1.238,0.781c-0.084,0.016-0.198,0.035-0.28,0.056
			c-0.06,0.214-0.145,0.564-0.227,0.905c-0.116,0.479-0.248,1.023-0.366,1.428c-0.309,1.034-1.464,1.632-1.746,1.7
			c-0.047,0.011-0.096,0.017-0.144,0.017c-0.571,0-0.624-0.247-1.13-2.608c-0.019-0.09-0.037-0.176-0.055-0.256
			c-0.216,0.113-0.49,0.271-0.699,0.394c-0.911,0.525-1.544,0.86-2.046,0.829c-0.207-0.012-0.64-0.038-0.837-0.414
			c-0.188-0.359,0.002-0.674,0.127-0.882c0.111-0.184,0.249-0.411,0.302-0.755c0.119-0.823-0.231-1.608-0.558-2.206
			c-0.035-0.015-0.123-0.038-0.281-0.038c-0.105,0-0.213,0.01-0.312,0.023c-0.065,1.102-0.162,3.029-0.11,3.578
			c0.064,0.64-0.172,1.778-0.4,2.88c-0.101,0.485-0.195,0.944-0.245,1.278c-0.066,0.438-0.032,0.672-0.003,0.878
			c0.038,0.264,0.086,0.591-0.169,0.986c-0.255,0.398-0.601,0.458-0.783,0.458c-0.075,0-0.144-0.01-0.202-0.021
			c-0.316,0.276-0.967,0.745-1.498,0.72c0.17,0.294,0.291,0.574,0.324,0.81c0.056,0.39,0.103,2.452-1.001,2.847
			c-0.139,0.049-0.268,0.073-0.395,0.073c-0.51,0-0.769-0.372-0.924-0.595c-0.099-0.142-0.184-0.265-0.325-0.361
			c-0.162-0.112-0.297-0.194-0.416-0.269c-0.324-0.201-0.604-0.374-0.962-0.802c-0.086-0.101-0.153-0.21-0.206-0.323
			c-0.074,0.143-0.202,0.252-0.359,0.3c-0.187,0.056-0.39,0.02-0.543-0.101c-0.347-0.27-0.886-0.73-1.178-1.188
			c0.007,0.154,0.017,0.271,0.028,0.333c0.064,0.169,0.557,0.797,0.718,1.003c0.054,0.069,0.102,0.13,0.14,0.181
			c0.053,0.021,0.124,0.047,0.182,0.067c0.495,0.179,1.242,0.447,1.401,1.1c0.118,0.502,0.333,2.06-0.072,3.294
			c-0.157,0.477-0.336,1.016-0.888,1.016c-0.259,0-0.429-0.139-0.53-0.222c-0.058-0.047-0.086-0.068-0.111-0.074
			c-0.095-0.021-0.184-0.057-0.268-0.105c0.002,0.157-0.018,0.301-0.032,0.416c-0.021,0.16-0.04,0.312-0.014,0.421
			c0.12,0.486-0.025,1.07-0.381,1.524c-0.354,0.451-0.87,0.711-1.414,0.711c-0.082,0-0.167-0.006-0.253-0.018
			c-1.127-0.161-1.063-1.549-1.027-2.295c0.005-0.098,0.01-0.214,0.012-0.313c-0.235-0.124-0.518-0.31-0.856-0.535
			c-0.143-0.096-0.271-0.183-0.37-0.243c-0.343-0.208-0.384-0.491-0.378-0.642c0.016-0.419,0.368-0.597,0.601-0.715
			c0.133-0.066,0.296-0.149,0.387-0.243c0.025-0.226-0.252-0.879-0.42-1.274c-0.059-0.139-0.117-0.277-0.173-0.414
			c0.093,0.339,0.134,0.699,0.056,1.007c-0.093,0.366-0.336,0.632-0.685,0.747c-0.099,0.031-0.203,0.038-0.304,0.019l-0.214-0.042
			c0.036,0.309,0.002,0.696-0.049,1.198c-0.03,0.293-0.08,0.783-0.047,0.921c0.131,0.506-0.129,1.103-0.381,1.681
			c-0.112,0.258-0.239,0.55-0.263,0.7c-0.097,0.632-0.718,1.039-1.582,1.039c-0.23,0-0.556-0.033-0.794-0.193
			c-0.326-0.217-0.463-0.683-0.404-1.384c0.042-0.503,0.191-1.146,0.663-1.394c0.015-0.111,0.01-0.337,0.007-0.539
			c-0.003-0.133-0.005-0.281-0.005-0.445c-0.004-0.882,0.486-2.022,0.685-2.448c-0.027-0.166-0.117-0.475-0.419-0.615
			c-0.237,0.055-0.7,0.631-1.369,1.71c-0.097,0.156-0.183,0.294-0.255,0.403c-0.485,0.719-1.802,2.278-2.293,2.777
			c-0.217,0.212-0.54,0.865-0.8,1.391c-0.227,0.46-0.441,0.894-0.653,1.214c-0.223,0.334-0.131,1.598-0.076,2.352
			c0.031,0.425,0.061,0.826,0.063,1.176c0,0.367,0.064,0.39,0.373,0.498c0.213,0.075,0.505,0.178,0.692,0.457
			c0.148,0.214,0.369,0.656,0.624,1.168c0.202,0.406,0.412,0.826,0.563,1.083c0.246,0.405,0.224,0.959-0.065,1.474
			c-0.226,0.4-0.686,0.869-1.237,0.869c-0.093,0-0.183-0.014-0.269-0.039c-0.121,0.06-0.336,0.206-0.501,0.318
			c-0.604,0.411-1.43,0.976-2.401,0.976c-0.132,0-0.229,0.021-0.259,0.058c-0.152,0.185-0.01,0.922,0.059,1.275
			c0.031,0.161,0.06,0.311,0.078,0.44c0.033,0.241,0.147,0.493,0.278,0.785c0.229,0.507,0.513,1.139,0.426,1.939
			c-0.067,0.619-0.367,2.703-1.386,3.556c-0.209,0.175-0.018,0.99,0.074,1.383c0.077,0.325,0.143,0.606,0.141,0.852
			c0.009,0.923-1.23,1.197-2.429,1.463c-0.227,0.051-0.443,0.099-0.606,0.144c-0.341,0.441-0.462,2.757-0.293,3.29
			c0.302,0.637,0.758,3.297,0.644,4.517c-0.099,0.958-0.408,2.305-0.657,3.388c-0.066,0.288-0.127,0.554-0.177,0.78
			C116.214,250.689,116.018,251.264,115.129,251.264z M114.745,250.057c0.086,0,0.164,0.002,0.235,0.004
			c0.046,0.001,0.088,0.002,0.128,0.003c0.022-0.069,0.055-0.185,0.097-0.38c0.051-0.23,0.113-0.5,0.181-0.793
			c0.241-1.05,0.541-2.357,0.633-3.236c0.101-1.073-0.354-3.518-0.531-3.878c-0.284-0.575-0.264-3.076,0.219-4.18
			c0.182-0.413,0.436-0.671,0.756-0.766c0.208-0.061,0.47-0.119,0.746-0.181c0.399-0.088,1.188-0.263,1.475-0.427
			c-0.021-0.127-0.061-0.297-0.095-0.441c-0.181-0.769-0.453-1.929,0.324-2.578c0.428-0.358,0.823-1.495,0.963-2.765
			c0.052-0.476-0.124-0.866-0.327-1.317c-0.155-0.344-0.315-0.7-0.373-1.109c-0.016-0.112-0.041-0.241-0.067-0.38
			c-0.135-0.695-0.319-1.647,0.193-2.268c0.186-0.226,0.542-0.494,1.182-0.494c0.604,0,1.228-0.425,1.729-0.767
			c0.447-0.306,0.801-0.547,1.189-0.547c0.088,0,0.173,0.013,0.254,0.038c0.141-0.103,0.308-0.4,0.272-0.511
			c-0.175-0.295-0.394-0.734-0.604-1.158c-0.188-0.375-0.397-0.795-0.512-0.981c-0.035-0.015-0.087-0.033-0.129-0.047
			c-0.382-0.134-1.176-0.413-1.176-1.628c-0.002-0.306-0.029-0.688-0.059-1.092c-0.087-1.192-0.177-2.427,0.272-3.102
			c0.17-0.257,0.377-0.677,0.578-1.082c0.346-0.701,0.673-1.362,1.028-1.709c0.442-0.45,1.699-1.939,2.143-2.596
			c0.063-0.097,0.143-0.225,0.231-0.367c0.745-1.202,1.49-2.281,2.403-2.281c0.151,0,0.298,0.03,0.438,0.09
			c0.662,0.283,0.979,0.84,1.107,1.317c0.126-0.044,0.271-0.067,0.5-0.048c0.021,0.002,0.043,0.005,0.064,0.009l0.501,0.099
			c-0.046-0.271-0.21-0.688-0.327-0.853c-0.164-0.193-0.204-0.461-0.103-0.691c0.176-0.402,0.736-0.585,1.184-0.585
			c0.589,0,1.072,0.295,1.32,0.798c-0.298-1.159-0.584-2.196-0.679-2.392c-0.055-0.093-0.155-0.294-0.295-0.571
			c-0.121-0.242-0.339-0.674-0.531-1.025c-0.313,0.504-0.583,0.886-1.037,0.886l0,0c-0.093,0-0.183-0.019-0.269-0.055
			c-0.755-0.325-0.75-1.662-0.643-2.324c0.142-0.928,0.545-1.311,0.87-1.469c0.151-0.344,0.313-1.209,0.231-1.447
			c-0.137-0.396-0.088-0.837,0.136-1.249c0.165-0.306,0.469-0.663,0.827-0.754c0.077-0.018,0.153-0.025,0.248-0.025
			c0.015,0,1.453,0.021,1.828,0.788c0.15,0.306,0.104,0.65-0.124,0.945c-0.252,0.329-0.642,1.552-0.852,2.359
			c0.003,0.312,0.067,0.67,0.142,0.762c0.28,0.289,1.303,1.917,1.691,2.657c-0.003-0.885,0.041-1.926,0.148-2.321l0.054-0.196
			c0.6-2.195,1.005-3.25,1.399-3.64c0.819-0.817,1.291-1.207,1.752-1.207c0.342,0,0.721,0.239,0.743,0.765
			c0.029,0.593-0.016,2.649-0.169,3.432c-0.021,0.114-0.055,0.218-0.099,0.313c0.2-0.003,0.357,0.006,0.487,0.018
			c0.086,0.006,0.171,0.026,0.254,0.059c0.029-0.298,0.126-0.939,0.237-1.679c0.108-0.714,0.256-1.689,0.263-1.886
			c0.026-0.509,0.176-0.949,0.192-0.998c0.06-0.171,0.193-0.307,0.363-0.367c0.17-0.062,0.359-0.043,0.515,0.051
			c0.042,0.025,1.032,0.639,1.164,1.797c0.085,0.813,0.066,2.751-0.181,3.392l-0.063,0.149c-0.029,0.07-0.066,0.157-0.071,0.184
			c0.001,0.018,0.015,0.095,0.102,0.345c0.056,0.16,0.104,0.322,0.151,0.478c0.039,0.13,0.091,0.303,0.138,0.427
			c0.2-0.105,0.505-0.329,0.604-0.441c0.159-0.174,0.364-0.264,0.586-0.264c0.032,0,0.063,0.002,0.092,0.005
			c0-0.005-0.001-0.011-0.002-0.016c-0.035-0.245-0.089-0.615,0.004-1.229c0.055-0.366,0.153-0.841,0.257-1.344
			c0.181-0.869,0.427-2.06,0.381-2.52c-0.08-0.85,0.113-3.885,0.136-4.229c0.017-0.252,0.189-0.467,0.432-0.537
			c0.054-0.016,0.539-0.152,1.049-0.152c0.797,0,1.154,0.341,1.314,0.627c0.39,0.709,0.886,1.787,0.711,2.994
			c-0.024,0.159-0.06,0.303-0.1,0.433c0.269-0.14,0.562-0.309,0.766-0.427c0.769-0.445,1.223-0.696,1.618-0.696
			c0.365,0,0.656,0.222,0.739,0.565c0.037,0.155,0.1,0.443,0.172,0.781c0.073,0.342,0.193,0.905,0.298,1.347
			c0.174-0.151,0.336-0.34,0.396-0.545c0.11-0.374,0.238-0.902,0.351-1.369c0.122-0.504,0.227-0.938,0.305-1.164
			c0.188-0.525,0.751-0.624,1.163-0.696c0.082-0.015,0.2-0.035,0.291-0.058c-0.009-0.142-0.036-0.354-0.056-0.511
			c-0.096-0.741-0.204-1.583,0.425-1.914c0.202-0.11,0.737-0.75,1.045-1.216c-0.203,0.144-0.436,0.258-0.706,0.258
			c-0.279,0-0.673-0.119-0.954-0.69c-0.503-1.004-0.048-7.459,0.171-10.188c0.021-0.258,0.204-0.474,0.456-0.535l0.616-0.15
			l0.27-2.427c-0.672-0.424-1.87-1.223-2.22-1.748c-0.541-0.812-0.166-1.384,0.057-1.726c0.034-0.052,0.069-0.105,0.103-0.162
			c0.233-0.383,0.706-0.594,1.411-0.63l0.217-0.887c0.026-0.107,0.082-0.205,0.159-0.282c0.849-0.845,1.957-1.869,2.542-2.09
			c0.109-0.181,0.175-0.703,0.136-0.931c-0.201-0.186-0.626-0.536-0.874-0.735c-0.158-0.127-0.241-0.325-0.222-0.527l0.121-1.228
			c0.031-0.324,0.314-0.563,0.641-0.54l2.639,0.194c0.295,0.022,0.53,0.256,0.554,0.551c0.019,0.232,0.182,2.288,0.171,2.731
			c-0.003,0.075,0,0.177,0.003,0.3c0.014,0.581,0.031,1.296-0.165,1.827c0.1-0.089,0.182-0.17,0.236-0.231
			c-0.002-0.02-0.004-0.039-0.006-0.061c-0.06-0.595-0.082-1.075,0.192-1.394c0.132-0.153,0.315-0.243,0.516-0.253
			c0.47-0.021,1.4,0.47,1.638,1.078c0.139,0.357,0.052,0.728-0.233,0.989c-0.115,0.107-0.268,0.531-0.358,0.784
			c-0.161,0.445-0.304,0.841-0.622,1.015c-0.033,0.071-0.077,0.183-0.109,0.264c-0.147,0.378-0.315,0.806-0.694,1.019
			c-0.174,0.1-0.35,0.148-0.492,0.188c-0.053,0.015-0.129,0.035-0.17,0.052c-0.002,0.01-0.005,0.022-0.007,0.039
			c-0.064,0.447,0.071,1.523,0.316,2.191c0.015-0.018,0.03-0.036,0.047-0.056c0.205-0.241,0.394-0.741,0.531-1.107
			c0.231-0.617,0.415-1.104,0.946-1.104c0.48,0.011,0.914,0.416,1.851,1.331c0.33,0.329,0.645,0.468,1.056,0.468
			c0.131,0,0.274-0.014,0.439-0.041c0.365-0.059,0.896-0.128,1.372-0.128c0.302,0,1.212,0,1.486,0.659
			c0.177,0.247,1.059,0.817,1.481,0.896c0.244-0.301,0.251-0.359,0.166-0.712c-0.065-0.273-0.804-1.176-1.579-1.931
			c-0.044-0.043-0.081-0.092-0.11-0.146c-0.02-0.035-0.034-0.072-0.047-0.11c-0.016,0.001-0.031,0.001-0.047,0.001
			c-0.164,0.001-0.477-0.051-0.729-0.396c-0.322-0.455-1.279-2.011-1.387-2.788c-0.188-1.304,1.104-1.521,1.591-1.604
			c0.116-0.021,0.229-0.038,0.338-0.054c0.203-0.029,0.481-0.07,0.545-0.12c-0.002-0.001,0.02-0.042,0.026-0.161
			c0.028-0.465,0.277-0.788,0.504-1.012c-0.859-0.563-1.792-1.552-1.455-2.471c0.232-0.643,1.463-1.754,2.312-1.754
			c0.477,0,0.842,0.313,0.932,0.799l0.026,0.148c0.151,0.848,0.261,1.46,0.541,2.188c0.192,0.49,0.064,1.05-0.048,1.544
			c-0.006,0.025-0.012,0.054-0.019,0.082c0.614-0.234,0.62-0.269,0.677-0.64c0.021-0.14,0.046-0.303,0.086-0.496l0.047-0.235
			c0.199-1.001,0.404-2.036,1.511-2.307c0.313-0.076,0.609-0.087,0.858-0.087l0.102,0.001c-0.188-0.185-0.436-0.389-0.571-0.502
			c-0.159-0.131-0.289-0.238-0.392-0.338c-0.116,0.019-0.254,0.04-0.391,0.04c-0.42,0-0.64-0.195-0.75-0.358
			c-0.174-0.258-0.181-0.59-0.021-0.985c0.36-0.905,1.426-1.319,2.263-1.319c0.332,0,0.577,0.068,0.75,0.208
			c0.171,0.144,0.26,0.336,0.373,0.58c0.09,0.193,0.328,0.709,0.49,0.709c0.012,0,0.026-0.002,0.044-0.007
			c0.11-0.027,0.128-0.031,0.182-0.363c0.045-0.28,0.14-0.863,0.745-1.011c0.077-0.019,0.153-0.027,0.228-0.027
			c0.578,0,0.794,0.502,0.897,0.743c0.104,0.241,0.138,0.282,0.201,0.299c0.526,0.142,1.862,0.209,2.333,0.224
			c0.18,0.005,0.348,0.091,0.457,0.232c0.11,0.143,0.15,0.326,0.11,0.501c-0.001,0.005-0.141,0.645,0.019,1.28
			c0.194,0.808,1.113,2.301,1.644,2.301c0.026,0,0.052-0.005,0.08-0.016c1.065-0.433,1.3-0.778,1.359-1.266
			c0.118-0.867,0.812-1.146,1.182-1.267c0.056-0.215,0.073-0.357,0.055-0.422c-0.005-0.001-0.019-0.006-0.039-0.011
			c-0.865-0.229-2.841-1.043-2.925-1.077c-0.129-0.054-0.236-0.151-0.302-0.275c-0.25-0.476-0.786-1.659-0.354-2.373
			c0.122-0.204,0.428-0.564,1.141-0.475c1.183,0.149,2.105,0.723,2.407,1.213c0.005,0.008,0.01,0.017,0.015,0.025
			c0.041-0.497,0.265-1.549,1.046-1.984c0.209-0.146,0.489-0.989,0.528-1.376c-0.372-0.504-0.541-1.483-0.524-1.772
			c0.023-0.385,0.225-0.606,0.438-0.703c0.062-0.065,0.172-0.216,0.255-0.33c0.358-0.489,0.849-1.16,1.556-1.329
			c0.16-0.04,0.318-0.061,0.465-0.061c1.015,0,1.261,0.916,1.354,1.29c0.117,0.229,0.846,0.911,1.603,1.505
			c-0.016-0.298-0.051-0.618-0.104-0.921c-0.013-0.069-0.013-0.141,0-0.211c0.049-0.271,0.34-1.621,1.324-1.641
			c0.004,0,0.031,0,0.034,0c0.806,0,1.496,0.602,1.719,1.496c0.023,0.097,0.034,0.192,0.035,0.285
			c0.398-0.188,0.478-0.264,0.598-0.428c0.033-0.102-0.081-0.499-0.142-0.712c-0.032-0.111-0.063-0.22-0.088-0.323
			c-0.029-0.117-0.061-0.242-0.094-0.373c-0.118-0.464-0.252-0.989-0.353-1.542c-0.144-0.749-0.209-1.384,0.359-2.107
			c0.313-0.392,0.815-0.613,1.383-0.613c0.586,0,1.163,0.238,1.584,0.652c0.117,0.117,0.256,0.213,0.392,0.284
			c-0.041-0.061-0.082-0.119-0.117-0.172c-0.398-0.579-0.811-1.178-0.696-1.772c0.052-0.27,0.204-0.495,0.441-0.653
			c0.4-0.262,0.709-0.377,1.005-0.377c0.46,0,1.026,0.262,1.116,1.509c0.019,0.247,0.078,0.462,0.146,0.627
			c0.118-0.468,0.063-0.917-0.017-1.241l-0.072-0.293c-0.122-0.5-0.281-1.146-0.377-1.519c-0.195-0.86,0.683-1.846,1.368-2.099
			c0.161-0.059,0.339-0.088,0.53-0.088c0.436,0,1.01,0.163,1.316,0.623c0.217,0.324,0.246,0.72,0.082,1.113
			c-0.044,0.11-0.042,0.156-0.041,0.157c0.006,0.001,0.068,0.058,0.108,0.095c0.105,0.096,0.235,0.215,0.333,0.392
			c0.114,0.208,0.312,0.451,0.479,0.607c0.012-0.349,0.051-1.015,0.699-1.17c0.093-0.023,0.19-0.036,0.284-0.036
			c0.231,0,0.399,0.078,0.496,0.127c0.021-0.009,0.054-0.024,0.1-0.049c0.304-0.216,1.157-1.783,1.567-2.536
			c0.26-0.477,0.44-0.807,0.578-1.032c-0.213-0.235-0.442-0.653-0.244-1.36c0.166-0.603,0.262-0.851,0.61-1.05
			c0.041-0.023,0.109-0.063,0.282-0.3c0.299-0.414,0.479-0.551,0.695-0.637c0.035-0.041,0.116-0.147,0.277-0.41
			c0.644-1.066,1.305-2.002,1.333-2.041c0.006-0.009,0.012-0.018,0.019-0.025l0.417-0.527c-1.197-0.791-3.789-2.634-4.236-4.032
			c-0.449-1.394-3.053-5.03-4.301-6.178c-1.121-1.034-3.359-2.127-4.354-2.127c-0.104,0-0.162,0.014-0.188,0.021
			c-0.347,0.103-0.951,1.126-1.313,1.736c-0.568,0.963-1.019,1.724-1.639,1.875c-0.069,0.017-0.141,0.025-0.214,0.025
			c-1.241,0-5.215-3.473-5.485-4.548c-0.035-0.146-0.081-0.323-0.135-0.528c-0.383-1.475-0.744-2.989-0.589-3.881
			c0.116-0.657-0.016-1.659-0.101-2.135c-1.354-1.676-2.947-3.726-3.08-4.242c-0.15-0.635,0.426-1.151,0.982-1.649
			c0.142-0.127,0.339-0.305,0.444-0.421c-0.207-0.673-1.179-2.816-1.623-3.328c-1.339,0.106-8.168,0.501-10.486,0.501
			c-0.56,0-0.736-0.022-0.844-0.048c-1.19-0.271-2.39-2.727-2.561-3.9c-0.185-1.336-0.308-4.476-0.31-4.507
			c-0.009-0.197-0.39-0.606-0.553-0.781c-0.154-0.165-0.265-0.284-0.335-0.421c-0.131-0.243-0.086-0.501,0.005-1.016
			c0.095-0.539,0.254-1.442,0.044-1.929c-0.408-0.961-14.502-44.721-16.126-49.765c-1.555-0.049-3.798-0.284-4.286-1.213
			c-0.336-0.638-2.857-2.423-3.972-2.899c-0.326-0.14-0.993-0.515-1.918-1.033c-1.952-1.097-5.587-3.139-6.624-3.139
			c-1.018,0.089-2.578,1.146-3.323,1.718c0,0.584-0.025,1.499-0.168,1.878c-0.295,0.822-3.485,1.717-3.872,1.821
			c-0.103,0.072-0.332,0.338-0.519,0.554c-0.687,0.791-1.723,1.987-3.402,2.571c-2.174,0.757-5.748,4.304-5.784,4.339
			c-0.14,0.141-0.341,0.202-0.535,0.165c-1.605-0.304-5.87-1.111-6.276-2.058c-0.25-0.573-2.073-5.437-2.595-6.829l-4.183-0.28
			l-14.11,40.394c0.55,3.476,1.721,11.27,1.328,12.238c-0.021,0.053-2.194,5.488-3.166,6.479c-0.358,0.4-0.769,3.121-0.946,5.522
			c0.965,0.933,2.33,2.445,2.173,3.412c-0.135,0.805-1.126,3.077-1.486,3.885c0.379,0.771,1.28,2.633,1.473,3.261
			c0.059,0.043,0.175,0.107,0.265,0.157c0.553,0.308,1.582,0.879,1.578,2.519c-0.01,1.779-2.213,4.937-3.048,6.07
			c1.568,1.971,1.542,2.334,1.527,2.535c-0.063,0.831-4.938,5.972-6.032,6.791c-1.006,0.757-1.424,4.381-1.561,5.572
			c-0.03,0.264-0.055,0.475-0.075,0.612c0.08,0.262,0.735,0.913,1.174,1.349c0.906,0.901,1.845,1.833,1.898,2.742
			c0.1,1.701-2.235,1.928-3.63,2.063c-0.189,0.019-0.361,0.035-0.502,0.054c-0.293,0.038-1.184,0.154-1.429,0.512
			c-0.032,0.046-0.129,0.188-0.04,0.558c0.343,1.397,0.761,7.372,0.778,7.626s-0.127,0.491-0.36,0.592
			c-0.234,0.101-0.506,0.044-0.679-0.144c-1.743-1.887-3.933-4.005-4.604-4.319c-0.349,0.261-1.072,1.448-1.652,2.715l25.22,77.358
			c0.011,0.035,0.02,0.07,0.024,0.106l0.907,6.717c1.359,1.489,3.519,3.816,3.904,4.127c0.306,0.243,1.836,0.803,3.079,1.18
			c0.213,0.064,0.372,0.241,0.414,0.46l0.668,3.456c0.725,0.771,1.507,1.483,2.095,1.93c-0.179-0.309-0.284-0.638-0.11-0.974
			c0.157-0.305,0.472-0.459,0.936-0.459c0.061,0,0.127,0.002,0.199,0.007c1.456,0.105,1.548,1.27,1.586,1.766
			C114.737,249.964,114.741,250.011,114.745,250.057z M128.347,214.063c0.199,0.005,0.354-0.045,0.417-0.08
			c0.056-0.288,0.193-0.604,0.339-0.938c0.115-0.267,0.332-0.763,0.313-0.921c-0.081-0.337-0.034-0.794,0.02-1.323
			c0.03-0.292,0.079-0.77,0.052-0.941c-0.021-0.03-0.042-0.063-0.063-0.095c-0.19,0.472-0.402,1.104-0.399,1.541
			c0,0.159,0.002,0.3,0.004,0.427c0.012,0.65,0.023,1.267-0.576,1.588C128.381,213.471,128.335,213.826,128.347,214.063z
			 M134.269,213.484c0.242,0.016,0.41-0.13,0.504-0.25c0.141-0.18,0.188-0.391,0.161-0.498c-0.08-0.327-0.042-0.623-0.012-0.861
			c0.044-0.332,0.044-0.332-0.094-0.407c-0.486-0.263-0.902-0.973-1.213-1.674c-0.02,0.228-0.094,0.437-0.246,0.622
			c-0.086,0.105-0.183,0.195-0.281,0.271c0.237,0.155,0.519,0.334,0.626,0.367c0.563,0.179,0.536,0.787,0.508,1.374
			C134.21,212.691,134.183,213.283,134.269,213.484z M136.759,210.57c0.019,0.005,0.036,0.011,0.055,0.018
			c0.269-0.862,0.152-2.054,0.044-2.555c-0.112-0.104-0.487-0.239-0.652-0.299c-0.322-0.116-0.556-0.2-0.699-0.432
			c-0.01-0.015-0.032-0.043-0.063-0.082c0.053,0.259,0.113,0.523,0.16,0.723c0.398,0.142,0.798,0.366,0.94,0.719
			c0.087,0.215,0.073,0.452-0.037,0.657C136.451,209.574,136.593,210.345,136.759,210.57z M133.568,205.44
			c0.226,0.804,0.48,1.813,0.655,2.526c0.334,1.135,0.887,2.289,1.178,2.446c0.009,0.005,0.017,0.01,0.025,0.014
			c-0.108-0.418-0.166-0.912-0.101-1.3c-0.116-0.049-0.262-0.099-0.373-0.127c-0.216-0.054-0.383-0.223-0.437-0.438
			c-0.012-0.048-0.288-1.176-0.372-1.781c-0.042-0.292-0.387-0.968-0.571-1.331C133.571,205.446,133.569,205.443,133.568,205.44z
			 M138.898,203.866c-0.004,0.012-0.007,0.025-0.011,0.041l-0.043,0.187c-0.115,0.493-0.289,1.238-0.095,1.469
			c0.234,0.28,0.382,0.371,0.674,0.553c0.135,0.083,0.285,0.176,0.465,0.3c0.298,0.204,0.48,0.449,0.604,0.626
			c0.137-0.317,0.231-1.019,0.173-1.434c-0.022-0.161-0.35-0.757-1.133-1.669c-0.041-0.051-0.084-0.121-0.126-0.205
			c-0.188,0.11-0.384,0.124-0.499,0.132C138.904,203.866,138.901,203.866,138.898,203.866z M136.809,202.27
			c-0.09,0.102-0.202,0.274-0.204,0.509c-0.002,0.322-0.033,0.602-0.061,0.847c-0.034,0.301-0.061,0.538-0.019,0.705
			c0.024,0.062,0.112,0.171,0.237,0.303c0.063-0.313,0.09-0.57,0.064-0.672c-0.184-0.491-0.107-1.121-0.021-1.673
			C136.807,202.282,136.808,202.275,136.809,202.27z M137.97,202.616c-0.021,0.148-0.047,0.346-0.054,0.529
			c0.178-0.271,0.415-0.385,0.614-0.435c-0.021-0.038-0.045-0.071-0.066-0.096C138.299,202.605,138.095,202.607,137.97,202.616z
			 M130.712,201.313c0.013,0-0.121,0.111-0.191,0.57c-0.018,0.108-0.028,0.214-0.033,0.315c0.208-0.323,0.383-0.535,0.662-0.599
			c0.071-0.017,0.157-0.021,0.227-0.013c-0.075-0.354-0.078-0.688-0.075-0.834c0.001-0.019,0.002-0.038,0.004-0.057
			c-0.027,0.066-0.055,0.125-0.081,0.175C131.175,200.961,131.026,201.236,130.712,201.313L130.712,201.313z M140.477,198.992
			c-0.041,0.28-0.091,0.611-0.149,0.993c-0.103,0.682-0.209,1.388-0.23,1.623c-0.007,0.096,0.008,0.235,0.034,0.394
			c0.018-0.163,0.072-0.322,0.158-0.525l0.053-0.126C140.44,201.097,140.512,199.894,140.477,198.992z M137.235,198.518
			c-0.132,0.122-0.283,0.269-0.455,0.439c-0.095,0.101-0.368,0.555-0.952,2.616c0.144-0.185,0.299-0.321,0.421-0.402
			c0.098-0.065,0.214-0.101,0.332-0.101c0.135-0.001,0.475-0.062,0.501-0.201C137.168,200.431,137.222,199.333,137.235,198.518z
			 M131.729,197.955c-0.091,0.102-0.203,0.303-0.161,0.427c0.118,0.326,0.101,0.809,0.022,1.274
			c0.166-0.538,0.389-1.175,0.626-1.612C132.067,198.001,131.88,197.965,131.729,197.955z M169.139,172.387
			c-0.106,0.276-0.221,0.733-0.291,1.185c0.266-0.049,0.605-0.028,0.872-0.003c0.008,0.001,0.016,0.002,0.023,0.002
			C169.604,173.123,169.342,172.644,169.139,172.387z M169.155,165.801c-0.353,0.185-0.893,0.673-0.981,0.894
			c-0.001,0.172,0.495,0.8,1.217,1.194c0.071,0.038,0.23,0.123,0.362,0.272c-0.002-0.024-0.007-0.045-0.014-0.063
			C169.431,167.296,169.304,166.626,169.155,165.801z M183.062,162.649c0.332,0.135,1.003,0.403,1.614,0.627
			c-0.314-0.463-0.434-0.743-0.463-0.94c-0.171-0.162-0.674-0.482-1.438-0.588C182.796,161.957,182.912,162.321,183.062,162.649z
			 M199.056,149.219c0.03,0.086,0.095,0.204,0.17,0.327c-0.002-0.016-0.003-0.032-0.005-0.048c-0.012-0.161-0.029-0.271-0.046-0.346
			C199.142,149.169,199.103,149.19,199.056,149.219z"/>
	</g>
	<g>
		<path d="M175.987,178.186c-0.11,0-0.22-0.029-0.315-0.089c-0.32-0.197-3.137-1.941-3.667-2.369
			c-0.608-0.504-0.497-1.298-0.424-1.822c0.018-0.126,0.044-0.314,0.037-0.375c-0.061-0.482,0.109-1.395,0.322-2.448l0.018-0.089
			c0.121-0.605,0.456-1.062,0.725-1.429c0.111-0.15,0.215-0.293,0.277-0.409c0.013-0.068-0.098-0.291-0.188-0.397
			c-0.181-0.212-0.192-0.521-0.027-0.744c0.101-0.139,1.019-1.355,2.039-1.546c0.749-0.142,1.742,0.159,3.024,0.928
			c0.466,0.281,2.86,2.569,2.999,3.301c0.036,0.192-0.006,0.38-0.119,0.528c-0.027,0.038-0.083,0.127-0.16,0.249
			c-0.795,1.254-1.634,2.457-2.384,2.763c-0.072,0.029-0.144,0.054-0.214,0.071c0.013,0.062,0.016,0.125,0.011,0.192
			c-0.003,0.044,0,0.081,0.002,0.124c0.016,0.359,0.048,1.107-0.707,1.909c-0.146,0.155-0.143,0.203-0.13,0.36
			c0.036,0.46-0.048,0.932-0.907,1.254C176.13,178.174,176.058,178.186,175.987,178.186z M173.967,168.413
			c0.17,0.338,0.306,0.825,0.054,1.302c-0.103,0.195-0.238,0.381-0.37,0.56c-0.22,0.3-0.446,0.609-0.516,0.955l-0.019,0.089
			c-0.104,0.52-0.349,1.735-0.308,2.057c0.028,0.215-0.004,0.449-0.039,0.696c-0.025,0.18-0.092,0.655-0.005,0.728
			c0.314,0.254,1.92,1.271,3.135,2.027c-0.006-0.271,0.045-0.671,0.461-1.115c0.409-0.434,0.395-0.754,0.383-1.035
			c-0.001-0.023-0.002-0.048-0.003-0.071c-0.106-0.134-0.324-0.369-0.506-0.566c-1.044-1.135-1.722-1.93-1.63-2.604
			c0.034-0.254,0.172-0.469,0.39-0.604c0.196-0.124,0.412-0.188,0.639-0.188c0.976,0,1.75,1.196,1.847,1.849
			c0.056,0.405,0.114,0.58,0.16,0.653c0.014-0.004,0.03-0.01,0.052-0.019c0.227-0.092,0.728-0.565,1.822-2.293
			c0.006-0.01,0.012-0.019,0.018-0.027c-0.448-0.613-1.915-2.123-2.343-2.382c-1.089-0.652-1.704-0.789-2.027-0.789
			c-0.057,0-0.109,0.004-0.155,0.013C174.702,167.703,174.279,168.069,173.967,168.413z"/>
	</g>
	<g>
		<path d="M156.468,180.972L156.468,180.972c-0.22,0-0.418-0.11-0.546-0.301c-0.278-0.417-0.325-2.037-0.237-2.618
			c-0.003-0.078-0.039-0.324-0.068-0.522c-0.192-1.315-0.315-2.449,0.143-3.012c0.166-0.204,0.4-0.325,0.659-0.341l0.216-0.015
			c0.169-0.013,0.317-0.023,0.445-0.023c1.002,0,1.118,0.749,1.121,1.071c0.006,0.334-0.146,0.698-0.323,1.121
			c-0.105,0.253-0.296,0.707-0.299,0.9c0.613,0.502,0.806,1.579,0.822,2.151c0.018,0.567-0.104,0.949-0.369,1.167
			c-0.438,0.348-1.09,0.406-1.543,0.421C156.482,180.972,156.474,180.972,156.468,180.972z M156.854,178.289
			c-0.028,0.223-0.01,0.979,0.041,1.446c0.148-0.022,0.243-0.051,0.302-0.074c0.06-0.352-0.105-1.177-0.324-1.446
			C156.867,178.24,156.861,178.265,156.854,178.289z M155.724,177.888c-0.032,0.074-0.038,0.14-0.039,0.162
			C155.696,177.979,155.709,177.924,155.724,177.888z M156.666,175.363c-0.036,0.174-0.031,0.465-0.008,0.776
			c0.037-0.093,0.075-0.184,0.111-0.271c0.066-0.159,0.159-0.38,0.204-0.526c-0.076,0.004-0.16,0.01-0.251,0.017L156.666,175.363z"
			/>
	</g>
	<g>
		<path d="M165.295,184.168L165.295,184.168c-0.319,0-0.571-0.065-0.771-0.201c-0.63-0.431-1.5-1.908-1.346-2.847
			c0.108-0.698,0.563-0.938,0.963-1.037c-0.015-0.054-0.028-0.108-0.038-0.166c-0.025-0.124-0.052-0.248-0.078-0.364
			c-0.138-0.623-0.347-1.563,0.591-1.878c0.126-0.043,0.243-0.086,0.354-0.126c0.373-0.136,0.725-0.265,1.092-0.265
			c0.271,0,0.523,0.07,0.755,0.21c0.062,0.038,0.166,0.073,0.275,0.11c0.434,0.148,1.335,0.456,1.209,1.838
			c-0.092,0.957-0.809,1.425-1.225,1.682c0.019,0.086,0.024,0.176,0.016,0.27c0.54,0.137,0.764,0.456,0.853,0.655
			c0.167,0.371,0.102,0.824-0.169,1.185C167.433,183.711,166.084,184.168,165.295,184.168z M165.179,182.959
			c0.018,0.004,0.055,0.01,0.116,0.01c0.458,0,1.179-0.258,1.458-0.422c-0.028-0.006-0.063-0.011-0.103-0.014
			c-0.185-0.015-0.624-0.049-0.828-0.422c-0.171-0.311-0.047-0.599,0.031-0.748c-0.089-0.151-0.123-0.317-0.099-0.483
			c0.057-0.388,0.374-0.583,0.655-0.755c0.386-0.237,0.662-0.433,0.696-0.794c0.041-0.439-0.001-0.454-0.401-0.591
			c-0.158-0.054-0.338-0.115-0.51-0.22c-0.043-0.026-0.079-0.036-0.133-0.036c-0.154,0-0.398,0.089-0.681,0.191
			c-0.09,0.033-0.185,0.067-0.283,0.102c0.014,0.133,0.061,0.348,0.099,0.516c0.027,0.126,0.057,0.259,0.085,0.399
			c0.032,0.174,0.081,0.195,0.132,0.219c0.406,0.18,0.406,0.527,0.396,0.63c-0.041,0.439-0.438,0.532-0.588,0.567l-0.077,0.019
			c-0.162,0.04-0.319,0.06-0.458,0.078c-0.102,0.013-0.25,0.032-0.313,0.056c-0.003,0.01-0.007,0.026-0.011,0.049
			C164.301,181.689,164.841,182.7,165.179,182.959z"/>
	</g>
	<g>
		<path d="M159.055,188.447L159.055,188.447c-0.109,0-0.224-0.024-0.35-0.072c-0.625-0.243-0.853-0.675-0.934-0.995
			c-0.254-1.004,0.627-2.196,0.929-2.567c0.168-0.382,0.808-1.672,1.924-2.094c0.175-0.065,0.347-0.099,0.511-0.099
			c1.142,0,1.334,1.374,1.407,1.892c0.009,0.064,0.016,0.118,0.023,0.153c0.18,0.745-0.651,1.105-2.16,1.758
			c-0.176,0.076-0.354,0.152-0.528,0.229c-0.178,0.079-0.233,0.154-0.151,0.685c0.044,0.281,0.093,0.601-0.139,0.87
			C159.455,188.361,159.266,188.447,159.055,188.447z M161.119,183.821c-0.015,0.002-0.038,0.008-0.071,0.021
			c-0.641,0.241-1.146,1.195-1.273,1.511c-0.006,0.015-0.013,0.029-0.02,0.044c0.058-0.025,0.116-0.051,0.174-0.075
			c0.463-0.2,1.124-0.486,1.421-0.668C161.269,184.09,161.183,183.888,161.119,183.821z"/>
	</g>
	<g>
		<path d="M162.573,191.06L162.573,191.06c-0.219,0-0.423-0.063-0.604-0.186c-0.557-0.382-0.446-1.046-0.387-1.403
			c0.003-0.015,0.006-0.031,0.009-0.048c-0.092-0.009-0.193-0.017-0.293-0.024c-0.727-0.056-1.414-0.108-1.736-0.576
			c-0.146-0.213-0.184-0.471-0.107-0.729c0.022-0.077,0.047-0.165,0.071-0.255c0.181-0.673,0.428-1.594,1.215-1.594
			c0.078,0,0.157,0.012,0.234,0.032c0.253,0.072,0.396,0.258,0.597,0.513c0.163,0.209,0.545,0.699,0.775,0.699
			c0.016,0,0.03-0.003,0.048-0.009c0.367-0.128,0.497-0.27,0.603-0.384c0.108-0.117,0.309-0.335,0.645-0.335
			c0.076,0,0.154,0.013,0.231,0.036c0.526,0.159,1.163,1.324,1.232,2.044c0.054,0.554-0.165,1.003-0.6,1.232
			c-0.217,0.114-0.43,0.263-0.636,0.406C163.443,190.778,163.039,191.06,162.573,191.06z M162.663,188.65
			c0.215,0.346,0.136,0.82,0.103,1.019c-0.006,0.033-0.012,0.073-0.019,0.114c0.136-0.077,0.308-0.197,0.437-0.287
			c0.217-0.151,0.462-0.321,0.731-0.467c0.025-0.174-0.14-0.564-0.313-0.854c-0.178,0.145-0.434,0.306-0.814,0.438
			C162.747,188.628,162.705,188.641,162.663,188.65z M160.689,188.127c0.153,0.027,0.352,0.047,0.521,0.061
			c-0.156-0.142-0.294-0.297-0.411-0.44C160.757,187.88,160.719,188.021,160.689,188.127z"/>
	</g>
	<g>
		<path d="M168.282,190.375L168.282,190.375c-0.157,0-0.323-0.01-0.484-0.02l-0.038-0.003c-1.062-0.063-1.627-1.576-1.713-2.12
			c-0.133-0.829,1.456-2.858,2.012-2.953c0.06-0.01,0.112-0.014,0.162-0.014c0.881,0,0.892,0.957,0.897,1.471
			c0.003,0.287,0.007,0.613,0.077,0.848c0.254,0.834,0.299,1.014,0.395,1.6c0.063,0.397-0.077,0.658-0.205,0.807
			C169.093,190.331,168.643,190.375,168.282,190.375z M167.24,188.089c0.086,0.437,0.433,1.015,0.604,1.068h0.026
			c0.137,0.009,0.278,0.018,0.411,0.018l0,0c0.033,0,0.063,0,0.089-0.002c-0.065-0.374-0.117-0.561-0.325-1.243
			c-0.092-0.311-0.116-0.642-0.124-0.938C167.612,187.396,167.292,187.877,167.24,188.089z"/>
	</g>
	<g>
		<path d="M174.383,182.616c-0.417,0-0.701-0.218-0.849-0.647c-0.107,0.037-0.221,0.082-0.32,0.122
			c-0.233,0.094-0.418,0.167-0.61,0.167c-0.24,0-0.454-0.118-0.572-0.316c-0.207-0.315-0.474-1.151,0.09-1.907
			c0.277-0.365,0.602-0.441,0.825-0.441c0.104,0,0.203,0.017,0.296,0.044c-0.081-0.165-0.122-0.344-0.092-0.542
			c0.039-0.255,0.196-0.473,0.443-0.614c0.128-0.073,0.276-0.11,0.441-0.11c0.593,0,1.508,0.548,1.957,1.172
			c0.38,0.527,0.349,0.969,0.256,1.245c-0.456,1.397-1.197,1.762-1.737,1.821C174.469,182.613,174.425,182.616,174.383,182.616z
			 M174.573,181.251c0.008,0.021,0.016,0.041,0.022,0.063c0.04-0.031,0.078-0.07,0.117-0.115
			C174.67,181.218,174.624,181.236,174.573,181.251z"/>
	</g>
</g>
</svg>
