<?xml version="1.0" encoding="iso-8859-1"?>
<!-- Generator: Adobe Illustrator 15.1.0, SVG Export Plug-In . SVG Version: 6.00 Build 0)  -->
<!DOCTYPE svg PUBLIC "-//W3C//DTD SVG 1.1//EN" "http://www.w3.org/Graphics/SVG/1.1/DTD/svg11.dtd">
<svg version="1.1" id="Layer_1" xmlns="http://www.w3.org/2000/svg" xmlns:xlink="http://www.w3.org/1999/xlink" x="0px" y="0px"
	 width="288px" height="288px" viewBox="0 0 288 288" style="enable-background:new 0 0 288 288;" xml:space="preserve">
<g>
	<path d="M226.397,202.237c-0.46,0-1.314,0-1.525-0.646c-0.148-0.453,0.118-0.819,0.568-1.202c-0.011-0.001-0.021-0.002-0.032-0.003
		c-0.386-0.043-0.676-0.193-0.864-0.447c-0.344-0.463-0.23-1.073-0.074-1.918c0.107-0.58,0.24-1.303,0.282-2.188
		c0.021-0.442,0.101-0.777,0.216-1.028c-0.419-0.173-0.565-0.642-0.651-0.918c-0.038-0.121-0.077-0.247-0.129-0.368
		c-0.367-0.854,0.417-1.94,1.248-3.091c0.354-0.49,0.72-0.997,0.827-1.285c0.311-0.824,1.012-0.877,1.575-0.919
		c0.587-0.043,1.318-0.098,2.358-0.734c0.033-0.02,0.063-0.039,0.092-0.058c-0.288-0.034-0.734-0.062-1.426-0.062l-0.686,0.003
		c-1.093,0-3.312,0.688-4.48,1.389c-0.313,0.188-0.591,0.431-0.859,0.665c-0.482,0.423-0.938,0.822-1.537,0.822
		c-0.427,0-0.814-0.203-1.185-0.619c-0.87-0.979-0.528-1.705-0.278-2.235c0.134-0.285,0.25-0.53,0.25-0.866
		c0-0.919,0.53-1.385,1.577-1.385c0.205,0,0.438,0.014,0.7,0.028c0.454,0.025,0.991,0.057,1.601,0.021
		c1.211-0.07,1.298-0.513,1.488-1.483c0.051-0.256,0.103-0.52,0.184-0.791l0.044-0.144c0.188-0.616,0.399-1.315,0.198-1.652
		c-0.106-0.179-0.364-0.311-0.767-0.391c-0.23-0.047-0.433-0.069-0.6-0.069c-0.427,0-0.477,0.101-0.623,0.4
		c-0.072,0.147-0.153,0.313-0.29,0.461c-0.052,0.093-0.136,0.377-0.191,0.568c-0.224,0.76-0.502,1.705-1.336,1.705
		c-0.214,0-0.427-0.074-0.63-0.219c-0.946-0.674-1.009-2.453-0.99-4.373c0.001-0.148,0.002-0.287,0.002-0.412
		c0-0.808,0.548-1.453,1.077-2.077c0.465-0.548,0.944-1.113,1.01-1.735c-0.189,0.091-0.428,0.223-0.624,0.33
		c-0.482,0.267-1.084,0.599-1.757,0.851c-1.524,0.572-1.31,2.993-0.983,4.194l0.011,0.038c0.479,1.756,0.803,3.155,0.255,3.873
		c-0.2,0.262-0.5,0.407-0.845,0.407c-1.452,0-3.012-3.081-3.615-4.405c-0.544-1.196,0.434-2.106,1.219-2.838
		c0.423-0.395,0.861-0.803,0.964-1.144c0.041-0.137,0.015-0.21-0.041-0.284c-0.271-0.365-1.262-0.661-2.208-0.661
		c-0.188,0.107-0.389,0.991-0.508,1.519c-0.239,1.058-0.51,2.256-1.261,3.075c-0.242,0.264-0.248,0.375-0.248,0.375
		c0.019,0.131,0.48,0.472,0.786,0.696c0.592,0.437,1.402,1.034,2.085,1.978c1.412,1.955,1.424,3.266,1.357,3.758
		c0.148,0.538,0.542,2.251-0.092,3.392c-0.35,0.629-0.95,0.948-1.784,0.948c-0.56,0-1.145-0.139-1.709-0.272
		c-0.202-0.048-0.4-0.095-0.589-0.132c-0.154-0.031-0.62-0.125-0.795-0.552c-0.181-0.44,0.08-0.826,0.356-1.235
		c0.374-0.554,0.939-1.391,0.939-2.729c0-1.623-0.284-1.819-0.851-2.209c-0.312-0.216-0.7-0.483-1.101-0.974
		c-0.769-0.939-1.559-1.01-2.677-1.01l-0.664,0.003c-0.515,0-0.891-0.127-1.151-0.389c-0.382-0.383-0.38-0.912-0.378-1.379
		c0.001-0.356,0.002-0.724-0.135-1.066c-0.313-0.785-2.129-1.969-3.162-2.491c0.008,0.208,0.024,0.443,0.037,0.631
		c0.069,1.006,0.136,1.956-0.315,2.438c-0.174,0.188-0.411,0.29-0.668,0.29c-0.946,0-1.28-0.732-1.604-1.441
		c-0.219-0.48-0.468-1.026-0.944-1.597c-0.236-0.284-0.445-0.545-0.641-0.789c-0.813-1.016-1.35-1.687-2.661-2.529
		c-1.067-0.687-1.137-1.358-1.007-1.803c0.256-0.87,1.442-1.267,2.437-1.267c1.074,0,1.551,0.881,1.866,1.465
		c0.035,0.064,0.077,0.143,0.12,0.216c0.028-0.224,0.032-0.534,0.036-0.749c0.013-0.861,0.032-2.164,1.176-2.394
		c0.558-0.111,0.984-0.521,1.524-1.039c0.405-0.389,0.865-0.83,1.464-1.212c0.011-0.007,0.021-0.014,0.029-0.02
		c-0.131-0.242-0.699-0.712-1.05-1.003c-0.668-0.553-1.359-1.125-1.659-1.784c-0.257-0.564-0.261-1.046-0.012-1.433
		c0.492-0.766,1.713-0.766,3.26-0.766c0.921,0,1.779,0.446,2.536,0.84c0.634,0.328,1.231,0.64,1.736,0.64
		c0.208,0,0.389-0.052,0.569-0.163c0.254-0.156,0.374-0.271,0.428-0.334c-0.113-0.096-0.452-0.309-1.378-0.537
		c-0.762-0.188-1.271-0.634-1.723-1.026c-0.565-0.494-1.055-0.921-2.047-0.921c-1.155,0-1.689-0.063-2.008-0.45
		c-0.287-0.349-0.208-0.754-0.138-1.112c0.026-0.134,0.057-0.286,0.076-0.454c0.073-0.663,0.515-1.134,0.904-1.549
		c0.465-0.495,0.865-0.923,0.813-1.657c-0.009-0.135-0.039-0.193-0.05-0.204c-0.006-0.004-0.041-0.017-0.113-0.017
		c-0.623,0-1.922,0.804-2.725,1.687c-0.555,0.611-0.687,0.756-1.011,0.756c-0.164,0-0.339-0.074-0.452-0.193
		c-0.199-0.208-0.188-0.456-0.179-0.655c0.014-0.293,0.035-0.783-0.371-1.28c-0.165-0.201-0.285-0.201-0.336-0.201
		c-0.533,0-1.536,1.039-2.235,2.317c-0.093,0.171-0.185,0.35-0.277,0.529c-0.57,1.109-1.217,2.367-2.487,2.367
		c-0.264,0-0.538-0.059-0.816-0.175c-1.427-0.594-1.291-1.948-1.172-3.143c0.051-0.504,0.104-1.025,0.068-1.545
		c-0.101-1.484,0.378-3.134,0.884-4.879c0.163-0.564,0.332-1.147,0.484-1.734c0.237-0.918,0.659-1.384,1.254-1.384
		c0.824,0,1.471,0.992,2.096,1.952c0.152,0.233,0.296,0.454,0.413,0.609c0.527,0.706,1.333,1.556,1.705,1.94
		c0.703-0.098,2.578-0.439,3.53-1.391c0.426-0.426,0.504-0.754,0.441-0.904c-0.052-0.124-0.188-0.16-0.263-0.126
		c-0.445,0.199-1.961,0.845-2.873,0.845c-0.113,0-0.22-0.01-0.315-0.029c-0.247-0.05-0.592-0.219-0.833-0.741
		c-0.337-0.73-0.389-2.061,0.181-3.085c0.704-1.266,1.584-1.388,3.709-1.684l0.66-0.093c0.2-0.028,0.337-0.061,0.428-0.089
		c-0.187-0.231-0.585-0.582-0.846-0.811c-0.451-0.397-0.919-0.808-1.216-1.231c-0.106-0.153-0.181-0.23-0.223-0.269
		c-0.1,0.062-0.269,0.206-0.397,0.317c-0.293,0.252-0.657,0.565-1.163,0.861c-0.397,0.232-0.703,0.479-0.949,0.677
		c-0.368,0.297-0.659,0.531-1.041,0.531c-0.704,0-0.956-0.761-1.092-1.17c-0.479-1.43-0.479-1.43-1.521-1.43
		c-1.114,0-1.708,0.472-2.54,2.018c-0.24,0.445-0.19,0.991-0.133,1.624c0.103,1.119,0.242,2.653-1.699,3.735
		c-0.387,0.215-0.666,0.382-0.865,0.5c-0.377,0.226-0.519,0.31-0.734,0.31c-0.192,0-0.395-0.102-0.508-0.257
		c-0.197-0.272-0.105-0.553-0.039-0.758c0.113-0.344,0.348-1.061,0.046-2.218c-0.745-2.853-0.876-4.359-1.002-6.501
		c-0.143-2.443,0.934-4.404,2.503-4.562c0.101-0.01,0.192-0.015,0.277-0.015c1.221,0,1.4,0.944,1.531,1.633
		c0.047,0.245,0.095,0.499,0.177,0.772c0.044,0.147,0.138,0.457,1.202,0.457c0.407,0,0.878-0.045,1.332-0.088
		c0.219-0.021,0.438-0.042,0.652-0.059l0.157-0.012c1.433-0.11,1.915-0.147,2.822-1.559c0.48-0.747,0.521-1.246,0.479-1.39
		c-0.065-0.004-0.315,0.005-0.868,0.373l-0.209,0.14c-0.795,0.531-1.232,0.825-1.722,0.825c-0.848,0-1.179-0.787-1.779-2.215
		c-0.494-1.172-0.558-1.835-0.604-2.32c-0.046-0.469-0.059-0.61-0.496-1.049c-0.162-0.161-0.311-0.296-0.447-0.42
		c-0.938-0.85-1.367-1.352-1.691-4.359c-0.182-1.704-0.231-2.541,0.636-2.745c0.024-0.054,0.066-0.167,0.109-0.384
		c0.142-0.7,0.319-1.087,0.463-1.397c0.205-0.445,0.354-0.769,0.302-2.143c-0.005-0.081-0.009-0.174-0.013-0.27
		c-0.005-0.136-0.011-0.277-0.024-0.443c-0.189-2.577,0.254-3.266,0.766-3.795c0.076-0.079,0.12-0.125,0.135-0.161l0.033-0.083
		c0.271-0.679,0.836-2.09,2.609-3.482c0.9-0.706,2.311-1.095,3.971-1.095c1.322,0,2.641,0.245,3.528,0.655
		c0.197,0.091,0.384,0.135,0.572,0.135c0.554,0,1.112-0.398,1.704-0.82c0.288-0.206,0.582-0.416,0.896-0.596
		c-0.685-0.3-2.03-0.645-2.811-0.645c-0.379,0-0.807,0.171-1.302,0.368c-0.675,0.27-1.439,0.574-2.38,0.574
		c-0.47,0-0.946-0.08-1.418-0.236c-0.285-0.096-1.041-0.348-1.152-0.994c-0.117-0.678,0.486-1.149,1.321-1.803
		c0.676-0.527,1.518-1.186,2.102-2.04c0.662-0.967,1.293-1.397,2.046-1.397c0.481,0,0.93,0.183,1.403,0.376
		c0.548,0.223,1.168,0.475,1.988,0.514c0.208,0.01,0.396,0.015,0.568,0.015c0.36,0,0.595-0.022,0.744-0.047
		c-0.094-0.114-0.251-0.281-0.515-0.519c-0.387-0.348-0.914-0.593-1.38-0.811c-0.668-0.311-1.244-0.58-1.271-1.179
		c-0.027-0.588,0.563-0.933,0.786-1.063c0.815-0.475,0.452-1.602-0.121-2.788c-0.473,0.407-1.294,1.688-1.448,2.24
		c-0.256,0.954-2.974,4.152-4.461,4.152c-0.137,0-0.266-0.022-0.386-0.067c-0.386-0.145-0.556-0.402-0.631-0.593
		c-0.223-0.568,0.084-1.184,0.509-2.035c0.313-0.629,0.67-1.342,0.854-2.124c0.233-0.992-0.077-1.619-0.329-1.892
		c-0.353,0.641-1.16,1.833-3.607,3.058c-0.857,0.428-1.268,1.147-1.223,2.138c0.057,1.208,0.779,2.276,1.058,2.384
		c0.386,0.046,0.689,0.321,0.784,0.732c0.289,1.251-1.465,3.657-3.753,5.148c-1.896,1.236-2.007,1.449-2.136,1.696
		c-0.078,0.149-0.186,0.354-0.438,0.647c-0.143,0.166-0.294,0.404-0.47,0.68c-0.632,0.994-1.588,2.497-3.941,3.417
		c-0.848,0.332-1.429,0.681-1.777,1.067c-0.354,0.394-0.455,0.825-0.583,1.372c-0.062,0.264-0.131,0.563-0.236,0.876
		c-0.173,0.517-0.303,1.126-0.429,1.717c-0.229,1.071-0.466,2.181-0.993,2.969c-0.237,0.357-0.64,0.833-1.378,0.833
		c-0.657,0-1.392-0.369-2.725-1.04c-0.34-0.171-0.718-0.361-1.143-0.569c-0.436-0.214-0.674-0.267-0.785-0.278
		c-0.037,0.427,0.42,1.596,0.624,2.116c0.136,0.348,0.254,0.648,0.325,0.89c0.191,0.635,0.412,0.737,0.865,0.737
		c0.275,0,0.634-0.054,1.128-0.167c0.131-0.03,0.272-0.046,0.42-0.046c2.027,0,5.45,3.074,5.592,4.628
		c0.04,0.442-0.087,0.839-0.366,1.145c-0.431,0.472-1.177,0.701-2.281,0.701c-0.616,0-1.348-0.075-2.114-0.219
		c-0.724-0.136-0.929,0.093-0.973,1.626c-0.007,0.246-0.014,0.478-0.039,0.683c-0.039,0.31,1.188,0.97,1.712,1.252
		c0.398,0.214,0.773,0.416,1.096,0.632c1.211,0.806,0.322,2.151-0.462,3.34c-0.391,0.592-0.795,1.204-1.033,1.801
		c-0.08,0.198-0.078,0.303-0.064,0.334c0.059,0.128,0.504,0.286,0.798,0.391c0.742,0.264,1.757,0.624,1.999,1.75
		c0.159,0.747,0.5,1.561,0.829,2.347c0.418,0.997,0.778,1.857,0.778,2.568c0,0.663-0.476,1.32-1.025,2.08
		c-0.643,0.887-1.37,1.892-1.433,2.989c-0.028,0.52,0.107,0.663,1.177,0.757c0.537,0.048,1.092,0.096,1.361,0.559
		c0.163,0.279,0.159,0.61-0.01,0.983c-0.382,1.156,2.788,12.432,5.158,14.801c1.005,1.005,2.19,1.655,3.237,2.228
		c1.508,0.826,2.81,1.539,3.067,3.004c0.246,1.39-0.083,2.827-0.858,3.751c-0.477,0.568-1.08,0.882-1.697,0.882
		c-1.218,0-1.637-1.059-1.914-1.76c-0.124-0.314-0.241-0.611-0.389-0.787c-0.492-0.591-1.312-0.904-2.658-1.017
		c-0.988-0.081-1.729-0.611-2.324-1.037c-0.377-0.271-0.732-0.525-1.013-0.56c-0.588-0.074-1.003-0.436-1.405-0.784
		c-0.464-0.404-0.902-0.785-1.648-0.808c0.181,0.622,1.331,2.158,2.567,3.396c0.461,0.462,1.078,0.504,2.048,0.535
		c0.87,0.028,1.858,0.061,2.845,0.588c1.129,0.603,1.23,1.277,1.108,1.81c0.658,0.148,1.037,0.619,1.348,1.005
		c0.389,0.483,0.612,0.719,1.143,0.676c1.211-0.093,3.258-1.046,3.944-1.406c0.204-0.106,0.451-0.087,0.636,0.05
		c0.186,0.138,0.275,0.368,0.232,0.595c-0.193,1.013-0.401,2.663-0.259,3.16c0.212,0.741,0.519,1.513,1.917,2.793
		c1.427,1.309,2.097,3.306,2.233,3.754c0.034,0.076,0.054,0.16,0.054,0.249c0,0.331-0.269,0.6-0.601,0.6c-0.002,0-0.004,0-0.006,0
		c-0.049,0-0.098-0.006-0.146-0.018c-0.073-0.019-0.138-0.028-0.191-0.028c-0.082,0-0.086,0.01-0.104,0.052
		c-0.116,0.281,0.047,0.977,0.373,1.302c0.474,0.476,1.401,0.657,1.72,0.688c0.253,0.023,0.465,0.205,0.526,0.452
		c0.282,1.128,0.671,3.128,0.112,3.843c-0.172,0.221-0.419,0.342-0.694,0.342c-0.49,0-1.999-0.765-6.399-4.409
		c-0.131-0.107-0.209-0.266-0.217-0.435c-0.001-0.026-0.125-2.631-0.684-3.856c-0.313-0.692-0.535-0.968-0.645-1.073
		c-0.05,0.069-0.125,0.198-0.212,0.425c-0.24,0.624-0.053,1.47,0.113,2.217c0.212,0.952,0.431,1.938-0.324,2.478
		c-0.359,0.255-0.819,0.384-1.37,0.384c-0.829,0-1.619-0.299-1.652-0.313c-0.249-0.095-0.405-0.344-0.384-0.609
		c0.003-0.041,0.054-1.182-1.24-2.178c-1.374-1.058-3.026-1.594-4.914-1.594c-0.461,0-0.912,0.024-1.31,0.046
		c-0.328,0.018-0.61,0.032-0.853,0.032c-0.308,0-0.948,0-1.146-0.526c-0.196-0.521,0.279-0.938,0.458-1.094
		c1.045-0.915,1.748-1.897,1.75-2.444c0.001-0.141-0.046-0.242-0.156-0.34c-0.085-0.075-0.133-0.091-0.142-0.091
		c-0.115,0-0.435,0.314-0.625,0.502c-0.495,0.486-1.109,1.091-2.027,1.091c-0.738,0-1.111-0.374-1.304-0.786
		c-0.215,0.863-0.389,2.255-0.43,3.643c-0.008,0.249-0.168,0.467-0.402,0.549s-0.495,0.011-0.656-0.18c0,0-1.352-1.6-1.966-2.338
		c-0.656-0.783-3.64-5.149-4.39-6.9c-0.052-0.122-0.161-0.329-0.301-0.329c-0.131,0-0.371,0.126-0.586,0.401
		c-0.274,0.353-0.397,0.801-0.312,1.144c0.248,0.994,0.802,1.246,1.443,1.539c0.113,0.052,0.224,0.103,0.329,0.155
		c0.758,0.379,1.364,1.854,1.587,2.753c0.243,0.98,0.196,1.717-0.139,2.186c-0.224,0.313-0.598,0.729-1.266,0.729
		c-0.336,0-0.673-0.102-1.1-0.229c-0.274-0.083-0.585-0.177-0.96-0.264c-1.922-0.442-3.626-3.581-3.879-4.474
		c-0.2-0.697-2.034-3.392-3.442-5.056c-0.536-0.634-0.82-1.3-0.963-1.901l-0.412,0.62c-1.395,2.09-5.088,6.99-6.985,7.938
		c-0.345,0.173-0.653,0.257-0.942,0.257c-0.889,0-1.287-0.724-1.673-1.423c-0.293-0.532-0.625-1.136-1.217-1.601
		c-1.746-1.372-1.618-4.869-1.204-7.561c0.188-1.224,1.232-2.319,2.554-3.705c0.657-0.688,1.401-1.469,2.116-2.353
		c1.838-2.27,1.752-3.466,1.751-3.479c-0.009-0.058-0.007-0.099,0.001-0.157c0.144-1.017,0.476-2.403,0.796-3.745
		c0.41-1.718,0.834-3.494,0.834-4.356c0-1.205-2.008-8.584-6.967-8.897c-1.035-0.064-1.836-0.078-2.479-0.089
		c-2.77-0.045-2.944-0.265-4.382-3.149l-0.183-0.365c-1.315-2.63-5.231-2.811-9.019-2.984c-1.326-0.062-2.698-0.124-3.954-0.292
		c-1.265-0.168-2.044-0.573-2.382-1.237c-0.513-1.005,0.138-2.206,0.826-3.478c0.592-1.093,1.262-2.331,1.05-3.277
		c-0.501-2.26-4.82-3.51-7.615-3.51c-0.321,0-0.624,0.017-0.897,0.047c-0.146,0.016-0.306,0.024-0.477,0.024
		c-1.184,0-3.035-0.373-5.658-1.139c-0.256-0.074-0.432-0.31-0.432-0.576c0-0.042,0.002-0.091,0.003-0.139
		c0.002-0.028,0.003-0.057,0.003-0.079c0-0.727-0.271-1.795-0.744-2.933c-0.924-2.225-2.128-3.59-2.585-3.59
		c-1.342,0-4.609-1.925-6.112-3.893c-0.816-1.07-1.104-2.081-0.851-3.005c0.151-0.557,0.161-0.959,0.028-1.134
		c-0.14-0.182-0.551-0.274-1.221-0.274c-0.534,0-1.168,0.056-1.902,0.12c-0.304,0.026-0.62,0.054-0.947,0.079
		c-1.821,0.144-3.858-1.129-5.813-2.355c-1.451-0.91-2.951-1.852-3.937-1.852c-0.088,0-0.171,0.008-0.247,0.023
		c-1.12,0.224-2.152,1.909-2.982,3.263c-0.849,1.387-1.52,2.481-2.438,2.635l-0.294,0.048c-1.372,0.222-4.586,0.74-5.148,2.052
		c-0.193,0.451-0.225,1.083-0.258,1.753c-0.073,1.5-0.174,3.555-2.701,3.766c-1.146,0.095-2.913,0.349-4.622,0.595
		c-2.385,0.343-4.638,0.667-5.775,0.667c-0.238,0-0.427-0.014-0.574-0.044c-0.75-0.149-1.537-0.908-2.37-1.711
		c-0.566-0.546-1.403-1.353-1.844-1.458c-0.651,0.541-2.413,3.999-3.591,6.313c-2.608,5.12-3.149,5.955-3.865,5.955
		c-0.54,0-1.438-0.313-2.855-0.822c-1.111-0.399-2.494-0.896-3.038-0.896c-0.689,0-2.723,2.224-4.119,5.296
		c-0.535,1.177-1.257,2.273-1.894,3.242c-0.831,1.264-1.617,2.458-1.742,3.458c-0.168,1.354-1.151,1.896-2.101,2.419
		c-0.769,0.424-1.563,0.862-2.17,1.771c-1.488,2.233-4.845,5.597-4.987,5.739c-0.159,0.159-0.396,0.216-0.609,0.146
		c-0.215-0.07-0.372-0.255-0.407-0.478l-5.402-34.625c-0.05-0.318,0.161-0.619,0.477-0.682l179.977-35.609
		c0.303-0.058,0.604,0.122,0.692,0.419l11.035,37.458l12.321,41.832l30.747-5.914c0.178-0.033,0.358,0.013,0.496,0.126
		c0.138,0.114,0.218,0.284,0.218,0.463c0,0.102-0.022,1.04-0.792,2.707c-0.463,1.002-1.215,1.137-1.891,1.137
		c-0.248,0-0.521-0.021-0.812-0.041c-0.361-0.027-0.771-0.057-1.234-0.057c-0.495,0-0.982,0.035-1.474,0.106
		c0.35,0.152,0.687,0.354,0.975,0.619c0.676,0.623,1.272,0.716,1.568,0.716c0.033,0,0.059-0.001,0.074-0.002
		c0.01,0,0.042-0.001,0.052-0.001c0.297,0,0.556,0.218,0.6,0.512s-0.172,0.589-0.456,0.676c-0.064,0.02-0.235,0.071-0.54,0.199
		c-0.395,0.164-0.534,0.279-0.579,0.325c0.046,0.14,0.28,0.449,0.454,0.68l0.128,0.168c0.05,0.066,0.219,0.105,0.453,0.105
		c0.408,0,0.942-0.112,1.459-0.223c0.551-0.116,1.07-0.227,1.52-0.227c0.328,0,0.592,0.061,0.808,0.184
		c0.243,0.14,0.406,0.354,0.473,0.622c0.172,0.702-0.369,1.548-1.188,2.828c-0.463,0.724-0.987,1.544-1.375,2.362
		c-0.112,0.236-0.211,0.443-0.3,0.628c-0.651,1.36-0.651,1.36-0.719,2.747l-0.029,0.574c-0.028,0.538-0.088,1.659-0.908,1.659l0,0
		c-1.259-0.001-1.273-3.134-1.273-3.165c0-0.438-0.063-0.624-0.094-0.689c-0.353,0.037-1.145,0.612-1.41,0.806
		c-0.421,0.307-0.421,0.307-0.195,0.874c0.187,0.469,0.442,1.11,0.442,2.078c0,1.506-0.105,5.09-1.082,5.873
		c-0.529,0.422-1.929,2.046-2.257,3.142c-0.273,0.912-0.077,3.598,0.022,4.556c0.029,0.288-0.151,0.557-0.43,0.638l-15.15,4.396
		c-0.533,0.324-4.067,2.476-5.179,3.254c-0.281,0.197-0.433,0.383-0.592,0.58c-0.578,0.715-1.113,1.155-3.66,1.247
		C226.606,202.235,226.498,202.237,226.397,202.237z M227.466,198.212c0.141,0,0.616,0.049,0.797,0.676
		c0.211,0.744-0.59,1.331-1.438,1.953c-0.08,0.059-0.171,0.126-0.264,0.194c0.039-0.001,0.079-0.002,0.121-0.004
		c2.185-0.078,2.431-0.382,2.771-0.802c0.186-0.229,0.417-0.515,0.837-0.809c1.229-0.86,5.146-3.236,5.312-3.337
		c0.045-0.027,0.094-0.049,0.145-0.063l14.75-4.281c-0.092-1.07-0.249-3.466,0.068-4.524c0.411-1.371,1.971-3.186,2.656-3.733
		c0.26-0.271,0.632-2.144,0.632-4.936c0-0.737-0.189-1.213-0.357-1.634c-0.268-0.672-0.57-1.433,0.604-2.289
		c0.881-0.64,1.547-1.037,2.142-1.037c0.405,0,1.046,0.181,1.223,1.264c0.101-0.457,0.29-0.864,0.693-1.706
		c0.088-0.183,0.187-0.389,0.297-0.623c0.421-0.887,0.967-1.741,1.449-2.495c0.388-0.605,0.9-1.408,1.009-1.783
		c-0.025-0.003-0.056-0.004-0.091-0.004c-0.323,0-0.806,0.103-1.271,0.201c-0.578,0.122-1.175,0.248-1.708,0.248
		c-0.646,0-1.122-0.196-1.413-0.585l-0.124-0.165c-0.447-0.59-0.833-1.099-0.667-1.714c0.071-0.263,0.233-0.472,0.438-0.643
		c-0.258-0.146-0.528-0.338-0.801-0.59c-0.655-0.604-1.861-0.745-2.44-0.813c-0.401-0.047-0.901-0.105-0.932-0.642
		c-0.031-0.561,0.165-0.606,2.046-1.045c0.889-0.208,1.752-0.309,2.639-0.309c0.508,0,0.94,0.031,1.322,0.06
		c0.278,0.021,0.52,0.038,0.724,0.038c0.486,0,0.636-0.082,0.802-0.439c0.277-0.602,0.442-1.089,0.539-1.45l-30.427,5.853
		c-0.305,0.058-0.602-0.123-0.689-0.42l-12.476-42.354l-10.88-36.932L26.627,121.929l5.129,32.869
		c1.103-1.151,3.021-3.226,4.005-4.701c0.769-1.152,1.777-1.709,2.588-2.156c0.918-0.506,1.401-0.804,1.49-1.516
		c0.159-1.278,1.02-2.586,1.93-3.971c0.644-0.977,1.308-1.987,1.805-3.079c1.132-2.49,3.497-5.999,5.211-5.999
		c0.753,0,2.061,0.47,3.443,0.967c0.834,0.3,1.851,0.665,2.312,0.739c0.526-0.558,1.91-3.275,2.935-5.287
		c2.798-5.492,3.682-6.979,4.571-6.979c0.892,0,1.802,0.877,2.766,1.807c0.608,0.586,1.366,1.316,1.772,1.397
		c0.031,0.007,0.126,0.021,0.339,0.021c1.052,0,3.366-0.332,5.604-0.654c1.806-0.26,3.512-0.505,4.694-0.603
		c1.413-0.118,1.521-0.982,1.602-2.63c0.037-0.745,0.074-1.517,0.353-2.166c0.823-1.918,4.23-2.469,6.061-2.764l0.289-0.047
		c0.377-0.063,1.09-1.228,1.61-2.078c1.002-1.634,2.137-3.486,3.771-3.813c0.153-0.031,0.315-0.047,0.482-0.047
		c1.331,0,2.906,0.989,4.574,2.036c1.71,1.072,3.479,2.183,4.893,2.183c0.064,0,0.128-0.003,0.19-0.008
		c0.322-0.024,0.635-0.052,0.935-0.078c0.73-0.064,1.42-0.125,2.007-0.125c0.746,0,1.669,0.085,2.174,0.747
		c0.382,0.499,0.439,1.211,0.176,2.177c-0.185,0.678,0.25,1.44,0.647,1.961c1.376,1.803,4.342,3.421,5.158,3.421
		c1.842,0,3.509,3.887,3.693,4.329c0.493,1.188,0.783,2.297,0.829,3.16c2.255,0.641,3.899,0.966,4.891,0.966
		c0.128,0,0.243-0.006,0.345-0.017c3.109-0.35,9.06,0.979,9.815,4.395c0.311,1.383-0.474,2.831-1.165,4.109
		c-0.487,0.899-1.038,1.918-0.813,2.361c0.14,0.274,0.662,0.485,1.471,0.593c1.205,0.161,2.55,0.223,3.852,0.282
		c4.133,0.19,8.406,0.388,10.037,3.646l0.183,0.367c0.627,1.259,0.973,1.952,1.336,2.219c0.316,0.23,0.809,0.247,1.992,0.267
		c0.655,0.011,1.471,0.023,2.534,0.091c5.583,0.352,8.092,8.129,8.092,10.095c0,1.004-0.421,2.768-0.867,4.635
		c-0.307,1.286-0.624,2.614-0.765,3.571c0.021,0.422-0.078,1.893-2.018,4.286c-0.745,0.921-1.508,1.721-2.181,2.426
		c-1.176,1.233-2.104,2.208-2.235,3.06c-0.51,3.31-0.233,5.654,0.759,6.435c0.783,0.615,1.195,1.363,1.526,1.965
		c0.275,0.499,0.454,0.802,0.622,0.802c0.055,0,0.18-0.017,0.405-0.13c1.45-0.725,4.777-4.913,6.523-7.531l1.473-2.21
		c0.163-0.244,0.479-0.334,0.746-0.214c0.268,0.121,0.408,0.418,0.333,0.701c-0.016,0.061-0.382,1.57,0.738,2.895
		c1.267,1.496,3.38,4.454,3.681,5.503c0.223,0.785,1.741,3.344,2.995,3.633c0.413,0.096,0.759,0.199,1.036,0.283
		c0.318,0.096,0.594,0.179,0.753,0.179c0.06,0,0.127,0,0.289-0.226c0.045-0.063,0.13-0.369-0.011-1.031
		c-0.228-1.079-0.785-2.011-1.001-2.138c-0.09-0.046-0.188-0.09-0.287-0.136c-0.727-0.332-1.721-0.785-2.109-2.34
		c-0.178-0.709,0.021-1.521,0.53-2.174c0.428-0.548,0.986-0.861,1.531-0.861c0.604,0,1.116,0.384,1.404,1.055
		c0.697,1.631,3.593,5.872,4.207,6.604c0.255,0.306,0.636,0.76,0.994,1.186c0.127-1.421,0.422-3.251,1.101-3.833
		c0.16-0.138,0.38-0.295,0.659-0.295c0.678,0,0.738,0.729,0.762,1.005c0.052,0.619,0.119,0.619,0.321,0.619
		c0.426,0,0.795-0.362,1.186-0.746c0.423-0.416,0.86-0.847,1.467-0.847c0.329,0,0.645,0.133,0.938,0.394
		c0.367,0.326,0.562,0.756,0.56,1.241c-0.003,1.01-0.861,2.086-1.617,2.837c0.047-0.002,0.095-0.005,0.144-0.007
		c0.413-0.022,0.881-0.048,1.374-0.048c2.158,0,4.058,0.62,5.646,1.844c1.259,0.968,1.596,2.093,1.682,2.727
		c0.232,0.061,0.55,0.123,0.863,0.123c0.292,0,0.524-0.056,0.673-0.161c0.094-0.143-0.059-0.829-0.149-1.239
		c-0.193-0.868-0.433-1.947-0.063-2.908c0.118-0.309,0.479-1.248,1.307-1.248c0.826,0,1.376,0.979,1.763,1.83
		c0.542,1.192,0.725,3.285,0.773,4.03c1.998,1.644,4.331,3.405,5.214,3.862c0.028-0.444-0.078-1.318-0.271-2.203
		c-0.531-0.104-1.416-0.36-2.021-0.968c-0.585-0.583-0.979-1.771-0.634-2.608c0.142-0.344,0.393-0.587,0.715-0.708
		c-0.288-0.71-0.827-1.798-1.657-2.558c-1.468-1.345-1.953-2.278-2.259-3.348c-0.168-0.588-0.072-1.698,0.047-2.566
		c-0.938,0.418-2.313,0.954-3.354,1.034c-1.189,0.091-1.764-0.613-2.171-1.12c-0.301-0.374-0.471-0.57-0.759-0.6
		c-0.296-0.029-0.662-0.104-0.861-0.429c-0.206-0.334-0.076-0.672-0.007-0.854c0.081-0.211,0.121-0.316-0.458-0.626
		c-0.74-0.396-1.543-0.422-2.319-0.446c-1.002-0.033-2.037-0.066-2.857-0.887c-0.807-0.807-3.396-3.539-2.863-4.823
		c0.097-0.232,0.364-0.621,1.077-0.621c1.236,0,1.969,0.637,2.504,1.103c0.29,0.252,0.541,0.471,0.765,0.498
		c0.583,0.072,1.082,0.43,1.564,0.775c0.523,0.375,1.065,0.763,1.724,0.816c1.672,0.14,2.777,0.599,3.48,1.444
		c0.271,0.323,0.43,0.726,0.584,1.115c0.302,0.763,0.451,1,0.798,1c0.257,0,0.533-0.161,0.778-0.453
		c0.545-0.649,0.778-1.737,0.596-2.771c-0.158-0.897-1.175-1.454-2.462-2.159c-1.117-0.611-2.384-1.305-3.51-2.433
		c-2.431-2.43-5.98-13.707-5.461-15.965c-0.101-0.012-0.215-0.022-0.305-0.03c-0.77-0.067-2.37-0.208-2.271-2.019
		c0.083-1.45,0.957-2.657,1.658-3.626c0.374-0.517,0.798-1.103,0.798-1.377c0-0.469-0.348-1.301-0.685-2.104
		c-0.334-0.798-0.714-1.703-0.896-2.56c-0.094-0.438-0.526-0.621-1.227-0.87c-0.601-0.213-1.222-0.434-1.489-1.027
		c-0.165-0.364-0.15-0.792,0.043-1.274c0.283-0.709,0.741-1.403,1.146-2.016c0.379-0.575,1.014-1.536,0.797-1.681
		c-0.275-0.184-0.626-0.373-0.998-0.573c-1.217-0.655-2.476-1.333-2.334-2.458c0.019-0.146,0.024-0.352,0.03-0.567
		c0.026-0.916,0.08-2.822,1.874-2.822c0.163,0,0.338,0.017,0.52,0.051c0.694,0.13,1.349,0.198,1.893,0.198
		c1.031,0,1.328-0.237,1.395-0.31c0.025-0.027,0.071-0.078,0.058-0.228c-0.082-0.903-2.941-3.536-4.396-3.536
		c-0.057,0-0.107,0.005-0.15,0.015c-0.594,0.137-1.024,0.197-1.397,0.197c-1.047,0-1.688-0.505-2.014-1.591
		c-0.059-0.195-0.173-0.488-0.295-0.798c-0.584-1.494-0.962-2.606-0.489-3.298c0.202-0.296,0.533-0.459,0.934-0.459
		c0.363,0,0.809,0.133,1.363,0.404c0.428,0.209,0.811,0.401,1.153,0.574c1.053,0.529,1.813,0.912,2.186,0.912
		c0.081,0,0.181,0,0.38-0.299c0.399-0.599,0.612-1.593,0.817-2.554c0.133-0.622,0.271-1.266,0.464-1.847
		c0.088-0.261,0.148-0.519,0.207-0.769c0.147-0.628,0.299-1.278,0.859-1.901c0.483-0.537,1.192-0.976,2.231-1.382
		c1.989-0.778,2.753-1.979,3.367-2.944c0.191-0.301,0.372-0.586,0.57-0.816c0.163-0.19,0.22-0.298,0.285-0.422
		c0.253-0.485,0.481-0.801,2.543-2.146c2.107-1.373,3.13-3.142,3.233-3.742c-0.84-0.296-1.592-1.666-1.802-2.892
		c-0.294-1.713,0.37-3.112,1.822-3.837c2.379-1.189,2.923-2.234,3.185-2.736c0.055-0.104,0.101-0.188,0.142-0.251
		c0.147-0.221,0.389-0.346,0.665-0.346c0.387,0,0.818,0.254,1.154,0.678c0.569,0.719,0.75,1.753,0.495,2.838
		c-0.216,0.917-0.621,1.73-0.947,2.385c-0.152,0.304-0.348,0.695-0.424,0.935c0.862-0.272,2.999-2.641,3.161-3.244
		c0.152-0.55,1.514-3.234,2.732-3.234c0.356,0,0.66,0.197,0.833,0.543c0.511,1.021,1.699,3.397-0.172,4.555
		c0.107,0.053,0.225,0.107,0.325,0.154c0.515,0.24,1.155,0.539,1.676,1.007c0.66,0.595,1.236,1.235,0.983,1.895
		c-0.258,0.672-1.164,0.763-2.016,0.763c-0.188,0-0.396-0.005-0.625-0.016c-1.026-0.049-1.779-0.355-2.384-0.603
		c-0.378-0.153-0.705-0.286-0.951-0.286c-0.136,0-0.456,0-1.056,0.875c-0.688,1.008-1.65,1.76-2.353,2.309
		c-0.253,0.197-0.574,0.448-0.756,0.627c0.058,0.024,0.132,0.053,0.227,0.085c0.354,0.118,0.694,0.175,1.039,0.175
		c0.71,0,1.333-0.248,1.935-0.488c0.585-0.233,1.138-0.454,1.747-0.454c0.587,0,4.061,0.471,4.328,1.709
		c0.034,0.158,0.09,0.7-0.643,1.033c-0.354,0.161-0.703,0.41-1.073,0.675c-0.72,0.513-1.463,1.044-2.401,1.044
		c-0.36,0-0.723-0.083-1.075-0.246c-0.727-0.336-1.886-0.544-3.025-0.544c-1.394,0-2.54,0.298-3.23,0.838
		c-1.519,1.193-1.985,2.358-2.235,2.985l-0.034,0.084c-0.102,0.256-0.259,0.418-0.386,0.548c-0.237,0.247-0.598,0.619-0.432,2.866
		c0.016,0.182,0.021,0.34,0.027,0.492c0.003,0.086,0.007,0.17,0.012,0.257c0.06,1.563-0.115,2.063-0.41,2.704
		c-0.129,0.279-0.263,0.568-0.375,1.131c-0.145,0.721-0.389,1.103-0.823,1.263c-0.011,0.195-0.001,0.612,0.094,1.501
		c0.289,2.681,0.606,2.968,1.304,3.6c0.149,0.135,0.312,0.282,0.49,0.461c0.692,0.692,0.779,1.136,0.842,1.782
		c0.041,0.431,0.092,0.966,0.515,1.969c0.244,0.58,0.544,1.292,0.712,1.473c0.177-0.053,0.603-0.338,1.017-0.615l0.21-0.141
		c0.573-0.381,1.085-0.574,1.522-0.574c0.462,0,0.847,0.219,1.055,0.599c0.341,0.625,0.149,1.612-0.513,2.641
		c-1.229,1.913-2.229,1.989-3.739,2.105l-0.156,0.012c-0.208,0.016-0.419,0.036-0.631,0.057c-0.482,0.046-0.981,0.094-1.446,0.094
		c-0.003,0-0.005,0-0.007,0c-0.491,0-1.951-0.007-2.345-1.313c-0.1-0.333-0.156-0.631-0.206-0.893
		c-0.044-0.229-0.109-0.573-0.173-0.633l0,0c-0.001,0-0.043-0.024-0.18-0.024c-0.049,0-0.101,0.003-0.157,0.009
		c-0.776,0.077-1.534,1.421-1.425,3.297c0.121,2.068,0.247,3.521,0.965,6.269c0.186,0.713,0.211,1.308,0.171,1.78
		c0.059-0.033,0.12-0.068,0.185-0.104c1.26-0.701,1.188-1.488,1.089-2.578c-0.066-0.721-0.141-1.538,0.271-2.302
		c0.902-1.677,1.78-2.647,3.597-2.647c1.832,0,2.123,0.649,2.659,2.25c0.028,0.087,0.055,0.157,0.077,0.215
		c0.054-0.043,0.111-0.09,0.164-0.132c0.263-0.211,0.623-0.501,1.097-0.777c0.411-0.241,0.716-0.504,0.985-0.735
		c0.394-0.339,0.733-0.631,1.197-0.631c0.556,0,0.928,0.43,1.189,0.803c0.214,0.307,0.626,0.668,1.024,1.019
		c0.821,0.721,1.529,1.344,1.308,2.09c-0.19,0.64-0.954,0.819-1.512,0.898l-0.664,0.094c-2.031,0.282-2.426,0.358-2.826,1.078
		c-0.421,0.758-0.292,1.813-0.104,2.072c0.482,0.002,1.595-0.378,2.404-0.739c0.172-0.077,0.357-0.117,0.55-0.117
		c0.567,0,1.095,0.353,1.313,0.878c0.133,0.321,0.331,1.18-0.701,2.213c-1.49,1.488-4.424,1.76-4.548,1.771
		c-0.178,0.019-0.351-0.048-0.476-0.173c-0.052-0.052-1.269-1.27-2.021-2.276c-0.141-0.187-0.294-0.424-0.457-0.675
		c-0.249-0.381-0.736-1.13-1.03-1.354c-0.04,0.076-0.096,0.209-0.153,0.432c-0.155,0.603-0.327,1.194-0.493,1.768
		c-0.476,1.641-0.925,3.19-0.839,4.464c0.042,0.62-0.019,1.218-0.071,1.746c-0.131,1.309-0.091,1.694,0.439,1.915
		c0.131,0.055,0.25,0.082,0.354,0.082c0.538,0,0.986-0.872,1.421-1.716c0.096-0.188,0.192-0.375,0.29-0.556
		c0.27-0.492,1.69-2.942,3.289-2.942c0.338,0,0.831,0.111,1.265,0.642c0.275,0.336,0.436,0.676,0.528,0.986
		c0.933-0.896,2.288-1.74,3.28-1.74c0.78,0,1.302,0.512,1.36,1.336c0.09,1.258-0.617,2.012-1.135,2.563
		c-0.299,0.319-0.558,0.596-0.587,0.861c-0.024,0.218-0.062,0.404-0.091,0.553c-0.006,0.029-0.012,0.061-0.018,0.091
		c0.162,0.021,0.455,0.04,0.985,0.04c1.442,0,2.215,0.675,2.836,1.217c0.398,0.348,0.742,0.647,1.222,0.767
		c1.493,0.368,2.207,0.839,2.314,1.525c0.128,0.823-0.739,1.356-1.023,1.531c-0.367,0.227-0.771,0.342-1.198,0.342
		c-0.798,0-1.556-0.395-2.289-0.775c-0.667-0.346-1.355-0.704-1.983-0.704c-0.813,0-2.037,0-2.251,0.216
		c0.007,0.004,0.007,0.092,0.096,0.285c0.185,0.408,0.794,0.912,1.332,1.356c0.833,0.689,1.552,1.285,1.505,2.035
		c-0.016,0.256-0.134,0.624-0.605,0.925c-0.498,0.317-0.895,0.697-1.277,1.065c-0.627,0.601-1.219,1.169-2.119,1.35
		c-0.194,0.039-0.206,0.817-0.213,1.235c-0.012,0.807-0.025,1.722-0.773,2.043c-0.141,0.06-0.281,0.09-0.421,0.09
		c-0.649,0-0.964-0.581-1.216-1.048c-0.319-0.589-0.503-0.836-0.812-0.836c-0.733,0-1.231,0.283-1.285,0.406l0,0
		c0.008,0,0.066,0.173,0.505,0.454c1.476,0.949,2.126,1.762,2.948,2.789c0.191,0.239,0.396,0.494,0.626,0.771
		c0.579,0.694,0.889,1.372,1.114,1.867c0.16,0.351,0.256,0.538,0.332,0.636c0.035-0.354-0.007-0.972-0.033-1.342
		c-0.063-0.924-0.105-1.535,0.227-1.891c0.199-0.214,0.504-0.288,0.792-0.192c0.697,0.232,3.811,1.895,4.418,3.415
		c0.224,0.559,0.222,1.089,0.221,1.515c-0.001,0.184-0.002,0.458,0.035,0.537c0.006-0.008,0.085,0.027,0.294,0.027l0.664-0.003
		c1.275,0,2.511,0.111,3.606,1.451c0.292,0.357,0.577,0.554,0.853,0.744c0.827,0.57,1.369,1.101,1.369,3.197
		c0,1.706-0.717,2.768-1.146,3.401c-0.001,0.002-0.003,0.004-0.004,0.007c0.103,0.023,0.207,0.048,0.313,0.072
		c0.499,0.118,1.014,0.24,1.434,0.24c0.484,0,0.64-0.159,0.735-0.331c0.398-0.717,0.091-2.152-0.048-2.599
		c-0.036-0.114-0.037-0.237-0.002-0.352l0,0c-0.001,0,0.216-1.036-1.14-2.913c-0.572-0.792-1.267-1.304-1.824-1.714
		c-0.646-0.477-1.204-0.888-1.268-1.547c-0.042-0.422,0.141-0.849,0.557-1.302c0.535-0.585,0.769-1.618,0.975-2.529
		c0.273-1.206,0.556-2.454,1.679-2.454c0.861,0,2.498,0.241,3.171,1.145c0.186,0.25,0.286,0.527,0.297,0.821
		c0.309-0.464,0.747-0.842,1.354-1.069c0.592-0.223,1.127-0.518,1.6-0.778c0.619-0.341,1.066-0.588,1.484-0.588
		c0.257,0,0.489,0.098,0.654,0.276c0.287,0.311,0.288,0.768,0.264,1.085c-0.077,1.025-0.724,1.787-1.294,2.459
		c-0.407,0.479-0.792,0.934-0.792,1.301c0,0.129-0.001,0.271-0.003,0.424c-0.007,0.754-0.024,2.649,0.366,3.251
		c0.09-0.206,0.182-0.521,0.239-0.715c0.135-0.457,0.241-0.818,0.464-1.047c0.018-0.021,0.061-0.107,0.091-0.171
		c0.184-0.375,0.525-1.073,1.701-1.073c0.249,0,0.522,0.03,0.835,0.093c0.749,0.15,1.274,0.471,1.562,0.951
		c0.475,0.794,0.179,1.763-0.081,2.618l-0.042,0.139c-0.064,0.215-0.108,0.439-0.155,0.677c-0.192,0.982-0.457,2.327-2.596,2.451
		c-0.671,0.04-1.257,0.007-1.739-0.021c-0.235-0.014-0.447-0.026-0.632-0.026c-0.224,0-0.324,0.021-0.364,0.033
		c-0.006,0.025-0.013,0.072-0.013,0.151c0,0.604-0.211,1.051-0.365,1.378c-0.215,0.457-0.254,0.539,0.09,0.926
		c0.143,0.16,0.244,0.217,0.288,0.217c0.147,0,0.48-0.291,0.748-0.525c0.293-0.257,0.626-0.548,1.031-0.791
		c1.361-0.816,3.791-1.56,5.098-1.56l0.686-0.003c1.76,0,2.753,0.14,2.959,0.874c0.206,0.733-0.638,1.249-0.999,1.47
		c-1.288,0.788-2.255,0.859-2.896,0.907c-0.189,0.014-0.449,0.033-0.505,0.072l0,0c0,0-0.015,0.017-0.035,0.071
		c-0.164,0.438-0.541,0.961-0.979,1.565c-0.377,0.523-1.162,1.61-1.113,1.933c0.071,0.16,0.124,0.33,0.167,0.466
		c0.007,0.024,0.016,0.05,0.023,0.076c0.147-0.074,0.412-0.231,0.863-0.563c0.633-0.464,1.229-1.219,1.755-1.885
		c0.732-0.928,1.262-1.598,1.928-1.598c0.332,0,0.784,0.166,1.048,0.954c0.586,1.759-0.416,2.773-1.301,3.668
		c-0.26,0.264-0.528,0.535-0.771,0.831c-0.338,0.413-0.778,0.623-1.31,0.623c-0.389,0-0.756-0.112-1.079-0.211
		c-0.211-0.064-0.43-0.132-0.557-0.132c-0.001,0-0.003,0-0.003,0c-0.027,0.051-0.091,0.207-0.108,0.597
		c-0.046,0.968-0.193,1.767-0.302,2.35c-0.064,0.345-0.142,0.764-0.133,0.952c0.007,0.001,0.016,0.002,0.024,0.003
		c0.308,0.035,0.675-0.268,0.974-0.507C226.834,198.433,227.109,198.212,227.466,198.212z M226.77,194.217
		c0.067,0.02,0.134,0.04,0.2,0.06c0.255,0.078,0.52,0.159,0.729,0.159c0.169,0,0.271-0.05,0.381-0.183
		c0.277-0.34,0.566-0.632,0.846-0.915c0.925-0.935,1.354-1.43,1.016-2.444c-0.003-0.01-0.007-0.02-0.01-0.028
		c-0.239,0.217-0.604,0.679-0.886,1.036c-0.573,0.726-1.223,1.549-1.987,2.109C226.956,194.085,226.86,194.153,226.77,194.217z
		 M217.852,177.458c-0.242,0.301-0.54,0.578-0.833,0.851c-0.703,0.655-1.117,1.08-0.943,1.463c0.882,1.936,1.968,3.46,2.443,3.677
		c0.115-0.528-0.334-2.173-0.488-2.738l-0.011-0.04C217.784,179.806,217.63,178.572,217.852,177.458z"/>
</g>
</svg>
