<?xml version="1.0" encoding="iso-8859-1"?>
<!-- Generator: Adobe Illustrator 15.1.0, SVG Export Plug-In . SVG Version: 6.00 Build 0)  -->
<!DOCTYPE svg PUBLIC "-//W3C//DTD SVG 1.1//EN" "http://www.w3.org/Graphics/SVG/1.1/DTD/svg11.dtd">
<svg version="1.1" id="Layer_1" xmlns="http://www.w3.org/2000/svg" xmlns:xlink="http://www.w3.org/1999/xlink" x="0px" y="0px"
	 width="288px" height="288px" viewBox="0 0 288 288" style="enable-background:new 0 0 288 288;" xml:space="preserve">
<g>
	<g>
		<path d="M202.831,196.397c-0.649,0-1.423-0.079-1.645-0.696c-0.158-0.44,0.093-0.862,0.391-1.122
			c5.22-5.505,5.617-5.505,5.908-5.505l0.406-0.005c0.437,0.005,0.812,0.342,0.971,0.857c0.248,0.807-0.033,2.051-1.567,3.126
			c-0.75,0.523-1.255,1.128-1.701,1.66C204.869,195.579,204.185,196.397,202.831,196.397z M202.648,195.194
			c0.055,0.002,0.115,0.003,0.183,0.003c0.759,0,1.134-0.407,1.843-1.255c0.469-0.561,1.054-1.259,1.933-1.873
			c0.897-0.628,1.092-1.189,1.128-1.468c0.02-0.15,0-0.262-0.022-0.33l-0.087,0.001C207.056,190.674,204.74,192.995,202.648,195.194
			z"/>
	</g>
	<g>
		<path d="M187.451,196.545c-0.996,0-1.275-0.465-1.354-0.742c-0.119-0.412,0.015-1.016,0.263-2.048
			c0.162-0.678,0.347-1.444,0.347-1.917c0-0.736-1.647-2.637-2.343-2.947c-0.016,0.485,0.318,1.601,0.454,2.055
			c0.206,0.688,0.283,0.945,0.218,1.2c-0.109,0.446-1.053,1.875-2.085,1.875c-0.096,0-0.189-0.022-0.274-0.066l-0.95-0.488
			c-0.143-0.073-0.249-0.201-0.298-0.354c-1.12-3.569-2.523-7.57-2.793-8.253c-0.215-0.239-1.365-0.643-2.291-0.968l-0.594-0.209
			c-0.303-0.108-0.467-0.437-0.371-0.744c0.432-1.388,0.959-3.13,1.201-4.292c0.493-2.319,0.852-5.928,0.245-6.677
			c-0.008-0.01-0.015-0.018-0.021-0.023c-0.274,0.424-0.411,2.129-0.494,3.169c-0.115,1.436-0.225,2.792-0.595,3.521
			c-0.469,0.908-1.055,2.242-1.622,3.532l-0.079,0.179c-0.064,0.147-0.186,0.263-0.337,0.32c-0.151,0.057-0.318,0.051-0.465-0.018
			c-1.724-0.799-2.993-1.684-3.882-2.704c-0.819-0.941-1.792-1.78-2.733-2.593c-2.231-1.925-4.535-3.913-5.154-7.453h-2.76
			c-0.284,0-0.53-0.199-0.588-0.479l-2.084-10.121l-24.981,7.813c-0.156,0.049-0.327,0.031-0.471-0.048
			c-0.144-0.081-0.248-0.216-0.289-0.376l-0.264-1.029l-45.829,12.362c-0.043,0.011-0.087,0.019-0.131,0.02l-10.37,0.45
			c-0.077,1.035-0.487,3.077-2.48,3.651c-0.239,0.068-0.474,0.103-0.698,0.103c-1.499,0-2.222-1.457-2.488-2.654l-39.612,8.486
			c-0.224,0.045-0.453-0.035-0.595-0.213l-1.693-2.119c-0.09-0.112-0.136-0.253-0.131-0.396l2.082-56.394l-0.361-0.492
			c-0.134-0.183-0.154-0.425-0.052-0.626c0.09-0.179,0.263-0.299,0.457-0.324l47.252-10.571c0.009-0.002,0.04-0.008,0.05-0.01
			l70.942-15.871c0.154-1.267,0.772-4.539,3.045-4.701c0.761-0.054,1.266-0.251,1.46-0.57c0.213-0.349,0.051-0.856-0.065-1.128
			c-0.567-1.319-0.085-2.673,0.776-4.746c0.431-1.033,1.755-1.558,3.937-1.558c0.881,0,1.718,0.084,2.264,0.154
			c0.096-0.958,0.103-1.849,0.004-2.064c-0.213-0.429-0.538-1.085,6.351-6.137c0.072-0.054,0.156-0.09,0.245-0.106l6.804-1.266
			c0.319-0.06,0.623,0.143,0.694,0.456c0.369,1.603,0.967,3.527,1.27,3.836c0.334,0.34,0.229,0.693,0.188,0.794
			c-0.221,0.553-0.864,0.573-2.418,0.625c-1.104,0.036-2.475,0.082-3.443,0.353c0.726,0.497,2.767,1.212,3.819,1.212
			c0.211,0,0.34-0.017,0.413-0.031c0.042-0.754,0.569-0.916,1.008-0.919c1.149,0,2.27,2.104,2.604,2.915
			c0.392,0.948,0.407,1.557,0.05,1.913c-0.198,0.262-0.602,1.834-0.881,3.253c0.213,0.166,0.591,0.388,1.087,0.388
			c0.361,0,0.74-0.12,1.128-0.355c0.994-0.609,1.916-0.538,2.509,0.14c0.573,0.656,0.722,1.788,0.617,2.561
			c-0.098,0.641,0.232,1.553,0.497,1.989c0.322-0.469,0.832-1.454,1.211-2.307c0.06-0.134,0.165-0.24,0.298-0.302
			c0.158-0.072,3.907-1.782,6.184-2.109c0.288-0.041,0.549-0.062,0.772-0.062c0.705,0,1.17,0.215,1.38,0.64
			c0.313,0.631-0.131,1.331-0.491,1.804c-0.231,0.394-0.693,3.202-0.98,5.567c-0.021,0.175-0.119,0.332-0.266,0.429
			c-0.147,0.097-0.33,0.124-0.499,0.074c-0.012-0.003-1.129-0.327-2.06-0.327c-0.483,0-0.747,0.091-0.832,0.177
			c-0.465,0.458-0.586,1.087-0.771,2.04c-0.067,0.348-0.145,0.743-0.248,1.167c-0.309,1.338-1.871,1.65-3.525,1.981
			c-0.938,0.188-2.003,0.4-2.923,0.807c-1.071,0.469-1.475,1.12-1.583,1.503c0.126-0.045,0.259-0.068,0.393-0.068
			c0.485,0,0.954,0.293,1.319,0.825c0.569,0.831,0.897,2.307,0.347,3.732c-0.564,1.472-1.747,2.054-2.53,2.438
			c-0.226,0.111-0.529,0.261-0.62,0.353c0.012,0.142,0.171,0.55,0.269,0.798c0.283,0.727,0.577,1.479,0.188,2.046
			c-0.145,0.213-0.441,0.467-1.028,0.467c-0.067,0-0.141-0.003-0.22-0.011c-0.877-0.077-1.612-0.457-2.166-0.865
			c0.191,4.734,0.642,9.671,1.134,10.393c0.15,0.084,0.291,0.153,0.422,0.218c0.921,0.458,1.477,0.82,2.183,2.933
			c0.509,1.528,0.684,1.524,1.148,1.528c0.135,0,0.285-0.007,0.452-0.015c0.234-0.011,0.5-0.022,0.807-0.022h0.036
			c1.082,0,1.555-0.901,2.206-2.386c0.134-0.306,0.272-0.623,0.424-0.925c0.001-0.002,0.001-0.003,0.002-0.004
			c-0.182-0.27-1.292-0.621-1.834-0.792c-1.122-0.355-1.934-0.612-2.024-1.302c-0.035-0.261,0.039-0.644,0.585-0.993
			c0.434-0.275,0.89-0.415,1.357-0.415c0.957,0,1.781,0.553,2.655,1.138c0.537,0.36,1.094,0.733,1.682,0.968
			c1.788,0.71,2.106,0.752,5.152,1.147l0.643,0.084c2.07,0.267,2.576,0.377,2.796,0.85c0.175,0.375-0.03,0.693-0.129,0.847
			c-0.086,0.132-0.102,0.169-0.093,0.219c0.194,1.104,0.977,3.314,1.981,3.646c0.721,0.243,1.646,1.131,2.927,2.36
			c1.684,1.614,3.779,3.625,6.208,4.975c2.299,1.277,2.549,2.443,2.354,3.196c-0.286,1.105-1.69,1.767-2.884,1.767
			c-0.185,0-0.36-0.017-0.523-0.049c-0.774-0.155-1.095-0.22-1.174-0.669c-0.05-0.284,0.081-0.523,0.39-0.71
			c0.187-0.112,0.301-0.196,0.301-0.478c0.003-0.311-1.003-1.007-2.394-1.592l0.573,2.902c0.033,0.166-0.006,0.339-0.107,0.476
			c-0.103,0.136-0.258,0.223-0.427,0.238c-0.265,0.029-1.14,0.22-1.04,1.412c0.118,1.432,1.733,1.99,3.521,2.479
			c0.214,0.059,0.526,0.088,0.927,0.088c0.834,0,1.925-0.13,2.888-0.246c0.871-0.104,1.695-0.203,2.28-0.203
			c0.327,0,1.007,0,1.265,0.513c0.156,0.323,0.15,0.754,0.143,1.468c-0.017,1.371-0.04,3.442,1.089,5.301
			c1.52,2.471,5.681,4.767,6.339,5.119c7.792,1.092,8.294,1.885,8.321,2.388c0.225,0.175,1.035,0.368,1.826,0.435
			c1.026-0.479,3.404-1.71,4.075-2.611c0.086-0.115,0.172-0.232,0.26-0.351c0.948-1.285,2.129-2.885,4.132-3.052
			c1.006-0.084,2.38-1.122,3.483-1.956c0.787-0.595,1.409-1.064,1.917-1.237c0.569-0.188,1.743-2.432,2.186-3.275
			c0.314-0.601,0.507-0.964,0.659-1.178c0.068-0.349-0.262-1.855-1.939-5.44c-0.469-1.024-1.011-1.826-1.39-2.274
			c-0.162,0.28-0.473,0.519-1.064,0.519c-0.206,0-0.433-0.025-0.672-0.052c-0.274-0.031-0.586-0.066-0.908-0.066
			c-1.084-0.003-2.155-1.798-4.306-6.093c-0.517-1.03-1.003-2.003-1.275-2.408c-0.206-0.309-0.485-0.445-0.906-0.445
			c-0.592,0-1.289,0.271-1.851,0.49c-0.191,0.075-0.366,0.144-0.517,0.193c-0.24,0.08-0.347,0.251-0.514,0.547
			c-0.202,0.359-0.509,0.901-1.256,0.901c-1.098,0-3.296-1.635-3.296-2.972c0-1.298,1.23-2.813,4.698-2.813h0.033
			c3.264,0,7.243,1.589,8.363,2.904c0.608,0.706,2.563,2.625,4.454,4.482c0.997,0.978,1.99,1.953,2.8,2.764
			c2.233,2.219,4.139,7.613,4.856,9.645c0.081,0.23,0.146,0.416,0.195,0.547c0.331,0.867-0.175,2.461-0.985,4.793
			c-0.279,0.807-0.651,1.879-0.712,2.318c0.093,0.022,0.259,0.048,0.538,0.048c1.135,0,2.826-0.402,2.843-0.406
			c0.194-0.047,0.399,0.006,0.546,0.141c0.147,0.136,0.218,0.335,0.188,0.532c-0.021,0.14-0.543,3.439-2.938,5.152
			c-1.001,0.717-3.07,1.409-5.261,2.144c-1.811,0.606-5.578,1.868-5.747,2.549c-0.245,1.35-1.545,2.298-2.59,3.06
			c-0.479,0.35-0.976,0.711-1.146,0.968c-0.09,0.136-0.366,0.552-0.821,0.552l0,0c-0.266,0-0.503-0.146-0.634-0.39
			c-0.337-0.626,0.056-2.042,0.933-3.367c0.063-0.094,0.111-0.174,0.148-0.239c-0.201,0.022-0.438,0.071-0.654,0.115
			c-0.287,0.06-0.535,0.11-0.736,0.11c-0.37,0.012-2.251,0.959-3.117,2.54c-0.989,1.798-2.197,2.53-4.171,2.53h-0.08
			c-0.132,0-0.254-0.001-0.364-0.002l-0.25-0.001c-0.159,0-0.275,0.004-0.347,0.012c-0.039,0.148-0.074,0.466-0.103,0.729
			c-0.179,1.599-2.662,4.976-5.597,6.188c-0.698,0.288-1.491,0.665-2.259,1.028c-1.865,0.886-3.628,1.722-4.753,1.722
			c-0.397,0-0.723-0.103-0.966-0.306c-0.155-0.129-0.623-0.52-0.578-1.068c0.042-0.513,0.48-0.771,0.742-0.926
			c0.003-0.002,0.006-0.004,0.009-0.006c-0.156-0.604-0.828-2.199-1.422-3.263c-0.669-1.196-0.978-1.837-0.7-3.311
			c0.175-0.935,0.665-1.396,1.14-1.842c0.3-0.282,0.583-0.549,0.834-0.969c0.265-0.439,0.223-0.479-0.291-0.96
			c-0.221-0.205-0.47-0.438-0.702-0.749c-0.563-0.75-0.638-1.228-0.739-1.889c-0.048-0.31-0.107-0.695-0.234-1.214
			c-0.078-0.308-0.178-0.423-0.207-0.439c-0.107,0.004-0.47,0.31-0.612,0.813l-0.052,0.179c-0.276,0.977-0.59,2.082-1.959,2.082
			c-0.063,0-0.128-0.002-0.196-0.008c-1.148-0.079-1.309-0.938-1.403-1.45c-0.047-0.248-0.091-0.483-0.21-0.673
			c-0.186,0.174-0.512,0.759-0.597,1.738c-0.05,0.58-0.05,1.67-0.05,2.823c0,4.194-0.088,5.574-0.635,6.036
			c-0.192,0.159-0.395,0.237-0.605,0.237c-0.734,0-0.977-0.799-1.21-1.571c-0.083-0.274-0.169-0.559-0.257-0.739
			c-0.189,0.087-0.53,0.36-0.746,0.534c-0.061,0.048-0.12,0.097-0.18,0.144c0.076,0.193,0.311,0.538,0.46,0.758
			c0.458,0.673,0.977,1.437,0.627,2.132c-0.215,0.442-0.593,0.68-1.092,0.68c-0.327,0-0.667-0.101-1.062-0.216
			c-0.382-0.113-0.814-0.24-1.3-0.293l-0.341-0.036c-0.767-0.082-1.636-0.175-2.209-0.175c-0.084,0-0.154,0.002-0.211,0.006
			c-0.063,0.908-0.301,3.146-1.093,3.733c-0.272,0.203-0.518,0.312-0.715,0.398c-0.28,0.124-0.328,0.145-0.386,0.338
			c0.114,0.364,1.058,1.312,1.571,1.827c0.896,0.899,1.294,1.314,1.353,1.738c0.051,0.396-0.088,0.649-0.213,0.792
			c-0.345,0.393-0.93,0.412-1.854,0.412l-0.906-0.002c-0.15,0-0.271,0.002-0.371,0.006c0.046,0.13,0.087,0.28,0.105,0.448
			c0.015,0.144,0.067,0.322,0.123,0.511c0.201,0.683,0.538,1.824-0.804,2.671C189.49,196.196,188.338,196.545,187.451,196.545z
			 M187.258,195.334c0.048,0.006,0.111,0.011,0.193,0.011c0.565,0,1.514-0.234,2.23-0.684c0.545-0.344,0.5-0.606,0.291-1.314
			c-0.068-0.233-0.14-0.475-0.165-0.726c-0.014-0.124-0.071-0.246-0.132-0.376c-0.102-0.219-0.272-0.584-0.04-0.95
			c0.268-0.421,0.845-0.453,1.631-0.453l0.906,0.002c0.166,0,0.471,0,0.71-0.015c-0.216-0.249-0.566-0.601-0.845-0.88
			c-1.328-1.334-2.13-2.19-1.887-2.965c0.211-0.768,0.685-0.978,1.065-1.146c0.164-0.072,0.319-0.141,0.484-0.265
			c0.32-0.313,0.63-2.465,0.63-3.157c0-0.818,1.046-0.818,1.39-0.818c0.637,0,1.501,0.093,2.337,0.182l0.341,0.036
			c0.594,0.064,1.103,0.214,1.512,0.335c0.295,0.087,0.577,0.176,0.726,0.167c-0.028-0.197-0.354-0.675-0.531-0.938
			c-0.449-0.661-1.128-1.659-0.314-2.293c0.092-0.071,0.184-0.145,0.274-0.218c0.505-0.406,1.027-0.825,1.579-0.825
			c0.231,0,0.661,0.077,0.942,0.595c0.155,0.278,0.269,0.648,0.377,1.009c0.106-1.128,0.106-3.052,0.106-4.34
			c0-1.231,0-2.295,0.055-2.927c0.146-1.695,0.896-2.879,1.822-2.879c0.359,0,0.688,0.185,0.929,0.52
			c0.288,0.412,0.367,0.837,0.431,1.179c0.085,0.457,0.085,0.457,0.31,0.473c0.508,0.038,0.589-0.052,0.915-1.205l0.052-0.181
			c0.231-0.814,0.935-1.681,1.78-1.681c0.306,0,1.051,0.132,1.357,1.347c0.141,0.573,0.205,0.987,0.256,1.319
			c0.095,0.612,0.13,0.842,0.514,1.353c0.17,0.226,0.369,0.412,0.562,0.593c0.534,0.499,1.265,1.183,0.501,2.453
			c-0.336,0.563-0.711,0.915-1.041,1.226c-0.409,0.385-0.68,0.64-0.782,1.188c-0.201,1.065-0.035,1.425,0.568,2.504
			c0.02,0.035,1.941,3.548,1.529,4.385c-0.138,0.257-0.359,0.388-0.555,0.503c-0.009,0.006-0.02,0.012-0.03,0.019
			c0.008,0.007,0.016,0.014,0.024,0.021c0.01,0.006,0.071,0.027,0.198,0.027c0.854,0,2.652-0.853,4.238-1.605
			c0.781-0.37,1.588-0.753,2.314-1.054c2.548-1.053,4.737-4.092,4.862-5.212c0.139-1.254,0.259-1.809,1.643-1.809l0.26,0.001
			c0.108,0.001,0.226,0.002,0.354,0.002h0.078c1.313,0,2.243-0.312,3.121-1.907c1.048-1.914,3.322-3.153,4.162-3.163
			c0.086,0,0.326-0.05,0.501-0.086c0.349-0.071,0.743-0.152,1.093-0.152c0.617,0,0.894,0.273,1.016,0.504
			c0.283,0.528-0.045,1.14-0.361,1.613c-0.231,0.35-0.404,0.678-0.532,0.969c0.156-0.119,0.322-0.24,0.495-0.366
			c0.872-0.636,1.957-1.427,2.116-2.304c0.234-1.298,2.641-2.165,6.546-3.473c2.011-0.674,4.09-1.37,4.944-1.982
			c1.299-0.929,1.946-2.506,2.239-3.486c-0.636,0.117-1.481,0.243-2.18,0.243c-1.046,0-1.629-0.311-1.729-0.925
			c-0.088-0.525,0.203-1.401,0.771-3.033c0.447-1.29,1.196-3.448,0.994-3.979c-0.052-0.14-0.119-0.331-0.203-0.569
			c-0.692-1.96-2.531-7.167-4.572-9.194c-0.809-0.81-1.799-1.782-2.793-2.758c-1.996-1.96-3.882-3.812-4.524-4.557
			c-0.837-0.983-4.507-2.486-7.452-2.486h-0.033c-2.417,0-3.498,0.812-3.498,1.614c0,0.539,1.552,1.771,2.084,1.771l0.192,0.578
			l-0.155-0.58c0.037-0.026,0.127-0.185,0.186-0.289c0.195-0.345,0.489-0.865,1.179-1.096c0.134-0.045,0.29-0.105,0.461-0.173
			c0.62-0.241,1.469-0.572,2.286-0.572c0.818,0,1.478,0.339,1.903,0.979c0.313,0.466,0.771,1.38,1.352,2.538
			c0.77,1.537,2.563,5.12,3.258,5.43c0.386,0.003,0.721,0.04,1.018,0.074c0.232,0.025,0.444,0.048,0.571,0.044
			c-0.003-0.272,0.077-0.499,0.237-0.66c0.138-0.139,0.322-0.216,0.521-0.216c1.21,0,2.735,3.294,2.751,3.327
			c2.619,5.602,2.088,6.299,1.832,6.634c-0.103,0.137-0.345,0.599-0.578,1.046c-1.044,1.993-1.918,3.544-2.868,3.856
			c-0.319,0.109-0.958,0.591-1.574,1.057c-1.228,0.928-2.755,2.082-4.107,2.194c-1.46,0.122-2.419,1.422-3.266,2.569
			c-0.09,0.121-0.179,0.24-0.265,0.356c-1.012,1.36-4.306,2.88-4.678,3.049c-0.09,0.041-0.188,0.06-0.286,0.053
			c-1.07-0.067-2.819-0.328-3.068-1.313c-0.737-0.419-4.336-1.114-7.422-1.545c-0.066-0.009-0.132-0.029-0.192-0.061
			c-0.206-0.106-5.079-2.646-6.899-5.605c-1.31-2.155-1.282-4.525-1.266-5.941c0.003-0.259,0.007-0.562-0.005-0.76
			c-0.052-0.004-0.118-0.007-0.202-0.007c-0.514,0-1.303,0.095-2.138,0.195c-0.996,0.119-2.124,0.254-3.03,0.254
			c-0.515,0-0.921-0.042-1.243-0.13c-1.572-0.432-4.203-1.152-4.4-3.539c-0.119-1.435,0.681-2.231,1.483-2.549l-0.673-3.403
			c-0.041-0.21,0.032-0.426,0.192-0.566c0.16-0.142,0.383-0.188,0.586-0.119c1.268,0.422,4.214,1.569,4.202,3.107
			c0,0.277-0.055,0.508-0.137,0.699c0.753-0.02,1.553-0.431,1.666-0.866c0.095-0.364-0.322-1.04-1.774-1.847
			c-2.565-1.425-4.814-3.583-6.457-5.158c-1.035-0.993-2.013-1.931-2.476-2.087c-2.075-0.686-2.777-4.543-2.784-4.582
			c-0.046-0.275-0.005-0.505,0.064-0.688c-0.502-0.097-1.291-0.199-1.61-0.24l-0.643-0.083c-3.046-0.396-3.515-0.457-5.442-1.224
			c-0.414-0.165-0.806-0.381-1.172-0.607c0.136,0.132,0.243,0.278,0.313,0.443c0.093,0.22,0.161,0.569-0.047,0.985
			c-0.137,0.275-0.264,0.564-0.398,0.872c-0.606,1.383-1.36,3.104-3.307,3.104h-0.034c-0.285,0-0.533,0.011-0.752,0.021
			c-0.188,0.008-0.355,0.016-0.507,0.016c-1.296,0-1.735-0.692-2.287-2.349c-0.582-1.742-0.895-1.897-1.578-2.237
			c-0.163-0.081-0.338-0.169-0.531-0.278c-0.387-0.223-0.967-0.556-1.434-6.894c-0.22-2.989-0.307-5.938-0.308-5.968
			c-0.007-0.265,0.159-0.502,0.409-0.586c0.251-0.084,0.526,0.006,0.68,0.221c0.009,0.013,0.998,1.363,2.435,1.489
			c0.045,0.005,0.088,0.004,0.123,0.006c-0.034-0.225-0.194-0.636-0.288-0.876c-0.211-0.54-0.411-1.051-0.327-1.49
			c0.129-0.612,0.682-0.885,1.267-1.173c0.724-0.356,1.544-0.76,1.94-1.793c0.378-0.978,0.182-1.994-0.181-2.567
			c-0.181-0.286-0.337-0.357-0.366-0.36c-0.214,0.149-0.43,0.222-0.646,0.222c-0.467,0-0.838-0.328-0.944-0.836
			c-0.201-0.961,0.524-2.341,2.3-3.118c1.038-0.459,2.171-0.686,3.17-0.885c1.264-0.253,2.457-0.491,2.594-1.081
			c0.098-0.404,0.168-0.768,0.236-1.119c0.202-1.045,0.377-1.947,1.104-2.664c0.353-0.352,0.902-0.524,1.678-0.524
			c0.604,0,1.248,0.107,1.717,0.208c0.261-2.032,0.692-4.881,1.128-5.472c0.188-0.247,0.277-0.41,0.319-0.507
			c-0.144-0.023-0.466-0.021-0.851,0.034c-1.818,0.261-4.841,1.563-5.649,1.921c-1.357,2.996-1.902,2.996-2.198,2.996
			c-0.283,0-0.552-0.146-0.799-0.433c-0.553-0.645-1.059-2.083-0.9-3.115c0.067-0.502-0.039-1.263-0.334-1.6
			c-0.092-0.106-0.186-0.151-0.312-0.151c-0.121,0-0.336,0.043-0.667,0.246c-0.58,0.353-1.169,0.531-1.754,0.531
			c-1.344,0-2.162-0.947-2.196-0.987c-0.116-0.138-0.165-0.32-0.132-0.498c0.235-1.265,0.69-3.405,1.181-4.093
			c-0.01-0.6-1.004-2.333-1.564-2.79c-0.19,0.755-0.97,0.85-1.569,0.85c-1.146,0-5.031-1.021-5.225-2.394
			c-0.035-0.249-0.008-0.861,1.009-1.153c1.114-0.328,2.604-0.377,3.8-0.417c0.326-0.011,0.694-0.023,0.994-0.042
			c-0.425-0.891-0.811-2.302-1.029-3.186l-6.108,1.137c-2.505,1.843-5.298,4.103-5.785,4.804c0.223,0.835,0.044,2.421-0.052,3.114
			c-0.022,0.161-0.109,0.307-0.241,0.403c-0.132,0.096-0.297,0.135-0.457,0.105c-0.013-0.002-1.313-0.229-2.683-0.229
			c-1.581,0-2.611,0.299-2.828,0.819c-0.74,1.78-1.163,2.926-0.782,3.812c0.357,0.836,0.354,1.627-0.013,2.226
			c-0.41,0.674-1.218,1.059-2.399,1.143c-1.382,0.099-1.903,3.022-1.978,4.038c-0.019,0.265-0.209,0.484-0.467,0.543L75.64,118.109
			c-0.009,0.002-0.04,0.008-0.05,0.01l-46.387,10.379c0.046,0.09,0.068,0.191,0.064,0.294l-2.081,56.38l1.322,1.654l39.866-8.54
			c0.167-0.035,0.342,0.002,0.479,0.103s0.227,0.256,0.243,0.426c0.002,0.021,0.258,2.232,1.4,2.232c0.112,0,0.236-0.02,0.367-0.057
			c1.74-0.501,1.628-3.017,1.627-3.042c-0.009-0.16,0.047-0.316,0.155-0.435c0.107-0.119,0.258-0.189,0.418-0.196l10.863-0.471
			l46.353-12.504c0.154-0.042,0.32-0.02,0.459,0.062c0.138,0.081,0.238,0.214,0.278,0.369l0.258,1.006l25.01-7.823
			c0.161-0.051,0.338-0.03,0.483,0.056c0.146,0.086,0.249,0.229,0.283,0.396l2.12,10.293h2.788c0.303,0,0.559,0.226,0.596,0.526
			c0.417,3.414,2.559,5.262,4.825,7.218c0.973,0.84,1.979,1.708,2.854,2.714c0.682,0.782,1.645,1.484,2.932,2.136
			c0.52-1.181,1.045-2.361,1.48-3.205c0.262-0.515,0.37-1.873,0.467-3.07c0.188-2.337,0.335-4.182,1.526-4.288
			c0.042-0.003,0.082-0.005,0.121-0.005c0.393,0,0.737,0.169,0.996,0.487c1.254,1.549,0.129,7.057-0.003,7.68
			c-0.221,1.057-0.658,2.547-1.06,3.85l0.046,0.016c1.841,0.647,2.737,0.986,2.995,1.624c0.239,0.595,1.629,4.544,2.762,8.132
			l0.541,0.278c0.25-0.124,0.667-0.611,0.805-0.883c-0.032-0.14-0.11-0.401-0.176-0.62c-0.424-1.414-0.95-3.175,0.191-3.581
			c0.108-0.039,0.228-0.06,0.353-0.06c1.375,0,3.694,2.855,3.694,4.189c0,0.614-0.193,1.419-0.38,2.196
			C187.428,194.445,187.288,195.028,187.258,195.334z M178.41,128.358c0.266,0.101,0.601,0.207,0.86,0.289
			c0.527,0.167,1.063,0.336,1.517,0.552c-0.708-0.475-1.376-0.917-1.961-0.917C178.687,128.282,178.549,128.308,178.41,128.358z"/>
	</g>
	<g>
		<path d="M208.959,208.889L208.959,208.889c-0.82,0-1.913-0.62-2.878-1.167c-0.41-0.232-0.798-0.452-1.029-0.542
			c-0.094-0.036-2.308-0.904-2.213-2.334c0.083-1.257,1.826-1.818,3.13-2.132c0.632-0.151,0.939-1.512,1.236-2.826
			c0.207-0.912,0.42-1.854,0.778-2.683c0.176-0.401,0.317-0.784,0.455-1.154c0.614-1.65,1.145-3.076,3.8-4.053
			c1.281-0.477,2.172-1.196,2.761-1.673c0.486-0.393,0.779-0.629,1.147-0.629c0.369,0,0.81,0.212,0.81,1.221
			c0,0.685-0.092,1.343-0.173,1.924c-0.024,0.173-0.052,0.369-0.073,0.556c0.221-0.4,0.47-0.951,0.667-1.499
			c0.089-0.245,0.33-0.4,0.587-0.396c0.261,0.009,0.485,0.186,0.556,0.438l0.867,3.097c0.349,0.127,0.995,0.329,1.547,0.268
			c0.05-0.005,0.097-0.008,0.142-0.008c0.995,0,1.122,1.024,1.191,1.574c0.026,0.215,0.07,0.574,0.142,0.66
			c0.176,0.115,0.493,0.25,0.841,0.376c-0.168-0.516-0.313-1.126-0.313-1.687c-0.004-0.349-0.092-0.619-0.178-0.88
			c-0.158-0.483-0.375-1.145,0.388-1.797l0.052-0.044c0.491-0.42,1.104-0.941,1.803-0.941c0.465,0,1.105,0.231,1.521,1.336
			c0.194,0.518,0.545,1.128,0.884,1.719c0.655,1.142,1.221,2.128,0.988,2.893c-0.091,0.3-0.293,0.533-0.583,0.677
			c-1.023,0.516-3.124,1.671-3.146,1.683c-0.135,0.076-3.446,1.932-5.18,2.476c-0.924,0.289-3.169,0.677-5.341,1.051
			c-1.463,0.253-3.263,0.563-3.711,0.702c-0.076,0.208-0.076,0.79-0.076,1.148c0,0.921,0,1.873-0.581,2.37
			C209.56,208.796,209.285,208.889,208.959,208.889z M215.748,191.264c-0.65,0.525-1.631,1.315-3.093,1.859
			c-2.141,0.787-2.519,1.806-3.092,3.347c-0.144,0.386-0.292,0.784-0.479,1.214c-0.313,0.724-0.514,1.61-0.708,2.469
			c-0.396,1.75-0.771,3.402-2.126,3.728c-2.155,0.518-2.214,1.039-2.214,1.039c-0.019,0.28,0.726,0.863,1.446,1.142
			c0.315,0.121,0.721,0.352,1.19,0.617c0.71,0.402,1.783,1.011,2.286,1.011l0,0c0.024,0,0.04-0.002,0.051-0.003
			c0.148-0.188,0.148-1.032,0.148-1.444c0-0.983,0-1.913,0.734-2.228c0.391-0.17,1.725-0.404,4.048-0.806
			c2.033-0.351,4.339-0.748,5.187-1.014c1.614-0.507,4.922-2.36,4.955-2.379c0.091-0.05,2.114-1.163,3.168-1.694
			c0.021-0.332-0.544-1.315-0.886-1.912c-0.362-0.632-0.737-1.285-0.966-1.894c-0.128-0.339-0.284-0.559-0.398-0.559
			c-0.257,0-0.737,0.41-1.024,0.655l-0.052,0.044c-0.15,0.129-0.15,0.129-0.025,0.51c0.098,0.299,0.231,0.708,0.237,1.248
			c0,1.011,0.671,2.36,0.678,2.374c0.106,0.211,0.078,0.464-0.07,0.647s-0.39,0.263-0.619,0.202
			c-0.172-0.046-1.702-0.459-2.397-0.923c-0.507-0.339-0.587-0.98-0.651-1.496c-0.019-0.151-0.048-0.385-0.087-0.515
			c-0.088,0.008-0.172,0.011-0.257,0.011c-1.013,0-2.047-0.466-2.091-0.485c-0.161-0.073-0.281-0.214-0.329-0.385l-0.492-1.757
			c-0.683,1.257-1.19,1.257-1.389,1.257l0,0c-0.09,0-0.179-0.014-0.263-0.042c-0.871-0.295-0.727-1.331-0.573-2.428
			C215.656,192.237,215.724,191.751,215.748,191.264z"/>
	</g>
	<g>
		<path d="M246.099,202.507L246.099,202.507c-0.813,0-1.357-0.083-1.714-0.26c-0.448-0.229-1.921-1.072-2.312-2.435
			c-0.184-0.638-0.089-1.294,0.272-1.897c0.852-1.421,2.902-1.634,4.049-1.634c0.181,0,0.325,0.006,0.417,0.011
			c0.232-0.058,0.473-0.085,0.732-0.085c0.614,0,1.226,0.162,1.816,0.32c0.542,0.145,1.102,0.294,1.646,0.311
			c0.304,0.008,0.59,0.039,0.842,0.066c0.228,0.024,0.442,0.048,0.617,0.048c0.321,0,0.576,0,0.68-1.111
			c0.179-2.027-1.326-4.756-1.743-5.048c-0.862-0.563-1.378-1.864-1.079-2.729c0.12-0.346,0.437-0.552,0.847-0.552
			c1.063,0,3.222,1.447,4.744,3.602c0.61,0.858,1.389,1.553,2.142,2.226c1.418,1.265,2.757,2.46,2.167,4.279
			c-0.847,2.618-4.799,3.464-7.415,4.023C250.868,202.058,247.941,202.507,246.099,202.507z M246.395,197.481
			c-0.562,0-2.436,0.076-3.02,1.051c-0.191,0.319-0.24,0.63-0.148,0.949c0.204,0.714,1.043,1.358,1.698,1.693
			c0.058,0.028,0.329,0.132,1.174,0.132c1.756,0,4.577-0.435,6.457-0.839c2.203-0.472,5.891-1.26,6.524-3.22
			c0.333-1.025-0.437-1.775-1.824-3.015c-0.765-0.683-1.633-1.457-2.321-2.426c-1.238-1.751-2.773-2.774-3.484-3.031
			c0.06,0.344,0.284,0.801,0.61,1.014c0.88,0.581,2.487,3.797,2.278,6.159c-0.095,1.027-0.395,2.203-1.874,2.203
			c-0.24,0-0.486-0.027-0.747-0.056c-0.24-0.025-0.489-0.053-0.746-0.06c-0.685-0.021-1.313-0.188-1.921-0.351
			c-0.758-0.202-1.473-0.368-2.013-0.213c-0.07,0.021-0.145,0.029-0.217,0.021C246.811,197.494,246.647,197.481,246.395,197.481z"/>
	</g>
</g>
</svg>
