<?xml version="1.0" encoding="iso-8859-1"?>
<!-- Generator: Adobe Illustrator 15.1.0, SVG Export Plug-In . SVG Version: 6.00 Build 0)  -->
<!DOCTYPE svg PUBLIC "-//W3C//DTD SVG 1.1//EN" "http://www.w3.org/Graphics/SVG/1.1/DTD/svg11.dtd">
<svg version="1.1" id="Layer_1" xmlns="http://www.w3.org/2000/svg" xmlns:xlink="http://www.w3.org/1999/xlink" x="0px" y="0px"
	 width="288px" height="288px" viewBox="0 0 288 288" style="enable-background:new 0 0 288 288;" xml:space="preserve">
<g>
	<g>
		<path d="M140.486,247.611c-0.233,0-0.448-0.136-0.546-0.353c-0.107-0.235-0.051-0.513,0.14-0.688
			c2.852-2.628,5.966-5.635,6.242-6.117c0.327-0.592,1.389-5.185,1.737-6.693c0.112-0.49,0.195-0.849,0.232-0.994
			c0.094-0.379,0.419-0.924,1.033-1.933c0.693-1.139,1.557-2.557,2.124-3.952c0.938-2.304,1.983-6.411,1.983-8.621
			c0-9.013-0.692-16.161-1.899-19.614c-1.523-4.348-2.769-6.407-4.211-8.791c-0.377-0.622-0.766-1.266-1.18-1.98
			c-2.057-3.553-4.504-11.215-4.504-12.282c0-0.946,1.525-3.043,2.35-4.108l-1.206-5.514c-1.448-2.213-2.142-3.623-2.06-4.193
			c0.13-0.896,1.605-2.599,2.524-3.331c0.64-0.514,2.137-5.022,2.829-8.141c0.489-2.199,0.302-6.834,0.269-7.571l-1.897-4.698
			c-0.12-0.298,0.016-0.638,0.308-0.771l3.753-1.706c0.165-1.168,0.721-5.117,0.879-6.134c0.159-1.041,0.894-1.122,1.115-1.122
			c0.216,0,0.425,0.061,0.604,0.141l1.611-2.226c0.162-0.225,0.457-0.309,0.713-0.204c0.482,0.197,1.418,0.511,1.875,0.511
			c0.02,0,0.035-0.001,0.049-0.002c0.166-0.201,0.432-0.868,0.585-1.481c0.01-0.038,0.022-0.076,0.04-0.112
			c0.706-1.483,1.874-3.979,2.001-4.356c0.087-0.26,2.797-4.305,3.682-4.305c0.347,0,0.619,0.274,0.619,0.626
			c0,0.214-0.085,0.483-0.277,1.072c-0.166,0.507-0.555,1.694-0.477,2.008c0.035,0.14,0.091,0.332,0.155,0.552
			c0.461,1.587,0.609,2.325,0.331,2.781c-0.078,0.129-0.188,0.228-0.316,0.29c-0.11,0.198-0.261,0.726-0.386,1.336
			c0.633,0.303,1.063,1.215,1.221,1.74c0.223,0.741-0.097,1.426-0.435,2.15c-0.225,0.48-0.457,0.979-0.563,1.542
			c-0.223,1.195,0.666,1.826,1.167,1.993c0.183,0.061,0.345,0.126,0.493,0.186c0.226,0.09,0.403,0.162,0.527,0.162
			c0.038,0,0.143,0,0.365-0.167c0.532-0.54,1.863-5.514,2.162-7.8c0.262-2.006-0.261-6.113-0.456-7.085
			c-0.22-1.084-0.378-2.634,0.128-3.849c0.511-1.232,1.52-1.717,1.95-1.924l0.087-0.042c0.08-0.04,0.181-0.082,0.298-0.129
			c0.394-0.16,0.989-0.4,1.646-1.121c1.013-1.111,3.068-1.195,5.056-1.277l0.52-0.022c0.621-0.028,0.753-0.158,0.754-0.159
			c0.021-0.062-0.026-0.302-0.055-0.446c-0.035-0.176-0.073-0.368-0.079-0.568c-0.107,0-0.23,0.005-0.367,0.01
			c-0.193,0.007-0.413,0.015-0.657,0.015c-0.354,0-0.686-0.017-1.014-0.051c-2.266-0.239-2.739-3.756-2.838-5.257
			c-0.185-2.756,0.9-3.422,1.843-3.494c0.422-0.033,1.096-1.049,1.535-2.069l-1.956-1.563c-0.202-0.162-0.278-0.435-0.188-0.677
			c0.09-0.243,0.32-0.4,0.583-0.392l4.908,0.163v-0.486c0-0.259,0.166-0.488,0.41-0.569c0.048-0.016,0.481-0.154,1.187-0.154
			c0.407,0,0.828,0.046,1.25,0.137c0.71,0.152,2.16,0.853,4.29,1.903c1.142,0.563,2.546,1.256,2.999,1.394
			c0.294-0.359,0.766-0.718,2.191-0.718c0.584,0,1.316,0.06,2.178,0.177c4.041,0.558,5.267,3.771,5.604,5.107
			c0.555-0.05,1.46-0.114,2.396-0.114c0.89,0,1.624,0.061,2.181,0.178c1.597,0.335,2.266,0.978,2.803,1.494
			c0.106,0.103,0.21,0.202,0.32,0.296c0,0,0.141,0.102,0.696,0.102c0.567,0,1.257-0.104,1.712-0.174
			c0.325-0.049,0.486-0.072,0.609-0.072c0.44,0,0.779,0.379,1.454,1.136c0.346,0.388,0.989,1.109,1.244,1.204
			c0.043,0.017,0.178,0.054,0.516,0.054c0.34,0,0.747-0.036,1.141-0.071c0.38-0.033,0.739-0.065,1.038-0.065
			c0.257,0,0.448,0.024,0.603,0.076c0.606,0.203,1.973,1.57,2.733,2.367c0.051,0.057,0.972,1.096,1.175,2.831
			c0.128,1.096,1.426,2.423,1.916,2.842c0.021,0.019,0.041,0.038,0.061,0.06c0.48,0.546,1.565,1.918,1.258,2.85
			c-0.07,0.214-0.273,0.589-0.847,0.712c-0.143,0.031-0.29,0.046-0.438,0.046c-0.815,0-1.528-0.46-2.102-0.829
			c-0.19-0.123-0.455-0.294-0.626-0.368c-0.001,0.094,0,0.206,0.002,0.306c0.006,0.463,0.017,1.162-0.148,2.113
			c-0.186,1.066,1.036,1.616,2.414,2.13c0.385,0.144,0.689,0.258,0.906,0.393c1.05,0.652,2.189,5.594,2.2,5.643
			c0.136,0.642,0.16,0.94,0.072,1.159c-0.067,0.49-0.052,3.168-0.04,5.333c0.012,2.06,0.023,4.189-0.016,5.35
			c-0.032,0.945,0.138,1.692,0.274,2.293c0.234,1.03,0.477,2.096-0.998,2.752c-0.547,0.242-0.604,0.648-0.634,1.29
			c-0.018,0.381-0.06,1.274-0.92,1.274c-0.103,0-0.208-0.016-0.323-0.047c-0.39-0.105-0.656-0.153-0.867-0.153
			c-0.216,0-0.398,0.053-0.699,0.138l-0.049,0.014c-0.182,0.052-0.331,0.379-0.389,0.587c0.29,6.636,0.068,6.709-0.415,6.869
			c-0.067,0.023-0.177,0.049-0.314,0.079c-0.372,0.081-0.996,0.217-1.385,0.605c-0.192,0.193-0.23,0.406-0.277,0.738
			c-0.048,0.35-0.114,0.827-0.575,1.104c-0.506,0.305-1.632,0.362-3.533,0.362c-0.03,0-0.147,0.043-0.321,0.24
			c-0.589,0.668-1.039,2.147-0.927,3.045c0.064,0.524,0.056,1.363,0.045,2.334c-0.018,1.675-0.045,4.205,0.426,4.99
			c0.477,0.793,3.523,1.832,6.327,2.463c0.467-0.27,1.685-1.857,2.351-2.727c1.09-1.421,1.501-1.922,1.858-2.083
			c0.519-0.719,1.82-5.082,1.992-6.715c0.139-1.319,0.587-1.688,1.204-2.064c0.231-0.141,0.449-0.273,0.682-0.557
			c0.933-1.141,4.491-2.43,5.52-2.52c0.089-0.131,0.207-0.459,0.288-0.685c0.236-0.658,0.531-1.478,1.25-1.766
			c0.363-0.145,0.779-0.215,1.271-0.215c1.089,0,2.642,0.347,5.037,1.123c3.838,1.244,6.963,9.772,7.138,12.324
			c0.172,2.494,1.672,5.631,2.464,6.686c1.018,1.357,1.884,5.936,2.054,9.359c0.169,3.386,3.539,6.37,3.573,6.399
			c0.028,0.025,0.055,0.053,0.078,0.083c0.129,0.166,0.774,1.033,0.774,1.842c0,0.31-0.155,0.897-0.451,1.996
			c-0.318,1.179-0.85,3.151-0.758,3.712c0.045,0.266,0.13,0.601,0.221,0.955c0.29,1.14,0.62,2.432,0.203,3.431
			c-0.163,0.391-0.354,0.721-0.537,1.041c-0.355,0.618-0.691,1.202-0.803,2.203c-0.027,0.241-0.201,1.032-1.299,1.032
			c-0.001,0-0.001,0-0.001,0c-0.53,0-1.201-0.175-1.978-0.376c-0.954-0.249-2.036-0.53-3.032-0.53c-0.625,0-1.136,0.11-1.56,0.336
			c-0.369,0.197-0.602,0.407-0.637,0.575c-0.055,0.262,0.295,0.707,0.576,1.064c0.387,0.492,0.787,1.001,0.684,1.591
			c-0.039,0.225-0.173,0.546-0.587,0.806c-0.483,0.302-0.38,1.407-0.27,2.578c0.116,1.229,0.248,2.623-0.233,3.778
			c-0.356,0.857-1.039,1.752-1.762,2.699c-1.225,1.605-2.614,3.427-2.614,5.363c0,4.138-2.383,8.003-3.803,9.938
			c-1.924,2.62-2.833,7.805-2.842,7.857c-0.043,0.251-0.241,0.448-0.492,0.489l-36.492,6.083c-0.174,0.029-0.353-0.021-0.487-0.134
			c-0.134-0.114-0.212-0.282-0.212-0.458v-2.284l-55.551,5.829C140.528,247.61,140.507,247.611,140.486,247.611z M141.916,161.918
			c0.069,0.436,1.043,2.136,1.93,3.485c0.041,0.062,0.069,0.13,0.085,0.201l1.29,5.897c0.038,0.176-0.004,0.358-0.114,0.5
			c-1.081,1.372-2.25,3.143-2.268,3.592c0.012,0.855,2.344,8.228,4.342,11.679c0.408,0.705,0.795,1.344,1.168,1.961
			c1.478,2.441,2.752,4.55,4.316,9.016c1.713,4.895,1.968,14.639,1.968,20.011c0,2.383-1.071,6.616-2.071,9.073
			c-0.604,1.485-1.533,3.011-2.211,4.124c-0.394,0.646-0.84,1.379-0.895,1.601c-0.037,0.144-0.117,0.494-0.228,0.973
			c-0.869,3.76-1.518,6.391-1.857,7.006c-0.366,0.658-3.313,3.465-5.158,5.191l54.425-5.711c0.171-0.017,0.338,0.036,0.465,0.15
			c0.126,0.114,0.198,0.276,0.198,0.446v2.241l35.38-5.896c0.267-1.344,1.204-5.526,2.978-7.942c1.334-1.817,3.57-5.433,3.57-9.229
			c0-2.342,1.521-4.334,2.86-6.092c0.675-0.883,1.312-1.718,1.608-2.432c0.365-0.879,0.254-2.062,0.146-3.205
			c-0.146-1.551-0.284-3.015,0.828-3.708c0.01-0.006,0.018-0.012,0.025-0.017c-0.061-0.15-0.288-0.439-0.43-0.621
			c-0.436-0.554-0.978-1.243-0.807-2.053c0.115-0.547,0.522-1,1.246-1.387c0.603-0.321,1.297-0.478,2.124-0.478
			c1.149,0,2.311,0.302,3.335,0.568c0.667,0.174,1.298,0.338,1.675,0.338h0.001c0.048,0,0.084-0.003,0.109-0.006
			c0.15-1.232,0.575-1.974,0.952-2.628c0.173-0.301,0.336-0.584,0.47-0.905c0.263-0.628-0.026-1.761-0.259-2.672
			c-0.097-0.379-0.188-0.736-0.241-1.054c-0.125-0.761,0.245-2.229,0.782-4.221c0.18-0.667,0.403-1.496,0.41-1.687
			c0-0.281-0.281-0.781-0.489-1.061c-0.458-0.412-3.75-3.495-3.935-7.202c-0.188-3.786-1.131-7.785-1.815-8.699
			c-0.844-1.124-2.501-4.426-2.7-7.323c-0.178-2.583-3.22-10.262-6.312-11.265c-3.038-0.985-4.661-1.267-5.492-0.936
			c-0.217,0.087-0.427,0.671-0.566,1.058c-0.236,0.656-0.53,1.474-1.314,1.474c-0.595,0-4.009,1.247-4.694,2.085
			c-0.361,0.441-0.707,0.651-0.985,0.821c-0.387,0.235-0.547,0.333-0.635,1.164c-0.106,1.018-0.598,2.907-1.037,4.33
			c-0.909,2.939-1.338,3.285-1.661,3.367c-0.247,0.211-0.905,1.07-1.394,1.706c-1.712,2.232-2.54,3.211-3.275,3.212
			c-0.061,0-0.119-0.007-0.177-0.02c-1.866-0.414-6.304-1.538-7.206-3.041c-0.599-0.998-0.625-3.047-0.598-5.621
			c0.01-0.89,0.02-1.729-0.035-2.173c-0.155-1.236,0.401-3.063,1.218-3.987c0.472-0.534,0.924-0.646,1.221-0.646
			c0.609,0,2.424,0,2.876-0.174c0.018-0.062,0.032-0.172,0.044-0.258c0.052-0.372,0.13-0.934,0.617-1.421
			c0.587-0.587,1.369-0.795,1.856-0.903c0.063-0.886,0.007-3.495-0.097-5.835c-0.002-0.048,0.002-0.096,0.011-0.143
			c0.026-0.132,0.283-1.29,1.254-1.566l0.048-0.014c0.582-0.166,1.041-0.272,1.937-0.058c0.001-0.02,0.002-0.038,0.002-0.056
			c0.029-0.619,0.082-1.771,1.345-2.331c0.542-0.241,0.56-0.319,0.316-1.389c-0.145-0.634-0.342-1.501-0.304-2.601
			c0.038-1.136,0.026-3.254,0.015-5.303c-0.024-4.443-0.004-5.382,0.09-5.707c-0.052-0.838-1.267-4.907-1.775-5.427
			c-0.126-0.071-0.403-0.175-0.673-0.274c-1.24-0.463-3.548-1.323-3.177-3.46c0.146-0.841,0.138-1.448,0.131-1.892
			c-0.009-0.604-0.021-1.431,0.939-1.55c0.046-0.006,0.092-0.009,0.139-0.009c0.473,0,0.922,0.289,1.396,0.596
			c0.511,0.329,1.107,0.702,1.586,0.628c-0.063-0.313-0.498-1.017-0.982-1.575c-0.333-0.291-2.097-1.902-2.293-3.584
			c-0.157-1.339-0.858-2.149-0.866-2.157c-0.839-0.878-1.946-1.918-2.238-2.045c0.006,0.001-0.059-0.012-0.215-0.012
			c-0.246,0-0.579,0.03-0.933,0.061c-0.42,0.037-0.854,0.075-1.246,0.075c-0.404,0-0.702-0.041-0.937-0.129
			c-0.495-0.186-1.002-0.727-1.719-1.529c-0.224-0.251-0.517-0.579-0.678-0.721c-0.089,0.012-0.207,0.029-0.311,0.045
			c-0.491,0.074-1.234,0.187-1.892,0.187c-0.699,0-1.169-0.124-1.479-0.391c-0.126-0.107-0.246-0.223-0.369-0.341
			c-0.493-0.474-0.958-0.921-2.219-1.186c-0.477-0.101-1.127-0.151-1.934-0.151c-1.407,0-2.791,0.159-2.806,0.16
			c-0.155,0.019-0.316-0.026-0.442-0.126c-0.124-0.1-0.205-0.244-0.223-0.402c-0.02-0.164-0.528-4.062-4.693-4.636
			c-0.806-0.11-1.483-0.167-2.014-0.167c-1.051,0-1.202,0.198-1.293,0.316c-0.126,0.164-0.427,0.525-1.061,0.397
			c-0.48-0.096-1.593-0.637-3.367-1.513c-1.512-0.745-3.395-1.674-4.012-1.807c-0.339-0.072-0.675-0.109-0.998-0.109
			c-0.151,0-0.284,0.009-0.396,0.02v0.61c0,0.162-0.065,0.318-0.183,0.431c-0.117,0.113-0.277,0.173-0.438,0.169l-3.722-0.124
			l0.892,0.713c0.202,0.161,0.278,0.434,0.189,0.676c-0.191,0.521-1.223,3.133-2.729,3.25c-0.586,0.045-0.834,0.791-0.738,2.219
			c0.13,1.982,0.727,4.032,1.767,4.143c0.285,0.029,0.575,0.044,0.888,0.044c0.228,0,0.433-0.007,0.613-0.014
			c0.156-0.006,0.295-0.011,0.417-0.011c0.243,0,0.697,0,0.989,0.332c0.177,0.2,0.247,0.463,0.207,0.78
			c-0.012,0.093,0.022,0.268,0.054,0.422c0.08,0.401,0.189,0.951-0.178,1.42c-0.301,0.385-0.823,0.581-1.644,0.619l-0.524,0.021
			c-1.661,0.069-3.543,0.146-4.219,0.888c-0.84,0.922-1.617,1.236-2.082,1.425c-0.083,0.033-0.155,0.062-0.213,0.09l-0.103,0.05
			c-0.384,0.185-1.026,0.494-1.362,1.303c-0.303,0.729-0.324,1.849-0.059,3.151c0.154,0.772,0.769,5.177,0.47,7.479
			c-0.206,1.573-1.57,7.806-2.633,8.604c-0.37,0.277-0.716,0.406-1.085,0.406c-0.355,0-0.656-0.12-0.975-0.248
			c-0.128-0.052-0.268-0.107-0.425-0.16c-1.176-0.392-2.293-1.608-1.967-3.353c0.134-0.714,0.41-1.306,0.654-1.829
			c0.249-0.534,0.465-0.994,0.374-1.298c-0.12-0.399-0.316-0.719-0.46-0.885c-0.153,0.108-0.355,0.144-0.542,0.079
			c-0.273-0.095-0.442-0.367-0.4-0.652c0.299-2.021,0.676-2.692,0.973-2.935c-0.032-0.417-0.301-1.34-0.424-1.764
			c-0.069-0.237-0.13-0.446-0.168-0.598c-0.072-0.293-0.045-0.663,0.047-1.098c-0.617,0.782-1.199,1.572-1.295,1.799
			c-0.181,0.541-1.746,3.838-2.026,4.427c-0.116,0.45-0.473,1.667-1.021,2.105c-0.189,0.152-0.439,0.227-0.762,0.227
			c-0.575,0-1.384-0.252-1.885-0.431l-1.665,2.3c-0.098,0.135-0.246,0.223-0.411,0.244c-0.166,0.021-0.331-0.028-0.459-0.135
			c-0.086-0.069-0.208-0.141-0.297-0.177c-0.006,0.022-0.011,0.05-0.016,0.082c-0.185,1.184-0.915,6.392-0.923,6.444
			c-0.028,0.203-0.158,0.378-0.346,0.463l-3.529,1.604l1.72,4.261c0.025,0.062,0.04,0.127,0.043,0.193
			c0.012,0.222,0.273,5.454-0.29,7.992c-0.261,1.174-1.968,7.786-3.251,8.817C143.059,160.131,142.017,161.511,141.916,161.918z"/>
	</g>
	<g>
		<path d="M108.592,126.443c-0.107,0-0.216-0.029-0.313-0.089c-1.684-1.031-2.711-1.859-3.054-2.46
			c-0.374-0.654-0.063-1.859,0.521-3.933c0.246-0.873,0.602-2.137,0.616-2.669c-0.456,0.022-1.261,0.255-2.04,0.48
			c-1,0.289-1.944,0.563-2.628,0.563c-0.294,0-0.531-0.051-0.725-0.155c-0.438-0.235-0.672-0.679-0.658-1.247
			c0.023-1.051,0.894-2.415,1.824-2.862c0.388-0.313,0.038-2.816-0.466-3.992c-0.289-0.672-0.112-1.143,0.017-1.487
			c0.114-0.303,0.183-0.485-0.014-0.925c-0.343-0.771-0.377-1.112-0.161-1.587c0.057-0.124,0.109-0.241,0.109-0.591
			c0-0.597-0.748-1.029-1.97-1.686c-0.248-0.134-0.506-0.272-0.767-0.419c-0.581-0.329-1.622-0.456-2.541-0.568
			c-1.553-0.188-3.02-0.367-3.15-1.547c-0.051-0.459-0.014-0.92,0.022-1.365c0.068-0.831,0.127-1.55-0.361-2.107
			c-0.483-0.552-2.237-0.833-3.519-1.039c-0.871-0.141-1.624-0.261-2.123-0.455c-0.31-0.121-0.729-0.175-1.359-0.175
			c-0.517,0-1.138,0.037-1.857,0.079c-1.039,0.061-2.331,0.137-3.891,0.137c-3.214,0-5.546-0.976-7.09-1.621
			c-0.407-0.17-0.759-0.317-1.05-0.414c-0.811-0.271-1.748-0.916-2.575-1.485c-0.551-0.379-1.384-0.952-1.639-0.975
			c-0.222-0.019-25.541-4.905-26.547-5.821c-0.668-0.607-1.89-2.666-3.082-4.724c-0.136-0.232-0.254-0.437-0.35-0.6
			c-0.51-0.867-0.874-0.948-2.686-1.018c-0.615-0.026-1.26-0.209-2.028-0.577c-0.208-0.1-0.341-0.311-0.341-0.542
			c0-0.536,1.886-2.599,2.522-2.758c0.373-0.094,4.738-1.672,7.517-2.687c4.644-6.04,5.169-6.04,5.484-6.04
			c0.155-0.001,0.817-0.146,1.35-0.263c1.148-0.253,2.578-0.566,3.488-0.566c1.448,0,6.055-0.987,6.84-1.547
			c0.658-0.471,2.685-2.916,3.886-4.444c0.097-0.123,0.237-0.204,0.393-0.225c2.006-0.268,4.008-0.795,4.284-1.127l2.207-3.311
			c0.022-0.032,0.047-0.063,0.075-0.091l4.839-4.839c0.04-0.04,0.085-0.074,0.134-0.102c1.553-0.855,3.367-1.956,3.736-2.322
			c0.209-0.737,1.213-2.282,1.339-2.475c1.526-2.327,2.118-2.327,2.402-2.327c0.416-0.05,2.068-1.252,3.343-2.343
			c0.07-0.062,0.154-0.104,0.244-0.127c0.022-0.006,2.271-0.564,5.032-0.979c0.567-0.085,1.192-0.128,1.859-0.128
			c2.08,0,5.419,0.488,6.093,1.835c0.227,0.455,0.218,0.92-0.023,1.312c-0.397,0.642-1.418,1.01-2.801,1.01
			c-0.36,0-0.733-0.024-1.109-0.075c-0.248-0.033-0.481-0.05-0.695-0.05c-0.956,0-1.266,0.328-1.268,0.421
			c0.129,0.523-0.048,1.754-0.709,2.599c-0.465,0.593-1.091,0.906-1.81,0.906c-0.566,0-0.581,0.06-0.72,0.63
			c-0.098,0.401-0.219,0.9-0.623,1.372l-0.147,0.172c-0.746,0.873-1.341,1.569-2.215,1.901c0.012,0.081,0.034,0.187,0.051,0.259
			c0.077,0.357,0.175,0.802-0.093,1.187c-0.11,0.158-0.326,0.359-0.73,0.417c-0.616,0.088-1.109,0.476-1.268,0.613l-1.118,1.986
			c-0.005,0.597-0.146,2.439-1.643,3.479c0.026,0.653,0.051,2.059-0.166,3.248c-0.176,0.968-0.237,1.798-0.23,2.352
			c0.303-0.523,0.688-1.32,1.021-2.133c0.032-0.079,0.081-0.15,0.144-0.209c2.028-1.914,4.644-4.194,5.586-4.194
			c0.108,0,0.212,0.02,0.308,0.059c0.244,0.102,0.42,0.3,0.481,0.544c0.13,0.523-0.282,1.022-0.761,1.601
			c-0.057,0.068-0.125,0.15-0.193,0.236c0.407-0.055,0.933-0.165,1.446-0.271c0.858-0.18,1.67-0.35,2.253-0.35
			c0.739,0,7,0.47,7.824,1.088c0.396,0.298,0.505,0.705,0.562,0.979c0.838,0.012,3.964,1.715,3.964,2.681
			c0,0.229-0.088,0.467-0.19,0.742c-0.049,0.132-0.128,0.347-0.162,0.497c1.086,0.307,3.531,2.013,3.531,3.322
			c0,0.218,0.852,0.713,1.757,0.939c0.156,0.039,0.29,0.139,0.371,0.277c0.082,0.139,0.104,0.304,0.063,0.459
			c-0.016,0.062-0.389,1.551,0.594,1.907c0.459,0.167,1.186,0.252,2.16,0.252c0.799,0,1.63-0.058,2.236-0.1
			c0.401-0.028,0.718-0.05,0.928-0.05c0.393,0,1.938-0.811,3.136-1.566c0.232-0.146,0.533-0.117,0.733,0.071
			c1.123,1.064,2.638,2.246,3.281,2.442c0.004-0.035,0.007-0.071,0.009-0.102c0.035-0.42,0.129-1.536,1.52-1.536
			c1.204,0,2.506,0.875,3.457,1.515c0.171,0.114,0.368,0.248,0.515,0.338c0.631-0.594,2.409-2.723,3.947-4.667
			c0.094-0.118,0.228-0.197,0.377-0.221c0.03-0.005,3.32-0.594,6.66-4.627c0.14-0.169,0.36-0.25,0.575-0.207l1.963,0.376
			l4.654-2.394c0.088-0.045,0.182-0.069,0.283-0.066l8.944,0.135c0.892-0.564,5.291-3.342,6.937-4.22
			c1.395-0.744,4.167-1.262,5.782-1.262c0.471,0,1.721,0,1.866,0.871c0.149,0.898-0.843,2.614-1.374,3.453
			c0.005,1.217,0.058,4.027,0.262,4.948c0.064,0.29,0.108,0.564,0.147,0.806c0.047,0.295,0.111,0.693,0.187,0.81
			c0.022,0.001,0.067,0,0.109-0.006c0.99-0.143,2.767-0.144,2.842-0.144c0.079,0,0.158,0.016,0.231,0.046l3.011,1.255l3.461-2.437
			c0.159-0.111,0.361-0.139,0.544-0.075l2.456,0.859c0.776-0.597,2.684-1.998,3.619-2.132c0.17-0.024,0.502-0.195,0.796-0.347
			c0.556-0.287,1.187-0.612,1.816-0.612c0.539,0,1.261,0.237,1.637,1.363c0.308,0.923,0.869,1.883,1.366,2.729
			c0.644,1.1,1.152,1.969,1.152,2.713c0,0.529-0.3,1.017-0.59,1.489c-0.23,0.375-0.518,0.841-0.442,1.072
			c0.05,0.151,0.29,0.325,0.661,0.479c1.63,0.671,4.471,2.008,5.19,3.428c0.262,0.517,0.298,1.109,0.33,1.632
			c0.017,0.281,0.045,0.751,0.131,0.849c0.49-0.005,2.232-0.949,3.273-1.514c1.229-0.665,1.943-1.045,2.359-1.114l0.209-0.036
			c0.423-0.076,1.002-0.18,1.723-0.18c1.043,0,2.088,0.227,3.106,0.672c2.496,1.092,3.401,3.159,3.401,4.282
			c0,1.146-0.791,3.393-2.62,3.393c-0.317,0-0.647-0.072-0.98-0.215c-0.545-0.233-1.168-0.559-1.771-0.873
			c-0.731-0.382-1.695-0.885-2.217-1.024c0.035,0.738-0.095,1.631-0.566,2.152c-0.254,0.279-0.576,0.427-0.935,0.427
			c-0.422,0-0.866-0.211-1.318-0.628c-0.582-0.535-1.059-0.607-1.448-0.607c-0.273,0-0.563,0.041-0.87,0.084
			c-0.359,0.051-0.732,0.104-1.145,0.104c-0.369,0-0.996,0.011-1.745,0.022c-1.117,0.018-2.508,0.039-3.723,0.039
			c-1.187,0-1.993-0.021-2.466-0.063c-0.478-0.044-1.278,0.149-2.057,0.333c-0.86,0.202-1.749,0.412-2.503,0.412
			c-0.798,0-1.366-0.247-1.69-0.733c-0.522-0.783-1.634-1.252-2.406-1.252c-0.175,0-0.327,0.027-0.42,0.073
			c-0.179,0.09-0.218,0.169-0.303,0.968c-0.053,0.498-0.125,1.181-0.354,2.055c-0.214,0.82-0.146,1.646-0.093,2.309
			c0.063,0.787,0.114,1.409-0.287,1.844c-0.216,0.234-0.516,0.353-0.892,0.353c-1.255,0-3.811-0.556-6.825-4.278
			c-1.904-2.348-5.903-2.431-8.824-2.491c-1.019-0.021-1.897-0.039-2.557-0.149c-0.5-0.083-0.915-0.124-1.269-0.124
			c-1.095,0-1.547,0.355-1.934,1.519l-0.061,0.182c-0.527,1.584-0.909,2.729-2.499,3.365c-0.977,0.391-2.385,0.473-3.395,0.473
			c-0.207,0-0.381-0.004-0.508-0.008c-0.557,0.411-2.175,1.513-3.509,1.513c-0.437,0-0.976-0.026-1.546-0.055
			c-0.653-0.031-1.394-0.068-2.078-0.068c-0.697,0-1.239,0.037-1.658,0.113c-1.155,0.211-2.624,1.824-3.017,2.403
			c-0.007,0.155,0.047,0.525,0.087,0.803c0.153,1.068,0.363,2.531-0.675,2.976c-0.634,0.272-2.078,1.31-3.034,1.996
			c-0.415,0.298-0.772,0.555-1.016,0.717c-0.773,0.517-2.603,3.248-2.521,3.928c0.186,0.198,0.218,0.501,0.067,0.735
			c-0.162,0.254-0.489,0.349-0.763,0.218c-0.371-0.177-2.237-1.118-2.524-2.283c-0.098-0.395-0.019-0.777,0.229-1.107
			c1.104-1.47,2.803-4.134,2.851-4.798c0.021-0.268,0.034-0.58,0.042-0.888c-0.719,0.752-1.644,1.552-2.298,1.552
			c-0.119,0-0.232-0.021-0.338-0.063c-0.356-0.144-0.623-0.417-0.858-0.658c-0.177-0.181-0.396-0.406-0.522-0.406
			c-0.041,0-0.103,0.021-0.172,0.061c-0.295,0.169-0.17,1.332,0.131,2.183c0.059,0.167,0.041,0.351-0.048,0.503
			c-0.042,0.071-1.031,1.756-2.063,2.641c-0.995,0.852-2.374,1.682-2.432,1.717c-0.154,0.093-0.342,0.111-0.512,0.051
			c-0.169-0.061-0.302-0.194-0.362-0.363c-0.237-0.666-1.416-4.045-1.348-5.212c0.012-0.188-0.004-0.369-0.033-0.527
			c-0.521,1.563-0.853,2.607-0.282,3.75c0.387,0.773,0.637,2.3-2.036,3.829c-0.682,0.497-2.858,5.648-3.788,7.848
			c-0.263,0.622-0.489,1.158-0.66,1.548l-0.051,0.118c-0.771,1.76-3.114,7.113-6.17,10.904
			C108.942,126.365,108.769,126.443,108.592,126.443z M106.431,116.091c0.248,0,0.451,0.042,0.621,0.126
			c0.872,0.437,0.487,1.804-0.15,4.069c-0.279,0.996-0.748,2.661-0.624,3.034c0.15,0.26,0.81,0.855,2.177,1.729
			c2.796-3.636,4.95-8.557,5.676-10.215l0.052-0.117c0.169-0.387,0.394-0.918,0.653-1.534c2.205-5.218,3.475-7.953,4.299-8.423
			c0.951-0.544,1.994-1.377,1.558-2.251c-0.803-1.605-0.317-3.06,0.243-4.743c0.097-0.292,0.393-1.179,1.135-1.179
			c0.173,0,0.43,0.054,0.67,0.31c0.425,0.452,0.577,1.315,0.538,1.926c-0.035,0.607,0.543,2.562,1.035,4.025
			c0.472-0.31,1.123-0.759,1.64-1.201c0.679-0.582,1.38-1.646,1.67-2.109c-0.24-0.794-0.664-2.685,0.496-3.348
			c0.254-0.145,0.513-0.219,0.767-0.219c0.633,0,1.048,0.427,1.382,0.77c0.127,0.129,0.268,0.273,0.381,0.347
			c0.504-0.175,1.997-1.776,2.301-2.212c0.114-0.185,0.307-0.293,0.518-0.293c0.167,0,0.33,0.072,0.443,0.194
			c0.228,0.244,0.276,1.236,0.146,2.947c-0.102,1.415-3.057,5.39-3.087,5.43c-0.033,0.044-0.032,0.063-0.023,0.1
			c0.066,0.269,0.485,0.638,0.965,0.961c0.456-1.544,2.248-3.804,2.946-4.27c0.225-0.15,0.575-0.402,0.98-0.693
			c1.117-0.802,2.507-1.801,3.262-2.124c0.177-0.19,0.019-1.289-0.041-1.702c-0.104-0.724-0.172-1.201,0.045-1.549
			c0.253-0.405,2.035-2.677,3.858-3.009c0.49-0.089,1.104-0.133,1.873-0.133c0.714,0,1.47,0.038,2.138,0.07
			c0.555,0.027,1.079,0.053,1.486,0.053c0.965,0,2.455-1.005,2.947-1.392c0.114-0.09,0.261-0.132,0.404-0.128
			c0.008,0.001,0.27,0.015,0.665,0.015c0.74,0,2.107-0.05,2.948-0.387c1.073-0.43,1.304-1.119,1.807-2.63l0.061-0.183
			c0.552-1.66,1.442-2.339,3.072-2.339c0.42,0,0.899,0.046,1.466,0.141c0.574,0.096,1.413,0.113,2.384,0.134
			c3.156,0.065,7.478,0.155,9.732,2.935c2.803,3.461,5.055,3.834,5.893,3.834c0.003,0,0.006,0,0.008,0
			c0.033-0.179-0.001-0.59-0.025-0.899c-0.058-0.714-0.137-1.691,0.128-2.708c0.206-0.788,0.271-1.393,0.321-1.879
			c0.087-0.813,0.161-1.516,0.959-1.914c0.265-0.132,0.587-0.199,0.957-0.199c1.1,0,2.622,0.613,3.404,1.786
			c0.109,0.164,0.437,0.198,0.692,0.198c0.614,0,1.435-0.193,2.228-0.38c0.923-0.218,1.798-0.418,2.44-0.36
			c0.431,0.039,1.224,0.059,2.357,0.059c1.206,0,2.591-0.021,3.704-0.039c0.757-0.012,1.391-0.021,1.764-0.021
			c0.328,0,0.644-0.045,0.977-0.092c0.335-0.048,0.681-0.097,1.038-0.097c0.856,0,1.575,0.294,2.261,0.925
			c0.328,0.303,0.488,0.312,0.506,0.312c0.114-0.035,0.379-0.604,0.289-1.494c-0.042-0.419,0.104-0.677,0.232-0.819
			c0.126-0.139,0.358-0.304,0.751-0.304c0.657,0,1.572,0.452,3.001,1.197c0.582,0.305,1.185,0.619,1.688,0.835
			c0.183,0.078,0.354,0.117,0.508,0.117c0.923,0,1.421-1.556,1.421-2.192c0-0.776-0.729-2.328-2.684-3.183
			c-0.878-0.385-1.736-0.571-2.625-0.571c-0.614,0-1.111,0.089-1.511,0.16l-0.224,0.039c-0.248,0.045-1.252,0.589-1.984,0.985
			c-1.844,0.999-3.106,1.653-3.839,1.653c-0.06,0-0.114-0.004-0.165-0.011c-1.061-0.15-1.127-1.239-1.171-1.959
			c-0.026-0.427-0.053-0.867-0.203-1.163c-0.302-0.597-1.663-1.661-4.576-2.86c-0.737-0.304-1.178-0.702-1.345-1.217
			c-0.247-0.759,0.201-1.487,0.561-2.072c0.184-0.299,0.413-0.671,0.413-0.86c0-0.419-0.503-1.276-0.989-2.106
			c-0.525-0.897-1.122-1.915-1.469-2.956c-0.181-0.543-0.387-0.543-0.498-0.543c-0.339,0-0.832,0.255-1.267,0.479
			c-0.415,0.214-0.806,0.416-1.176,0.469c-0.498,0.071-2.104,1.14-3.307,2.089c-0.161,0.127-0.376,0.162-0.57,0.095l-2.473-0.865
			l-3.48,2.449c-0.168,0.118-0.386,0.143-0.576,0.063l-3.204-1.335c-0.41,0.003-1.785,0.021-2.553,0.131
			c-0.092,0.014-0.177,0.02-0.256,0.02c-1.104,0-1.267-1.01-1.396-1.82c-0.037-0.236-0.076-0.48-0.133-0.736
			c-0.288-1.294-0.291-5.216-0.291-5.383c0-0.115,0.033-0.229,0.096-0.326c0.637-0.984,1.176-2.081,1.279-2.572
			c-0.121-0.025-0.329-0.051-0.667-0.051c-1.602,0-4.138,0.544-5.218,1.12c-1.756,0.937-6.957,4.237-7.009,4.271
			c-0.099,0.063-0.212,0.1-0.331,0.094l-8.974-0.136l-4.705,2.419c-0.119,0.062-0.254,0.082-0.387,0.056l-1.821-0.348
			c-3.077,3.587-6.064,4.52-6.925,4.725c-3.99,5.033-4.376,5.033-4.687,5.033c-0.324,0-0.635-0.208-1.252-0.624
			c-0.776-0.521-1.948-1.311-2.787-1.311c-0.196,0-0.253,0.041-0.254,0.041c-0.04,0.047-0.06,0.274-0.069,0.396
			c-0.028,0.337-0.104,1.23-1.054,1.23c-0.058,0-0.121-0.004-0.188-0.013c-1.047-0.131-2.902-1.719-3.729-2.472
			c-0.896,0.544-2.594,1.508-3.384,1.508c-0.168,0-0.481,0.022-0.845,0.047c-0.624,0.044-1.479,0.103-2.319,0.103
			c-1.131,0-1.971-0.105-2.569-0.323c-1.315-0.478-1.539-1.804-1.445-2.765c-0.843-0.283-2.13-0.888-2.13-1.946
			c-0.002-0.5-1.903-2.044-2.678-2.173c-0.415-0.069-0.627-0.299-0.731-0.479c-0.288-0.497-0.064-1.101,0.115-1.586
			c0.024-0.064,0.055-0.147,0.079-0.218c-0.474-0.482-2.241-1.567-2.726-1.587c-0.082,0.015-0.158,0.022-0.233,0.022
			c-0.747,0-0.886-0.693-0.932-0.921c-0.034-0.17-0.057-0.261-0.105-0.309c-0.673-0.312-5.737-0.859-7.117-0.859
			c-0.459,0-1.246,0.164-2.008,0.323c-0.818,0.172-1.592,0.333-2.125,0.333c-0.246,0-0.603-0.028-0.854-0.278
			c-0.365-0.366-0.263-0.791-0.005-1.215c-0.939,0.742-2.146,1.798-3.212,2.797c-1.362,3.293-1.996,3.293-2.303,3.293
			c-0.245,0-0.471-0.108-0.634-0.305c-0.608-0.728-0.269-3.037-0.095-3.996c0.26-1.43,0.131-3.296,0.13-3.314
			c-0.017-0.235,0.105-0.458,0.312-0.57c1.446-0.785,1.348-2.727,1.347-2.746c-0.007-0.115,0.02-0.229,0.076-0.33l1.244-2.211
			c0.026-0.048,0.06-0.092,0.099-0.13c0.032-0.032,0.779-0.77,1.856-0.976c-0.012-0.062-0.026-0.129-0.038-0.184
			c-0.078-0.357-0.286-1.309,0.629-1.612c0.62-0.207,1.088-0.755,1.796-1.583l0.148-0.174c0.217-0.253,0.291-0.555,0.368-0.874
			c0.149-0.616,0.376-1.547,1.886-1.547c0.339,0,0.618-0.141,0.851-0.429c0.438-0.544,0.545-1.397,0.502-1.594
			c-0.092-0.365,0.001-0.764,0.256-1.09c0.236-0.304,0.835-0.813,2.178-0.813c0.267,0,0.554,0.021,0.854,0.061
			c0.323,0.043,0.644,0.065,0.951,0.065c1.098,0,1.674-0.271,1.78-0.442c0.006-0.009,0.022-0.037-0.03-0.144
			c-0.232-0.466-2.354-1.171-5.019-1.171c-0.607,0-1.173,0.038-1.681,0.114c-2.319,0.349-4.266,0.8-4.784,0.925
			c-1.138,0.967-3.038,2.467-3.951,2.535c-0.621,0.311-2.443,3.252-2.643,3.885c-0.012,0.35-0.228,0.832-4.243,3.052l-4.736,4.737
			l-2.179,3.267c-0.599,0.898-3.442,1.408-4.878,1.611c-0.675,0.853-3.067,3.836-3.981,4.489c-1.13,0.806-6.108,1.771-7.537,1.771
			c-0.78,0-2.196,0.311-3.231,0.538c-0.73,0.16-1.178,0.257-1.461,0.283c-0.582,0.435-2.85,3.197-4.784,5.717
			c-0.069,0.09-0.163,0.159-0.27,0.198c-0.73,0.267-7.078,2.584-7.777,2.776c-0.229,0.115-0.813,0.769-1.283,1.347
			c0.314,0.106,0.598,0.163,0.862,0.174c1.738,0.066,2.788,0.106,3.672,1.608c0.098,0.165,0.217,0.371,0.353,0.606
			c0.722,1.243,2.208,3.806,2.817,4.404c1.573,0.756,24.554,5.412,25.877,5.547c0.541,0.045,1.194,0.479,2.217,1.182
			c0.762,0.524,1.625,1.118,2.274,1.336c0.333,0.11,0.704,0.266,1.133,0.445c1.542,0.645,3.654,1.527,6.627,1.527
			c1.524,0,2.798-0.075,3.82-0.135c0.738-0.043,1.377-0.08,1.928-0.08c0.786,0,1.34,0.078,1.795,0.256
			c0.38,0.147,1.107,0.265,1.878,0.389c1.702,0.273,3.463,0.556,4.231,1.433c0.822,0.941,0.732,2.033,0.654,2.996
			c-0.033,0.406-0.064,0.791-0.026,1.135c0.143,0.25,1.418,0.405,2.103,0.489c1.081,0.131,2.197,0.268,2.987,0.714
			c0.253,0.143,0.503,0.277,0.744,0.406c1.338,0.72,2.602,1.398,2.602,2.743c0,0.563-0.107,0.846-0.218,1.088
			c-0.012,0.025-0.023,0.048-0.031,0.072l0,0c0.004,0,0.014,0.116,0.197,0.529c0.396,0.889,0.182,1.459,0.041,1.835
			c-0.1,0.265-0.137,0.363-0.038,0.593c0.02,0.046,1.698,4.672-0.116,5.546c-0.435,0.209-0.963,0.952-1.109,1.56
			c-0.064,0.268-0.026,0.392-0.013,0.41c0.004,0,0.051,0.014,0.16,0.014c0.513,0,1.459-0.273,2.294-0.515
			C104.93,116.349,105.818,116.091,106.431,116.091z"/>
	</g>
</g>
</svg>
