<?xml version="1.0" encoding="iso-8859-1"?>
<!-- Generator: Adobe Illustrator 15.1.0, SVG Export Plug-In . SVG Version: 6.00 Build 0)  -->
<!DOCTYPE svg PUBLIC "-//W3C//DTD SVG 1.1//EN" "http://www.w3.org/Graphics/SVG/1.1/DTD/svg11.dtd">
<svg version="1.1" id="Layer_1" xmlns="http://www.w3.org/2000/svg" xmlns:xlink="http://www.w3.org/1999/xlink" x="0px" y="0px"
	 width="288px" height="288px" viewBox="0 0 288 288" style="enable-background:new 0 0 288 288;" xml:space="preserve">
<g>
	<path d="M68.86,249.99c-0.224,0-0.43-0.125-0.533-0.324c0,0-0.099-0.192-0.278-0.548c-0.094-0.186-0.084-0.407,0.025-0.585
		c0.083-0.136,0.217-0.231,0.369-0.268v-63.877c-0.601-1.23-1.342-2.414-1.636-2.61l-0.031-0.007
		c-2.57-0.511-3.921-1.046-4.379-1.734c-0.258-0.386-0.523-0.996-0.803-1.643c-0.351-0.81-0.749-1.726-1.124-2.17
		c-0.14-0.165-0.333-0.371-0.538-0.591c-1.044-1.114-2.343-2.503-1.486-3.455c0.105-0.116,0.225-0.266,0.362-0.437
		c0.662-0.82,1.771-2.194,3.562-3.03c1.712-0.799,3.237-4.806,3.25-7.428c-0.052-0.436-0.329-2.947,0.031-4.025
		c0.035-0.104,0.067-0.195,0.096-0.278c0.213-0.607,0.226-0.645-0.122-3.252c-0.091-0.684-0.189-1.36-0.283-2.01
		c-0.382-2.637-0.606-4.309-0.388-5.183c-0.057-0.1-0.273-0.302-0.45-0.467c-0.892-0.836-2.385-2.235-2.949-5.899
		c-0.352-2.286-0.669-3.348-0.902-4.123c-0.326-1.089-0.451-1.601-0.255-3.363c0.193-1.733,0.363-2.831,0.513-3.799
		c0.115-0.743,0.214-1.386,0.302-2.172c0.057-0.516-0.125-0.798-0.51-1.336c-0.557-0.777-1.318-1.843-1.188-4.263
		c0.097-1.807-0.169-4.15-0.405-6.218c-0.272-2.4-0.488-4.296-0.204-5.311c0.19-0.68,0.065-0.88-0.16-1.242
		c-0.241-0.387-0.57-0.916-0.449-1.924c0.043-0.362,0.114-0.803,0.188-1.269c0.258-1.613,0.648-4.051,0.137-5.12l-0.207-0.428
		c-0.855-1.769-2.447-5.061-2.833-7.892c-0.354-2.599-0.98-4.707-1.437-6.246l-0.173-0.588c-0.143-0.488-0.394-0.97-0.661-1.479
		c-0.583-1.113-1.243-2.376-1.194-4.336c0.022-0.925,0.123-2.382,0.229-3.925c0.171-2.483,0.43-6.237,0.228-6.812
		c-0.072-0.156-0.174-0.304-0.282-0.461c-0.486-0.706-0.831-1.41-0.119-2.892c0.172-0.357,0.333-0.652,0.476-0.914
		c0.522-0.957,0.698-1.279,0.251-2.484c-0.66-1.781-1.23-4.622-1.13-5.629c0.018-0.182-0.274-0.686-0.487-1.054
		c-0.404-0.699-0.863-1.491-0.863-2.347v-1.222c0-0.331,0.269-0.6,0.6-0.6H99.75V38.41c0-0.331,0.269-0.601,0.6-0.601h7.6
		c0.275,0,0.516,0.188,0.582,0.455c0.852,3.404,3.185,12.49,3.754,13.629c0.298,0.597,0.36,1.498,0.432,2.541
		c0.128,1.845,0.287,4.141,1.773,5.415c1.193,1.021,2.962,1.146,4.523,1.256c1.604,0.112,2.989,0.209,3.573,1.259
		c0.325,0.585,3.586,0.822,5.338,0.949c3.012,0.219,4.743,0.382,5.303,1.164c0.51,0.717,0.122,1.551-0.19,2.221
		c-0.112,0.239-0.374,0.801-0.304,0.91c0.002,0.002,0.189,0.271,1.571,0.271c0.277,0,0.589-0.011,0.929-0.032
		c2.928-0.182,4.443-1.267,5.909-2.314c1.328-0.95,2.582-1.848,4.625-1.848c0.811,0,1.611-0.016,2.387-0.03
		c0.752-0.014,1.464-0.027,2.165-0.027c2.015,0,4.112,0.101,5.816,0.831c1.425,0.61,2.314,1.624,3.175,2.604
		c0.781,0.891,1.52,1.731,2.646,2.295c0.785,0.392,1.628,0.657,2.443,0.913c1.719,0.541,3.498,1.1,3.498,2.881
		c0,1.61,0.902,3.336,1.582,3.81c0.033-0.184,0.063-0.421,0.088-0.616c0.184-1.475,0.523-4.219,3.631-4.219
		c0.277,0,0.574,0.023,0.883,0.069c3.596,0.533,4.092,1.204,4.307,2.503c0.051,0.299,0.094,0.557,0.275,0.849
		c0.367,0.589,2.623,1.415,4.116,1.961c2.542,0.931,3.573,1.342,3.573,2.157c0,0.433-0.193,0.885-0.381,1.322
		c-0.074,0.175-0.187,0.436-0.236,0.611c0.006,0,0.012,0,0.018,0c0.418,0,0.941,0.063,1.604,0.144
		c0.953,0.115,2.139,0.259,3.464,0.259c1.251,0,2.39-0.127,3.479-0.386c2.186-0.521,4.08-2.495,5.604-4.081
		c1.054-1.097,1.814-1.89,2.531-2.07c0.403-0.101,0.873-0.153,1.359-0.153c1.333,0,3.094,0.406,3.667,1.552
		c0.233,0.469,0.279,1.044,0.323,1.602c0.1,1.268,0.221,1.507,0.768,1.507c0.672,0,2.055-0.139,3.654-0.3
		c2.687-0.27,6.03-0.605,8.832-0.605c3.496,0,4.818,1.196,5.881,2.158c0.381,0.344,0.709,0.641,1.096,0.846
		c0.705,0.375,1.314,0.541,1.975,0.541c0.68,0,1.461-0.172,2.611-0.577c0.055-0.019,0.113-0.03,0.172-0.033
		c0.063-0.003,1.572-0.072,2.629-0.072c0.587,0,0.807,0.021,0.92,0.038c0.238,0.033,0.433,0.206,0.495,0.438
		s-0.019,0.479-0.207,0.627c-0.039,0.031-3.886,3.072-4.589,3.69c-0.526,0.459-1.209,0.771-1.999,1.133
		c-0.438,0.201-0.892,0.408-1.374,0.664c-0.328,0.176-0.528,0.373-0.781,0.623c-0.681,0.672-1.527,1.508-5.036,2.501
		c-5.063,1.434-11.247,5.463-15.347,8.756c-3.403,2.736-6.387,6.356-8.785,9.265c-0.813,0.984-1.578,1.915-2.27,2.699
		c-0.697,0.789-1.369,1.566-2.029,2.329c-1.916,2.215-3.727,4.307-5.694,6.21c-1.187,1.145-3.308,2.683-5.36,4.169
		c-1.897,1.375-4.488,3.252-4.778,3.821c-0.046,0.423-0.218,0.889-0.511,1.384c-0.037,0.063-0.938,1.59-1.754,1.648
		c-0.238,0.077-0.84,0.548-0.988,0.769c-0.035,0.356-0.303,0.752-1.897,1.111v20.547c0,0.146-0.053,0.287-0.149,0.396
		c-0.172,0.196-0.527,0.714-0.527,1.051c0,1.068-1.105,1.866-2.094,1.866c-0.381,0-0.814,0.471-1.047,0.937
		c-0.125,0.249-0.383,0.545-0.906,0.545l0,0c-0.08,0-0.165-0.008-0.255-0.017c-0.059-0.005-0.12-0.012-0.185-0.012
		c-0.086,0-0.167,0-0.299,0.17c-0.309,0.396-0.878,0.679-1.6,1.037c-1.088,0.54-2.443,1.213-2.886,2.343
		c-0.144,0.366-0.286,0.748-0.431,1.131c-0.736,1.961-1.432,3.813-2.373,4.442c-0.215,0.17-0.431,1.011-0.229,4.047
		c0.018,0.258,0.032,0.477,0.039,0.648c0.18,0.035,0.492,0.05,0.715,0.06c0.863,0.04,1.938,0.09,2.352,0.956
		c0.138,0.288,0.382,0.761,0.664,1.307c1.202,2.324,1.71,3.37,1.745,3.837c0.034,0.443-0.277,0.996-1.108,2.347
		c-0.479,0.777-1.074,1.745-1.166,2.168c-0.15,0.701-0.207,2.587-0.211,4.044c0.041,0.055,0.102,0.131,0.15,0.191
		c0.378,0.472,1.012,1.262,0.663,2.108c-0.171,0.418-0.561,0.788-0.937,1.146c-0.213,0.203-0.598,0.569-0.669,0.746
		c0.532,0.916,1.244,4.327,1.198,5.413c-0.03,0.704-0.291,4.823-0.705,6.128c-0.014,0.042-0.02,0.07-0.021,0.086
		c0.09,0.082,0.404,0.196,0.615,0.273c0.473,0.172,1.061,0.387,1.52,0.845c0.246,0.246,0.533,0.57,0.836,0.914
		c0.796,0.899,1.886,2.132,2.762,2.481c0.855,0.342,2.277,0.741,3.455,0.97c0.725,0.142,1.066,0.163,1.207,0.163
		c1.441,0,2.151,0.965,2.609,1.806c0.476,0.874,2.254,2.232,5.152,3.298c3.522,1.294,5.068,3.515,6.022,5.304
		c1.145,2.146,5.472,6.958,6.69,7.202c0.359,0.071,0.727,0.125,1.08,0.177c1.252,0.184,2.436,0.356,3.237,1.284
		c0.263,0.304,0.774,0.772,1.317,1.268c1.25,1.143,2.668,2.438,3.082,3.473c0.213,0.531,0.509,0.857,0.795,1.172
		c0.369,0.406,0.787,0.866,0.787,1.629c0,0.789,0.781,8.123,1.082,10.883c0.018,0.167-0.035,0.334-0.146,0.461
		s-0.27,0.2-0.438,0.204l-135.94,2.713C68.868,249.99,68.864,249.99,68.86,249.99z M59.374,172.941
		c0.048,0.393,1.014,1.424,1.434,1.873c0.215,0.229,0.419,0.447,0.578,0.635c0.49,0.58,0.906,1.539,1.309,2.468
		c0.258,0.595,0.502,1.157,0.7,1.454c0.065,0.098,0.542,0.612,3.615,1.224l0.074,0.015c0.443,0.089,1.238,0.747,2.5,3.383
		c0.039,0.081,0.059,0.17,0.059,0.259v64.523l134.491-2.685c-0.244-2.25-1.019-9.486-1.019-10.36c0-0.287-0.146-0.459-0.476-0.821
		c-0.324-0.357-0.727-0.801-1.021-1.534c-0.312-0.78-1.737-2.082-2.777-3.032c-0.595-0.543-1.108-1.012-1.416-1.369
		c-0.51-0.59-1.433-0.725-2.503-0.881c-0.369-0.055-0.751-0.11-1.142-0.188c-1.925-0.385-6.487-5.89-7.515-7.813
		c-0.906-1.701-2.254-3.594-5.377-4.742c-2.85-1.048-5.069-2.522-5.792-3.85c-0.535-0.982-0.992-1.18-1.556-1.18
		c-0.326,0-0.81-0.063-1.436-0.186c-1.244-0.241-2.754-0.667-3.672-1.033c-1.141-0.455-2.291-1.756-3.215-2.801
		c-0.291-0.329-0.566-0.64-0.785-0.859c-0.271-0.271-0.684-0.421-1.083-0.566c-0.601-0.22-1.72-0.627-1.327-1.853
		c0.318-1.001,0.599-4.611,0.65-5.814c0.041-0.952-0.66-4.158-1.041-4.765c-0.537-0.858,0.283-1.641,0.883-2.212
		c0.259-0.246,0.58-0.552,0.654-0.732c0.08-0.193-0.319-0.69-0.49-0.902c-0.23-0.289-0.412-0.516-0.412-0.815
		c0-0.778,0.017-3.4,0.237-4.424c0.136-0.624,0.709-1.557,1.317-2.544c0.34-0.555,0.85-1.381,0.928-1.657
		c-0.105-0.439-1.079-2.323-1.607-3.346c-0.288-0.556-0.537-1.036-0.682-1.341c-0.105-0.218-0.898-0.255-1.324-0.274
		c-0.739-0.034-1.855-0.086-1.855-1.07c0-0.147-0.02-0.43-0.041-0.757c-0.155-2.33-0.215-4.476,0.759-5.126
		c0.621-0.414,1.339-2.327,1.917-3.864c0.146-0.39,0.291-0.776,0.437-1.147c0.61-1.562,2.263-2.382,3.47-2.98
		c0.49-0.243,1.045-0.519,1.186-0.698c0.33-0.427,0.738-0.634,1.246-0.634c0.104,0,0.204,0.009,0.299,0.018
		c0.014,0.002,0.027,0.003,0.039,0.004c0.402-0.734,1.133-1.475,2.055-1.475c0.418,0,0.893-0.354,0.893-0.666
		c0-0.674,0.436-1.341,0.678-1.659v-20.823c0-0.288,0.205-0.536,0.488-0.59c0.594-0.113,1.229-0.293,1.472-0.414
		c0.265-0.679,1.36-1.475,1.96-1.575c0.162-0.104,0.565-0.521,0.885-1.069c0.209-0.352,0.334-0.679,0.355-0.926
		c0.068-0.809,1.42-1.856,5.265-4.643c2.019-1.462,4.105-2.975,5.23-4.061c1.929-1.865,3.722-3.938,5.621-6.133
		c0.661-0.765,1.337-1.545,2.036-2.337c0.678-0.77,1.438-1.692,2.244-2.669c2.433-2.95,5.46-6.623,8.959-9.437
		c4.191-3.366,10.535-7.492,15.771-8.975c3.212-0.909,3.938-1.625,4.52-2.201c0.285-0.279,0.578-0.569,1.061-0.827
		c0.515-0.273,1.006-0.498,1.439-0.696c0.705-0.323,1.314-0.602,1.707-0.944c0.455-0.401,2.107-1.722,3.311-2.679
		c-0.697,0.017-1.388,0.045-1.625,0.056c-1.242,0.431-2.12,0.615-2.926,0.615c-0.855,0-1.662-0.216-2.537-0.681
		c-0.52-0.276-0.936-0.652-1.338-1.017c-1.004-0.908-2.043-1.848-5.076-1.848c-2.742,0-6.053,0.332-8.713,0.6
		c-1.699,0.171-3.041,0.306-3.773,0.306c-1.76,0-1.888-1.636-1.965-2.613c-0.034-0.442-0.07-0.9-0.199-1.159
		c-0.249-0.497-1.389-0.888-2.594-0.888c-0.391,0-0.76,0.04-1.068,0.117c-0.381,0.096-1.182,0.931-1.957,1.737
		c-1.545,1.61-3.662,3.814-6.191,4.417c-1.182,0.281-2.411,0.418-3.757,0.418c-1.396,0-2.622-0.147-3.606-0.267
		c-0.598-0.072-1.115-0.135-1.461-0.135c-0.508,0-0.871-0.16-1.079-0.477c-0.352-0.533-0.073-1.181,0.194-1.808
		c0.102-0.235,0.223-0.518,0.268-0.716c-0.393-0.293-1.754-0.792-2.77-1.164c-2.498-0.915-4.176-1.58-4.721-2.452
		c-0.309-0.494-0.383-0.934-0.441-1.287c-0.102-0.609-0.174-1.05-3.299-1.514c-0.25-0.036-0.488-0.056-0.707-0.056
		c-1.896,0-2.217,1.373-2.44,3.167c-0.108,0.877-0.222,1.785-1.058,1.785l0,0c-0.049,0-0.098-0.004-0.148-0.013
		c-1.537-0.253-2.855-3.023-2.855-5.114c0-0.859-0.959-1.202-2.657-1.736c-0.819-0.257-1.748-0.55-2.619-0.984
		c-1.339-0.668-2.189-1.639-3.013-2.577c-0.808-0.92-1.57-1.789-2.745-2.293c-1.505-0.645-3.458-0.733-5.344-0.733
		c-0.69,0-1.396,0.013-2.144,0.027c-0.779,0.015-1.586,0.03-2.408,0.03c-1.657,0-2.659,0.716-3.926,1.623
		c-1.528,1.094-3.261,2.333-6.532,2.537c-2.078,0.131-3.145-0.099-3.586-0.792c-0.423-0.663-0.077-1.406,0.228-2.062
		c0.152-0.325,0.405-0.87,0.301-1.017c-0.351-0.369-2.795-0.547-4.413-0.664c-3.521-0.257-5.703-0.489-6.3-1.563
		c-0.268-0.481-1.405-0.562-2.608-0.646c-1.66-0.116-3.726-0.262-5.22-1.541c-1.868-1.601-2.053-4.284-2.189-6.243
		c-0.061-0.877-0.118-1.705-0.309-2.088c-0.675-1.352-3.113-10.961-3.731-13.42h-6.532v12.314c0,0.332-0.269,0.601-0.6,0.601H51.621
		v0.621c0,0.533,0.373,1.178,0.701,1.746c0.374,0.646,0.697,1.204,0.643,1.771c-0.068,0.68,0.39,3.285,1.061,5.095
		c0.636,1.718,0.254,2.417-0.323,3.477c-0.135,0.248-0.289,0.529-0.448,0.859c-0.468,0.975-0.304,1.214,0.025,1.69
		c0.126,0.183,0.269,0.39,0.389,0.649c0.302,0.653,0.188,2.858-0.125,7.387c-0.105,1.528-0.205,2.973-0.227,3.872
		c-0.042,1.648,0.517,2.717,1.057,3.749c0.295,0.564,0.574,1.098,0.75,1.701l0.172,0.581c0.468,1.577,1.109,3.736,1.476,6.426
		c0.36,2.643,1.897,5.823,2.723,7.531l0.209,0.433c0.673,1.407,0.28,3.858-0.035,5.827c-0.073,0.454-0.141,0.883-0.182,1.222
		c-0.071,0.589,0.075,0.823,0.277,1.146c0.28,0.451,0.629,1.012,0.296,2.2c-0.22,0.789,0.004,2.763,0.241,4.852
		c0.241,2.114,0.513,4.511,0.411,6.418c-0.107,1.999,0.463,2.797,0.966,3.5c0.412,0.576,0.837,1.171,0.727,2.167
		c-0.091,0.812-0.192,1.466-0.309,2.223c-0.148,0.956-0.315,2.04-0.505,3.748c-0.176,1.59-0.071,1.942,0.212,2.886
		c0.229,0.764,0.574,1.917,0.938,4.285c0.501,3.255,1.804,4.477,2.583,5.206c0.483,0.453,0.983,0.922,0.796,1.621
		c-0.18,0.671,0.119,2.735,0.408,4.731c0.095,0.654,0.193,1.336,0.285,2.023c0.367,2.758,0.37,2.936,0.064,3.809
		c-0.027,0.077-0.058,0.163-0.09,0.261c-0.216,0.647-0.099,2.514,0.026,3.538c0.003,0.024,0.004,0.049,0.004,0.072
		c0,2.736-1.536,7.427-3.943,8.55c-1.54,0.719-2.5,1.909-3.135,2.697C59.604,172.666,59.482,172.817,59.374,172.941z"/>
</g>
</svg>
