<?xml version="1.0" encoding="iso-8859-1"?>
<!-- Generator: Adobe Illustrator 15.1.0, SVG Export Plug-In . SVG Version: 6.00 Build 0)  -->
<!DOCTYPE svg PUBLIC "-//W3C//DTD SVG 1.1//EN" "http://www.w3.org/Graphics/SVG/1.1/DTD/svg11.dtd">
<svg version="1.1" id="Layer_1" xmlns="http://www.w3.org/2000/svg" xmlns:xlink="http://www.w3.org/1999/xlink" x="0px" y="0px"
	 width="288px" height="288px" viewBox="0 0 288 288" style="enable-background:new 0 0 288 288;" xml:space="preserve">
<g>
	<path d="M214.389,241.995c-0.185,0-0.36-0.085-0.475-0.232c-0.128-0.164-0.161-0.383-0.088-0.578
		c0.619-1.652,2.763-7.097,4.362-7.783c0.42-0.181,0.895-0.326,1.354-0.468c1.096-0.337,2.228-0.686,2.332-1.407
		c0.21-1.457,2.172-3.743,2.771-4.412l0.178-3.599c-1.435-0.555-2.955-1.368-2.955-2.324c-0.007-0.323-0.73-1.487-1.591-2.575
		l-148.322,6.926c-0.287,0.01-0.54-0.176-0.61-0.452c-0.009-0.037-0.017-0.081-0.019-0.119c-0.457-7.78-1.217-19.599-1.467-20.791
		c-0.039-0.078-0.062-0.166-0.063-0.26l-0.051-3.749l-1.212-88.954c-0.899-1.267-1.75-1.318-3.709-1.436
		c-0.326-0.021-0.677-0.041-1.056-0.07c-0.48-0.037-1.159-0.144-1.507-0.641c-0.34-0.486-0.186-1.038-0.061-1.481
		c0.188-0.673,0.239-0.854-0.491-1.097c-2.243-0.746-3.139-2.084-2.738-4.089c0.087-0.437-0.858-1.98-5.054-4.697
		c-1.589-1.026-2.307-2.079-2.134-3.128c0.177-1.064,1.271-1.75,1.991-1.969c0.024-0.173,0-0.531-0.02-0.804
		c-0.057-0.815-0.135-1.932,0.376-2.951c1.113-2.229,3.234-2.707,5.162-2.882c0.588-0.054,0.935-0.374,1.029-0.952
		c0.136-0.822-0.321-1.97-1.219-2.368c-1.441-0.642-1.714-1.871-1.912-2.769c-0.083-0.373-0.168-0.759-0.31-0.896
		c-0.317,0.049-1.134,0.877-1.716,1.748c-0.111,0.167-0.302,0.267-0.502,0.267H52.97c-1.812,0-6.678-4.391-7.792-5.42
		c-3.293-1.711-3.539-2.831-2.838-4.291c0.221-0.461,0.262-0.604,0.119-0.841c-0.33-0.551-0.627-1.144-0.913-1.717
		c-0.563-1.126-1.146-2.291-2.05-3.294c-0.463-0.515-0.758-0.737-1.07-0.972c-0.64-0.482-1.301-0.981-3.12-3.549
		c-1.688-2.381-2.131-4.07-2.523-5.561c-0.258-0.981-0.481-1.83-1.02-2.786c-0.645-1.153-0.856-1.724-0.975-2.226
		c-0.043-0.182,0-0.372,0.118-0.517c0.117-0.146,0.293-0.236,0.481-0.222c10.155,0.277,20.59,0.418,31.015,0.418
		c55.688-0.001,96.438-3.996,96.843-4.036c0.114-0.012,0.227,0.01,0.327,0.06l2.129,1.064c0.781,0.391,1.733,1.334,2.835,2.428
		c1.928,1.913,4.327,4.294,6.478,4.352c0.186,0.005,0.358,0.096,0.468,0.246c0.158,0.216,0.158,0.517-0.005,0.728
		c-0.041,0.053-4.08,5.327-3.289,9.472c0.831,4.357,3.346,10.675,3.372,10.737c0.027,0.071,0.042,0.146,0.042,0.223v2.515
		l2.801,2.803c0.112,0.112,0.176,0.265,0.176,0.424v2.33c2.368,2.767,6.321,7.123,7.293,7.539c1.076,0.461,1.5,1.649,1.841,2.604
		c0.123,0.348,0.309,0.866,0.437,0.988c0.99,0.267,7.889,2.86,10.326,6.63c1.672,2.585,1.894,4.955,2.072,6.859
		c0.08,0.86,0.15,1.604,0.337,2.226c0.101,0.335,0.202,0.733,0.319,1.196c0.584,2.302,1.562,6.154,3.866,6.463
		c0.085,0.012,0.168,0.018,0.245,0.018c0.915,0,1.222-0.858,1.617-2.271c0.326-1.163,0.695-2.481,1.968-2.481
		c0.159,0,0.328,0.024,0.5,0.071c0.92,0.251,1.776,0.656,2.531,1.015c0.876,0.415,1.703,0.807,2.337,0.807
		c0.178,0,0.335-0.03,0.479-0.092c0.161-0.068,0.341-0.104,0.536-0.104c1.926,0,6.108,3.946,6.474,5.146
		c0.134,0.438-0.054,0.751-0.272,0.898c-0.688,0.456-2.981,3.562-2.545,4.582c0.116,0.271,0.264,0.567,0.421,0.883
		c0.564,1.135,1.148,2.309,0.803,3.251c-0.148,0.405-0.46,0.72-0.9,0.908c-0.556,0.249-1.582,3.196-2.134,4.779
		c-0.913,2.621-1.509,4.252-2.235,4.738c-0.585,0.389-1.418,2.003-1.344,3.55c0.054,1.115,0.56,1.937,1.502,2.44
		c1.973,1.051,2.48,2.006,2.971,2.929c0.349,0.655,0.677,1.275,1.594,2.025c2.264,1.85,7.703,4.581,7.758,4.608
		c0.227,0.113,0.357,0.355,0.328,0.606c-0.058,0.503-0.079,1.953,0.506,2.608c0.204,0.229,0.462,0.335,0.812,0.335
		c0.993,0,1.629,0.076,2.094,0.132c0.64,0.076,0.952,0.098,1.545-0.101c0.119-0.04,0.245-0.06,0.377-0.06
		c1.87,0,5.316,4.552,5.61,4.948c0.347,0.295,2.38,0.776,4.081,1.045c0.291,0.046,0.506,0.297,0.506,0.593v7.632
		c0.393,0.427,1.438,1.574,2.443,2.79c2.54,3.071,2.577,3.827,2.413,4.294c-0.106,0.303-0.36,0.504-0.695,0.552
		c-0.867,0.124-2.453,1.063-2.784,2.055c-0.088,0.264-0.146,0.672,0.361,1.18c1.012,1.011,1.95,2.612,2.857,4.162
		c0.868,1.483,1.768,3.018,2.67,3.92c0.359,0.359,0.622,0.645,0.813,0.852c0.461,0.501,0.461,0.501,0.785,0.501
		c0.13,0,0.285-0.006,0.478-0.013c0.317-0.012,0.752-0.027,1.328-0.027c3.168,0,4.038,1.219,5.046,2.631l0.122,0.171
		c1.054,1.479-0.244,5.521-0.815,7.104l2.116,1.236c0.225,0.131,0.339,0.392,0.284,0.646c-0.056,0.254-0.268,0.443-0.526,0.47
		c-0.015,0.001-1.662,0.205-1.804,1.189c-0.048,0.331-0.048,0.913-0.048,1.587c-0.001,2.327-0.003,5.513-1.848,6.128
		c-0.266,0.089-0.54,0.134-0.817,0.134l0,0c-1.169,0-2.171-0.794-2.797-1.446c-1.729,4.384-3.041,6.691-3.9,6.86
		c-0.081,0.017-0.171,0.025-0.263,0.025c-0.659,0-1.478-0.499-2.171-1.042l0.565,2.642c0.047,0.215-0.028,0.438-0.196,0.581
		l-2.422,2.075c1.099,0.888,2.902,2.522,2.87,3.659c-0.011,0.372-0.19,0.693-0.506,0.903c-0.675,0.45-1.952,0.78-3.119,1.004
		c1.138,0.483,2.266,1.144,2.527,1.932c0.136,0.409,0.056,0.831-0.226,1.188c-0.385,0.488-0.881,0.735-1.478,0.735
		c-0.291,0-0.556-0.056-0.789-0.105c-0.15-0.032-0.292-0.062-0.386-0.063c-0.031,0.072-0.091,0.275-0.091,0.767
		c0,2.814-0.433,4.353-0.451,4.417c-0.067,0.234-0.271,0.405-0.513,0.431l-23.816,2.552
		C214.431,241.994,214.409,241.995,214.389,241.995z M223.067,221.146c0.173,0.311,1.383,0.966,2.579,1.395
		c0.249,0.089,0.41,0.331,0.397,0.595l-0.211,4.252c-0.007,0.141-0.063,0.274-0.158,0.378c-0.938,1.018-2.477,2.985-2.613,3.932
		c-0.213,1.475-1.782,1.957-3.166,2.384c-0.449,0.138-0.873,0.269-1.234,0.423c-0.699,0.301-2.203,3.286-3.358,6.189l22.413-2.401
		c0.119-0.593,0.316-1.855,0.316-3.7c0-0.486,0-1.967,1.282-1.967c0.22,0,0.435,0.046,0.644,0.09
		c0.192,0.041,0.375,0.079,0.54,0.079c0.189,0,0.354-0.047,0.534-0.276c0.029-0.038,0.034-0.057,0.034-0.057
		c-0.023-0.399-1.849-1.37-4.081-1.972c-0.278-0.075-0.465-0.339-0.441-0.627c0.022-0.288,0.248-0.519,0.535-0.549
		c1.073-0.112,4.042-0.539,5.019-1.158c-0.056-0.49-1.438-1.926-2.977-3.081c-0.146-0.109-0.234-0.278-0.24-0.46
		c-0.006-0.183,0.071-0.356,0.21-0.476l2.708-2.32l-0.882-4.116c-0.057-0.263,0.068-0.53,0.306-0.656
		c0.238-0.126,0.529-0.078,0.715,0.116c0.894,0.936,2.179,1.944,2.708,1.954c0.617-0.457,2.242-3.99,3.421-7.07
		c0.08-0.209,0.271-0.356,0.494-0.382c0.225-0.027,0.441,0.077,0.565,0.264c0.326,0.486,1.409,1.749,2.486,1.749
		c0.15,0,0.293-0.023,0.438-0.071c1.025-0.342,1.026-3.366,1.027-4.99c0-0.721,0.001-1.343,0.061-1.758
		c0.134-0.933,0.786-1.479,1.435-1.795l-1.358-0.793c-0.254-0.148-0.362-0.459-0.257-0.733c0.835-2.171,1.739-5.609,1.138-6.455
		l-0.123-0.172c-0.979-1.372-1.519-2.128-4.069-2.128c-0.554,0-0.959,0.016-1.284,0.027c-0.21,0.007-0.38,0.014-0.521,0.014
		c-0.851,0-1.106-0.278-1.668-0.888c-0.194-0.212-0.437-0.475-0.779-0.817c-1.012-1.011-1.949-2.612-2.857-4.161
		c-0.868-1.484-1.767-3.018-2.67-3.92c-0.703-0.703-0.934-1.559-0.651-2.408c0.459-1.375,2.17-2.47,3.398-2.79
		c-0.422-0.997-2.633-3.692-4.675-5.876c-0.104-0.11-0.162-0.257-0.162-0.409v-7.357c-1.854-0.316-3.935-0.806-4.365-1.454
		c-0.728-1.087-3.721-4.441-4.632-4.441c-0.765,0.254-1.324,0.239-2.064,0.151c-0.459-0.055-1.029-0.123-1.951-0.123
		c-0.688,0-1.279-0.256-1.709-0.738c-0.807-0.906-0.861-2.384-0.832-3.12c-1.278-0.654-5.578-2.9-7.622-4.571
		c-1.104-0.903-1.523-1.693-1.895-2.392c-0.442-0.834-0.825-1.554-2.476-2.433c-1.322-0.707-2.061-1.896-2.135-3.441
		c-0.093-1.917,0.914-3.966,1.876-4.605c0.429-0.286,1.234-2.603,1.769-4.135c1.089-3.128,1.807-5.066,2.794-5.487
		c0.197-0.085,0.231-0.18,0.246-0.22c0.168-0.456-0.363-1.523-0.75-2.303c-0.165-0.33-0.32-0.643-0.449-0.944
		c-0.746-1.74,1.702-4.832,2.682-5.793c-0.629-1.043-3.983-4.106-5.235-4.106c-0.046,0-0.063,0.007-0.063,0.007
		c-0.293,0.125-0.613,0.188-0.951,0.188c-0.905,0-1.851-0.448-2.853-0.923c-0.744-0.354-1.515-0.718-2.333-0.941
		c-0.069-0.019-0.131-0.028-0.184-0.028c-0.336,0-0.549,0.665-0.813,1.605c-0.372,1.327-0.882,3.146-2.772,3.146
		c-0.13,0-0.266-0.01-0.404-0.028c-3.108-0.417-4.211-4.762-4.87-7.357c-0.114-0.449-0.212-0.837-0.306-1.146
		c-0.221-0.736-0.3-1.572-0.383-2.458c-0.175-1.867-0.373-3.982-1.885-6.32c-2.244-3.471-8.949-5.953-9.64-6.125
		c-0.686-0.17-0.957-0.933-1.246-1.741c-0.275-0.773-0.589-1.65-1.183-1.905c-1.542-0.66-6.832-6.805-7.877-8.03
		c-0.093-0.108-0.144-0.247-0.144-0.39v-2.303l-2.801-2.803c-0.112-0.112-0.175-0.266-0.175-0.425v-2.647
		c-0.351-0.887-2.591-6.644-3.394-10.85c-0.703-3.681,1.767-7.884,2.939-9.622c-2.264-0.586-4.452-2.758-6.258-4.549
		c-0.985-0.978-1.916-1.901-2.525-2.206L159.19,47.2c-2.959,0.285-42.892,4.025-96.788,4.025c-10.14,0-20.291-0.133-30.184-0.395
		c0.129,0.293,0.314,0.66,0.59,1.153c0.614,1.09,0.867,2.051,1.135,3.069c0.384,1.459,0.78,2.968,2.341,5.172
		c1.712,2.415,2.298,2.856,2.864,3.283c0.344,0.26,0.699,0.527,1.239,1.127c1.012,1.124,1.632,2.363,2.231,3.562
		c0.289,0.578,0.562,1.124,0.869,1.635c0.49,0.818,0.155,1.517-0.067,1.979c-0.313,0.652-0.583,1.216,2.379,2.742
		c0.049,0.025,0.094,0.057,0.133,0.093c2.737,2.535,6.117,5.156,7.037,5.156h1.386c0.5-0.697,1.575-2.017,2.555-2.017
		c0.245,0,0.478,0.077,0.671,0.224c0.511,0.382,0.649,1.009,0.784,1.615c0.175,0.79,0.34,1.536,1.229,1.933
		c1.468,0.651,2.126,2.372,1.915,3.659c-0.185,1.118-0.972,1.849-2.104,1.952c-2.327,0.21-3.504,0.834-4.198,2.223
		c-0.364,0.728-0.302,1.617-0.252,2.331c0.056,0.802,0.125,1.8-0.78,2.022c-0.386,0.097-1.12,0.524-1.204,1.03
		c-0.085,0.511,0.499,1.212,1.601,1.924c5.988,3.878,5.681,5.43,5.579,5.939c-0.201,1.009-0.105,2.035,1.941,2.717
		c1.814,0.604,1.444,1.924,1.267,2.559c-0.043,0.151-0.105,0.375-0.102,0.472c0.047,0.028,0.201,0.099,0.605,0.13
		c0.371,0.028,0.716,0.049,1.036,0.068c2.087,0.126,3.465,0.208,4.733,2.11c0.064,0.097,0.1,0.209,0.102,0.325l1.214,89.137
		l0.049,3.645c0.07,0.236,0.105,0.556,0.147,0.951c0.06,0.55,0.131,1.357,0.215,2.398c0.139,1.746,0.312,4.181,0.512,7.235
		c0.275,4.186,0.53,8.415,0.62,9.931l148.036-6.912c0.187-0.006,0.372,0.072,0.493,0.22
		C221.625,218.364,223.024,220.173,223.067,221.146z M70.168,204.467c0.066,0.027,0.142,0.044,0.225,0.045
		C70.313,204.511,70.237,204.495,70.168,204.467z"/>
</g>
</svg>
