<?xml version="1.0" encoding="iso-8859-1"?>
<!-- Generator: Adobe Illustrator 15.1.0, SVG Export Plug-In . SVG Version: 6.00 Build 0)  -->
<!DOCTYPE svg PUBLIC "-//W3C//DTD SVG 1.1//EN" "http://www.w3.org/Graphics/SVG/1.1/DTD/svg11.dtd">
<svg version="1.1" id="Layer_1" xmlns="http://www.w3.org/2000/svg" xmlns:xlink="http://www.w3.org/1999/xlink" x="0px" y="0px"
	 width="288px" height="288px" viewBox="0 0 288 288" style="enable-background:new 0 0 288 288;" xml:space="preserve">
<g>
	<path d="M161.355,248.611c-0.093,0-0.187-0.001-0.28-0.002c-0.246-0.003-0.465-0.155-0.553-0.385
		c-0.089-0.23-0.027-0.49,0.153-0.656c0.018-0.017,0.022-0.025,0.022-0.025c0-0.239-0.766-0.985-1.178-1.386
		c-0.922-0.898-1.876-1.827-1.781-2.863c0.163-1.81-0.532-5.841-2.391-6.77c-2.283-1.143-6.388-5.559-5.576-7.784
		c0.239-0.658,0.248-2.014,0.257-3.447c0.013-2.061,0.028-4.396,0.724-5.883c0.291-0.625,0.643-1.275,0.982-1.905
		c0.529-0.979,1.407-2.603,1.281-3.027c-0.074-0.006-0.239-0.014-0.588-0.014c-7.657,0-68.337,3.682-68.949,3.719
		c-0.298,0.021-0.558-0.182-0.622-0.47c-0.063-0.288,0.092-0.579,0.366-0.688c0.012-0.005,1.277-0.521,1.673-1.494
		c0.178-0.438,0.151-0.903-0.08-1.426c-0.91-2.046-0.834-2.802-0.745-3.677c0.026-0.257,0.053-0.523,0.053-0.847
		c0-1.764,0.689-3.016,2.46-4.465c0.762-0.623,0.464-1.553-0.117-3.012c-0.3-0.751-0.582-1.461-0.582-2.125
		c0-1.403,1.124-3.49,3.645-6.767c1.476-1.919,1.476-4.492,1.476-6.195c0-1.315,0-4.808,2.764-5.992
		c1.996-0.855,3.847-3.882,4.295-5.676c0.501-2.005,1.969-3.989,3.479-5.835c0.018-0.021,0.031-0.039,0.043-0.056
		c-0.293-0.17-1.128-0.33-1.6-0.42c-1.124-0.214-2.095-0.399-2.403-1.06c-0.079-0.169-0.176-0.514,0.059-0.937
		c0.674-1.212,2.4-3.459,6.401-4.913c0.953-0.347,1.502-0.784,1.63-1.299c0.228-0.908-0.775-2.157-1.55-3.017
		c-0.431-0.479-0.995-1.017-1.594-1.587c-1.792-1.708-2.881-2.815-2.881-3.775c0-0.708,0.601-1.413,1.236-2.159
		c0.334-0.393,1.03-1.21,0.982-1.461c-0.153-0.179-1.111-0.239-1.627-0.272c-1.116-0.07-2.271-0.143-2.85-0.862
		c-0.188-0.232-0.392-0.641-0.296-1.257c0.22-1.436,1.371-2.018,2.211-2.441c0.443-0.225,0.77-0.399,0.82-0.544
		c-0.157-0.097-0.591-0.205-0.888-0.279c-0.923-0.229-2.188-0.546-2.763-1.654c-0.437-0.841-0.38-1.943,0.171-3.368
		c0.92-2.375,1.785-3.564,2.263-4.179c-0.013-0.001-0.024-0.002-0.038-0.002c-0.454,0-1.227,0.671-1.791,1.161
		c-0.667,0.58-1.193,1.037-1.732,1.037c-0.366,0-0.98-0.192-0.98-1.482c0-1.71-0.458-2.159-0.598-2.257
		c-0.153-0.106-0.249-0.277-0.258-0.464s0.069-0.366,0.212-0.487c1.68-1.422,2.686-2.04,3.328-2.31
		c-0.026-0.018-0.052-0.035-0.076-0.052c-1.119-0.767-2.992-2.051-2.034-3.555c0.235-0.37,0.614-0.863,1.182-0.863
		c0.451,0,0.748,0.302,0.986,0.544c0.144,0.145,0.306,0.309,0.413,0.309c0.036,0,0.142-0.015,0.334-0.153
		c0.577-0.415,0.611-1.633,0.642-2.707c0.026-0.928,0.051-1.819,0.385-2.454c-0.837-0.172-2-0.496-2.464-1.521
		c-0.38-0.839-0.187-1.891,0.59-3.217c0.674-1.147,0.945-1.963,0.808-2.424c-0.112-0.374-0.548-0.605-1.249-0.951
		c-0.791-0.391-1.775-0.877-2.43-1.924c-1.313-2.101-0.22-3.068,0.433-3.646c0.207-0.183,0.442-0.391,0.441-0.507
		c-0.003-0.888,0.185-3.826,2.699-4.854c-0.129-0.116-0.3-0.25-0.432-0.353c-0.619-0.484-1.321-1.033-1.184-1.795
		c0.129-0.721,0.958-1.063,1.569-1.257c2.289-0.729,2.192-2.936,1.828-5.745c-0.062-0.47-0.119-0.914-0.148-1.321
		c-0.109-1.492,0.487-3.396,3.888-4.103c-0.164-0.24-0.434-0.571-0.65-0.835c-1.054-1.288-2.646-3.233-1.758-5.122
		c0.159-0.338,0.643-1.365,1.65-1.365c0.438,0,0.828,0.196,1.174,0.369c0.274,0.138,0.534,0.269,0.742,0.269
		c0.075-0.001,0.303-0.001,0.65-0.487c0.576-0.807,0.895-1.954,1.202-3.063c0.509-1.836,1.036-3.735,2.811-4.209
		c2.272-0.604,3.205-1.148,3.916-2.996c0.324-0.841,0.515-1.584,0.684-2.238c0.247-0.963,0.46-1.794,0.988-2.536
		c0.035-0.165-0.364-0.685-0.578-0.963c-0.709-0.924-1.781-2.318-0.718-3.974c0.869-1.351,1.86-1.542,2.516-1.669
		c0.579-0.112,0.668-0.129,0.757-0.665c0.121-0.725-0.024-1.838-0.164-2.915c-0.233-1.789-0.436-3.335,0.372-4.009
		c0.262-0.218,0.582-0.328,0.953-0.328c0.431,0,0.869,0.146,1.334,0.3c0.471,0.156,0.957,0.317,1.42,0.317
		c0.365,0,0.671-0.1,0.965-0.313c0.507-0.369,0.796-1.228,0.795-2.358c-0.002-1.304-0.387-2.309-0.599-2.499
		c-0.269-0.072-0.456-0.323-0.443-0.606c0.015-0.304,0.253-0.549,0.556-0.571l72.493-5.281c0.26-0.015,0.507,0.136,0.603,0.38
		c0.014,0.034,1.387,3.436,4.432,4.45c0.251,0.084,0.418,0.322,0.41,0.587l-3.679,128.295l7.982,63.224
		c0.201,0.408,0.716,1.591,0.375,2.402c-0.146,0.346-0.416,0.587-0.784,0.697c-0.299,0.09-0.69,0.423-1.036,0.718
		c-0.503,0.429-0.938,0.8-1.438,0.8l0,0c-0.194,0-0.672-0.068-0.924-0.696c-0.14-0.348-0.803-0.442-1.389-0.525
		c-0.527-0.076-0.984-0.141-1.31-0.401c-0.19-0.153-0.361-0.354-0.526-0.55c-0.26-0.307-0.555-0.654-0.807-0.654
		c-0.04,0-0.084,0.008-0.132,0.023c-0.24,0.081-0.674,0.262-1.175,0.472c-1.681,0.704-3.137,1.286-3.948,1.286
		c-0.123,0-0.231-0.012-0.332-0.037c-0.542-0.137-1.077-0.664-1.755-1.332c-0.677-0.667-1.444-1.424-2.142-1.672
		c-0.557-0.199-1.536-0.332-2.438-0.332c-0.113,0-0.22,0.002-0.317,0.006c0.318,0.047,0.652,0.084,0.914,0.114
		c1.338,0.152,2.305,0.263,2.617,0.896c0.078,0.158,0.175,0.482-0.06,0.872c-0.477,0.797-1.863,0.84-3.781,0.9
		c-1.705,0.054-3.638,0.113-4.9,0.72c-0.992,0.477-2.091,1.138-3.06,1.721c-1.713,1.03-2.715,1.613-3.378,1.613
		c-0.328,0-0.532-0.135-0.646-0.249c-0.483-0.481-0.294-1.096-0.168-1.503c0.17-0.551,0.143-0.628-0.071-0.777
		c-0.375-0.262-0.748-0.317-0.995-0.317c-0.365,0-0.649,0.119-0.796,0.259c0.127,0.111,0.347,0.26,0.493,0.358
		c0.521,0.351,1.058,0.713,1.036,1.304c-0.009,0.236-0.118,0.574-0.592,0.847c-0.305,0.175-0.652,0.354-0.987,0.529
		c-0.622,0.322-1.656,0.858-1.817,1.134c-0.016,0.103-0.031,0.249-0.051,0.423c-0.149,1.354-0.354,3.207-1.529,3.354
		c-0.066,0.009-0.156,0.021-0.267,0.037C165.148,248.356,163.317,248.611,161.355,248.611z M152.429,213.264
		c0.736,0,0.878,0.032,0.998,0.077c0.34,0.127,0.584,0.367,0.705,0.692c0.329,0.878-0.295,2.108-1.341,4.042
		c-0.332,0.614-0.675,1.249-0.951,1.842c-0.584,1.251-0.599,3.446-0.61,5.384c-0.011,1.607-0.02,2.996-0.33,3.85
		c-0.438,1.204,2.684,5.148,4.986,6.301c2.717,1.357,3.191,6.375,3.049,7.951c-0.043,0.467,0.805,1.292,1.423,1.895
		c0.767,0.747,1.437,1.399,1.525,2.108c1.677-0.039,3.196-0.251,3.883-0.346c0.095-0.014,0.175-0.024,0.24-0.033
		c0.202-0.19,0.381-0.964,0.528-2.302c0.024-0.218,0.044-0.397,0.064-0.516c0.125-0.738,1.01-1.231,2.443-1.975
		c0.264-0.137,0.516-0.268,0.747-0.396c-0.106-0.078-0.23-0.162-0.322-0.224c-0.539-0.363-1.354-0.913-1.016-1.704
		c0.289-0.673,1.069-1.107,1.989-1.107c0.602,0,1.183,0.184,1.682,0.532c0.974,0.68,0.686,1.613,0.531,2.115
		c-0.012,0.036-0.024,0.078-0.036,0.121c0.564-0.222,1.639-0.868,2.464-1.364c0.991-0.597,2.115-1.273,3.159-1.773
		c1.491-0.717,3.558-0.781,5.381-0.838c0.673-0.021,1.573-0.05,2.178-0.14c-0.348-0.057-0.752-0.103-1.052-0.137
		c-1.495-0.17-2.432-0.306-2.81-0.906c-0.18-0.287-0.195-0.609-0.043-0.884c0.172-0.311,0.606-0.723,2.392-0.723
		c1.059,0,2.148,0.154,2.842,0.401c0.947,0.338,1.815,1.193,2.581,1.948c0.414,0.407,0.979,0.966,1.204,1.022
		c0.009,0.001,0.023,0.001,0.04,0.001c0.636,0,2.419-0.746,3.484-1.192c0.545-0.229,0.976-0.408,1.26-0.503
		c0.171-0.058,0.342-0.086,0.511-0.086c0.809,0,1.337,0.624,1.723,1.079c0.134,0.159,0.261,0.309,0.36,0.388
		c0.093,0.06,0.476,0.114,0.729,0.15c0.776,0.11,1.825,0.26,2.268,1.126c0.159-0.108,0.376-0.294,0.536-0.43
		c0.436-0.371,0.929-0.792,1.469-0.953c0.129-0.167-0.065-0.933-0.359-1.493c-0.033-0.063-0.055-0.133-0.064-0.204l-8.001-63.372
		c-0.004-0.03-0.006-0.062-0.005-0.093l3.668-127.911c-2.662-1.085-4.088-3.592-4.564-4.585l-70.936,5.168
		c0.113,0.271,0.198,0.562,0.262,0.832c0.414,1.754,0.249,4.086-1.091,5.059c-0.494,0.36-1.056,0.542-1.67,0.542
		c-0.656,0-1.263-0.2-1.798-0.378c-0.37-0.122-0.719-0.238-0.956-0.238c-0.125,0-0.164,0.033-0.186,0.051
		c-0.3,0.25-0.072,1.994,0.05,2.932c0.151,1.164,0.309,2.367,0.158,3.267c-0.226,1.358-1.085,1.524-1.712,1.646
		c-0.588,0.113-1.144,0.221-1.734,1.14c-0.566,0.881-0.128,1.567,0.66,2.593c0.562,0.731,1.198,1.56,0.604,2.392
		c-0.398,0.56-0.577,1.256-0.804,2.137c-0.177,0.688-0.377,1.466-0.726,2.372c-0.899,2.336-2.24,3.063-4.728,3.725
		c-1.11,0.296-1.506,1.721-1.963,3.37c-0.335,1.209-0.683,2.46-1.382,3.439c-0.469,0.656-1.017,0.989-1.627,0.989
		c-0.491,0-0.91-0.21-1.28-0.396c-0.237-0.118-0.481-0.241-0.636-0.241c-0.222,0-0.469,0.473-0.564,0.676
		c-0.566,1.203,0.687,2.733,1.601,3.851c0.744,0.909,1.235,1.51,1.008,2.127c-0.081,0.221-0.286,0.503-0.802,0.597
		c-2.995,0.544-3.247,1.908-3.175,2.888c0.026,0.373,0.082,0.801,0.141,1.254c0.309,2.37,0.773,5.952-2.653,7.043
		c-0.446,0.142-0.642,0.263-0.721,0.326c0.119,0.175,0.496,0.47,0.71,0.637c0.561,0.438,1.14,0.892,1.046,1.522
		c-0.057,0.38-0.34,0.67-0.842,0.863c-1.876,0.721-2.014,3.059-2.012,3.758c0.007,0.66-0.466,1.078-0.845,1.413
		c-0.614,0.544-0.985,0.873-0.211,2.112c0.474,0.758,1.221,1.126,1.943,1.483c0.786,0.388,1.6,0.789,1.867,1.684
		c0.247,0.826-0.037,1.867-0.922,3.375c-0.55,0.938-0.733,1.669-0.532,2.114c0.264,0.582,1.236,0.77,1.881,0.895
		c0.561,0.108,1.046,0.201,1.139,0.705c0.041,0.218-0.003,0.536-0.445,0.812c-0.336,0.211-0.365,1.255-0.389,2.094
		c-0.037,1.353-0.08,2.886-1.141,3.646c-0.354,0.256-0.692,0.38-1.034,0.38c-0.609,0-1.005-0.401-1.267-0.667
		c-0.037-0.036-0.083-0.083-0.125-0.123c-0.043,0.05-0.103,0.127-0.178,0.245c-0.335,0.525,0.939,1.398,1.701,1.92
		c0.771,0.529,1.281,0.879,1.133,1.448c-0.09,0.345-0.388,0.543-0.886,0.588c-0.239,0.022-0.987,0.252-2.927,1.836
		c0.327,0.508,0.592,1.336,0.592,2.688c0,0.051,0.002,0.096,0.003,0.137c0.22-0.159,0.509-0.41,0.724-0.597
		c0.785-0.683,1.675-1.456,2.578-1.456c0.147,0,0.292,0.021,0.429,0.063c0.554,0.165,0.919,0.275,1.049,0.686
		c0.127,0.401-0.101,0.692-0.39,1.06c-0.411,0.522-1.265,1.609-2.193,4.006c-0.414,1.07-0.489,1.873-0.225,2.384
		c0.325,0.627,1.209,0.848,1.988,1.042c0.831,0.207,1.691,0.422,1.794,1.244c0.125,1.004-0.763,1.453-1.477,1.813
		c-0.869,0.44-1.448,0.785-1.566,1.553c-0.034,0.224,0.023,0.296,0.045,0.323c0.248,0.308,1.255,0.371,1.99,0.417
		c1.023,0.064,1.99,0.125,2.474,0.704c0.774,0.932-0.163,2.033-0.991,3.005c-0.355,0.417-0.949,1.114-0.949,1.381
		c0,0.516,1.57,2.013,2.509,2.907c0.615,0.586,1.195,1.139,1.658,1.651c1.038,1.154,2.183,2.664,1.822,4.11
		c-0.231,0.926-1.033,1.645-2.385,2.137c-3.498,1.271-5.052,3.155-5.691,4.243c0.305,0.141,1.005,0.274,1.45,0.359
		c1.222,0.234,2.277,0.436,2.558,1.207c0.097,0.267,0.124,0.692-0.298,1.207c-1.422,1.738-2.799,3.591-3.243,5.366
		c-0.511,2.043-2.527,5.434-4.985,6.487c-1.806,0.774-2.037,3.02-2.037,4.89c0,1.865,0,4.685-1.725,6.927
		c-0.84,1.092-3.396,4.414-3.396,6.035c0,0.434,0.242,1.04,0.497,1.681c0.531,1.334,1.26,3.161-0.237,4.385
		c-1.689,1.383-2.02,2.344-2.02,3.536c0,0.384-0.031,0.694-0.06,0.968c-0.077,0.763-0.133,1.313,0.648,3.068
		c0.367,0.828,0.398,1.626,0.092,2.372c-0.135,0.33-0.325,0.619-0.541,0.87C96.204,216.213,145.545,213.264,152.429,213.264z"/>
</g>
</svg>
