<?xml version="1.0" encoding="iso-8859-1"?>
<!-- Generator: Adobe Illustrator 15.1.0, SVG Export Plug-In . SVG Version: 6.00 Build 0)  -->
<!DOCTYPE svg PUBLIC "-//W3C//DTD SVG 1.1//EN" "http://www.w3.org/Graphics/SVG/1.1/DTD/svg11.dtd">
<svg version="1.1" id="Layer_1" xmlns="http://www.w3.org/2000/svg" xmlns:xlink="http://www.w3.org/1999/xlink" x="0px" y="0px"
	 width="288px" height="288px" viewBox="0 0 288 288" style="enable-background:new 0 0 288 288;" xml:space="preserve">
<g>
	<path d="M109.053,212.632c-0.031,0-0.063-0.003-0.094-0.008c-0.327-0.052-0.551-0.358-0.499-0.686l0.004-0.025l0.343-2.182
		c-1.727-3.324-3.708-6.992-4.05-7.376c-0.015-0.015-0.075-0.035-0.163-0.035c-0.475,0-1.238,0.503-1.791,1.607
		c-0.317,0.634-0.086,1.093,0.275,1.671c0.219,0.351,0.467,0.748,0.244,1.181c-0.231,0.45-0.783,0.484-1.019,0.499
		c-0.396,0.024-0.899,0.038-1.417,0.038c-1.547,0-4.267-0.104-5.108-0.809c-0.124-0.103-0.218-0.191-0.3-0.267
		c-0.272-0.256-0.272-0.256-2.764-0.256c-3.309,0-4.19-0.885-5.211-1.908l-0.123-0.123c-0.031-0.03-0.059-0.058-0.083-0.081
		c-0.19,0.268-0.542,0.654-1.218,0.654c-0.127,0.085-0.214,0.605-0.25,0.828c-0.086,0.515-0.215,1.292-0.943,1.292
		c-0.314,0-0.659-0.179-1.612-0.695c-1.217-0.66-3.057-1.658-4.248-1.658h-0.034c-0.85,0.015-1.276,0.777-1.745,1.774
		c-0.293,0.623-0.569,1.212-1.173,1.212c-0.011,0-0.032-0.001-0.043-0.002c-0.837-0.045-3.625-2.271-3.777-3.188
		c-0.096-0.573-0.353-4.21-0.196-4.993c0.039-0.579-1.175-4.094-1.667-4.588c-0.004-0.001-0.009-0.002-0.017-0.002
		c-0.083,0-0.231,0.051-0.374,0.1c-0.239,0.081-0.536,0.184-0.875,0.184c-0.326,0-0.635-0.095-0.92-0.282
		c-1.052-0.686-1.938-2.377-2.147-3.283c-0.163-0.707-0.404-1.757,0.64-2.177c0.071-0.284,0.079-1.053-0.19-3.012
		c-0.022-0.163-0.038-0.279-0.048-0.366c-0.109-0.054-0.281-0.12-0.406-0.169c-0.19-0.074-0.386-0.15-0.573-0.243
		c-0.566-0.283-0.878-1.254-1.508-3.567c-0.159-0.584-0.309-1.135-0.455-1.601c-0.31-0.988-0.257-2.557-0.211-3.94
		c0.022-0.663,0.052-1.552-0.006-1.867c-0.36-0.294-0.781-0.924-0.493-2.201c0.036-0.156-0.044-0.271-0.408-0.588
		c-0.126-0.111-0.258-0.226-0.366-0.357c-0.171-0.208-0.255-0.505-0.372-0.916c-0.123-0.43-0.376-1.325-0.682-1.354
		c-0.184,0.039-0.681,0.633-1.009,1.026c-0.771,0.923-1.729,2.07-3.001,2.095c-0.771,0.014-1.102,0.348-1.483,0.732
		c-0.34,0.344-0.763,0.771-1.463,0.791l-0.062,0.001c-0.719,0-1.721-0.396-2.411-2.286c-0.055-0.15-0.371-0.387-0.625-0.576
		c-0.524-0.392-1.177-0.879-1.233-1.676c-0.056-0.781,0.536-1.126,0.89-1.332c0.404-0.236,0.439-0.267,0.355-0.576
		c-0.399-1.488-0.166-3.561,0.5-4.435c0.318-0.419,0.771-0.631,1.346-0.631c0.277,0,0.545,0.046,0.805,0.09
		c0.09,0.016,0.177,0.031,0.262,0.043c0.097-0.716-0.249-2.596-0.524-2.986c-0.453-0.336-0.764-1.066,0.2-2.636
		c0.042-0.105-0.071-0.521-0.138-0.771c-0.061-0.224-0.129-0.477-0.174-0.738c-0.072-0.414,0.059-0.688,0.181-0.843
		c0.295-0.376,0.772-0.408,1.12-0.431c0.048-0.004,0.107-0.008,0.162-0.013c0.037-0.187,0.066-0.508,0.089-0.757
		c0.067-0.724,0.149-1.623,0.47-2.454c0.233-0.604,0.848-1.926,1.561-3.457c0.715-1.537,1.746-3.755,2.062-4.602
		c-0.233,0.001-0.545,0.031-0.874,0.063c-0.436,0.042-0.93,0.089-1.425,0.089c-0.737,0-1.389-0.282-1.886-0.815
		c-0.526-0.564-0.769-1.309-0.737-1.752c-0.033-0.093-0.43-0.464-1.401-0.587c-1.25-0.161-2.069-1.664-2.611-2.658
		c-0.125-0.229-0.281-0.516-0.343-0.586c-0.444-0.48-0.34-1.37,0.008-2.844c0.01-0.042,0.019-0.082,0.028-0.117
		c-0.154-0.136-0.42-0.337-0.612-0.481c-0.714-0.539-1.195-0.922-1.381-1.315c-0.103-0.219-0.181-0.532-0.288-0.966
		c-0.207-0.831-0.52-2.088-1.071-2.602c-0.491-0.457-1.07-1.417-1.683-2.433c-0.544-0.902-1.367-2.266-1.726-2.445
		c-0.671-0.336-1.273-1.236-1.91-2.19c-0.414-0.619-0.842-1.26-1.224-1.629c-0.876-0.847-0.956-1.804-0.237-2.844
		c-0.054-0.261-0.385-0.854-0.552-1.151c-0.1-0.179-0.192-0.345-0.26-0.479c-0.332-0.663,0.079-1.718,0.743-3.252
		c0.125-0.288,0.242-0.558,0.329-0.782c0.237-0.612-0.689-1.565-0.971-1.687c-0.618-0.267-0.662-0.972-0.704-1.653
		c-0.021-0.351-0.046-0.748-0.138-1.104c-0.204-0.791-1.617-3.677-2.144-4.722c-0.061-0.12-0.079-0.259-0.052-0.391l5.307-25.873
		c0.032-0.158,0.127-0.297,0.264-0.384c0.136-0.088,0.301-0.116,0.458-0.08c1.165,0.269,117.501,26.835,208.995,30.768
		c0.164,0.007,0.317,0.081,0.426,0.203c0.107,0.123,0.16,0.285,0.146,0.448l-9.021,104.816c-0.029,0.326-0.311,0.572-0.639,0.548
		c-0.714-0.048-71.848-4.87-129.49-15.553l-2.155,13.684c-0.001,0.013-0.002,0.025-0.004,0.037l-0.379,2.399
		C109.599,212.421,109.343,212.632,109.053,212.632z M111.688,194.702c0.037,0,0.073,0.004,0.11,0.011
		c54.9,10.229,122.38,15.118,129.37,15.606l8.918-103.605C161.979,102.834,51.25,78.149,42.097,76.08l-5.142,25.068
		c0.421,0.841,1.893,3.814,2.141,4.776c0.121,0.467,0.149,0.926,0.174,1.329c0.014,0.229,0.033,0.533,0.072,0.669
		c0.736,0.385,2.047,1.826,1.524,3.179c-0.092,0.237-0.215,0.521-0.347,0.826c-0.268,0.618-0.823,1.9-0.761,2.256
		c0.06,0.118,0.139,0.26,0.225,0.412c0.503,0.899,0.978,1.749,0.544,2.346c-0.341,0.469-0.53,0.83,0.031,1.373
		c0.475,0.458,0.938,1.153,1.387,1.825c0.474,0.708,1.063,1.59,1.45,1.784c0.624,0.313,1.253,1.304,2.215,2.897
		c0.518,0.858,1.105,1.832,1.473,2.174c0.813,0.757,1.162,2.164,1.418,3.191c0.077,0.311,0.157,0.633,0.209,0.744
		c0.096,0.172,0.696,0.625,1.018,0.868c0.785,0.593,1.179,0.891,1.125,1.375c-0.011,0.096-0.039,0.216-0.096,0.457
		c-0.23,0.975-0.316,1.578-0.257,1.796c0.145,0.173,0.287,0.434,0.478,0.783c0.373,0.686,1.068,1.96,1.71,2.043
		c1.757,0.224,2.5,1.123,2.445,1.864c-0.001,0.088,0.099,0.521,0.444,0.874c0.264,0.27,0.594,0.406,0.982,0.406
		c0.438,0,0.901-0.044,1.31-0.083c0.362-0.035,0.705-0.067,0.996-0.067c0.345,0,0.776,0.039,1.057,0.349
		c0.167,0.183,0.245,0.429,0.219,0.692c-0.042,0.442-0.628,1.764-2.257,5.266c-0.674,1.449-1.311,2.817-1.529,3.383
		c-0.26,0.675-0.334,1.483-0.394,2.133c-0.081,0.879-0.135,1.459-0.626,1.705c-0.236,0.117-0.503,0.135-0.739,0.151
		c-0.048,0.003-0.111,0.007-0.17,0.013c0.036,0.17,0.079,0.331,0.122,0.489c0.158,0.585,0.322,1.19,0.002,1.711
		c-0.415,0.676-0.455,0.992-0.456,1.084c0.745,0.624,1.148,3.515,0.861,4.437c-0.203,0.652-0.694,0.702-0.84,0.702
		c-0.009,0-0.028,0-0.037,0c-0.236-0.011-0.467-0.05-0.691-0.088c-0.22-0.038-0.428-0.073-0.603-0.073
		c-0.227,0-0.315,0.058-0.391,0.157c-0.359,0.473-0.642,2.106-0.296,3.396c0.324,1.204-0.509,1.69-0.91,1.924
		c-0.108,0.063-0.271,0.158-0.303,0.207c0.023,0.253,0.415,0.545,0.76,0.803c0.421,0.315,0.857,0.641,1.035,1.127
		c0.249,0.683,0.674,1.497,1.283,1.497c0.228-0.006,0.364-0.124,0.672-0.437c0.445-0.449,1.055-1.064,2.314-1.087
		c0.724-0.015,1.456-0.891,2.102-1.664c0.653-0.782,1.217-1.458,1.94-1.458c0.035,0,0.07,0.002,0.105,0.005
		c1.12,0.108,1.481,1.381,1.72,2.223c0.05,0.177,0.118,0.415,0.158,0.498c0.048,0.053,0.132,0.126,0.214,0.197
		c0.371,0.324,0.993,0.866,0.79,1.759c-0.044,0.195-0.167,0.848,0.104,1.022c0.482,0.31,0.485,0.967,0.423,2.82
		c-0.041,1.225-0.092,2.748,0.157,3.541c0.153,0.487,0.306,1.05,0.468,1.645c0.257,0.943,0.682,2.504,0.936,2.833
		c0.127,0.06,0.277,0.118,0.423,0.175c0.541,0.21,1.153,0.448,1.153,1.066c0.003,0.053,0.026,0.21,0.056,0.424
		c0.367,2.681,0.389,4.003-0.483,4.265c-0.057,0.017-0.088,0.032-0.104,0.041c-0.028,0.141,0.074,0.583,0.118,0.775
		c0.183,0.791,0.953,2.104,1.634,2.55c0.116,0.076,0.202,0.086,0.263,0.086c0.14,0,0.309-0.058,0.487-0.119
		c0.225-0.077,0.479-0.164,0.762-0.164c0.242,0,0.467,0.065,0.669,0.192c0.923,0.582,2.359,5.006,2.191,5.835
		c-0.104,0.521,0.094,3.837,0.198,4.527c0.211,0.444,1.825,1.805,2.506,2.148c0.07-0.128,0.155-0.308,0.223-0.453
		c0.428-0.911,1.145-2.436,2.811-2.464h0.054c1.496,0,3.417,1.043,4.82,1.804c0.255,0.139,0.549,0.298,0.774,0.411
		c0.009-0.053,0.018-0.104,0.025-0.149c0.106-0.641,0.305-1.832,1.434-1.832c0.129,0,0.157-0.021,0.299-0.236
		c0.127-0.191,0.365-0.549,0.833-0.549c0.401,0,0.739,0.285,1.018,0.563l0.124,0.124c0.934,0.938,1.551,1.557,4.361,1.557
		c2.854,0,2.966,0,3.584,0.578c0.067,0.063,0.145,0.137,0.248,0.223c0.308,0.257,1.933,0.529,4.34,0.529
		c0.387,0,0.764-0.008,1.087-0.022c-0.347-0.568-0.834-1.521-0.244-2.702c0.838-1.675,2.029-2.271,2.864-2.271
		c0.403,0,0.764,0.14,1.017,0.393c0.427,0.427,2.227,3.782,3.51,6.228l1.974-12.531c0.025-0.16,0.114-0.303,0.247-0.396
		C111.443,194.74,111.564,194.702,111.688,194.702z"/>
</g>
</svg>
