<?xml version="1.0" encoding="iso-8859-1"?>
<!-- Generator: Adobe Illustrator 15.1.0, SVG Export Plug-In . SVG Version: 6.00 Build 0)  -->
<!DOCTYPE svg PUBLIC "-//W3C//DTD SVG 1.1//EN" "http://www.w3.org/Graphics/SVG/1.1/DTD/svg11.dtd">
<svg version="1.1" id="Layer_1" xmlns="http://www.w3.org/2000/svg" xmlns:xlink="http://www.w3.org/1999/xlink" x="0px" y="0px"
	 width="288px" height="288px" viewBox="0 0 288 288" style="enable-background:new 0 0 288 288;" xml:space="preserve">
<g>
	<path d="M236.375,198.44c-0.004,0-0.008,0-0.011,0c-42.147-0.001-134.502-4.649-152.588-5.581c-0.16-0.009-0.311-0.081-0.418-0.201
		c-0.106-0.121-0.161-0.279-0.149-0.439l2.159-31.58c-13.638-0.729-28.758-1.917-48.896-3.841c-0.329-0.031-0.57-0.322-0.54-0.651
		l6.044-66.293c0.03-0.33,0.323-0.571,0.651-0.544c19.611,1.772,86.952,7.555,130.11,7.554c0.75,0,1.498-0.002,2.232-0.005
		c0.002,0,0.002,0,0.004,0c0.303,0,0.558,0.225,0.595,0.525c0.086,0.675,0.403,1.784,0.812,2.018
		c0.246,0.141,1.075,0.496,1.954,0.872c2.768,1.187,5.115,2.225,5.812,2.921c0.128,0.128,0.252,0.258,0.374,0.386
		c0.646,0.679,1.072,1.095,1.661,1.095c0.195,0,0.414-0.046,0.652-0.138c0.52-0.2,0.762-0.637,1.041-1.144
		c0.396-0.716,0.889-1.607,2.255-1.607c0.446,0,1.337-0.029,2.466-0.067c1.916-0.063,4.539-0.151,6.797-0.151
		c2.107,0,3.508,0.076,4.284,0.23c1.483,0.297,1.868,1.249,2.177,2.014c0.311,0.771,0.516,1.278,1.723,1.43
		c2.527,0.316,3.509,0.538,3.98,1.155c0.094,0.123,0.162,0.258,0.203,0.403c1.221,0.221,3.143,0.699,3.896,1.607
		c0.282-0.09,0.642-0.173,1.004-0.173c0.686,0,1.076,0.296,1.283,0.544c0.534,0.641,0.271,1.321,0.099,1.771
		c-0.157,0.41-0.163,0.494-0.099,0.57l0.616,0.738c0.438,0.525,1.288,1.331,1.718,1.393c0.52,0.075,1.733,0.251,2.823,0.695
		c0.899,0.367,1.542,0.847,1.91,1.424c0.628,0.985,0.36,2.164,0.145,3.11c-0.084,0.37-0.211,0.93-0.146,1.076
		c0.076,0.114,0.181,0.262,0.298,0.428c0.867,1.232,1.646,2.415,1.646,3.349c0,0.711-0.562,1.121-0.934,1.393
		c-0.088,0.064-0.209,0.153-0.281,0.22c0.029,0.037,0.076,0.09,0.154,0.159c0.33,0.298,0.65,0.527,0.961,0.75
		c0.812,0.583,1.578,1.134,1.578,2.406c0,1.134,1.116,2.632,2.342,3.143c1.314,0.548,1.074,1.692,0.932,2.376
		c-0.089,0.422-0.172,0.819-0.021,1.09c0.636,1.147,1.456,4.639,1.174,6.189c-0.048,0.264-0.121,0.574-0.199,0.903
		c-0.271,1.147-0.728,3.067-0.01,3.541c0.734,0.485,1.076,0.883,1.406,1.269c0.3,0.35,0.609,0.71,1.284,1.216
		c1.718,1.29,1.845,2.401,1.716,4.46c-0.126,2.02,0.148,4.797,0.555,5.608c0.271,0.542,1.515,3.736,0.559,4.942
		c-0.033,0.203,0.219,0.843,0.387,1.269c0.396,1.012,0.892,2.271,0.576,3.453c-0.174,0.651-0.451,1.254-0.72,1.837
		c-0.501,1.089-0.934,2.029-0.54,2.947c0.27,0.628,0.598,0.851,1.016,1.134c0.555,0.376,1.247,0.844,1.712,2.239
		c0.319,0.959,0.398,1.46,0.462,1.862c0.08,0.507,0.124,0.786,0.725,1.853c0.482,0.858,0.68,1.609,0.889,2.404
		c0.294,1.115,0.597,2.269,1.788,3.95c1.31,1.849,1.754,2.184,2.183,2.507c0.259,0.194,0.552,0.415,0.977,0.889
		c0.794,0.881,1.276,1.846,1.743,2.778c0.223,0.445,0.433,0.866,0.668,1.257c0.416,0.694,0.139,1.273-0.046,1.657
		c-0.211,0.44-0.394,0.82,1.777,1.938c0.239,0.123,0.367,0.392,0.313,0.656c-0.056,0.264-0.28,0.459-0.55,0.476
		C248,198.327,242.902,198.44,236.375,198.44z M84.448,191.692c19.45,0.999,110.25,5.547,151.917,5.548c0.003,0,0.007,0,0.011,0
		c5.414,0,9.836-0.078,13.185-0.231c-1.08-0.88-1.073-1.625-0.656-2.494c0.167-0.35,0.168-0.402,0.098-0.52
		c-0.259-0.431-0.489-0.893-0.712-1.338c-0.432-0.861-0.877-1.752-1.562-2.513c-0.349-0.388-0.561-0.548-0.807-0.733
		c-0.503-0.378-1.022-0.771-2.439-2.771c-1.317-1.859-1.664-3.177-1.97-4.339c-0.197-0.749-0.367-1.396-0.774-2.12
		c-0.673-1.196-0.763-1.616-0.863-2.254c-0.057-0.359-0.128-0.806-0.416-1.67c-0.336-1.01-0.738-1.281-1.247-1.626
		c-0.486-0.329-1.037-0.703-1.445-1.654c-0.604-1.408-0.016-2.686,0.554-3.922c0.247-0.537,0.503-1.092,0.649-1.644
		c0.215-0.803-0.184-1.813-0.533-2.706c-0.388-0.985-0.723-1.837-0.209-2.452c0.299-0.359-0.103-2.48-0.693-3.66
		c-0.559-1.118-0.806-4.176-0.678-6.22c0.119-1.904-0.014-2.507-1.238-3.426c-0.779-0.584-1.148-1.015-1.475-1.395
		c-0.314-0.366-0.563-0.656-1.157-1.049c-1.418-0.936-0.886-3.18-0.497-4.819c0.074-0.313,0.145-0.607,0.187-0.841
		c0.212-1.167-0.464-4.348-1.043-5.392c-0.368-0.662-0.222-1.359-0.104-1.919c0.167-0.798,0.124-0.879-0.218-1.022
		c-1.67-0.696-3.081-2.643-3.081-4.25c0-0.632-0.312-0.88-1.079-1.432c-0.32-0.229-0.684-0.49-1.063-0.832
		c-0.152-0.137-0.615-0.554-0.586-1.123c0.027-0.547,0.461-0.863,0.809-1.117c0.164-0.121,0.44-0.322,0.44-0.424
		c0-0.631-0.964-1.999-1.428-2.657c-0.124-0.177-0.234-0.333-0.319-0.461c-0.354-0.531-0.192-1.245-0.021-2.001
		c0.175-0.767,0.372-1.636,0.014-2.198c-0.232-0.364-0.688-0.687-1.353-0.958c-0.953-0.389-2.065-0.55-2.54-0.619
		c-1.037-0.148-2.238-1.535-2.468-1.812l-0.617-0.738c-0.534-0.641-0.272-1.32-0.1-1.771c0.158-0.41,0.164-0.494,0.1-0.57
		c-0.063-0.076-0.184-0.113-0.361-0.113c-0.393,0-0.873,0.192-1.025,0.267c-0.175,0.086-0.381,0.081-0.552-0.013
		s-0.286-0.264-0.309-0.457c-0.069-0.355-1.72-1.025-3.667-1.324c-0.324-0.049-0.549-0.352-0.503-0.677
		c0.011-0.076,0.001-0.102,0.001-0.102c-0.152-0.318-2.351-0.594-3.178-0.697c-1.908-0.238-2.359-1.355-2.688-2.171
		c-0.271-0.672-0.45-1.116-1.299-1.286c-0.688-0.138-2.05-0.207-4.049-0.207c-2.237,0-4.85,0.087-6.756,0.15
		c-1.141,0.038-2.041,0.068-2.507,0.068c-0.632,0-0.825,0.303-1.204,0.988c-0.326,0.591-0.732,1.325-1.662,1.683
		c-0.375,0.145-0.738,0.217-1.081,0.217c-1.134,0.001-1.845-0.745-2.53-1.466c-0.116-0.121-0.233-0.244-0.354-0.365
		c-0.589-0.589-3.623-1.89-5.437-2.666c-1.027-0.441-1.771-0.76-2.076-0.935c-0.802-0.458-1.166-1.653-1.316-2.382
		c-0.572,0.002-1.151,0.003-1.73,0.003c-42.781,0-109.263-5.671-129.621-7.505L37.18,155.66c20.125,1.917,35.212,3.095,48.859,3.813
		c0.161,0.008,0.311,0.08,0.418,0.201c0.106,0.12,0.16,0.278,0.149,0.438L84.448,191.692z"/>
</g>
</svg>
