<?xml version="1.0" encoding="iso-8859-1"?>
<!-- Generator: Adobe Illustrator 15.1.0, SVG Export Plug-In . SVG Version: 6.00 Build 0)  -->
<!DOCTYPE svg PUBLIC "-//W3C//DTD SVG 1.1//EN" "http://www.w3.org/Graphics/SVG/1.1/DTD/svg11.dtd">
<svg version="1.1" id="Layer_1" xmlns="http://www.w3.org/2000/svg" xmlns:xlink="http://www.w3.org/1999/xlink" x="0px" y="0px"
	 width="288px" height="288px" viewBox="0 0 288 288" style="enable-background:new 0 0 288 288;" xml:space="preserve">
<g>
	<path d="M162.723,246.87c-0.198,0-0.385-0.099-0.497-0.266L76.094,118.673c-0.096-0.142-0.126-0.317-0.084-0.483l19.678-77.186
		c0.082-0.32,0.408-0.515,0.728-0.434c20.938,5.251,38.329,9.392,53.167,12.659c1.307,0.287,2.589,0.568,3.825,0.836
		c14.047,3.046,56.612,11.324,57.04,11.408c0.324,0.063,0.536,0.375,0.476,0.7l-28.758,152.581c-0.047,0.247-0.243,0.439-0.491,0.48
		c-0.941,0.157-1.929,1.744-2.519,2.692c-0.463,0.743-0.695,1.116-1.039,1.255c-0.167,0.066-0.383,0.101-0.642,0.101l0,0
		c-1.108,0-2.67-0.575-2.67-1.853c0-0.853-0.853-2.059-1.389-2.364c-0.21-0.12-0.544-0.12-0.896-0.12c-0.472,0-1.006,0-1.492-0.278
		c-0.543-0.31-1.703-0.518-2.886-0.518c-0.473,0-1.384,0.343-1.838,1.079c-0.378,0.611-0.35,1.362,0.085,2.231
		c0.925,1.849,0.902,2.665-0.087,3.232c-0.105,0.061-0.175,0.103-0.187,0.133c-0.189,0.506-0.115,3.716-0.084,5.086
		c0.013,0.544,0.022,0.996,0.022,1.271c0,0.851-0.418,1.391-0.754,1.825c-0.257,0.332-0.416,0.55-0.442,0.822
		c-0.036,0.359,0.297,1.641,0.564,2.671c0.389,1.495,0.79,3.041,0.73,3.88c-0.087,1.216-1.13,5.091-2.64,5.777
		c-0.02,0.01-0.116,0.064-0.238,0.349c-0.087,0.202-0.277,0.34-0.495,0.36C162.76,246.869,162.741,246.87,162.723,246.87z
		 M77.239,118.226l85.507,127.004c0.085-0.066,0.176-0.121,0.272-0.164c0.711-0.323,1.83-3.279,1.937-4.771
		c0.046-0.642-0.365-2.223-0.695-3.492c-0.405-1.563-0.651-2.547-0.597-3.093c0.063-0.629,0.395-1.058,0.688-1.437
		c0.281-0.363,0.504-0.65,0.504-1.091c0-0.269-0.011-0.711-0.023-1.242c-0.071-3.121-0.067-4.928,0.161-5.535
		c0.164-0.438,0.494-0.627,0.712-0.752c0.056-0.032,0.14-0.08,0.159-0.103l0,0c-0.003,0,0.081-0.295-0.548-1.553
		c-0.789-1.578-0.453-2.72-0.033-3.4c0.669-1.082,1.944-1.647,2.859-1.647c0.538,0,2.381,0.049,3.48,0.676
		c0.211,0.12,0.544,0.12,0.897,0.12c0.471,0,1.005,0,1.492,0.278c0.813,0.464,1.993,2.021,1.993,3.406
		c0,0.345,0.822,0.652,1.47,0.652c0.065,0,0.113-0.004,0.146-0.008c0.116-0.141,0.335-0.492,0.516-0.781
		c0.67-1.077,1.648-2.649,2.918-3.127l28.578-151.63c-5.193-1.011-43.323-8.446-56.479-11.299c-1.237-0.268-2.521-0.549-3.829-0.837
		c-14.713-3.239-31.93-7.337-52.621-12.521L77.239,118.226z"/>
</g>
</svg>
