<?xml version="1.0" encoding="iso-8859-1"?>
<!-- Generator: Adobe Illustrator 15.1.0, SVG Export Plug-In . SVG Version: 6.00 Build 0)  -->
<!DOCTYPE svg PUBLIC "-//W3C//DTD SVG 1.1//EN" "http://www.w3.org/Graphics/SVG/1.1/DTD/svg11.dtd">
<svg version="1.1" id="Layer_1" xmlns="http://www.w3.org/2000/svg" xmlns:xlink="http://www.w3.org/1999/xlink" x="0px" y="0px"
	 width="288px" height="288px" viewBox="0 0 288 288" style="enable-background:new 0 0 288 288;" xml:space="preserve">
<g>
	<path d="M101.905,256.509h-0.021c-0.162,0-0.318-0.065-0.432-0.183c-3.194-3.307-7.045-7.416-7.246-8.223
		c-0.083-0.324-0.127-1.059-0.196-2.326c-0.083-1.519-0.239-4.345-0.561-4.879c-1.073-1.803,2.773-6.2,3.555-7.063
		c0.26-0.284,0.547-0.688,0.444-1.014c-0.171-0.543-1.289-0.964-1.772-1.072c-0.262-0.059-0.453-0.284-0.468-0.552
		c-0.167-2.979-0.679-7.511-1.293-8.252c-0.527-0.63-0.511-2.354-0.334-6.763c0.107-2.697,0.307-7.684-0.309-8.381
		c-1.791-0.114-2.495-4.729-3.299-14.289c-0.115-1.371-0.215-2.555-0.304-3.235c-0.325-2.6,1.008-3.91,2.043-4.387
		c-0.04-1.835-0.179-8.815,0.007-10.116c0.17-1.159,1.46-2.991,3.003-5.09c0.325-0.442,0.606-0.825,0.787-1.095
		c0.33-0.498-0.124-2.781-0.455-4.448c-0.318-1.598-0.646-3.249-0.624-4.443c0.039-1.829,1.286-2.757,2.386-3.575
		c0.727-0.541,1.413-1.052,1.696-1.763c0.551-1.378-1.407-3.913-2.136-4.692c-0.152-0.163-0.202-0.397-0.129-0.608
		c1.098-3.144,2.838-8.269,3.026-9.172c-0.111-0.187-0.447-0.586-0.723-0.914c-1.112-1.323-2.792-3.324-2.948-5.443
		c-0.065-0.937-0.272-2.103-0.491-3.337c-0.448-2.527-0.956-5.393-0.527-7.676c0.61-3.264,7.187-5.073,10.348-5.943
		c0.376-0.104,0.691-0.19,0.926-0.261c0.984-0.295,1.131-1.448,1.229-3.044c0.039-0.613,0.075-1.193,0.211-1.668
		c0.485-1.672,3.498-2.511,5.049-2.511c0.153,0,0.296,0.008,0.425,0.023c0.089-0.413-0.091-1.521-0.191-2.145
		c-0.095-0.588-0.186-1.144-0.186-1.549c0-0.876,0.706-1.852,2.36-3.26c0.53-0.445,1.025-0.844,1.349-1.102
		c0.058-0.109-0.001-0.793-1.08-2.365c-0.079-0.114-0.115-0.253-0.104-0.392l0.232-2.621c0.006-0.066,0.022-0.132,0.05-0.192
		c0.646-1.443,0.722-2.265,0.672-2.7c-0.006-0.049-0.04-0.188-0.302-0.617c-1.588-2.571-8.05-8.577-8.114-8.638
		c-0.123-0.113-0.192-0.273-0.192-0.44c0-0.168,0.07-0.327,0.193-0.44l2.431-2.241c-0.74-4.553-0.268-5.233,0.111-5.417
		c0.396-0.72,0.952-4.765,0.94-6.438c0.004-0.594-0.275-1.02-0.738-1.726c-0.558-0.85-1.321-2.013-1.888-4.064
		c-0.466-1.678-0.519-2.672-0.181-3.431c0.212-0.491,0.553-0.813,0.913-1.152c0.259-0.243,0.525-0.495,0.798-0.854
		c0.784-1.043,0.593-4.803,0.288-6.927c-0.011-0.072-0.008-0.146,0.009-0.217c0.004-0.018,0.416-1.855,0.822-3.876
		c0.235-1.197-1.93-4.123-3.543-5.817c-0.157-0.166-0.207-0.407-0.128-0.622s0.274-0.365,0.502-0.389l1.848-0.187l5.985-5.797
		c0.141-0.135,0.337-0.195,0.527-0.159l8.469,1.575l3.051-3.624c0.14-0.167,0.359-0.246,0.573-0.202
		c0.214,0.041,0.389,0.195,0.456,0.402l44.272,135.799c0.011,0.035,0.02,0.07,0.024,0.106l1.606,11.896
		c1.793,1.966,6.192,6.741,6.979,7.374c0.681,0.545,3.76,1.605,5.54,2.146c0.214,0.065,0.373,0.242,0.416,0.461l1.226,6.347
		c0.033,0.17-0.01,0.347-0.116,0.483c-0.378,0.482-2.241,2.8-3.56,3.238c0.071,0.197,0.215,0.485,0.32,0.695
		c0.417,0.837,0.89,1.785,0.421,2.564c-0.488,0.813-0.712,2.972-0.033,4.237c0.454-0.487,1.219-2.334,1.383-3.603
		c0.195-1.577,1.374-4.016,2.54-4.016c0.096,0,0.189,0.015,0.279,0.045c0.434,0.141,3.941,2.3,4.286,4.454
		c0.18-0.124,0.413-0.308,0.576-0.436c0.563-0.443,1.097-0.862,1.631-0.862c0.238,0,0.455,0.082,0.627,0.238
		c1.046,0.951,0.447,2.848-0.187,4.856c-0.428,1.356-0.913,2.895-0.622,3.545c0.891,2.005-0.779,6.682-0.973,7.208
		c-0.073,0.198-0.246,0.345-0.454,0.383l-6.464,1.203c-2.417,1.778-5.114,3.96-5.598,4.646c0.214,0.816,0.041,2.348-0.052,3.018
		c-0.021,0.162-0.109,0.308-0.241,0.403c-0.131,0.096-0.296,0.136-0.457,0.106c-0.013-0.003-1.271-0.222-2.598-0.222
		c-1.503,0-2.522,0.293-2.727,0.783c-0.717,1.723-1.126,2.83-0.759,3.683c0.35,0.816,0.345,1.588-0.014,2.175
		c-0.401,0.658-1.188,1.034-2.341,1.117c-1.332,0.095-1.831,2.917-1.901,3.898c-0.019,0.265-0.208,0.485-0.467,0.543l-69.236,15.488
		C101.993,256.504,101.949,256.509,101.905,256.509z M95.365,247.789c0.3,0.622,3.597,4.224,6.721,7.465l68.502-15.324
		c0.152-1.242,0.759-4.405,2.968-4.563c0.721-0.052,1.219-0.245,1.401-0.545c0.203-0.331,0.046-0.817-0.065-1.077
		c-0.553-1.286-0.084-2.603,0.754-4.616c0.421-1.01,1.711-1.522,3.835-1.522c0.845,0,1.648,0.08,2.178,0.147
		c0.091-0.916,0.098-1.765,0.004-1.974c-0.209-0.421-0.528-1.065,6.164-5.974c0.073-0.053,0.157-0.09,0.245-0.105l6.259-1.165
		c0.645-1.86,1.383-4.876,0.891-5.985c-0.477-1.066,0.033-2.684,0.574-4.396c0.393-1.246,0.921-2.92,0.607-3.497
		c-0.201,0.104-0.563,0.388-0.794,0.569c-0.562,0.441-1.047,0.823-1.548,0.823c-0.201,0-0.862-0.076-0.946-1.066
		c-0.108-1.321-2.66-3.142-3.39-3.531c-0.369,0.281-1.185,1.606-1.349,2.935c-0.125,0.968-1.141,4.744-2.631,4.744
		c-0.22,0-0.635-0.081-0.945-0.628c-0.912-1.58-0.746-4.267,0.007-5.521c0.13-0.216-0.272-1.022-0.466-1.41
		c-0.353-0.708-0.657-1.318-0.391-1.852c0.076-0.153,0.271-0.424,0.718-0.506c0.551-0.096,1.875-1.404,2.872-2.639l-1.105-5.723
		c-1.175-0.367-4.646-1.489-5.597-2.251c-1.044-0.841-6.989-7.363-7.241-7.641c-0.082-0.09-0.135-0.203-0.151-0.324l-1.625-12.028
		L127.899,33.89l-2.581,3.066c-0.139,0.165-0.354,0.244-0.568,0.203l-8.508-1.583l-5.912,5.727
		c-0.097,0.095-0.223,0.152-0.357,0.166l-0.874,0.089c1.28,1.481,3.389,4.239,3.044,5.987c-0.354,1.757-0.711,3.375-0.805,3.798
		c0.134,0.979,0.747,6.006-0.533,7.711c-0.334,0.44-0.666,0.753-0.933,1.004c-0.303,0.285-0.521,0.491-0.637,0.761
		c-0.143,0.32-0.242,0.902,0.237,2.629c0.517,1.871,1.191,2.9,1.734,3.727c0.506,0.771,0.942,1.436,0.936,2.384
		c0,0.058-0.211,6.309-1.408,7.39c-0.137,0.545,0.085,2.76,0.393,4.587c0.033,0.2-0.036,0.403-0.185,0.541l-2.194,2.022
		c1.555,1.466,6.417,6.13,7.848,8.446c0.312,0.511,0.448,0.836,0.473,1.126c0.096,0.825-0.143,1.884-0.729,3.217l-0.204,2.309
		c1.278,1.916,1.514,3.16,0.719,3.801c-0.319,0.255-0.807,0.647-1.324,1.082c-1.683,1.433-1.935,2.083-1.935,2.343
		c0,0.31,0.083,0.818,0.17,1.357c0.253,1.563,0.383,2.632-0.105,3.205c-0.191,0.225-0.464,0.349-0.767,0.349
		c-0.063,0-0.129-0.005-0.199-0.017c-0.096-0.017-0.214-0.024-0.347-0.024c-1.461,0-3.655,0.813-3.896,1.644
		c-0.1,0.347-0.132,0.863-0.166,1.41c-0.094,1.502-0.223,3.561-2.082,4.118c-0.241,0.072-0.566,0.162-0.954,0.269
		c-2.465,0.679-9.014,2.48-9.486,5.007c-0.387,2.068,0.1,4.819,0.53,7.246c0.225,1.267,0.437,2.463,0.506,3.46
		c0.128,1.73,1.658,3.553,2.671,4.758c0.678,0.807,1.018,1.212,1.018,1.631c0,0.603-1.821,5.929-2.99,9.287
		c0.79,0.909,2.943,3.649,2.13,5.685c-0.409,1.026-1.267,1.664-2.095,2.281c-1.007,0.749-1.877,1.396-1.902,2.637
		c-0.021,1.063,0.295,2.65,0.601,4.185c0.547,2.75,0.853,4.479,0.276,5.35c-0.198,0.294-0.485,0.686-0.818,1.139
		c-0.988,1.345-2.643,3.595-2.782,4.551c-0.162,1.136-0.044,7.854,0.016,10.347c0.007,0.281-0.183,0.529-0.455,0.597
		c-0.194,0.053-1.938,0.598-1.607,3.236c0.092,0.704,0.188,1.844,0.309,3.285c0.214,2.537,0.479,5.693,0.878,8.38
		c0.611,4.124,1.212,4.732,1.329,4.813c0.276,0.01,0.53,0.126,0.735,0.34c0.931,0.969,0.873,4.154,0.668,9.286
		c-0.092,2.305-0.218,5.46,0.072,5.967c0.983,1.186,1.409,6.619,1.529,8.505c0.678,0.219,1.893,0.744,2.212,1.759
		c0.22,0.698-0.017,1.433-0.701,2.182c-2.493,2.752-3.687,5.179-3.413,5.639c0.44,0.73,0.58,2.712,0.729,5.431
		C95.255,246.563,95.308,247.524,95.365,247.789z"/>
</g>
</svg>
