<?xml version="1.0" encoding="iso-8859-1"?>
<!-- Generator: Adobe Illustrator 15.1.0, SVG Export Plug-In . SVG Version: 6.00 Build 0)  -->
<!DOCTYPE svg PUBLIC "-//W3C//DTD SVG 1.1//EN" "http://www.w3.org/Graphics/SVG/1.1/DTD/svg11.dtd">
<svg version="1.1" id="Layer_1" xmlns="http://www.w3.org/2000/svg" xmlns:xlink="http://www.w3.org/1999/xlink" x="0px" y="0px"
	 width="288px" height="288px" viewBox="0 0 288 288" style="enable-background:new 0 0 288 288;" xml:space="preserve">
<g>
	<path d="M151.234,256.732c-0.186,0-0.366-0.024-0.537-0.073c-0.526-0.152-0.9-0.688-1.146-1.641
		c-0.748-2.892-0.36-9.797,1.337-11.501c1.519-1.521,0.833-7.71-0.124-9.876c-0.085-0.19-0.233-0.396-0.901-0.396
		c-0.529,0-1.226,0.135-1.963,0.277c-0.958,0.186-2.043,0.395-3.141,0.395c-0.893,0-1.67-0.136-2.377-0.417
		c-1.064-0.428-1.816-0.627-2.368-0.627c-0.4,0-0.686,0.101-1.08,0.24c-0.43,0.152-0.964,0.341-1.77,0.422
		c-1.073,0.109-2.18,0.995-3.156,1.776c-0.963,0.771-1.795,1.437-2.631,1.437c-1.317,0-1.757-2.053-2.182-4.038
		c-0.143-0.664-0.335-1.563-0.479-1.813c-0.872-0.437-7.964-2.162-10.165-2.162c-2.633,0-11.307-8.333-12.645-10.355
		c-0.444-0.659-0.734-0.659-0.927-0.659c-0.133,0-0.287,0.021-0.45,0.042c-0.206,0.026-0.438,0.057-0.694,0.057
		c-0.779,0-1.474-0.292-2.187-0.92c-1.343-1.191-1.299-3.608-1.256-5.946c0.026-1.493,0.058-3.187-0.413-3.735
		c-0.55-0.646-1.198-1.188-1.826-1.712c-0.918-0.769-1.786-1.494-2.364-2.507c-0.706-1.24,0.141-1.961,0.759-2.487
		c0.571-0.486,1.163-0.989,1.271-1.999c0.254-2.378,0.009-3.766,0.006-3.779c-0.006-0.035-0.01-0.073-0.01-0.109
		c0-0.112,0.031-0.232,0.092-0.328l1.061-1.691l2.725-9.886c0.043-0.157,0.148-0.291,0.293-0.368l18.44-9.972
		c0.021-0.011,0.043-0.021,0.064-0.029c0.001-0.001,0.544-0.238,0.628-0.666c0.076-0.389-0.223-0.939-0.84-1.551
		c-1.439-1.447-2.103-3.314-1.733-4.875c0.286-1.209,1.146-2.109,2.424-2.539c1.822-0.605,2.254-1.366,3.862-4.194
		c0.569-1.002,1.278-2.248,2.233-3.803c0.711-1.155,1.188-1.976,1.502-2.518c0.633-1.09,0.802-1.383,1.28-1.383
		c0.314,0,0.508,0.196,0.636,0.326c0.198,0.201,0.53,0.537,1.679,0.537c2.19,0,3.278-1.738,4.654-3.938
		c0.66-1.056,1.343-2.146,2.228-3.176c1.531-1.79,1.437-1.911,0.98-2.494c-0.322-0.412-0.765-0.977-1.095-1.973
		c-0.688-2.043-4.624-4.066-6.083-4.674c-0.063-0.026-0.123-0.063-0.174-0.11c-1.979-1.802-5.374-4.595-6.613-4.898
		c-1.275-0.321-2.379-1.722-3.547-3.204c-0.725-0.921-1.475-1.873-2.172-2.397c-0.674-0.508-1.02-0.57-1.458-0.649
		c-0.681-0.122-1.451-0.262-3.11-1.674c-1.542-1.302-2.52-3.464-3.554-5.752c-0.86-1.902-1.75-3.868-2.982-5.306
		c-0.934-1.09-1.676-1.216-2.153-1.216c-0.715,0-1.438,0.33-2.201,0.68c-0.802,0.366-1.631,0.745-2.513,0.745
		c-0.936,0-2.127-0.807-3.058-7.098c-0.521-3.517-0.755-7.427-0.755-9.079c0-3.643,0.852-3.807,3.809-3.814
		c0.371,0,0.51-0.07,0.529-0.096c0.111-0.145-0.082-0.897-0.197-1.348c-0.292-1.14-0.691-2.701,0.047-4.178
		c0.927-1.854,2.239-2.933,3.1-3.482l-8.896-6.772c-0.249-0.189-0.311-0.539-0.141-0.803c1.011-1.567,4.465-6.685,6.472-6.692
		c0.829,0,1.517-2.993,1.847-4.432c0.094-0.407,0.188-0.828,0.283-1.261c0.283-1.273,0.576-2.59,0.947-3.945
		c0.237-0.869,0.394-1.444,0.503-1.805c0.136-0.449,0.275-0.913,0.78-0.913c0.519,0,0.63,0.5,0.684,0.74
		c0.118,0.528,0.227,0.734,0.388,0.734c0.054,0,0.15-0.013,0.299-0.072c1.135-0.453,1.479-2.449,1.954-5.213
		c0.301-1.745,0.675-3.916,1.355-6.306c0.443-1.559,0.725-2.656,0.93-3.458c0.583-2.275,0.636-2.376,1.894-3.583
		c0.167-0.16,0.358-0.343,0.578-0.56c0.325-0.319,0.612-0.594,0.865-0.837c1.545-1.479,1.671-1.6,1.679-3.324
		c0-0.39-0.112-0.939-0.335-1.63c-0.08-0.249,0.01-0.521,0.224-0.673c0.213-0.151,0.499-0.147,0.709,0.01
		c9.253,6.979,60.639,20.984,61.156,21.125c0.205,0.056,0.365,0.216,0.421,0.421c0.826,3.02-0.336,13.663-1.489,23.402
		c-0.162,1.367-0.297,2.504-0.381,3.291c-0.005,0.056-0.011,0.112-0.018,0.167c-0.004,0.042-0.009,0.084-0.014,0.135l-0.067,0.638
		c-0.429,4.057-0.665,6.29-3.751,6.298c-0.683-0.002-1.224-0.228-1.61-0.671c-0.32-0.368-0.484-0.839-0.559-1.33
		c-0.68,1.428-1.537,3.157-2.348,4.175c-1.103,1.384-1.1,1.64-1.077,3.299c0.002,0.189,0.005,0.396,0.007,0.62
		c0,2.118-0.438,4.199-1.417,6.748c-0.374,0.968-0.907,1.838-1.423,2.68c-0.664,1.083-1.291,2.107-1.285,2.956
		c0,0.816,1.374,1.451,2.703,2.065c0.685,0.316,1.394,0.645,2.001,1.029c0.144,0.092,0.308,0.136,0.502,0.136
		c0.916,0,2.268-0.957,3.354-1.726c1.014-0.718,1.89-1.337,2.615-1.421c0.077-0.008,0.153-0.013,0.236-0.013
		c1.335,0,4.115,1.092,6.569,2.054c0.942,0.37,1.762,0.691,2.338,0.886c0.055-0.565-0.354-2.067-0.585-2.912
		c-0.457-1.681-0.63-2.381-0.293-2.825c0.138-0.181,0.347-0.285,0.574-0.287c1.149,0,2.816,3.891,3.363,5.169
		c0.673,1.57,2.28,5.595,2.684,9.057c0.475,4.092,0.216,15.144-0.999,21.036c-1.255,6.074-1.521,7.576-1.739,11.147
		c-0.114,1.787,0.414,3.354,0.925,4.869c0.498,1.479,0.968,2.875,0.792,4.333c-0.156,1.252-0.51,2.604-0.885,4.035
		c-0.462,1.766-0.939,3.591-1.066,5.333c-0.099,1.407,0.459,2.383,1,3.327c0.604,1.056,1.229,2.146,0.817,3.655
		c-0.538,1.974-2.301,6.112-3.148,8.102c-0.223,0.522-0.434,1.016-0.464,1.104c-0.133,0.356-0.476,0.567-1.097,0.951
		c-0.915,0.565-2.299,1.419-3.146,2.824c-0.463,0.774,0.372,1.623,1.602,2.737c1.038,0.94,2.214,2.007,1.333,3.066
		c-0.309,0.37-0.729,0.564-1.214,0.564l0,0c-0.626,0-1.298-0.317-2.009-0.652c-0.769-0.363-1.641-0.775-2.465-0.775
		c-0.272,0-0.523,0.043-0.768,0.132c-0.478,0.174-0.672,0.304-0.746,0.366c0.118,0.202,0.564,0.602,0.899,0.9
		c0.43,0.384,0.964,0.861,1.479,1.438c0.634,0.713,1.808,0.863,2.942,1.009c1.189,0.152,2.313,0.297,2.891,1.113
		c0.334,0.473,0.417,1.072,0.253,1.834c-0.596,2.79-1.484,5.515-5.15,5.515c-1.097,0-1.56-0.472-1.756-0.867
		c-0.385-0.777,0.003-1.858,0.457-2.71c-0.738,0.141-1.658,0.271-2.521,0.271c-0.524,0-0.987-0.049-1.375-0.146
		c-0.086-0.021-0.164-0.032-0.229-0.032c-0.431,0-0.499,0.962-0.544,2.22c-0.018,0.48-0.035,0.977-0.094,1.431
		c-0.062,0.476,2.094,1.177,3.014,1.476c1.865,0.606,3.476,1.131,3.635,2.264c0.306,2.108-3.884,5.477-6.398,6.16
		c-0.733,0.199-1.345,0.074-1.76-0.348c-0.494-0.501-0.597-1.286-0.612-2.034c-0.513,1.141-1.067,2.784-1.075,3.18
		c-0.012,0.831-0.969,0.9-2.293,0.995c-1.043,0.075-2.985,0.215-3.254,0.841c-0.013,0.031-0.011,0.037-0.002,0.058
		c0.182,0.44,1.56,0.991,2.3,1.287c1.062,0.425,1.646,0.659,1.627,1.253c-0.006,0.191-0.095,0.537-0.626,0.711
		c-0.933,0.313-3.41,4.396-4.915,7.7c-0.431,0.952-0.771,2.453-1.102,3.904c-0.669,2.941-1.134,4.763-2.231,5.129
		c-0.088,0.03-0.134,0.058-0.154,0.072c0.007,0.318,0.754,1.225,1.252,1.829c0.158,0.192,0.32,0.39,0.481,0.59
		c0.485,0.603,0.686,1.25,0.597,1.925c-0.197,1.479-1.823,2.839-3.387,3.975c-1.523,1.113-2.333,3.196-2.984,4.871
		c-0.361,0.932-0.647,1.668-1.01,2.126C154.139,255.519,152.533,256.732,151.234,256.732z M151.05,255.512
		c0.057,0.014,0.119,0.021,0.185,0.021c0.506,0,1.695-0.424,3.973-3.263c0.247-0.313,0.53-1.041,0.83-1.813
		c0.67-1.725,1.587-4.085,3.396-5.406c1.181-0.857,2.765-2.117,2.903-3.164c0.046-0.345-0.063-0.667-0.341-1.014
		c-0.158-0.197-0.317-0.39-0.473-0.578c-0.963-1.168-1.723-2.09-1.48-2.938c0.079-0.278,0.304-0.654,0.927-0.864
		c0.514-0.173,1.118-2.83,1.443-4.259c0.343-1.509,0.697-3.069,1.179-4.134c0.031-0.069,2.854-6.124,4.928-7.905
		c-0.125-0.052-0.252-0.103-0.366-0.148c-1.213-0.485-2.588-1.035-2.964-1.942c-0.134-0.323-0.131-0.665,0.009-0.989
		c0.557-1.298,2.615-1.445,4.271-1.564c0.411-0.029,0.944-0.068,1.222-0.124c0.236-1.194,1.413-4.721,2.42-5.056
		c0.252-0.087,0.552-0.024,0.744,0.171c0.286,0.29,0.279,0.732,0.27,1.402c-0.008,0.571-0.022,1.528,0.266,1.82
		c0.041,0.041,0.104,0.084,0.254,0.084c0.096,0,0.208-0.018,0.337-0.053c2.468-0.671,5.689-3.7,5.525-4.832
		c-0.056-0.394-1.991-1.023-2.818-1.292c-2.068-0.673-4.021-1.308-3.833-2.77c0.052-0.399,0.068-0.868,0.085-1.321
		c0.054-1.505,0.121-3.377,1.743-3.377c0.164,0,0.339,0.022,0.521,0.068c0.293,0.073,0.657,0.111,1.083,0.111
		c1.652,0,3.636-0.559,3.656-0.564c0.248-0.069,0.514,0.026,0.659,0.239s0.139,0.496-0.018,0.701
		c-0.719,0.946-1.371,2.3-1.158,2.729c0.09,0.18,0.506,0.199,0.681,0.199c2.3,0,3.229-1.067,3.978-4.566
		c0.088-0.41,0.067-0.709-0.06-0.889c-0.273-0.387-1.184-0.504-2.063-0.616c-1.291-0.166-2.754-0.354-3.687-1.401
		c-0.469-0.525-0.953-0.959-1.382-1.342c-0.839-0.75-1.445-1.291-1.305-2.022c0.128-0.668,0.851-1.015,1.541-1.267
		c0.373-0.136,0.77-0.204,1.178-0.204c1.094,0,2.095,0.473,2.978,0.89c0.586,0.277,1.14,0.538,1.496,0.538
		c0.134,0,0.21-0.034,0.292-0.132c0.014-0.017,0.018-0.026,0.018-0.026c0.019-0.247-0.797-0.986-1.234-1.383
		c-1.194-1.082-2.829-2.564-1.824-4.244c0.997-1.656,2.591-2.641,3.544-3.229c0.233-0.144,0.519-0.32,0.626-0.41
		c0.061-0.156,0.201-0.485,0.46-1.095c0.838-1.965,2.579-6.052,3.095-7.946c0.28-1.029-0.152-1.786-0.701-2.744
		c-0.6-1.048-1.279-2.236-1.155-4.009c0.135-1.854,0.627-3.733,1.103-5.551c0.364-1.392,0.709-2.706,0.855-3.878
		c0.143-1.186-0.267-2.398-0.739-3.803c-0.522-1.55-1.114-3.307-0.985-5.328c0.225-3.648,0.492-5.171,1.763-11.314
		c1.192-5.789,1.447-16.64,0.981-20.655c-0.456-3.919-2.613-9.087-4.001-11.653c0.008,0.029,0.016,0.058,0.023,0.087
		c0.568,2.089,0.877,3.405,0.358,4.084c-0.273,0.358-0.726,0.477-1.247,0.302c-0.608-0.201-1.467-0.538-2.461-0.928
		c-2.12-0.831-5.023-1.971-6.131-1.971c-0.037,0-0.071,0.002-0.104,0.005c-0.416,0.048-1.287,0.664-2.056,1.208
		c-1.289,0.912-2.749,1.946-4.047,1.946c-0.425,0-0.811-0.109-1.146-0.324c-0.538-0.341-1.21-0.651-1.86-0.951
		c-1.671-0.772-3.399-1.571-3.399-3.151c-0.009-1.188,0.705-2.353,1.462-3.587c0.487-0.796,0.992-1.619,1.326-2.484
		c0.925-2.404,1.337-4.352,1.337-6.313c-0.001-0.218-0.004-0.421-0.007-0.607c-0.024-1.857,0.023-2.411,1.339-4.063
		c0.83-1.042,1.771-3.031,2.459-4.482c0.471-0.994,0.746-1.57,0.95-1.853c0.159-0.213,0.347-0.317,0.563-0.317
		c0.173,0,0.351,0.081,0.465,0.211c0.211,0.242,0.177,0.495,0.108,0.999c-0.09,0.652-0.274,2.009,0.204,2.558
		c0.096,0.11,0.274,0.258,0.705,0.259c1.933-0.005,2.111-1.001,2.558-5.224l0.066-0.628c0.004-0.05,0.01-0.102,0.016-0.153
		c0.006-0.045,0.011-0.09,0.016-0.146c0.085-0.804,0.221-1.945,0.383-3.317c0.741-6.251,2.256-19.04,1.598-22.619
		c-4.738-1.294-48.322-13.306-59.921-20.362c0.021,0.167,0.03,0.323,0.03,0.47c-0.01,2.236-0.441,2.65-2.049,4.188
		c-0.25,0.239-0.534,0.511-0.854,0.826c-0.224,0.22-0.418,0.406-0.588,0.569c-1.048,1.005-1.048,1.005-1.562,3.015
		c-0.207,0.808-0.49,1.914-0.938,3.488c-0.663,2.328-1.016,4.375-1.327,6.181c-0.562,3.266-0.934,5.422-2.691,6.124
		c-0.262,0.104-0.512,0.157-0.744,0.157c-0.444,0-0.761-0.17-0.987-0.408c-0.063,0.231-0.134,0.489-0.21,0.769
		c-0.363,1.327-0.653,2.63-0.933,3.889c-0.097,0.436-0.191,0.86-0.285,1.27c-0.698,3.039-1.362,5.362-3.014,5.362
		c-0.882,0.004-3.293,2.868-5.162,5.68l9.189,6.994c0.171,0.132,0.26,0.345,0.23,0.559s-0.171,0.396-0.371,0.477
		c-0.02,0.008-2.104,0.882-3.351,3.378c-0.538,1.077-0.229,2.281,0.043,3.344c0.243,0.951,0.454,1.773-0.019,2.381
		c-0.293,0.377-0.774,0.561-1.473,0.561c-2.612,0.007-2.612,0.007-2.612,2.614c0,1.616,0.229,5.447,0.741,8.904
		c0.86,5.812,1.859,6.072,1.869,6.072c0.622,0,1.299-0.309,2.016-0.637c0.848-0.387,1.724-0.787,2.7-0.787
		c1.12,0,2.122,0.534,3.064,1.634c1.345,1.567,2.27,3.613,3.164,5.593c0.978,2.161,1.9,4.202,3.236,5.33
		c1.415,1.205,1.991,1.309,2.548,1.409c0.499,0.09,1.065,0.191,1.967,0.871c0.822,0.618,1.621,1.633,2.394,2.613
		c0.992,1.26,2.018,2.563,2.893,2.782c1.855,0.456,6.26,4.387,7.057,5.107c0.785,0.339,5.723,2.563,6.662,5.36
		c0.266,0.801,0.618,1.251,0.901,1.613c0.91,1.162,0.887,1.793-1.014,4.015c-0.827,0.961-1.484,2.014-2.121,3.03
		c-1.448,2.316-2.816,4.503-5.672,4.503c-1.226,0-1.87-0.333-2.238-0.624c-0.091,0.153-0.201,0.343-0.318,0.545
		c-0.318,0.548-0.799,1.377-1.518,2.545c-0.944,1.537-1.647,2.773-2.213,3.767c-1.65,2.903-2.268,3.989-4.524,4.74
		c-0.881,0.296-1.447,0.875-1.637,1.677c-0.274,1.16,0.268,2.597,1.413,3.75c0.941,0.932,1.335,1.822,1.167,2.645
		c-0.2,0.979-1.102,1.425-1.322,1.521l-18.19,9.835l-2.679,9.724c-0.016,0.057-0.039,0.109-0.07,0.159l-0.991,1.58
		c0.067,0.518,0.188,1.873-0.028,3.893c-0.158,1.486-1.042,2.237-1.687,2.786c-0.708,0.603-0.675,0.66-0.493,0.979
		c0.471,0.825,1.258,1.483,2.092,2.181c0.665,0.557,1.354,1.132,1.968,1.853c0.767,0.895,0.736,2.583,0.7,4.538
		c-0.035,1.97-0.076,4.202,0.852,5.025c0.619,0.545,1.051,0.618,1.392,0.618c0.178,0,0.354-0.022,0.539-0.047
		c0.194-0.025,0.395-0.051,0.605-0.051c0.775,0,1.368,0.367,1.925,1.192c1.386,2.095,9.713,9.821,11.639,9.821
		c2.379,0,10.048,1.839,10.879,2.387c0.452,0.31,0.626,1.042,0.946,2.537c0.186,0.869,0.621,2.905,1.032,3.093
		c0.391-0.004,1.17-0.627,1.856-1.177c1.106-0.885,2.359-1.888,3.785-2.034c0.663-0.066,1.084-0.215,1.491-0.358
		c0.429-0.152,0.873-0.31,1.479-0.31c0.72,0,1.587,0.22,2.813,0.713c0.563,0.223,1.195,0.332,1.933,0.332
		c0.982,0,2.008-0.198,2.912-0.373c0.796-0.154,1.548-0.3,2.191-0.3c0.996,0,1.668,0.373,1.998,1.108
		c0.874,1.979,2.015,9.072-0.123,11.212c-0.94,0.944-1.573,5.268-1.276,8.729C150.606,254.796,150.926,255.405,151.05,255.512z"/>
</g>
</svg>
