<?xml version="1.0" encoding="iso-8859-1"?>
<!-- Generator: Adobe Illustrator 15.1.0, SVG Export Plug-In . SVG Version: 6.00 Build 0)  -->
<!DOCTYPE svg PUBLIC "-//W3C//DTD SVG 1.1//EN" "http://www.w3.org/Graphics/SVG/1.1/DTD/svg11.dtd">
<svg version="1.1" id="Layer_1" xmlns="http://www.w3.org/2000/svg" xmlns:xlink="http://www.w3.org/1999/xlink" x="0px" y="0px"
	 width="288px" height="288px" viewBox="0 0 288 288" style="enable-background:new 0 0 288 288;" xml:space="preserve">
<g>
	<path d="M72.737,242.75c-0.027,0-0.054-0.002-0.081-0.006l-24.897-3.371c-0.158-0.021-0.301-0.104-0.397-0.232
		c-0.097-0.126-0.139-0.287-0.116-0.444l26.843-194c0.022-0.16,0.108-0.305,0.238-0.4c0.131-0.097,0.294-0.135,0.453-0.109
		c62.598,10.25,163.498,17.556,164.51,17.629c0.159,0.011,0.308,0.086,0.412,0.208c0.104,0.121,0.156,0.279,0.143,0.439
		l-2.891,35.296l-11.244,137.308c-0.013,0.16-0.089,0.308-0.212,0.41c-0.122,0.104-0.281,0.152-0.44,0.139l-103.819-9.427
		c-0.118,0.368-0.3,1.077-0.441,2.286c-0.168,1.426,2.057,2.812,2.985,3.255c0.231,0.084,0.396,0.305,0.396,0.564
		c0,0.332-0.269,0.601-0.6,0.601c0,0-0.004,0-0.006,0c-0.022,0-0.046-0.001-0.069-0.004l-0.734-0.084l-47.564-5.554l-1.872,14.972
		c-0.02,0.159-0.103,0.303-0.229,0.4C72.997,242.706,72.868,242.75,72.737,242.75z M48.516,238.265l23.701,3.209l1.87-14.96
		c0.041-0.327,0.34-0.56,0.665-0.521l46.384,5.415c-0.888-0.78-1.677-1.839-1.532-3.073c0.262-2.222,0.654-2.966,0.729-3.092
		c0.119-0.197,0.339-0.305,0.569-0.289l103.66,9.412l11.195-136.704l2.841-34.693c-8.487-0.623-103.258-7.705-163.406-17.498
		L48.516,238.265z"/>
</g>
</svg>
