<?xml version="1.0" encoding="iso-8859-1"?>
<!-- Generator: Adobe Illustrator 15.1.0, SVG Export Plug-In . SVG Version: 6.00 Build 0)  -->
<!DOCTYPE svg PUBLIC "-//W3C//DTD SVG 1.1//EN" "http://www.w3.org/Graphics/SVG/1.1/DTD/svg11.dtd">
<svg version="1.1" id="Layer_1" xmlns="http://www.w3.org/2000/svg" xmlns:xlink="http://www.w3.org/1999/xlink" x="0px" y="0px"
	 width="288px" height="288px" viewBox="0 0 288 288" style="enable-background:new 0 0 288 288;" xml:space="preserve">
<g>
	<g>
		<path d="M205.41,243.435c-0.462,0-0.801-0.339-0.807-0.805c0.004-0.367,0.196-1.228,0.509-2.602
			c0.198-0.872,0.471-2.066,0.474-2.306c0.007-0.837,0.747-1.159,1.529-1.5c0.209-0.091,0.44-0.191,0.688-0.312
			c0.408-0.196,0.826-0.296,1.242-0.296c0.107,0,0.209,0.007,0.304,0.018v-0.08c-0.006-0.936,1.007-2.62,1.364-3.185
			c0.142-1.296,0.96-3.208,1.368-3.935c0.54-0.983,2.311-1.613,3.291-1.613c0.433,0,0.531-0.024,0.744-0.721
			c0.126-0.427,0.445-0.686,0.853-0.686c0.169,0,0.327,0.044,0.484,0.109c-0.14-0.099-0.268-0.188-0.362-0.253
			c-0.173-0.12-0.326-0.227-0.439-0.312c-0.117-0.088-0.474-0.354-0.44-0.789s0.395-0.628,0.713-0.798
			c0.28-0.149,0.63-0.336,0.952-0.688c0.264-0.287,0.533-0.426,0.825-0.426c0.141,0,0.263,0.029,0.37,0.081
			c0.03-0.386,0.166-0.753,0.507-1.025c0.019-0.016,1.946-1.517,2.73-1.517c0.328,0,0.59,0.199,0.671,0.487
			c0.103,0.079,0.315,0.184,0.501,0.234c0.005-0.079,0.009-0.165,0.012-0.25c0.032-0.78,0.077-1.851,0.859-2.378
			c0.166-0.11,0.339-0.164,0.516-0.164c0.533,0,0.826,0.422,1.033,0.942c-0.004-0.028-0.007-0.056-0.009-0.084
			c-0.047-0.647,0.277-1.336,0.622-1.682c0.159-0.158,0.361-0.243,0.572-0.243c0.426,0,0.717,0.315,0.998,0.62
			c0.116,0.125,0.331,0.359,0.427,0.391l0.018-0.002c0.837-0.001,4.419-0.555,4.989-0.81c0.183-0.081,0.318-0.148,0.419-0.202
			c-0.214-0.244-0.329-0.567-0.332-0.937c-0.005-0.695,0.377-1.391,0.95-1.729c0.178-0.104,0.363-0.156,0.554-0.156
			c0.58,0,0.964,0.457,1.272,0.824c0.051,0.061,0.115,0.137,0.175,0.202c0.032-0.096,0.063-0.213,0.085-0.298
			c0.034-0.128,0.068-0.256,0.108-0.373c0.229-0.682,1.19-0.875,4.109-1.296c0.458-0.065,0.929-0.134,1.391-0.206
			c2.322-0.37,7.487-2.32,8.635-3.06c1.007-0.65,2.729-3.239,3.64-4.821c0.097-0.166,0.216-0.379,0.352-0.622
			c1.059-1.889,2.068-3.623,2.791-4.079c0.6-0.383,1.912-0.923,2.944-0.923c0.433,0,0.784,0.099,1.045,0.294
			c0.245,0.184,0.376,0.454,0.359,0.74c-0.04,0.688-0.851,1.193-2.17,1.96c-0.28,0.164-0.546,0.317-0.753,0.451
			c-1.024,0.652-1.475,1.658-1.672,2.389c-0.006,0.023-0.012,0.046-0.017,0.066c0.118,0.027,0.254,0.073,0.394,0.152
			c0.019,0.011,0.035,0.021,0.052,0.032c-0.004-0.035-0.006-0.072-0.007-0.109c-0.013-0.769,0.672-1.668,1.493-1.964
			c0.258-0.096,0.504-0.144,0.729-0.144c0.753,0,1.283,0.556,1.3,1.357c0.051,0.079,0.226,0.226,0.333,0.315
			c0.151,0.128,0.322,0.271,0.456,0.443c0.112-0.065,0.236-0.13,0.366-0.177c0.109-0.049,0.486-0.329,0.761-0.533
			c0.941-0.701,1.397-1.009,1.812-1.009c0.209,0,0.397,0.081,0.532,0.229c0.229,0.189,1.463,0.746,2.187,0.745
			c0.098,0,0.15-0.011,0.174-0.018c0.281-0.098,0.914-1.064,1.219-1.529c0.491-0.75,0.786-1.184,1.13-1.367
			c0.399-0.218,0.771-0.224,1.101-0.229c0.044-0.001,0.088-0.002,0.13-0.003c-0.221-0.292-0.415-0.701-0.174-1.154
			c0.2-0.375,0.614-0.563,1.23-0.563c0.593,0,1.285,0.166,1.58,0.237l0.084,0.02c0.208,0.04,0.382,0.177,0.471,0.374
			c0.193,0.426-0.03,0.842-0.834,2.22c-0.646,1.082-3.895,3.518-5.411,4.433c-0.819,0.499-3.312,2.613-5.313,4.312
			c-2.006,1.701-3.257,2.758-3.681,3.007c-0.416,0.248-0.701,0.354-0.952,0.354l0,0c-0.184,0-0.588-0.062-0.742-0.57
			c-0.01,0-0.021,0-0.031,0c-0.223,0-0.407,0.043-0.503,0.079c-0.021,0.199-0.001,0.476,0.018,0.724
			c0.02,0.267,0.038,0.519,0.018,0.748c-0.047,0.519-0.442,0.831-4.529,2.975c-0.85,0.446-1.652,0.867-2.006,1.082
			c-0.957,0.581-1.917,1.301-3.022,2.268c-0.523,0.455-1.083,0.675-1.714,0.675c-0.339,0-0.65-0.063-0.935-0.139
			c0.005,0.098,0.002,0.2-0.017,0.305c-0.155,0.855-1.074,1.11-2.596,1.533c-0.712,0.198-1.001,0.393-1.335,0.617
			c-0.299,0.201-0.638,0.43-1.244,0.639c-0.429,0.147-0.775,0.214-1.029,0.262c-0.08,0.016-0.173,0.033-0.241,0.049
			c0,0.008,0,0.016,0,0.016c0,0.802-0.692,1.204-2.058,1.204c-0.217,0-0.429-0.008-0.614-0.016c-0.131-0.004-0.247-0.009-0.34-0.009
			c-0.293,0-0.469,0.205-0.92,0.908c-0.622,0.953-6.895,4.266-8.656,4.711c-1.786,0.459-3.356,1.526-3.855,2.103
			c-0.721,0.823-2.171,1.2-3.054,1.103c-0.538-0.061-0.981-0.467-1.45-0.897c-0.376-0.346-0.803-0.737-1.136-0.778
			c-0.626-0.078-1.439,0.727-1.63,1.577c-0.03,0.137-0.055,0.259-0.077,0.368c-0.194,0.963-0.354,1.276-1.491,2.144
			c-0.97,0.747-1.897,0.872-2.384,0.877c-0.427,0.621-1.487,2.049-2.715,2.865C206.696,242.991,205.948,243.435,205.41,243.435z
			 M206.785,237.74c-0.002,0.32-0.164,1.068-0.503,2.555c-0.125,0.551-0.279,1.229-0.379,1.72c0.526-0.289,1.277-0.792,1.705-1.079
			c1.351-0.897,2.552-2.786,2.564-2.805c0.131-0.207,0.376-0.314,0.615-0.27l0,0c0.002,0,0.064,0.009,0.17,0.009
			c0.324,0,0.974-0.082,1.685-0.63c0.896-0.684,0.91-0.754,1.046-1.429c0.023-0.116,0.05-0.246,0.082-0.393
			c0.272-1.218,1.43-2.521,2.719-2.521c0.077,0,0.154,0.004,0.23,0.014c0.714,0.09,1.29,0.619,1.799,1.086
			c0.233,0.214,0.623,0.571,0.771,0.589c0.583,0.063,1.597-0.219,2.017-0.698c0.717-0.828,2.526-1.979,4.464-2.478
			c1.827-0.462,7.466-3.613,7.955-4.213c0.449-0.7,0.925-1.443,1.918-1.443c0.105,0,0.237,0.005,0.385,0.011
			c0.172,0.006,0.368,0.014,0.569,0.014c0.532,0,0.766-0.059,0.859-0.095c0.045-0.931,0.719-1.059,1.216-1.152
			c0.229-0.044,0.516-0.098,0.861-0.217c0.458-0.158,0.693-0.316,0.966-0.5c0.367-0.247,0.783-0.527,1.683-0.778
			c0.586-0.162,1.556-0.432,1.737-0.609c-0.002-0.054-0.025-0.163-0.04-0.231c-0.055-0.255-0.13-0.604,0.113-0.903
			c0.084-0.104,0.275-0.277,0.616-0.277c0.114,0,0.241,0.02,0.387,0.06l0.159,0.045c0.298,0.086,0.605,0.174,0.896,0.174
			c0.21,0,0.534-0.039,0.925-0.379c1.158-1.012,2.171-1.771,3.188-2.388c0.386-0.235,1.168-0.646,2.073-1.12
			c1.197-0.628,3.357-1.761,3.894-2.187c-0.002-0.115-0.012-0.251-0.022-0.385c-0.028-0.388-0.062-0.827,0.035-1.212
			c0.163-0.649,0.958-0.88,1.647-0.88c0.634,0,0.927,0.203,1.06,0.416c0.018-0.01,0.035-0.021,0.055-0.032
			c0.358-0.212,1.964-1.573,3.516-2.89c2.245-1.904,4.565-3.873,5.468-4.423c0.125-0.076,0.259-0.159,0.397-0.249
			c-0.14,0.037-0.3,0.057-0.475,0.057c-0.868,0.001-2.171-0.504-2.795-0.913c-0.27,0.152-0.741,0.504-1.019,0.71
			c-0.521,0.388-0.827,0.611-1.067,0.698c-0.089,0.033-0.217,0.112-0.33,0.183c-0.229,0.142-0.443,0.275-0.703,0.275
			c-0.188,0-0.363-0.072-0.493-0.203c-0.124-0.125-0.193-0.288-0.208-0.485c-0.057-0.064-0.182-0.17-0.27-0.243
			c-0.052-0.044-0.106-0.09-0.162-0.139c0.103,0.182,0.153,0.404,0.152,0.665c0,0.879-0.401,1.171-0.813,1.395
			c-0.139,0.076-0.249,0.136-0.357,0.261c-0.125,0.146-0.354,0.564-0.556,0.933c-0.563,1.028-0.968,1.725-1.476,1.926
			c0.003,0.039,0.006,0.077,0.009,0.11c0.042,0.548,0.099,1.297-0.545,1.535c-0.068,0.023-0.199,0.075-0.381,0.146
			c-1.769,0.688-3.691,1.393-4.531,1.393c-0.633,0-0.811-0.383-0.857-0.547c-0.26-0.904,0.531-2.121,1.047-2.548
			c0.093-0.075,0.216-0.313,0.314-0.505c0.23-0.445,0.517-0.999,1.108-1.198c0.422-0.14,0.696-0.376,0.979-0.843
			c0.041-0.065,0.043-0.08,0.032-0.235c-0.025-0.365-0.012-0.766,0.439-1.278c0.27-0.307,0.673-0.548,1.045-0.747
			c-0.025-0.027-0.051-0.059-0.074-0.092c-0.208-0.306-0.169-0.673-0.039-1.168c0.254-0.938,0.838-2.231,2.184-3.088
			c0.228-0.146,0.504-0.308,0.797-0.479c0.333-0.193,0.854-0.496,1.213-0.751c-0.676,0.051-1.64,0.407-2.146,0.73
			c-0.527,0.332-1.83,2.659-2.387,3.652c-0.139,0.248-0.261,0.465-0.358,0.635c-0.099,0.171-2.431,4.198-4.029,5.229
			c-1.367,0.882-6.761,2.865-9.098,3.237c-0.469,0.073-0.944,0.142-1.407,0.208c-1.172,0.17-2.755,0.397-3.181,0.611
			c-0.017,0.058-0.032,0.117-0.048,0.177c-0.119,0.453-0.343,1.297-1.216,1.297c-0.505,0-0.833-0.392-1.123-0.736
			c-0.097-0.115-0.25-0.297-0.348-0.372c-0.152,0.115-0.271,0.328-0.302,0.55c-0.022,0.154,0.012,0.245,0.026,0.261
			c0.478,0.275,0.532,0.644,0.522,0.838c-0.032,0.608-0.687,0.95-1.354,1.248c-0.828,0.37-4.657,0.913-5.479,0.914l0,0
			c-0.046,0-0.086-0.002-0.119-0.004c-0.526-0.034-0.904-0.442-1.207-0.771c-0.009-0.01-0.019-0.02-0.028-0.03
			c-0.082,0.21-0.113,0.437-0.069,0.511c0.356,0.265,0.475,0.726,0.309,1.224c-0.178,0.535-0.769,1.277-1.413,1.277
			c-0.613,0-0.795-0.612-1.005-1.32c-0.043-0.146-0.106-0.357-0.172-0.543c-0.1,0.322-0.119,0.788-0.132,1.106
			c-0.012,0.282-0.021,0.525-0.066,0.732c-0.072,0.337-0.362,0.697-0.957,0.697c-0.464,0-0.92-0.215-1.095-0.308
			c-0.198-0.105-0.359-0.22-0.481-0.341c-0.429,0.213-1.2,0.7-1.765,1.151c-0.162,0.129,0.012,0.856,0.086,1.168
			c0.124,0.521,0.231,0.972-0.012,1.33c-0.121,0.178-0.308,0.293-0.526,0.324c-0.028,0.004-0.084,0.008-0.112,0.008l0,0
			c-0.643,0-0.872-0.648-1.056-1.169c-0.026-0.075-0.061-0.171-0.096-0.263c-0.296,0.288-0.594,0.484-0.845,0.629
			c0.002,0.002,0.005,0.004,0.007,0.005c1.178,0.815,1.943,1.402,1.854,2.098c-0.02,0.152-0.119,0.524-0.614,0.705
			c-0.158,0.057-0.325,0.086-0.498,0.086c-0.486,0-0.907-0.223-1.245-0.401c-0.029-0.016-0.063-0.033-0.096-0.051
			c-0.298,0.814-0.744,1.301-1.802,1.301c-0.685,0-1.983,0.524-2.242,0.995c-0.385,0.686-1.165,2.569-1.234,3.593
			c-0.007,0.102-0.04,0.2-0.096,0.286c-0.604,0.932-1.254,2.211-1.251,2.654v0.9c0,0.222-0.123,0.426-0.318,0.53
			c-0.197,0.104-0.435,0.091-0.617-0.033l0,0c-0.001,0-0.218-0.131-0.568-0.131c-0.233,0-0.477,0.06-0.721,0.177
			c-0.264,0.127-0.509,0.234-0.731,0.331C207.274,237.463,206.879,237.635,206.785,237.74z M226.084,219.206
			c0.021,0.069,0.042,0.139,0.063,0.208c0.016,0.051,0.032,0.107,0.05,0.167c0.033-0.052,0.06-0.102,0.075-0.145
			C226.199,219.368,226.137,219.291,226.084,219.206z M258.188,205.932c-0.035,0.462-0.466,0.686-1.007,0.967
			c-0.341,0.178-0.766,0.399-0.95,0.608c-0.158,0.18-0.155,0.223-0.143,0.403c0.015,0.219,0.037,0.55-0.205,0.944
			c-0.43,0.705-0.931,1.124-1.624,1.354c-0.129,0.043-0.299,0.371-0.422,0.61c-0.165,0.319-0.335,0.649-0.617,0.88
			c-0.244,0.202-0.483,0.605-0.597,0.921c0.679-0.135,1.928-0.558,3.74-1.263c0.068-0.026,0.13-0.051,0.185-0.072
			c0-0.121-0.013-0.285-0.021-0.398c-0.035-0.458-0.066-0.854,0.202-1.144c0.15-0.162,0.363-0.242,0.585-0.225
			c0.225-0.241,0.607-0.941,0.823-1.336c0.264-0.48,0.491-0.896,0.699-1.139c0.253-0.292,0.507-0.431,0.692-0.532
			c0.06-0.032,0.14-0.076,0.159-0.096l0,0c0,0,0.025-0.055,0.027-0.232c-0.082,0.001-0.161,0.006-0.246,0.011
			c-0.112,0.007-0.229,0.013-0.344,0.013c-0.225,0-0.408-0.023-0.579-0.075C258.409,206.087,258.289,206.019,258.188,205.932z
			 M259.712,204.983c0.199,0,0.47,0.021,0.713,0.17c-0.148-0.193-0.258-0.423-0.26-0.698c0-0.13-0.032-0.189-0.041-0.199
			c-0.002-0.002-0.02-0.005-0.06-0.005c-0.057,0-0.158,0.013-0.318,0.071c-0.347,0.125-0.596,0.467-0.677,0.685
			c0.1,0.002,0.22-0.004,0.329-0.011C259.507,204.99,259.612,204.983,259.712,204.983z M272.41,202.356
			c-0.374,0.112-0.693,0.118-0.955,0.122c-0.269,0.005-0.414,0.011-0.553,0.087c-0.121,0.091-0.467,0.619-0.695,0.969
			c-0.393,0.599-0.726,1.09-1.052,1.442C270.35,204.135,271.69,203.067,272.41,202.356z M272.704,200.76
			c0.159,0.17,0.354,0.384,0.408,0.651c0.112-0.194,0.224-0.39,0.313-0.558C273.196,200.809,272.934,200.769,272.704,200.76z"/>
	</g>
	<g>
		<path d="M209.74,232.926c-0.043,0-0.088-0.005-0.132-0.015l-0.424-0.096c-0.293-0.065-0.492-0.339-0.466-0.639l0.015-0.142
			c0.042-0.395,0.106-0.937,0.184-1.59c0.339-2.858,1.021-8.611,0.793-10.471c-3.193-0.876-24.73-6.86-29.018-10.094
			c-0.1-0.074-0.173-0.179-0.211-0.297c-0.218-0.685-0.623-1.478-0.867-1.924c-0.648,0.1-1.938,0.27-3.16,0.27
			c-1.449,0-2.354-0.229-2.847-0.723c-0.251-0.25-0.551-0.371-0.917-0.371c-0.521,0-0.975,0.249-0.979,0.252
			c-0.226,0.124-0.51,0.094-0.7-0.081c-0.026-0.023-2.582-2.363-3.609-2.979c-0.182-0.108-0.292-0.304-0.292-0.515v-3.68
			c-0.077-0.455-1.252-2.786-2.312-4.716l-1.508-2.153c-0.3-0.428-0.589-0.486-0.833-0.486c-0.418,0-0.912,0.209-1.391,0.41
			c-0.494,0.208-0.96,0.404-1.412,0.404c-0.571,0-1.007-0.317-1.225-0.894c-0.463-1.236-2.855-3.703-3.987-4.793L16.166,215.027
			c-0.317,0.065-0.63-0.14-0.701-0.456l-2.615-11.549c-0.051-0.223,0.03-0.456,0.209-0.6c2.286-1.838,6.826-5.547,7.644-6.427
			c1.047-1.127,3.079-4.716,3.203-5.278c0.061-0.262,0.171-0.742,3.358-2.776c1.145-0.73,2.535-1.576,3.246-1.853
			c0.021-0.129,0.036-0.317,0.049-0.455c0.045-0.526,0.097-1.123,0.368-1.561c0.34-0.539,0.874-1.22,1.094-1.492
			c0.093-0.491,0.39-2.052,0.459-2.396c0.066-0.315,0.305-0.551,1.302-1.499c1.182-1.123,2.966-2.819,3.562-4.108
			c0.502-1.09-0.377-2.131-1.673-3.481c-0.463-0.482-0.9-0.938-1.218-1.402c-0.655-0.955-2.02-1.058-2.575-1.058
			c-0.177,0-0.29,0.01-0.303,0.011c-0.236,0.024-0.46-0.092-0.578-0.293l-1.634-2.781l-1.067-1.885
			c-0.048-0.085-0.075-0.181-0.077-0.278c-0.004-0.113-0.082-2.799-0.082-3.693c0-0.567-0.522-2.013-0.852-2.79
			c-0.121-0.287-0.004-0.618,0.271-0.765c1.484-0.788,14.53-7.717,15.684-8.129c1.13-0.401,4.398-1.258,7.298-1.343
			c1.555-0.046,2.553-0.328,3.518-0.602c0.701-0.198,1.363-0.386,2.16-0.458c1.801-0.167,12.274-0.249,12.72-0.253
			c0.098-0.006,0.188,0.021,0.273,0.063l4.985,2.495c1.263-0.499,6.921-2.737,8-3.171c1.249-0.498,6.18-1.512,8.147-1.518
			c1.912,0,2.138-0.088,2.625-0.395c0.16-0.101,0.336-0.217,0.522-0.34c0.572-0.377,1.285-0.847,2.005-1.173
			c0.721-0.344,5.282-5.228,5.647-5.698c0.039-0.053,5.386-6.246,6.273-6.838c0.364-0.243,0.804-0.36,1.345-0.36
			c0.438,0,0.903,0.073,1.397,0.151c0.246,0.038,0.503,0.079,0.77,0.112c0.639,0.079,1.433-1.317,1.949-2.232
			c0.174-0.31,0.339-0.601,0.498-0.848c0.524-0.818-0.006-3.228-0.305-4.048c-0.258-0.671-1.731-3.465-3.232-4.245
			c-1.999-1.049-2.099-1.963-1.585-3.284c0.32-0.844,1.011-1.312,1.939-1.312c0.375,0,0.775,0.077,1.189,0.228
			c0.03,0.011,0.059,0.017,0.085,0.017c0.248,0,0.847-0.511,1.514-2.426c0.16-0.463,0.307-0.858,0.437-1.208
			c0.276-0.748,0.463-1.252,0.545-1.762c-0.192,0.129-0.403,0.282-0.572,0.404c-0.864,0.627-1.427,1.008-1.943,1.008
			c-0.102,0-0.2-0.015-0.291-0.046c-0.232-0.076-0.414-0.238-0.514-0.454c-0.218-0.476,0.017-1.044,0.287-1.702
			c0.127-0.307,0.357-0.869,0.34-1.072c-0.575-0.633-1.326-0.681-2.252-0.167c-0.115,0.064-0.156,0.116-0.161,0.129
			c-0.03,0.187,0.516,0.795,1.171,1.21c0.219,0.139,0.324,0.401,0.262,0.652c-0.181,0.724-0.812,1.948-2.028,1.948
			c-0.238,0-0.484-0.048-0.732-0.145c-1.114-0.435-1.286-1.34-1.4-1.938c-0.03-0.161-0.082-0.429-0.134-0.48
			c-0.001,0-0.01-0.005-0.027-0.009c-1.196-0.301-2.006-1.685-2.095-1.841c-0.099-0.176-0.103-0.39-0.011-0.569
			c0.87-1.692,3.04-5.669,4.378-6.025c0.096-0.025,0.125-0.052,0.125-0.052c0.028-0.12-0.18-0.596-0.28-0.823
			c-0.128-0.294-0.249-0.57-0.285-0.835c-0.117-1.015,1.172-2.438,2.075-2.835c0.548-0.248,3.343-1.97,4.487-2.684
			c0.339-0.436,2.003-2.636,2.697-4.723c0.582-1.747,0.865-2.842,1.139-3.899c0.105-0.409,0.208-0.805,0.323-1.22
			c0.419-1.509,9.824-13.779,11.706-16.225c0.016-0.021,0.032-0.039,0.051-0.058c0.267-0.267,6.552-6.542,8.91-7.638
			c1.017-0.472,1.672-1.051,2.249-1.563c0.676-0.597,1.313-1.161,2.27-1.267c3.276-0.367,4.776-0.682,5.458-0.882l37.199-9.165
			c0.164-0.039,0.337-0.01,0.477,0.083c0.174,0.116,0.746,0.621,0.838,2.263c0.02,0.365,0.03,0.821,0.041,1.304
			c0.026,1.123,0.074,3.214,0.35,3.627c0.128,0.191,0.558,0.387,0.902,0.543c0.626,0.283,1.405,0.637,1.405,1.424
			c0,0.576-0.395,1.153-0.775,1.71c-0.171,0.249-0.429,0.626-0.452,0.762c0.027,0.262,0.612,1.403,1.142,2.285
			c0.076,0.127,0.103,0.277,0.075,0.423c-0.244,1.265-0.498,2.686-0.552,3.135c0.256,0.416,1.337,1.756,2.142,2.753
			c2.519,3.123,2.757,3.501,2.757,3.887c0,0.024-0.039,2.435-0.88,3.441c0.035,0.452,0.901,1.796,1.279,2.383
			c0.536,0.832,0.775,1.213,0.819,1.526c0.076,0.522-0.313,1.331-1.158,2.836c-0.095,0.17-0.201,0.359-0.247,0.448
			c-0.021,0.189-0.059,0.777-0.094,1.346c-0.129,2.095-0.263,4.04-0.477,4.843c-0.106,0.402,0.073,0.583,0.749,0.996
			c0.241,0.147,0.469,0.287,0.651,0.471c0.323,0.318,0.465,0.916,0.707,2.032c0.211,0.975,0.474,2.187,0.906,2.771
			c0.996,1.356,1.011,3.028,1.017,3.742v0.023c0.059,0.159,0.426,0.536,0.647,0.763c0.522,0.536,1.063,1.091,1.063,1.712
			c0.001,0.18-0.024,0.582-0.063,1.19c-0.073,1.147-0.236,3.681-0.171,5.283c0.371-0.449,1.713-1.17,2.323-1.17
			c0.335,0,0.519,0.169,0.599,0.271c0.1,0.126,0.15,0.278,0.148,0.439c0.253,0.456,1.688,1.888,2.937,3.015
			c0.098,0.088,0.163,0.205,0.188,0.333l5.781,30.263l1.748,2.361c0.01,0.013,0.019,0.026,0.026,0.04l0.239,0.324
			c0.08,0.108,0.121,0.242,0.116,0.378l-1.07,28.975l0.735,0.918c0.063,0.079,0.105,0.174,0.123,0.274l5.534,32.584l2.845,3.556
			c0.196,0.244,0.171,0.598-0.058,0.813l-6.066,5.688l3.774,3.483c0.123,0.114,0.193,0.273,0.193,0.441
			c0,0.073-0.015,1.803-1.248,2.624c-0.792,0.528-0.761,0.726-0.721,0.977c0.083,0.517-0.301,1.032-0.787,1.685
			c-0.317,0.426-0.677,0.907-0.813,1.29c-0.065,0.185-0.22,0.62-0.589,0.766c0.154,0.181,0.339,0.415,0.495,0.729
			c0.208,0.42,0.123,0.718,0.016,0.894c-0.256,0.419-0.745,0.427-1.264,0.435c-0.429,0.006-0.963,0.014-1.399,0.219
			c-0.626,0.29-2.026,2.987-2.967,5.319C210.204,232.78,209.98,232.926,209.74,232.926z M181.562,209.029
			c4.726,3.317,28.583,9.82,28.826,9.887c0.205,0.056,0.365,0.216,0.421,0.421c0.384,1.405-0.088,6.021-0.606,10.453
			c0.746-1.546,1.727-3.263,2.554-3.647c0.637-0.298,1.307-0.321,1.813-0.33c-0.049-0.06-0.099-0.116-0.148-0.172
			c-0.268-0.306-0.715-0.815-0.298-1.542c0.259-0.454,0.592-0.492,0.811-0.464c0.213-0.503,0.588-1.005,0.922-1.453
			c0.2-0.269,0.498-0.667,0.556-0.834c-0.115-0.839,0.239-1.435,1.248-2.108c0.497-0.33,0.648-1.014,0.694-1.38l-4.036-3.727
			c-0.122-0.112-0.192-0.271-0.192-0.438c-0.001-0.167,0.067-0.326,0.189-0.44l6.132-5.749l-2.595-3.244
			c-0.063-0.079-0.106-0.174-0.123-0.274l-5.535-32.583l-0.777-0.972c-0.09-0.112-0.137-0.253-0.131-0.397l1.07-28.987l-0.126-0.172
			c-0.01-0.013-0.019-0.025-0.026-0.039l-1.816-2.453c-0.054-0.072-0.091-0.156-0.107-0.245l-5.769-30.199
			c-1.083-0.978-2.508-2.283-3.005-3.197c-0.377,0.152-0.954,0.473-1.112,0.639c-0.046,0.101-0.1,0.391-0.133,0.567
			c-0.101,0.54-0.227,1.212-0.857,1.212c-0.504,0-0.738-0.504-0.851-0.746c-0.425-0.909-0.362-3.408-0.123-7.145
			c0.034-0.521,0.063-0.969,0.062-1.11c-0.031-0.169-0.48-0.63-0.722-0.878c-0.511-0.523-0.993-1.019-0.988-1.582v-0.032
			c-0.006-0.648-0.017-1.998-0.782-3.04c-0.584-0.79-0.865-2.086-1.113-3.229c-0.118-0.545-0.28-1.29-0.398-1.454
			c-0.068-0.068-0.244-0.176-0.414-0.279c-0.571-0.35-1.635-1-1.281-2.328c0.2-0.753,0.35-3.166,0.438-4.607
			c0.082-1.327,0.097-1.496,0.143-1.637c0.04-0.117,0.121-0.265,0.35-0.671c0.237-0.424,0.946-1.687,1.01-2.08
			c-0.081-0.188-0.398-0.68-0.634-1.045c-0.998-1.55-1.941-3.014-1.207-3.784c0.365-0.386,0.596-1.837,0.614-2.592
			c-0.244-0.449-1.587-2.113-2.488-3.231c-2.254-2.794-2.418-3.054-2.418-3.404c0.005-0.398,0.372-2.362,0.54-3.24
			c-0.493-0.838-1.194-2.132-1.194-2.726c0-0.453,0.307-0.9,0.66-1.418c0.198-0.29,0.521-0.763,0.563-0.99
			c-0.111-0.108-0.474-0.273-0.696-0.374c-0.51-0.231-1.087-0.493-1.405-0.97c-0.436-0.653-0.503-2.18-0.551-4.266
			c-0.011-0.473-0.021-0.918-0.04-1.264c-0.033-0.598-0.139-0.953-0.225-1.15l-36.779,9.061c-1.031,0.304-2.938,0.614-5.637,0.916
			c-0.579,0.064-1.011,0.445-1.607,0.974c-0.607,0.537-1.363,1.206-2.539,1.752c-1.789,0.831-6.742,5.574-8.539,7.369
			c-4.28,5.563-11.161,14.741-11.478,15.784c-0.112,0.407-0.213,0.796-0.317,1.198c-0.266,1.027-0.566,2.191-1.161,3.979
			c-0.842,2.525-2.876,5.066-2.962,5.173c-0.042,0.053-0.093,0.098-0.149,0.133c-0.405,0.253-3.979,2.479-4.724,2.816
			c-0.615,0.271-1.389,1.289-1.372,1.592c0.012,0.085,0.112,0.315,0.193,0.501c0.241,0.55,0.541,1.235,0.252,1.84
			c-0.11,0.229-0.353,0.532-0.885,0.676c-0.575,0.184-2.214,2.73-3.463,5.108c0.258,0.363,0.714,0.889,1.17,1.004
			c0.815,0.203,0.956,0.94,1.049,1.429c0.106,0.56,0.184,0.86,0.657,1.045c0.107,0.042,0.208,0.063,0.297,0.063
			c0.34,0,0.582-0.369,0.722-0.667c-0.555-0.418-1.349-1.161-1.325-1.978c0.009-0.33,0.151-0.796,0.777-1.145
			c1.449-0.805,2.828-0.617,3.767,0.458c0.53,0.605,0.163,1.499-0.162,2.287c-0.037,0.091-0.081,0.197-0.122,0.304
			c0.256-0.165,0.554-0.381,0.77-0.538c0.796-0.577,1.269-0.903,1.721-0.903c0.387,0,0.803,0.273,0.803,0.876
			c0,0.973-0.266,1.688-0.667,2.773c-0.127,0.342-0.271,0.729-0.428,1.186c-0.758,2.174-1.624,3.23-2.647,3.23
			c-0.166,0.001-0.333-0.029-0.494-0.088c-0.279-0.102-0.549-0.155-0.78-0.155c-0.424,0-0.677,0.167-0.819,0.542
			c-0.304,0.78-0.405,1.042,1.02,1.789c1.96,1.02,3.584,4.323,3.801,4.889c0.017,0.044,1.214,3.521,0.19,5.117
			c-0.141,0.219-0.297,0.496-0.462,0.789c-0.716,1.268-1.607,2.846-2.94,2.846c-0.066,0-0.134-0.004-0.201-0.013
			c-0.281-0.035-0.55-0.077-0.808-0.117c-0.466-0.073-0.868-0.137-1.212-0.137c-0.301,0-0.517,0.051-0.68,0.158
			c-0.609,0.411-5.583,6.042-5.98,6.563c-0.187,0.249-5.017,5.572-6.109,6.068c-0.635,0.287-1.275,0.709-1.84,1.082
			c-0.195,0.129-0.378,0.249-0.546,0.354c-0.812,0.511-1.391,0.579-3.261,0.579c-1.82,0.005-6.557,0.975-7.704,1.432
			c-1.211,0.486-8.184,3.244-8.254,3.271c-0.158,0.063-0.336,0.055-0.489-0.021l-5.096-2.551
			c-1.293,0.011-10.835,0.095-12.476,0.247c-0.687,0.062-1.269,0.227-1.942,0.417c-0.987,0.279-2.106,0.597-3.81,0.646
			c-2.757,0.081-5.859,0.893-6.931,1.273c-0.787,0.281-9.25,4.728-15.045,7.806c0.281,0.725,0.74,2.017,0.74,2.748
			c0,0.759,0.06,2.923,0.077,3.51l0.988,1.747l1.446,2.463c0.726-0.008,2.604,0.135,3.594,1.58c0.262,0.382,0.666,0.803,1.094,1.249
			c1.239,1.291,2.78,2.897,1.897,4.815c-0.692,1.498-2.577,3.289-3.824,4.475c-0.393,0.373-0.832,0.791-0.972,0.962
			c-0.11,0.557-0.466,2.435-0.466,2.435c-0.019,0.099-0.062,0.191-0.125,0.269c-0.008,0.009-0.718,0.878-1.102,1.488
			c-0.118,0.19-0.16,0.675-0.19,1.027c-0.051,0.593-0.12,1.395-0.804,1.457c-0.791,0.283-5.391,3.151-5.89,3.852
			c-0.276,0.987-2.398,4.605-3.479,5.768c-0.963,1.036-6.166,5.252-7.479,6.311l2.403,10.613l138.008-27.367
			c0.19-0.037,0.387,0.019,0.528,0.151c0.39,0.366,3.828,3.634,4.511,5.456c0.03,0.079,0.056,0.108,0.062,0.115
			c0.003-0.005,0.016,0.002,0.04,0.002c0.209,0,0.584-0.158,0.946-0.311c0.561-0.236,1.196-0.504,1.856-0.504
			c0.742,0,1.353,0.336,1.815,0.998l1.527,2.18c0.013,0.018,0.023,0.036,0.034,0.055c0.922,1.677,2.469,4.594,2.476,5.295v3.381
			c0.979,0.673,2.565,2.08,3.219,2.669c0.287-0.107,0.698-0.221,1.162-0.221c0.68,0,1.29,0.249,1.765,0.722
			c0.088,0.088,0.489,0.372,1.999,0.372c1.58,0,3.354-0.316,3.371-0.319c0.249-0.044,0.495,0.069,0.622,0.284
			C180.479,206.747,181.178,207.933,181.562,209.029z"/>
	</g>
</g>
</svg>
