<?xml version="1.0" encoding="iso-8859-1"?>
<!-- Generator: Adobe Illustrator 15.1.0, SVG Export Plug-In . SVG Version: 6.00 Build 0)  -->
<!DOCTYPE svg PUBLIC "-//W3C//DTD SVG 1.1//EN" "http://www.w3.org/Graphics/SVG/1.1/DTD/svg11.dtd">
<svg version="1.1" id="Layer_1" xmlns="http://www.w3.org/2000/svg" xmlns:xlink="http://www.w3.org/1999/xlink" x="0px" y="0px"
	 width="288px" height="288px" viewBox="0 0 288 288" style="enable-background:new 0 0 288 288;" xml:space="preserve">
<g>
	<path d="M193.173,195.609c-0.125,0-0.248-0.039-0.353-0.114l-35.271-25.539l-30.209,4.647c-0.174,0.026-0.349-0.023-0.481-0.138
		c-0.133-0.113-0.209-0.28-0.209-0.455v-3.848l-4.117-4.041c-0.362,0.202-0.932,0.569-1.344,1.072
		c-0.386,0.472-0.812,0.932-1.396,0.932c-0.563,0-0.994-0.411-1.469-1.028c-0.252-0.327-0.522-0.761-0.368-1.206
		c0.113-0.328,0.385-0.47,0.6-0.542c-0.075-0.247-0.204-0.563-0.31-0.754c-3.169,0.328-34.156,3.723-35.55,3.896
		c-0.28,0.1-1.777,0.786-8.402,4.101c-4.106,2.058-8.331,4.198-8.941,4.508l-0.354,0.327c-0.089,0.083-0.201,0.136-0.321,0.153
		c-2.417,0.351-15.396,2.218-33.685,4.594c-0.169,0.022-0.341-0.029-0.47-0.142c-0.13-0.112-0.205-0.274-0.207-0.445l-0.09-7.409
		c-0.002-0.171,0.068-0.335,0.194-0.45l2.008-1.838c0.218-0.2,0.549-0.211,0.779-0.027c0.506,0.403,1,0.592,1.556,0.592
		c0.646,0,1.303-0.261,1.938-0.513c0.148-0.059,0.295-0.117,0.439-0.172c0.205-0.076,0.647-0.698,0.332-4.806
		c-0.029-0.38-0.05-0.653-0.05-0.825c0-0.803,1.232-2.006,7.972-6.358c0.963-0.623,1.764-0.914,2.519-0.914
		c0.693,0,1.213,0.248,1.671,0.468c0.394,0.188,0.733,0.351,1.155,0.351c0.887,0,2.554-2.083,3.658-3.461
		c0.583-0.728,1.133-1.415,1.604-1.886c0.931-0.931,3.286-2.128,5.365-3.185c1.219-0.618,2.593-1.316,2.962-1.63
		c0.012-0.017,0.024-0.031,0.037-0.046l0,0c0.276-0.3-0.043-2.021-0.18-2.756c-0.227-1.223-0.316-1.779-0.059-2.165
		c0.097-0.146,0.332-0.391,0.813-0.391c0.47,0,1.075,0.228,1.775,0.491c0.518,0.195,1.053,0.396,1.448,0.466
		c0.166-0.223,0.323-1.014,0.43-1.549c0.212-1.068,0.452-2.279,1.131-2.958c0.303-0.305,0.671-0.466,1.062-0.466
		c1.418,0,2.609,2.108,2.784,3.425c0.713-0.358,2.21-1.766,2.522-3.014c0.568-2.275,5.977-5.313,7.198-5.313
		c0.073,0,0.138,0.007,0.195,0.018c0.272,0.055,0.564,0.178,0.873,0.308c0.466,0.196,0.994,0.418,1.487,0.418
		c0.317,0,0.585-0.09,0.841-0.281c0.462-0.346,1.426-1.93,2.277-3.327c1.92-3.153,3.169-5.085,4.326-5.315
		c0.129-0.026,0.312-0.063,0.479-0.101c-0.002-0.002-0.003-0.004-0.005-0.006c-0.101-0.132-0.217-0.284-0.344-0.463
		c-0.729-1.017-0.473-2.486-0.267-3.668c0.079-0.458,0.155-0.892,0.155-1.198c0-0.64,0.233-1.562,0.695-2.74
		c0.047-0.119,0.131-0.22,0.239-0.288l0.35-0.221c0.078-0.048,0.165-0.078,0.256-0.088c0.276-0.03,27.687-2.96,35.122-3.951
		c7.425-0.991,115.498-22.2,116.589-22.414c0.223-0.041,0.448,0.041,0.587,0.218c0.14,0.178,0.168,0.418,0.073,0.622
		c-0.074,0.163-1.81,4.062,0.758,7.234c0.697,0.862,1.465,1.753,2.207,2.614c2.826,3.281,3.708,4.41,3.332,5.229
		c-0.068,0.151-0.293,0.502-0.882,0.502c-0.049,0-0.103-0.002-0.158-0.007c-0.882-0.08-2.36-0.472-3.791-0.851
		c-1.351-0.357-2.882-0.764-3.454-0.764c-0.027,0-0.052,0.001-0.071,0.004c-0.272,0.083-1.353,0.754-2.221,1.293
		c-1.817,1.129-3.057,1.877-3.694,1.983c-0.915,0.154-3.167,1.575-3.392,2.141c-0.313,0.783-2.452,1.359-6.359,1.715
		c-0.189,0.016-0.372-0.055-0.498-0.194c-0.546-0.6-1.422-1.631-2.047-2.69c0.267,0.565,0.511,1.126,0.749,1.673
		c0.911,2.085,1.697,3.886,2.798,3.886c0.062,0,0.125-0.005,0.19-0.016c0.884-0.136,3.19-1.014,5.421-1.863
		c3.221-1.227,6.551-2.494,7.89-2.494c0.358,0,0.689-0.01,0.992-0.018c0.265-0.008,0.508-0.015,0.73-0.015
		c0.721,0,2.222,0,2.222,1.802c0,0.432-0.014,1.165-0.029,2.004c-0.03,1.611-0.086,4.609,0.005,5.025
		c0.003,0.009,0.007,0.018,0.011,0.028c0.026-2.37,0.104-5.979,0.334-7.018c0.341-1.521,1.596-2.504,3.197-2.504
		c0.157,0,0.317,0.01,0.476,0.029c0.903,0.112,2.071,1.687,2.892,2.986c1.514,2.399,3.065,5.847,2.458,7.67
		c-0.554,1.656-1.048,1.967-1.809,2.335c-0.397,0.193-0.849,0.411-1.516,1.081c-0.655,0.654-0.839,1.493-1.051,2.465
		c-0.305,1.396-0.686,3.135-2.701,4.62c-3.393,2.501-11.346,2.627-12.905,2.627c-1.469,0-10.936-0.817-11.932-1.214
		c-0.041-0.017-0.089-0.036-0.143-0.058c0.09,0.041,0.181,0.083,0.274,0.125c4.353,1.964,6.759,2.124,9.239,2.124l1.055-0.003
		c1.144,0,2.029-0.262,2.676-0.452c0.403-0.119,0.723-0.214,1.006-0.214c0.364,0,0.583,0.159,0.702,0.292
		c0.271,0.304,0.265,0.717,0.228,1.043l-0.044,0.414c-0.163,1.569-0.387,3.72-1.345,5.793c-0.028,0.063-2.629,5.552-4.501,6.796
		c2.391-0.584,4.711-1.73,5.465-2.862c0.914-1.371,2.469-2.292,3.869-2.292c1.16,0,2.061,0.61,2.535,1.719
		c0.784,1.827-0.517,3.528-1.664,5.028c-0.577,0.755-1.122,1.468-1.33,2.09c-0.137,0.413-0.215,0.823-0.29,1.22
		c-0.273,1.443-0.557,2.936-3.68,3.531c-0.707,0.135-1.468,0.197-2.395,0.197c-0.626,0-1.255-0.028-1.863-0.056
		c-0.606-0.028-1.179-0.054-1.748-0.054c-1.271,0-2.736,0.116-3.966,0.983c-2.738,1.933-7.021,7.516-7.064,7.571
		c-0.137,0.179-0.361,0.267-0.584,0.227c-0.001-0.001-0.025-0.002-0.066-0.002c-0.382,0-1.765,0.178-3.537,2.458
		c-2.677,3.441-7.783,10.965-7.906,12.026c0.001,1.168-0.641,9.39-0.668,9.739c-0.024,0.313-0.286,0.553-0.599,0.553
		c-0.004,0-0.009,0-0.013,0l-0.112-0.001c-0.739,0-7.458,0.1-15.493,3.554C193.333,195.593,193.253,195.609,193.173,195.609z
		 M157.701,168.726c0.126,0,0.249,0.039,0.352,0.113l35.196,25.485c7.261-3.059,13.3-3.465,15.223-3.512
		c0.146-1.901,0.623-8.146,0.623-9.111c0-1.635,6.947-11.192,8.158-12.749c1.941-2.497,3.632-2.884,4.37-2.918
		c0.879-1.13,4.556-5.757,7.138-7.579c1.503-1.061,3.198-1.203,4.657-1.203c0.597,0,1.21,0.028,1.803,0.055
		c0.595,0.027,1.209,0.056,1.809,0.056c0.85,0,1.539-0.057,2.17-0.177c2.321-0.442,2.465-1.2,2.726-2.576
		c0.079-0.415,0.168-0.885,0.33-1.375c0.272-0.813,0.876-1.604,1.516-2.439c0.994-1.3,2.021-2.644,1.514-3.827
		c-0.282-0.658-0.764-0.992-1.432-0.992c-0.984,0-2.191,0.739-2.87,1.758c-1.493,2.242-6.728,3.955-9.901,3.78
		c-2.349-0.13-2.962-0.869-3.768-2.064c-0.261-0.389-0.558-0.828-0.996-1.31c-0.934-1.026-2.099-2.929-1.765-3.685
		c0.11-0.249,0.347-0.403,0.617-0.403c0.364,0,0.7,0.266,1.236,0.98c1.36,1.813,6.394,3.729,7.425,3.94
		c0.687-0.289,2.839-3.612,4.1-6.341c0.874-1.893,1.086-3.929,1.24-5.414l0.04-0.374c-0.123,0.032-0.265,0.074-0.398,0.113
		c-0.677,0.2-1.698,0.502-3.016,0.502l-1.055,0.003c-2.621,0-5.162-0.168-9.732-2.23c-4.08-1.843-4.734-2.814-4.872-3.386
		c-0.064-0.266-0.015-0.534,0.131-0.717c0.167-0.209,0.452-0.283,0.7-0.179c0.04,0.017,4.021,1.677,4.846,2.005
		c0.789,0.29,9.729,1.13,11.488,1.13c0.916,0,9.037-0.067,12.193-2.394c1.652-1.217,1.938-2.525,2.241-3.91
		c0.231-1.06,0.471-2.155,1.373-3.058c0.811-0.813,1.406-1.101,1.842-1.312c0.53-0.257,0.772-0.375,1.193-1.636
		c0.294-0.881-0.255-2.827-1.432-5.078c-1.292-2.474-2.584-3.904-2.944-4.011c-0.093-0.011-0.203-0.018-0.311-0.018
		c-0.81,0-1.767,0.411-2.026,1.565c-0.261,1.181-0.318,6.828-0.318,8.904c0,0.265-0.173,0.497-0.426,0.574s-0.526-0.021-0.673-0.242
		c-0.175-0.263-1.057-1.6-1.242-2.149c-0.132-0.394-0.126-1.916-0.061-5.406c0.016-0.829,0.029-1.554,0.029-1.981
		c0-0.474,0-0.602-1.022-0.602c-0.212,0-0.444,0.007-0.697,0.014c-0.313,0.009-0.654,0.019-1.025,0.019
		c-1.118,0-4.636,1.339-7.463,2.416c-2.498,0.95-4.655,1.772-5.665,1.928c-0.126,0.02-0.251,0.029-0.373,0.029
		c-1.886,0-2.817-2.135-3.897-4.606c-0.324-0.743-0.66-1.513-1.041-2.272c-1.049-2.099-0.648-2.809-0.061-3.459
		c0.254-0.281,0.381-0.423,0.188-1.075c-0.574-1.931-1.251-2.424-1.258-2.429l0,0c-0.267-0.187-0.345-0.558-0.164-0.83
		c0.049-0.072,0.109-0.131,0.178-0.176c0.153-0.099,0.344-0.123,0.518-0.061c0.044,0.016,0.087,0.037,0.128,0.064
		c0.002,0.001,0.006,0.003,0.01,0.006c0.008,0.006,0.015,0.011,0.02,0.014l2.983,1.988c0.167,0.111,0.268,0.299,0.268,0.499
		c0,0.083-0.011,2.048-0.947,3.361c-0.241,0.336,0.711,2.107,2.267,3.878c2.183-0.217,4.636-0.65,5.081-1
		c0.532-1.142,3.234-2.639,4.279-2.814c0.452-0.076,2.142-1.126,3.261-1.82c1.33-0.826,2.104-1.3,2.521-1.426
		c0.114-0.034,0.246-0.051,0.403-0.051c0.729,0,2.134,0.372,3.761,0.803c1.196,0.316,2.427,0.643,3.242,0.771
		c-0.474-0.815-1.883-2.45-2.959-3.7c-0.748-0.868-1.521-1.767-2.23-2.643c-2.204-2.725-1.741-5.856-1.285-7.449
		c-11.158,2.188-108.562,21.28-115.631,22.224c-7.177,0.957-32.888,3.712-35.015,3.939l-0.063,0.04
		c-0.351,0.925-0.543,1.673-0.543,2.119c0,0.411-0.084,0.894-0.173,1.404c-0.167,0.96-0.375,2.155,0.061,2.764
		c0.12,0.169,0.229,0.311,0.322,0.434c0.335,0.439,0.6,0.786,0.432,1.232c-0.185,0.489-0.696,0.592-1.625,0.778
		c-0.726,0.145-2.554,3.148-3.537,4.763c-1.2,1.971-1.967,3.202-2.582,3.663c-0.461,0.346-0.986,0.521-1.561,0.521
		c-0.736,0-1.41-0.284-1.952-0.512c-0.238-0.101-0.465-0.195-0.618-0.231c-0.904,0.044-5.621,2.81-6.02,4.404
		c-0.456,1.82-2.81,4.01-3.943,4.01c-0.272,0-0.514-0.103-0.682-0.289c-0.159-0.177-0.24-0.408-0.24-0.688
		c0-0.923-1.02-2.534-1.605-2.534c-0.027,0-0.1,0-0.213,0.113c-0.422,0.422-0.633,1.488-0.803,2.345
		c-0.258,1.298-0.501,2.523-1.555,2.524c-0.048-0.011-0.104-0.004-0.16-0.012c-0.531-0.077-1.157-0.313-1.763-0.541
		c-0.369-0.139-0.808-0.304-1.107-0.377c0.032,0.3,0.115,0.745,0.182,1.1c0.32,1.729,0.504,3.018-0.062,3.722
		c-0.008,0.013-0.016,0.024-0.023,0.035c-0.02,0.026-0.04,0.051-0.063,0.074c-0.406,0.405-1.468,0.954-3.309,1.89
		c-1.9,0.966-4.265,2.167-5.061,2.963c-0.424,0.424-0.954,1.086-1.516,1.787c-1.54,1.923-3.132,3.911-4.595,3.911
		c-0.694,0-1.214-0.249-1.673-0.468c-0.393-0.188-0.732-0.351-1.153-0.351c-0.506,0-1.117,0.236-1.867,0.722
		c-5.676,3.666-7.185,4.973-7.422,5.415c0.005,0.145,0.023,0.391,0.045,0.669c0.212,2.758,0.301,5.494-1.107,6.021
		c-0.137,0.052-0.276,0.106-0.418,0.163c-0.705,0.28-1.505,0.597-2.38,0.597c-0.67,0-1.29-0.181-1.882-0.552l-1.452,1.33
		l0.078,6.466c17.506-2.279,30.015-4.073,32.813-4.479l0.278-0.257c0.041-0.038,0.087-0.07,0.137-0.095
		c0.045-0.023,4.602-2.335,9.021-4.549c8.284-4.145,8.553-4.185,8.73-4.211c0.278-0.039,35.626-3.937,35.979-3.937
		c0.918,0,1.352,2.009,1.352,2.271c0,0.434-0.291,0.637-0.532,0.736c0.298,0.386,0.447,0.502,0.506,0.536
		c0.06-0.035,0.192-0.145,0.469-0.482c0.837-1.021,2.096-1.569,2.149-1.592c0.223-0.097,0.483-0.048,0.657,0.123l4.604,4.518
		c0.114,0.113,0.18,0.268,0.18,0.429v3.4l29.76-4.579C157.641,168.728,157.671,168.726,157.701,168.726z M227.132,147.25
		c0.024,0.027,0.049,0.055,0.073,0.082c0.497,0.546,0.834,1.045,1.104,1.446c0.664,0.984,0.967,1.434,2.839,1.537
		c0.727,0.041,1.558-0.031,2.396-0.179C232.587,149.909,229.346,148.746,227.132,147.25z M226.319,108.281
		c-0.218,0.253-0.352,0.531,0.053,1.483C226.185,109.213,226.137,108.697,226.319,108.281z M226.634,105.368
		c0.068,0.191,0.136,0.396,0.201,0.616c0.097,0.324,0.137,0.603,0.139,0.843c0.11-0.436,0.157-0.847,0.178-1.115L226.634,105.368z"
		/>
</g>
</svg>
