<?xml version="1.0" encoding="iso-8859-1"?>
<!-- Generator: Adobe Illustrator 15.1.0, SVG Export Plug-In . SVG Version: 6.00 Build 0)  -->
<!DOCTYPE svg PUBLIC "-//W3C//DTD SVG 1.1//EN" "http://www.w3.org/Graphics/SVG/1.1/DTD/svg11.dtd">
<svg version="1.1" id="Layer_1" xmlns="http://www.w3.org/2000/svg" xmlns:xlink="http://www.w3.org/1999/xlink" x="0px" y="0px"
	 width="288px" height="288px" viewBox="0 0 288 288" style="enable-background:new 0 0 288 288;" xml:space="preserve">
<g>
	<path d="M251.58,212.558c-0.005,0-0.009,0-0.014,0c-0.543-0.012-55.123-1.168-120.522-4.135
		c-49.594-2.249-83.066-5.159-95.155-6.306c-0.328-0.03-0.569-0.32-0.541-0.648L46.163,75.823c0.014-0.166,0.097-0.319,0.229-0.422
		c0.132-0.103,0.3-0.145,0.465-0.119c42.138,6.801,185.813,9.072,187.261,9.094c0.328,0.006,0.59,0.272,0.59,0.601v2.027
		c0,0.636,0.434,1.387,0.816,2.049c0.424,0.732,0.789,1.364,0.727,1.989c-0.076,0.789,0.455,3.809,1.229,5.894
		c0.717,1.936,0.285,2.727-0.366,3.923c-0.156,0.287-0.333,0.611-0.517,0.992c-0.561,1.165-0.35,1.473,0.035,2.031
		c0.143,0.207,0.305,0.441,0.439,0.733c0.322,0.699,0.22,3.063-0.151,8.446c-0.121,1.759-0.235,3.42-0.261,4.455
		c-0.048,1.919,0.6,3.157,1.227,4.354c0.337,0.645,0.654,1.253,0.854,1.937c0.063,0.216,0.13,0.441,0.2,0.678
		c0.535,1.808,1.27,4.284,1.689,7.364c0.416,3.055,2.19,6.722,3.143,8.691l0.237,0.491c0.761,1.592,0.313,4.39-0.046,6.638
		c-0.084,0.525-0.164,1.021-0.211,1.414c-0.086,0.709,0.098,1.005,0.33,1.378c0.314,0.503,0.703,1.13,0.332,2.457
		c-0.26,0.924,0,3.202,0.273,5.615c0.275,2.425,0.588,5.175,0.472,7.358c-0.126,2.33,0.54,3.261,1.128,4.081
		c0.463,0.647,0.941,1.317,0.818,2.428c-0.104,0.931-0.22,1.682-0.354,2.55c-0.17,1.101-0.363,2.348-0.581,4.313
		c-0.205,1.846-0.082,2.257,0.246,3.354c0.263,0.875,0.658,2.197,1.076,4.912c0.58,3.772,2.093,5.19,2.996,6.037
		c0.562,0.526,1.092,1.023,0.891,1.776c-0.211,0.787,0.119,3.062,0.467,5.469c0.109,0.754,0.223,1.538,0.328,2.33
		c0.42,3.147,0.424,3.351,0.079,4.335c-0.032,0.09-0.066,0.188-0.104,0.302c-0.252,0.759-0.117,2.921,0.027,4.105
		c0.021,0.173-0.035,0.346-0.151,0.476C251.91,212.485,251.749,212.558,251.58,212.558z M36.595,200.979
		c12.555,1.183,45.723,4.033,94.504,6.245c61.432,2.787,113.316,3.977,119.813,4.119c-0.098-1.054-0.217-2.996,0.098-3.942
		c0.041-0.12,0.077-0.225,0.11-0.32c0.252-0.718,0.267-0.762-0.136-3.778c-0.104-0.788-0.217-1.568-0.326-2.317
		c-0.398-2.752-0.713-4.926-0.438-5.951c-0.025-0.097-0.33-0.382-0.553-0.59c-1.017-0.953-2.719-2.549-3.361-6.73
		c-0.405-2.632-0.771-3.856-1.039-4.75c-0.348-1.16-0.522-1.742-0.291-3.83c0.222-1.992,0.416-3.253,0.589-4.365
		c0.132-0.854,0.247-1.594,0.347-2.5c0.073-0.652-0.181-1.007-0.602-1.596c-0.633-0.884-1.498-2.093-1.35-4.844
		c0.111-2.083-0.195-4.779-0.466-7.159c-0.3-2.642-0.56-4.924-0.237-6.074c0.229-0.818,0.07-1.074-0.193-1.499
		c-0.285-0.457-0.64-1.027-0.504-2.155c0.05-0.415,0.131-0.923,0.217-1.46c0.298-1.862,0.748-4.677,0.148-5.931l-0.234-0.487
		c-0.981-2.029-2.809-5.807-3.251-9.051c-0.408-2.989-1.127-5.415-1.651-7.186c-0.071-0.238-0.139-0.466-0.201-0.683
		c-0.166-0.569-0.458-1.126-0.767-1.716c-0.665-1.271-1.419-2.711-1.363-4.94c0.026-1.063,0.142-2.736,0.265-4.509
		c0.197-2.88,0.498-7.231,0.256-7.866c-0.09-0.193-0.209-0.366-0.336-0.551c-0.562-0.814-0.928-1.57-0.129-3.231
		c0.197-0.408,0.382-0.747,0.545-1.046c0.615-1.128,0.822-1.508,0.295-2.931c-0.819-2.211-1.398-5.382-1.298-6.428
		c0.024-0.243-0.306-0.813-0.571-1.272c-0.457-0.793-0.977-1.691-0.977-2.649v-1.438c-10.102-0.165-144.603-2.484-186.205-8.998
		L36.595,200.979z"/>
</g>
</svg>
