<?xml version="1.0" encoding="iso-8859-1"?>
<!-- Generator: Adobe Illustrator 15.1.0, SVG Export Plug-In . SVG Version: 6.00 Build 0)  -->
<!DOCTYPE svg PUBLIC "-//W3C//DTD SVG 1.1//EN" "http://www.w3.org/Graphics/SVG/1.1/DTD/svg11.dtd">
<svg version="1.1" id="Layer_1" xmlns="http://www.w3.org/2000/svg" xmlns:xlink="http://www.w3.org/1999/xlink" x="0px" y="0px"
	 width="288px" height="288px" viewBox="0 0 288 288" style="enable-background:new 0 0 288 288;" xml:space="preserve">
<g>
	<path d="M169.59,244.399c-0.187,0-0.366-0.086-0.48-0.24c-1.538-2.057-3.149-3.492-4.207-3.746
		c-2.134-0.512-4.133-2.452-4.867-3.232c-0.5,0.185-1.387,0.449-2.349,0.449c-1.498,0-2.656-0.641-3.35-1.854
		c-0.835-1.461-1.052-3.566-1.226-5.258c-0.087-0.845-0.203-1.975-0.383-2.339c-0.204,0.054-0.467,0.115-0.784,0.189
		c-1.878,0.441-6.276,1.475-7.007,3.37c-1.051,2.734-1.942,4.689-3.845,4.929c-0.565,0.071-1.15,0.417-1.77,0.783
		c-0.893,0.527-1.922,1.131-3.12,0.997c-1.213-0.135-2.69-1.005-3.878-1.704c-0.467-0.274-1.044-0.615-1.232-0.666
		c-0.327-0.014-0.676-0.216-1.405-0.653c-0.846-0.508-2.123-1.275-3.002-1.275c-0.169,0-0.313,0.029-0.431,0.088
		c-0.502,0.251-1.155,1.189-1.787,2.097c-1.071,1.539-2.18,3.13-3.585,3.13c-0.119,0-0.237-0.012-0.354-0.035
		c-1.118-0.223-2.572-1.474-4.257-2.921c-1.497-1.288-3.195-2.747-4.273-3.018c-1.717-0.428-4.21-0.492-7.31-0.182
		c-0.386,0.038-0.847,0.11-1.334,0.186c-0.913,0.143-1.948,0.304-2.868,0.304c-0.523,0-2.115,0-2.723-1.213
		c-0.267-0.534-0.568-1.202-0.917-1.975c-0.675-1.494-1.515-3.353-2.425-4.914c-0.372-0.637-0.699-1.315-1.015-1.973l-0.133-0.277
		c-0.817-1.692-1.534-2.988-2.687-2.988c-2.17,0-3.611-1.523-4.473-2.435c-0.09-0.095-0.174-0.184-0.252-0.263
		c-0.007,0-0.016-0.001-0.024-0.001c-0.59,0-2.034,0.695-3.195,1.253c-1.613,0.776-2.643,1.247-3.325,1.247
		c-0.898,0-1.353-0.839-1.752-1.58c-0.411-0.761-0.714-1.26-1.16-1.26c-0.2,0-0.449,0.087-0.74,0.258
		c-1.024,0.603-2.162,1.002-3.076,1.323c-0.172,0.061-0.362,0.039-0.518-0.058c-0.154-0.098-0.257-0.26-0.277-0.441L56.513,82.963
		c-0.035-0.316,0.183-0.606,0.498-0.659l25.893-4.313l25.354-4.228c0.143-0.024,0.288,0.005,0.41,0.079
		c3.136,1.905,6.126,2.431,7.348,2.255c0.117-0.017,0.247-0.024,0.396-0.024c1.876,0,6.428,1.36,8.34,2.699
		c0.561,0.393,1.102,0.828,1.624,1.249c1.28,1.03,2.489,2.003,3.566,2.003c0.552,0,1.456-0.467,2.413-0.961
		c1.398-0.722,2.982-1.539,4.558-1.539c0.386,0,0.758,0.051,1.106,0.15c1.872,0.535,3.032,1.593,2.887,2.633
		c-0.075,0.539-0.554,1.114-1.669,1.114c-2.273,0-8.476,1.082-8.892,1.991c0.001,0.545,0.055,0.907,0.161,1.105
		c0.044,0.079,0.098,0.179,0.403,0.179c0.213,0,0.495-0.052,0.837-0.154l1.779-0.538c0.017-0.005,0.033-0.009,0.05-0.013
		c0.221-0.046,5.428-1.135,8.438-1.135c0.652,0,1.155,0.05,1.535,0.153c0.804,0.22,1.558,0.519,2.286,0.807
		c0.98,0.389,1.907,0.756,2.597,0.756c0.129,0,0.248-0.013,0.354-0.039c0.46-0.113,1.007-0.557,1.586-1.027
		c0.905-0.734,1.932-1.568,3.242-1.699c1.797-0.18,5.389-2.265,5.874-3.073c0.642-1.07,4.623-3.589,8.005-3.589
		c0.477,0,0.93,0.05,1.349,0.148c1.253,0.296,2.673,0.458,3.998,0.458c2.674,0,4.581-0.641,5.232-1.758
		c1.499-2.571,8.384-10.566,15.346-16.756c3.962-3.521,9.79-6.288,14.932-8.729c4.233-2.009,8.231-3.906,10.587-5.912
		c0.164-0.141,0.392-0.182,0.594-0.107c0.203,0.074,0.351,0.251,0.387,0.464l11.851,69.72c0.019,0.058,0.028,0.119,0.028,0.183
		c0,0.334-0.268,0.618-0.605,0.601c-0.006,0.003-0.017,0-0.024-0.001c-0.007,0-0.109-0.004-0.28-0.004
		c-1.861,0-4.146,0.403-4.455,1.54c-0.299,1.095,0.475,2.156,1.371,3.386c0.579,0.793,1.178,1.614,1.569,2.554
		c0.574,1.38,0.539,2.942,0.51,4.197c-0.014,0.639-0.034,1.515,0.104,1.697c1.056,0.792,1.835,4.523,0.741,6.492
		c-0.315,0.567-0.682,1.086-1.036,1.589c-0.783,1.112-1.46,2.072-1.46,3.261c0,1.921,1.171,12.286,1.183,12.391
		c0.032,0.281-0.138,0.547-0.406,0.637c-1.268,0.424-2.282,1.146-2.192,1.416c0.465,1.39,0.892,2.942,0.054,3.779
		c-0.361,0.44-0.782,3.859,0.122,5.852c0.77,1.699,0.592,3.525-0.528,5.429c-0.11,0.18-0.212,0.343-0.31,0.49
		c-0.338,0.507-1.024,1.12-1.895,1.896c-1.369,1.224-3.073,2.746-4.017,4.397c-0.808,1.415-1.883,2.461-2.831,3.383
		c-0.904,0.88-1.685,1.639-1.849,2.381c-0.438,1.97-3.482,3.921-3.828,4.137c-0.182,0.117-1.875,1.181-3.224,1.181c0,0,0,0-0.001,0
		c-0.531,0-0.96-0.159-1.275-0.475c-0.831-0.832-1.788-1.163-2.412-1.203c-0.316,0.345-1.144,1.941-2.524,6.11
		c-0.382,1.144-1.838,1.352-3.008,1.519c-0.41,0.059-0.876,0.125-1.054,0.213c-0.118,0.059-0.576,0.457-1.426,3.059l-0.051,0.153
		c-0.137,0.409-0.471,0.585-0.714,0.713c-0.351,0.185-0.653,0.344-0.45,1.569c0.123,0.74,0.27,1.376,0.387,1.888
		c0.289,1.258,0.498,2.166-0.251,2.665c-0.257,0.172-0.659,0.308-1.124,0.466c-0.375,0.127-1.115,0.378-1.356,0.572
		c0.118,0.266,0.458,0.868,0.738,1.366c1.688,2.991,2.633,4.854,1.521,5.521c-0.191,0.119-0.677,0.844-1.031,1.372
		c-0.938,1.399-1.908,2.847-3,2.847c-0.406,0-0.974-0.197-1.376-1.134c-1.247-2.91-3.424-5.485-4.009-5.571
		c-0.671,0.033-3.59,2.532-3.943,4.832c-0.138,0.893,0.019,1.494,0.184,2.133c0.271,1.05,0.552,2.136-0.667,4.033
		c-0.701,1.09-1.244,1.588-1.568,1.886c-0.069,0.063-0.153,0.14-0.195,0.187c0.028,0.172,0.223,0.639,0.427,1.13
		c0.471,1.128,2.779,6.858,1.982,8.854c-0.187,0.468-0.565,0.736-1.04,0.736c-0.53,0-1.083-0.342-1.617-0.672
		c-0.187-0.115-0.464-0.286-0.66-0.377c-0.001,0.026-0.002,0.056-0.002,0.09c0,1.882-0.516,6.938-1.516,8.189
		c-0.687,0.853-4.916,3.327-7.711,4.169C169.705,244.392,169.647,244.399,169.59,244.399z M160.197,235.867
		c0.171,0,0.339,0.073,0.456,0.21c0.022,0.025,2.277,2.629,4.529,3.17c1.29,0.31,2.963,1.705,4.627,3.852
		c2.686-0.913,6.293-3.104,6.728-3.645c0.621-0.776,1.253-4.982,1.253-7.438c0-1.254,0.782-1.352,1.022-1.352
		c0.468,0,0.954,0.3,1.469,0.618c0.286,0.177,0.704,0.435,0.923,0.483c0.397-1.103-0.721-4.888-1.985-7.919
		c-0.634-1.521-0.784-1.884,0.064-2.662c0.3-0.275,0.753-0.691,1.37-1.651c0.936-1.455,0.759-2.139,0.515-3.084
		c-0.179-0.693-0.383-1.479-0.208-2.614c0.414-2.692,3.703-5.85,5.142-5.85c1.576,0,4.158,4.1,5.101,6.298
		c0.152,0.355,0.27,0.406,0.271,0.406c0.453,0,1.541-1.622,2.006-2.314c0.578-0.863,0.944-1.395,1.306-1.663
		c0.022-0.665-1.277-2.969-1.844-3.972c-0.552-0.978-0.819-1.461-0.896-1.764c-0.265-1.074,1.087-1.533,2.174-1.901
		c0.304-0.103,0.677-0.229,0.822-0.313c0.049-0.196-0.1-0.841-0.23-1.412c-0.121-0.527-0.272-1.184-0.401-1.959
		c-0.304-1.828,0.337-2.439,1.074-2.828c0.051-0.026,0.115-0.061,0.153-0.085l0.03-0.093c0.751-2.299,1.358-3.423,2.031-3.76
		c0.352-0.175,0.847-0.245,1.42-0.327c0.753-0.107,1.892-0.27,2.038-0.709c2.297-6.937,3.042-6.937,3.535-6.937
		c0.885,0,2.239,0.41,3.39,1.56c0.082,0.082,0.226,0.124,0.427,0.124l0,0c0.845,0,2.15-0.719,2.582-0.995
		c0.827-0.518,3.019-2.127,3.298-3.383c0.242-1.093,1.142-1.968,2.184-2.98c0.892-0.867,1.902-1.851,2.625-3.118
		c1.041-1.821,2.826-3.416,4.261-4.697c0.773-0.691,1.441-1.288,1.694-1.667c0.09-0.136,0.185-0.287,0.28-0.443
		c0.917-1.56,1.071-2.974,0.464-4.315c-1.003-2.207-0.777-6.296,0.122-7.196c0.254-0.253,0.138-1.111-0.344-2.551
		c-0.462-1.395,1.49-2.367,2.492-2.765c-0.232-2.084-1.138-10.288-1.138-12.058c0-1.568,0.854-2.78,1.68-3.951
		c0.336-0.478,0.684-0.971,0.968-1.481c0.894-1.609,0.046-4.606-0.43-4.964c-0.616-0.463-0.596-1.389-0.566-2.67
		c0.026-1.142,0.059-2.563-0.419-3.708c-0.337-0.81-0.893-1.571-1.43-2.309c-0.989-1.355-2.012-2.757-1.561-4.409
		c0.547-2.008,3.563-2.371,5.207-2.418l-11.575-68.104c-2.502,1.862-6.175,3.605-10.04,5.439
		c-5.069,2.406-10.815,5.133-14.648,8.541c-7.401,6.58-13.861,14.327-15.107,16.464c-1.193,2.048-4.44,2.354-6.269,2.354
		c-1.415,0-2.933-0.174-4.273-0.49c-0.328-0.077-0.689-0.116-1.073-0.116c-2.969,0-6.554,2.302-6.976,3.006
		c-0.703,1.173-4.674,3.438-6.783,3.65c-0.953,0.095-1.794,0.777-2.606,1.437c-0.686,0.558-1.334,1.084-2.057,1.262
		c-0.2,0.049-0.414,0.073-0.639,0.073c-0.919,0-1.948-0.408-3.038-0.84c-0.698-0.276-1.421-0.563-2.16-0.765
		c-0.188-0.051-0.551-0.111-1.22-0.111c-2.784,0-7.771,1.022-8.166,1.104l-1.755,0.529c-0.461,0.139-0.848,0.206-1.183,0.206
		c-0.844,0-1.259-0.439-1.458-0.808c-0.212-0.392-0.307-0.915-0.307-1.697c0-2.584,9.991-3.17,10.092-3.17
		c0.326,0,0.467-0.077,0.49-0.104c0.004-0.134-0.447-0.835-2.038-1.29c-0.241-0.068-0.502-0.104-0.776-0.104
		c-1.283,0-2.73,0.747-4.007,1.405c-1.138,0.588-2.121,1.095-2.964,1.095c-1.5,0-2.869-1.102-4.318-2.269
		c-0.508-0.408-1.033-0.831-1.561-1.2c-1.793-1.256-6.143-2.483-7.651-2.483c-0.09,0-0.166,0.005-0.226,0.014
		c-0.196,0.027-0.418,0.042-0.659,0.042c-1.55,0-4.368-0.616-7.289-2.345L57.77,83.395l15.135,134.221
		c0.703-0.258,1.471-0.569,2.155-0.973c0.484-0.284,0.925-0.423,1.348-0.423c1.195,0,1.785,1.093,2.216,1.89
		c0.192,0.355,0.514,0.951,0.696,0.951c0.458,0,1.76-0.626,2.806-1.129c1.467-0.705,2.853-1.372,3.715-1.372
		c0.346,0,0.623,0.103,0.824,0.304c0.1,0.099,0.207,0.212,0.323,0.336c0.776,0.819,1.948,2.059,3.602,2.059
		c1.997,0,2.979,2.033,3.767,3.667l0.135,0.279c0.305,0.635,0.62,1.292,0.969,1.887c0.941,1.616,1.796,3.507,2.481,5.025
		c0.345,0.762,0.642,1.419,0.897,1.932c0.183,0.365,0.737,0.55,1.649,0.55c0.827,0,1.813-0.153,2.684-0.289
		c0.504-0.078,0.98-0.152,1.399-0.194c3.244-0.324,5.86-0.252,7.72,0.212c1.354,0.34,3.088,1.83,4.765,3.271
		c1.359,1.168,2.9,2.493,3.709,2.654c0.04,0.008,0.079,0.012,0.119,0.012c0.778,0,1.788-1.45,2.6-2.615
		c0.752-1.079,1.461-2.098,2.235-2.484c0.284-0.143,0.61-0.215,0.968-0.215c1.212,0,2.604,0.836,3.62,1.446
		c0.324,0.195,0.724,0.436,0.87,0.484c0.369,0.021,0.82,0.277,1.758,0.83c1.031,0.607,2.444,1.439,3.402,1.546
		c0.816,0.092,1.567-0.359,2.377-0.838c0.697-0.412,1.419-0.839,2.23-0.94c1.24-0.156,1.974-1.826,2.874-4.169
		c0.958-2.488,5.443-3.541,7.853-4.107c0.354-0.083,0.658-0.154,0.849-0.209c0.1-0.028,0.2-0.042,0.299-0.042
		c1.134,0,1.282,1.445,1.488,3.445c0.162,1.579,0.364,3.545,1.073,4.785c0.48,0.841,1.235,1.25,2.308,1.25
		c1.164,0,2.244-0.501,2.255-0.506C160.023,235.887,160.11,235.867,160.197,235.867z"/>
</g>
</svg>
