<?xml version="1.0" encoding="iso-8859-1"?>
<!-- Generator: Adobe Illustrator 15.1.0, SVG Export Plug-In . SVG Version: 6.00 Build 0)  -->
<!DOCTYPE svg PUBLIC "-//W3C//DTD SVG 1.1//EN" "http://www.w3.org/Graphics/SVG/1.1/DTD/svg11.dtd">
<svg version="1.1" id="Layer_1" xmlns="http://www.w3.org/2000/svg" xmlns:xlink="http://www.w3.org/1999/xlink" x="0px" y="0px"
	 width="288px" height="288px" viewBox="0 0 288 288" style="enable-background:new 0 0 288 288;" xml:space="preserve">
<g>
	<path d="M253.71,201.548c-0.188,0-0.371-0.09-0.486-0.249c-0.017-0.023-0.033-0.047-0.05-0.071
		c-0.154-0.058-0.472-0.146-0.758-0.228c-0.713-0.2-1.791-0.502-2.949-0.993c-0.478-0.202-1.136-0.452-1.832-0.716
		c-3.302-1.249-5.673-2.218-6.106-3.3c-0.354-0.884-2.126-1.749-2.794-2.075l-0.203-0.1c-0.271-0.135-0.731-0.482-1.521-1.086
		c-0.757-0.579-2.311-1.766-2.772-1.896c-0.3,0.085-1.239,0.955-1.804,1.478c-1.269,1.176-2.081,1.896-2.788,1.896
		c-0.057,0-0.11-0.005-0.162-0.014c-0.639-0.106-2.145-0.867-4.047-1.852c-0.621-0.321-1.317-0.682-1.56-0.783
		c-0.249,0.043-0.982,0.286-1.528,0.467c-1.339,0.443-2.256,0.733-2.787,0.733c-0.19,0-0.554,0.595-0.709,0.849
		c-0.287,0.47-0.558,0.914-1.055,0.914c-0.284,0-0.764-0.161-1.872-0.558c-0.545-0.194-1.29-0.461-1.499-0.49
		c-0.143,0-0.515,0.183-0.813,0.329c-0.449,0.221-1.009,0.495-1.621,0.626c-0.268,0.058-0.557,0.114-0.846,0.172
		c-0.556,0.109-1.36,0.268-1.687,0.384c-0.028,0.15-0.057,0.391-0.077,0.565c-0.106,0.91-0.206,1.771-0.854,1.987
		c-0.431,0.142-0.984-0.02-1.499-0.189c-0.196-0.065-0.433-0.143-0.593-0.171c-0.079,0.098-0.192,0.288-0.272,0.422
		c-0.316,0.53-0.751,1.257-1.539,1.327c-0.037,0.004-0.075,0.006-0.114,0.006c-0.731,0-1.37-0.611-2.046-1.258
		c-0.411-0.395-0.837-0.801-1.19-0.965c-0.172-0.079-0.394-0.178-0.646-0.29c-2.815-1.253-3.589-1.712-3.761-2.23
		c-0.115-0.343-0.021-0.678,0.063-0.973c0.119-0.418,0.109-0.456,0.002-0.517c-0.331,0.02-1.158,0.735-1.606,1.122
		c-0.774,0.67-1.2,1.02-1.659,1.02c-0.412,0-1.016-0.211-1.714-0.454c-0.516-0.18-1.221-0.426-1.49-0.426
		c-0.784,0-1.084-0.859-1.374-1.691c-0.089-0.254-0.235-0.674-0.366-0.91c-0.207,0.319-0.477,0.975-0.637,1.361
		c-0.446,1.084-0.742,1.801-1.394,1.801c-0.115,0-0.248-0.011-0.39-0.023c-0.122-0.011-0.251-0.023-0.379-0.023
		c-0.299,0-0.301,0.024-0.315,0.213c-0.003,0.038-0.305,3.76-1.72,3.76c-0.658,0-2.324-0.993-3.063-1.972
		c-0.401-0.531-0.536-1.042-0.4-1.517c0.039-0.138,0.085-0.287,0.134-0.442c0.143-0.461,0.477-1.54,0.294-1.788
		c-0.014-0.019-0.083-0.053-0.252-0.053c-0.504,0-1.352,0.665-2.032,1.2c-0.859,0.675-1.603,1.257-2.324,1.257
		c-0.284,0-0.546-0.093-0.758-0.27c-0.683-0.568-0.855-1.422-0.994-2.107c-0.049-0.241-0.121-0.601-0.193-0.712
		c-0.052-0.017-0.2-0.053-0.533-0.053c-0.772,0-1.78,0.19-1.79,0.192c-0.283,0.053-0.563-0.1-0.669-0.365
		c-0.517-1.286-1.342-2.482-1.731-2.511c-0.385,0.051-1.65,1.295-2.407,2.039c-1.438,1.413-2.287,2.212-3.001,2.212
		c-0.859,0-3.566-0.63-3.566-1.723c0-0.286,0.151-0.547,0.342-0.876c0.213-0.368,0.535-0.925,0.352-1.154
		c-0.003-0.003-0.088-0.095-0.642-0.095c-0.151,0-0.309,0.006-0.467,0.011c-0.175,0.007-0.352,0.013-0.523,0.013
		c-0.454,0-1.66,0-1.998-1.088c-0.172-0.547-0.172-1.162-0.171-1.758c0.001-1.09-0.037-1.78-0.579-2.187
		c-0.225-0.169-0.432-0.245-0.668-0.245c-0.252,0-0.535,0.086-0.834,0.176c-0.377,0.113-0.804,0.242-1.286,0.242
		c-0.202,0-0.401-0.023-0.595-0.068c-1.452-0.344-1.977-0.343-2.143-0.333c-0.154,0.125-0.497,0.458-0.779,0.732
		c-1.299,1.266-1.973,1.862-2.527,1.862c-0.027,0-0.082-0.004-0.109-0.008c-0.453-0.063-0.848-0.512-1.695-1.519
		c-0.521-0.617-1.49-1.767-1.884-1.858c-0.382-0.089-0.856,0.143-1.312,0.372c-0.433,0.219-0.881,0.443-1.359,0.443
		c-0.543,0-6.38-1.563-7.405-2.74c-0.027-0.003-0.065-0.004-0.115-0.004c-0.291,0-0.733,0.063-1.201,0.13
		c-0.612,0.088-1.305,0.188-1.936,0.188c-1.152,0-1.881-0.362-2.166-1.076c-0.245-0.613-0.414-1.496-0.593-2.432
		c-0.17-0.89-0.569-2.974-0.974-3.133c-0.9-0.181-2.033-0.93-2.717-1.434c-0.462,0.839-1.142,1.765-1.892,1.765
		c-0.422,0-0.899-0.19-1.453-0.41c-0.595-0.236-1.268-0.514-1.785-0.475c-0.01,0.058-0.017,0.14-0.022,0.199
		c-0.032,0.366-0.119,1.34-1.341,1.34c-0.082,0-0.171-0.005-0.269-0.015c-1.024-0.103-2.151-1.498-3.906-3.767
		c-0.957-1.235-2.401-3.104-2.965-3.215c-0.782-0.158-1.371-0.19-1.728-0.19c-0.348,0-0.534,0.03-0.536,0.03
		c-0.178,0.03-0.362-0.021-0.499-0.141c-0.136-0.119-0.212-0.293-0.205-0.474l2.461-61.216l-75.999-4.349
		c-0.161-0.01-0.312-0.083-0.418-0.206c-0.106-0.121-0.158-0.281-0.145-0.442l1.315-16.058c0.027-0.326,0.31-0.568,0.634-0.551
		c1.098,0.067,110.602,6.675,183.88,6.674c10.714,0,20.272-0.142,28.411-0.421c0.158-0.004,0.314,0.053,0.431,0.162
		s0.185,0.26,0.189,0.42l0.479,15.837l5.045,34.354c0.005,0.029,0.007,0.059,0.007,0.088v58.008c0,0.26-0.168,0.49-0.416,0.57
		C253.834,201.538,253.771,201.548,253.71,201.548z M234.251,189.632c0.059,0,0.114,0.005,0.168,0.015
		c0.649,0.118,1.736,0.92,3.319,2.13c0.537,0.41,1.145,0.875,1.329,0.967l0.193,0.095c0.927,0.452,2.856,1.394,3.382,2.708
		c0.271,0.676,4.01,2.091,5.417,2.623c0.708,0.269,1.377,0.521,1.876,0.733c1.088,0.461,2.08,0.739,2.805,0.942
		c0.135,0.038,0.258,0.073,0.37,0.105v-56.966l-5.044-34.346c-0.003-0.022-0.005-0.046-0.006-0.069l-0.463-15.27
		c-8.02,0.267-17.386,0.401-27.85,0.401c-70.531,0.001-174.59-6.116-183.367-6.641l-1.217,14.86l75.974,4.348
		c0.327,0.019,0.578,0.296,0.565,0.623l-2.458,61.141c0.004,0,0.009,0,0.014,0c0.598,0,1.259,0.071,1.963,0.213
		c0.955,0.19,2.02,1.515,3.678,3.659c0.94,1.216,2.514,3.25,3.077,3.307c0.117,0.012,0.221,0.007,0.265,0
		c0.014-0.061,0.022-0.164,0.029-0.237c0.029-0.332,0.107-1.215,1.125-1.29c0.06-0.004,0.119-0.007,0.177-0.007
		c0.729,0,1.48,0.299,2.143,0.563c0.363,0.145,0.773,0.308,0.978,0.323c0.25-0.124,0.808-0.948,1.17-1.733
		c0.078-0.169,0.23-0.292,0.412-0.334c0.181-0.041,0.372,0.004,0.516,0.122c0.481,0.397,1.92,1.468,2.782,1.641
		c1.177,0.234,1.535,2.104,1.913,4.084c0.168,0.876,0.326,1.704,0.529,2.211c0.106,0.266,0.63,0.321,1.052,0.321
		c0.545,0,1.193-0.093,1.765-0.175c0.511-0.073,0.994-0.143,1.371-0.143c0.204,0,0.81,0,1.067,0.483
		c0.644,0.62,5.72,2.249,6.454,2.261c0.193,0,0.511-0.16,0.819-0.314c0.485-0.244,1.035-0.521,1.665-0.521
		c0.155,0,0.309,0.018,0.458,0.052c0.729,0.169,1.475,1.002,2.531,2.255c0.306,0.363,0.706,0.838,0.933,1.044
		c0.392-0.247,1.222-1.055,1.646-1.467c0.762-0.743,0.994-0.96,1.257-1.028c0.134-0.032,0.28-0.047,0.458-0.047
		c0.508,0,1.287,0.123,2.317,0.367c0.391,0.091,0.815-0.021,1.261-0.155c0.369-0.111,0.752-0.226,1.18-0.226
		c0.499,0,0.953,0.158,1.389,0.484c1.061,0.797,1.06,2.101,1.059,3.147c-0.001,0.528-0.002,1.026,0.115,1.398
		c0.025,0.081,0.076,0.246,0.854,0.246c0.158,0,0.32-0.006,0.481-0.012c0.172-0.006,0.344-0.012,0.509-0.012
		c0.564,0,1.194,0.064,1.579,0.545c0.696,0.871,0.104,1.895-0.251,2.505c-0.026,0.047-0.058,0.1-0.086,0.151
		c0.451,0.261,1.56,0.647,2.272,0.647c0.331-0.072,1.432-1.153,2.16-1.869c1.503-1.477,2.465-2.382,3.26-2.382
		c0.024,0,0.049,0.001,0.073,0.002c1.176,0.084,2.126,1.831,2.57,2.814c0.406-0.061,1.005-0.133,1.535-0.133
		c0.488,0,0.835,0.06,1.091,0.187c0.557,0.278,0.687,0.92,0.813,1.54c0.111,0.553,0.227,1.125,0.585,1.423
		c0.298-0.008,1.035-0.587,1.573-1.01c0.912-0.716,1.854-1.456,2.773-1.456c0.678,0,1.036,0.295,1.219,0.541
		c0.542,0.736,0.193,1.862-0.115,2.855c-0.045,0.146-0.089,0.286-0.126,0.415c-0.014,0.051,0.011,0.174,0.128,0.356
		c0.443,0.688,1.585,1.38,2.06,1.562c0.236-0.401,0.571-1.634,0.646-2.608c0.03-0.396,0.236-1.322,1.512-1.322
		c0.172,0,0.338,0.015,0.484,0.028c0.032,0.003,0.063,0.006,0.095,0.008c0.135-0.225,0.334-0.708,0.474-1.047
		c0.495-1.2,0.922-2.236,1.748-2.236c0.057,0,0.113,0.006,0.17,0.017c0.741,0.15,1.039,1.004,1.327,1.83
		c0.097,0.278,0.252,0.724,0.367,0.892c0.464,0.036,1.095,0.257,1.76,0.488c0.438,0.152,1.027,0.358,1.272,0.384
		c0.183-0.087,0.624-0.468,0.921-0.724c0.805-0.696,1.637-1.415,2.403-1.415c0.194,0,0.375,0.044,0.537,0.133
		c0.993,0.541,0.729,1.468,0.603,1.912c-0.02,0.069-0.046,0.162-0.061,0.231c0.467,0.379,2.354,1.219,3.092,1.548
		c0.257,0.114,0.484,0.216,0.66,0.297c0.535,0.247,1.034,0.725,1.517,1.187c0.386,0.368,0.967,0.925,1.217,0.925
		c0.187-0.017,0.46-0.475,0.623-0.748c0.284-0.477,0.607-1.017,1.201-1.017c0.339,0,0.711,0.123,1.071,0.241
		c0.217,0.072,0.458,0.151,0.628,0.179c0.071-0.242,0.125-0.705,0.157-0.977c0.074-0.641,0.12-1.026,0.364-1.271
		c0.287-0.286,0.875-0.423,2.358-0.716c0.283-0.056,0.566-0.111,0.827-0.167c0.468-0.101,0.933-0.329,1.344-0.53
		c0.494-0.242,0.921-0.451,1.342-0.451c0.059,0,0.116,0.004,0.171,0.012c0.304,0.043,0.857,0.235,1.731,0.548
		c0.414,0.148,0.998,0.356,1.313,0.446c0.059-0.088,0.129-0.204,0.187-0.298c0.367-0.601,0.869-1.424,1.733-1.424
		c0.378,0,1.601-0.405,2.41-0.673c1.06-0.351,1.628-0.533,1.952-0.533c0.06,0,0.113,0.005,0.166,0.016
		c0.209,0.041,0.569,0.221,1.897,0.908c1.174,0.606,3.125,1.616,3.667,1.729c0.336-0.065,1.354-1.008,1.964-1.574
		C232.859,190.282,233.594,189.632,234.251,189.632z"/>
</g>
</svg>
