<?xml version="1.0" encoding="iso-8859-1"?>
<!-- Generator: Adobe Illustrator 15.1.0, SVG Export Plug-In . SVG Version: 6.00 Build 0)  -->
<!DOCTYPE svg PUBLIC "-//W3C//DTD SVG 1.1//EN" "http://www.w3.org/Graphics/SVG/1.1/DTD/svg11.dtd">
<svg version="1.1" id="Layer_1" xmlns="http://www.w3.org/2000/svg" xmlns:xlink="http://www.w3.org/1999/xlink" x="0px" y="0px"
	 width="288px" height="288px" viewBox="0 0 288 288" style="enable-background:new 0 0 288 288;" xml:space="preserve">
<g>
	<path d="M207.322,229.619c-0.044,0-0.088-0.004-0.131-0.014c-1.412-0.313-2.947-0.648-4.559-0.997
		c-17.701-3.897-38.446-8.837-63.426-15.101c-39.107-10.526-82.538-23.009-92.208-26.026c-0.788-0.246-1.373-0.437-1.691-0.552
		c-0.263-0.097-0.694-0.254-0.664-0.705c-0.089-0.454-1.21-2.155-1.582-2.719c-0.117-0.178-0.215-0.327-0.282-0.433
		c-0.628-0.985,0.379-10.177,0.398-10.255c0.033-0.132,0.114-0.457,0.963-1.055c-0.177-0.047-0.323-0.172-0.397-0.341
		c-0.078-0.18-0.063-0.387,0.039-0.554c0.64-1.04,2.329-4.063,2.464-5.553c0.087-0.954-0.468-2.83-0.914-4.337
		c-0.539-1.822-0.789-2.722-0.59-3.239c0.191-0.498,1.245-1.748,3.436-4.284c1.038-1.203,2.019-2.338,2.393-2.853
		c0.829-1.141,1.538-3.797,1.732-4.966c0.18-1.082,0.771-1.819,1.707-2.132c0.238-0.079,0.481-0.035,0.655,0.075
		c-0.106-0.956,2.521-3.293,2.637-3.396c1.416-1.251,2.613-4.359,2.625-4.391c0.06-0.156,0.182-0.28,0.337-0.342
		c0.013-0.006,0.318-0.128,0.687-0.251c0.065-0.021,0.211-0.096,0.34-0.161c0.435-0.22,1.031-0.522,1.63-0.522
		c0.128,0,0.27,0.029,0.436,0.089c-0.105-0.229-0.186-0.463-0.261-0.72c-0.011-0.001-0.022-0.001-0.035-0.001
		c-0.368,0-0.929,0.182-1.115,0.252c-0.233,0.088-0.496,0.022-0.661-0.164c-0.165-0.186-0.198-0.454-0.083-0.675l3.44-6.585
		c0.095-0.182,0.273-0.298,0.467-0.318c-0.082-0.112-0.137-0.235-0.166-0.37c-0.08-0.376,0.087-0.723,0.292-0.95l4.226-10.798
		c0.068-0.175,0.214-0.308,0.395-0.359c0.18-0.051,0.374-0.016,0.524,0.098c0.146,0.108,0.339,0.214,0.48,0.267
		c-0.006-0.413-0.429-0.649-0.481-0.676c-0.28-0.148-0.403-0.49-0.274-0.779c0,0,0.592-1.324,1.188-2.647
		c0.298-0.662,0.598-1.324,0.824-1.821c0.507-1.111,0.537-1.178,0.934-1.178c0.156,0,0.305,0.061,0.416,0.167
		c-0.248-0.843-0.354-1.845-0.074-2.963c0.563-2.248,2.146-4.219,2.666-4.821c0.056-1.493,1.464-4.637,2.915-7.75l0.309-0.664
		c0.485-1.054,0.76-2.409,0.98-3.498c0.255-1.26,0.392-1.88,0.722-2.21c0.231-0.248,0.849-1.797,1.279-3.088
		c0.082-0.245,0.311-0.41,0.569-0.41h0.665v-2.564c0-0.997,0.605-3.347,1.443-4.067c0.295-0.615,0.548-4.168,0.615-7.177
		c0.004-0.174,0.083-0.337,0.216-0.448c0.018-0.015,1.813-1.513,2.431-2.224c0.195-0.584-0.408-3.558-1.105-6.01
		c-0.079-0.278,0.052-0.573,0.311-0.702c0.259-0.128,0.574-0.053,0.747,0.18c1.354,1.813,3.071,3.827,3.834,4.408
		c0.052-0.414-0.019-1.202-0.242-1.986c-0.071-0.249,0.026-0.517,0.241-0.661c0.215-0.145,0.5-0.136,0.704,0.023
		c0.377,0.293,1.445,1.096,1.933,1.349c0.024,0.004,0.088,0.013,0.216,0.013c1.179,0,4.12-0.676,4.15-0.683
		c0.261-0.061,0.532,0.062,0.662,0.298c0.04,0.072,0.962,1.772,1.454,3.378c0.077,0.041,0.348,0.147,1.117,0.147h0.045
		c0.229-0.012,0.452,0.137,0.55,0.353l0.001,0.002c0.051,0.005,0.123,0.008,0.222,0.008c1.068,0,3.232-0.391,3.254-0.395
		c0.228-0.041,0.456,0.052,0.591,0.236c0.497,0.679,4.854,6.708,5.019,9.494c0.099,1.677-0.325,3.024-0.606,3.916
		c-0.111,0.354-0.249,0.79-0.236,0.938c0.257,0.552,0.03,1.36-0.391,2.729c-0.221,0.72-0.449,1.463-0.51,2.011
		c-0.017,0.146,0.113,0.566,0.7,1.222c1.058,1.183,2.982,2.405,4.372,2.405c0.092,0,0.181-0.006,0.265-0.017
		c0.205-0.027,0.386-0.041,0.556-0.041c1.166,0,1.473,0.667,1.698,1.153c0.214,0.464,0.399,0.865,1.442,1.11
		c0.192,0.046,0.426,0.068,0.696,0.068c2.124,0,5.748-1.365,7.695-2.1c1.162-0.438,1.386-0.516,1.596-0.516
		c0.374,0,0.849,0.257,1.804,0.79c0.56,0.313,1.327,0.742,1.636,0.806c0.012,0.002,0.061,0.01,0.186,0.01
		c0.207,0,0.498-0.021,0.834-0.046c0.475-0.034,1.067-0.077,1.684-0.077c1.527,0,2.68,0.273,3.522,0.836
		c1.31,0.872,2.4,1.279,3.123,1.548c0.314,0.117,0.563,0.21,0.769,0.313c0.615,0.307,0.741,1.221,0.874,2.188
		c0.028,0.202,0.065,0.469,0.104,0.671c0.273-0.085,0.667-0.224,0.983-0.335c1.188-0.417,2.004-0.69,2.514-0.69
		c0.848,0,1.776,1.079,2.307,1.807c1.635-0.445,6.138-1.651,7.025-1.651c1.139,0,1.793,1.515,2.236,2.874
		c0.753,0.175,3.47,0.283,5.873,0.291c0.285-0.323,0.846-0.933,1.338-1.303c0.22-0.164,0.551-0.253,1.676-0.253
		c2.078,0,5.991,0.326,8.094,0.502c0.574,0.048,1.121,0.093,1.301,0.104c0.262-0.113,1.025-0.75,1.68-1.405
		c0.189-0.189,0.48-0.23,0.715-0.101l1.271,0.706l5.204-0.305c0.169-0.014,0.338,0.054,0.459,0.175
		c1.003,1.002,2.209,1.881,2.581,1.881c0.471-0.007,2.583-1.182,4.26-2.275c0.14-0.091,0.311-0.12,0.473-0.079l43.746,10.897
		c0.254,0.021,0.484,0.199,0.547,0.452c1.006,4.107,2.012,5.41,2.326,5.734h0.197c0.418,0,0.919,0.352,3.232,2.552
		c0.257,0.244,0.521,0.496,0.582,0.544c0.335,0.27,0.462,0.556,0.259,4.986c-0.019,0.406-0.032,0.709-0.032,0.822
		c0,0.992-3.896,5.368-4.871,6.306c-0.945,0.908-1.602,2.279-2.237,3.605c-0.345,0.721-0.671,1.401-1.046,2.024
		c-0.746,1.244-2.17,2.519-3.209,3.449c-0.445,0.398-0.906,0.812-1.031,0.984c-0.151,0.208-0.031,1.079,0.032,1.547
		c0.072,0.526,0.134,0.98,0.074,1.343c-0.104,0.619-0.664,1.106-1.44,1.78c-0.487,0.424-1.041,0.904-1.547,1.482
		c-0.708,0.809-1.447,0.902-1.941,0.902l0,0c-0.101,0-0.198-0.004-0.292-0.008c-0.07-0.003-0.139-0.006-0.204-0.006
		c-0.119,0-0.156,0.013-0.162,0.015c0,0-0.031,0.037-0.07,0.155c-0.426,1.3-3.867,6.396-5.607,7.162
		c-0.629,0.277-0.67,0.647-0.693,1.333c-0.013,0.363-0.025,0.739-0.209,1.075c-0.102,0.186-0.102,0.186-0.07,0.407
		c0.033,0.24,0.082,0.604,0.023,1.258c-0.088,0.976-0.133,1.934,0.139,2.342c0.082,0.053,0.479,0.053,0.627,0.053
		c0.239,0,0.734,0,0.96,0.305c0.322,0.112,1.136,0.282,1.806,0.391c0.273,0.045,0.481,0.271,0.503,0.547
		c0.017,0.212,0.085,1.119,0.11,1.586c0.115,0.082,0.291,0.196,0.432,0.287c0.836,0.542,1.349,0.907,1.412,1.42
		c0.073,0.581-0.482,1.098-1.867,2.225c-0.232,0.188-0.514,0.417-0.631,0.529c-0.004,0.111,0.035,0.436,0.385,1.31
		c0.483,1.213-0.316,1.728-0.899,2.104c-0.103,0.066-0.212,0.137-0.325,0.215c-0.24,0.173-0.342,1.333-0.38,1.77
		c-0.071,0.817-0.118,1.356-0.674,1.469c-0.093,0.019-0.183,0.021-0.251,0.021l-0.211-0.002c-0.309,0-0.584,0.044-0.829,0.589
		c-0.325,0.864-4.171,18.21-10.544,47.576c-1.149,5.298-1.914,8.835-1.914,8.835c-0.033,0.156-0.129,0.292-0.263,0.378
		C207.548,229.587,207.436,229.619,207.322,229.619z M45.774,185.822c0.23,0.081,0.686,0.234,1.582,0.513
		c9.663,3.016,53.07,15.491,92.153,26.011c24.958,6.259,45.692,11.196,63.378,15.091c1.392,0.3,2.727,0.591,3.976,0.867
		c0.262-1.215,0.914-4.223,1.786-8.247c6.735-31.029,10.309-47.117,10.622-47.813c0.535-1.189,1.428-1.288,1.828-1.297
		c0.013-0.125,0.025-0.27,0.036-0.391c0.084-0.965,0.188-2.166,0.892-2.652c0.125-0.086,0.246-0.164,0.359-0.237
		c0.552-0.355,0.552-0.355,0.434-0.649c-0.428-1.072-0.63-1.843-0.312-2.371c0.106-0.178,0.311-0.352,0.915-0.845
		c0.359-0.291,1.039-0.845,1.332-1.169c-0.203-0.169-0.557-0.397-0.771-0.536c-0.625-0.405-0.969-0.628-0.969-1.056
		c0-0.114-0.041-0.71-0.082-1.266c-1.176-0.209-1.74-0.391-2.006-0.602c-0.027,0-0.053,0-0.073,0c-0.489,0-1.262,0-1.653-0.588
		c-0.455-0.683-0.468-1.659-0.336-3.115c0.047-0.519,0.012-0.777-0.018-0.986c-0.051-0.37-0.063-0.65,0.207-1.146
		c0.047-0.086,0.055-0.338,0.063-0.541c0.022-0.672,0.061-1.796,1.408-2.39c1.262-0.556,4.58-5.306,4.951-6.438
		c0.328-0.996,1.115-0.996,1.373-0.996c0.082,0,0.166,0.004,0.255,0.007c0.364,0.016,0.774,0.093,1.279-0.485
		c0.561-0.641,1.173-1.172,1.664-1.599c0.425-0.369,1.007-0.874,1.043-1.071c0.03-0.183-0.028-0.607-0.079-0.982
		c-0.123-0.894-0.25-1.816,0.186-2.415c0.201-0.276,0.621-0.652,1.201-1.173c0.982-0.88,2.328-2.084,2.981-3.173
		c0.345-0.575,0.659-1.231,0.992-1.926c0.682-1.423,1.386-2.894,2.487-3.951c1.522-1.465,4.234-4.843,4.504-5.509
		c0.003-0.152,0.016-0.426,0.033-0.81c0.04-0.88,0.158-3.465,0.058-4.109c-0.108-0.099-0.272-0.254-0.526-0.497
		c-0.575-0.546-2.064-1.962-2.508-2.221h-0.308c-0.103,0-0.209-0.026-0.298-0.076c-0.26-0.144-1.593-1.111-2.891-6.205
		l-43.256-10.775c-1.083,0.696-3.723,2.326-4.695,2.326c-1,0-2.553-1.383-3.235-2.042l-5.112,0.3
		c-0.115,0.009-0.227-0.019-0.326-0.074l-1.032-0.573c-1.503,1.441-1.989,1.441-2.157,1.441c-0.117,0-0.449-0.027-1.447-0.11
		c-2.085-0.174-5.965-0.497-7.994-0.497c-0.67,0-0.926,0.036-1.009,0.054c-0.56,0.44-1.262,1.278-1.269,1.287
		c-0.114,0.136-0.283,0.215-0.461,0.215c-6.917,0-7.074-0.469-7.213-0.884l-0.046-0.142c-0.679-2.115-1.121-2.14-1.126-2.14
		c-0.632,0-4.7,1.056-7.115,1.721c-0.25,0.068-0.516-0.03-0.658-0.246c-0.546-0.815-1.292-1.593-1.566-1.631
		c-0.335,0.001-1.402,0.376-2.109,0.624c-0.925,0.324-1.383,0.481-1.679,0.481c-0.748,0-0.862-0.828-0.994-1.787
		c-0.053-0.388-0.151-1.097-0.274-1.304c-0.149-0.069-0.359-0.147-0.598-0.236c-0.774-0.289-1.943-0.725-3.37-1.675
		c-0.639-0.427-1.573-0.634-2.856-0.634c-0.573,0-1.117,0.039-1.597,0.074c-0.608,0.044-1.063,0.071-1.344,0.015
		c-0.494-0.1-1.218-0.505-1.985-0.934c-0.397-0.222-0.981-0.549-1.213-0.627c-0.199,0.059-0.696,0.246-1.179,0.428
		c-2.019,0.761-5.776,2.177-8.118,2.177c-0.363,0-0.689-0.034-0.971-0.101c-1.612-0.379-2-1.22-2.257-1.775
		c-0.187-0.404-0.21-0.456-0.608-0.456c-0.114,0-0.248,0.01-0.397,0.03c-0.136,0.018-0.278,0.026-0.423,0.026
		c-1.81,0-4.019-1.41-5.266-2.804c-0.502-0.562-1.083-1.392-0.999-2.155c0.074-0.66,0.319-1.458,0.556-2.23
		c0.198-0.644,0.496-1.613,0.442-1.885c-0.226-0.478-0.052-1.029,0.187-1.788c0.27-0.856,0.638-2.029,0.553-3.486
		c-0.116-1.955-3.156-6.576-4.572-8.555c-0.696,0.116-2.195,0.349-3.094,0.349c-0.451,0-0.728-0.057-0.927-0.189
		c-0.074-0.049-0.136-0.109-0.19-0.178c-0.796-0.027-1.725-0.189-1.949-0.939c-0.319-1.063-0.87-2.217-1.169-2.809
		c-0.909,0.197-2.941,0.612-3.965,0.612c-0.327,0-0.552-0.039-0.729-0.127c-0.247-0.124-0.586-0.344-0.923-0.578
		c0.055,0.708-0.015,1.461-0.441,1.889c-0.147,0.147-0.346,0.228-0.56,0.228c-0.441,0-1.351-0.538-3.225-2.782
		c0.435,1.96,0.651,3.747,0.18,4.304c-0.537,0.632-1.875,1.782-2.395,2.224c-0.174,7.15-0.813,7.629-1.025,7.788
		c-0.393,0.295-1.026,2.243-1.026,3.158v3.164c0,0.332-0.269,0.601-0.6,0.601h-0.835c-0.353,1.02-0.979,2.695-1.429,3.146
		c-0.102,0.153-0.264,0.955-0.395,1.6c-0.232,1.15-0.522,2.582-1.066,3.763l-0.311,0.668c-0.875,1.879-2.926,6.278-2.801,7.398
		c0.019,0.173-0.038,0.347-0.157,0.475c-0.019,0.021-1.96,2.138-2.546,4.483c-0.472,1.887,0.462,3.399,0.965,4.212
		c0.108,0.175,0.193,0.313,0.255,0.437c0.17,0.339,0.049,0.601-0.01,0.697c-0.124,0.201-0.34,0.316-0.592,0.316
		c-0.493,0-1.479-0.57-2.111-1.162c-0.455,1.002-1.127,2.498-1.662,3.692c0.401,0.364,0.764,0.949,0.635,1.726
		c-0.095,0.569-0.49,0.923-1.032,0.923c-0.23,0-0.468-0.068-0.678-0.158l-4.019,10.271c-0.019,0.047-0.043,0.093-0.073,0.134
		c0.046,0.018,0.103,0.038,0.174,0.058c0.789,0.226,1.602,0.545,1.643,1.207c0.008,0.131-0.008,0.574-0.564,0.812
		c-0.14,0.061-0.304,0.088-0.515,0.088c-0.435,0-1.058-0.13-1.487-0.234l-2.613,5c0.064-0.005,0.127-0.008,0.189-0.008
		c0.858,0,1.09,0.513,1.15,0.732c0.155,0.571,0.296,0.915,0.719,1.443c0.239,0.298,0.488,0.403,0.832,0.55
		c0.163,0.068,0.347,0.146,0.534,0.25c0.515,0.286,1.051,0.809,1.087,1.332c0.019,0.272-0.093,0.521-0.306,0.681
		c-0.114,0.086-0.252,0.131-0.398,0.131c-0.328,0-0.671-0.198-1.879-0.98c-0.601-0.39-1.602-1.036-1.9-1.106
		c-0.311,0.011-0.746,0.23-1.065,0.393c-0.19,0.097-0.354,0.18-0.503,0.229c-0.143,0.048-0.276,0.096-0.382,0.135
		c-0.327,0.798-1.402,3.251-2.746,4.514c0.211-0.095,0.474-0.146,0.774-0.146c0.901,0,1.221,0.463,1.221,0.859
		c0,0.376-0.25,0.66-0.514,0.961c-0.076,0.086-0.189,0.215-0.254,0.308l0.156,0.272c0.032,0.056,0.055,0.117,0.067,0.181
		c0.27,1.345,0.087,2.117-0.543,2.297c-0.064,0.019-0.132,0.027-0.199,0.027c-0.638,0-0.882-0.679-1.165-1.465
		c-0.029-0.082-0.064-0.179-0.099-0.272c-0.552,0.327-1.486,0.987-1.786,1.295c0.014,0.071,0.036,0.168,0.053,0.24
		c0.099,0.433,0.201,0.88-0.074,1.225c-0.141,0.176-0.356,0.277-0.59,0.277c-0.655,0-0.815-0.682-1.017-1.545
		c-0.046-0.198-0.113-0.482-0.178-0.696c-0.239,0.163-0.472,0.458-0.566,1.028c-0.198,1.185-0.934,4.082-1.946,5.475
		c-0.404,0.555-1.4,1.709-2.455,2.931c-1.191,1.379-2.979,3.45-3.214,3.912c-0.025,0.334,0.342,1.575,0.611,2.486
		c0.5,1.689,1.066,3.604,0.958,4.786c-0.141,1.551-1.489,4.087-2.203,5.336l0.655,0.131c0.249,0.05,0.439,0.25,0.476,0.501
		c0.037,0.251-0.088,0.498-0.312,0.617c-0.767,0.408-1.548,0.929-1.726,1.146c-0.155,0.915-0.77,8.339-0.516,9.313
		c0.063,0.099,0.148,0.227,0.246,0.376C45.102,184.42,45.603,185.276,45.774,185.822z M45.845,186.185
		c0.002,0.047,0,0.091-0.004,0.133C45.849,186.271,45.85,186.228,45.845,186.185z M55.038,144.034
		c0.044,0.09,0.083,0.186,0.12,0.289c0.095-0.094,0.201-0.188,0.313-0.283c-0.092,0.027-0.161,0.042-0.2,0.042
		C55.19,144.082,55.111,144.065,55.038,144.034z M58.131,142.689c0.033,0.013,0.063,0.028,0.093,0.046
		c0.016-0.057,0.037-0.112,0.061-0.166C58.236,142.609,58.185,142.649,58.131,142.689z M57.714,141.436
		c-0.105,0.1-0.207,0.198-0.305,0.296c0.116-0.076,0.208-0.145,0.266-0.199C57.687,141.499,57.699,141.467,57.714,141.436z
		 M73.614,107.992c0.031,0.067,0.095,0.147,0.179,0.233c-0.051-0.115-0.102-0.234-0.149-0.358
		C73.637,107.914,73.625,107.956,73.614,107.992z"/>
</g>
</svg>
