<?xml version="1.0" encoding="iso-8859-1"?>
<!-- Generator: Adobe Illustrator 15.1.0, SVG Export Plug-In . SVG Version: 6.00 Build 0)  -->
<!DOCTYPE svg PUBLIC "-//W3C//DTD SVG 1.1//EN" "http://www.w3.org/Graphics/SVG/1.1/DTD/svg11.dtd">
<svg version="1.1" id="Layer_1" xmlns="http://www.w3.org/2000/svg" xmlns:xlink="http://www.w3.org/1999/xlink" x="0px" y="0px"
	 width="288px" height="288px" viewBox="0 0 288 288" style="enable-background:new 0 0 288 288;" xml:space="preserve">
<g>
	<path d="M51.331,215.633c-0.124,0-0.246-0.038-0.349-0.111c-0.13-0.093-0.218-0.234-0.243-0.392l-6.969-42.714l-10.724-63.085
		c-0.039-0.23,0.06-0.463,0.252-0.595c0.098-0.067,9.747-6.691,12.822-9.037c3.058-2.342,11.098-9.664,11.179-9.737
		c0.157-0.145,0.38-0.193,0.584-0.129c0.203,0.063,0.357,0.231,0.405,0.439l2.731,12.063l150.983-29.912
		c0.19-0.038,0.387,0.019,0.528,0.151c0.425,0.4,4.171,3.964,4.914,5.944c0.062,0.165,0.093,0.165,0.162,0.165
		c0.24,0,0.655-0.175,1.058-0.345c0.609-0.256,1.3-0.547,2.013-0.547c0.793,0,1.446,0.359,1.941,1.068l1.67,2.385
		c0.013,0.018,0.023,0.036,0.034,0.055c1.006,1.83,2.693,5.013,2.693,5.769v3.726c1.074,0.734,2.856,2.318,3.56,2.953
		c0.311-0.12,0.769-0.252,1.286-0.252c0.729,0,1.382,0.269,1.888,0.775c0.1,0.099,0.555,0.424,2.228,0.424
		c1.733,0,3.679-0.349,3.698-0.353c0.248-0.044,0.496,0.068,0.623,0.285c0.153,0.259,1.491,2.562,1.491,3.88
		c0,1.235-0.239,1.516-1.151,2.391c-0.128,0.123-0.272,0.261-0.436,0.421c-0.119,0.118-0.223,0.217-0.313,0.304
		c-0.48,0.46-0.48,0.46-0.729,1.429c-0.107,0.421-0.255,0.998-0.488,1.816c-0.344,1.201-0.526,2.26-0.688,3.194
		c-0.298,1.724-0.513,2.969-1.577,3.396c-0.302,0.12-0.592,0.128-0.827,0.051c-0.002,0.008-0.004,0.016-0.007,0.023
		c-0.188,0.69-0.341,1.373-0.489,2.032c-0.476,2.121-0.819,3.654-1.995,3.654c-0.34,0.077-1.363,1.241-2.288,2.598l4.558,3.475
		c0.172,0.131,0.26,0.344,0.23,0.559c-0.029,0.214-0.171,0.396-0.372,0.476c-0.036,0.015-0.995,0.425-1.591,1.615
		c-0.232,0.465-0.088,1.037,0.04,1.542c0.133,0.521,0.27,1.06-0.063,1.486c-0.208,0.268-0.542,0.403-0.993,0.403
		c-0.41,0-0.876,0-0.979,0.063c-0.025,0.041-0.087,0.239-0.087,1.004c0,2.421,0.552,6.839,1.151,7.497
		c0.243-0.027,0.535-0.16,0.842-0.301c0.448-0.204,0.956-0.437,1.528-0.437c0.673,0,1.266,0.312,1.814,0.952
		c0.725,0.847,1.211,1.928,1.682,2.974c0.492,1.096,0.958,2.13,1.606,2.677c0.677,0.574,0.926,0.618,1.188,0.666
		c0.277,0.05,0.623,0.111,1.147,0.507c0.461,0.344,0.892,0.891,1.309,1.42c0.437,0.556,0.981,1.247,1.334,1.335
		c1,0.249,3.164,2.156,3.759,2.693c0.592,0.257,3.067,1.412,3.575,2.942c0.123,0.366,0.282,0.57,0.424,0.75
		c0.639,0.816,0.426,1.328-0.537,2.452c-0.417,0.484-0.753,1.023-1.078,1.545c-0.759,1.217-1.543,2.476-3.188,2.476
		c-0.479,0-0.815-0.089-1.063-0.212c-0.004,0.006-0.007,0.012-0.011,0.018c-0.166,0.287-0.418,0.722-0.798,1.339
		c-0.489,0.795-0.854,1.436-1.146,1.95c-0.873,1.532-1.234,2.167-2.511,2.594c-0.366,0.122-0.59,0.346-0.666,0.666
		c-0.117,0.499,0.143,1.157,0.661,1.678c0.56,0.561,0.787,1.112,0.679,1.641c-0.129,0.623-0.674,0.915-0.839,0.99l-9.569,5.171
		c-0.095,0.052-0.205,0.076-0.31,0.071c-0.02-0.001-1.921-0.079-4.106-0.079c-1.28,0-2.405,0.026-3.343,0.079
		c-2.29,0.127-4.143,4.638-4.663,6.365c-0.064,0.213-0.24,0.373-0.458,0.416L88.98,209.188l-37.548,6.436
		C51.398,215.63,51.364,215.633,51.331,215.633z M34.294,109.508l10.66,62.711l6.872,42.121l36.937-6.332l130.617-25.843
		c0.5-1.517,2.438-6.693,5.636-6.871c0.959-0.054,2.106-0.081,3.409-0.081c1.837,0,3.477,0.055,3.99,0.074l9.446-5.104
		c0.021-0.011,0.041-0.021,0.063-0.029c0.056-0.025,0.143-0.096,0.149-0.137c0.009-0.046-0.037-0.234-0.352-0.55
		c-0.818-0.82-1.194-1.894-0.979-2.802c0.172-0.729,0.688-1.272,1.452-1.528c0.816-0.272,1.001-0.562,1.849-2.049
		c0.297-0.522,0.667-1.173,1.167-1.985c0.372-0.604,0.618-1.029,0.782-1.312c0.339-0.586,0.493-0.854,0.907-0.854
		c0.284,0,0.454,0.173,0.535,0.256c0.076,0.077,0.19,0.193,0.67,0.193c0.934,0,1.409-0.69,2.169-1.91
		c0.333-0.533,0.71-1.138,1.186-1.692c0.427-0.497,0.559-0.714,0.598-0.806c-0.025-0.036-0.064-0.085-0.095-0.125
		c-0.17-0.218-0.428-0.546-0.616-1.109c-0.283-0.852-1.987-1.835-2.996-2.256c-0.063-0.026-0.122-0.064-0.173-0.11
		c-1.042-0.948-2.76-2.347-3.317-2.484c-0.751-0.188-1.352-0.95-1.987-1.758c-0.368-0.468-0.749-0.951-1.085-1.202
		c-0.298-0.225-0.427-0.248-0.639-0.286c-0.455-0.081-0.9-0.207-1.753-0.931c-0.856-0.722-1.375-1.877-1.926-3.101
		c-0.436-0.969-0.887-1.97-1.499-2.686c-0.408-0.478-0.71-0.532-0.902-0.532c-0.311,0-0.66,0.159-1.029,0.328
		c-0.445,0.203-0.906,0.414-1.427,0.414c-0.918,0-1.461-1.141-1.872-3.938c-0.271-1.84-0.393-3.894-0.393-4.765
		c0-2.075,0.583-2.266,2.25-2.267c-0.021-0.117-0.06-0.271-0.092-0.395c-0.161-0.637-0.383-1.509,0.049-2.373
		c0.402-0.804,0.939-1.345,1.385-1.688l-4.31-3.286c-0.249-0.189-0.311-0.539-0.141-0.802c0.858-1.335,2.457-3.567,3.571-3.608
		c0.297-0.226,0.619-1.663,0.855-2.718c0.145-0.642,0.308-1.368,0.503-2.084c0.392-1.441,0.442-1.626,0.944-1.626
		c0.229,0,0.524,0.105,0.636,0.611c0.006,0.025,0.016,0.067,0.026,0.109c0.397-0.244,0.567-1.227,0.779-2.455
		c0.158-0.917,0.354-2.057,0.717-3.319c0.228-0.803,0.373-1.37,0.479-1.784c0.311-1.21,0.351-1.317,1.061-1.998
		c0.088-0.084,0.188-0.18,0.303-0.293c0.166-0.164,0.314-0.306,0.445-0.431c0.782-0.751,0.782-0.751,0.782-1.525
		c0-0.656-0.623-2.007-1.122-2.914c-0.693,0.107-2.131,0.302-3.49,0.302c-1.547,0-2.554-0.254-3.076-0.775
		c-0.284-0.285-0.624-0.424-1.039-0.424c-0.588,0-1.095,0.279-1.1,0.282c-0.227,0.13-0.511,0.098-0.703-0.079
		c-0.027-0.025-2.827-2.588-3.951-3.264c-0.181-0.108-0.291-0.304-0.291-0.515v-4.052c-0.058-0.441-1.355-3.023-2.53-5.162
		l-1.651-2.357c-0.345-0.493-0.693-0.557-0.958-0.557c-0.471,0-1.018,0.23-1.547,0.453c-0.535,0.226-1.041,0.438-1.523,0.438
		c-0.601,0-1.058-0.335-1.286-0.943c-0.513-1.367-3.159-4.095-4.391-5.28L60.681,103.625c-0.316,0.065-0.63-0.139-0.701-0.456
		l-2.634-11.628c-2.1,1.901-7.925,7.143-10.496,9.111C44.069,102.774,35.996,108.338,34.294,109.508z"/>
</g>
</svg>
