<?xml version="1.0" encoding="iso-8859-1"?>
<!-- Generator: Adobe Illustrator 15.1.0, SVG Export Plug-In . SVG Version: 6.00 Build 0)  -->
<!DOCTYPE svg PUBLIC "-//W3C//DTD SVG 1.1//EN" "http://www.w3.org/Graphics/SVG/1.1/DTD/svg11.dtd">
<svg version="1.1" id="Layer_1" xmlns="http://www.w3.org/2000/svg" xmlns:xlink="http://www.w3.org/1999/xlink" x="0px" y="0px"
	 width="288px" height="288px" viewBox="0 0 288 288" style="enable-background:new 0 0 288 288;" xml:space="preserve">
<g>
	<g>
		<path d="M207.924,159.712C207.923,159.712,207.923,159.712,207.924,159.712c-0.573-0.001-1.077-0.12-1.5-0.355
			c-2.095-1.191-4.417-6.089-6.907-14.56l-0.065-0.223c-0.449-1.597-0.284-7.304-0.139-12.339c0.059-2.039,0.114-3.966,0.114-5.245
			c0-0.063-0.046-0.168-0.095-0.279c-0.055-0.123-0.115-0.263-0.154-0.427c-0.002-0.01-0.005-0.02-0.007-0.029
			c-0.32-1.737-1.61-3.108-2.858-4.434c-1.225-1.301-2.381-2.529-2.381-3.983c0-0.85,0.902-3.771,2.497-8.859
			c0.329-1.051,0.673-2.149,1.02-3.267c0.049-0.155,0.158-0.285,0.305-0.358s0.316-0.083,0.47-0.028
			c0.584,0.207,1.153,0.407,1.706,0.602c4.859,1.707,7.422,2.662,7.981,4.046c0.703,1.751,4.868,13.604,8.166,24.106
			c5.015,16.038,4.326,17.127,3.995,17.65C218.642,153.979,211.862,159.712,207.924,159.712z M200.348,126.018
			c0.016,0.058,0.048,0.132,0.083,0.211c0.087,0.199,0.196,0.447,0.196,0.762c0,1.297-0.057,3.231-0.115,5.28
			c-0.129,4.456-0.305,10.559,0.093,11.972l0.063,0.217c3.146,10.702,5.325,13.272,6.345,13.853c0.237,0.132,0.545,0.199,0.91,0.2
			c3.367,0,9.814-5.345,11.135-7.425c0.187-0.418,0.172-2.904-4.127-16.649c-3.288-10.475-7.435-22.277-8.134-24.017
			c-0.382-0.944-3.726-2.119-7.267-3.362c-0.366-0.129-0.74-0.26-1.121-0.395c-0.283,0.912-0.564,1.809-0.836,2.674
			c-1.255,4.007-2.441,7.792-2.441,8.5c0,0.979,0.952,1.989,2.055,3.161C198.485,122.379,199.957,123.942,200.348,126.018z"/>
	</g>
	<g>
		<path d="M183.021,174.435c-1.248,0-2.474-0.655-3.642-1.948c-1.646-1.817-0.023-5.354,1.546-8.773
			c0.914-1.992,1.86-4.053,1.935-5.377c0.113-1.855-0.474-2.245-1.447-2.892c-0.701-0.466-1.575-1.046-2.254-2.281
			c-0.895-1.588-0.638-3.052-0.313-4.905c0.301-1.716,0.675-3.853,0.35-7.001c-0.656-6.378,0.935-10.982,2.643-13.165
			c0.127-0.158,0.274-0.346,0.442-0.561c1.635-2.082,5.036-6.416,7.553-7.031c0.142-0.035,0.29-0.018,0.418,0.05l2.378,1.228
			c0.114,0.06,0.207,0.154,0.264,0.271c1.111,2.273,1.265,6.581,1.265,10.896c-0.022,4.97,0.724,8.971,1.382,12.501
			c0.148,0.797,0.29,1.559,0.415,2.287c0.208,1.183,0.78,2.848,1.333,4.458c1.328,3.867,2.073,6.302,1.22,7.504
			c-0.203,0.287-0.597,0.629-1.314,0.633c-1.398,0-2.515-0.771-3.411-1.389c-0.616-0.425-1.197-0.826-1.648-0.826
			c-0.128,0-0.517,0-1.086,0.82c-0.948,1.384-0.896,2.71-0.835,4.246c0.056,1.43,0.12,3.05-0.725,4.811
			C188.145,170.925,185.927,174.435,183.021,174.435z M189.915,121.726c-2.12,0.726-5.305,4.782-6.689,6.547
			c-0.172,0.218-0.321,0.408-0.446,0.564c-1.487,1.901-3.01,6.268-2.389,12.297c0.342,3.314-0.049,5.542-0.362,7.331
			c-0.306,1.743-0.508,2.895,0.18,4.114c0.54,0.983,1.216,1.432,1.869,1.865c1.05,0.697,2.137,1.419,1.981,3.962
			c-0.088,1.549-1.037,3.617-2.042,5.808c-1.342,2.923-2.862,6.236-1.747,7.467c0.932,1.031,1.857,1.554,2.752,1.554
			c2.389,0,4.396-3.605,5.381-5.754c0.72-1.502,0.667-2.839,0.611-4.255c-0.063-1.602-0.128-3.259,1.046-4.974
			c0.626-0.902,1.304-1.34,2.074-1.34c0.825,0,1.556,0.504,2.329,1.038c0.839,0.578,1.705,1.177,2.728,1.177
			c0.25-0.001,0.31-0.086,0.339-0.127c0.559-0.787-0.56-4.043-1.376-6.42c-0.594-1.73-1.155-3.364-1.381-4.643
			c-0.124-0.727-0.265-1.481-0.412-2.272c-0.635-3.405-1.426-7.643-1.402-12.723c0-4.054-0.131-8.084-1.062-10.192L189.915,121.726z
			"/>
	</g>
	<g>
		<path d="M172.543,170.416c-0.079,0-0.16-0.012-0.235-0.037c-0.409-0.13-0.769-0.244-2.165-6.537
			c-0.625-2.817-1.178-5.645-1.231-5.921c-0.333-1.232-2.865-11.105,1.121-12.513c0.113-0.04,0.237-0.045,0.354-0.014
			c2.392,0.632,3.555,4.29,4.036,6.415c0.28,1.155,0.984,2.714,1.665,4.22c1.122,2.48,2.09,4.622,1.769,5.912
			c-0.236,1.015-1.324,3.162-2.297,4.836C173.46,170.389,172.861,170.416,172.543,170.416z M170.261,146.614
			c-2.025,1.054-1.209,7.248-0.186,11.014c0.004,0.015,0.007,0.028,0.01,0.043c0.9,4.643,2.038,9.718,2.605,11.273
			c1.067-1.257,3.638-5.735,3.998-7.284c0.224-0.895-0.796-3.148-1.694-5.136c-0.704-1.558-1.433-3.167-1.741-4.441
			C172.579,149.105,171.472,147.092,170.261,146.614z"/>
	</g>
	<g>
		<path d="M175.062,133.808L175.062,133.808c-1.999,0-3.564-1.152-4.295-3.161c-0.247-0.677-0.46-1.411-0.666-2.121
			c-0.485-1.672-1.036-3.567-1.837-3.688c-0.855-0.116-1.356-0.811-1.299-1.811c0.068-1.166,0.971-2.808,2.288-2.833l0.146-0.001
			c3.082,0,4.738,1.887,5.947,3.265c0.264,0.3,0.513,0.584,0.749,0.817c1.089,1.1,3.381,4.882,2.899,7.241
			c-0.171,0.833-0.665,1.439-1.431,1.752C176.698,133.626,175.855,133.808,175.062,133.808z M169.398,121.393l-0.123,0.001
			c-0.465,0.009-1.067,0.932-1.112,1.702c-0.029,0.513,0.181,0.541,0.271,0.554c1.568,0.236,2.176,2.327,2.818,4.542
			c0.2,0.69,0.407,1.405,0.641,2.045c0.557,1.529,1.682,2.371,3.168,2.371l0,0c0.636,0,1.324-0.151,2.046-0.449
			c0.396-0.162,0.62-0.442,0.711-0.883c0.348-1.702-1.485-5.055-2.572-6.152c-0.262-0.259-0.524-0.558-0.802-0.875
			C173.269,122.909,171.938,121.393,169.398,121.393z"/>
	</g>
	<g>
		<path d="M111.892,222.703c-4.153,0-7.263-4.063-7.394-4.237c-0.007-0.009-0.014-0.019-0.02-0.028l-9.154-13.732
			c-0.136-0.203-0.135-0.469,0.003-0.671l6.712-9.843L67.105,58.139c-0.079-0.31,0.098-0.626,0.402-0.722l74.021-23.156
			c0.161-0.05,0.338-0.029,0.483,0.056c0.146,0.087,0.249,0.23,0.283,0.396l6.313,30.649h8.982c0.303,0,0.559,0.227,0.596,0.527
			c1.259,10.3,7.607,15.778,14.329,21.578c2.781,2.4,5.657,4.882,8.133,7.729c2.349,2.694,5.765,5.06,10.443,7.229
			c0.295,0.137,0.428,0.485,0.297,0.784c-4.344,9.975-5.906,13.081-7.216,13.081c-1.911,0-3.879-0.854-5.16-2.228
			c-1.145-1.229-1.687-2.788-1.565-4.51c0.216-2.986-0.839-8.893-2.738-10.934c-0.478-0.514-0.954-0.726-1.447-0.637
			c-0.933,0.167-1.272,1.19-1.721,2.854c-0.523,1.945-1.176,4.367-4.028,4.367c-0.473,0-0.998-0.07-1.563-0.21
			c-3.075-0.763-6.31-3.476-8.908-5.655c-1.847-1.55-3.757-3.151-4.651-3.151c-0.124,0-0.235,0.019-0.356,0.257
			c-0.304,0.607,0.449,2.387,5.77,7.4c0.964,0.896,1.959,1.798,2.921,2.668c3.24,2.933,5.254,4.786,5.789,5.878
			c0.248,0.494,0.241,1.003-0.02,1.427c-0.605,0.98-2.667,1.479-6.125,1.479l0,0c-2.267,0-4.763-0.237-5.683-0.539
			c-0.071-0.023-0.149-0.035-0.233-0.035c-1.338,0-3.556,2.996-3.556,6.188c-0.016,1.732,3.351,5.313,6.055,8.19
			c3.252,3.46,5.084,5.482,4.931,6.817c-0.135,1.108-0.863,2.588-1.707,4.302c-1.131,2.294-2.537,5.148-2.879,7.917
			c-0.56,4.525,7.545,18.457,8.752,20.001c0.678,0.882,0.639,5.614,0.283,16.599c-0.097,2.994-0.188,5.822-0.188,7.575
			c0,0.54,0.009,1.033,0.016,1.479c0.031,1.92,0.05,3.078-0.649,3.789c-0.53,0.539-1.312,0.602-1.854,0.602
			c-1.235,0-3.144-0.384-6.153-1.008c-1.262-0.26-2.424-0.387-3.554-0.387c-3.886,0-6.598,1.56-9.469,3.211
			c-1.623,0.934-3.301,1.898-5.275,2.646c-3.204,1.216-8.841,6.258-13.814,10.707c-5.111,4.573-9.526,8.523-11.876,9.139
			C112.987,222.631,112.439,222.703,111.892,222.703z M105.466,217.756c0.182,0.233,2.977,3.747,6.426,3.747
			c0.442,0,0.885-0.059,1.315-0.174c2.073-0.543,6.807-4.777,11.384-8.872c5.298-4.74,10.776-9.641,14.189-10.936
			c1.885-0.713,3.521-1.653,5.102-2.563c3.014-1.733,5.861-3.371,10.067-3.371c1.212,0,2.454,0.135,3.797,0.412
			c2.936,0.609,4.792,0.982,5.91,0.982c0.511,0,0.838-0.08,0.998-0.243c0.347-0.353,0.329-1.433,0.306-2.928
			c-0.008-0.453-0.016-0.952-0.016-1.499c0-1.771,0.092-4.609,0.188-7.614c0.19-5.901,0.479-14.813-0.043-15.839
			c-1.015-1.328-9.626-15.679-8.984-20.869c0.367-2.969,1.823-5.925,2.993-8.3c0.796-1.615,1.483-3.01,1.593-3.913
			c0.097-0.843-2.626-3.739-4.613-5.854c-3.146-3.348-6.4-6.809-6.381-9.019c0-3.585,2.444-7.382,4.756-7.382
			c0.208,0,0.412,0.031,0.605,0.094c0.707,0.232,3.008,0.48,5.311,0.48c3.586,0,4.896-0.571,5.104-0.909
			c0.019-0.03,0.054-0.087-0.035-0.263c-0.463-0.946-3.032-3.271-5.519-5.521c-0.965-0.873-1.963-1.776-2.936-2.682
			c-5.103-4.809-6.79-7.279-6.021-8.816c0.3-0.593,0.807-0.917,1.428-0.917c1.331,0,3.137,1.515,5.423,3.433
			c2.504,2.1,5.62,4.714,8.426,5.409c0.469,0.116,0.897,0.175,1.273,0.175c1.804,0,2.287-1.314,2.87-3.479
			c0.431-1.599,0.918-3.41,2.666-3.724c0.902-0.163,1.774,0.179,2.539,1c2.216,2.382,3.29,8.601,3.057,11.837
			c-0.098,1.38,0.334,2.627,1.246,3.605c1.038,1.113,2.692,1.836,4.225,1.846c1.008-0.57,4.004-7.381,5.94-11.826
			c-4.564-2.175-7.941-4.561-10.312-7.281c-2.421-2.781-5.263-5.234-8.013-7.606c-6.489-5.601-13.196-11.389-14.667-21.814h-8.944
			c-0.285,0-0.53-0.2-0.588-0.479l-6.277-30.479L68.409,58.392l34.86,135.764c0.042,0.167,0.012,0.345-0.086,0.487l-6.637,9.733
			L105.466,217.756z"/>
	</g>
	<g>
		<path d="M154.202,252.793L154.202,252.793c-1.413,0-2.778-1.097-3.478-2.794c-0.768-1.858-0.493-3.824,0.697-5.009
			c1.338-1.336,3.084-2.305,4.359-3.012c0.386-0.214,0.825-0.458,1.155-0.666c-1.146-0.082-3.258-0.354-3.258-3.521l-0.01-0.826
			c-0.037-3.151-0.072-6.127,1.069-7.282c0.462-0.468,1.096-0.616,1.799-0.414c0.559,0.12,7.712,1.743,8.709,6.243
			c0.86,4.154,0.722,13.504-1.482,14.983c-1.055,0.688-2.457,0.854-3.94,1.031c-1.451,0.172-2.952,0.35-4.385,0.991
			C155.037,252.7,154.62,252.793,154.202,252.793z M158.586,240.937c0.122,0.791-0.763,1.282-2.223,2.092
			c-1.281,0.71-2.875,1.594-4.095,2.813c-1.027,1.021-0.876,2.632-0.436,3.701c0.515,1.245,1.443,2.051,2.368,2.051
			c0.001,0,0.001,0,0.001,0c0.246,0,0.496-0.057,0.743-0.169c1.603-0.718,3.268-0.915,4.736-1.09
			c1.398-0.165,2.606-0.309,3.42-0.839c1.342-0.902,1.927-9.118,0.971-13.732c-0.848-3.827-7.736-5.311-7.806-5.324
			c-0.017-0.004-0.033-0.008-0.049-0.013c-0.281-0.084-0.464-0.064-0.626,0.101c-0.789,0.798-0.752,3.917-0.723,6.424l0.01,0.836
			c0,2.185,1.159,2.264,2.28,2.339C157.723,240.163,158.493,240.215,158.586,240.937z"/>
	</g>
</g>
</svg>
