<?xml version="1.0" encoding="iso-8859-1"?>
<!-- Generator: Adobe Illustrator 15.1.0, SVG Export Plug-In . SVG Version: 6.00 Build 0)  -->
<!DOCTYPE svg PUBLIC "-//W3C//DTD SVG 1.1//EN" "http://www.w3.org/Graphics/SVG/1.1/DTD/svg11.dtd">
<svg version="1.1" id="Layer_1" xmlns="http://www.w3.org/2000/svg" xmlns:xlink="http://www.w3.org/1999/xlink" x="0px" y="0px"
	 width="288px" height="288px" viewBox="0 0 288 288" style="enable-background:new 0 0 288 288;" xml:space="preserve">
<g>
	<path d="M244.206,212.86c-0.003-0.001-0.004-0.001-0.006,0c-0.076,0-0.153-0.015-0.227-0.045c-1.085-0.442-2.346-0.624-2.884-0.702
		c-1.142-0.164-2.479-1.708-2.735-2.017l-0.696-0.833c-0.573-0.688-0.288-1.429-0.099-1.92c0.182-0.472,0.199-0.601,0.099-0.721
		c-0.032-0.038-0.129-0.154-0.466-0.154c-0.458,0-1.015,0.223-1.19,0.309c-0.175,0.086-0.381,0.081-0.552-0.013
		s-0.286-0.264-0.309-0.458c-0.055-0.479-2.096-1.237-4.2-1.559c-0.324-0.05-0.55-0.353-0.503-0.678
		c0.019-0.131-0.006-0.162-0.017-0.176c-0.301-0.395-2.468-0.666-3.633-0.812c-2.106-0.264-2.585-1.449-2.969-2.401
		c-0.314-0.781-0.523-1.297-1.521-1.497c-0.78-0.155-2.321-0.234-4.581-0.234c-2.524,0-5.471,0.098-7.622,0.17
		c-1.285,0.043-2.3,0.076-2.824,0.076c-0.754,0-0.995,0.375-1.426,1.154c-0.361,0.655-0.813,1.471-1.834,1.863
		c-0.419,0.161-0.81,0.24-1.192,0.24c-1.245,0-2.034-0.829-2.798-1.63c-0.131-0.138-0.264-0.277-0.4-0.414
		c-0.675-0.675-4.105-2.145-6.154-3.022c-1.157-0.496-1.994-0.854-2.335-1.05c-0.901-0.516-1.3-1.895-1.461-2.696
		c-0.665,0.002-1.334,0.003-2.011,0.003c-48.735,0-124.721-6.523-146.849-8.523c-0.159-0.014-0.306-0.091-0.407-0.213
		c-0.102-0.123-0.151-0.28-0.137-0.439l6.73-73.816l2.965-34.441c0.014-0.16,0.091-0.308,0.213-0.41
		c0.123-0.103,0.281-0.15,0.441-0.137c10.757,1.021,40.545,3.61,84.703,5.612c58.238,2.643,106.842,3.673,107.326,3.683
		c0.327,0.007,0.588,0.273,0.588,0.6c0,2.799-1.569,7.596-4.029,8.742c-1.58,0.738-2.564,1.96-3.216,2.768
		c-0.143,0.177-0.268,0.332-0.379,0.458c0.037,0.399,1.039,1.47,1.474,1.934c0.22,0.234,0.427,0.456,0.589,0.647
		c0.501,0.593,0.927,1.576,1.34,2.526c0.264,0.609,0.514,1.185,0.717,1.49c0.094,0.14,0.636,0.644,3.701,1.256l0.086,0.018
		c0.45,0.09,1.259,0.762,2.549,3.455c0.038,0.081,0.059,0.17,0.059,0.259v66.142c0,0.331-0.269,0.6-0.6,0.6h-3.617
		c-0.077,0.245-0.062,0.532-0.027,0.757c0.139,0.908,0.74,1.905,1.193,2.232c0.847,0.609,0.504,2.039,0.107,3.695
		c-0.214,0.893-0.456,1.905-0.389,2.465c0.038,0.331,0.175,0.436,0.741,0.736c0.735,0.39,1.845,0.979,2.389,2.974
		c0.716,2.622-0.652,3.236-1.387,3.566c-0.097,0.043-0.223,0.099-0.289,0.14c-0.016,0.122,0.008,0.261,0.049,0.484
		c0.097,0.526,0.229,1.246-0.248,2.403c-0.137,0.331-0.306,0.776-0.499,1.286c-0.772,2.036-1.831,4.825-2.856,5.933
		c-0.125,0.134-0.176,0.275-0.167,0.458c0.058,1.097,2.055,2.843,2.807,3.5c0.309,0.271,1.245,1.089,1.464,5.664
		c0.007,0.037,0.011,0.075,0.011,0.113C244.807,212.591,244.538,212.86,244.206,212.86z M237.192,205.269
		c0.743,0,1.164,0.318,1.388,0.586c0.574,0.688,0.288,1.43,0.1,1.921c-0.183,0.472-0.2,0.6-0.1,0.72l0.695,0.833
		c0.503,0.602,1.48,1.525,1.985,1.598c0.444,0.064,1.344,0.194,2.287,0.473c-0.229-3.093-0.818-3.849-1.006-4.013
		c-1.626-1.422-3.142-2.932-3.215-4.341c-0.026-0.505,0.142-0.967,0.485-1.337c0.866-0.936,1.918-3.707,2.614-5.541
		c0.198-0.522,0.372-0.979,0.512-1.318c0.342-0.831,0.259-1.288,0.177-1.73c-0.056-0.309-0.12-0.66-0.02-1.06
		c0.128-0.507,0.583-0.711,0.949-0.875c0.626-0.281,1.166-0.524,0.721-2.156c-0.408-1.494-1.112-1.868-1.794-2.229
		c-0.588-0.313-1.255-0.666-1.371-1.655c-0.092-0.771,0.154-1.798,0.414-2.885c0.195-0.814,0.521-2.176,0.337-2.463
		c-0.745-0.532-1.482-1.861-1.656-3.005c-0.116-0.762,0.012-1.418,0.372-1.897c0.113-0.15,0.291-0.24,0.479-0.24h3.378v-65.403
		c-0.618-1.268-1.382-2.486-1.683-2.684l-0.046-0.009c-2.622-0.523-3.999-1.068-4.464-1.768c-0.264-0.395-0.534-1.018-0.82-1.678
		c-0.36-0.83-0.768-1.771-1.154-2.229c-0.143-0.168-0.34-0.379-0.549-0.603c-1.066-1.139-2.393-2.556-1.522-3.521
		c0.106-0.118,0.229-0.271,0.369-0.444c0.677-0.84,1.811-2.246,3.643-3.103c1.643-0.765,3.115-4.399,3.314-7.067
		c-5.803-0.128-52.022-1.188-106.746-3.67c-43.387-1.968-72.913-4.502-84.159-5.56l-2.913,33.843l-6.676,73.222
		c22.857,2.059,97.889,8.465,146.143,8.465c0.849,0,1.686-0.002,2.517-0.007c0.001,0,0.002,0,0.003,0
		c0.303,0,0.558,0.226,0.596,0.525c0.102,0.801,0.464,2.054,0.952,2.333c0.281,0.16,1.176,0.544,2.212,0.987
		c3.114,1.335,5.754,2.503,6.53,3.277c0.144,0.145,0.283,0.291,0.42,0.435c0.743,0.779,1.234,1.258,1.93,1.258
		c0.233,0,0.482-0.053,0.762-0.16c0.613-0.235,0.893-0.74,1.215-1.323c0.437-0.791,0.98-1.773,2.476-1.773
		c0.504,0,1.51-0.034,2.784-0.076c2.159-0.072,5.117-0.171,7.662-0.171c2.371,0,3.946,0.084,4.816,0.259
		c1.633,0.326,2.058,1.379,2.398,2.225c0.347,0.86,0.598,1.482,2.005,1.659c2.826,0.354,3.922,0.599,4.438,1.273
		c0.109,0.144,0.186,0.302,0.229,0.475c1.384,0.246,3.618,0.792,4.431,1.835C236.354,205.37,236.772,205.269,237.192,205.269z"/>
</g>
</svg>
