<?xml version="1.0" encoding="iso-8859-1"?>
<!-- Generator: Adobe Illustrator 15.1.0, SVG Export Plug-In . SVG Version: 6.00 Build 0)  -->
<!DOCTYPE svg PUBLIC "-//W3C//DTD SVG 1.1//EN" "http://www.w3.org/Graphics/SVG/1.1/DTD/svg11.dtd">
<svg version="1.1" id="Layer_1" xmlns="http://www.w3.org/2000/svg" xmlns:xlink="http://www.w3.org/1999/xlink" x="0px" y="0px"
	 width="288px" height="288px" viewBox="0 0 288 288" style="enable-background:new 0 0 288 288;" xml:space="preserve">
<g>
	<path d="M166.322,233.66c-0.139,0-0.276-0.048-0.387-0.142c-1-0.844-2.178-1.378-2.46-1.42c-0.2-0.028-0.692-0.03-1.214-0.032
		c-2.768-0.01-5.317-0.126-6.095-1.421c-0.472-0.786-0.387-1.718-0.305-2.62c0.102-1.116,0.188-2.081-0.608-2.813
		c-1.908-1.747-2.885-6.594-2.517-8.054c0.037-0.15-0.136-0.361-0.57-0.841c-0.766-0.846-1.922-2.125-2.653-4.858
		c-0.896-3.369-3.948-3.858-5.588-4.121c-0.303-0.049-0.542-0.087-0.727-0.139c-1.205-0.348-5.139-3.102-6.234-5.449
		c-0.485-1.036-0.819-2.911-1.173-4.896c-0.316-1.776-0.795-4.46-1.242-4.808c-1.287-0.799-5.018-5.014-5.778-6.531
		c-0.466-0.931,0.209-2.181,0.862-3.389c0.308-0.569,0.816-1.511,0.771-1.812c-0.023-0.01-0.07-0.025-0.153-0.036
		c-1.838-0.242-11.694-2.411-13.987-5.03c-0.894-1.025-2.074-1.508-3.116-1.934c-1.248-0.51-2.427-0.992-2.723-2.279
		c-0.162-0.701-0.163-1.247-0.163-1.686c0-0.805,0-1.209-0.977-2.104c-0.773-0.709-1.675-0.858-2.398-0.979
		c-0.738-0.122-1.75-0.291-1.75-1.364c0-3.901-1.063-6.609-3.074-7.833c-5.641-3.434-6.604-3.703-6.739-3.722h-0.001
		c-0.794,0-5.996-2.762-7.557-6.668c-1.476-3.675-6.418-5.478-7.394-5.802l-0.224-0.074c-1.883-0.624-5.801-1.922-9.42-6.414
		l-0.529-0.656c-3.33-4.128-7.104-8.807-8.935-9.724c-1.427-0.715-2.063-2.921-2.679-5.056c-0.39-1.353-0.793-2.752-1.336-3.46
		c-0.502-0.652-1.093-0.948-1.719-1.261c-1.02-0.51-2.176-1.087-2.774-3.184c-0.844-2.954-1.838-3.531-3.27-3.531
		c-0.116,0-0.236,0.004-0.359,0.013c-0.502,0.032-0.959,0.049-1.4,0.049c-3.512,0-6.163-1.023-7.881-3.042
		c-1.758-2.071-2.392-2.139-3.44-2.251c-0.347-0.037-0.741-0.079-1.213-0.188c-1.845-0.427-4.417-1.448-6.202-3.891
		c-0.215-0.293-0.441-0.583-0.667-0.873c-1.48-1.904-3.158-4.063-1.233-6.577c0.704-0.92,1.072-1.561,1.368-2.076
		c0.492-0.857,0.818-1.425,2.065-2.049c0.879-0.438,0.924-0.662,1.074-1.404c0.089-0.437,0.211-1.033,0.543-1.809
		c0.484-1.131,1.402-1.569,2.214-1.957c0.896-0.429,1.672-0.799,2.005-2.06l0.52-1.982c-0.141-0.053-0.26-0.159-0.327-0.301
		c-0.114-0.238-0.06-0.522,0.135-0.701l0.726-0.669c0.041-0.037,0.086-0.068,0.135-0.093c0.08-0.041,8.051-4.088,15.785-7.962
		c14.417-7.217,14.905-7.289,15.14-7.324c0.494-0.069,62.306-6.886,62.887-6.886c1.1,0,1.918,2.961,1.918,3.527
		c0,0.732-0.702,0.91-1.04,0.996c-0.044,0.011-0.099,0.024-0.148,0.039c0.048,0.1,0.144,0.261,0.329,0.502
		c0.589,0.768,1.014,1.156,1.263,1.156c0.329,0,0.939-0.743,1.169-1.023c1.393-1.703,3.499-2.623,3.588-2.661
		c0.224-0.096,0.484-0.048,0.657,0.123l8.056,7.904c0.115,0.113,0.18,0.268,0.18,0.429v6.474l52.591-8.088
		c0.155-0.023,0.315,0.015,0.443,0.107l62.064,44.938c0.232,0.168,0.313,0.477,0.193,0.736c-0.039,0.085-1.013,2.117-5.669,4.668
		c-4.361,2.394-9.557,8.898-10.099,11.317c-0.597,2.694-3.137,7.064-4.232,8.313c-0.571,0.657-1.867,6.03-2.79,10.844
		c-0.054,0.283-0.302,0.487-0.589,0.487h-1.343c-0.117,1.228-0.517,3.366-1.877,3.366c-0.558,0-1.075-0.278-1.456-0.785
		c-0.69-0.918-0.862-2.461-0.438-3.934c0.126-0.441,0.245-0.837,0.353-1.189c-0.758,1.386-1.527,3.302-1.246,4.432
		c0.472,1.869,2.843,3.401,4.26,4.316c0.174,0.112,0.332,0.215,0.473,0.308c1.035,0.691,2.813,2.547,2.67,3.783
		c-0.051,0.437-0.323,0.777-0.749,0.937c-1.004,0.378-3.288,2.489-4.143,3.489c-0.368,0.429-1.073,1.058-1.82,1.724
		c-0.776,0.693-2.059,1.837-2.277,2.237c0.056,0.155,0.322,0.475,0.471,0.651c0.388,0.464,0.755,0.901,0.607,1.416
		c-0.046,0.16-0.187,0.451-0.613,0.591l-0.339,0.116c-1.97,0.673-4.103,1.36-4.981,1.36c-0.7,0-0.888-0.458-0.888-0.729
		c0-0.065,0.002-0.139,0.004-0.218c0.006-0.265,0.021-0.885-0.138-1.047c-0.009-0.009-0.036-0.037-0.146-0.037
		c-0.411,0.002-1.996,1.102-3.435,2.378c-0.369,1.094-0.714,2.353-0.821,3.067c0.051-0.032,0.1-0.063,0.142-0.091
		c0.394-0.256,0.802-0.521,1.225-0.521c0.303,0,1.008,0.142,1.008,1.446c0,2.055-3.253,4.111-3.997,4.556
		c-0.204,0.276-0.688,0.905-1.104,1.248c-0.015,0.142-0.02,0.394-0.022,0.589c-0.021,1.269-0.066,3.908-2.562,4.301
		c-1.044,0.165-1.985,0.529-2.815,0.851c-0.8,0.31-1.491,0.577-2.083,0.577c-0.694,0-1.07-0.368-1.263-0.677
		c-0.157-0.252-0.336-0.498-0.509-0.736c-0.544-0.751-1.152-1.59-0.974-2.604c-0.376,0.31-0.708,0.501-0.954,0.501
		c-0.322,0-0.596-0.201-0.698-0.512c-0.157-0.466-0.351-1.452-0.503-2.403c-0.156,0.724-0.181,1.485,0.167,1.922
		c0.119,0.109,0.194,0.268,0.194,0.442c0,0.331-0.269,0.6-0.601,0.6c-0.002,0-0.003,0-0.006,0c-0.008,0-0.017,0-0.024,0
		c-0.005,0-0.415-0.018-0.934-0.018c-0.375,0-0.675,0.009-0.913,0.022c0.044,0.03,0.09,0.062,0.136,0.093
		c0.773,0.531,1.833,1.26,2.894,2.353c0.642,0.658,1.222,0.695,1.836,0.734c0.7,0.045,1.571,0.1,2.088,1.235
		c0.618,1.354-0.59,3.483-1.138,4.336c-0.457,0.711-1.629,2.366-2.626,2.366c-0.729,0-1.628,0.137-2.207,0.291
		c0.09,0.049,0.178,0.096,0.255,0.137c0.817,0.434,1.522,0.809,1.522,1.463c0,0.904-1.103,0.922-2.771,0.949
		c-0.572,0.01-1.424,0.023-1.688,0.105c-0.12,0.131-0.353,0.41-0.597,0.705c-1.94,2.334-2.589,2.938-3.153,2.938
		c-0.499,0-2.181-0.865-4.998-2.574c-0.251-0.151-0.355-0.463-0.246-0.736c0.475-1.185,0.961-2.455,1.337-3.495
		c-0.979,1.249-2.15,2.856-2.608,3.596c-0.133,0.211-0.147,0.437-0.047,0.693c0.151,0.383,0.486,0.663,0.64,0.733
		c0.064-0.011,0.135-0.017,0.216-0.017c0.692,0,3.35,0.599,4.036,1.442c0.253,0.31,0.238,0.607,0.207,0.758
		c-0.095,0.483-1.065,1.527-2.883,3.095c-2.754,2.374-3.318,2.374-3.504,2.374c-0.095,0-0.186-0.018-0.27-0.052
		c-0.105,0.029-0.317,0.121-0.479,0.19c-0.644,0.28-1.565,0.676-2.727,0.577c-1.758-0.144-4.327-0.969-5.031-1.367
		c-0.011,0-0.021,0-0.032,0c-0.355,0-1.139,0.162-1.896,0.319c-1.054,0.219-2.249,0.466-3.09,0.466c-0.111,0-0.26,0.008-0.397,0.014
		c-0.836,0.038-1.984,0.172-2.89,0.297c0.385,0.152,0.985,0.27,1.976,0.27c0.646,0,1.41-0.052,2.27-0.154l0.094-0.008
		c0.018,0,0.034-0.001,0.056-0.004c0.903-0.112,1.661-0.168,2.309-0.168c2.355,0,2.851,0.785,3.185,1.661
		c0.104,0.272,0.161,0.408,0.307,0.5c1.249,0.776,3.066,2.845,3.066,4.312c0,0.416-0.041,1.868-0.578,3.099
		c-0.409,0.937-1.006,1.517-1.773,1.725c-0.672,0.184-1.272,0.847-1.803,1.432c-0.56,0.616-1.002,1.104-1.586,1.104
		c-0.114,0-0.226-0.021-0.332-0.061c-0.133,0.018-0.467,0.259-0.669,0.404c-0.449,0.324-0.958,0.691-1.539,0.691
		c-0.143,0-0.283-0.023-0.416-0.067c-1.402-0.466-3.043-7.008-3.043-7.739c0-1.036-0.291-2.443-0.566-2.843
		c-0.279,0.463-0.467,2.179,0.117,3.81c0.232,0.647,0.533,1.313,0.798,1.9c0.598,1.326,0.958,2.127,0.665,2.696
		c-0.119,0.23-0.329,0.387-0.592,0.438c-0.048,0.01-0.102,0.016-0.159,0.016c-1.275,0-5.947-4.372-6.943-6.498
		c-0.927-1.984-1.663-3.868-0.563-5.11c-0.396-0.232-1.492-0.518-2.544-0.543c0.113,0.244,0.312,0.59,0.482,0.886
		c0.399,0.696,0.896,1.563,1.248,2.556c0.312,0.883,0.911,2.074,1.49,3.227c1.451,2.883,2.174,4.421,1.444,5.157
		c-0.018,0.052,0.014,0.33,0.268,0.747c0.461,0.758,1.274,1.396,1.851,1.452c0.423,0.042,0.812-0.119,1.235-0.29
		c0.403-0.163,0.82-0.331,1.279-0.331c0.593,0,1.103,0.275,1.558,0.843c0.931,1.168,0.475,3.493,0.313,4.177
		c-0.387,1.637-1.269,3.602-2.58,4.208c-0.332,0.154-0.802,0.658-1.345,1.243c-1.229,1.321-3.086,3.318-6.438,4.853
		C166.492,233.643,166.407,233.66,166.322,233.66z M106.338,164.911c0.119,0.067,0.479,0.128,0.747,0.172
		c0.833,0.139,1.976,0.329,3.013,1.278c1.364,1.253,1.365,2.096,1.365,2.988c0,0.417,0,0.849,0.132,1.417
		c0.149,0.65,0.825,0.955,2.008,1.438c1.107,0.452,2.485,1.016,3.566,2.255c1.809,2.066,10.736,4.299,13.24,4.63
		c0.642,0.085,0.932,0.408,1.063,0.663c0.393,0.771-0.151,1.778-0.782,2.944c-0.386,0.714-1.031,1.908-0.845,2.28
		c0.721,1.438,4.306,5.408,5.346,6.055c0.841,0.527,1.207,2.381,1.783,5.611c0.324,1.821,0.66,3.704,1.078,4.599
		c0.937,2.007,4.588,4.547,5.477,4.803c0.114,0.032,0.334,0.067,0.587,0.108c1.635,0.262,5.463,0.875,6.559,4.997
		c0.655,2.452,1.695,3.602,2.383,4.361c0.558,0.616,1.039,1.148,0.846,1.937c-0.26,1.027,0.605,5.454,2.162,6.879
		c1.235,1.135,1.101,2.616,0.993,3.807c-0.067,0.743-0.132,1.444,0.139,1.895c0.493,0.822,3.7,0.833,5.07,0.838
		c0.637,0.002,1.098,0.004,1.383,0.045c0.552,0.082,1.757,0.678,2.757,1.447c2.929-1.413,4.604-3.215,5.726-4.422
		c0.682-0.732,1.174-1.262,1.72-1.515c0.736-0.341,1.524-1.736,1.917-3.395c0.327-1.384,0.293-2.681-0.083-3.152
		c-0.314-0.393-0.528-0.393-0.62-0.393c-0.227,0-0.52,0.119-0.83,0.244c-0.508,0.205-1.104,0.441-1.804,0.372
		c-1.295-0.129-2.655-1.506-3.066-2.662c-0.284-0.797-0.048-1.275,0.159-1.516c0.048-0.543-0.945-2.517-1.607-3.834
		c-0.597-1.186-1.213-2.411-1.55-3.365c-0.315-0.891-0.783-1.705-1.158-2.358c-0.567-0.987-0.941-1.64-0.612-2.209
		c0.184-0.316,0.525-0.477,1.018-0.477c0.71,0,3.454,0.23,3.921,1.358c0.076,0.182,0.199,0.655-0.278,1.131
		c-0.544,0.545-0.353,1.591,0.705,3.858c0.83,1.771,3.976,4.603,5.352,5.519c-0.137-0.357-0.338-0.803-0.503-1.17
		c-0.274-0.607-0.585-1.296-0.834-1.988c-0.624-1.745-0.592-4.015,0.072-4.956c0.24-0.342,0.571-0.529,0.933-0.529
		c1.754,0,1.773,4.072,1.773,4.113c0,0.868,1.6,5.961,2.261,6.606c0.194-0.001,0.565-0.269,0.836-0.464
		c0.431-0.311,0.876-0.632,1.383-0.632c0.107,0,0.214,0.015,0.315,0.045c0.161-0.1,0.47-0.44,0.701-0.695
		c0.608-0.671,1.366-1.506,2.377-1.783c0.401-0.108,0.733-0.46,0.988-1.047c0.354-0.808,0.479-1.883,0.479-2.618
		c0-0.878-1.433-2.629-2.503-3.295c-0.493-0.311-0.665-0.761-0.791-1.089c-0.189-0.497-0.339-0.889-2.063-0.889
		c-0.589,0-1.317,0.054-2.168,0.16c-0.056,0.006-0.092,0.008-0.131,0.01l-0.043,0.003c-0.88,0.106-1.691,0.161-2.386,0.161
		c-2.285,0-3.018-0.574-3.523-1.112c-0.021-0.022-0.046-0.049-0.067-0.07c-0.477-0.023-0.612-0.395-0.617-0.595
		c-0.014-0.596,0.359-0.646,2.149-0.893c0.532-0.073,1.881-0.248,2.903-0.294c0.169-0.009,0.34-0.017,0.467-0.017
		c0.718,0,1.849-0.234,2.847-0.441c0.892-0.185,1.661-0.344,2.14-0.344c0.165,0,0.409,0.016,0.615,0.151
		c0.35,0.231,2.885,1.084,4.548,1.22c0.092,0.008,0.18,0.012,0.266,0.012c0.749,0,1.378-0.273,1.883-0.493
		c0.385-0.166,0.688-0.298,0.998-0.298c0.086,0,0.168,0.01,0.246,0.03c0.894-0.417,4.354-3.39,5.093-4.357
		c-0.558-0.366-2.321-0.882-2.967-0.882c-0.003,0-0.005,0-0.007,0c-0.647,0.172-1.464-0.528-1.828-1.188
		c-0.383-0.691-0.379-1.442,0.009-2.059c0.374-0.604,1.383-2.011,2.293-3.199c1.969-2.571,2.241-2.571,2.557-2.571
		c0.364,0,0.648,0.296,0.648,0.673c0,0.699-1.213,3.857-1.905,5.606c1.596,0.953,3.36,1.933,3.895,2.115
		c0.48-0.322,1.772-1.876,2.276-2.482c0.37-0.445,0.586-0.704,0.715-0.833c0.357-0.358,1.055-0.386,2.474-0.409
		c0.269-0.005,0.621-0.011,0.945-0.025c-0.086-0.046-0.168-0.09-0.239-0.128c-0.692-0.367-1.192-0.633-1.311-1.092
		c-0.053-0.204-0.018-0.413,0.097-0.589c0.607-0.903,3.417-0.999,3.705-1.006c0.344-0.101,1.463-1.275,2.232-2.867
		c0.546-1.129,0.597-1.845,0.463-2.138c-0.21-0.461-0.41-0.493-1.072-0.536c-0.698-0.044-1.655-0.104-2.62-1.095
		c-0.979-1.009-1.981-1.697-2.713-2.2c-0.465-0.32-0.832-0.572-1.084-0.824c-0.232-0.231-0.302-0.534-0.188-0.811
		c0.184-0.443,0.655-0.669,2.717-0.669c-0.348-1.408,0.359-3.126,0.539-3.529c0.349-0.78,0.606-1.057,0.985-1.057
		c0.305,0,0.629,0.232,0.629,0.663c0,0.419,0.287,2.446,0.548,3.61c0.751-0.693,2.187-2.424,3.346-3.971
		c0.193-0.258,0.555-0.317,0.821-0.134c0.266,0.184,0.339,0.543,0.166,0.815c-0.56,0.882-2.086,3.37-2.428,4.281
		c-0.214,0.571,0.112,1.064,0.709,1.888c0.185,0.254,0.375,0.517,0.555,0.804c0.045,0.071,0.083,0.113,0.245,0.113
		c0.367,0,0.99-0.241,1.649-0.496c0.843-0.326,1.891-0.732,3.062-0.917c1.386-0.218,1.523-1.607,1.549-3.136
		c0.013-0.721,0.021-1.196,0.407-1.453c0.24-0.161,0.741-0.78,1.02-1.168c0.05-0.068,0.114-0.127,0.188-0.17
		c1.356-0.783,3.509-2.449,3.509-3.581c0-0.06-0.002-0.109-0.005-0.153c-0.122,0.071-0.269,0.166-0.374,0.234
		c-0.393,0.255-0.799,0.519-1.219,0.519c-0.247,0-0.474-0.116-0.618-0.32c-0.571-0.8,0.445-3.749,0.779-4.719
		c0.033-0.096,0.091-0.183,0.166-0.25c0.728-0.654,3.191-2.789,4.353-2.789c0.509,0,0.826,0.216,1.004,0.397
		c0.422,0.433,0.482,1.078,0.483,1.601c1.062-0.168,3.422-0.974,4.266-1.263c-0.061-0.076-0.126-0.154-0.18-0.219
		c-0.405-0.484-0.865-1.033-0.738-1.649c0.113-0.577,0.899-1.329,2.667-2.905c0.684-0.61,1.392-1.241,1.707-1.609
		c0.745-0.871,3.206-3.281,4.613-3.824c-0.006-0.438-1.043-1.868-2.146-2.604c-0.136-0.09-0.289-0.189-0.458-0.299
		c-1.565-1.011-4.185-2.703-4.772-5.032c-0.552-2.217,1.511-5.764,2.324-6.804c0.396-0.507,0.674-0.704,0.991-0.704
		c0.222,0,0.428,0.109,0.552,0.294c0.378,0.577,0.156,1.307-0.285,2.762c-0.111,0.366-0.237,0.781-0.371,1.249
		c-0.368,1.278-0.144,2.367,0.242,2.881c0.153,0.204,0.321,0.307,0.498,0.307c0.271-0.1,0.654-1.369,0.719-2.793
		c0.014-0.32,0.278-0.573,0.6-0.573h1.406c0.476-2.43,1.978-9.779,2.971-10.92c1.001-1.142,3.416-5.306,3.964-7.785
		c0.668-2.977,6.181-9.631,10.693-12.107c3.047-1.669,4.375-3.061,4.884-3.718l-61.399-44.456l-53.039,8.157
		c-0.174,0.025-0.35-0.024-0.482-0.138c-0.133-0.114-0.209-0.28-0.209-0.456v-6.921l-7.574-7.433
		c-0.613,0.316-1.889,1.059-2.778,2.146c-0.607,0.741-1.27,1.464-2.097,1.464c-0.803,0-1.466-0.649-2.215-1.625
		c-0.371-0.482-0.773-1.111-0.574-1.688c0.183-0.528,0.705-0.661,1.051-0.748c0.034-0.009,0.074-0.02,0.114-0.03
		c-0.104-0.585-0.567-1.747-0.852-2.116c-3.475,0.343-60.611,6.604-62.535,6.856c-0.316,0.098-2.424,1.018-14.8,7.213
		c-7.118,3.564-14.437,7.276-15.615,7.875c0.021,0.093,0.02,0.189-0.005,0.283l-0.729,2.782c-0.477,1.799-1.681,2.374-2.649,2.837
		c-0.738,0.353-1.321,0.631-1.627,1.347c-0.284,0.662-0.383,1.147-0.47,1.575c-0.194,0.954-0.381,1.572-1.715,2.239
		c-0.923,0.462-1.097,0.764-1.561,1.572c-0.298,0.518-0.704,1.226-1.457,2.208c-1.295,1.693-0.377,3.045,1.229,5.11
		c0.231,0.299,0.465,0.599,0.687,0.901c1.568,2.146,3.859,3.05,5.505,3.431c0.401,0.093,0.741,0.129,1.07,0.164
		c1.338,0.144,2.259,0.349,4.227,2.667c1.479,1.737,3.822,2.619,6.967,2.619c0.415,0,0.847-0.016,1.32-0.046
		c0.149-0.011,0.296-0.016,0.439-0.016c2.249,0,3.53,1.275,4.423,4.402c0.454,1.588,1.206,1.964,2.157,2.439
		c0.687,0.343,1.465,0.731,2.134,1.604c0.682,0.888,1.098,2.331,1.538,3.858c0.518,1.798,1.105,3.835,2.063,4.314
		c2.064,1.034,5.759,5.614,9.331,10.043l0.53,0.657c3.397,4.218,7.089,5.44,8.863,6.028l0.226,0.074
		c1.493,0.496,6.496,2.432,8.128,6.494c1.297,3.247,5.752,5.758,6.499,5.915c0.32,0.004,1.11,0.123,7.308,3.896
		c1.665,1.013,3.65,3.372,3.65,8.858C106.338,164.905,106.338,164.908,106.338,164.911z"/>
</g>
</svg>
