<?xml version="1.0" encoding="iso-8859-1"?>
<!-- Generator: Adobe Illustrator 15.1.0, SVG Export Plug-In . SVG Version: 6.00 Build 0)  -->
<!DOCTYPE svg PUBLIC "-//W3C//DTD SVG 1.1//EN" "http://www.w3.org/Graphics/SVG/1.1/DTD/svg11.dtd">
<svg version="1.1" id="Layer_1" xmlns="http://www.w3.org/2000/svg" xmlns:xlink="http://www.w3.org/1999/xlink" x="0px" y="0px"
	 width="288px" height="288px" viewBox="0 0 288 288" style="enable-background:new 0 0 288 288;" xml:space="preserve">
<g>
	<path d="M29.884,184.669c-0.111,0-0.292-0.03-0.44-0.196c-0.665-0.398-0.94-1.143-0.74-2.028c0.178-0.784,0.729-1.618,1.4-1.618
		c0.044,0,0.088,0.003,0.13,0.011c0.315-0.089,1.406-1.095,1.5-2.028c0.098-0.98,0.801-1.058,1.014-1.058
		c0.338,0,0.669,0.144,1.02,0.295c0.23,0.101,0.487,0.211,0.679,0.243c-0.04-0.414-0.392-1.302-0.572-1.76
		c-0.225-0.57-0.419-1.063-0.471-1.422c-0.075-0.078-0.512-0.163-0.772-0.215c-0.595-0.115-1.27-0.247-1.75-0.729
		c-0.376-0.376-0.388-0.734-0.331-0.97c0.153-0.639,0.899-0.88,1.558-1.094c0.076-0.024,0.165-0.053,0.243-0.08
		c-0.032-0.459-0.347-1.499-0.459-1.871c-0.063-0.213-0.116-0.388-0.143-0.494c-0.051-0.202-0.014-0.415,0.104-0.6
		c0.265-0.409,1.128-0.768,2.569-1.065v-3.479c0-0.639,0.442-0.809,0.703-0.809c0.226,0,0.407,0.102,0.601,0.21
		c0.217,0.121,0.486,0.272,0.798,0.272c0.204,0,0.41-0.063,0.632-0.191c0.141-0.083,0.209-0.145,0.239-0.178
		c-0.063-0.119-0.284-0.336-0.422-0.47c-0.354-0.347-0.757-0.739-0.757-1.271c0-0.748,0.701-1.017,1.165-1.194
		c0.616-0.235,0.758-0.348,0.758-0.6c0-0.075-0.013-0.102-0.013-0.102c-0.036-0.04-0.226-0.104-0.352-0.146
		c-0.545-0.183-1.559-0.523-1.559-2.188c0-1.746,1.658-1.795,2.649-1.824c0.915-0.026,1.185-0.088,1.198-0.273
		c0.077-1.003,0.657-1.528,1.726-1.563c-0.313-0.298-0.596-0.73-0.694-1.377c-0.077-0.502,0.108-0.843,0.277-1.04
		c0.339-0.396,0.916-0.601,1.801-0.638c-0.595-1.171-0.735-2.843-0.763-3.289c-0.004-0.068,0.004-0.138,0.022-0.203
		c0.003-0.01,0.321-1.159,0.321-3.253c0-0.556,0.088-0.932,0.284-1.222c0.138-0.205,0.404-0.451,0.884-0.451
		c0.18,0,0.352,0.034,0.518,0.066c0.144,0.028,0.279,0.055,0.396,0.055c0.127,0,0.226-0.027,0.342-0.17
		c-0.21-0.377-1.682-1.056-3.177-1.458c-0.279-0.075-0.466-0.339-0.442-0.627c0.022-0.288,0.247-0.52,0.535-0.55
		c1.145-0.121,3.153-0.459,3.906-0.869c-0.167-0.438-1.211-1.49-2.325-2.327c-0.146-0.108-0.233-0.278-0.239-0.46
		s0.071-0.357,0.209-0.476l2.125-1.818l-0.427-1.989c-0.041-0.193,0.015-0.394,0.15-0.537l0.501-0.532
		c0.22-0.234,0.586-0.253,0.829-0.043c0.797,0.689,1.188,0.824,1.319,0.85c0.128-0.13,0.509-0.611,1.285-2.285
		c0.092-0.198,0.285-0.331,0.504-0.346l35.432-2.394c0.142-0.555,0.306-2.114-0.989-5.177c-0.079-0.186-0.059-0.397,0.052-0.565
		c0.111-0.168,0.299-0.269,0.501-0.269h5.813c0.207,0,0.399,0.107,0.509,0.283l0.651,1.044c4.041-0.483,35.478-4.239,37.59-4.402
		c0.947-0.072,5.556-0.261,10.891-0.479c6.549-0.268,14.691-0.601,15.338-0.701c0.584-0.146,4.438-0.676,8.469-1.163
		c3.843-0.464,11.175-1.286,17.104-1.587c3.059-0.156,10.968-1.066,23.507-2.708c18.621-2.437,41.76-5.738,45.485-6.271v-1.019
		c0-0.331,0.269-0.601,0.6-0.601h7.522c0.205,0,0.396,0.104,0.505,0.276c0.11,0.172,0.126,0.389,0.041,0.574
		c-0.001,0.003-0.157,0.345-0.346,0.815c-0.402,1.028-0.625,1.865-0.625,2.354c0,0.418-0.086,0.91-0.177,1.432
		c-0.171,0.983-0.384,2.207,0.064,2.833c0.122,0.172,0.233,0.317,0.329,0.442c0.34,0.446,0.607,0.798,0.438,1.247
		c-0.187,0.493-0.706,0.597-1.65,0.786c-0.746,0.149-2.617,3.222-3.622,4.872c-1.225,2.012-2.007,3.269-2.634,3.737
		c-0.469,0.352-1.002,0.53-1.586,0.53l0,0c-0.749,0-1.438-0.289-1.99-0.522c-0.244-0.103-0.476-0.2-0.635-0.237
		c-0.922,0.038-5.752,2.867-6.162,4.509c-0.464,1.855-2.86,4.086-4.016,4.086c-0.547,0-0.928-0.404-0.928-0.984
		c0-0.948-1.051-2.602-1.653-2.602c-0.029,0-0.107,0-0.227,0.119c-0.434,0.434-0.649,1.524-0.823,2.4
		c-0.262,1.321-0.509,2.568-1.575,2.568c-0.053,0-0.106-0.004-0.162-0.012c-0.542-0.077-1.18-0.318-1.798-0.551
		c-0.385-0.146-0.843-0.317-1.151-0.391c0.032,0.308,0.119,0.773,0.188,1.143c0.327,1.762,0.515,3.075-0.06,3.791
		c-0.007,0.013-0.016,0.025-0.024,0.037c-0.019,0.026-0.04,0.051-0.063,0.074c-0.413,0.412-1.496,0.973-3.375,1.927
		c-1.942,0.987-4.359,2.216-5.173,3.029c-0.434,0.435-0.976,1.11-1.55,1.827c-1.57,1.962-3.195,3.989-4.683,3.989
		c-0.707,0-1.236-0.253-1.704-0.477c-0.402-0.192-0.75-0.358-1.184-0.358c-0.52,0-1.146,0.241-1.914,0.739
		c-5.814,3.755-7.351,5.089-7.587,5.539c0.005,0.146,0.023,0.4,0.046,0.687c0.216,2.813,0.307,5.603-1.123,6.138
		c-0.14,0.053-0.282,0.11-0.428,0.167c-0.719,0.286-1.534,0.609-2.426,0.609c-0.685,0-1.318-0.187-1.923-0.568l-1.496,1.37
		l0.089,7.299c0.004,0.305-0.221,0.563-0.522,0.603c-2.98,0.389-6.098,0.786-9.343,1.198c-9.115,1.152-17.559,2.18-25.815,3.143
		c-6.942,0.811-14.038,1.605-21.088,2.362c-15.264,1.636-96.233,7.453-106.41,8.183c0.021,0.081,0.03,0.149,0.025,0.197
		C30.455,184.43,30.195,184.669,29.884,184.669z M30.197,182.039c-0.111,0.121-0.275,0.412-0.335,0.723
		c7.541-0.54,91.339-6.551,106.876-8.216c7.046-0.756,14.138-1.55,21.076-2.36c8.253-0.963,16.693-1.99,25.804-3.142
		c3.053-0.388,5.992-0.763,8.811-1.129l-0.086-7.034c-0.002-0.171,0.069-0.335,0.195-0.45l2.051-1.878
		c0.218-0.2,0.549-0.211,0.779-0.026c0.519,0.414,1.026,0.606,1.597,0.606c0.662,0,1.334-0.267,1.983-0.524
		c0.151-0.061,0.301-0.119,0.449-0.175c0.212-0.08,0.67-0.718,0.348-4.923c-0.03-0.387-0.051-0.666-0.051-0.841
		c0-0.673,0.612-1.625,8.137-6.484c0.981-0.636,1.797-0.932,2.565-0.932c0.706,0,1.235,0.253,1.702,0.477
		c0.403,0.192,0.751,0.359,1.186,0.359c0.911,0,2.617-2.131,3.746-3.54c0.595-0.743,1.157-1.444,1.637-1.926
		c0.949-0.948,3.355-2.171,5.479-3.25c1.245-0.633,2.648-1.347,3.027-1.667c0.013-0.017,0.025-0.032,0.038-0.047v-0.001
		c0.287-0.311-0.04-2.073-0.18-2.826c-0.231-1.244-0.322-1.812-0.062-2.202c0.097-0.146,0.334-0.394,0.819-0.394
		c0.478,0,1.095,0.232,1.809,0.502c0.533,0.2,1.083,0.408,1.49,0.478c0.173-0.221,0.335-1.04,0.444-1.594
		c0.216-1.089,0.461-2.323,1.151-3.015c0.308-0.309,0.68-0.472,1.076-0.472c1.448,0,2.665,2.166,2.833,3.505
		c0.728-0.354,2.276-1.803,2.6-3.096c0.58-2.319,6.096-5.418,7.341-5.418c0.074,0,0.139,0.008,0.196,0.019
		c0.277,0.056,0.575,0.181,0.89,0.313c0.477,0.2,1.018,0.428,1.524,0.428l0,0c0.327,0,0.603-0.092,0.866-0.29
		c0.474-0.354,1.459-1.974,2.329-3.401c1.959-3.219,3.234-5.189,4.411-5.425c0.137-0.027,0.333-0.066,0.51-0.106
		c-0.006-0.008-0.012-0.015-0.018-0.022c-0.102-0.134-0.221-0.289-0.351-0.472c-0.74-1.034-0.479-2.533-0.271-3.737
		c0.082-0.469,0.159-0.911,0.159-1.226c0-0.653,0.238-1.594,0.71-2.795c0.003-0.008,0.006-0.017,0.01-0.024h-6.018v0.938
		c0,0.299-0.219,0.552-0.515,0.595c-0.255,0.036-25.795,3.702-46.014,6.348c-12.571,1.645-20.512,2.559-23.603,2.716
		c-5.894,0.299-13.194,1.118-17.021,1.58c-4.584,0.554-7.979,1.046-8.301,1.13c-0.289,0.096-3.208,0.235-15.601,0.742
		c-5.103,0.208-9.922,0.405-10.848,0.477c-2.185,0.168-37.561,4.399-37.918,4.442c-0.229,0.026-0.457-0.081-0.58-0.278l-0.677-1.086
		h-4.595c1.49,3.987,0.583,5.542,0.468,5.716c-0.104,0.155-0.273,0.254-0.459,0.267l-35.456,2.395
		c-1.089,2.289-1.554,2.563-1.936,2.642c-0.503,0.097-1.063-0.11-1.801-0.652l0.39,1.818c0.046,0.216-0.029,0.438-0.196,0.582
		l-1.84,1.574c0.955,0.78,2.267,2.023,2.24,2.946c-0.009,0.339-0.172,0.63-0.458,0.82c-0.486,0.323-1.343,0.57-2.184,0.75
		c0.82,0.385,1.557,0.882,1.754,1.475c0.122,0.367,0.051,0.746-0.2,1.066c-0.337,0.428-0.773,0.644-1.298,0.644
		c-0.234,0-0.453-0.043-0.628-0.077c-0.074-0.015-0.149-0.029-0.21-0.037c-0.021,0.077-0.045,0.218-0.045,0.466
		c0,1.929-0.252,3.121-0.339,3.476c0.105,1.439,0.56,3.104,1.065,3.257c0.221,0.066,0.735,0.221,0.658,0.749
		c-0.037,0.251-0.252,0.521-0.636,0.521c-0.06,0-0.168-0.008-0.311-0.019c-0.225-0.018-0.563-0.045-0.911-0.045
		c-1.018,0-1.2,0.229-1.201,0.23c0,0-0.007,0.02,0.001,0.072c0.103,0.667,0.516,0.857,0.914,1.042
		c0.275,0.127,0.617,0.285,0.691,0.684c0.032,0.173,0.016,0.437-0.246,0.706c-0.296,0.306-0.715,0.345-1.047,0.345
		c-0.112,0-0.231-0.005-0.354-0.01c-0.11-0.005-0.225-0.01-0.337-0.01c-0.578,0-0.616,0.117-0.643,0.456
		c-0.101,1.314-1.46,1.354-2.359,1.382c-1.3,0.038-1.484,0.167-1.484,0.624c0,0.802,0.247,0.885,0.741,1.051
		c0.413,0.139,1.182,0.396,1.182,1.385c0,1.135-0.957,1.501-1.529,1.721c-0.101,0.038-0.235,0.09-0.332,0.136
		c0.087,0.108,0.234,0.252,0.333,0.349c0.386,0.377,0.866,0.845,0.788,1.479c-0.052,0.417-0.326,0.765-0.839,1.064
		c-0.404,0.235-0.82,0.355-1.236,0.355c-0.35,0-0.653-0.084-0.901-0.186l-0.001,3.286c0,0.29-0.207,0.538-0.492,0.59
		c-0.856,0.156-1.745,0.401-2.134,0.578c0.014,0.047,0.029,0.097,0.045,0.149c0.574,1.905,0.721,2.765,0.135,3.155
		c-0.171,0.113-0.403,0.188-0.698,0.285c-0.144,0.046-0.384,0.123-0.568,0.202c0.245,0.132,0.604,0.202,0.951,0.27
		c0.676,0.132,1.602,0.313,1.731,1.224c0.031,0.219,0.227,0.713,0.398,1.149c0.522,1.324,0.843,2.239,0.536,2.862
		c-0.121,0.244-0.332,0.42-0.595,0.495c-0.122,0.035-0.252,0.053-0.388,0.053c-0.443,0-0.873-0.187-1.252-0.351
		c-0.11-0.048-0.255-0.109-0.371-0.151c-0.188,1.427-1.769,3.044-2.698,3.044C30.213,182.04,30.205,182.039,30.197,182.039z"/>
</g>
</svg>
