<?xml version="1.0" encoding="iso-8859-1"?>
<!-- Generator: Adobe Illustrator 15.1.0, SVG Export Plug-In . SVG Version: 6.00 Build 0)  -->
<!DOCTYPE svg PUBLIC "-//W3C//DTD SVG 1.1//EN" "http://www.w3.org/Graphics/SVG/1.1/DTD/svg11.dtd">
<svg version="1.1" id="Layer_1" xmlns="http://www.w3.org/2000/svg" xmlns:xlink="http://www.w3.org/1999/xlink" x="0px" y="0px"
	 width="288px" height="288px" viewBox="0 0 288 288" style="enable-background:new 0 0 288 288;" xml:space="preserve">
<g>
	<path d="M189.329,258.752c-1.005,0-2.515-0.985-4.702-2.489c-1.237-0.851-2.931-2.015-3.451-2.015
		c-0.217,0-0.467,0.007-0.743,0.016c-0.358,0.011-0.761,0.023-1.196,0.023c-1.89,0-4.688-0.215-7.155-2.065
		c-2.462-1.846-3.695-2.771-4.975-2.771c-0.311,0-0.638,0.054-0.999,0.165c-0.237,0.073-0.487,0.11-0.745,0.11
		c-1.302,0-2.626-0.899-4.159-1.94c-1.099-0.746-2.234-1.517-3.436-1.997c-2.419-0.968-2.821-4.054-3.115-6.307
		c-0.108-0.835-0.244-1.874-0.453-2.118c-0.289-0.338-0.682-0.808-1.109-1.32c-0.951-1.139-2.136-2.557-2.67-3.092
		c-0.552-0.552-0.608-1.706-0.636-3.543c-0.012-0.768-0.028-1.922-0.176-2.191c-0.596-0.618-0.247-1.438,0.09-2.229
		c0.256-0.601,0.546-1.281,0.546-1.989c0-1.442-2.291-3.37-2.894-3.37c-1.479,0-4.566-3.839-4.598-3.878
		c-0.226-0.281-0.521-0.878-1.066-1.997c-2.331-4.778-2.847-4.894-3.041-4.938c-1.366-0.303-2.081-1.815-2.838-3.417
		c-0.232-0.49-0.472-0.997-0.737-1.489c-0.598-1.111-0.625-2.052-0.645-2.738c-0.021-0.72-0.046-0.727-0.243-0.775
		c-1.01-0.253-1.852-2.294-3.359-6.773c-0.314-0.938-0.672-1.999-0.795-2.194c-0.332-0.442-1.048-2.082-1.949-4.179
		c-0.293-0.683-0.547-1.272-0.641-1.46c-0.235-0.472-2.17-2.46-3.384-3.066c-0.864-0.433-1.392-1.386-1.814-2.151
		c-0.206-0.372-0.518-0.934-0.681-1.005c-0.294-0.117-0.983-0.393-3.944-5.33c-0.214-0.356-1.633-1.167-3.167-1.167
		c-0.385,0-0.738,0.053-1.052,0.157c-0.419,0.14-0.98,0.207-1.718,0.207c-2.027,0-4.946-0.529-6.515-0.813
		c-0.421-0.076-0.748-0.136-0.936-0.162c-0.787-0.113-1.313-0.776-1.821-1.418c-0.4-0.504-0.813-1.024-1.256-1.136
		c-0.013-0.003-0.022-0.004-0.033-0.004c-0.351,0-0.996,1.201-1.304,2.426c-0.067,0.268-0.308,0.454-0.582,0.454h-4.605
		c-0.837,0-1.476,1.003-2.448,2.639c-0.17,0.285-0.348,0.583-0.534,0.888c-1.183,1.921-1.656,6.839-1.661,6.889
		c-0.023,0.256-0.208,0.468-0.458,0.527c-1.592,0.379-2.07,1.12-2.625,1.979c-0.492,0.763-1.05,1.627-2.385,2.127
		c-0.305,0.114-0.632,0.172-0.974,0.172c-2.082,0-4.307-2.112-5.637-3.374c-0.286-0.271-0.61-0.58-0.71-0.641
		c-0.594-0.296-3.036-1.783-3.465-2.045c-0.561-0.183-4.16-1.384-6.723-2.891c-1.796-1.057-2.863-2.509-3.896-3.914
		c-0.59-0.803-1.2-1.633-1.939-2.372c-2.04-2.04-4.787-9.132-4.083-10.539c0.438-0.877,0.605-3.048-0.006-3.559
		c-1.293-1.078-2.264-6.345-2.272-6.396c-0.093-0.556-0.883-1.697-1.399-2.343l-1.185-0.74c-0.59-0.369-1.187-0.905-1.818-1.473
		c-0.817-0.734-1.662-1.493-2.598-2.004c-1.383-0.754-2.199-1.683-2.921-2.503c-0.244-0.277-0.474-0.539-0.71-0.775
		c-0.413-0.412-1.017-1.29-1.716-2.306c-1.008-1.464-2.262-3.285-3.158-4.002c-1.378-1.103-1.989-2.425-2.188-2.938
		c-1.288-0.854-3.34-2.167-3.854-2.373c-0.9-0.359-1.99-2.854-2.559-4.309c-0.019-0.046-0.031-0.095-0.037-0.144l-0.137-1.089
		c-0.286-0.311-1.188-1.208-2.873-2.168c-0.144-0.082-0.242-0.215-0.282-0.365c-0.761-0.502-1.768-1.396-1.632-2.557
		c0.161-1.372,0.407-1.867,0.479-1.986c0.118-0.197,0.34-0.308,0.568-0.289l63.237,5.742l7.736-94.477
		c0.026-0.325,0.307-0.568,0.632-0.551l50.575,2.895c0.326,0.019,0.578,0.296,0.565,0.623l-1.615,40.166
		c0.354,0.014,0.733,0.061,1.134,0.142c0.701,0.14,1.426,1.037,2.55,2.49c0.559,0.722,1.479,1.911,1.866,2.092
		c0.066-0.619,0.379-0.954,0.927-0.994c0.574-0.042,1.13,0.185,1.623,0.381c0.159,0.063,0.386,0.153,0.518,0.187
		c0.162-0.15,0.452-0.605,0.641-1.015c0.078-0.169,0.23-0.292,0.412-0.333c0.181-0.042,0.372,0.004,0.515,0.122
		c0.428,0.353,1.279,0.946,1.747,1.04c0.912,0.182,1.161,1.482,1.424,2.858c0.104,0.544,0.212,1.106,0.338,1.423
		c0.001,0,0.1,0.084,0.506,0.084c0.346,0,0.766-0.061,1.137-0.113c0.346-0.05,0.671-0.097,0.935-0.097
		c0.417,0,0.706,0.131,0.862,0.389c0.508,0.393,3.606,1.395,4.111,1.425c0.071-0.001,0.294-0.112,0.441-0.187
		c0.324-0.163,0.727-0.366,1.191-0.366c0.117,0,0.234,0.014,0.348,0.039c0.543,0.126,1.058,0.698,1.781,1.557
		c0.151,0.18,0.341,0.403,0.481,0.554c0.269-0.211,0.693-0.624,0.923-0.849c0.545-0.53,0.697-0.671,0.922-0.729
		c0.106-0.026,0.219-0.038,0.354-0.038c0.351,0,0.881,0.084,1.576,0.248c0.211,0.049,0.459-0.018,0.728-0.099
		c0.246-0.074,0.525-0.158,0.838-0.158c0.375,0,0.715,0.118,1.039,0.361c0.782,0.587,0.781,1.504,0.78,2.241
		c0,0.323-0.001,0.629,0.062,0.844c0.039,0.015,0.139,0.038,0.375,0.038c0.102,0,0.206-0.003,0.311-0.007
		c0.116-0.005,0.232-0.008,0.344-0.008c0.255,0,0.852,0,1.201,0.436c0.508,0.636,0.139,1.38-0.097,1.795
		c0.313,0.139,0.819,0.295,1.168,0.31c0.253-0.115,0.898-0.75,1.331-1.175c1.061-1.042,1.69-1.632,2.296-1.632
		c0.014,0,0.048,0.002,0.063,0.003c0.821,0.059,1.455,1.098,1.805,1.839c0.262-0.035,0.593-0.069,0.892-0.069
		c0.355,0,0.613,0.046,0.812,0.145c0.457,0.228,0.557,0.723,0.646,1.159c0.055,0.271,0.116,0.574,0.248,0.749
		c0.2-0.085,0.601-0.399,0.852-0.597c0.63-0.494,1.28-1.005,1.957-1.005c0.533,0,0.821,0.24,0.969,0.44
		c0.42,0.569,0.162,1.4-0.045,2.067c-0.026,0.085-0.052,0.166-0.073,0.241c0.063,0.256,0.722,0.758,1.141,0.972
		c0.131-0.332,0.283-0.967,0.322-1.472c0.05-0.664,0.499-1.061,1.201-1.061c0.089,0,0.18,0.006,0.267,0.013
		c0.075-0.154,0.171-0.384,0.24-0.554c0.34-0.824,0.661-1.604,1.343-1.604c0.051,0,0.102,0.005,0.152,0.016
		c0.604,0.121,0.829,0.77,1.028,1.341c0.048,0.136,0.12,0.343,0.178,0.465c0.315,0.046,0.699,0.18,1.101,0.32
		c0.231,0.08,0.563,0.196,0.735,0.232c0.125-0.083,0.354-0.281,0.514-0.419c0.56-0.483,1.139-0.983,1.721-0.983
		c0.162,0,0.314,0.037,0.452,0.112c0.799,0.437,0.579,1.208,0.496,1.498c-0.001,0.003-0.002,0.007-0.003,0.011
		c0.407,0.261,1.462,0.73,1.893,0.922c0.171,0.076,0.321,0.144,0.438,0.197c0.385,0.178,0.727,0.505,1.058,0.821
		c0.186,0.178,0.484,0.463,0.64,0.539c0.078-0.077,0.193-0.27,0.259-0.38c0.205-0.343,0.461-0.771,0.968-0.771
		c0.257,0,0.519,0.087,0.771,0.17c0.056,0.019,0.127,0.042,0.196,0.063c0.023-0.142,0.043-0.31,0.057-0.421
		c0.052-0.45,0.087-0.747,0.298-0.959c0.231-0.23,0.618-0.323,1.665-0.53c0.186-0.036,0.37-0.072,0.541-0.108
		c0.283-0.062,0.566-0.2,0.84-0.334c0.349-0.171,0.65-0.319,0.976-0.319c0.05,0,0.097,0.004,0.143,0.01
		c0.224,0.032,0.596,0.162,1.184,0.372c0.215,0.077,0.501,0.18,0.708,0.246c0.014-0.021,0.026-0.043,0.038-0.063
		c0.253-0.413,0.634-1.038,1.318-1.038c0.217,0,1.069-0.282,1.527-0.434c0.796-0.263,1.118-0.362,1.354-0.362
		c0.041,0,0.111,0.007,0.151,0.015c0.163,0.032,0.379,0.139,1.307,0.618c0.631,0.327,1.904,0.985,2.311,1.107
		c0.249-0.117,0.822-0.648,1.175-0.975c0.856-0.794,1.366-1.243,1.876-1.243c0.052,0,0.102,0.005,0.148,0.014
		c0.473,0.086,1.209,0.627,2.278,1.444c0.327,0.25,0.734,0.561,0.846,0.618l0.126,0.062c0.968,0.473,2.001,1.067,2.333,1.896
		c0.258,0.405,2.422,1.225,3.462,1.618c0.469,0.178,0.911,0.346,1.244,0.486c0.705,0.299,1.354,0.48,1.826,0.614
		c0.603,0.169,0.928,0.26,1.071,0.571l0.004,0.005c0.104,0.138,0.75,0.767,1.653,0.884c0.042,0.006,0.116,0.012,0.236,0.012
		c1.429,0,5.072-0.839,5.109-0.848c0.177-0.042,0.362,0,0.506,0.112c0.143,0.112,0.227,0.284,0.229,0.466l0.366,33.473
		c0.897,0.886,1.955,1.85,2.227,1.977c0.478,0.189,0.809,0.848,1.625,2.863c0.176,0.433,0.391,0.963,0.486,1.134
		c0.229,0.202,0.438,0.593-0.194,2.873c0.95,1.155,1.489,1.961,1.605,2.402c0.098,0.116,0.396,0.351,0.598,0.51
		c0.65,0.512,1.212,0.953,1.218,1.532c0.002,0.223-0.083,0.43-0.241,0.591c-0.055,0.504,0.707,2.391,1.328,3.426
		c0.116,0.192,0.25,0.389,0.379,0.578c0.462,0.677,0.898,1.316,0.635,1.966c-0.039,0.097-0.086,0.204-0.137,0.32
		c-0.171,0.392-0.402,0.923-0.419,1.271c0.022,0.021,0.055,0.048,0.08,0.069c0.239,0.204,0.738,0.627,0.415,1.544
		c-0.32,0.905-1.04,2.655-1.07,2.729c-0.039,0.095-0.102,0.177-0.181,0.241l-0.299,0.238c0.01,0.013,0.02,0.025,0.028,0.037
		c0.251,0.328,0.918,1.199,0.042,2.021c-1.102,1.03-1.712,1.692-1.818,1.969c0.026,0.142,0.17,0.538,0.267,0.807
		c0.386,1.071,0.665,1.846,0.15,2.276c-0.265,0.283-0.745,1.611-0.517,1.967c0.646,1.005,0.898,1.821,0.774,2.498
		c-0.031,0.175,0.187,0.735,0.279,0.975c0.188,0.481,0.313,0.806,0.128,1.12c-0.023,0.053-0.057,0.147-0.101,0.269
		c-0.223,0.61-0.637,1.749-1.214,2.386l-0.033,0.038c-0.051,0.059-0.103,0.116-0.154,0.161c-0.478,0.409-1.027,0.624-1.595,0.624
		l0,0c-0.122,0-0.235-0.01-0.339-0.025c-0.398,1.124-0.844,2.713-0.729,3.403c0.139,0.832,0.915,1.726,1.254,2.052
		c0.147,0.109,0.243,0.285,0.243,0.482c0,0.331-0.269,0.6-0.6,0.6c-0.046-0.001-0.086-0.004-0.128-0.012
		c-0.214-0.045-0.458-0.066-0.728-0.066c-1.076,0-3.637,0.39-8.692,2.999l-0.195,0.1c-0.332,0.166-1.099,0.496-1.91,0.846
		c-0.767,0.33-1.559,0.67-1.861,0.822c-0.21,0.105-0.722,0.46-1.173,0.773c-1.342,0.932-1.727,1.166-2.075,1.166
		c-0.154,0-0.297-0.05-0.413-0.143c-0.148-0.118-0.234-0.297-0.237-0.489c-0.004-0.382,0.168-0.651,2.231-2.38
		c0.168-0.142,0.299-0.251,0.365-0.31c0.36-0.321,1.136-0.676,1.801-0.762c-0.038-0.051-0.071-0.106-0.101-0.164
		c-0.084,0.029-0.199,0.074-0.354,0.14c-0.705,0.299-1.883,0.615-2.677,0.615c-1.126,0-1.214-0.681-1.214-0.89
		c0-0.584,0.177-0.896,0.61-1.078c0.182-0.407,0.541-1.92,0.541-2.416c0-0.453,0-0.561-0.722-0.774
		c-0.304,0.03-0.945,1.203-1.155,1.589c-0.353,0.646-0.547,1.001-0.887,1.135c-0.156,0.061-0.308,0.091-0.451,0.091
		c-0.389,0-0.867-0.247-0.979-0.936c-0.082-0.087-0.285-0.222-0.505-0.336c0.057,0.23,0.053,0.463-0.012,0.696
		c0.046,0.072,0.126,0.177,0.175,0.24c0.173,0.224,0.336,0.435,0.336,0.717c0,0.254-0.097,0.56-0.297,1.125
		c0.146,0.069,0.352,0.148,0.493,0.203c0.578,0.221,1.37,0.524,1.171,1.252c-0.058,0.214-0.173,0.367-0.297,0.482
		c0.096-0.012,0.195-0.001,0.286,0.034c0.168,0.064,0.304,0.197,0.36,0.368l0.039,0.119c0.115,0.344,0.03,2.107,0.029,2.125
		c-0.023,0.454-0.063,1.213-0.891,1.213c-0.113,0-0.229-0.015-0.373-0.033l-0.028-0.004c-0.04,0.074-0.089,0.18-0.128,0.265
		c-0.236,0.508-0.592,1.274-1.537,1.825c-0.592,0.345-0.985,0.492-1.317,0.492c-0.186,0-0.33-0.046-0.438-0.099
		c-0.045,0.106-0.092,0.242-0.125,0.339c-0.164,0.474-0.368,1.063-0.92,1.26c-0.023,0.009-0.026,0.015-0.031,0.025
		c-0.015,0.034-0.015,0.079-0.01,0.108c0.453,0.447,0.084,1.12-0.215,1.664c-0.091,0.166-0.205,0.373-0.233,0.464
		c-0.127,0.406-1.098,1.924-1.961,2.029c-0.348,0.142-1.753,1.057-2.786,1.73c-1.341,0.873-2.606,1.697-3.174,1.954
		c-0.602,0.271-1.058,0.44-1.47,0.44c-0.461,0-0.778-0.212-1.007-0.416c-0.024-0.003-0.063-0.007-0.121-0.007
		c-0.784,0-2.174,0.508-2.451,0.777c-0.035,0.098-0.074,0.209-0.115,0.326c-0.436,1.248-0.616,1.765-1.171,1.765
		c-0.429,0-0.688-0.35-0.973-0.771c-0.205,0.074-0.522,0.228-0.753,0.338c-0.415,0.201-0.844,0.407-1.204,0.495
		c-0.2,0.048-0.341,0.16-0.505,0.289c-0.211,0.168-0.474,0.376-0.848,0.376c-0.203,0-0.404-0.063-0.597-0.189
		c-0.731-0.477-0.378-1.331-0.024-1.994c-0.788,0.297-1.268,0.541-1.761,0.894c-0.079,0.057-0.165,0.123-0.259,0.194
		c-0.534,0.406-1.266,0.963-2.03,0.963c-0.202,0-0.395-0.038-0.573-0.115h-0.001c2.24,1.964,2.322,2.107,2.373,2.197
		c0.096,0.166,0.11,0.368,0.04,0.553c-0.269,0.703-2.626,1.496-2.727,1.529c-0.354,0.119-0.704,0.368-1.043,0.61
		c-0.476,0.34-0.967,0.691-1.529,0.691c-1.146,0-1.534-1.163-1.681-1.601c-0.07-0.159-0.576-0.598-0.954-0.598
		c-0.073,0-0.116,0.019-0.146,0.04c0.048,0.069,0.122,0.16,0.177,0.228c0.19,0.231,0.427,0.52,0.489,0.887
		c0.07,0.408-0.002,0.72-0.056,0.946c-0.04,0.173-0.052,0.239-0.032,0.307c0.261,0.887,0.026,1.993-1.082,2.468
		c-0.341,0.146-0.526,0.373-0.723,0.613c-0.238,0.291-0.536,0.654-1.072,0.68c-0.225,0.01-0.442-0.075-0.598-0.233
		c-0.021-0.021-0.042-0.045-0.061-0.069c-0.23,0.182-0.486,0.273-0.752,0.273c0.009,0.146-0.002,0.298-0.013,0.448
		c-0.008,0.106-0.017,0.22-0.017,0.331c0,0.649-0.101,1.217-1.407,2.607c-0.4,0.427-0.744,0.902-1.047,1.322
		c-0.669,0.925-1.254,1.731-2.177,1.671c-0.159-0.009-0.647-0.036-0.862-0.44c-0.107-0.201-0.098-0.396-0.05-0.561
		c-0.07,0.019-0.144,0.039-0.216,0.059c-0.275,0.077-0.587,0.163-0.905,0.176l-0.072,0.002c-0.067,0-0.13-0.004-0.188-0.012
		c0.042,0.172,0.021,0.38-0.065,0.626c-0.09,0.253-0.091,0.316-0.049,0.368c0.275,0.346,0.92,0.726,1.132,0.817
		c0.115,0.017,0.339,0.063,0.831,0.195c0.163,0.044,0.3,0.154,0.378,0.304c0.077,0.15,0.088,0.325,0.029,0.484l-2.938,7.939
		c-0.017,0.044-0.038,0.086-0.063,0.125c-0.098,0.146-0.312,0.427-0.606,0.583c0.063,0.054,0.113,0.117,0.155,0.188
		c0.125,0.216,0.124,0.479-0.004,0.702c-0.176,0.357-0.668,2.886-1.041,5.121c-0.027,0.165-0.122,0.311-0.263,0.402
		c-0.14,0.093-0.312,0.121-0.475,0.081c-0.177-0.045-0.311-0.021-0.312-0.021c-0.074,0.068-0.111,0.483,0.004,0.952
		c0.036,0.147,0.017,0.308-0.057,0.439l-0.316,0.563c-0.083,0.147-0.107,0.26-0.074,0.334c0.089,0.2,0.517,0.393,0.792,0.454
		c0.217,0.05,0.391,0.214,0.449,0.429c0.147,0.54,1.442,5.293,1.524,5.87c0.088,0.617-0.406,0.964-0.734,1.192
		c-0.318,0.224-0.451,0.34-0.451,0.48c0,0.289,0.708,1.037,1.485,1.567c0.123,0.085,0.211,0.213,0.246,0.358
		c0.349,1.479,1.036,4.363,1.177,4.87c0.156,0.26,1.143,1.032,2.137,1.671c0.192,0.124,0.298,0.348,0.271,0.575
		c-0.027,0.228-0.182,0.421-0.398,0.496c-0.027,0.01-2.833,1.023-3.097,3.007C190.418,258.348,189.967,258.752,189.329,258.752z
		 M181.176,253.048c0.85,0,2.123,0.846,4.131,2.226c1.389,0.955,3.287,2.26,4.007,2.278c0,0,0.001-0.008,0.002-0.013
		c0.239-1.795,1.797-2.934,2.868-3.515c-0.836-0.596-1.604-1.25-1.738-1.721c-0.143-0.495-0.932-3.822-1.146-4.729
		c-0.601-0.437-1.815-1.441-1.815-2.423c0-0.788,0.603-1.211,0.963-1.463c0.065-0.046,0.153-0.107,0.213-0.155
		c-0.143-0.667-0.873-3.406-1.385-5.289c-0.399-0.145-1.007-0.451-1.266-1.026c-0.136-0.303-0.226-0.795,0.123-1.413l0.204-0.363
		c-0.084-0.458-0.14-1.227,0.266-1.743c0.155-0.199,0.436-0.433,0.903-0.469c0.221-1.291,0.584-3.303,0.874-4.356
		c-0.128-0.008-0.293-0.014-0.506-0.014c-1.048,0-2.417,0.133-2.431,0.134c-0.064,0.007-0.13,0.002-0.193-0.012l-2.064-0.477
		c-0.276-0.064-0.471-0.313-0.465-0.598c0.007-0.284,0.211-0.525,0.49-0.577c0.324-0.061,0.671-0.15,0.936-0.238
		c-0.922-0.817-1.475-1.352-1.284-1.943c0.046-0.141,0.206-0.474,0.716-0.525c0.665-0.067,1.149,0.451,1.565,0.902
		c0.239,0.26,0.566,0.614,0.754,0.614c0.402-0.066,0.806-0.395,1.083-0.68c-0.892-1.118-0.698-1.554-0.62-1.729
		c0.128-0.288,0.417-0.46,0.771-0.46c0.928,0,2.016,0.751,2.171,2.833l2.433-6.576c-0.02-0.004-0.036-0.007-0.047-0.009
		c0.021,0.003,0.038,0.004,0.049,0.003c-0.407,0-1.52-0.718-1.951-1.259c-0.323-0.404-0.317-0.836-0.251-1.157
		c-0.946-0.176-1.892-0.375-1.892-1.148c0-0.742,0.811-1.104,2.479-1.104c0.571,0,0.812,0.317,0.92,0.477
		c0.199-0.01,0.423-0.072,0.64-0.133c0.284-0.079,0.579-0.161,0.874-0.161c0.283,0,0.529,0.077,0.732,0.229
		c0.161,0.121,0.312,0.302,0.336,0.563c0.226-0.233,0.478-0.582,0.712-0.905c0.324-0.449,0.691-0.958,1.146-1.44
		c0.944-1.006,1.063-1.368,1.079-1.66c-0.031,0.027-0.063,0.055-0.092,0.08c-0.863,0.76-1.173,1.006-1.535,1.006
		c-0.059,0-0.138-0.012-0.194-0.028c-0.447-0.135-1.273-0.877-1.273-1.581c0-0.959,3.369-2.69,3.729-2.69
		c0.187,0,0.358,0.072,0.485,0.203c0.09,0.094,0.141,0.198,0.168,0.302c-0.034-0.289-0.021-0.642,0.159-0.915
		c0.142-0.215,0.362-0.35,0.62-0.38c0.023-0.002,0.063-0.005,0.087-0.005c0.193,0,0.375,0.076,0.511,0.215
		c0.286,0.29,0.279,0.724,0.271,1.272c0,0.008,0,0.017,0,0.024c0.227-0.262,0.535-0.563,1.027-0.774
		c0.545-0.233,0.486-0.743,0.403-1.026c-0.111-0.376-0.038-0.689,0.016-0.918c0.041-0.175,0.07-0.301,0.04-0.471
		c-0.017-0.065-0.152-0.23-0.233-0.329c-0.235-0.288-0.529-0.646-0.48-1.125c0.029-0.295,0.184-0.558,0.458-0.781
		c0.257-0.21,0.575-0.322,0.92-0.322c0.898,0,1.879,0.776,2.093,1.419c0.188,0.561,0.34,0.779,0.542,0.779
		c0.178,0,0.525-0.248,0.832-0.468c0.392-0.279,0.835-0.597,1.361-0.771c0.567-0.189,1.211-0.478,1.633-0.697
		c-0.569-0.52-1.576-1.407-2.431-2.153c-0.286,0.151-0.726,0.176-1.065-0.05c-0.506-0.337-0.396-0.912-0.329-1.256
		c0.068-0.357,0.067-0.465-0.006-0.522c-0.559-0.448-1.131-1.201-0.903-1.849c0.063-0.18,0.283-0.597,0.961-0.597
		c1.168,0,1.753,0.16,2.019,0.553c0.148,0.221,0.176,0.492,0.074,0.747c-0.043,0.108-0.099,0.206-0.153,0.296
		c0.482,0.194,0.731,0.557,0.919,0.83c0.162,0.236,0.264,0.375,0.449,0.454c0.028,0.013,0.061,0.019,0.1,0.019
		c0.359,0,0.928-0.433,1.303-0.719c0.104-0.08,0.202-0.153,0.289-0.215c0.592-0.425,1.153-0.71,2.069-1.054
		c0.193-0.072,0.368-0.149,0.521-0.216c0.327-0.143,0.563-0.246,0.803-0.246c0.232,0,0.441,0.102,0.573,0.279
		c0.23,0.31,0.12,0.675,0.079,0.812c-0.078,0.255-0.232,0.533-0.396,0.828c-0.051,0.09-0.116,0.209-0.18,0.332
		c0.178-0.119,0.398-0.234,0.68-0.302c0.235-0.057,0.623-0.243,0.965-0.408c0.559-0.27,1.042-0.503,1.434-0.503
		c0.385,0,0.586,0.208,0.671,0.333l0.007,0.01c0.064-0.177,0.126-0.354,0.173-0.487c0.05-0.145,0.098-0.279,0.139-0.392
		c0.332-0.912,2.693-1.516,3.561-1.516c0.396,0,0.684,0.09,0.882,0.276c0.154,0.146,0.201,0.146,0.246,0.146
		c0.212,0,0.658-0.19,0.976-0.334c0.483-0.219,1.827-1.094,3.013-1.866c2.387-1.555,2.93-1.878,3.275-1.915
		c0.266-0.143,0.896-0.935,0.981-1.197c0.064-0.206,0.192-0.438,0.327-0.683c0.071-0.13,0.178-0.324,0.238-0.46
		c-0.15-0.252-0.211-0.586-0.153-0.911c0.08-0.452,0.364-0.803,0.782-0.966c0.071-0.089,0.168-0.367,0.227-0.536
		c0.165-0.478,0.371-1.071,0.95-1.204c0.084-0.02,0.166-0.029,0.245-0.029c0.267,0,0.447,0.11,0.546,0.178
		c0.078-0.021,0.271-0.089,0.669-0.32c0.62-0.362,0.85-0.857,1.053-1.294c0.202-0.437,0.486-1.06,1.225-0.968l0.084,0.01
		c0.001-0.016,0.001-0.029,0.002-0.04c0.022-0.429,0.03-0.919,0.028-1.275c-0.41-0.036-0.756-0.283-0.958-0.688
		c-0.238-0.476-0.177-0.88,0.18-1.208c-0.024-0.009-0.048-0.018-0.069-0.026c-0.596-0.228-1.593-0.609-1.291-1.458l0.022-0.063
		c0.104-0.29,0.228-0.638,0.278-0.829c-0.021-0.028-0.044-0.058-0.063-0.082c-0.232-0.3-0.583-0.754-0.394-1.259
		c0.02-0.052,0.078-0.208-0.322-0.581c-0.529-0.491-0.788-1.234-0.616-1.767c0.104-0.323,0.356-0.539,0.673-0.579
		c0.024-0.003,0.066-0.005,0.091-0.005c0.483,0,0.745,0.418,0.976,0.787c0.079,0.127,0.209,0.335,0.283,0.4
		c0.237,0.079,1.335,0.473,1.682,1.134c0.062-0.109,0.126-0.228,0.182-0.33c0.539-0.986,1.21-2.213,2.214-2.213
		c0.113,0,0.227,0.016,0.336,0.049c1.316,0.391,1.581,1.026,1.581,1.925c0,0.418-0.147,1.17-0.285,1.735
		c-0.216,0.884-0.378,1.249-0.498,1.425c0.595-0.071,1.367-0.291,1.854-0.497c0.512-0.216,0.791-0.297,1.031-0.297
		c0.579,0,0.759,0.462,0.826,0.635c0.007,0.02,0.015,0.039,0.023,0.06c0.053,0.015,0.221,0.017,0.379-0.026
		c0.39-0.106,0.737,0.092,0.844,0.416c0.239-0.106,0.436-0.195,0.555-0.255l0.181-0.093c3.668-1.894,6.676-2.962,8.749-3.114
		c-0.322-0.472-0.628-1.057-0.731-1.677c-0.232-1.394,0.86-4.233,0.986-4.553c0.063-0.161,0.192-0.287,0.354-0.346
		c0.163-0.058,0.343-0.044,0.494,0.04c-0.001,0-0.001,0-0.001,0c0.001,0,0.174,0.083,0.417,0.083l0,0
		c0.281,0,0.554-0.111,0.809-0.331c0.003-0.004,0.016-0.019,0.028-0.034l0.057-0.063c0.419-0.463,0.794-1.495,0.975-1.991
		c0.038-0.104,0.067-0.185,0.093-0.25c-0.029-0.084-0.074-0.2-0.11-0.293c-0.194-0.498-0.436-1.118-0.342-1.626
		c0.037-0.201,0.008-0.681-0.603-1.633c-0.625-0.97,0.107-2.732,0.598-3.365c-0.041-0.256-0.239-0.807-0.352-1.12
		c-0.218-0.604-0.341-0.96-0.341-1.238c0-0.642,0.741-1.453,2.201-2.818c0.05-0.048,0.062-0.073,0.062-0.073
		c-0.013-0.051-0.158-0.24-0.236-0.343c-0.184-0.24-0.742-0.97-0.055-1.521l0.407-0.325c0.182-0.442,0.732-1.8,0.991-2.529
		c0.026-0.075,0.033-0.121,0.035-0.144c-0.022-0.023-0.065-0.06-0.096-0.086c-0.177-0.149-0.505-0.428-0.505-0.947
		c0-0.596,0.289-1.257,0.521-1.787c0.041-0.095,0.079-0.183,0.112-0.262c-0.023-0.168-0.31-0.588-0.502-0.868
		c-0.139-0.204-0.282-0.415-0.416-0.637c-0.022-0.037-2.014-3.387-1.342-4.649c-0.168-0.175-0.485-0.425-0.676-0.574
		c-0.556-0.438-0.961-0.756-1.024-1.184c-0.102-0.29-0.883-1.336-1.562-2.147c-0.128-0.152-0.171-0.359-0.116-0.551
		c0.229-0.793,0.454-1.786,0.462-2.139c-0.138-0.202-0.293-0.569-0.626-1.392c-0.279-0.69-0.793-1.959-1.038-2.236
		c-0.633-0.322-2.102-1.756-2.723-2.377c-0.11-0.11-0.174-0.261-0.176-0.418l-0.361-32.979c-1.182,0.255-3.492,0.718-4.652,0.718
		c-0.149,0-0.277-0.008-0.392-0.022c-1.313-0.171-2.227-1.043-2.467-1.365c-0.001-0.001-0.002-0.003-0.003-0.004
		c-0.104-0.034-0.273-0.082-0.428-0.125c-0.476-0.134-1.194-0.336-1.971-0.665c-0.311-0.132-0.743-0.295-1.2-0.469
		c-2.301-0.87-3.833-1.5-4.151-2.294c-0.205-0.512-1.364-1.077-1.745-1.263l-0.136-0.067c-0.196-0.098-0.491-0.32-1.038-0.738
		c-0.446-0.341-1.336-1.021-1.694-1.188c-0.241,0.137-0.749,0.607-1.064,0.9c-0.874,0.81-1.438,1.306-1.98,1.306
		c-0.049,0-0.096-0.004-0.141-0.011c-0.452-0.076-1.417-0.563-2.731-1.242c-0.35-0.182-0.772-0.4-0.963-0.487
		c-0.173,0.043-0.599,0.184-0.92,0.29c-0.87,0.288-1.479,0.48-1.862,0.493c-0.097,0.072-0.256,0.334-0.335,0.464
		c-0.201,0.329-0.429,0.701-0.871,0.701c-0.222,0-0.518-0.099-1.305-0.38c-0.313-0.111-0.777-0.277-0.931-0.311
		c-0.075,0.018-0.284,0.12-0.438,0.195c-0.307,0.15-0.688,0.338-1.117,0.43c-0.178,0.038-0.369,0.075-0.561,0.113
		c-0.305,0.061-0.73,0.145-0.974,0.212c-0.011,0.078-0.021,0.168-0.029,0.238c-0.074,0.639-0.151,1.299-0.702,1.483
		c-0.341,0.112-0.748-0.003-1.118-0.125c-0.071-0.023-0.161-0.054-0.24-0.076c-0.031,0.051-0.065,0.107-0.093,0.152
		c-0.218,0.366-0.549,0.92-1.173,0.976c-0.029,0.003-0.062,0.004-0.093,0.004c-0.565,0.001-1.037-0.45-1.493-0.887
		c-0.247-0.237-0.528-0.506-0.73-0.6c-0.112-0.051-0.258-0.116-0.423-0.189c-1.971-0.878-2.455-1.176-2.595-1.596
		c-0.092-0.272-0.024-0.536,0.031-0.734c-0.223,0.15-0.531,0.417-0.723,0.582c-0.503,0.435-0.835,0.723-1.229,0.723
		c-0.286,0-0.644-0.118-1.199-0.312c-0.288-0.101-0.771-0.269-0.916-0.27c-0.663,0-0.905-0.695-1.101-1.254
		c-0.02-0.056-0.043-0.122-0.067-0.19c-0.08,0.175-0.158,0.365-0.214,0.5c-0.314,0.764-0.542,1.314-1.108,1.314
		c-0.081,0-0.176-0.007-0.275-0.016c-0.077-0.007-0.158-0.016-0.241-0.015c-0.037,0.434-0.281,2.623-1.335,2.623
		c-0.544,0-1.688-0.724-2.185-1.383c-0.381-0.505-0.372-0.921-0.298-1.181c0.026-0.093,0.057-0.191,0.089-0.296
		c0.076-0.245,0.226-0.725,0.221-0.952c-0.264,0.003-0.836,0.452-1.214,0.749c-0.598,0.469-1.113,0.874-1.66,0.874
		c-0.235,0-0.454-0.078-0.631-0.226c-0.506-0.421-0.634-1.049-0.727-1.508c-0.021-0.102-0.049-0.241-0.075-0.332
		c-0.045-0.005-0.111-0.009-0.205-0.009c-0.49,0-1.137,0.122-1.144,0.123c-0.281,0.054-0.563-0.1-0.669-0.366
		c-0.271-0.673-0.714-1.374-0.949-1.514c-0.303,0.143-1.016,0.843-1.452,1.271c-1.016,0.999-1.572,1.52-2.124,1.52
		c-0.434,0-2.56-0.365-2.56-1.342c0-0.243,0.118-0.445,0.254-0.68c0.067-0.117,0.215-0.371,0.239-0.504
		c-0.047-0.008-0.126-0.016-0.254-0.016c-0.098,0-0.199,0.004-0.302,0.008c-0.118,0.004-0.236,0.008-0.353,0.008
		c-0.309,0-1.246,0-1.515-0.861c-0.123-0.391-0.122-0.813-0.122-1.222c0.001-0.656-0.02-1.069-0.301-1.28
		c-0.142-0.106-0.24-0.121-0.318-0.121c-0.137,0-0.302,0.05-0.492,0.107c-0.263,0.079-0.56,0.168-0.908,0.168
		c-0.148,0-0.297-0.017-0.439-0.051c-0.773-0.183-1.138-0.214-1.29-0.216c-0.111,0.099-0.302,0.283-0.449,0.428
		c-0.92,0.895-1.369,1.287-1.812,1.287c-0.028,0-0.073-0.003-0.102-0.007c-0.373-0.053-0.651-0.367-1.247-1.073
		c-0.295-0.35-0.908-1.078-1.144-1.162c-0.015-0.003-0.04-0.006-0.067-0.006c-0.18,0-0.42,0.121-0.651,0.237
		c-0.308,0.154-0.625,0.314-0.989,0.314c-0.329,0-4.041-0.932-4.975-1.813c-0.178,0.001-0.459,0.041-0.755,0.084
		c-0.411,0.06-0.877,0.126-1.308,0.126c-0.853,0-1.397-0.282-1.62-0.839c-0.169-0.423-0.282-1.016-0.402-1.643
		c-0.113-0.592-0.32-1.678-0.535-1.919c-0.543-0.126-1.182-0.519-1.637-0.838c-0.347,0.574-0.797,1.072-1.314,1.072
		c-0.317,0-0.649-0.133-1.034-0.285c-0.307-0.122-0.647-0.258-0.922-0.293c-0.078,0.67-0.441,1.01-1.081,1.01
		c-0.061,0-0.126-0.004-0.198-0.011c-0.76-0.076-1.528-1.024-2.721-2.565c-0.562-0.726-1.501-1.94-1.844-2.05
		c-0.946-0.19-1.411-0.103-1.414-0.103c-0.177,0.03-0.362-0.022-0.497-0.143c-0.135-0.119-0.212-0.292-0.204-0.473l1.616-40.223
		l-49.4-2.828l-7.738,94.497c-0.014,0.16-0.09,0.308-0.212,0.41c-0.122,0.104-0.282,0.152-0.44,0.139l-63.378-5.755
		c-0.063,0.237-0.143,0.615-0.208,1.178c-0.082,0.693,1.124,1.49,1.721,1.768c0.176,0.081,0.295,0.238,0.334,0.417
		c1.776,1.131,2.548,2.092,2.584,2.138c0.067,0.086,0.11,0.188,0.124,0.298l0.15,1.194c0.686,1.737,1.54,3.364,1.878,3.571
		c0.81,0.323,3.874,2.359,4.221,2.59c0.116,0.078,0.201,0.193,0.241,0.327c0.004,0.013,0.455,1.435,1.865,2.563
		c1.034,0.828,2.289,2.65,3.396,4.259c0.639,0.928,1.241,1.803,1.576,2.138c0.263,0.264,0.506,0.54,0.763,0.832
		c0.688,0.781,1.397,1.589,2.594,2.241c1.06,0.578,1.997,1.421,2.825,2.165c0.593,0.532,1.151,1.034,1.652,1.347l1.27,0.794
		c0.056,0.035,0.105,0.078,0.146,0.129c0.157,0.192,1.535,1.902,1.716,2.981c0.275,1.645,1.213,5.135,1.857,5.672
		c1.304,1.088,0.818,3.976,0.32,4.998c-0.207,0.875,1.856,7.181,3.848,9.173c0.805,0.804,1.442,1.671,2.059,2.51
		c1.005,1.367,1.955,2.659,3.538,3.591c2.61,1.534,6.511,2.792,6.55,2.805c0.045,0.014,0.089,0.034,0.13,0.06
		c0.788,0.481,2.945,1.787,3.447,2.038c0.215,0.107,0.458,0.335,0.988,0.838c1.121,1.063,3.208,3.044,4.811,3.044
		c0.2,0,0.381-0.031,0.552-0.095c0.964-0.361,1.351-0.961,1.799-1.655c0.563-0.874,1.198-1.856,2.94-2.384
		c0.146-1.285,0.666-5.164,1.789-6.989c0.184-0.299,0.358-0.592,0.525-0.873c1.029-1.729,1.918-3.224,3.479-3.224h4.149
		c0.313-1.033,1.052-2.881,2.342-2.881c0.108,0,0.217,0.014,0.324,0.04c0.839,0.21,1.405,0.924,1.904,1.555
		c0.363,0.457,0.738,0.93,1.053,0.975c0.195,0.028,0.537,0.09,0.979,0.17c1.531,0.277,4.382,0.795,6.301,0.795
		c0.744,0,1.139-0.08,1.339-0.146c0.436-0.146,0.917-0.219,1.431-0.219c1.854,0,3.699,0.922,4.196,1.749
		c2.601,4.339,3.302,4.802,3.373,4.84c0.544,0.217,0.882,0.827,1.272,1.532c0.361,0.653,0.771,1.394,1.301,1.658
		c1.375,0.688,3.539,2.838,3.922,3.604c0.108,0.218,0.344,0.765,0.669,1.522c0.536,1.247,1.533,3.568,1.814,3.943
		c0.194,0.259,0.407,0.862,0.965,2.521c0.563,1.676,1.88,5.588,2.537,5.998c1.081,0.283,1.106,1.179,1.127,1.899
		c0.019,0.629,0.039,1.343,0.502,2.203c0.28,0.521,0.527,1.042,0.766,1.546c0.655,1.386,1.221,2.582,2.013,2.759
		c1.181,0.262,2.395,2.58,3.86,5.583c0.379,0.777,0.771,1.582,0.924,1.773c1.172,1.464,3.134,3.371,3.668,3.428
		c1.313-0.001,4.087,2.56,4.087,4.569c0,0.953-0.355,1.788-0.642,2.46c-0.138,0.323-0.347,0.813-0.313,0.954
		c0.435,0.424,0.471,1.36,0.495,2.978c0.013,0.851,0.036,2.435,0.285,2.715c0.571,0.57,1.725,1.951,2.741,3.17
		c0.424,0.508,0.813,0.974,1.1,1.309c0.442,0.515,0.563,1.449,0.732,2.743c0.27,2.067,0.604,4.642,2.371,5.348
		c1.321,0.528,2.565,1.374,3.663,2.119c1.313,0.891,2.552,1.732,3.485,1.732c0.14,0,0.268-0.019,0.392-0.057
		c0.478-0.146,0.92-0.219,1.353-0.219c1.679,0,3.104,1.068,5.691,3.009c2.185,1.639,4.721,1.828,6.438,1.828
		c0.422,0,0.813-0.013,1.16-0.022C180.687,253.056,180.948,253.048,181.176,253.048z M185.388,227.782l0.037,0.009
		c0.343-0.032,1.498-0.131,2.448-0.131c0.181,0,0.345,0.003,0.492,0.011c-0.154-0.263-0.237-0.652-0.246-1.168
		c-0.004-0.172-0.014-0.333-0.03-0.481c-0.32,0.386-1.057,1.148-1.971,1.301c-0.165,0.027-0.324,0.022-0.473-0.005
		c-0.006,0.031-0.014,0.063-0.023,0.095C185.598,227.492,185.556,227.627,185.388,227.782z M194.744,211.403
		c0.056,0.072,0.131,0.152,0.202,0.218c0.208-0.16,0.521-0.435,0.729-0.618c0.559-0.491,0.846-0.737,1.091-0.834
		c-0.01-0.025-0.019-0.051-0.026-0.076C196.087,210.464,195.134,211.07,194.744,211.403z M197.877,209.299
		c0.005,0.075,0.003,0.146,0.001,0.206c-0.002,0.033-0.003,0.078-0.003,0.122c0.021-0.025,0.04-0.053,0.055-0.078l-0.008-0.061
		C197.907,209.435,197.892,209.371,197.877,209.299z M205.685,200.304c0.144,0,0.284,0.048,0.393,0.142
		c0.064,0.056,0.127,0.11,0.188,0.164c-0.021-0.031-0.043-0.062-0.063-0.091c-0.186-0.271-0.267-0.369-0.44-0.417
		c-0.051-0.014-0.135-0.037-0.232-0.078c0,0.107-0.01,0.211-0.022,0.306c0.035-0.011,0.07-0.018,0.106-0.021
		C205.638,200.305,205.661,200.304,205.685,200.304z M204.72,198.622c0.069,0.083,0.156,0.174,0.261,0.262
		c0.028-0.083,0.066-0.161,0.105-0.233C204.989,198.639,204.869,198.629,204.72,198.622z"/>
</g>
</svg>
