<?xml version="1.0" encoding="iso-8859-1"?>
<!-- Generator: Adobe Illustrator 15.1.0, SVG Export Plug-In . SVG Version: 6.00 Build 0)  -->
<!DOCTYPE svg PUBLIC "-//W3C//DTD SVG 1.1//EN" "http://www.w3.org/Graphics/SVG/1.1/DTD/svg11.dtd">
<svg version="1.1" id="Layer_1" xmlns="http://www.w3.org/2000/svg" xmlns:xlink="http://www.w3.org/1999/xlink" x="0px" y="0px"
	 width="288px" height="288px" viewBox="0 0 288 288" style="enable-background:new 0 0 288 288;" xml:space="preserve">
<g>
	<path d="M207.831,251.845c-0.032,0-0.064-0.003-0.097-0.008L59.021,227.481c-0.16-0.026-0.302-0.115-0.395-0.248
		s-0.128-0.297-0.098-0.456l0.053-0.28L94.154,36.872l0.031-0.166c0.062-0.324,0.375-0.539,0.698-0.479
		c43.211,7.944,83.286,14.735,83.686,14.803c0.321,0.055,0.54,0.355,0.493,0.678l-5.528,38.054l55.456,8.227
		c0.324,0.048,0.551,0.35,0.506,0.675l-21.07,152.664c-0.021,0.16-0.107,0.305-0.238,0.4
		C208.084,251.805,207.959,251.845,207.831,251.845z M59.821,226.396l147.5,24.156l20.905-151.465l-55.461-8.227
		c-0.326-0.049-0.553-0.353-0.505-0.68l5.53-38.066c-5.056-0.858-42.367-7.22-82.537-14.6L59.821,226.396z"/>
</g>
</svg>
