<?xml version="1.0" encoding="iso-8859-1"?>
<!-- Generator: Adobe Illustrator 15.1.0, SVG Export Plug-In . SVG Version: 6.00 Build 0)  -->
<!DOCTYPE svg PUBLIC "-//W3C//DTD SVG 1.1//EN" "http://www.w3.org/Graphics/SVG/1.1/DTD/svg11.dtd">
<svg version="1.1" id="Layer_1" xmlns="http://www.w3.org/2000/svg" xmlns:xlink="http://www.w3.org/1999/xlink" x="0px" y="0px"
	 width="288px" height="288px" viewBox="0 0 288 288" style="enable-background:new 0 0 288 288;" xml:space="preserve">
<g>
	<path d="M137.904,250.33h-0.011c-0.201,0-0.389-0.101-0.5-0.269l-0.02-0.03l-3.538-4.777c-0.054-0.073-0.09-0.156-0.106-0.245
		l-11.219-58.731c-4.639-4.196-5.81-5.865-6.074-6.589c-0.808,0.21-2.521,1.131-2.885,1.589c-0.136,0.169-0.271,0.895-0.353,1.328
		c-0.188,1.013-0.353,1.889-1.108,1.889l0,0c-0.542,0-0.868-0.539-1.139-1.12c-0.857-1.833-0.545-7.972-0.186-13.582
		c0.068-1.059,0.122-1.895,0.12-2.188c0-0.491-0.902-1.416-1.561-2.092c-0.945-0.97-1.762-1.808-1.755-2.669l-0.001-0.066
		c-0.009-1.214-0.031-4.058-1.625-6.228c-1.062-1.437-1.593-3.885-2.062-6.045c-0.269-1.239-0.604-2.78-0.896-3.068
		c-0.208-0.21-0.563-0.427-0.937-0.655c-1.119-0.686-2.812-1.72-2.233-3.888c0.402-1.516,0.683-6.049,0.868-9.049
		c0.14-2.262,0.18-2.812,0.25-3.024c0.06-0.181,0.227-0.48,0.632-1.202c0.523-0.932,2.116-3.768,2.038-4.386
		c-0.057-0.285-0.761-1.377-1.326-2.255c-2.063-3.202-3.443-5.552-2.404-6.643c0.944-0.999,1.337-4.265,1.349-5.541
		c-0.274-0.689-2.974-4.036-4.953-6.49c-3.923-4.862-4.563-5.737-4.563-6.244c0.011-0.766,0.855-5.22,1.078-6.385
		c-0.588-0.994-2.345-4.058-2.345-5.18c0-0.706,0.548-1.507,1.182-2.434c0.532-0.779,1.195-1.748,1.195-2.32
		c0-0.39-0.937-0.814-1.688-1.155c-0.964-0.437-1.96-0.888-2.488-1.679c-0.759-1.138-0.886-4.151-0.974-7.973
		c-0.021-0.919-0.04-1.788-0.078-2.466c-0.135-2.414-0.856-3.028-0.864-3.034c-0.196-0.131-0.287-0.357-0.247-0.591
		c0.039-0.233,0.224-0.414,0.452-0.473L192.06,37.148c0.223-0.059,0.459,0.017,0.608,0.192c0.148,0.176,0.184,0.422,0.09,0.632
		c-0.146,0.327-0.249,0.932,0.247,2.718c0.533,1.932,1.23,2.994,1.791,3.848c0.52,0.792,0.968,1.476,0.961,2.447
		c0.001,0.061-0.217,6.528-1.45,7.612c-0.144,0.557,0.085,2.849,0.404,4.741c0.033,0.2-0.036,0.403-0.186,0.541l-2.277,2.1
		c1.587,1.495,6.625,6.325,8.104,8.719c0.068,0.109,0.099,0.238,0.088,0.367l-0.346,3.996c-0.006,0.068-0.023,0.137-0.053,0.199
		c-0.28,0.607-0.569,1.13-0.76,1.458c0.129,0.171,0.294,0.396,0.471,0.654c0.079,0.115,0.115,0.253,0.104,0.392l-0.386,4.396
		c-0.014,0.157-0.089,0.302-0.209,0.404c-1.744,1.485-2.005,2.162-2.005,2.434c0,0.32,0.085,0.847,0.176,1.403
		c0.26,1.607,0.394,2.704-0.104,3.289c-0.193,0.228-0.47,0.354-0.776,0.354c-0.064,0-0.132-0.006-0.203-0.018
		c-0.101-0.017-0.22-0.025-0.359-0.025c-1.514,0-3.785,0.845-4.036,1.708c-0.104,0.36-0.137,0.895-0.172,1.459
		c-0.096,1.544-0.229,3.658-2.134,4.229c-0.248,0.074-0.584,0.167-0.984,0.277c-2.545,0.7-9.304,2.562-9.794,5.177
		c-0.4,2.137,0.103,4.975,0.547,7.479c0.23,1.306,0.449,2.539,0.521,3.566c0.132,1.791,1.713,3.672,2.758,4.917
		c0.743,0.885,1.045,1.26,1.045,1.669c0,0.62-1.881,6.12-3.086,9.581c0.807,0.926,3.037,3.756,2.2,5.851
		c-0.42,1.054-1.301,1.71-2.154,2.344c-1.041,0.775-1.941,1.444-1.969,2.733c-0.021,1.099,0.305,2.737,0.62,4.321
		c0.563,2.83,0.878,4.609,0.288,5.501c-0.204,0.303-0.501,0.707-0.845,1.175c-1.02,1.388-2.727,3.71-2.871,4.699
		c-0.168,1.173-0.046,8.102,0.016,10.672c0.007,0.281-0.183,0.529-0.455,0.597c-0.202,0.055-2.014,0.621-1.671,3.358
		c0.094,0.727,0.192,1.9,0.317,3.387c0.221,2.624,0.495,5.89,0.908,8.665c0.639,4.289,1.264,4.882,1.38,4.957
		c0.283,0.008,0.542,0.126,0.752,0.345c0.954,0.993,0.895,4.274,0.684,9.562c-0.096,2.383-0.226,5.646,0.076,6.163
		c1.015,1.223,1.453,6.843,1.575,8.774c0.692,0.222,1.952,0.761,2.281,1.806c0.225,0.713-0.018,1.464-0.719,2.23
		c-2.615,2.887-3.814,5.346-3.521,5.837c0.451,0.75,0.595,2.79,0.749,5.59c0.051,0.924,0.104,1.879,0.163,2.148
		c0.309,0.65,3.875,4.539,7.171,7.95c0.108,0.111,0.169,0.261,0.169,0.417c0,0.28-0.195,0.527-0.469,0.589l-47.294,10.581
		C137.992,250.325,137.948,250.33,137.904,250.33z M134.882,244.649l3.266,4.411l45.881-10.265c-3.12-3.248-6.538-6.938-6.729-7.704
		c-0.086-0.333-0.131-1.089-0.202-2.396c-0.086-1.566-0.247-4.483-0.581-5.038c-1.1-1.848,2.859-6.373,3.664-7.262
		c0.271-0.296,0.569-0.719,0.462-1.062c-0.179-0.57-1.318-1.001-1.842-1.119c-0.262-0.06-0.453-0.285-0.468-0.553
		c-0.172-3.075-0.701-7.752-1.337-8.52c-0.537-0.642-0.519-2.516-0.341-6.961c0.111-2.797,0.318-7.971-0.327-8.661
		c-1.839-0.104-2.563-4.854-3.393-14.719c-0.119-1.413-0.222-2.634-0.313-3.336c-0.336-2.679,1.043-4.024,2.106-4.509
		c-0.041-1.874-0.186-9.098,0.007-10.441c0.174-1.188,1.562-3.156,3.091-5.238c0.337-0.457,0.627-0.853,0.814-1.131
		c0.345-0.521-0.125-2.878-0.467-4.601c-0.328-1.646-0.666-3.349-0.643-4.578c0.039-1.878,1.321-2.831,2.452-3.673
		c0.752-0.559,1.462-1.087,1.756-1.825c0.571-1.43-1.453-4.053-2.207-4.858c-0.152-0.163-0.202-0.397-0.129-0.608
		c1.135-3.252,2.936-8.554,3.123-9.468c-0.112-0.19-0.463-0.607-0.751-0.95c-1.145-1.363-2.875-3.423-3.036-5.603
		c-0.067-0.967-0.28-2.169-0.506-3.442c-0.462-2.605-0.985-5.558-0.545-7.909c0.628-3.353,7.4-5.217,10.654-6.113
		c0.39-0.107,0.716-0.196,0.959-0.27c1.025-0.308,1.178-1.502,1.281-3.154c0.039-0.633,0.076-1.229,0.217-1.717
		c0.497-1.716,3.594-2.576,5.188-2.576c0.164,0,0.315,0.01,0.453,0.027c0.1-0.417-0.089-1.583-0.195-2.234
		c-0.098-0.606-0.19-1.179-0.19-1.596c0-0.863,0.673-1.823,2.24-3.187l0.345-3.935c-0.303-0.43-0.549-0.733-0.552-0.736
		c-0.162-0.2-0.179-0.482-0.041-0.7c0.005-0.007,0.44-0.696,0.86-1.588l0.318-3.688c-1.802-2.739-8.202-8.688-8.269-8.749
		c-0.122-0.114-0.191-0.273-0.191-0.441c0-0.167,0.07-0.326,0.193-0.439l2.514-2.317c-0.767-4.713-0.277-5.396,0.109-5.579
		c0.408-0.73,0.986-4.917,0.975-6.653c0.004-0.616-0.286-1.058-0.766-1.789c-0.574-0.875-1.36-2.073-1.943-4.187
		c-0.29-1.044-0.425-1.831-0.408-2.462L88.093,65.31c0.305,0.593,0.61,1.557,0.696,3.093c0.039,0.697,0.059,1.575,0.08,2.505
		c0.059,2.547,0.146,6.396,0.771,7.334c0.338,0.506,1.176,0.885,1.985,1.252c1.177,0.533,2.394,1.085,2.394,2.248
		c0,0.943-0.714,1.987-1.405,2.997c-0.434,0.634-0.973,1.422-0.973,1.757c0,0.581,1.19,2.923,2.292,4.76
		c0.076,0.127,0.103,0.277,0.075,0.422c-0.404,2.094-1.037,5.549-1.096,6.308c0.305,0.623,2.51,3.356,4.292,5.566
		c4.342,5.383,5.221,6.591,5.221,7.181c0,0.924-0.299,4.97-1.68,6.43c-0.003,0.005-0.203,0.333,0.54,1.821
		c0.526,1.055,1.311,2.271,2.003,3.345c0.941,1.461,1.436,2.246,1.505,2.735c0.122,0.843-0.672,2.458-2.18,5.144
		c-0.222,0.396-0.472,0.841-0.533,0.979c-0.044,0.263-0.122,1.519-0.197,2.733c-0.199,3.229-0.473,7.652-0.906,9.283
		c-0.323,1.215,0.427,1.776,1.7,2.555c0.438,0.269,0.853,0.522,1.157,0.83c0.517,0.508,0.788,1.664,1.222,3.663
		c0.421,1.941,0.945,4.357,1.855,5.588c1.823,2.485,1.848,5.6,1.858,6.931l0.001,0.075c-0.004,0.377,0.85,1.252,1.414,1.831
		c0.978,1.003,1.901,1.95,1.901,2.926c0.002,0.332-0.05,1.144-0.122,2.269c-0.21,3.267-0.691,10.771,0,12.809
		c0.02-0.103,0.038-0.203,0.056-0.293c0.14-0.748,0.271-1.455,0.594-1.856c0.596-0.752,3.058-2.084,4.085-2.084
		c0.392,0,0.606,0.17,0.719,0.311c0.08,0.102,0.2,0.311,0.155,0.616c0.258,0.75,3.228,3.748,5.891,6.15
		c0.097,0.088,0.163,0.204,0.188,0.333L134.882,244.649z"/>
</g>
</svg>
