<?xml version="1.0" encoding="iso-8859-1"?>
<!-- Generator: Adobe Illustrator 15.1.0, SVG Export Plug-In . SVG Version: 6.00 Build 0)  -->
<!DOCTYPE svg PUBLIC "-//W3C//DTD SVG 1.1//EN" "http://www.w3.org/Graphics/SVG/1.1/DTD/svg11.dtd">
<svg version="1.1" id="Layer_1" xmlns="http://www.w3.org/2000/svg" xmlns:xlink="http://www.w3.org/1999/xlink" x="0px" y="0px"
	 width="288px" height="288px" viewBox="0 0 288 288" style="enable-background:new 0 0 288 288;" xml:space="preserve">
<g>
	<g>
		<path d="M-1.16,225.861c-0.228,0-0.439-0.13-0.541-0.34c-0.111-0.234-0.061-0.514,0.126-0.693
			c2.563-2.456,4.574-3.819,5.977-4.053c1.82-0.304,2.655-0.955,3.463-1.584c0.524-0.409,1.02-0.795,1.712-1.026
			c1.361-0.454,5.665-1.977,6.757-2.363c2.352-5.741,3.057-5.741,3.438-5.741c0.74-0.042,5.542-1.895,5.542-3.438v-3.16
			c0-0.207,0.106-0.399,0.282-0.509c1.678-1.049,4.182-2.902,4.496-3.739c0.049-0.129,0.046-0.188-0.34-0.569
			c-0.325-0.32-0.77-0.76-0.76-1.441c0.008-0.628,0.406-1.289,1.252-2.078c1.214-1.133,3.378-2.194,5.668-3.318
			c2.552-1.252,5.444-2.671,5.949-3.851c1.083-2.528,10.932-12.901,11.351-13.342c0.212-0.223,0.558-0.25,0.801-0.062
			c2.413,1.862,3.55,3.207,3.38,3.996c-0.349,1.633,0.309,2.054,0.833,2.229c0.87,0.289,1.379,0.802,1.828,1.254
			c0.475,0.478,0.849,0.855,1.608,1.008c0.221,0.044,0.45,0.064,0.725,0.064c0.226,0,0.451-0.014,0.69-0.028
			c0.247-0.015,0.504-0.03,0.77-0.03c0.949,0,2.113,0.182,3.55,1.522c1.337,1.249,2.164,1.758,2.856,1.758
			c0.45,0,0.914-0.217,1.504-0.704c0.641-0.53,1.022-1.104,1.359-1.609c0.508-0.762,1.033-1.55,2.229-1.682
			c0.483-0.055,1.161-1.61,1.524-2.446c0.563-1.295,0.937-2.15,1.684-2.15c0.153,0,0.383,0.043,0.604,0.249
			c0.672,0.627,2.978,2.491,3.933,3.26c0.633-0.561,2-1.504,4.336-1.893c0.94-0.157,1.736-0.242,2.438-0.316
			c1.634-0.174,2.619-0.278,3.6-1.077c1.271-1.036,1.368-3.164,1.03-4.344c-0.148-0.521-0.035-1.082,0.311-1.539
			c0.428-0.567,1.139-0.905,1.902-0.905c0.686,0,1.351,0.269,1.922,0.777c0.43,0.381,0.827,0.565,1.216,0.565
			c0.666,0,1.371-0.524,2.223-1.21l1.404-1.131c0.106-0.086,0.24-0.133,0.377-0.133h0.308c0.458-1.004,1.649-3.244,3.159-3.244
			c0.219,0,0.434,0.046,0.638,0.137c0.903,0.401,1.515,1.218,2.005,1.874c0.138,0.184,0.31,0.414,0.439,0.556
			c0.315-0.407,0.928-1.37,1.478-2.234c1.369-2.15,2.008-3.098,2.444-3.494c-0.223-0.527-0.637-1.569,0.162-2.368l0.682-0.682
			c-0.128-1.414-0.441-2.814-0.716-3.212c-0.228,0.141-0.402,0.201-0.578,0.201c-0.241,0-0.458-0.12-0.581-0.321
			c-0.278-0.457-0.007-0.987,0.8-2.561c0.373-0.729,0.798-1.557,1.144-2.365c0.278-0.649,0.531-1.452,0.824-2.383
			c0.79-2.506,1.771-5.624,4.021-8.138c2.406-2.688,2.514-6.16,2.6-8.949c0.016-0.489,0.029-0.956,0.056-1.393
			c0.118-2.004,1.54-3.237,2.577-4.138c0.545-0.474,1.108-0.962,1.108-1.269c0-1.299,0.655-3.06,1.289-4.762
			c0.111-0.296,0.221-0.592,0.327-0.884c0.668-1.84,1.017-5.302,1.017-6.642c0-0.933,0-3.771,1.854-3.771
			c0.075,0,0.154,0.006,0.235,0.018c0.215,0.03,0.446,0.05,0.69,0.07c1.136,0.096,2.549,0.215,3.42,1.608
			c0.24,0.385,0.452,0.788,0.657,1.179c0.528,1.005,1.027,1.955,1.853,2.265c0.863,0.323,3.315,0.63,5.045,0.63
			c0.691,0,1.002-0.051,1.124-0.079c0.85-1.061,3.729-10.631,3.729-11.924c0-0.331,0.269-0.6,0.6-0.6h1.507v-5.721
			c0-0.078,0.015-0.156,0.045-0.229l1.229-2.982c0.078-0.188,0.245-0.324,0.445-0.361c0.198-0.038,0.405,0.029,0.545,0.177
			c1.443,1.522,3.009,2.855,3.628,3.106c0.263-0.473,0.632-1.906,0.909-2.982c0.922-3.581,1.636-5.929,3.101-5.929h1.393
			c0.104-0.792,0.363-2.202,0.949-2.935c0.305-0.382,0.685-0.547,1.021-0.693c0.611-0.268,1.243-0.543,1.669-2.565
			c0.436-2.072,1.858-3.629,2.897-4.765c0.465-0.509,1.167-1.277,1.133-1.521c-0.034-0.235-0.13-0.562-0.24-0.94
			c-0.416-1.424-1.044-3.577,0.373-5.315c0.767-0.94,0.341-3.106,0.029-4.688c-0.292-1.482-0.484-2.462-0.035-3.029
			c0.1-0.126,0.286-0.273,0.613-0.273c1.866,0,15.74,8.271,20.106,10.901c0.307-2.038,1.035-7.002,1.082-8.537
			c0.005-0.186,0.097-0.358,0.246-0.468c0.15-0.108,0.342-0.142,0.521-0.091c1.962,0.57,3.295,0.838,3.986,0.762
			c2.279-0.255,6.636,0.73,7.205,3.273c0.233,1.052-0.342,2.115-0.85,3.054c-0.279,0.515-0.7,1.293-0.579,1.531
			c0.053,0.104,0.326,0.252,0.923,0.332c0.854,0.114,1.813,0.158,2.74,0.201c2.999,0.139,6.101,0.282,7.311,2.701l0.131,0.263
			c0.423,0.847,0.678,1.357,0.904,1.522c0.184,0.134,0.539,0.146,1.326,0.158c0.47,0.008,1.055,0.018,1.818,0.065
			c4.104,0.259,5.949,5.948,5.949,7.387c0,0.74-0.306,2.017-0.63,3.369c-0.223,0.93-0.453,1.892-0.551,2.566
			c-0.037,0.26-0.239,0.465-0.498,0.507c-0.029,0.005-3.001,0.513-4.071,2.5c-1.506,2.8-3.248,9.055-1.786,9.981
			c0.637,0.405,1.099,0.807,1.505,1.162c0.695,0.606,1.116,0.973,1.951,0.973c0.33,0,0.713-0.056,1.168-0.17
			c1.98-0.495,3-2.424,3.608-3.575c0.173-0.328,0.311-0.586,0.445-0.766c0.164-0.22,0.408-0.341,0.687-0.341
			c0.172,0,0.694,0,1.635,1.085c0.607,0.699,1.715,2.309,1.561,3.388c-0.037,0.261,0.606,0.881,1.033,1.291
			c0.869,0.837,1.854,1.785,1.592,2.967c-0.13,0.585-0.377,1.044-0.574,1.376c0.005,0,0.01,0,0.015,0
			c0.454,0,1.269-0.117,2.131-0.242c1.239-0.18,2.645-0.382,3.824-0.382c0.874,0,2.094,0.094,2.602,0.906
			c0.026,0.043,0.077,0.123,0.358,0.123c0.4,0,0.973-0.167,1.578-0.344c0.75-0.219,1.6-0.467,2.391-0.467
			c0.671,0,1.237,0.181,1.683,0.537c0.884,0.707,2.091,1.735,3.259,2.73c1.162,0.989,2.364,2.013,3.235,2.71
			c1.521,1.217,4.742,1.954,6.536,2.153l1.58,0.176c0.207,0.022,0.388,0.151,0.477,0.34c0.119,0.252,1.151,2.503,0.59,3.816
			c-0.182,0.426-0.507,0.727-0.942,0.871c-0.193,0.064-0.412,0.098-0.65,0.098c-0.883,0-1.977-0.442-3.034-0.87
			c-0.737-0.298-1.497-0.604-1.964-0.656c0.395,0.4,1.411,1.024,2.003,1.388c1.372,0.842,2.036,1.272,2.146,1.847
			c0.04,0.21-0.003,0.418-0.122,0.591c-0.121,0.387,0.267,2.004,0.524,3.078c0.271,1.133,0.553,2.305,0.628,3.21
			c0.045,0.537-0.091,1.013-0.394,1.383c0.933,0.062,1.759,0.279,1.952,0.96c0.252,0.883-0.352,1.634-0.836,2.237
			c-0.148,0.186-0.362,0.451-0.435,0.604c0.256,0.156,0.812,0.3,1.35,0.438c1.532,0.396,3.631,0.938,3.631,2.853
			c0,0.649,0.331,1.416,0.624,2.093c0.404,0.936,0.786,1.818,0.357,2.521c-0.267,0.437-0.771,0.674-1.542,0.725
			c-1.418,0.093-2.593-0.855-3.623-1.689c-0.751-0.607-1.46-1.182-2.042-1.182c-0.226,0-0.436,0.087-0.662,0.275
			c-0.975,0.813-0.972,1.125-0.972,1.129c0.03,0.056,0.24,0.178,0.354,0.243c0.077,0.045,0.149,0.087,0.214,0.13
			c0.101,0.065,0.435,0.225,0.758,0.378c1.966,0.935,3.236,1.616,3.004,2.544c-0.276,1.113-3.895,2.575-4.838,2.575
			c-0.102,0-0.191-0.011-0.276-0.031c-0.397-0.1-1.015-0.42-1.989-0.935c-0.752-0.397-1.605-0.848-2.092-1.01
			c-0.713-0.237-1.21-1.198-1.786-2.31c-0.288-0.558-0.756-1.461-1.037-1.686c-0.124,0.161-0.325,0.712-0.231,1.509
			c0.066,0.568,0.38,1.94,1.844,2.396c1.347,0.422,2.345,1.102,3.226,1.702c1.029,0.702,1.842,1.256,2.914,1.256
			c0.788,0,1.575-0.294,2.27-0.554c0.549-0.205,1.022-0.383,1.436-0.383c0.414,0,0.666,0.179,0.804,0.328
			c0.334,0.363,0.331,0.892,0.301,1.258c-0.096,1.156,0.011,1.184,0.841,1.402c0.258,0.067,0.551,0.145,0.879,0.268
			c0.233,0.088,0.597-0.032,0.943-0.157c0.304-0.11,0.618-0.223,0.945-0.223c1.484,0,1.484,2.122,1.484,3.263
			c0,2.524-0.11,4.178-1.58,4.178c-0.181,0-0.355-0.024-0.541-0.051c-0.188-0.027-0.383-0.056-0.585-0.056
			c-0.314,0-0.471,0.229-0.783,0.913c-0.264,0.577-0.624,1.369-1.498,1.369c-1.221,0-4.439-1.491-5.439-3.293
			c-0.144-0.258-0.227-0.258-0.282-0.258c-0.111,0-0.272,0.045-0.443,0.093c-0.249,0.069-0.531,0.148-0.849,0.148
			c-0.709,0-1.283-0.394-1.756-1.201c-0.677-1.161-0.863-2.312-0.999-3.15c-0.057-0.349-0.133-0.817-0.219-0.96
			c-0.656-0.128-2.772-0.507-4.933-0.507c-1.485,0-2.071-1.056-2.5-1.826c-0.365-0.658-0.615-1.066-1.129-1.168
			c-0.03-0.007-0.058-0.011-0.081-0.015c0.003,0.113,0.017,0.262,0.028,0.383c0.071,0.766,0.18,1.923-0.834,2.826l-0.231,0.205
			c-0.254,0.226-0.527,0.468-0.736,0.668c0.107,0.005,0.236,0.009,0.393,0.009c0.679,0,1.146-0.168,1.599-0.33
			c0.402-0.145,0.818-0.294,1.313-0.294c0.612,0,1.242,0.23,1.984,0.725c0.25,0.166,0.469,0.255,0.634,0.255
			c0.221,0,0.4-0.161,0.677-0.424c0.295-0.281,0.662-0.631,1.195-0.631c0.577,0,1.015,0.412,1.294,0.722
			c1.311,1.457,1.627,2.628,1.933,3.761c0.089,0.328,0.181,0.667,0.296,1.016c0.364,1.089,0.966,1.317,2.285,1.817
			c0.222,0.084,0.456,0.173,0.704,0.272c0.24,0.096,0.5,0.195,0.77,0.299c1.956,0.747,4.172,1.595,4.172,3.067
			c0,0.567-0.315,1.208-0.638,1.777c0.443-0.157,0.893-0.273,1.332-0.388c1.261-0.327,2.05-0.564,2.369-1.283
			c0.191-0.43,0.204-0.813,0.216-1.183c0.039-1.172,0.411-1.807,2.263-1.807c0.532,0,1.089-0.017,1.679-0.034
			c0.59-0.017,1.2-0.035,1.784-0.035c1.896,0,3.007,0.206,3.703,0.687c0.187-0.047,0.629-0.432,0.897-0.666
			c0.665-0.579,1.418-1.234,2.309-1.234c1.016,0,1.826,0.834,2.477,2.549c1.894,4.99,7.053,14.28,7.104,14.374
			c0.093,0.168,0.101,0.37,0.02,0.544c-0.081,0.175-0.24,0.299-0.429,0.337c-1.526,0.299-152.73,29.974-163.159,31.365
			c-10.103,1.346-46.475,5.242-49.023,5.516l-0.372,0.233c-0.22,0.138-0.504,0.119-0.703-0.047c-0.199-0.167-0.27-0.442-0.173-0.684
			c0.046-0.117,0.091-0.229,0.134-0.332h-8.789v1.507c0,0.298-0.22,0.551-0.515,0.594c-0.351,0.05-35.32,5.068-63.005,8.691
			C-1.107,225.86-1.134,225.861-1.16,225.861z M19.936,211.244c-0.47,0.461-1.691,3.04-2.594,5.259
			c-0.064,0.159-0.193,0.282-0.354,0.34c-0.055,0.02-5.464,1.938-7.031,2.461c-0.497,0.165-0.895,0.476-1.354,0.834
			c-0.839,0.653-1.883,1.468-4.004,1.821c-0.892,0.148-2.264,1.008-3.944,2.46c25.494-3.354,56.248-7.748,60.583-8.368v-1.587
			c0-0.331,0.269-0.6,0.6-0.6h10.302c0.204,0,0.395,0.104,0.505,0.275c0.098,0.152,0.12,0.338,0.066,0.507
			c5.066-0.543,38.833-4.171,48.495-5.458c9.999-1.335,150.27-28.839,162.28-31.195c-1.264-2.306-5.145-9.502-6.779-13.81
			c-0.251-0.663-0.762-1.774-1.354-1.774c-0.441,0-1.015,0.499-1.521,0.938c-0.57,0.497-1.109,0.966-1.711,0.966
			c-0.231,0-0.454-0.071-0.644-0.207c-0.606-0.434-2.022-0.483-3.034-0.483c-0.566,0-1.167,0.018-1.749,0.035
			c-0.572,0.017-1.164,0.034-1.714,0.034c-1.042,0-1.042,0.024-1.063,0.646c-0.014,0.417-0.032,0.987-0.318,1.631
			c-0.57,1.284-1.889,1.626-3.164,1.957c-0.634,0.165-1.29,0.335-1.856,0.619c-0.368,0.184-0.604,0.259-0.816,0.259
			c-0.265,0-0.497-0.13-0.621-0.347c-0.244-0.425,0.002-0.846,0.41-1.542c0.274-0.467,0.688-1.172,0.688-1.54
			c0-0.646-2.296-1.524-3.4-1.947c-0.275-0.105-0.541-0.207-0.787-0.306c-0.24-0.096-0.468-0.182-0.683-0.264
			c-1.371-0.52-2.454-0.93-2.998-2.561c-0.127-0.381-0.224-0.737-0.316-1.082c-0.294-1.088-0.548-2.026-1.667-3.271
			c-0.273-0.304-0.401-0.324-0.402-0.324c-0.066,0.013-0.255,0.192-0.367,0.3c-0.334,0.318-0.792,0.754-1.504,0.754
			c-0.414,0-0.839-0.148-1.3-0.456c-0.703-0.469-1.089-0.522-1.318-0.522c-0.286,0-0.561,0.099-0.907,0.223
			c-0.498,0.179-1.117,0.4-2.005,0.4c-0.851,0-1.632-0.05-1.862-0.657c-0.246-0.649,0.308-1.14,1.41-2.117l0.229-0.203
			c0.521-0.463,0.509-1.046,0.437-1.818c-0.048-0.521-0.095-1.014,0.241-1.383c0.176-0.191,0.558-0.41,1.242-0.273
			c1.084,0.216,1.56,1.073,1.942,1.762c0.441,0.795,0.707,1.209,1.451,1.209c2.314,0,4.57,0.412,5.206,0.538
			c0.844,0.17,0.982,1.027,1.13,1.937c0.128,0.788,0.287,1.77,0.852,2.737c0.354,0.606,0.609,0.606,0.719,0.606
			c0.153,0,0.334-0.051,0.526-0.104c0.229-0.063,0.49-0.136,0.766-0.136c0.561,0,1.009,0.294,1.331,0.875
			c0.779,1.403,3.576,2.675,4.391,2.675c0.103,0,0.3-0.434,0.406-0.667c0.293-0.643,0.736-1.614,1.875-1.614
			c0.287,0,0.547,0.036,0.755,0.066c0.233,0.033,0.442,0.034,0.445,0.033c0.083-0.078,0.306-0.538,0.306-2.972
			c0-1.777-0.258-2.047-0.287-2.072c-0.115,0.009-0.339,0.09-0.536,0.161c-0.341,0.122-0.727,0.261-1.154,0.261
			c-0.217,0-0.424-0.036-0.617-0.108c-0.271-0.102-0.521-0.168-0.763-0.231c-1.119-0.294-1.897-0.657-1.73-2.662
			c0.011-0.128,0.01-0.217,0.004-0.276c-0.229,0.035-0.584,0.168-0.929,0.297c-0.75,0.28-1.685,0.63-2.689,0.63
			c-1.442,0-2.485-0.711-3.59-1.464c-0.852-0.581-1.731-1.181-2.908-1.549c-1.978-0.616-2.695-2.487-2.709-3.901
			c-0.012-1.185,0.428-2.1,1.118-2.33c0.104-0.034,0.212-0.052,0.321-0.052c0.894,0,1.462,1.097,2.119,2.366
			c0.312,0.602,0.833,1.608,1.102,1.725c0.577,0.191,1.438,0.646,2.271,1.085c0.677,0.357,1.443,0.763,1.72,0.831
			c0.653-0.004,2.937-1.045,3.557-1.593c-0.428-0.379-1.727-0.996-2.253-1.246c-0.467-0.222-0.739-0.354-0.901-0.459
			c-0.047-0.031-0.101-0.062-0.156-0.095c-0.334-0.192-0.892-0.517-0.947-1.181c-0.055-0.637,0.377-1.3,1.399-2.151
			c0.441-0.367,0.922-0.554,1.43-0.554c1.007,0,1.876,0.704,2.797,1.449c0.905,0.732,1.841,1.489,2.789,1.425
			c0.502-0.033,0.596-0.151,0.597-0.152c0.104-0.172-0.246-0.983-0.435-1.419c-0.339-0.784-0.723-1.672-0.723-2.569
			c0-0.913-1.184-1.291-2.731-1.69c-0.713-0.185-1.329-0.344-1.741-0.619c-0.37-0.247-0.486-0.552-0.52-0.764
			c-0.089-0.577,0.317-1.083,0.711-1.572c0.287-0.358,0.64-0.797,0.629-1.087c-0.117-0.058-0.495-0.182-1.579-0.182
			c-1.289,0-2.979,0.172-4.471,0.322c-1.191,0.12-2.221,0.225-2.864,0.225c-0.836,0-1.48-0.224-1.914-0.664
			c-0.639-0.648-0.625-1.542-0.617-2.076l0.002-0.143c-0.031-0.411-1.371-2.503-3.513-3.491c-2.376-1.097-3.691-2.411-5.083-3.802
			c-1.058-1.059-1.777-1.865-1.449-2.657c0.304-0.731,1.292-0.831,2.22-0.831c1.859,0,3.057,1.29,4.113,2.428
			c0.598,0.644,1.162,1.251,1.728,1.477c1.958,0.785,5.948,4.651,7.572,6.278c0.925,0.924,2.208,1.338,3.069,1.338
			c0.468,0,0.842-0.114,1.025-0.314c0.12-0.131,0.169-0.311,0.149-0.55c-0.068-0.813-0.338-1.94-0.6-3.03
			c-0.462-1.925-0.718-3.079-0.489-3.756c-0.286-0.26-1.014-0.706-1.52-1.017c-1.568-0.963-2.533-1.602-2.699-2.356
			c-0.059-0.269-0.011-0.53,0.14-0.756c0.154-0.23,0.463-0.506,1.059-0.506c0.68,0,1.583,0.365,2.539,0.752
			c0.907,0.367,1.936,0.782,2.585,0.782c0.109,0,0.2-0.012,0.271-0.035c0.109-0.037,0.171-0.094,0.218-0.204
			c0.239-0.561-0.136-1.793-0.438-2.531l-1.236-0.138c-0.196-0.021-4.835-0.554-7.153-2.408c-0.887-0.709-2.095-1.738-3.265-2.734
			c-1.16-0.988-2.36-2.011-3.23-2.707c-0.231-0.185-0.536-0.274-0.933-0.274c-0.619,0-1.35,0.214-2.055,0.419
			c-0.69,0.202-1.342,0.393-1.914,0.393c-0.782,0-1.18-0.374-1.376-0.688c-0.036-0.057-0.28-0.343-1.584-0.343
			c-1.094,0-2.453,0.197-3.652,0.37c-0.945,0.137-1.762,0.255-2.303,0.255c-0.578,0-1.117-0.036-1.363-0.474
			c-0.239-0.426,0.009-0.832,0.227-1.19c0.186-0.304,0.416-0.682,0.524-1.173c0.117-0.523-0.61-1.224-1.252-1.842
			c-0.778-0.748-1.513-1.455-1.39-2.325c0.095-0.66-1.198-2.563-1.872-3.018c-0.062,0.11-0.133,0.244-0.205,0.382
			c-0.656,1.242-1.879,3.555-4.378,4.18c-0.553,0.138-1.03,0.205-1.46,0.205c-1.285,0-1.991-0.616-2.74-1.269
			c-0.374-0.327-0.799-0.697-1.359-1.054c-2.71-1.718,0.317-9.6,1.373-11.563c1.087-2.017,3.515-2.788,4.507-3.026
			c0.122-0.667,0.315-1.473,0.503-2.257c0.293-1.226,0.597-2.492,0.597-3.09c0-1.124-1.607-5.986-4.824-6.189
			c-0.735-0.046-1.305-0.055-1.763-0.063c-2.073-0.034-2.229-0.23-3.285-2.346l-0.13-0.262c-0.896-1.789-3.517-1.91-6.293-2.038
			c-0.952-0.044-1.938-0.09-2.844-0.211c-0.964-0.129-1.563-0.448-1.833-0.978c-0.407-0.799,0.078-1.696,0.593-2.646
			c0.408-0.754,0.87-1.607,0.734-2.222c-0.313-1.398-3.036-2.374-5.282-2.374c-0.223,0-0.432,0.011-0.62,0.032
			c-0.111,0.012-0.23,0.018-0.359,0.018c-0.744,0.001-1.852-0.202-3.375-0.617c-0.229,2.65-1.139,8.534-1.182,8.811
			c-0.03,0.197-0.157,0.367-0.339,0.452c-0.182,0.083-0.394,0.073-0.564-0.031c-8.362-5.062-17.803-10.445-19.937-11.121
			c0.013,0.434,0.164,1.203,0.282,1.801c0.377,1.916,0.846,4.3-0.277,5.677c-1.019,1.25-0.537,2.897-0.15,4.222
			c0.123,0.422,0.229,0.786,0.275,1.105c0.115,0.807-0.569,1.555-1.435,2.502c-0.999,1.092-2.24,2.45-2.609,4.202
			c-0.511,2.427-1.409,3.001-2.363,3.418c-0.283,0.123-0.448,0.2-0.563,0.343c-0.427,0.534-0.687,2.021-0.749,2.832
			c-0.024,0.313-0.289,0.554-0.603,0.554h-1.928c-0.294,0-0.869,0.872-1.938,5.027c-0.719,2.792-1.045,3.926-1.923,3.926
			c-0.977,0-2.825-1.681-4.005-2.862l-0.836,2.028v6.201c0,0.331-0.269,0.6-0.6,0.6h-1.572c-0.238,1.412-1.065,4.32-1.65,6.204
			c-1.822,5.865-2.393,6.093-2.699,6.215c-0.196,0.078-0.581,0.184-1.637,0.184c-1.694,0-4.355-0.29-5.466-0.706
			c-1.254-0.47-1.884-1.67-2.494-2.83c-0.194-0.37-0.396-0.754-0.612-1.1c-0.553-0.885-1.5-0.965-2.503-1.049
			c-0.251-0.021-0.51-0.043-0.759-0.078c-0.022-0.004-0.045-0.006-0.066-0.006c-0.302,0-0.653,0.674-0.653,2.57
			c0,1.454-0.364,5.053-1.089,7.051c-0.107,0.296-0.219,0.595-0.33,0.894c-0.597,1.603-1.214,3.26-1.214,4.343
			c0,0.854-0.705,1.466-1.522,2.175c-0.973,0.845-2.077,1.803-2.166,3.302c-0.024,0.426-0.038,0.882-0.054,1.358
			c-0.087,2.827-0.206,6.698-2.904,9.713c-2.076,2.321-3.016,5.303-3.771,7.698c-0.29,0.921-0.563,1.791-0.865,2.495
			c-0.363,0.847-0.797,1.693-1.18,2.44c-0.149,0.291-0.315,0.615-0.456,0.902c1.126,0.27,1.537,2.629,1.683,4.627
			c0.013,0.174-0.051,0.344-0.174,0.468l-0.878,0.878c-0.208,0.208-0.127,0.529,0.109,1.089c0.148,0.351,0.301,0.712,0.071,1.059
			c-0.097,0.146-0.243,0.246-0.417,0.288c-0.39,0.368-1.52,2.144-2.206,3.223c-0.891,1.399-1.452,2.272-1.77,2.591
			c-0.249,0.248-0.51,0.301-0.686,0.301c-0.583,0-0.979-0.527-1.436-1.139c-0.407-0.544-0.914-1.222-1.531-1.495
			c-0.051-0.023-0.1-0.034-0.15-0.034c-0.673,0-1.716,1.668-2.21,2.872c-0.093,0.225-0.313,0.372-0.556,0.372h-0.49l-1.239,0.999
			c-1.039,0.836-1.918,1.475-2.976,1.475c-0.696,0-1.354-0.284-2.013-0.869c-0.349-0.31-0.738-0.474-1.125-0.474
			c-0.384,0-0.746,0.164-0.945,0.429c-0.083,0.11-0.171,0.284-0.113,0.486c0.414,1.447,0.375,4.134-1.427,5.604
			c-1.256,1.023-2.504,1.156-4.23,1.34c-0.686,0.073-1.463,0.155-2.368,0.307c-2.855,0.476-4.006,1.872-4.018,1.886
			c-0.207,0.259-0.587,0.304-0.845,0.097c-0.134-0.106-3.042-2.434-4.18-3.437c-0.186,0.307-0.433,0.875-0.61,1.283
			c-0.648,1.489-1.318,3.028-2.492,3.16c-0.615,0.067-0.862,0.403-1.363,1.155c-0.364,0.546-0.817,1.225-1.594,1.868
			c-0.81,0.668-1.53,0.979-2.269,0.979c-1.201,0.001-2.338-0.831-3.675-2.08c-1.349-1.259-2.28-1.241-3.429-1.171
			c-0.246,0.015-0.5,0.03-0.763,0.03c-0.355,0-0.66-0.028-0.959-0.088c-1.119-0.225-1.707-0.816-2.227-1.339
			c-0.405-0.409-0.756-0.762-1.354-0.962c-0.831-0.276-2.14-1.106-1.64-3.561c-0.128-0.386-1.23-1.488-2.502-2.517
			c-3.049,3.226-9.946,10.736-10.741,12.589c-0.679,1.589-3.518,2.982-6.523,4.456c-2.11,1.036-4.293,2.106-5.378,3.119
			c-0.78,0.729-0.869,1.094-0.871,1.217c-0.002,0.159,0.15,0.322,0.403,0.57c0.358,0.354,0.958,0.946,0.621,1.846
			c-0.517,1.374-3.583,3.438-4.702,4.156v2.83C26.514,209.121,21.162,211.049,19.936,211.244z M238.29,123.258
			c0.164,0.35,0.884,1.068,1.136,1.321c1.377,1.376,2.562,2.56,4.743,3.566c2.401,1.108,4.21,3.543,4.21,4.581l-0.002,0.161
			c-0.006,0.391-0.015,0.926,0.271,1.216c0.2,0.203,0.557,0.306,1.06,0.306c0.583,0,1.633-0.106,2.743-0.218
			c0.34-0.035,0.689-0.07,1.044-0.104c-0.585-0.285-1.13-0.663-1.577-1.111c-3.274-3.277-5.954-5.524-7.17-6.012
			c-0.815-0.325-1.469-1.029-2.161-1.774c-0.933-1.005-1.897-2.044-3.233-2.044C238.72,123.146,238.421,123.212,238.29,123.258z"/>
	</g>
	<g>
		<path d="M276.219,152.676c-2.102,0-4.189-2.826-4.387-4.602c-0.076-0.694-0.003-1.589,0.076-2.535
			c0.106-1.283,0.228-2.737-0.055-3.678c-0.541-1.807-0.107-8.73-0.056-9.514c0.007-0.104,0.041-0.205,0.099-0.293
			c0.334-0.503,1.242-1.916,1.54-2.563c-0.048-0.105-0.214-0.307-0.327-0.444c-0.466-0.564-1.333-1.615-0.253-2.849
			c1.126-1.288,1.901-3.708,1.636-4.506c-0.086-0.261-0.233-0.523-0.376-0.778c-0.277-0.496-0.564-1.009-0.314-1.516
			c0.241-0.487,0.813-0.569,1-0.596c0.101-0.015,0.205-0.022,0.312-0.022c0.447,0,0.884,0.129,1.269,0.242
			c0.32,0.094,0.622,0.183,0.864,0.183c0.19,0,0.395-0.035,0.626-0.451c0.463-0.833,0.648-2.493,0.373-3.354
			c-0.086-0.27-0.176-0.322-0.176-0.322c-0.018,0-0.094,0.005-0.242,0.094c-0.565,0.34-1.121,0.512-1.65,0.512l0,0
			c-0.922,0-1.551-0.536-1.777-0.853c-0.171-0.238-0.144-0.565,0.063-0.773c1.204-1.205,2.223-2.702,2.095-3.08
			c-0.221-0.11-0.356-0.343-0.334-0.589s0.188-0.451,0.426-0.52l10.883-3.159c0.202-0.057,0.419-0.008,0.573,0.134
			s0.224,0.354,0.183,0.56c-0.055,0.273-0.539,2.686-0.722,3.232c-0.055,0.165-0.155,0.376-0.294,0.669
			c-0.338,0.714-0.903,1.909-0.903,2.826c0,0.9-0.452,2.048-0.932,3.262c-0.34,0.862-0.691,1.754-0.835,2.473
			c-0.177,0.883-0.788,1.693-1.327,2.408c-0.281,0.372-0.698,0.925-0.738,1.154c0.005,0.004,0.012,0.008,0.019,0.012
			c0.257,0.146,0.515,0.22,0.764,0.29c1.2,0.34,1.67,0.879,1.099,3.02c-0.349,1.306-0.179,3.032-0.042,4.42
			c0.162,1.648,0.26,2.644-0.566,2.853c-0.479,0.119-1.002-0.198-1.978-0.84c-0.556-0.366-1.38-0.908-1.778-0.97
			c-0.002,0.015-0.004,0.032-0.006,0.052c-0.101,1.109-0.568,1.6-0.944,1.993c-0.367,0.385-0.632,0.663-0.632,1.639
			c0,1.345,0.318,1.946,0.49,2.171c0.113,0.109,0.184,0.263,0.184,0.433c0,0.332-0.269,0.601-0.6,0.601
			c-0.002-0.001-0.005-0.001-0.006,0c-0.144,0-0.287-0.052-0.401-0.154c-0.303-0.271-0.512-0.344-0.588-0.344
			c-0.024,0.01-0.096,0.086-0.164,0.293c-0.348,1.043-0.27,1.516-0.126,2.374c0.05,0.302,0.106,0.643,0.152,1.055
			c0.063,0.572,0.37,1.053,0.695,1.562c0.445,0.698,0.95,1.49,0.695,2.513c-0.158,0.622-0.137,1.916,0.058,3.561
			c0.014,0.05,0.021,0.102,0.021,0.155c0,0.33-0.266,0.598-0.596,0.6c-0.271,0.007-0.528-0.184-0.594-0.462
			c-0.067-0.284-0.224-0.761-0.509-0.761c-0.071,0-0.196,0.02-0.386,0.11c-0.132,0.063-0.185,0.116-0.193,0.131
			c0,0.125,0.316,0.533,0.469,0.729c0.364,0.472,0.742,0.959,0.535,1.508c-0.13,0.345-0.452,0.568-0.957,0.665
			C276.51,152.662,276.364,152.676,276.219,152.676z M272.985,132.584c-0.138,2.186-0.378,7.611,0.018,8.933
			c0.348,1.157,0.217,2.732,0.102,4.121c-0.074,0.888-0.144,1.726-0.08,2.305c0.138,1.235,1.833,3.533,3.194,3.533
			c0.037,0,0.075-0.002,0.111-0.005c-0.066-0.093-0.144-0.193-0.206-0.273c-0.374-0.483-0.84-1.085-0.683-1.753
			c0.092-0.391,0.373-0.701,0.836-0.924c0.316-0.152,0.621-0.229,0.906-0.229c0.098,0,0.212,0.01,0.334,0.036
			c-0.04-0.838-0.021-1.654,0.122-2.221c0.124-0.496-0.113-0.901-0.543-1.575c-0.366-0.574-0.782-1.225-0.876-2.074
			c-0.042-0.38-0.097-0.704-0.144-0.99c-0.151-0.908-0.271-1.625,0.17-2.95c0.284-0.855,0.811-1.068,1.17-1.107
			c-0.089-0.411-0.146-0.91-0.146-1.513c0-1.457,0.534-2.017,0.964-2.467c0.322-0.337,0.555-0.581,0.617-1.274
			c0.077-0.847,0.636-1.148,1.133-1.148c0.724,0,1.63,0.597,2.506,1.173c0.238,0.156,0.551,0.362,0.798,0.505
			c-0.007-0.371-0.061-0.924-0.107-1.396c-0.146-1.484-0.328-3.331,0.076-4.848c0.277-1.038,0.205-1.322,0.176-1.385
			c-0.024-0.052-0.265-0.12-0.44-0.17c-0.289-0.082-0.648-0.184-1.032-0.403c-0.414-0.236-0.557-0.558-0.604-0.785
			c-0.142-0.687,0.369-1.362,0.96-2.146c0.462-0.612,0.985-1.307,1.108-1.921c0.165-0.824,0.536-1.767,0.896-2.678
			c0.417-1.057,0.848-2.148,0.848-2.821c0-1.187,0.638-2.534,1.02-3.34c0.106-0.225,0.207-0.438,0.239-0.535
			c0.088-0.262,0.297-1.215,0.485-2.116l-9.168,2.66c0.17,1.092-1.133,2.711-1.962,3.613c0.109,0.041,0.241,0.07,0.394,0.07l0,0
			c0.309,0,0.656-0.114,1.033-0.341c0.783-0.47,1.556-0.285,1.974,0.425c0.661,1.125,0.408,3.563-0.263,4.77
			c-0.394,0.709-0.957,1.067-1.675,1.067c-0.414,0-0.814-0.117-1.202-0.23c-0.392-0.115-0.749-0.226-1.063-0.185
			c0.054,0.109,0.126,0.238,0.182,0.339c0.162,0.289,0.346,0.617,0.468,0.985c0.473,1.417-0.638,4.264-1.871,5.676
			c-0.369,0.42-0.271,0.634,0.274,1.294c0.361,0.438,0.811,0.982,0.524,1.638C274.242,130.646,273.284,132.127,272.985,132.584z"/>
	</g>
</g>
</svg>
