<?xml version="1.0" encoding="iso-8859-1"?>
<!-- Generator: Adobe Illustrator 15.1.0, SVG Export Plug-In . SVG Version: 6.00 Build 0)  -->
<!DOCTYPE svg PUBLIC "-//W3C//DTD SVG 1.1//EN" "http://www.w3.org/Graphics/SVG/1.1/DTD/svg11.dtd">
<svg version="1.1" id="Layer_1" xmlns="http://www.w3.org/2000/svg" xmlns:xlink="http://www.w3.org/1999/xlink" x="0px" y="0px"
	 width="288px" height="288px" viewBox="0 0 288 288" style="enable-background:new 0 0 288 288;" xml:space="preserve">
<g>
	<path d="M224.266,220.161c-0.049,0-0.098-0.006-0.146-0.018l-53.62-13.357c-1.289,0.831-4.574,2.871-5.748,2.871
		c-1.202,0-3.123-1.733-3.927-2.514l-6.345,0.372c-0.115,0.008-0.228-0.02-0.326-0.075l-1.358-0.754
		c-1.237,1.198-2.121,1.805-2.63,1.805c-0.145,0-0.617-0.039-1.77-0.135c-2.564-0.214-7.339-0.612-9.839-0.612
		c-0.909,0-1.215,0.055-1.3,0.076c-0.706,0.546-1.597,1.61-1.606,1.621c-0.114,0.137-0.283,0.216-0.461,0.216
		c-8.405,0-8.597-0.573-8.737-0.992l-0.056-0.173c-0.832-2.595-1.408-2.727-1.515-2.727c-0.791,0-5.809,1.301-8.786,2.12
		c-0.249,0.067-0.515-0.03-0.658-0.245c-0.71-1.063-1.696-2.066-2.029-2.066c-0.446,0-1.719,0.447-2.648,0.773
		c-1.093,0.384-1.679,0.585-2.02,0.585c-0.799,0-0.926-0.917-1.086-2.078c-0.071-0.518-0.203-1.472-0.379-1.692
		c-0.188-0.091-0.451-0.189-0.78-0.312c-0.946-0.353-2.376-0.885-4.118-2.045c-0.809-0.54-1.982-0.803-3.588-0.803
		c-0.709,0-1.38,0.049-1.973,0.092c-0.735,0.054-1.286,0.086-1.614,0.021c-0.586-0.118-1.468-0.611-2.401-1.133
		c-0.518-0.29-1.287-0.72-1.556-0.794c-0.222,0.059-0.871,0.304-1.5,0.541c-2.474,0.932-7.079,2.667-9.934,2.667
		c-0.435,0-0.826-0.04-1.162-0.119c-1.917-0.451-2.377-1.448-2.681-2.107c-0.233-0.506-0.295-0.642-0.873-0.642
		c-0.146,0-0.316,0.014-0.506,0.038c-0.162,0.021-0.33,0.032-0.502,0.032c-2.185,0-4.86-1.711-6.373-3.402
		c-0.599-0.669-1.292-1.653-1.193-2.542c0.089-0.799,0.389-1.774,0.678-2.717c0.257-0.835,0.645-2.097,0.542-2.406
		c-0.265-0.532-0.057-1.193,0.231-2.109c0.334-1.063,0.792-2.52,0.686-4.335c-0.145-2.458-3.972-8.258-5.697-10.66
		c-0.81,0.137-2.732,0.441-3.866,0.441c-0.525,0-0.844-0.063-1.064-0.21c-0.204-0.134-0.327-0.362-0.429-0.589
		c-0.216-0.482-0.441-1.279-0.703-2.202c-0.292-1.033-0.826-2.916-1.181-3.33c-0.197,0.004-0.453,0.016-0.741,0.028
		c-0.494,0.022-1.108,0.05-1.686,0.05c-1.369,0-2.034-0.146-2.373-0.518c-0.368-0.406-0.401-1.057-0.434-1.687
		c-0.008-0.16-0.02-0.389-0.042-0.563c-0.113,0.06-0.249,0.141-0.354,0.204c-0.447,0.267-1.003,0.599-1.62,0.599
		c-0.257,0-0.503-0.058-0.73-0.171c-0.21-0.105-0.479-0.159-0.799-0.159c-0.588,0-1.224,0.188-1.507,0.315
		c-0.093,0.041-0.19,0.062-0.292,0.062c-0.521,0-1.054-0.527-2.332-1.922c-0.26-0.284-0.586-0.64-0.813-0.864
		c-0.067,0.085-0.139,0.18-0.197,0.256c-0.379,0.503-0.737,0.978-1.271,0.978c-0.156,0-0.546-0.052-0.79-0.539
		c-0.366-0.731,0.034-1.676,0.586-2.983c0.383-0.907,0.818-1.936,1.067-3.055c0.296-1.334,0.89-3.51,1.443-5.291
		c1.167-3.755,1.468-3.755,1.923-3.755c0.174,0,0.338,0.069,0.463,0.193c0.239,0.239,0.464,0.465-0.025,3.718
		c-0.226,1.504-0.527,3.112-0.639,3.639c-0.078,0.373-0.27,0.806-0.473,1.265c-0.165,0.373-0.46,1.042-0.475,1.32
		c0.139,0.061,0.38,0.113,0.682,0.113c0.592,0,0.98-0.195,1.031-0.305c0.147-0.314,0.426-0.502,0.747-0.502
		c0.069,0,0.137,0.009,0.203,0.024c-0.581-1.103-0.898-1.844-0.711-2.387c0.078-0.225,0.238-0.4,0.453-0.494
		c0.333-0.146,0.646-0.203,0.898-0.249c0.12-0.022,0.278-0.052,0.347-0.08c0.001-0.007,0.003-0.017,0.005-0.028
		c0.024-0.18-0.072-0.806-0.149-1.309c-0.243-1.575-0.4-2.843-0.044-3.625c0.526-1.159,2.047-1.699,2.91-1.699
		c0.272,0,0.502,0.051,0.684,0.151c-0.195-0.54-0.417-1.059-0.591-1.324c-0.145,0.108-0.354,0.311-0.47,0.423
		c-0.316,0.306-0.566,0.548-0.914,0.548c-0.181,0-0.351-0.07-0.478-0.198c-0.002-0.002-0.005-0.005-0.007-0.007
		c-0.076,0.434-0.243,0.816-0.723,0.816c-0.041,0-0.092-0.005-0.132-0.014c-0.44-0.089-2.385-1.446-2.889-2.397
		c-0.51-0.963,0.204-5.432,0.951-6.846c0.089-0.17,0.361-0.684,0.874-0.741c0.043-0.005,0.082-0.007,0.119-0.007
		c0.268,0,0.502,0.108,0.658,0.306c0.313,0.396,0.186,0.936,0.039,1.561c-0.065,0.277-0.199,0.846-0.143,1.023
		c0.208,0.177,0.409,0.325,0.585,0.442c-0.014-0.049-0.028-0.097-0.041-0.142c-0.253-0.883-0.514-1.795,0.245-2.078
		c0.146-0.056,0.32-0.07,0.843-0.07c0.151,0,0.324,0.002,0.513,0.003c0.225,0.002,0.472,0.004,0.734,0.004
		c3.094,0,3.815-0.336,3.982-0.487c-0.237-0.236-1.261-0.503-1.825-0.65c-1.199-0.313-2.235-0.583-2.546-1.308
		c-0.604-1.409-0.96-2.052-1.151-2.343c-0.336,0.383-0.91,1.244-1.404,2.27c-0.363,0.753-0.785,1.135-1.254,1.135
		c-0.264,0-0.504-0.128-0.657-0.351c-0.233-0.338-0.239-0.868-0.017-1.453c0.052-0.126,4.453-10.753,0.166-14.504
		c-0.166-0.145-0.238-0.368-0.19-0.583c0.027-0.123,2.75-12.362,2.072-15.698c-0.671-3.297-3.069-5.908-3.093-5.935
		c-0.11-0.118-0.167-0.276-0.16-0.438c0.014-0.279,0.351-6.879,0.879-8.538c0.354-1.111-0.16-1.548-0.219-1.594
		c-0.147-0.103-0.235-0.261-0.25-0.438c-0.015-0.179,0.056-0.35,0.184-0.476l1.084-1.063V81.96c0-0.201,0.101-0.389,0.268-0.5
		c0.859-0.569,1.855-1.314,2.197-1.671c-0.048-0.082-0.11-0.18-0.162-0.261c-0.404-0.635-1.081-1.697-0.693-2.862
		c0.172-0.516,0.57-0.823,1.064-0.823c1.061,0,2.455,1.549,2.576,2.363c0.141,0.094,0.534,0.207,0.857,0.241
		c0.159,0.017,0.304,0.096,0.404,0.221c2.263,2.811,4.905,5.891,5.409,6.18c0.144,0.065,0.371,0.103,0.644,0.103
		c0.532,0,1.045-0.139,1.051-0.141c0.237-0.064,0.49,0.021,0.638,0.217l2.042,2.698c0.079,0.104,0.122,0.231,0.122,0.362v0.663
		c0.906,0.724,4.563,3.479,7.659,3.478c0.38,0,0.742-0.042,1.074-0.127c0.266-0.068,0.543,0.054,0.675,0.294l0.723,1.324
		c0.312,0.028,0.81,0.064,1.257,0.064c0.538,0,0.694-0.053,0.71-0.059c0.297-0.112,0.63,0.027,0.759,0.317
		c0.193,0.434,0.468,0.909,0.609,1.06l0.215,0.044h1.399c0.192,0,0.373,0.092,0.485,0.247c0.015,0.021,1.573,2.114,3.732,2.114
		c0.59,0,1.187-0.158,1.773-0.469c0.053-0.028,0.11-0.048,0.169-0.06c0.028-0.005,0.693-0.13,1.408-0.13
		c1.636,0,2.068,0.666,2.143,1.224c0.037,0.278,0.073,0.729,0.114,1.253c0.018,0.225,0.042,0.522,0.07,0.85
		c0.001-0.003,0.003-0.005,0.006-0.007c0.104-0.123,0.254-0.198,0.416-0.209l2.188-0.146c0.166-0.013,0.329,0.047,0.45,0.16
		c0.121,0.114,0.19,0.272,0.19,0.438v0.855c0.087-0.295,0.267-0.602,0.58-0.914c0.768-0.768,1.562-0.929,2.093-0.929
		c0.981,0,1.834,0.562,1.983,1.307c0.167,0.841-0.559,1.258-0.992,1.508c-0.134,0.077-0.353,0.203-0.416,0.277
		c0.01,0.064,0.066,0.216,0.112,0.34c0.211,0.567,0.561,1.509,0.578,3.462c0.192,0.398,0.614,1.489,0.274,2.846
		c-0.25,1.001,0.62,1.497,0.657,1.518c0.088,0.049,0.16,0.117,0.212,0.197c0.064-0.688,0.158-1.165,0.339-1.451
		c0.222-0.353,0.58-0.554,0.982-0.554c0.383,0,0.765,0.19,1.046,0.523c0.265,0.313,0.676,1.032,0.457,2.345
		c-0.117,0.701-0.115,1.545-0.113,2.36c0.004,1.555,0.007,2.897-0.802,3.438c-0.233,0.155-0.471,0.234-0.708,0.234
		c-0.431,0-0.717-0.249-0.907-0.413c-0.012-0.012-0.027-0.024-0.042-0.037c-0.012,0.013-0.026,0.026-0.041,0.043
		c-0.535,0.599-1.236,0.652-1.748,0.691c-0.166,0.013-0.444,0.034-0.506,0.081c0,0-0.018,0.047-0.025,0.139
		c-0.031,0.403-0.007,0.94,0.016,1.46c0.063,1.398,0.108,2.409-0.61,2.735c-0.104,0.047-0.212,0.07-0.324,0.07
		c-0.519,0-0.828-0.466-1.126-0.917c-0.069-0.104-0.165-0.247-0.251-0.361c-0.068,0.224,0.046,0.484,0.295,0.913
		c0.172,0.297,0.365,0.629,0.286,0.98c0.013-0.006,0.026-0.011,0.039-0.017c0.606-0.255,1.129-0.475,1.563-0.475
		c0.536,0,0.913,0.354,0.94,0.882c0.017,0.345-0.029,0.684-0.071,0.983c-0.11,0.801-0.062,0.919,0.178,1.038
		c0.371,0.186,0.582,0.441,0.627,0.761c0.076,0.533-0.325,0.905-0.79,1.336c-0.331,0.306-0.706,0.653-0.948,1.074
		c-0.351,0.606-0.5,1.275-0.622,1.812c-0.144,0.639-0.257,1.143-0.754,1.286c-0.069,0.02-0.141,0.029-0.215,0.029
		c-0.206,0-0.386-0.074-0.56-0.146c-0.005-0.002-0.011-0.004-0.017-0.007c-0.004,0.089-0.002,0.21,0.01,0.374
		c0.045,0.572,0.07,1.069,0.058,1.495c0.231-0.207,0.489-0.269,0.714-0.269c0.356,0,0.72,0.165,1.113,0.506
		c0.222,0.192,0.408,0.425,0.572,0.657c-0.132-0.356-0.233-0.642-0.198-0.911c0.083-0.66,0.78-0.678,1.836-0.704
		c0.507-0.013,1.653-0.041,1.99-0.218c-0.037-0.353-0.338-1.022-0.564-1.523c-0.484-1.072-0.903-2.001-0.421-2.608
		c0.082-0.17,0.159-0.811,0.216-1.281c0.196-1.617,0.439-3.629,1.756-4.246c0.455-0.213,0.833-0.43,1.138-0.604
		c0.325-0.186,0.576-0.33,0.807-0.406c-0.354-0.04-0.719-0.064-1.073-0.088c-1.197-0.081-1.989-0.134-2.3-0.711
		c-0.086-0.159-0.194-0.487,0.043-0.909c0.253-0.449,0.731-0.721,1.237-1.009c0.684-0.39,1.134-0.678,1.167-1.122
		c0.023-0.318-0.051-0.553-0.13-0.802c-0.286-0.898-0.202-1.525,1.051-2.456c1.53-1.136,2.553-3.221,2.761-4.084
		c0.058-0.243,0.283-0.809,1.098-0.809c0.281,0,0.579,0.064,0.893,0.134c0.481,0.105,1.006,0.192,1.229,0.059
		c0.265-0.159,0.466-0.608,0.627-0.971c0.203-0.454,0.43-0.962,0.913-1.063c-0.417-0.275-0.864-0.462-1.298-0.644
		c-0.793-0.332-1.675-0.701-2.009-1.623c0.044,0.188,0.059,0.364,0.036,0.519c-0.038,0.247-0.167,0.451-0.365,0.574
		c-0.111,0.069-0.242,0.106-0.378,0.106c-0.982,0-3.846-3.033-3.846-4.359c0-0.048,0.251-4.961,1.641-5.516
		c0.12-0.048,0.248-0.072,0.38-0.072c0.558,0,1.05,0.414,1.571,0.852c0.233,0.196,0.614,0.517,0.79,0.57
		c0.497-0.258,0.946-0.911,1.054-1.374c-0.165-0.304-0.922-1.046-1.434-1.546c-1.251-1.225-1.959-1.948-1.959-2.59
		c0-0.186,0.004-0.391,0.009-0.597c0.005-0.215,0.012-0.515,0.008-0.758c-0.296,0.057-0.666,0.114-1.02,0.114
		c-0.57,0-0.988-0.158-1.244-0.471c-0.651-0.794-0.293-3.413,0.259-4.035c0.206-0.231,0.525-0.344,0.975-0.344
		c0.976,0,2.893,0.588,3.08,1.713c0.036,0.216,0.058,0.451,0.08,0.679c0.018,0.189,0.044,0.479,0.086,0.705
		c0.149-0.43,0.292-1.146,0.38-1.585c0.237-1.186,0.368-1.768,0.754-2.039c0.166-0.116,0.357-0.176,0.568-0.176
		c0.267,0,0.503,0.095,0.712,0.18c0.074,0.029,0.177,0.07,0.246,0.09c0.006-0.012,0.014-0.026,0.021-0.044
		c0.137-0.304-0.129-0.969-0.387-1.611c-0.276-0.689-0.589-1.471-0.638-2.287c-0.064-1.072,0.637-1.694,1.101-2.106
		c0.109-0.097,0.265-0.234,0.333-0.321c-0.012-0.017-0.03-0.037-0.054-0.063c-0.479-0.502-0.933-0.791-1.246-0.791
		c-0.094,0-0.174,0.026-0.252,0.084c-0.25,0.182-0.567,0.259-0.875,0.334c-0.78,0.191-0.888,0.29-0.828,0.758
		c0.059,0.458,0.164,0.923,0.256,1.333c0.204,0.905,0.327,1.452,0.01,1.847c-0.2,0.25-0.525,0.347-0.88,0.245
		c-0.795-0.229-2.203-2.06-2.462-3.467c-0.147-0.798,0.071-1.462,0.613-1.869c0.594-0.445,1.1-0.67,1.469-0.835
		c0.125-0.056,0.276-0.123,0.355-0.17c-0.002-0.011-0.004-0.024-0.008-0.039c-0.048-0.219-0.173-0.397-0.331-0.625
		c-0.303-0.435-0.717-1.031-0.603-2.097c0.043-0.397-0.095-0.516-0.396-0.775c-0.332-0.285-0.833-0.716-0.721-1.571
		c0.039-0.296,0.056-0.593,0.072-0.88c0.048-0.846,0.095-1.646,0.747-1.99c0.099-0.193,0.148-0.837,0.102-1.377
		c-0.017-0.195,0.062-0.385,0.211-0.511s0.351-0.171,0.539-0.121l144.26,38.021c0.313,0.082,0.503,0.397,0.433,0.713l-21.588,95.299
		c-0.014,0.056-0.033,0.109-0.061,0.159l-1.744,3.139c0.492,0.601,1.446,1.874,1.615,2.889l0.188,1.121
		c0.485,1.467,1.133,3.982,0.164,4.709c-0.314,0.236-0.987,1.275-1.15,2.42c-0.096,0.669,0.005,1.207,0.299,1.599
		c0.207,0.277,0.836,1.117,0.496,1.852c-0.175,0.379-0.574,0.625-1.07,0.661l-0.035,0.004
		C224.309,220.16,224.287,220.161,224.266,220.161z M170.392,205.541c0.048,0,0.097,0.006,0.146,0.018l53.771,13.395
		c0.004,0,0.008-0.001,0.012-0.002c-0.028-0.095-0.109-0.282-0.34-0.591c-0.485-0.646-0.667-1.507-0.527-2.488
		c0.194-1.362,0.973-2.705,1.595-3.19c0.184-0.351-0.085-1.97-0.572-3.435c-0.011-0.029-0.018-0.06-0.023-0.091l-0.195-1.166
		c-0.121-0.726-1.049-1.991-1.605-2.618c-0.17-0.19-0.199-0.467-0.076-0.689l1.902-3.426l21.441-94.65l-142.927-37.67
		c-0.029,0.689-0.195,1.429-0.733,1.694c-0.085,0.142-0.115,0.661-0.135,1.009c-0.017,0.294-0.036,0.628-0.08,0.967
		c-0.025,0.19,0.007,0.243,0.313,0.506c0.365,0.314,0.917,0.789,0.808,1.813c-0.067,0.62,0.127,0.898,0.395,1.283
		c0.196,0.282,0.418,0.602,0.518,1.051c0.223,1.007-0.502,1.33-1.031,1.565c-0.335,0.148-0.752,0.335-1.238,0.699
		c-0.063,0.047-0.213,0.159-0.171,0.561c0.067,0.654,0.564,1.47,1.01,2.028c-0.003-0.014-0.006-0.028-0.01-0.042
		c-0.098-0.436-0.209-0.93-0.275-1.443c-0.207-1.603,1.103-1.923,1.732-2.076c0.156-0.038,0.391-0.096,0.454-0.141
		c0.282-0.204,0.613-0.312,0.958-0.312c0.668,0,1.38,0.391,2.115,1.163c0.283,0.297,0.419,0.611,0.406,0.936
		c-0.022,0.521-0.413,0.867-0.758,1.173c-0.454,0.403-0.727,0.681-0.7,1.137c0.038,0.622,0.3,1.279,0.555,1.914
		c0.366,0.915,0.713,1.78,0.367,2.55c-0.298,0.662-0.792,0.761-1.061,0.761c-0.284,0-0.542-0.104-0.749-0.187
		c-0.039-0.017-0.086-0.035-0.131-0.052c-0.093,0.283-0.202,0.825-0.278,1.209c-0.289,1.443-0.538,2.689-1.415,2.799
		c-0.052,0.007-0.103,0.01-0.152,0.01c-1.081,0-1.196-1.235-1.272-2.053c-0.02-0.216-0.039-0.419-0.068-0.593
		c-0.096-0.24-1.136-0.711-1.896-0.711c-0.049,0-0.087,0.003-0.115,0.006c-0.216,0.446-0.385,2.012-0.194,2.403
		c0.032,0.014,0.124,0.042,0.319,0.042c0.335,0,0.746-0.082,1.017-0.137c0.204-0.041,0.327-0.065,0.439-0.065
		c0.182,0,0.354,0.073,0.483,0.206c0.296,0.302,0.297,0.791,0.272,1.866c-0.004,0.184-0.008,0.366-0.009,0.533
		c0.12,0.32,1.043,1.225,1.599,1.769c1.276,1.249,1.885,1.876,1.799,2.485c-0.126,0.885-0.833,1.872-1.646,2.324
		c0.359,0.203,0.643,0.51,0.784,0.877c0.166,0.431,0.103,1.087-0.023,2.21c-0.094,0.844-0.201,1.8-0.133,2.52
		c0.055,0.589,0.408,0.787,1.402,1.203c0.531,0.222,1.132,0.474,1.71,0.897c0.859,0.631,1.253,1.373,1.053,1.985
		c-0.12,0.367-0.448,0.604-0.836,0.604c-0.207,0-0.506-0.066-0.833-0.353c-0.026,0.058-0.053,0.116-0.076,0.169
		c-0.23,0.515-0.517,1.156-1.105,1.509c-0.275,0.166-0.596,0.247-0.978,0.247c-0.39,0-0.781-0.086-1.126-0.162
		c-0.218-0.048-0.444-0.097-0.596-0.104c-0.282,1.015-1.355,3.298-3.184,4.655c-0.795,0.59-0.758,0.704-0.623,1.128
		c0.095,0.297,0.224,0.704,0.184,1.254c-0.083,1.116-1.058,1.672-1.771,2.077c-0.164,0.093-0.349,0.198-0.5,0.3
		c0.295,0.041,0.687,0.067,1.007,0.088c0.398,0.027,0.81,0.055,1.223,0.105c0.021,0.002,0.043,0.004,0.063,0.004
		c0.453,0,0.765-0.913,0.993-1.58c0.263-0.768,0.511-1.492,1.205-1.492c0.174,0,0.43,0.055,0.664,0.313
		c0.753,0.835,0.828,3.733,0.76,4.384c-0.072,0.687-0.578,0.893-0.972,0.868c0.008,0.073,0.021,0.165,0.041,0.277
		c0.287,1.603-0.528,3.283-1.146,4.021c-0.355,0.425-0.711,0.64-1.06,0.64c-0.117,0-0.23-0.023-0.334-0.071
		c-0.304-0.138-0.936-0.424-0.357-4.538l-0.042-0.343c-0.085,0.047-0.174,0.098-0.256,0.145c-0.323,0.186-0.726,0.416-1.225,0.649
		c-0.715,0.335-0.94,2.193-1.074,3.304c-0.115,0.953-0.19,1.492-0.421,1.822c0.002,0.262,0.33,0.987,0.529,1.43
		c0.363,0.804,0.705,1.563,0.672,2.172c-0.065,1.185-1.71,1.226-3.161,1.263c-0.167,0.004-0.362,0.009-0.536,0.017
		c0.003,0.01,0.007,0.02,0.01,0.028c0.242,0.648,0.606,1.629-0.074,2.188c-0.223,0.183-0.443,0.221-0.589,0.221
		c-0.568,0-0.906-0.514-1.233-1.01c-0.183-0.277-0.39-0.592-0.605-0.778c-0.134-0.116-0.226-0.17-0.278-0.194
		c-0.037,0.064-0.098,0.204-0.148,0.481c-0.24,1.317-1.391,2.041-3.134,3.137l-0.054,0.034c-0.603,0.379-1.207,0.836-1.739,1.24
		c-1.062,0.805-1.83,1.385-2.5,1.386c-0.05,0-0.099-0.004-0.146-0.01c-0.791-0.105-1.065-1.133-1.412-2.435
		c-0.057-0.212-0.126-0.472-0.197-0.71c-0.03,0.098-0.058,0.19-0.081,0.266c-0.215,0.721-0.384,1.29-0.966,1.29
		c-0.116,0-0.231-0.031-0.333-0.089c-0.407-0.231-0.466-0.727-0.528-1.251c-0.022-0.185-0.059-0.494-0.113-0.674
		c-0.266,0.127-0.771,0.459-1.126,0.693c-1.037,0.683-1.708,1.098-2.282,1.098c-0.328,0-0.602-0.141-0.772-0.396
		c-0.145-0.217-0.188-0.483-0.124-0.75c0.063-0.262,0.248-0.536,0.5-0.806c-0.318,0.049-0.607,0.08-0.827,0.08
		c-0.204,0-0.464-0.021-0.673-0.177c-0.191-0.144-0.289-0.368-0.261-0.603c0.06-0.514,0.57-0.759,2.331-1.528
		c0.212-0.093,0.465-0.203,0.707-0.313c-0.168-0.043-0.336-0.084-0.482-0.12c-0.522-0.128-1.063-0.261-1.501-0.413
		c-0.89-0.311-1.147-0.917-1.091-1.381c0.065-0.543,0.589-1.167,1.864-1.29c1.14-0.105,1.864,0.526,2.378,0.979
		c0.157,0.139,0.389,0.343,0.494,0.376c0.144-0.09,0.419-0.485,0.587-0.727c0.468-0.671,1.05-1.506,1.945-1.506
		c0.174-0.073,0.34-0.789,0.411-1.095c0.146-0.632,0.284-1.229,0.745-1.498c0.19-0.11,0.39-0.166,0.593-0.166
		c0.768,0,1.386,0.78,1.613,2.035c0.077,0.424-0.054,0.906-0.283,1.414c0.176-0.225,0.369-0.483,0.405-0.604
		c0.032-1.065,2.001-1.743,3.035-1.743c0.313,0,0.582,0.055,0.799,0.163c0.248,0.124,0.413,0.348,0.453,0.614
		c0.099,0.666-0.584,1.366-1.721,2.441c-0.113,0.106-0.239,0.227-0.345,0.329c0.471,0.623,1.493,1.808,1.909,1.988
		c0.072-0.144,0.173-0.609,0.055-2.115c-0.057-0.717,0.037-1.164,0.303-1.452c0.173-0.188,0.414-0.29,0.678-0.29
		c0.191,0,0.367,0.051,0.521,0.108c0.021-0.085,0.041-0.177,0.06-0.26c0.131-0.584,0.311-1.384,0.752-2.148
		c0.333-0.578,0.798-1.009,1.172-1.355c0.082-0.075,0.178-0.164,0.26-0.245c-0.87-0.559-0.737-1.522-0.648-2.173
		c0.021-0.153,0.042-0.302,0.053-0.443c-0.243,0.076-0.57,0.214-0.832,0.323c-0.659,0.277-1.339,0.563-1.916,0.563
		c-0.996,0-1.123-0.599-1.138-0.782c-0.05-0.604,0.569-1.087,1.188-1.313c-0.286-0.496-0.738-1.356-0.164-2.235
		c0.303-0.466,0.656-0.563,0.898-0.563c0.537,0,0.888,0.44,1.188,0.883c0.001-0.336-0.016-0.723-0.029-1.009
		c-0.025-0.556-0.051-1.13-0.014-1.606c0.093-1.205,1.097-1.281,1.636-1.323c0.456-0.035,0.747-0.072,0.945-0.295
		c0.299-0.334,0.604-0.497,0.933-0.497c0.389,0,0.655,0.231,0.831,0.385c0.039,0.033,0.092,0.08,0.129,0.106
		c0.008-0.005,0.019-0.011,0.032-0.02c0.273-0.183,0.27-1.594,0.268-2.437c-0.002-0.865-0.004-1.76,0.129-2.561
		c0.144-0.858-0.094-1.25-0.17-1.35c-0.049-0.064-0.093-0.097-0.122-0.111c-0.14,0.319-0.205,1.542-0.243,2.28
		c-0.089,1.695-0.13,2.469-0.873,2.469c-0.006,0.004-0.045-0.001-0.065-0.003c-0.417-0.042-0.609-0.384-0.763-0.657
		c-0.227-0.406-0.352-0.55-0.603-0.55c-0.128,0-0.285,0.037-0.466,0.109c-0.724,0.289-1.771,1.954-2.536,3.169
		c-0.961,1.528-1.536,2.402-2.171,2.607c-0.263,0.084-0.492,0.123-0.721,0.123c-0.322,0-0.582-0.076-0.883-0.165
		c-0.424-0.126-0.952-0.282-2-0.331l-0.048-0.002c-1.699,0-4.402,3.849-4.94,4.832c-0.167,0.306-0.458,0.474-0.796,0.669
		c-0.419,0.242-0.941,0.543-1.492,1.211c-0.051,0.062-0.058,0.093-0.058,0.093c0.069,0.21,0.9,0.59,1.173,0.715
		c0.525,0.24,0.905,0.414,0.899,0.88c-0.003,0.204-0.114,0.468-0.417,0.598c-0.196,0.085-0.462,0.122-0.86,0.122
		c-0.939,0-2.391-0.222-2.783-0.306c-0.283-0.061-0.497-0.279-0.573-0.584c-0.229-0.922,0.846-3.551,1.771-4.327
		c0.415-0.35,0.849-0.661,1.268-0.963c0.506-0.364,0.984-0.709,1.32-1.044c0.12-0.12,0.303-0.319,0.527-0.562
		c1.883-2.04,3.068-3.158,3.937-3.224c0.228-0.017,0.887-0.378,2.74-2.605c0.1-0.12,0.183-0.219,0.242-0.288
		c0.124-0.208,0.138-1.202,0.146-1.68c0.016-1.052,0.024-1.579,0.535-1.771c0.08-0.029,0.161-0.044,0.242-0.044
		c0.404,0,0.579,0.268,0.661,0.544c0.17-0.826,0.37-1.556,1.057-1.556c0.27,0,0.515,0.137,0.728,0.408
		c0.683,0.867-0.134,2.375-1.545,4.55c0.128-0.021,0.247-0.047,0.323-0.071c0.026-0.054,0.059-0.126,0.098-0.209
		c0.688-1.469,1.131-2.167,1.792-2.167c0.006,0,0.013,0,0.021,0c0.244-0.117,0.86-0.738,1.357-1.372
		c0.103-0.131,0.254-0.213,0.42-0.228l0.44-0.038c-0.273-0.481-0.425-1.104-0.241-1.845c0.296-1.182-0.204-2.063-0.226-2.101
		c-0.053-0.092-0.083-0.2-0.083-0.306c0-1.838-0.315-2.686-0.503-3.191c-0.143-0.383-0.277-0.745-0.116-1.177
		c0.17-0.452,0.582-0.689,0.946-0.898c0.124-0.071,0.321-0.185,0.4-0.261c-0.066-0.103-0.341-0.314-0.792-0.314
		c-0.305,0-0.768,0.101-1.245,0.577c-0.476,0.476-0.352,0.735,0.155,1.415c0.261,0.351,0.532,0.713,0.532,1.151
		c0,0.988-1.271,2.25-2.267,2.25c-0.168,0-0.328-0.032-0.474-0.098c-0.275-0.122-0.462-0.337-0.524-0.604
		c-0.124-0.527,0.267-0.999,0.611-1.414c0.056-0.067,0.129-0.156,0.183-0.227c-0.108-0.217-0.405-0.635-0.699-0.974
		c-0.094-0.109-0.146-0.249-0.146-0.393v-1.255l-0.949,0.063c0.07,1.57-0.196,2.479-0.794,2.702
		c-0.081,0.03-0.167,0.046-0.253,0.046c-0.889,0.001-1.059-1.151-1.32-4.444c-0.04-0.506-0.074-0.943-0.107-1.188
		c-0.032-0.047-0.282-0.183-0.953-0.183c-0.466,0-0.921,0.065-1.103,0.095c-0.734,0.374-1.49,0.563-2.248,0.563
		c-2.294,0-3.954-1.707-4.506-2.362h-1.171c-0.04,0-0.08-0.004-0.119-0.012L75,96.26c-0.148-0.03-0.572-0.114-1.173-1.3
		c-0.166,0.016-0.357,0.023-0.577,0.023c-0.781,0-1.661-0.098-1.698-0.102c-0.195-0.021-0.367-0.137-0.46-0.309l-0.663-1.215
		c-0.292,0.046-0.595,0.069-0.907,0.069c-3.99,0.001-8.46-3.776-8.649-3.937c-0.133-0.114-0.21-0.281-0.21-0.457v-0.746
		l-1.688-2.231c-0.254,0.046-0.602,0.094-0.964,0.094c-0.45,0-0.838-0.072-1.153-0.216c-0.814-0.37-4.136-4.409-5.686-6.329
		c-0.585-0.098-1.635-0.393-1.667-1.252c-0.115-0.36-0.932-1.195-1.314-1.3c-0.201,0.621,0.226,1.291,0.569,1.831
		c0.239,0.375,0.412,0.646,0.412,0.961c0,0.257,0,0.728-2.528,2.435v2.087c0,0.161-0.064,0.315-0.18,0.429L45.6,85.643
		c0.296,0.467,0.556,1.253,0.188,2.407c-0.383,1.204-0.703,5.96-0.812,7.991c0.603,0.702,2.582,3.192,3.218,6.317
		c0.671,3.299-1.553,13.803-2.002,15.864c3.338,3.318,1.777,10.036,0.665,13.48c0.47-0.688,1.016-1.283,1.496-1.283
		s0.92,0.231,2.205,3.232c0.15,0.203,1.149,0.464,1.746,0.619c1.357,0.354,3.046,0.794,2.707,2.102
		c-0.301,1.159-2.283,1.396-5.167,1.396c-0.265,0-0.516-0.001-0.743-0.003c-0.23-0.002-0.444-0.002-0.604-0.003
		c0.046,0.2,0.116,0.443,0.166,0.617c0.129,0.451,0.241,0.84,0.241,1.148c0,0.477-0.338,0.822-0.805,0.822
		c-0.642,0-1.567-0.732-1.936-1.048c-0.143-0.122-0.24-0.266-0.304-0.423c-0.301,1.504-0.483,3.27-0.324,3.688
		c0.223,0.418,0.992,1.038,1.551,1.43c0.056-0.595,0.123-1.06,0.556-1.233c0.086-0.034,0.173-0.051,0.262-0.051
		c0.439,0,0.695,0.354,0.923,0.742c0.375-0.361,0.835-0.783,1.373-0.783c1.291,0,2.128,4.103,2.132,4.144
		c0.068,0.685-0.409,0.816-0.506,0.836c-0.039,0.008-0.097,0.014-0.137,0.014c-0.41,0-0.672-0.316-1.036-0.754
		c-0.171-0.206-0.403-0.485-0.551-0.585c-0.017-0.004-0.053-0.01-0.116-0.01c-0.543,0-1.545,0.397-1.817,0.995
		c-0.236,0.52-0.012,1.98,0.138,2.946c0.127,0.831,0.198,1.316,0.153,1.651c-0.122,0.908-0.875,1.046-1.326,1.128
		c-0.129,0.024-0.26,0.048-0.39,0.084c0.123,0.434,0.59,1.3,0.859,1.798c0.678,1.258,1.018,1.889,0.506,2.325
		c-0.129,0.11-0.295,0.171-0.467,0.171c-0.424,0.001-0.74-0.337-1.141-0.764c-0.089-0.095-0.212-0.227-0.322-0.332
		c-0.446,0.473-1.224,0.65-1.882,0.65c-0.339,0-0.977-0.048-1.441-0.369c-0.827-0.572-0.315-1.729,0.136-2.75
		c0.169-0.382,0.344-0.777,0.396-1.026c0.145-0.687,0.356-1.848,0.539-3c-0.517,1.68-1.059,3.648-1.359,5.003
		c-0.272,1.227-0.75,2.355-1.133,3.262c-0.153,0.363-0.347,0.823-0.481,1.213c0.313-0.41,0.605-0.739,1.033-0.739
		c0.079,0,0.158,0.013,0.233,0.038c0.303,0.102,0.609,0.416,1.478,1.363c0.408,0.446,1.13,1.234,1.469,1.488
		c0.409-0.15,1.086-0.332,1.777-0.332c0.508,0,0.957,0.097,1.335,0.286c0.306,0.152,0.778-0.134,1.198-0.385
		c0.422-0.252,0.832-0.488,1.253-0.456c0.868,0.066,0.918,1.059,0.956,1.784c0.014,0.27,0.039,0.759,0.115,0.922
		c0.092,0.039,0.436,0.143,1.493,0.143c0.55,0,1.125-0.025,1.631-0.049c0.368-0.017,0.687-0.03,0.913-0.03
		c0.979,0,1.458,1.519,2.217,4.204c0.238,0.842,0.463,1.637,0.643,2.037c0.013,0.028,0.024,0.053,0.034,0.072
		c0.067,0.009,0.182,0.019,0.365,0.019c1.324,0,3.998-0.482,4.025-0.487c0.228-0.04,0.456,0.051,0.591,0.236
		c0.243,0.331,5.941,8.154,6.144,11.599c0.12,2.037-0.397,3.68-0.739,4.767c-0.15,0.478-0.337,1.072-0.292,1.236
		c0.311,0.62,0.035,1.598-0.479,3.271c-0.274,0.89-0.557,1.811-0.633,2.497c-0.028,0.25,0.19,0.821,0.895,1.609
		c1.321,1.476,3.731,3.003,5.479,3.003c0.119,0,0.234-0.008,0.343-0.022c0.246-0.032,0.463-0.048,0.665-0.048
		c1.346,0,1.703,0.773,1.963,1.338c0.267,0.579,0.519,1.125,1.867,1.442c0.246,0.058,0.544,0.087,0.886,0.087
		c2.636,0,7.108-1.685,9.51-2.59c1.388-0.523,1.68-0.626,1.914-0.626c0.424,0,1.029,0.327,2.15,0.954
		c0.736,0.412,1.651,0.924,2.053,1.004c0.028,0.006,0.099,0.016,0.256,0.016c0.259,0,0.619-0.026,1.035-0.057
		c0.583-0.042,1.308-0.095,2.06-0.095c1.85,0,3.242,0.329,4.254,1.005c1.625,1.082,2.976,1.586,3.87,1.919
		c0.381,0.142,0.683,0.254,0.929,0.378c0.691,0.345,0.841,1.434,1,2.586c0.042,0.303,0.099,0.718,0.16,0.981
		c0.343-0.1,0.912-0.299,1.358-0.456c1.403-0.493,2.442-0.842,3.046-0.842c1.019,0,2.198,1.437,2.779,2.242
		c1.736-0.474,7.602-2.051,8.695-2.051c1.331,0,2.111,1.866,2.642,3.512c0.839,0.229,4.319,0.372,7.391,0.38
		c0.331-0.379,1.044-1.163,1.666-1.63c0.24-0.18,0.64-0.283,1.977-0.283c2.55,0,7.357,0.401,9.94,0.616
		c0.773,0.065,1.45,0.121,1.636,0.13c0.305-0.106,1.287-0.919,2.138-1.77c0.189-0.189,0.481-0.231,0.716-0.101l1.598,0.888
		l6.438-0.378c0.17-0.013,0.338,0.054,0.459,0.175c1.133,1.132,2.705,2.353,3.271,2.353c0.611,0,3.232-1.463,5.313-2.818
		C170.162,205.574,170.276,205.541,170.392,205.541z M82.26,135.897c0.105,0,0.209,0.021,0.309,0.063
		c0.518,0.214,0.714,0.867,1.043,2.1c0.128,0.48,0.333,1.25,0.502,1.535c0.336-0.112,1.1-0.69,1.671-1.124
		c0.553-0.418,1.179-0.893,1.826-1.3l0.054-0.033c1.166-0.732,1.907-1.214,2.292-1.702c-0.155,0.06-0.325,0.086-0.511,0.071
		c-1.177-0.079-3.109-2.929-3.123-2.957c-0.23-0.463,0.073-0.749,0.804-1.44c0.273-0.259,0.81-0.766,1.123-1.14
		c-0.688,0.058-1.486,0.439-1.669,0.652c-0.042,0.464-0.408,0.919-0.826,1.442c-0.136,0.169-0.34,0.425-0.451,0.598
		c0.454,0.613,0.589,1.839,0.579,2.42c-0.015,0.795-0.231,1.331-0.641,1.595c-0.166,0.107-0.36,0.163-0.563,0.163
		c-1.154,0-2.453-1.863-2.453-2.855c0-0.502,0.34-1.087,0.895-1.999c0.385-0.634,1.031-1.695,0.961-2.076
		c-0.106-0.586-0.3-0.902-0.409-1.012c-0.067,0.158-0.141,0.475-0.192,0.697c-0.187,0.806-0.469,2.024-1.58,2.024
		c-0.27,0-0.686,0.597-0.961,0.992c-0.431,0.618-0.838,1.202-1.481,1.242c-0.033,0.001-0.068,0.001-0.101,0.002
		c0.181,0.146,0.274,0.325,0.274,0.566c0,0.35-0.202,0.565-0.775,0.862c0.042-0.011,0.082-0.021,0.118-0.031
		c0.292-0.078,0.597,0.074,0.711,0.354c0.077,0.191,0.049,0.401-0.06,0.563c0.397-0.2,0.714-0.268,0.992-0.183
		c0.368,0.113,0.579,0.386,0.707,0.711C81.526,136.239,81.798,135.897,82.26,135.897z M84.037,132.788
		c-0.27,0.447-0.599,1.009-0.612,1.2c0,0.424,0.775,1.471,1.182,1.633c0.19-0.434-0.003-1.904-0.257-2.233
		c-0.167-0.127-0.275-0.311-0.306-0.519C84.041,132.842,84.039,132.815,84.037,132.788z M75.87,132.713
		c0.045,0.033,0.122,0.078,0.249,0.122c0.384,0.134,0.896,0.26,1.392,0.382c0.331,0.081,0.625,0.153,0.882,0.226
		c-0.106-0.085-0.209-0.176-0.312-0.266c-0.437-0.385-0.847-0.744-1.469-0.684C76.191,132.533,75.967,132.643,75.87,132.713z
		 M76.476,126.838c0.19,0.031,0.426,0.065,0.678,0.097c-0.227-0.208-0.399-0.453-0.467-0.747c-0.006-0.025-0.011-0.052-0.016-0.08
		C76.576,126.392,76.507,126.648,76.476,126.838z M100.409,121.968c0.223,0.081,0.5,0.286,0.564,0.809l0.097,0.778
		c0.006,0.053,0.006,0.106-0.001,0.159c-0.146,1.024-0.246,2.225-0.232,2.942c0.427-0.61,0.941-1.801,0.749-2.872
		c-0.13-0.728-0.084-1.143,0.159-1.433c0.114-0.136,0.322-0.298,0.668-0.298c0.037,0,0.072,0.001,0.106,0.004
		c0.027-0.742-0.086-1.907-0.254-2.624c-0.021,0.063-0.042,0.122-0.061,0.177C101.908,120.478,101.473,121.747,100.409,121.968z
		 M79.653,122.596c-0.198,0.149-0.406,0.299-0.618,0.451c-0.401,0.289-0.816,0.587-1.197,0.907c-0.205,0.172-0.419,0.49-0.616,0.861
		c0.606-0.655,1.186-0.99,1.585-1.22c0.136-0.079,0.304-0.176,0.354-0.226C79.207,123.294,79.381,123.004,79.653,122.596z
		 M85.326,117.94c1.143,0.062,1.78,0.25,2.205,0.375c0.4,0.118,0.55,0.163,0.896,0.051c0.096-0.047,0.245-0.212,0.418-0.44
		c-0.021,0.003-0.042,0.005-0.063,0.006c0,0-0.065,0.003-0.172,0.003c-1.683,0-2.066-0.611-2.123-1.056
		C86.072,117.316,85.685,117.677,85.326,117.94z M89.304,115.955l0.048,1.243c0.209-0.318,0.42-0.653,0.598-0.936
		c0.993-1.578,2.02-3.21,3.105-3.645c0.323-0.129,0.63-0.195,0.912-0.195c0.472,0,0.819,0.176,1.077,0.401
		c0.01-0.18,0.02-0.359,0.028-0.522c0.013-0.248,0.026-0.48,0.04-0.697c-0.1,0.111-0.24,0.186-0.396,0.199l-1.421,0.124
		c-0.847,1.044-1.533,1.592-2.043,1.629c-0.167,0.171-0.444,0.666-0.822,1.474c-0.118,0.251-0.172,0.365-0.227,0.447
		C90.143,115.569,89.98,115.813,89.304,115.955z M87.756,116.64c0.088,0.025,0.214,0.052,0.376,0.07l-0.025-0.655
		C87.963,116.282,87.836,116.489,87.756,116.64z M103.43,100.525c-0.203,0-0.397,0.076-0.577,0.226
		c-0.396,0.33-0.681,0.886-0.726,1.415c-0.023,0.281,0.011,0.691,0.312,1.041c0.347,0.404,1.164,1.499,1.475,2.409
		c-0.022-0.098-0.038-0.201-0.048-0.311c-0.079-0.842,0.035-1.863,0.136-2.764c0.068-0.608,0.161-1.442,0.094-1.65
		C104.037,100.74,103.772,100.525,103.43,100.525z M101.522,98.357c-0.391,0.56-0.885,3.134-0.885,4.364
		c0,0.451,0.856,1.517,1.636,2.292c-0.209-0.337-0.464-0.697-0.746-1.025c-0.451-0.526-0.657-1.191-0.596-1.923
		c0.071-0.846,0.513-1.702,1.153-2.235c0.245-0.205,0.517-0.349,0.803-0.43c-0.214-0.147-0.423-0.323-0.629-0.496
		C102.045,98.726,101.708,98.443,101.522,98.357z M90.967,103.699c0.003,0.086-0.008,0.146-0.016,0.185
		c-0.009,0.046-0.022,0.091-0.039,0.135c0.056-0.097,0.089-0.185,0.089-0.251C90.998,103.753,90.985,103.729,90.967,103.699z"/>
</g>
</svg>
