<?xml version="1.0" encoding="iso-8859-1"?>
<!-- Generator: Adobe Illustrator 15.1.0, SVG Export Plug-In . SVG Version: 6.00 Build 0)  -->
<!DOCTYPE svg PUBLIC "-//W3C//DTD SVG 1.1//EN" "http://www.w3.org/Graphics/SVG/1.1/DTD/svg11.dtd">
<svg version="1.1" id="Layer_1" xmlns="http://www.w3.org/2000/svg" xmlns:xlink="http://www.w3.org/1999/xlink" x="0px" y="0px"
	 width="288px" height="288px" viewBox="0 0 288 288" style="enable-background:new 0 0 288 288;" xml:space="preserve">
<g>
	<path d="M119.019,265.83l1.546-18.065c-0.144-0.846-1.055-6.514-0.252-9.997c0.488-2.112-0.568-6.238-1.268-8.97
		c-0.558-2.181-0.799-3.169-0.659-3.728c0.129-0.521,0.508-0.949,0.987-1.493c0.854-0.968,2.023-2.294,2.023-4.668
		c0-3.005-1.755-5.104-2.395-5.397c-0.214,0.353-0.449,1.2-0.583,1.682c-0.32,1.155-0.532,1.918-1.305,1.918c0,0,0,0-0.001,0
		c-0.257,0.001-0.618-0.107-0.875-0.622c-0.178-0.355-0.311-1.001-0.57-2.312c-0.505-2.544-1.555-7.836-3.368-8.331
		c-0.108-0.029-0.22-0.06-0.328-0.097l-0.038-0.009l0.001-0.004c-0.366-0.131-0.675-0.34-0.609-0.832l0.087-0.651h0.657
		c0.092,0,0.114,0.006,0.388,0.068c3.753,0.861,6.992,1.335,9.122,1.335c2.292,0,2.625-0.533,2.655-0.595
		c1.222-2.446,1.879-15.719,0.25-19.79c-1.281-3.2-3.087-4.646-3.641-5.031c-0.179,0.009-0.439,0.019-0.74,0.019
		c-1.433,0-2.423-0.186-3.016-0.572l-2.656,2.127l-0.468-0.367c-0.245-0.192-2.367-1.927-1.603-3.651
		c0.583-1.309,1.963-3.11,2.021-3.187l0.147-0.192l1.028-0.308l-0.116-1.381l0.229-0.243c1.843-1.958,2.567-2.351,2.919-2.43
		c-0.077-0.128-0.151-0.241-0.222-0.339c-0.965-1.326-3.702-3.629-4.098-3.959c-0.015-0.009-0.031-0.018-0.047-0.025
		c0.056,0.124,0.119,0.252,0.174,0.364c0.409,0.827,1.094,2.212-0.202,3.22c-0.481,0.375-1.118,0.565-1.894,0.565
		c-1.299,0-3.105-0.601-3.622-1.461c-0.319-0.532-0.319-1.344-0.292-2.625c0.016-0.718,0.033-1.531-0.074-2.01
		c-0.153-0.693-1.501-2.707-2.531-4.094c-0.045,0.001-0.093,0.001-0.143,0.001c-2.057,0-3.409-0.309-4.019-0.918
		c-0.866-0.866-4.63-8.471-4.63-9.353c0-2.166-0.164-2.628-0.197-2.699c-0.022-0.043-2.229-4.514-2.549-6.265
		c-0.073-0.401-0.119-0.82-0.165-1.241c-0.119-1.1-0.231-2.139-0.869-2.776c-0.568-0.568-3.328-0.903-6.25-1.258
		c-1.629-0.198-3.475-0.422-5.467-0.732c-6.22-0.972-15.087-6.273-17.983-9.932c-1.33-1.679-2.315-3.858-3.268-5.965
		c-0.976-2.158-1.984-4.39-3.338-6.014c-1.073-1.288-2.229-2.49-3.348-3.652c-1.721-1.788-3.346-3.476-4.309-5.138
		c-1.546-2.671-3.042-7.947-3.105-8.17l-0.121-0.427l72.813-71.695l122.668,120.723L119.019,265.83z M118.902,211.979
		c1.744,0,3.994,3.361,3.994,6.931c0,2.941-1.443,4.577-2.398,5.66c-0.274,0.312-0.616,0.698-0.657,0.864
		c-0.03,0.309,0.335,1.734,0.657,2.993c0.779,3.043,1.846,7.21,1.276,9.678c-0.783,3.397,0.273,9.437,0.284,9.497l0.018,0.097
		l-0.009,0.098l-1.206,14.089l118.512-117.699L118.837,25.563L47.713,95.596c0.388,1.307,1.627,5.312,2.836,7.402
		c0.872,1.505,2.436,3.129,4.091,4.849c1.137,1.182,2.313,2.403,3.42,3.732c1.484,1.78,2.536,4.106,3.552,6.356
		c0.958,2.118,1.862,4.119,3.077,5.652c2.388,3.017,10.78,8.403,17.039,9.381c1.967,0.307,3.8,0.529,5.417,0.726
		c3.864,0.469,6.196,0.752,7.13,1.687c1.011,1.011,1.165,2.426,1.299,3.675c0.042,0.384,0.083,0.767,0.149,1.133
		c0.244,1.331,1.995,5.022,2.416,5.865c0.249,0.497,0.354,1.504,0.354,3.368c0.183,0.77,3.554,7.655,4.191,8.292
		c0.165,0.165,0.997,0.479,2.958,0.479c0.286,0,0.471-0.008,0.479-0.008l0.392-0.018l0.238,0.313
		c0.454,0.598,2.734,3.646,3.029,4.98c0.146,0.654,0.127,1.525,0.109,2.367c-0.013,0.633-0.034,1.59,0.082,1.827
		c0.163,0.202,1.259,0.727,2.332,0.727c0.427,0,0.763-0.086,0.972-0.249c0.256-0.199,0.258-0.403-0.221-1.372
		c-0.237-0.479-0.482-0.975-0.482-1.483c0-0.729,0.472-1.218,1.174-1.218c0.583,0,1.22,0.364,1.341,0.437l0.092,0.065
		c0.133,0.109,3.256,2.697,4.403,4.272c0.99,1.36,3.453,7.408,2.986,8.579c-0.275,0.687-1.129,0.778-1.928,0.778
		c-1.007,0-2.287-0.178-2.865-0.268l0.136,0.545c0.061,0.033,0.638,0.291,2.192,0.291c0.5,0,0.871-0.028,0.883-0.029l0.224-0.017
		l0.197,0.109c0.111,0.062,2.734,1.558,4.469,5.893c1.688,4.219,1.238,17.935-0.301,21.018c-0.486,0.972-1.756,1.424-3.997,1.424
		c-1.719,0-4.011-0.271-6.722-0.794c1.073,1.842,1.717,4.672,2.282,7.522c0.013,0.064,0.025,0.129,0.039,0.194
		c0.215-0.712,0.468-1.37,0.86-1.755C118.269,212.099,118.568,211.979,118.902,211.979z M115.428,175.714
		c-0.357,0.481-1.288,1.771-1.697,2.69c-0.163,0.367,0.284,1.004,0.728,1.467l2.584-2.069l-1.146-0.197l2.856-2.45
		c-0.08-1.184-0.208-2.467-0.335-3.247c-0.404,0.347-0.942,0.865-1.426,1.365l0.162,1.925L115.428,175.714z M119.354,176.615
		c0.664,0.067,1.445,0.091,1.764,0.055c-0.106-0.615-0.5-1.873-0.987-3.176c0.051,0.55,0.099,1.191,0.144,1.94l0.022,0.372
		L119.354,176.615z"/>
</g>
</svg>
