<?xml version="1.0" encoding="iso-8859-1"?>
<!-- Generator: Adobe Illustrator 15.1.0, SVG Export Plug-In . SVG Version: 6.00 Build 0)  -->
<!DOCTYPE svg PUBLIC "-//W3C//DTD SVG 1.1//EN" "http://www.w3.org/Graphics/SVG/1.1/DTD/svg11.dtd">
<svg version="1.1" id="Layer_1" xmlns="http://www.w3.org/2000/svg" xmlns:xlink="http://www.w3.org/1999/xlink" x="0px" y="0px"
	 width="288px" height="288px" viewBox="0 0 288 288" style="enable-background:new 0 0 288 288;" xml:space="preserve">
<g>
	<path d="M94.258,253.494c-1.512,0-2.966-1.069-4.685-2.674c-1.524-1.424-2.681-1.62-3.702-1.62c-0.306,0-0.606,0.019-0.924,0.037
		c-0.319,0.02-0.649,0.039-0.986,0.039c-0.453,0-0.841-0.035-1.221-0.111c-1.409-0.282-2.157-1.036-2.818-1.701
		c-0.525-0.529-1.021-1.029-1.847-1.304c-1.033-0.345-2.665-1.387-2.015-4.494c-0.088-0.525-1.899-2.323-3.909-3.874
		c-0.147-0.113-0.233-0.289-0.233-0.475c0-0.238-0.08-0.556-0.704-0.903c-0.67-0.378-1.665-0.617-2.628-0.85
		c-1.614-0.389-3.009-0.725-3.307-1.759c-0.295-1.029-0.85-1.313-2.923-2.23c-0.402-0.179-0.85-0.377-1.349-0.607
		c-1.507-0.695-2.285-0.907-2.91-1.077c-0.602-0.164-1.121-0.306-1.96-0.785c-0.937-0.535-1.07-1.656-1.201-2.74
		c-0.188-1.576-0.395-2.561-1.665-2.951c-2.912-0.896-4.562-4.604-4.913-5.475c-0.69-0.505-3.095-2.412-3.095-4.469
		c0-0.923-1.149-1.687-2.26-2.424c-0.691-0.46-1.345-0.894-1.781-1.401c-0.008-0.008-0.021-0.02-0.032-0.032
		c-0.058-0.057-0.134-0.134-0.199-0.239c-0.087-0.13-0.193-0.292-0.315-0.479c-2.542-3.859-4.185-5.935-4.882-6.166
		c-0.867-0.29-1.25-1.426-1-2.964c0.256-1.571,1.168-3.262,2.568-3.262c0.096,0,0.177-0.014,0.259-0.188
		c0.48-1.014-0.342-4.083-1.873-5.954c-0.734-0.897-1.045-1.829-0.924-2.77c0.194-1.499,1.441-2.422,1.494-2.461
		c0.267-0.194,0.639-0.137,0.835,0.127c0.041,0.057,0.203,0.122,0.52,0.122c0.415,0,0.987-0.108,1.699-0.322
		c3.181-0.957,7.793-3.748,8.32-4.412c0.734-0.918,1.479-5.839,1.479-8.706c0-1.33,0.764-1.474,1.092-1.474
		c0.516,0,1.069,0.341,1.655,0.703c0.394,0.243,0.93,0.574,1.185,0.586c0.005-0.009,0.011-0.022,0.018-0.039
		c0.509-1.275-0.77-5.647-2.296-9.308c-0.733-1.759-0.886-2.124,0.05-2.983c0.352-0.323,0.884-0.812,1.606-1.938
		c1.112-1.728,0.902-2.538,0.612-3.66c-0.206-0.797-0.439-1.7-0.238-3.001c0.504-3.272,4.396-6.713,5.879-6.713
		c1.663,0,4.567,4.298,5.835,7.256c0.157,0.367,0.317,0.532,0.406,0.532c0.576,0,1.769-1.777,2.409-2.731
		c0.688-1.026,1.114-1.644,1.533-1.935c0.099-0.723-1.525-3.604-2.146-4.705c-0.622-1.104-0.951-1.697-1.036-2.038
		c-0.292-1.158,1.235-1.676,2.464-2.092c0.396-0.135,0.845-0.286,1.001-0.391c0.104-0.173-0.094-1.035-0.253-1.729
		c-0.141-0.611-0.315-1.372-0.465-2.27c-0.361-2.167,0.428-2.78,1.196-3.186c0.074-0.038,0.171-0.09,0.214-0.122l0.049-0.148
		c0.864-2.638,1.555-3.925,2.308-4.303c0.396-0.197,0.964-0.278,1.623-0.372c0.952-0.136,2.256-0.321,2.445-0.89
		c2.659-7.994,3.477-7.994,4.017-7.994c1.008,0,2.553,0.469,3.87,1.784c0.115,0.115,0.305,0.173,0.564,0.173
		c1.01-0.001,2.547-0.846,3.054-1.172c0.969-0.607,3.542-2.499,3.874-3.991c0.276-1.241,1.313-2.25,2.513-3.417
		c1.04-1.013,2.219-2.159,3.068-3.644c1.2-2.103,3.269-3.949,4.93-5.435c0.904-0.807,1.685-1.504,1.985-1.954
		c1.37-2.057,1.656-3.896,0.871-5.622c-1.197-2.631-0.805-7.331,0.123-8.256c0.483-0.483-0.141-2.358-0.376-3.063
		c-0.202-0.606-0.09-1.53,1.593-2.491c0.479-0.273,0.971-0.487,1.315-0.624c-0.256-2.287-1.33-12.004-1.33-14.078
		c0-1.791,0.982-3.186,1.932-4.534c0.392-0.557,0.797-1.133,1.13-1.731c1.01-1.818,0.128-5.402-0.524-5.893
		c-0.677-0.508-0.652-1.562-0.618-3.021c0.03-1.337,0.068-3.001-0.494-4.352c-0.396-0.95-1.046-1.841-1.674-2.701
		c-1.136-1.557-2.31-3.166-1.799-5.042c0.677-2.478,4.724-2.744,6.432-2.744c0.237,0,0.376,0.006,0.376,0.006
		c0.284,0.012,0.521,0.222,0.567,0.502l8.866,54.323l47.658-8.171c0.158-0.026,0.321,0.011,0.452,0.104s0.218,0.235,0.242,0.395
		l4.869,31.211c1.038-1.086,2.786-2.981,3.69-4.336c0.724-1.086,1.672-1.609,2.435-2.03c0.871-0.48,1.293-0.74,1.374-1.389
		c0.151-1.205,0.957-2.431,1.811-3.729c0.602-0.914,1.223-1.859,1.687-2.879c1.063-2.34,3.29-5.636,4.91-5.636
		c0.712,0,1.938,0.44,3.236,0.906c0.768,0.276,1.701,0.611,2.136,0.686c0.498-0.549,1.778-3.063,2.728-4.926
		c2.625-5.153,3.457-6.549,4.31-6.549c0.851,0,1.708,0.827,2.616,1.702c0.565,0.546,1.269,1.224,1.638,1.298
		c0.027,0.006,0.113,0.019,0.31,0.019c0.983,0,3.154-0.313,5.254-0.614c1.685-0.242,3.276-0.472,4.381-0.563
		c1.228-0.103,1.382-0.78,1.463-2.422c0.034-0.701,0.069-1.428,0.333-2.042c0.776-1.813,3.977-2.331,5.695-2.609l0.272-0.044
		c0.336-0.057,1.026-1.182,1.482-1.926c0.941-1.535,2.009-3.276,3.554-3.585c0.146-0.029,0.301-0.044,0.459-0.044
		c1.257,0,2.735,0.928,4.301,1.91c1.667,1.046,3.387,2.135,4.733,2.03c0.301-0.022,0.593-0.049,0.873-0.073
		c0.685-0.06,1.332-0.116,1.882-0.116c0.708,0,1.582,0.081,2.064,0.713c0.365,0.478,0.421,1.154,0.172,2.07
		c-0.169,0.619,0.232,1.322,0.6,1.803c1.354,1.771,4.128,3.184,4.794,3.184c1.925,0,4.278,4.863,4.278,7.265
		c0,0.038-0.002,0.083-0.005,0.13c-0.001,0.024-0.003,0.051-0.003,0.075c-0.081,2.642-1.547,12.121-1.609,12.523
		c-0.03,0.198-0.157,0.367-0.339,0.452c-0.182,0.084-0.394,0.073-0.564-0.03c-9.046-5.475-23.805-14.047-26.379-14.646
		c-0.047,0.518,0.19,1.722,0.37,2.638c0.486,2.47,1.092,5.544-0.324,7.278c-1.395,1.712-0.722,4.015-0.231,5.695
		c0.159,0.547,0.297,1.018,0.355,1.423c0.139,0.969-0.688,1.872-1.832,3.124c-1.322,1.445-2.967,3.245-3.46,5.587
		c-0.704,3.347-2.023,3.923-2.986,4.344c-0.361,0.157-0.622,0.271-0.808,0.503c-0.661,0.826-0.961,3.029-1.021,3.809
		c-0.024,0.313-0.286,0.555-0.6,0.555h-2.527c-0.988,0-2.156,4.539-2.718,6.72c-0.915,3.557-1.327,5-2.338,5
		c-1.278,0-3.905-2.473-5.308-3.892l-1.214,2.948v8.155c0,0.332-0.269,0.601-0.601,0.601h-2.217
		c-0.245,1.603-1.218,5.154-2.18,8.251c-2.359,7.594-3.106,7.892-3.425,8.019c-0.14,0.057-0.568,0.229-2.074,0.229
		c-2.202,0-5.655-0.375-7.09-0.912c-1.575-0.591-2.384-2.13-3.166-3.618c-0.256-0.488-0.521-0.993-0.809-1.452
		c-0.773-1.236-2.058-1.345-3.418-1.46c-0.326-0.027-0.663-0.056-0.983-0.102c-0.039-0.005-0.076-0.008-0.113-0.008
		c-0.661,0-1.04,1.294-1.04,3.55c0,1.892-0.473,6.571-1.415,9.168c-0.14,0.386-0.285,0.775-0.432,1.168
		c-0.787,2.113-1.601,4.299-1.601,5.75c0,1.032-0.894,1.809-1.929,2.706c-1.302,1.13-2.778,2.411-2.899,4.452
		c-0.032,0.557-0.051,1.152-0.07,1.784c-0.119,3.876-0.269,8.7-3.756,12.597c-2.744,3.068-3.98,6.992-4.974,10.146
		c-0.378,1.202-0.735,2.337-1.127,3.25c-0.473,1.102-1.039,2.207-1.539,3.183c-0.237,0.464-0.507,0.989-0.71,1.419
		c1.624,0.01,2.136,3.71,2.296,5.918c0.013,0.174-0.051,0.344-0.174,0.467l-1.148,1.15c-0.381,0.38-0.188,0.938,0.103,1.628
		c0.191,0.452,0.355,0.842,0.11,1.212c-0.108,0.164-0.279,0.271-0.48,0.309c-0.487,0.411-1.967,2.735-2.956,4.291
		c-1.158,1.82-1.889,2.957-2.292,3.36c-0.28,0.28-0.571,0.339-0.765,0.339c-0.672,0-1.14-0.625-1.731-1.416
		c-0.546-0.73-1.226-1.639-2.077-2.017c-0.091-0.041-0.18-0.061-0.272-0.061c-1.021,0-2.407,2.267-3.065,3.875
		c-0.093,0.226-0.312,0.372-0.556,0.372h-0.707l-1.674,1.349c-1.332,1.071-2.455,1.89-3.778,1.89c-0.864,0-1.686-0.356-2.512-1.091
		c-0.491-0.437-1.044-0.667-1.597-0.667c-0.559,0-1.089,0.243-1.385,0.635c-0.135,0.178-0.275,0.462-0.179,0.8
		c0.527,1.847,0.483,5.273-1.807,7.141c-1.603,1.305-3.212,1.477-5.44,1.713c-0.9,0.097-1.921,0.205-3.111,0.403
		c-3.82,0.637-5.358,2.518-5.374,2.536c-0.099,0.125-0.245,0.206-0.403,0.225c-0.159,0.015-0.318-0.027-0.442-0.127
		c-0.181-0.145-4.276-3.422-5.623-4.635c-0.264,0.349-0.659,1.256-0.934,1.887c-0.827,1.9-1.683,3.866-3.113,4.026
		c-0.885,0.098-1.247,0.586-1.919,1.594c-0.47,0.704-1.054,1.581-2.05,2.406C96.085,253.101,95.18,253.494,94.258,253.494z
		 M85.871,248c1.207,0,2.688,0.231,4.521,1.943c1.788,1.669,2.908,2.351,3.865,2.351c0.636,0,1.279-0.297,2.087-0.964
		c0.859-0.712,1.368-1.475,1.816-2.146c0.671-1.007,1.304-1.957,2.784-2.122c0.74-0.082,1.586-2.026,2.146-3.313
		c0.709-1.628,1.178-2.703,2.034-2.703c0.167,0,0.418,0.048,0.664,0.277c0.912,0.852,4.117,3.438,5.281,4.374
		c0.746-0.694,2.522-2.009,5.7-2.538c1.226-0.204,2.265-0.315,3.182-0.412c2.173-0.231,3.483-0.371,4.81-1.45
		c1.826-1.49,1.834-4.398,1.41-5.882c-0.179-0.626-0.041-1.301,0.375-1.853c0.525-0.696,1.401-1.111,2.343-1.111
		c0.852,0,1.68,0.336,2.394,0.971c0.597,0.53,1.158,0.788,1.715,0.788c0.932,0,1.881-0.705,3.025-1.625l1.839-1.48
		c0.106-0.086,0.239-0.133,0.377-0.133h0.522c0.546-1.225,2.089-4.247,4.017-4.247c0.26,0,0.516,0.055,0.759,0.163
		c1.139,0.505,1.922,1.553,2.552,2.395c0.237,0.317,0.551,0.735,0.738,0.889c0.389-0.444,1.282-1.85,2.076-3.098
		c1.901-2.988,2.722-4.186,3.269-4.617c-0.012-0.028-0.023-0.057-0.034-0.082c-0.29-0.687-0.829-1.963,0.152-2.944l0.953-0.954
		c-0.184-2.143-0.683-4.213-1.093-4.52c-0.005,0.003-0.01,0.006-0.016,0.01c-0.321,0.22-0.554,0.313-0.777,0.313
		c-0.25,0-0.475-0.124-0.602-0.331c-0.299-0.489-0.028-1.061,1.053-3.171c0.491-0.958,1.047-2.043,1.504-3.107
		c0.367-0.858,0.7-1.915,1.085-3.138c1.027-3.263,2.307-7.324,5.224-10.585c3.196-3.57,3.338-8.152,3.451-11.835
		c0.02-0.639,0.038-1.243,0.072-1.816c0.15-2.546,1.977-4.131,3.311-5.288c0.779-0.676,1.515-1.314,1.515-1.8
		c0-1.668,0.853-3.956,1.677-6.169c0.145-0.389,0.289-0.776,0.428-1.159c0.882-2.429,1.343-6.992,1.343-8.758
		c0-1.175,0-4.75,2.24-4.75c0.091,0,0.185,0.007,0.283,0.021c0.286,0.041,0.591,0.066,0.914,0.094
		c1.445,0.122,3.243,0.273,4.335,2.02c0.311,0.497,0.587,1.022,0.854,1.529c0.709,1.349,1.378,2.623,2.524,3.053
		c1.168,0.438,4.347,0.836,6.669,0.836c1.027,0,1.44-0.085,1.579-0.125c1.094-1.145,4.959-13.97,4.959-15.773
		c0-0.331,0.269-0.6,0.6-0.6h2.158v-7.674c0-0.078,0.015-0.156,0.045-0.229l1.608-3.905c0.078-0.188,0.245-0.324,0.445-0.361
		c0.199-0.039,0.405,0.03,0.545,0.178c1.816,1.916,4.159,3.962,4.964,4.163c0.364-0.484,0.896-2.552,1.29-4.083
		c1.185-4.604,2.095-7.621,3.88-7.621h1.986c0.117-0.978,0.441-2.935,1.224-3.912c0.37-0.464,0.846-0.671,1.265-0.854
		c0.844-0.368,1.716-0.748,2.293-3.49c0.561-2.663,2.402-4.678,3.748-6.149c0.744-0.814,1.588-1.737,1.53-2.144
		c-0.047-0.321-0.173-0.755-0.319-1.257c-0.534-1.828-1.34-4.589,0.453-6.791c1.06-1.298,0.515-4.064,0.077-6.288
		c-0.359-1.822-0.618-3.139-0.082-3.815c0.104-0.132,0.302-0.287,0.656-0.287c2.429,0,21.044,11.118,26.464,14.388
		c0.374-2.469,1.396-9.381,1.46-11.473c0-0.028,0.002-0.08,0.005-0.129c0.002-0.021,0.003-0.041,0.003-0.058
		c0-2.236-2.271-6.064-3.078-6.064c-1.263,0-4.336-1.808-5.747-3.655c-0.773-1.012-1.044-1.97-0.805-2.848
		c0.137-0.5,0.148-0.874,0.033-1.025c-0.084-0.11-0.346-0.242-1.111-0.242c-0.498,0-1.09,0.053-1.777,0.112
		c-0.284,0.025-0.58,0.051-0.886,0.074c-1.72,0.136-3.63-1.06-5.463-2.21c-1.353-0.849-2.752-1.727-3.663-1.727
		c-0.079,0-0.154,0.007-0.223,0.021c-1.032,0.206-1.994,1.775-2.767,3.035c-0.801,1.306-1.433,2.336-2.308,2.482l-0.279,0.045
		c-1.276,0.207-4.267,0.691-4.783,1.897c-0.179,0.417-0.208,1.005-0.238,1.629c-0.069,1.417-0.165,3.359-2.562,3.558
		c-1.068,0.09-2.717,0.326-4.311,0.556c-2.239,0.322-4.354,0.627-5.424,0.627c-0.226,0-0.404-0.014-0.545-0.042
		c-0.714-0.144-1.453-0.856-2.235-1.61c-0.521-0.502-1.285-1.239-1.689-1.352c-0.616,0.543-2.243,3.738-3.334,5.879
		c-2.478,4.864-2.956,5.596-3.652,5.596c-0.512,0-1.354-0.293-2.686-0.771c-1.037-0.373-2.328-0.836-2.831-0.836
		c-0.62,0-2.539,2.117-3.818,4.932c-0.502,1.105-1.179,2.134-1.775,3.042c-0.774,1.178-1.506,2.291-1.623,3.218
		c-0.16,1.284-1.088,1.796-1.985,2.291c-0.715,0.395-1.454,0.803-2.016,1.646c-1.397,2.094-4.538,5.241-4.671,5.374
		c-0.16,0.16-0.397,0.217-0.61,0.146c-0.215-0.07-0.372-0.255-0.407-0.478l-4.961-31.797l-47.654,8.17
		c-0.158,0.024-0.32-0.011-0.449-0.104c-0.131-0.093-0.219-0.233-0.244-0.392l-8.882-54.421c-2.168,0.023-4.748,0.52-5.115,1.859
		c-0.358,1.319,0.554,2.57,1.611,4.02c0.669,0.917,1.36,1.865,1.812,2.946c0.661,1.586,0.619,3.391,0.586,4.841
		c-0.017,0.736-0.042,1.848,0.144,2.037c1.218,0.914,2.102,5.177,0.849,7.432c-0.363,0.654-0.787,1.257-1.197,1.839
		c-0.881,1.251-1.713,2.433-1.713,3.844c0,2.237,1.36,14.288,1.374,14.409c0.032,0.281-0.138,0.548-0.406,0.637
		c-1.33,0.444-2.759,1.313-2.607,1.768c0.529,1.589,1.016,3.362,0.085,4.292c-0.449,0.497-0.978,4.494,0.122,6.91
		c0.956,2.105,0.632,4.388-0.966,6.784c-0.386,0.578-1.179,1.287-2.184,2.185c-1.597,1.427-3.584,3.201-4.688,5.134
		c-0.933,1.632-2.176,2.842-3.272,3.908c-1.063,1.034-1.979,1.927-2.178,2.819c-0.501,2.248-4.006,4.494-4.403,4.743
		c-0.081,0.052-2.131,1.357-3.696,1.358c-0.59,0-1.065-0.177-1.413-0.524c-1.007-1.005-2.169-1.395-2.91-1.43
		c-0.209,0.209-1.051,1.343-2.989,7.17c-0.424,1.272-2.083,1.509-3.415,1.699c-0.509,0.072-1.035,0.147-1.255,0.257
		c-0.188,0.094-0.732,0.635-1.704,3.604l-0.062,0.186c-0.145,0.437-0.513,0.631-0.782,0.772c-0.423,0.223-0.821,0.434-0.572,1.927
		c0.144,0.862,0.313,1.603,0.45,2.198c0.34,1.478,0.564,2.453-0.251,2.996c-0.287,0.191-0.748,0.347-1.281,0.528
		c-0.475,0.16-1.433,0.485-1.662,0.729c0.111,0.285,0.543,1.05,0.896,1.676c1.87,3.317,3.005,5.546,1.795,6.273
		c-0.237,0.142-0.812,0.998-1.231,1.623c-1.076,1.604-2.188,3.263-3.405,3.264c-0.442,0-1.063-0.219-1.509-1.26
		c-1.5-3.497-4.061-6.482-4.735-6.528c-0.782,0-4.27,2.966-4.69,5.696c-0.163,1.057,0.029,1.799,0.215,2.518
		c0.311,1.199,0.632,2.44-0.765,4.608c-0.807,1.256-1.431,1.83-1.805,2.173c-0.108,0.1-0.243,0.224-0.269,0.27
		c-0.004,0.123,0.248,0.729,0.515,1.368c0.545,1.306,3.214,7.932,2.303,10.215c-0.202,0.505-0.609,0.794-1.117,0.794
		c-0.59,0-1.221-0.389-1.83-0.766c-0.261-0.161-0.667-0.411-0.901-0.496c-0.008,0.057-0.015,0.137-0.015,0.246
		c0,2.565-0.661,8.104-1.74,9.454c-0.777,0.979-5.662,3.835-8.913,4.813c-1.425,0.428-2.372,0.486-3.009,0.187
		c-0.268,0.286-0.621,0.765-0.695,1.36c-0.074,0.598,0.149,1.219,0.663,1.848c1.775,2.169,2.762,5.682,2.029,7.228
		c-0.268,0.563-0.744,0.874-1.344,0.874c-0.552,0-1.186,1.033-1.384,2.255c-0.159,0.977,0.042,1.582,0.195,1.633
		c1.269,0.422,3.396,3.443,5.504,6.645c0.125,0.19,0.232,0.354,0.319,0.484c0.002,0.003,0.005,0.007,0.007,0.01
		c0.011,0.012,0.022,0.023,0.034,0.034c0.031,0.032,0.063,0.063,0.09,0.095c0.333,0.387,0.919,0.776,1.54,1.188
		c1.311,0.871,2.796,1.857,2.796,3.424c0,1.391,1.971,3.063,2.73,3.591c0.101,0.07,0.179,0.171,0.221,0.285
		c0.016,0.041,1.544,4.101,4.209,4.921c2.108,0.647,2.338,2.559,2.505,3.955c0.099,0.825,0.192,1.605,0.604,1.841
		c0.706,0.404,1.094,0.51,1.681,0.67c0.667,0.182,1.498,0.408,3.097,1.146c0.492,0.227,0.935,0.423,1.332,0.599
		c2.083,0.923,3.129,1.386,3.59,2.997c0.104,0.362,1.563,0.713,2.435,0.923c1.043,0.252,2.12,0.512,2.934,0.97
		c0.758,0.422,1.192,0.973,1.294,1.638c2.079,1.625,4.395,3.729,4.146,4.884c-0.542,2.547,0.779,2.988,1.214,3.133
		c1.097,0.365,1.746,1.02,2.319,1.597c0.618,0.622,1.152,1.16,2.203,1.37c0.3,0.061,0.612,0.088,0.984,0.088
		c0.301,0,0.599-0.018,0.914-0.036C85.196,248.021,85.528,248,85.871,248z"/>
</g>
</svg>
