<?xml version="1.0" encoding="iso-8859-1"?>
<!-- Generator: Adobe Illustrator 15.1.0, SVG Export Plug-In . SVG Version: 6.00 Build 0)  -->
<!DOCTYPE svg PUBLIC "-//W3C//DTD SVG 1.1//EN" "http://www.w3.org/Graphics/SVG/1.1/DTD/svg11.dtd">
<svg version="1.1" id="Layer_1" xmlns="http://www.w3.org/2000/svg" xmlns:xlink="http://www.w3.org/1999/xlink" x="0px" y="0px"
	 width="288px" height="288px" viewBox="0 0 288 288" style="enable-background:new 0 0 288 288;" xml:space="preserve">
<g>
	<path d="M128.055,243.094c-0.224,0-0.431-0.125-0.533-0.326l-3.17-6.183c-1.942-0.159-9.799-0.975-10.976-3.835
		c-0.485-1.178-0.696-2.361-0.884-3.405c-0.271-1.516-0.504-2.823-1.458-3.689c-2.255-2.053-2.356-11.485-2.356-11.579
		c0-0.89,0.604-1.584,1.189-2.255c0.641-0.735,1.304-1.497,1.304-2.563c0-1.196-1.082-1.878-2.129-2.537
		c-0.632-0.398-1.229-0.773-1.583-1.27c-0.887-1.244-1.53-5.284-1.601-5.741c-0.058-0.524-1.336-12.261-1.336-13.497
		c0-0.4-0.2-0.639-0.617-1.097c-0.39-0.429-0.874-0.963-1.225-1.837c-0.393-0.984-2.15-2.59-3.435-3.762
		c-0.725-0.662-1.351-1.234-1.724-1.667c-0.656-0.76-1.81-0.929-3.146-1.124c-0.451-0.065-0.917-0.134-1.393-0.229
		c-2.324-0.465-7.86-7.159-9.109-9.5c-1.122-2.105-2.79-4.448-6.656-5.869c-4.138-1.521-6.34-3.401-7.021-4.653
		c-0.602-1.104-1.149-1.515-2.022-1.515c-0.392,0-0.975-0.075-1.733-0.224c-1.517-0.295-3.355-0.813-4.472-1.259
		c-1.366-0.545-2.764-2.125-3.886-3.395c-0.357-0.404-0.695-0.786-0.968-1.058c-0.353-0.354-0.872-0.542-1.375-0.726
		c-0.741-0.27-1.983-0.723-1.541-2.101c0.393-1.235,0.737-5.676,0.802-7.154c0.05-1.18-0.821-5.158-1.295-5.912
		c-0.6-0.958,0.32-1.835,1.059-2.538c0.343-0.327,0.732-0.697,0.834-0.945c0.127-0.31-0.341-0.893-0.62-1.24
		c-0.276-0.346-0.476-0.595-0.476-0.914c0-0.95,0.021-4.148,0.288-5.389c0.161-0.741,0.857-1.874,1.595-3.072
		c0.438-0.711,1.094-1.777,1.16-2.096c-0.096-0.506-1.324-2.882-1.988-4.166c-0.351-0.679-0.654-1.265-0.831-1.636
		c-0.163-0.34-1.072-0.382-1.737-0.413c-0.904-0.042-2.144-0.099-2.144-1.176c0-0.185-0.022-0.532-0.05-0.936
		c-0.188-2.813-0.262-5.4,0.87-6.155c0.796-0.531,1.647-2.798,2.397-4.798c0.179-0.476,0.356-0.949,0.534-1.403
		c0.729-1.863,2.727-2.854,4.185-3.578c0.643-0.318,1.307-0.648,1.497-0.893c0.377-0.486,0.842-0.724,1.42-0.724
		c0.123,0,0.241,0.011,0.354,0.021c0.048,0.004,0.094,0.009,0.138,0.012c0.466-0.892,1.337-1.813,2.438-1.813
		c0.586,0,1.229-0.497,1.229-0.95c0-0.813,0.55-1.627,0.829-1.987V60.802c0-0.288,0.205-0.536,0.488-0.59
		c0.784-0.148,1.61-0.39,1.886-0.544c0.27-0.782,1.662-1.802,2.341-1.896c0.197-0.112,0.725-0.642,1.15-1.37
		c0.107-0.185,0.305-0.298,0.518-0.298c0.196,0,0.386,0.096,0.498,0.256c1.011,1.444,2.336,3.114,2.73,3.342
		c0.093,0.02,0.339,0.06,0.809,0.06c0.613,0,2.253-0.078,4.211-0.797c0.534-0.195,1.429-0.499,2.561-0.885
		c3.582-1.219,11.036-3.755,11.915-4.693l0.151-0.161c1.576-1.686,2.778-2.878,3.908-2.878c0.119,0,0.235,0.014,0.347,0.042
		c0.193,0.048,0.394,0.109,0.596,0.172c0.399,0.123,0.813,0.25,1.154,0.25c0.28,0,0.477-0.082,0.656-0.275
		c0.151-0.162,0.356-0.401,0.6-0.683c1.637-1.902,3.086-3.478,4.237-3.478c0.06,0,0.117,0.004,0.174,0.013
		c0.044,0.006,0.091,0.008,0.14,0.008h0.001c0.409,0,1.044-0.165,1.657-0.325c0.706-0.185,1.436-0.375,2.027-0.375
		c0.456,0,0.803,0.111,1.06,0.339c0.517,0.461,2.966,3.171,2.139,4.941c-0.286,0.612-0.952,1.459-1.657,2.356
		c-0.585,0.743-1.564,1.989-1.613,2.347c-0.058,0.639,0.328,1.923,0.468,2.322c0.06,0.172,0.039,0.361-0.058,0.516
		c-0.479,0.767-0.979,1.672-1.281,2.335c0.324-0.181,0.697-0.4,1.013-0.586c1.749-1.029,3.058-1.759,3.975-1.759
		c0.061,0,0.118,0.004,0.173,0.01c0.88,0.099,2.106,0.7,3.293,1.283c0.979,0.48,1.991,0.978,2.531,1.045
		c0.678,0.084,1.424,0.511,2.288,1.005c0.45,0.258,0.915,0.523,1.392,0.752c0.757,0.362,1.368,0.542,1.921,0.565
		c2.219,0.084,3.329,0.199,4.314,1.873c0.117,0.199,0.262,0.448,0.427,0.733c0.874,1.507,2.681,4.621,3.419,5.331
		c1.681,0.863,29.66,6.544,31.167,6.688c0.622,0.051,1.396,0.565,2.609,1.399c0.922,0.635,1.967,1.354,2.764,1.62
		c0.396,0.132,0.84,0.317,1.354,0.532c1.758,0.735,4.415,1.846,8.014,1.846c1.837,0,3.369-0.09,4.6-0.162
		c0.886-0.052,1.651-0.097,2.312-0.097c0.929,0,1.58,0.093,2.112,0.3c0.47,0.183,1.352,0.324,2.284,0.475
		c1.931,0.31,4.118,0.661,5.014,1.683c0.955,1.093,0.85,2.378,0.757,3.512c-0.04,0.495-0.078,0.963-0.031,1.388
		c0.043,0.379,1.729,0.584,2.635,0.694c1.287,0.157,2.617,0.319,3.546,0.844c0.305,0.173,0.605,0.334,0.895,0.489
		c1.646,0.885,3.065,1.647,3.065,3.191c0,0.652-0.124,0.979-0.251,1.258c-0.054,0.12-0.084,0.186,0.199,0.823
		c0.455,1.023,0.219,1.653,0.047,2.114c-0.125,0.33-0.182,0.481-0.044,0.802c0.287,0.669,1.826,5.593-0.08,6.511
		c-0.659,0.316-1.429,1.532-1.446,2.281c-0.004,0.166,0.029,0.269,0.098,0.306l0,0c0,0,0.062,0.028,0.244,0.028
		c0.634,0,1.73-0.317,2.792-0.624c1.123-0.325,2.184-0.632,2.901-0.632c0.279,0,0.506,0.046,0.692,0.139
		c0.919,0.459,0.569,1.866-0.242,4.752c-0.347,1.231-0.927,3.292-0.747,3.722c0.276,0.482,1.508,1.436,3.21,2.479
		c0.507,0.313,0.881,0.529,0.885,0.531c0.183,0.104,0.296,0.298,0.3,0.509c0.026,1.456,0.029,4.93-0.516,5.745
		c-0.318,0.477-1.194,0.775-2.846,1.306c-0.978,0.314-2.789,0.896-3.058,1.267c-0.063,0.326,0.059,0.787,0.187,1.274
		c0.211,0.803,0.45,1.712,0.021,2.57c-0.313,0.624-0.875,1.173-1.372,1.657c-0.333,0.323-0.89,0.866-0.893,1.065
		c0,0.179,0.019,0.361,0.039,0.555c0.065,0.633,0.147,1.421-0.484,2.291c-0.121,0.166-0.271,0.354-0.436,0.559
		c-0.704,0.879-1.669,2.083-1.611,3.298c0.058,1.2,0.076,2.687,0.082,3.499h1.345c0.27-0.952,0.986-2.997,2.335-3.747
		c0.46-0.255,0.917-0.437,1.321-0.597c1.062-0.422,1.582-0.663,1.795-1.516l0.015-0.06c1.447-5.791,2.766-8.373,4.273-8.373
		l0.063,0.001c0.059,0.003,0.12,0.005,0.183,0.005c1.897-0.001,4.271-1.036,4.347-1.567c0.172-1.214,1.771-5.8,2.593-6.987
		c0.198-0.287,0.473-0.621,0.764-0.976c0.789-0.962,1.87-2.279,1.87-3.252c0-1.892,1.315-4.091,3.01-4.091
		c0.153,0,0.463-0.342,0.812-2.633c0.119-0.781,0.184-1.168,0.351-1.419c0.404-0.605,2.132-1.465,3.21-1.465
		c0.44,0,0.79,0.126,1.039,0.376l0.126,0.125c0.195,0.19,0.522,0.509,0.228,1.018c-0.118,0.204-0.179,0.634-0.179,1.275
		c0,1.514-0.629,1.873-1.218,2.092c-0.255,0.094-0.255,0.094-0.282,0.309c-0.051,0.407,0.017,0.827,0.088,1.272
		c0.14,0.87,0.297,1.856-0.312,3.075c-0.23,0.461-0.573,1.072-0.937,1.719c-0.86,1.531-2.159,3.847-2.159,4.662
		c0,1.478-0.876,4.56-1.736,6.106c-0.179,0.32-0.364,0.649-0.548,0.975c-0.599,1.059-1.277,2.259-1.39,2.703
		c-0.063,0.25-0.302,0.803-0.794,1.93c-0.777,1.78-2.077,4.758-2.182,5.794c-0.061,0.599-0.359,1.938-0.737,3.634
		c-0.648,2.908-1.629,7.302-1.428,8.505c0.094,0.561,0.29,1.254,0.499,1.988c0.529,1.866,1.131,3.982,0.443,5.357
		c-0.4,0.799-0.997,1.272-1.524,1.691c-0.714,0.566-1.331,1.056-1.582,2.313c-0.081,0.405-0.201,0.967-0.343,1.63
		c-0.547,2.557-2,9.35-1.538,10.281c0.653,1.307,2.195,5.448,0.77,7.283c-0.782,1.005-0.886,1.739-1.029,2.756
		c-0.048,0.341-0.102,0.727-0.187,1.148c-0.089,0.443-0.165,0.984-0.253,1.61c-0.235,1.662-0.527,3.732-1.278,5.486l-0.263,0.608
		c-0.851,1.962-1.465,3.38-1.195,4.866c0.168,0.924,0.478,1.876,0.751,2.716c0.267,0.817,0.496,1.523,0.583,2.124
		c0.092,0.644,0.047,1.147,0.005,1.635c-0.042,0.475-0.081,0.924-0.004,1.534c0.143,1.139,0.166,3.281,0.17,3.995
		c0.787,0.86,1.961,2.198,2.13,2.703c0.091,0.272,0.055,0.614-0.024,1.244c-0.091,0.738-0.262,2.111,0.172,2.473
		c3.041,2.538,3.041,3.727,3.041,4.117c0,0.585-0.217,1.2-0.468,1.914c-0.326,0.927-0.695,1.978-0.695,3.237
		c0,2.251,0.815,7.331,0.824,7.383c0.026,0.167-0.019,0.338-0.124,0.47s-0.263,0.214-0.431,0.225l-92.231,5.817
		C128.081,243.093,128.067,243.094,128.055,243.094z M55.703,127.385c0.051,0.072,0.143,0.186,0.213,0.274
		c0.445,0.555,1.189,1.483,0.793,2.447c-0.198,0.484-0.664,0.928-1.115,1.357c-0.306,0.291-0.874,0.833-0.871,1.036
		c0.646,1.023,1.535,5.261,1.479,6.598c-0.054,1.22-0.39,5.994-0.858,7.468c-0.072,0.227-0.09,0.28,0.81,0.608
		c0.566,0.206,1.271,0.463,1.812,1.003c0.299,0.298,0.648,0.694,1.02,1.113c0.982,1.111,2.33,2.634,3.432,3.074
		c1.055,0.421,2.805,0.913,4.257,1.195c0.664,0.13,1.198,0.201,1.503,0.201c1.693,0,2.533,1.145,3.076,2.141
		c0.595,1.092,2.798,2.783,6.381,4.102c4.271,1.568,6.146,4.261,7.303,6.431c1.449,2.717,6.729,8.576,8.284,8.888
		c0.445,0.089,0.896,0.154,1.332,0.218c1.507,0.221,2.931,0.43,3.881,1.528c0.326,0.378,0.956,0.954,1.624,1.563
		c1.521,1.39,3.244,2.964,3.739,4.202c0.27,0.674,0.641,1.082,0.999,1.477c0.456,0.502,0.929,1.021,0.929,1.903
		c0,0.938,0.866,9.137,1.325,13.341c0.246,1.59,0.845,4.438,1.389,5.2c0.217,0.304,0.716,0.618,1.245,0.951
		c1.198,0.755,2.688,1.693,2.688,3.553c0,1.516-0.886,2.534-1.599,3.352c-0.479,0.551-0.894,1.026-0.894,1.467
		c0,2.282,0.483,9.344,1.964,10.69c1.256,1.141,1.535,2.708,1.832,4.366c0.185,1.033,0.376,2.102,0.812,3.161
		c0.743,1.806,6.705,2.872,10.288,3.119c0.21,0.015,0.397,0.138,0.493,0.325l3.144,6.132l91.182-5.751
		c-0.225-1.474-0.737-5.047-0.737-6.921c0-1.465,0.423-2.669,0.764-3.636c0.215-0.609,0.399-1.136,0.399-1.516
		c0-0.239-0.188-1.175-2.609-3.196c-0.937-0.78-0.738-2.376-0.594-3.541c0.032-0.259,0.075-0.606,0.068-0.734
		c-0.151-0.305-1.158-1.486-2.023-2.424c-0.102-0.111-0.159-0.256-0.159-0.407c0-0.027-0.002-2.804-0.161-4.08
		c-0.093-0.737-0.044-1.295-0.001-1.788c0.04-0.458,0.074-0.854,0.002-1.359c-0.071-0.498-0.297-1.19-0.535-1.924
		c-0.285-0.876-0.608-1.869-0.791-2.873c-0.334-1.844,0.376-3.482,1.274-5.557l0.261-0.604c0.689-1.607,0.969-3.589,1.193-5.182
		c0.087-0.617,0.17-1.2,0.265-1.678c0.078-0.389,0.128-0.74,0.175-1.08c0.156-1.109,0.291-2.068,1.271-3.325
		c0.854-1.1-0.113-4.446-0.896-6.011c-0.545-1.09,0.115-4.884,1.438-11.069c0.14-0.656,0.259-1.212,0.339-1.613
		c0.338-1.689,1.228-2.396,2.013-3.019c0.491-0.39,0.916-0.727,1.196-1.288c0.48-0.958-0.076-2.918-0.523-4.492
		c-0.218-0.768-0.424-1.493-0.528-2.119c-0.222-1.325,0.521-4.844,1.439-8.963c0.355-1.592,0.662-2.966,0.715-3.493
		c0.114-1.13,1.142-3.556,2.276-6.153c0.322-0.737,0.688-1.573,0.729-1.742c0.151-0.603,0.781-1.714,1.509-3.002
		c0.183-0.322,0.366-0.648,0.543-0.967c0.817-1.469,1.586-4.357,1.586-5.523c0-1.046,1.003-2.915,2.313-5.25
		c0.356-0.634,0.692-1.232,0.91-1.667c0.437-0.874,0.326-1.558,0.2-2.35c-0.081-0.508-0.165-1.034-0.094-1.61
		c0.117-0.938,0.729-1.164,1.057-1.286c0.289-0.106,0.434-0.16,0.434-0.966c0-0.792,0.084-1.25,0.191-1.555l-0.016-0.015
		c-0.007-0.004-0.067-0.025-0.189-0.025c-0.725,0-1.961,0.658-2.2,0.92c-0.053,0.148-0.122,0.606-0.174,0.945
		c-0.234,1.541-0.557,3.652-1.998,3.652c-0.862,0-1.81,1.513-1.81,2.891c0,1.402-1.188,2.85-2.143,4.014
		c-0.274,0.334-0.534,0.65-0.704,0.896c-0.656,0.948-2.231,5.339-2.393,6.475c-0.23,1.611-3.714,2.597-5.534,2.598
		c-0.082,0-0.162-0.003-0.24-0.006l0,0c-0.133,0-1.301,0.211-3.114,7.464l-0.015,0.06c-0.372,1.487-1.462,1.921-2.517,2.34
		c-0.388,0.154-0.789,0.313-1.181,0.531c-1.028,0.571-1.696,2.668-1.867,3.428c-0.062,0.274-0.305,0.469-0.585,0.469h-2.407
		c-0.332,0-0.601-0.269-0.601-0.6c0-0.023-0.001-2.332-0.084-4.041c-0.078-1.669,1.097-3.136,1.874-4.106
		c0.152-0.188,0.29-0.361,0.401-0.514c0.361-0.497,0.319-0.901,0.262-1.461c-0.022-0.216-0.046-0.438-0.046-0.679
		c0-0.703,0.609-1.297,1.255-1.926c0.45-0.438,0.915-0.891,1.137-1.334c0.227-0.453,0.063-1.072-0.108-1.729
		c-0.163-0.62-0.332-1.262-0.189-1.877c0.208-0.898,1.6-1.388,3.854-2.111c0.789-0.254,1.975-0.634,2.223-0.845
		c0.216-0.432,0.33-2.697,0.31-4.706c-0.159-0.096-0.374-0.225-0.618-0.375c-2.003-1.228-3.225-2.209-3.627-2.914
		c-0.425-0.742-0.034-2.244,0.638-4.634c0.317-1.129,0.784-2.79,0.745-3.365c-0.013,0-0.025,0-0.04,0
		c-0.548,0-1.575,0.297-2.568,0.584c-1.193,0.346-2.321,0.672-3.125,0.672c-0.333,0-0.599-0.057-0.813-0.172
		c-0.484-0.261-0.742-0.755-0.728-1.39c0.027-1.202,1.061-2.823,2.125-3.335c0.554-0.267,0.149-3.435-0.502-4.956
		c-0.328-0.764-0.125-1.303,0.022-1.697c0.143-0.379,0.236-0.63-0.02-1.204c-0.427-0.961-0.422-1.309-0.194-1.809
		c0.07-0.154,0.143-0.313,0.143-0.761c0-0.786-0.925-1.323-2.433-2.134c-0.298-0.16-0.605-0.325-0.918-0.502
		c-0.72-0.407-1.984-0.562-3.101-0.697c-1.817-0.222-3.535-0.431-3.682-1.754c-0.06-0.539-0.016-1.087,0.028-1.617
		c0.084-1.026,0.156-1.913-0.465-2.623c-0.609-0.696-2.743-1.039-4.301-1.289c-1.041-0.167-1.94-0.312-2.529-0.541
		c-0.387-0.15-0.903-0.218-1.677-0.218c-0.625,0-1.374,0.044-2.241,0.095c-1.247,0.073-2.798,0.164-4.67,0.164
		c-3.84,0-6.63-1.167-8.477-1.938c-0.492-0.206-0.917-0.384-1.271-0.501c-0.958-0.32-2.077-1.091-3.064-1.771
		c-0.755-0.519-1.693-1.164-2.029-1.192c-0.268-0.022-30.643-5.876-31.845-6.969c-0.789-0.717-2.25-3.182-3.679-5.644
		c-0.163-0.282-0.307-0.53-0.423-0.727c-0.641-1.088-1.127-1.199-3.328-1.284c-0.724-0.03-1.482-0.247-2.392-0.682
		c-0.516-0.247-1-0.524-1.469-0.792c-0.721-0.412-1.401-0.802-1.841-0.856c-0.74-0.093-1.795-0.61-2.911-1.158
		c-1.043-0.513-2.226-1.093-2.896-1.168c-0.014-0.001-0.026-0.002-0.041-0.002c-0.66,0-2.288,0.958-3.366,1.593
		c-1.279,0.753-1.914,1.114-2.371,1.115c-0.243,0-0.405-0.098-0.498-0.18c-0.154-0.136-0.24-0.33-0.24-0.546
		c0-0.839,1.087-2.721,1.604-3.567c-0.174-0.548-0.512-1.746-0.438-2.554c0.059-0.653,0.747-1.558,1.864-2.979
		c0.632-0.804,1.286-1.635,1.514-2.122c0.359-0.771-1.003-2.783-1.85-3.537l0,0c-0.001,0-0.065-0.035-0.262-0.035
		c-0.438,0-1.092,0.171-1.725,0.336c-0.718,0.188-1.396,0.364-1.96,0.364c-0.11,0-0.215-0.007-0.311-0.021
		c-0.698,0-2.681,2.304-3.332,3.061c-0.251,0.292-0.469,0.544-0.632,0.718c-0.404,0.436-0.921,0.657-1.533,0.657
		c-0.522,0-1.046-0.161-1.508-0.304c-0.182-0.056-0.359-0.111-0.533-0.154c-0.016-0.004-0.035-0.007-0.056-0.007
		c-0.696,0-2.158,1.563-3.032,2.498l-0.151,0.162c-1.001,1.068-6.438,2.979-12.404,5.009c-1.125,0.383-2.014,0.686-2.534,0.876
		c-2.139,0.785-3.946,0.87-4.624,0.87c-0.47,0-0.86-0.036-1.129-0.103c-0.524-0.132-1.497-1.177-2.895-3.109
		c-0.413,0.544-1.015,1.189-1.554,1.215c-0.308,0.081-1.149,0.742-1.315,1.026c-0.013,0.318-0.176,0.83-2.327,1.301V86.56
		c0,0.146-0.053,0.287-0.149,0.396c-0.263,0.301-0.68,0.941-0.68,1.377c0,1.23-1.282,2.149-2.429,2.149
		c-0.545,0-1.108,0.634-1.402,1.222c-0.136,0.271-0.417,0.593-0.989,0.593c-0.094,0-0.194-0.009-0.3-0.019
		c-0.075-0.008-0.155-0.016-0.238-0.016c-0.148,0-0.286,0.02-0.473,0.26c-0.358,0.461-1.044,0.801-1.911,1.231
		c-1.354,0.672-3.04,1.508-3.601,2.94c-0.176,0.449-0.351,0.917-0.527,1.388c-0.894,2.38-1.737,4.628-2.855,5.374
		c-0.431,0.287-0.544,1.995-0.339,5.077c0.024,0.368,0.045,0.673,0.051,0.893c0.209,0.063,0.677,0.085,1.001,0.101
		c1.021,0.047,2.291,0.105,2.765,1.094c0.169,0.354,0.468,0.933,0.814,1.602c1.435,2.775,2.081,4.104,2.122,4.648
		c0.038,0.504-0.337,1.166-1.338,2.794c-0.591,0.96-1.327,2.156-1.444,2.696C55.776,123.236,55.706,125.587,55.703,127.385z"/>
</g>
</svg>
