<?xml version="1.0" encoding="iso-8859-1"?>
<!-- Generator: Adobe Illustrator 15.1.0, SVG Export Plug-In . SVG Version: 6.00 Build 0)  -->
<!DOCTYPE svg PUBLIC "-//W3C//DTD SVG 1.1//EN" "http://www.w3.org/Graphics/SVG/1.1/DTD/svg11.dtd">
<svg version="1.1" id="Layer_1" xmlns="http://www.w3.org/2000/svg" xmlns:xlink="http://www.w3.org/1999/xlink" x="0px" y="0px"
	 width="288px" height="288px" viewBox="0 0 288 288" style="enable-background:new 0 0 288 288;" xml:space="preserve">
<g>
	<path d="M233.037,230.321c-0.019,0-0.038-0.001-0.058-0.003c-1.916-0.185-3.852-0.373-5.813-0.565
		c-56.884-5.578-130.92-14.783-131.661-14.876l-54.754-8.122c-0.327-0.048-0.553-0.352-0.506-0.68l5.482-37.745l13.725-86.893
		l3.706-23.538c0.025-0.16,0.114-0.303,0.247-0.396c0.132-0.094,0.296-0.131,0.456-0.1c68.884,12.838,151.514,19.675,175.197,21.464
		c4.867,0.368,7.64,0.554,7.667,0.556c0.161,0.011,0.312,0.086,0.417,0.209c0.104,0.123,0.155,0.283,0.141,0.444l-13.648,149.699
		c-0.015,0.159-0.092,0.306-0.215,0.407C233.312,230.272,233.177,230.321,233.037,230.321z M41.519,205.656l54.148,8.032
		c0.728,0.09,74.747,9.294,131.616,14.87c1.756,0.172,3.491,0.342,5.211,0.507l6.813-74.726l6.726-73.762
		c-1.07-0.074-3.51-0.246-7.063-0.515c-23.631-1.785-105.899-8.592-174.721-21.368l-3.61,22.93L46.914,168.51L41.519,205.656z"/>
</g>
</svg>
