<?xml version="1.0" encoding="iso-8859-1"?>
<!-- Generator: Adobe Illustrator 15.1.0, SVG Export Plug-In . SVG Version: 6.00 Build 0)  -->
<!DOCTYPE svg PUBLIC "-//W3C//DTD SVG 1.1//EN" "http://www.w3.org/Graphics/SVG/1.1/DTD/svg11.dtd">
<svg version="1.1" id="Layer_1" xmlns="http://www.w3.org/2000/svg" xmlns:xlink="http://www.w3.org/1999/xlink" x="0px" y="0px"
	 width="288px" height="288px" viewBox="0 0 288 288" style="enable-background:new 0 0 288 288;" xml:space="preserve">
<path d="M122.115,235.301c-1.26-0.735-1.052-2.417-0.315-2.627c0.733-0.209,1.68-2.729,1.68-4.097c0-1.365-1.05-1.784-2.521-2.521
	c-1.467-0.736-2.938-1.26-3.674-2.1c-0.736-0.841-2.312-2.102-3.258-2.627c-0.945-0.522-1.049-2.414,0-3.465
	c1.055-1.051,0-3.781,0-3.781c7.985,0.945,92.424-9.031,92.739-9.767c0.315-0.736-0.84-2.312-2.942-4.833
	c-2.097-2.521-1.89-2.31-1.993-4.305c-0.108-1.996,1.049-1.996,1.049-2.521s-1.049-1.996-1.049-2.628
	c0-0.629,1.049-5.458,0.733-8.506c-0.314-3.048-2.415-4.097-3.045-4.621c-0.63-0.523-1.365-5.67-1.784-6.616
	c-0.423-0.945,1.679-4.726,1.784-6.195c0.106-1.473,0.209-4.518-0.105-6.302c-0.314-1.787,4.517-5.253,4.833-5.883
	c0.313-0.63-3.259-1.785-4.203-2.206s0.944-2.205,0.841-3.781c-0.106-1.575-0.735-2.1-0.735-2.936c0-0.837-0.63-1.791-2.626-3.26
	c-1.993-1.47-2.729,0.105-2.206-2.835c0.528-2.942-0.63-2.206-0.943-2.942c-0.315-0.736,0-1.891-0.735-2.414
	c-0.738-0.524-1.996-1.997-1.996-1.997l-25.185-89.034c-8.407,0.982-17.082,2.09-25.912,2.905
	c-10.567,0.975-41.184,3.524-60.665,4.946c0.615,1.557,2.242,3.926,4.716,4.746l-3.623,126.347l7.813,61.857
	c0.77,0.533,2.767,1.849,2.767,1.086c0-0.946,3.15-0.483,3.623,0.229c0.473,0.715-1.732,1.976,0,1.976
	c1.733,0,3.15-0.729,2.835-3.517c-0.313-2.786-0.313-10.348,1.262-12.237c1.575-1.891,0.63-4.097,2.048-3.467
	c1.417,0.631,4.41,8.552,3.78,9.554s-2.205,2.578-1.103,3.837c1.103,1.261,3.781,1.733,4.727,2.836
	c0.946,1.104,3.568,2.433,3.466,2.994c-0.198,1.063-2.128,1.3-2.914,1.417c-0.788,0.119-4.176,0.315-5.83,0.906
	c-1.654,0.592-1.93,0.906-1.732,1.104c0.197,0.196,4.962-0.867,6.381-0.512c1.417,0.354,6.42-1.379,8.35-2.285
	s1.732-0.788,1.457-1.813c-0.276-1.022-2.521-1.535-1.418-1.969s1.063,1.182,2.166,0.946c1.104-0.237,0.591-2.01,1.732-2.01
	s-1.102,3.349,0,3.466c0.299,0.03,0.844-0.103,1.482-0.315c-0.034-3.233,1.718-6.067,2.142-6.237
	C124.528,237.083,123.375,236.034,122.115,235.301z"/>
</svg>
