<?xml version="1.0" encoding="iso-8859-1"?>
<!-- Generator: Adobe Illustrator 15.1.0, SVG Export Plug-In . SVG Version: 6.00 Build 0)  -->
<!DOCTYPE svg PUBLIC "-//W3C//DTD SVG 1.1//EN" "http://www.w3.org/Graphics/SVG/1.1/DTD/svg11.dtd">
<svg version="1.1" id="Layer_1" xmlns="http://www.w3.org/2000/svg" xmlns:xlink="http://www.w3.org/1999/xlink" x="0px" y="0px"
	 width="288px" height="288px" viewBox="0 0 288 288" style="enable-background:new 0 0 288 288;" xml:space="preserve">
<g>
	<path d="M303.27,237.621c-0.596-0.994-1.426-1.837-1.963-2.866c-0.627-1.2,0.211-1.539,0.693-2.582
		c1.725-3.726-1.775-2.945-4-4.157c-4.633-2.523-10.068-3.942-13.203-8.561c-1.303-1.921-1.57-4.346-3.09-6.042
		c-2.486-2.776-4.211-5.688-5.973-8.97c-1.379-2.567-2.293-5.151-4.691-6.938c-1.422-1.06-2.928-2.014-4.227-3.231
		c-0.814-0.764-1.465-2.287-2.471-2.789c-1.143-0.57-2.055-0.591-2.883-1.687c-0.76-1.004-1.25-2.178-1.9-3.251
		c-1.186-1.957-4.895-3.19-6.656-1.182c-0.852,0.97-0.906,2.701-1.215,3.897c-0.385,1.492-1.055,2.52-2.15,3.582
		c-1.609,1.56-5.006,4.677-5.406,0.669c-0.287-2.869-2.654-3.177-4.729-4.945c-1.145-0.978-2.227-2.124-3.18-3.292
		c-0.625-0.766-1.129-2.135-2.256-2.159c-2.973-0.063,0.383-4.122-0.023-5.307c-0.678-1.982-5.338,1.353-6.24,1.755
		c-0.689,0.309-1.586-1.632-2.893-1.155c-1.363,0.497-2.809,0.799-4.232,1.059c0-26.736,0-53.472,0-80.208
		c0-13.632,0-27.264,0-40.896c0-1.202,0-2.405,0-3.607c0-0.329,0.098-0.373-0.25-0.41c-1.848-0.2-3.832-2.146-5.197-3.334
		c-1.182-1.03-2.158-2.475-3.779-2.78c-1.967-0.372-3.967,0.102-5.816,0.699c-0.887,0.286-1.809,0.711-2.754,0.514
		c-1.539-0.321-2.135-1.548-3.398-2.303c-0.975-0.583-2.076-0.471-3.016-1.116c-1.02-0.697-2.908,0.834-3.482,0.261
		c-0.66-0.659-1.432-1.029-2.375-1.1c-0.678-0.051-0.826-1.197-1.316-1.613c-0.828-0.704-1.635,0.277-2.232-0.634
		c-0.414-0.631-1.137-0.912-1.604-1.557c-0.479-0.661-3.297-1.439-4.105-1.129c-0.676,0.26-4.527,2.046-4.639,1.551
		c-0.147-0.664,1.969-1.101,1.471-1.522c-0.846-0.715-1.869-0.807-2.549,0.085c-0.504,0.661-0.873,1.281-1.701,0.226
		c-0.576-0.734-2.269-0.091-1.251-1.317c0.793-0.956-0.04-1.507-0.972-1.412c-1.131,0.116-1.568-0.264-1.615-1.449
		c-0.037-0.954,1.422-0.862,0.896-2.045c-0.602-1.354-2.656-0.43-3.234-1.369c-1.465-2.381-4.375,0.883-5.702-0.121
		c-0.753-0.569-0.775-6.356-3.019-4.037c-0.884,0.913-2.465,3.22-3.932,2.365c-1.656-0.964,4.39-2.308,1.998-4.494
		c-0.724-0.66-1.6-1.002-2.429-1.497c-0.538-0.322-0.556-1.509-1.11-1.509c-1.598,0-3.969,3.316-5.224,4.197
		c-1.556,1.092-3.718,0.746-5.512,0.658c-0.715-0.036-1.466-0.041-2.171-0.186c-1.211-0.25,0.639-1.125,0.623-1.174
		c-0.436-1.308-4.43,0.369-4.3,1.545c0.061,0.552,0.646,1.262,0.484,1.817c-0.159,0.544-0.981,0.848-0.981,1.398
		c0,0.156,0.819,3.797-0.557,2.781c-1.365-1.008,0.964-4.324,0.331-4.746c-0.997-0.665-2.141,0.416-3.069,0.808
		c-1.352,0.57-3.813,1.317-5.271,0.715c-0.878-0.363,0.265-1.918-1.226-1.06c-0.768,0.443-1.773,1.841-2.636,1.841
		c-1.415,0-1.445,2.455-2.379,2.455c-1.301,0-1.952,1.831-2.549,2.758c-3.202,4.978-8.582,7.224-14.306,4.596
		c-0.832-0.382-1.236-0.965-1.952-1.504c-1.519-1.145-1.433,0.755-1.628,1.667c-0.188,0.876-0.738,2.242-1.436,2.833
		c-0.59,0.5-1.281,1.133-2.116,1.133c0.005,0-2.113-0.454-1.289,0.406c1.833,1.914,3.313,4.533,4.849,6.817
		c1.997,2.97,3.963,5.801,3.668,9.492c-0.105,1.309-0.241,2.682-0.202,3.99c0.052,1.748,1.79,1.788,2.877,2.44
		c1.592,0.954,2.933,1.739,4.841,1.82c1.239,0.052,2.243-0.113,2.837,1.371c-0.041-0.102-3.706,2.535-2.544,4.394
		c0.741,1.186,1.085,2.087,2.512,1.357c1.942-0.993,1.851,0.352,3.566,1.04c1.887,0.755,1.106,2.28-0.564,2.402
		c-1.739,0.126-1.924-2.44-3.591-2.44c-1.335,0-3.014-0.416-3.218-2.028c-0.198-1.57,0.732-3.472,0.047-4.939
		c-0.649-1.389-2.663-0.331-2.554,0.973c0.168,2.001,2.831,2.756,2.071,4.893c-0.901,2.537,0.344,1.566,1.929,2.36
		c0.964,0.483,2.833,3.915,0.629,3.915c0.301,0,0.153-3.265-1.296-2.38c-0.346,0.211-2.959,2.784-2.924,2.807
		c-0.377-0.245,0.25-1.387,0.196-1.745c-0.098-0.649-2.517-0.16-3.005-0.188c-1.317-0.077-0.59-1.195-1.544-1.477
		c-0.712-0.21-1.895-0.101-2.389-0.675c-0.602-0.699-1.274-0.1-1.938-0.392c-0.795-0.35-0.904-1.869-0.58-2.509
		c0.767-1.515,4.205-3.911,0.629-5.012c-1.505-0.463-10.06-0.996-10.524,0.97c-0.152,0.643,2.879,2.71,0.596,2.201
		c-0.567-0.126-2.103-0.498-2.225-1.231c-0.193-1.159-0.625-0.941-1.719-0.717c-0.898,0.183-1.663,0.343-2.583,0.394
		c-1.066,0.06-0.643,1.473-1.59,1.57c-1.077,0.11-0.862-0.484-1.677-0.733c-1.125-0.344-1.086,1.096-2.034,1.259
		c-0.876,0.15-0.993-0.489-1.779-0.587c-1.372-0.172-1.664,1.402-0.691,2.046c0.673,0.446,1.288,1.962,1.713,2.649
		c0.59,0.952,1.429,1.416,2.327,2.055c1.298,0.924,2.689,1.317,3.683,2.58c0.468,0.595,0.56,1.639,1.347,1.639
		c0.94,0,1.669,0.163,1.485,1.331c-0.151,0.964-1.376,0.774-2.098,0.822c-1.034,0.068-0.891-1.975-1.141-2.633
		c-0.733-1.929-1.53-0.455-2.801-0.455c-1.98,0-0.682-1.35-0.468-1.87c0.25-0.606-1.302,0.336-1.289,0.321
		c-0.344,0.372-0.39,0.997-0.288,1.467c0.274,1.253,1.492,2.075,1.833,3.297c0.232,0.832-1.308,1.466-1.455,2.288
		c-0.262,1.463,1.283,2.584,2.217,3.421c2.757,2.469,4.302,3.408,8.063,3.021c1.092-0.112,2.945,0.352,3.912,0.876
		c0.64,0.348,2.192,3.796,3.167,2.942c0.339-0.298-0.992-1.565-1.096-2.103c-0.236-1.229,1.381-0.222,1.617,0.516
		c0.152,0.474,0.889,0.823,0.889,1.321c0,0.375-0.598,1.011-0.732,1.406c-0.709,2.083,1.469-0.533,1.752-0.669
		c1.205-0.579,3.173-1.947,4.561-1.87c0.563,0.031,1.461-0.84,1.983-0.414c0.113,0.092,0.465,1.021,0.728,0.988
		c0.566-0.07,2.421-1.787,2.644-1.311c0.477,1.022,1.185,2.161,0.651,3.276c-0.647,1.356-1.325,2.097-2.79,1.329
		c-1.106-0.58-1.864-0.467-2.354,0.699c0.078-0.186,1.514,1.135,1.654,1.517c0.44,1.208,0.952,2.304,0.277,3.458
		c-0.819,1.398,0.748,2.578-0.085,3.903c-0.623,0.992-1.446,1.938-2.362,2.668c-1.065,0.848-2.227,0.764-3.53,0.656
		c-0.643-0.053-1.337-0.125-1.941-0.375c-0.825-0.342-0.837-1.35-1.475-1.775c-0.8-0.533-0.193-2.188-1.473-2.125
		c-1.601,0.08-1.454,0.94-0.066,1.494c2.486,0.992-2.048,2.698-3.013,3.386c-1.082,0.772-2.102,1.301-3.489,1.273
		c-0.862-0.018-1.398-1.85-1.86-2.468c-2.212-2.955-4.512-1.514-6.898,0.393c-1.052,0.842-2.143,2.147-2.16,3.522
		c-0.026,1.991-1.538,1.014-2.716,1.734c-1.189,0.728-2.331,1.556-3.434,2.406c-1.436,1.106-1.286,1.744-1.83,3.436
		c-0.615,1.913-2.364,0.307-3.556,1.235c-1.264,0.984-1.251,2.83-1.024,4.301c0.151,0.985,0.847,1.545,1.216,2.423
		c0.359,0.851-0.146,1.759-0.266,2.603c-0.225,1.583,2.992,0.209,3.133,1.291c0.046,0.358-0.908,0.597-1.129,0.724
		c-0.516,0.297,0.162,0.798,0.257,1.144c0.325,1.182-0.377,2.31-1.417,2.774c-0.443,0.198-3.104,0.894-2.346,1.837
		c0.316,0.393,1.073,0.321,1.152,0.931c0.068,0.521-0.425,0.788-0.319,1.378c0.229,1.272,1.813,1.378,1.936,2.748
		c0.127,1.409,0.095,1.705,1.395,2.693c0.755,0.573,0.78,1.595-0.133,2.134c-0.974,0.575,0.768,1.768,1.306,2.183
		c2.691,2.074,5.524,1.044,8.521,0.383c0.524-0.116,1.707-0.164,2.037-0.699c0.673-1.089-0.772-2.048,0.474-3.217
		c0.912-0.856,1.793-1.757,2.779-2.53c0.632-0.495,1.747-0.534,0.751,0.319c-0.993,0.852-2.29,1.964-3.018,3.063
		c-0.934,1.41,0.852,3.714,0.516,5.331c-0.317,1.522-0.836,2.159-0.022,3.721c0.474,0.91,0.285,1.279-0.273,2.2
		c-0.455,0.75-1.355,1.431-1.648,2.242c-0.253,0.703-1.298,3.517,0.239,2.753c1.125-0.56,2.211-0.236,0.724,0.781
		c-1.093,0.748-0.741,0.866-1.093,2.316c-0.506,2.083-1.439,1.453-3.019,1.476c-1.188,0.018,1.196,1.891,1.473,2.192
		c2.59,2.818,3.299-2.383,5.461-2.185c0.965,0.089,1.938,0.294,2.899,0.058c0.401-0.099,3.801-1.425,3.301-0.224
		c-0.563,1.353-0.204,1.628,0.995,2.769c0.713,0.679,2.537-0.363,2.625-0.186c0.262,0.524-0.793,0.957-0.076,1.436
		c0.417,0.277,0.925,0.381,1.306,0.718c0.938,0.831,0.578,2.951,0.796,4.079c0.182,0.939,2.248,2.652,2.431,1.02
		c0.077-0.688-0.364-1.359-0.318-2.065c0.061-0.952,1.02-1.474,1.499-2.215c0.473-0.731,0.678-1.028,1.519-1.355
		c0.862-0.335,0.735-0.812,1.198-1.47c0.865-1.23,1.768-0.885,0.806,0.428c-0.164,0.223-2.091,2.34-1.908,2.524
		c0.95,0.95,0.456,3.181,1.956,3.072c1.757-0.127,3.657-0.459,5.37-0.895c0.505-0.129,4.341-2.491,4.282-2.554
		c0.443,0.47-1.558,2.334-1.742,2.753c-0.792,1.799-1.361,2.528-3.033,3.654c-1.683,1.134-1.084,3.018-2.313,4.332
		c-0.504,0.538-1.328,0.812-1.675,1.494c-0.401,0.791-0.43,2.002-0.729,2.87c-0.277,0.806,0.144,4.279-0.958,3.63
		c-1.108-0.652-2.698,0.23-3.771,0.728c-1.317,0.61-2.07,1.831-3.326,2.58c-1.786,1.064-1.286,2.168-1.817,3.835
		c-0.21,0.659-2.23-0.53-2.916-0.382c-0.883,0.191-1.753,0.443-2.625,0.68c-0.822,0.223-1.563-0.445-2.375-0.279
		c-1.194,0.242-2.635,1.715-3.832,2.221c-1.012,0.428-1.458,0.301-2.484,1.177c-0.634,0.541-2.568,1.824-2.791,2.661
		c-0.354,1.333,0.941,1.96,1.624,2.634c0.239,0.236,0.458,1.137-0.063,1.242c-0.381,0.077-1.115-0.897-1.339-1.104
		c-0.46-0.427-1.042-1.049-1.681-1.2c-0.645-0.153-1.136,0.809-1.799,0.727c-0.621-0.077,1.179-2.249,1.057-2.452
		c-0.453-0.761-1.44-1.072-2.295-1.158c-2.628-0.266-9.013,0.635-10.84,2.824c-0.883,1.059-2.113,1.901-3.227,2.697
		c-1.266,0.904-3.27,0.023-4.37,0.632c-1.491,0.825-2.086,2.91-0.932,4.026c1.5,1.449,1.368-2.043,1.861-1.898
		c0.533,0.157,0.346,1.37,0.872,1.675c0.461,0.267,2.358,0.632,2.623-0.032c0.174-0.436-0.116-3.433,0.302-3.489
		c0.329-0.044,1.452,1.3,1.543,1.62c0.208,0.732-0.926,0.767-0.896,1.064c0.044,0.438,3.206,1.028,3.206,0.201
		c0,0.198,0.047,0.94,0.3,1.012c0.55,0.153,0.25-1.396,0.246-1.557c-0.015-0.507,2.14-0.542,2.596-0.765
		c1.017-0.493,1.147-1.711,1.799-2.547c0.333-0.428,1.911-1.404,1.631-0.147c-0.173,0.785-1.463,1.323-0.764,2.204
		c0.7,0.882,2.295,1.146,3.163,0.39c0.917-0.8,1.31,0.09,2.363,0.12c1.011,0.029,2.035-0.187,3.062-0.168
		c0.543,0.01,1.135-0.808,1.835-0.908c1.132-0.163,2.068-0.494,3.117-0.908c0.74-0.291-1.222,3.58,0.526,2.942
		c0.771-0.282,1.194-1.333,1.647-1.945c0.608-0.821,1.558-0.871,2.512-0.98c2.022-0.23,3.637-0.507,5.309-1.466
		c0.015-0.009,0.429,0.704,0.909,0.415c0.564-0.34,1.092-1.22,1.516-1.726c0.753-0.899-1.34-0.884-1.852-0.915
		c0.498-2.322,3.644-1.571,5.223-2.616c1.075-0.711,1.138-0.629,2.482-0.181c1.777,0.597,1.856-1.849,2.258-2.71
		c0.058-0.125,1.382,1.571,1.78,1.568c0.986-0.006,2.481-1.146,3.071-1.89c0.485-0.612,0.86-0.447,1.666-0.51
		c0.806-0.062,1.906-1.259,2.2-1.961c0.285-0.682-1.036-1.697-0.614-2.078c0.484-0.437,1.924-1.045,2.585-1.238
		c1.181-0.347,2.258,0.224,3.442-0.403c0.809-0.429,1.415-1.065,1.881-1.834c-0.563,0.928,1.889,0.038,2.147-0.188
		c1.503-1.312,2.351-1.416,4.289-2.013c0.917-0.282,1.822-0.468,2.607-0.681c1.705-0.463,2.645-3.455,3.975-4.55
		c1.411-1.162,3.28-1.87,4.774-2.981c1.669-1.241-0.193-2.648-1.411-3.633c-0.563-0.454-3.911-0.587-3.088-1.802
		c0.419-0.619,1.192-0.94,1.375-1.729c0.06-0.26-0.458-0.924-0.43-0.968c0.33-0.503,2.488-0.854,3.101-1.229
		c1.07-0.654,1.409-1.533,2.186-2.305c-0.195,0.194,1.92,0.959,2.7-0.01c0.329-0.408,0.266-0.784,0.451-1.228
		c0.206-0.493,1.543-0.589,1.97-0.824c1.317-0.727,1.963-1.938,0.795-3.067c-0.044-0.043-2.233-2.107-1.64-2.27
		c1.165-0.318,1.351,1.755,2.859,1.329c0.586-0.165,3.144-2.068,2.817-2.726c-0.589-1.177,0.836-2.464,1.696-3.088
		c0.464-0.336,1.019,0.259,1.4,0.426c0.863,0.378,0.995-1.477,1.115-1.938c0.493-1.887,2.017-1.479,3.341-2.425
		c1.633-1.165,2.162-2.068,4.307-1.898c1.951,0.154,5.856,0.107,2.492,2.502c0.982,0.587,1.887,2.514-0.188,2.098
		c-1.242-0.25-1.634-0.904-2.984-0.348c-1.152,0.476-2.179,1.249-3.41,1.526c-0.687,0.154-1.213,0.276-1.818,0.666
		c-1.361,0.875,0.022,1.63,0.338,2.662c0.355,1.161-0.77,1.444-1.293,2.267c-0.646,1.018-1.039,2.121-1.847,3.037
		c-1.063,1.204-3.308,3.09-2.284,4.627c1.359,2.041,2.603,1.005,4.443-0.086c0.602-0.356,1.299-0.621,1.66,0.247
		c0.126,0.301-2.024,1.479-2.343,1.776c-1.03,0.958-1.86,1.136-3.144,1.615c-0.218,0.081-2.497,1.285-2.53,1.371
		c-0.752,1.942,2.644,2.039,3.489,1.941c0.777-0.09,0.676,0.563,1.236,0.806c0.852,0.368,0.828-1.056,0.629-1.466
		c0.479,0.135,1.258,0.543,1.334,1.101c-0.029-0.216,2.394-3.417,2.748-3.632c0.238-0.145,1.827-0.603,2.037-0.339
		c0.223,0.281-0.947,1.261-1.094,1.45c-0.549,0.706,0.102,1.046,0.793,0.772c0.804-0.317,1.605-1.028,2.052-1.767
		c0.522-0.864,1.672-1.188,2.06-2.01c0.047-0.097,1.156-2.096,1.104-1.021c-0.246,5.117,2.105-2.992,2.488-2.864
		c0.604,0.2,0.277,1.483,0.68,1.434c0.268-0.103,0.477-0.271,0.628-0.509c0.237-0.109,0.776,0.715,0.958,0.83
		c0.533,0.339,1.947,0.63,2.591,0.556c0.96-0.111,0.971-2.287,1.12-2.282c1.094,0.029,0.797,1.886,1.395,2.386
		c0.871,0.727,2.133-0.711,1.695-1.584c-0.756-1.5-1.299-2.46,0.092-3.854c1.441-1.442,0.621-1.942,0.041-3.346
		c-0.205-0.494-0.146-1.489-0.738-1.489c-0.291,0-3.969-0.501-2.418-1.36c0.836-0.463,6.158-4.57,6.061-4.717
		c0.854,1.278-3.066,4.357-2.863,5.586c0.072,0.441,3.235-1.125,3.661-1.457c0.897-0.699,2.259-0.858,3.341-0.771
		c1.068,0.086,1.867-1.381,2,0.309c0.041,0.513-0.088,1.518,0.494,1.807c0.254,0.127,2.566,0.314,2.566,0.453
		c0,0.241-1.889,0.769-2.133,0.925c-1.176,0.752,1.402,0.957,1.68,1.04c5.256,1.571-2.797,2.763-2.799,2.78
		c-0.084,0.569,0.289,0.982-0.002,1.563c-0.109,0.22-0.543,0.577-0.561,0.835c-0.055,0.869,2.441-0.436,2.676-0.629
		c1.334-1.094,1.855-1.755,3.547-1.504c1.861,0.277,1.809,1.011,2.703,2.224c1.68,2.276,2.439-1.914,3.322-2.612
		c1.383-1.093,0.688,1.027,0.273,1.629c-0.482,0.704-0.633,2.029,0.242,2.589c1.094,0.7,2.582,0.275,3.516,1.21
		c0.549,0.548,0.207,1.653,0.893,2.039c0.984,0.554,2.527-0.119,3.471-0.465c1.65-0.604,3.297-1.079,5.074-0.795
		c3.006,0.479,6.305,1.655,8.92,3.225c2.451,1.471,2.281,4.406,5.803,3.041c2.381-0.924,4.969-3.611,7.672-2.857
		c5.016,1.4-1.689,3.091-1.689,4.652c0,2.728,4.76,4.017,6.705,4.743c2.201,0.821,4.016,2.073,5.703,3.68
		c1.67,1.592,1.547,3.666,3.916,4.545c1.021,0.379,3.271,1.06,3.947,1.899c0.566,0.705,1.379,1.085,2.297,0.939
		c1.082-0.173,3.1-0.673,3.1-2.152c0-0.94-1.49-1.651-1.928-2.381c-0.422-0.705-4.805-3.148-4.531-3.965
		c0.102-0.308,3.172,0.474,3.455,1.06c0.182,0.373,0.807,1.469,1.406,1.055c0.508-0.353-0.006-1.345,0.26-1.822
		c0.662-1.188,1.91,2.937,1.984,3.141c0.504,1.386-0.299,3.106,1.777,2.982c2.318-0.139,1.318,0.534,2.828,1.838
		c1.686,1.455,1.473-2.57,1.281-3.265c-0.42-1.529-0.713-3.062-1.389-4.502c-0.123-0.263-1.58-3.49-1.236-3.49
		c1.045,0,3.654,5.728,4.18,6.764c0.605,1.193,1.91,4.174,3.521,4.229c1.316,0.045,2.197-2.303,2.967-2.178
		c0.408,0.065-0.572,2.858-0.596,3.189c-0.035,0.557,1.639,2.083,2.078,2.397c0.918,0.654,5,2.917,5.018,4.124
		c0.004,0.256-2.164-0.553-2.096-0.281c0.258,1.036,0.125,1.606,0.959,2.609c0.322,0.389,2.502,2.099,1.18,2.349
		c-0.287,0.055-1.086-0.008-1.283,0.29c-0.174,0.26,0.547,1.353,0.832,1.429c1.539,0.41,0.945-1.096,2.555,0.707
		c1.061,1.188,2,2.802,3.689,3.105c1.268,0.229,0.352,1.344,0.139,2.078c-0.031,0.109-0.025,0.19-0.025,0.274
		c-0.104-0.327-0.352-0.644-0.801-0.854c-1.133-0.527-2.57-2.796-3.555-3.362c-0.98-0.567-3.174-0.604-4.416-0.905
		c-1.242-0.305-1.439-0.734-1.857,0.679c-0.188,0.644,0.113,0.793,1.137,1.435c1.018,0.643,1.662,1.813,1.811,3.178
		c0.152,1.357,0.531,2.379,1.363,2.682c0.83,0.301,2.041-0.942,2.041-1.702c0-0.753,0.488-1.245,1.02-0.529
		c0.531,0.721,2.268,0.948,2.871,0.608c0.307-0.174,0.486-0.57,0.441-0.989c0.291,0.561,1.637,0.3,2.129,0.732
		c0.393,0.347,2.404,1.398,1.727,1.882c-1.049,0.748-1.996,1.028-3.152,1.477c-0.205,0.079-1.205,1.911-1.205,2.196
		c0,0.914,2.109,0.712,2.623,1.159c0.463,0.404,1.484,2.6,1.996,1.57c0.555-1.124,0.266-2.73,0.379-3.96
		c0.133-1.464,2.061-0.96,3.043-0.809c1.154,0.179,0.988,0.53-0.016,0.731c-2.504,0.502-2.355,4.552-2.861,6.503
		c-0.17,0.657,0.604,2.309,1.473,2.122c1.172-0.25,1.035-3.225,0.967-4.059c-0.1-1.225,0.275-2.035,1.092-0.414
		c0.523,1.037-0.078,1.875,0.559,2.997c0.568,1.005-0.443,2.838-1.01,3.702c-0.754,1.149,0.748,1.483,1.641,1.016
		c1.422-0.745,1.799-1.18,3.027-0.012c0.848,0.806,1.066-0.203,1.645,1.078c0.428,0.949,0.238,3.595,1.133,3.858
		c2.465,0.725,3.643,0.298,4.627-1.896C302.561,242.701,304.418,239.533,303.27,237.621z"/>
	<path d="M96.144,46.122c-0.035-0.105-0.055-0.194-0.032-0.24C96.001,46.104,96.022,46.173,96.144,46.122z"/>
	<path d="M48.711,219.066c-0.907-0.906-3.11-0.528-5.103-0.679c-0.741-0.059-0.963,0.227-1.813,0.965
		c-0.851,0.735-1.871,1.812-2.948,2.126c-1.077,0.315-0.737,1.896,0.851,2.805c1.588,0.907,2.097-0.566,4.251-1.079
		c2.153-0.51,4.875,1.134,5.669,0.625c0.794-0.511,0.85-2.892,0.737-3.4C50.242,219.919,49.619,219.974,48.711,219.066z"/>
	<path d="M24.564,224.227c-0.625-0.112,0.113-0.51,0-1.022c-0.114-0.51-1.417-0.51-2.494-0.622c0,0-1.928-0.509-2.325,0.849
		c-0.397,1.362,0.511,1.023,1.417,2.157c0.907,1.131,0.737,1.131-0.17,0.962c-0.908-0.167-1.417-0.85-2.382-0.51
		c-0.963,0.343-0.283,0.51-0.396,1.19c-0.114,0.681-5.215,0.229-6.236,0.564c-1.02,0.343,0.114,0.343,0.397,1.305
		c0.283,0.966,4.704-0.396,5.441-0.225c0.738,0.169,1.134,1.643,1.701,1.643c0.566,0,0.68-1.19,0.965-1.19
		c0.282,0,0.85,0.058,1.587,0c0.735-0.055,1.133-0.964,2.5-0.964c1.368,0,0.73-0.51,0.617-1.133
		c-0.113-0.622-1.134-0.397-1.134-0.907s1.021-0.34,2.324-0.568c1.305-0.227,0.454-0.791,0-1.528
		C25.924,223.488,25.187,224.338,24.564,224.227z"/>
	<path d="M12.943,225.983c-0.17-0.624-0.736-1.757-1.757-1.814c-1.021-0.055-2.04-0.965-2.665,0
		c-0.623,0.964-1.134,0.909-1.134,1.305s0.455,0.983-0.057,1.028c-0.509,0.048-0.962-0.462-1.473-0.407
		c-0.51,0.06-1.247,0.069-1.644,0.63c-0.396,0.563-0.625,1.243-1.191,1.413c-0.565,0.171-1.869,0.906-2.381,0.906
		c-0.509,0-0.963,0.341-0.338,0.681c0.994,0.541,2.323-0.226,3.117-0.452c0.792-0.229,1.586-0.512,2.323-0.397
		c0.737,0.112,1.189-0.793,1.871-1.021c0.68-0.228,2.323-0.509,3.004-0.681C11.3,227.004,13.112,226.608,12.943,225.983z"/>
	<path d="M33.01,222.488c-0.316,0.287-0.511,1.764-1.191,1.24c-0.68-0.524-1.36-1.166-1.87-1.24
		c-0.509-0.077-1.587,0.165-1.645,0.667c-0.055,0.504,0.227,1.138,0.795,1.417c0.566,0.277-0.284,0.506,0.68,0.561
		c0.963,0.058,1.587-0.726,1.814-0.561c0.226,0.163,0.453,0.736,1.19,0.563c0.737-0.171,0.964-0.842,1.304-0.563
		c0.338,0.277,0.226-0.136,0-0.751C33.86,223.204,34.076,221.519,33.01,222.488z"/>
	<path d="M140.581,204.556c0-0.832-0.302-1.438-1.737-1.231c-1.433,0.209-0.983-0.433-0.983-0.886c0-0.454-1.891-1.963-4.004-1.662
		c-2.118,0.303-0.078,0.909-1.136,0.909c-1.056,0-1.436,0-2.542,0c-1.105,0-0.404,0.828-0.254,1.658
		c0.149,0.832-0.455,1.435-0.455,2.571c0,0.606,0.152,1.511-0.679,1.588c-0.832,0.074-0.151-1.737-0.304-2.796
		c-0.152-1.061-2.04-0.605-3.4,0.529c-1.362,1.134-2.723,2.117-2.645,2.945c0.075,0.832,1.359,0.909,0.83,1.739
		c-0.529,0.832,0.605,3.25,0.908,3.933c0.301,0.677,3.173-1.438,3.628-1.285c0.454,0.15-0.833,1.814-1.965,2.267
		c-1.133,0.452-0.228,1.511,0.757,1.66c0.983,0.154,3.098-3.324,4.004-3.474c0.907-0.151,1.134,0.226,1.134,1.133
		s1.737-1.21,2.797-0.983c1.059,0.229,0.753-0.907,0.378-1.586c-0.378-0.681,1.812-0.38,2.644-1.059
		c0.83-0.681,2.117-0.832,3.023-1.739c0.907-0.908,0-1.587-0.755-2.494C139.069,205.386,140.581,205.386,140.581,204.556z"/>
	<path d="M142.206,196.997c-0.72-0.38-1.095-0.074-1.246-1.057c-0.15-0.985,1.512-1.438,1.208-2.042
		c-0.302-0.607-0.302-0.226-1.738,0.453c-1.435,0.681-1.739,1.436-1.437,2.418c0.303,0.983-1.132-0.073-2.116,0
		c-0.984,0.076-0.785,0.557-1.588,2.419c-0.522,1.212,1.322,2.117,2.947,1.549c1.625-0.566,1.967-1.094,2.193-1.094
		c0.228,0,1.058,0.226,1.738,0.529c0.68,0.303,2.117-1.287,2.417-1.966C144.888,197.526,142.925,197.375,142.206,196.997z"/>
	<path d="M266.348,222.844c-0.15-0.602-1.438-5.668-1.664-7.481c-0.227-1.812-0.904-3.7-1.588-5.288
		c-0.68-1.59,0.303-1.438-0.301-2.571c-0.605-1.133-4.082-1.509-6.121-2.038c-2.041-0.531-2.668,0.592-4.086,1.586
		c-1.271,0.895-0.223,1.359,0,2.492c0.229,1.133,2.877,3.553,3.781,4.84c0.91,1.282,1.438,1.658,1.814,2.947
		c0.381,1.284-0.303,2.946,0.605,3.553c0.908,0.602,0.756-2.798,1.264-2.874c0.504-0.075,1.232,1.889,1.836,2.268
		c0.602,0.378-0.682,2.115-0.23,3.403c0.457,1.284,2.648,2.87,2.572,3.854c-0.078,0.983,2.191,4.231,2.947,4.157
		c0.756-0.075,0-2.798,0-4.46C267.178,225.566,266.498,223.452,266.348,222.844z"/>
	<path d="M269.367,222.469c-0.949,1.462-0.604,2.344,0,2.871c0.607,0.529,1.363,1.057,2.043,1.891c0.682,0.83,0.453,1.813,0,1.813
		c-0.455,0-1.283,0.681-1.02,1.588s-0.416,2.418,0.643,2.646c1.059,0.226,0.908-0.681,1.361-1.588s-0.758-1.287,0-2.646
		c0.754-1.361,0.225-1.585,0.604-2.569c0.377-0.981-0.225-2.571-0.982-3.325C271.258,222.392,270.504,220.728,269.367,222.469z"/>
	<path d="M287.924,244.879c-0.641-0.377,0.531-1.701,0.418-2.494s-2.381-2.154-3.627-2.91c-1.248-0.757-0.682-1.813-0.719-2.494
		c-0.041-0.679-1.436-3.287-2.799-3.968c-1.357-0.679-1.854-1.814-2.494-2.984c-0.639-1.171-3.049-1.25-3.361,0
		c-0.113,0.454-0.191,0.604,0.416,1.321c0.604,0.719-1.475,1.512-1.324,2.945c0.152,1.438,1.926-1.32,2.721-1.357
		c0.795-0.039,0.377,1.357,0.645,2.152c0.266,0.795,0.754-0.075,1.209,0.417c0.453,0.492-1.436,1.551-0.645,2.077
		c0.797,0.529,0.719,1.514,1.59,2.684c0.871,1.171,0.34,0.984-0.154,1.324c-0.492,0.343,1.438,0.679,2.152,1.096
		c0.711,0.413,1.174,1.511,2.121,1.549c0.941,0.037,0.791,0.491,0.602,1.21c-0.189,0.718,0.643,0.906,1.662,1.436
		c1.021,0.529,2.234,2.684,3.139,2.381c0.908-0.303,0.15-3.441-0.188-4.12C288.947,244.464,288.57,245.257,287.924,244.879z"/>
	<path d="M283.201,247.486c-0.076-0.149-1.475-1.551-1.852-2.229c-0.379-0.681-1.578-2.565-2.834-2.38
		c-1.283,0.187-0.152,1.359,0.645,1.587c0.793,0.227,0.906,0.828,1.244,1.615c0.342,0.787,0.645,1.749,1.762,2.767
		c1.119,1.022,1.26-0.075,1.451,0c0.189,0.078,1.172,0.683,0.83-1.059C284.107,246.05,283.277,247.638,283.201,247.486z"/>
</g>
</svg>
