<?xml version="1.0" encoding="iso-8859-1"?>
<!-- Generator: Adobe Illustrator 15.1.0, SVG Export Plug-In . SVG Version: 6.00 Build 0)  -->
<!DOCTYPE svg PUBLIC "-//W3C//DTD SVG 1.1//EN" "http://www.w3.org/Graphics/SVG/1.1/DTD/svg11.dtd">
<svg version="1.1" id="Layer_1" xmlns="http://www.w3.org/2000/svg" xmlns:xlink="http://www.w3.org/1999/xlink" x="0px" y="0px"
	 width="288px" height="288px" viewBox="0 0 288 288" style="enable-background:new 0 0 288 288;" xml:space="preserve">
<path d="M103.637,39.89l-4.935,26.184c-2.258,0.377-4.014,4.767-4.642,5.018c-0.627,0.25-3.136-0.125-3.136-1.506
	c0-1.379-1.254-3.135-2.133-3.637c-0.878-0.503-2.132,0-3.01-0.503c-0.879-0.501-2.51-0.753-4.015-0.753s-4.642,1.758-2.885,5.269
	c1.756,3.513,0,2.635-0.376,3.639c-0.377,1.003-0.126,6.772-0.126,8.278s-1.38,2.008-1.506,3.262
	c-0.125,1.254,1.757,6.522,1.632,8.279c-0.126,1.756-1.506,6.021-2.886,6.647c-0.304,0.14-0.518,0.446-0.683,0.83
	c-0.588,1.36-0.446,3.892-0.446,5.066c0,1.506,1.881,3.764,1.881,4.391c0,0.628,1.757,1.63,1.757,3.011c0,1.379,0,6.146,0.753,7.4
	c0.752,1.255,5.52,5.395,4.893,7.15c-0.628,1.756-3.638,3.262-6.649,3.763c-3.01,0.501-2.007,3.513-3.638,4.266
	c-1.63,0.752-0.878,0.752-1.756,2.508c-0.878,1.757-2.007,6.774-2.383,6.899c-0.377,0.125,0.752,2.383-0.879,3.889
	c-1.63,1.506-2.509,5.018-4.641,4.265c-2.133-0.752-2.396,3.011-2.396,3.011s0.891,1.129,1.393,2.133
	c0.502,1.003-2.76,4.642-1.393,7.024c1.367,2.384,3.525-1.506,4.528,2.635c1.004,4.14-1.63,5.77-2.132,6.898
	s-3.387,1.883-4.517,1.38c-1.113-0.493-2.584-0.016-2.626-0.002l-0.008,0.545c0,0-0.319,2.156-0.904,2.407s-1.338,2.34-1.589,2.927
	c-0.251,0.586-1.003,1.505-1.003,1.505l96.922,56.363l57.703,8.53l25.966-187.657L103.637,39.89z"/>
</svg>
