<?xml version="1.0" encoding="iso-8859-1"?>
<!-- Generator: Adobe Illustrator 15.1.0, SVG Export Plug-In . SVG Version: 6.00 Build 0)  -->
<!DOCTYPE svg PUBLIC "-//W3C//DTD SVG 1.1//EN" "http://www.w3.org/Graphics/SVG/1.1/DTD/svg11.dtd">
<svg version="1.1" id="Layer_1" xmlns="http://www.w3.org/2000/svg" xmlns:xlink="http://www.w3.org/1999/xlink" x="0px" y="0px"
	 width="288px" height="288px" viewBox="0 0 288 288" style="enable-background:new 0 0 288 288;" xml:space="preserve">
<path d="M218.297,69.466c1.812-0.776,4.654-1.036,4.915-2.846c0.261-1.809,3.363-5.172,3.363-5.172l0.255-5.17
	c0,0-3.618-1.296-3.618-2.327c0-1.034-2.327-3.876-2.327-3.876l-180.69,8.437l8.142,55.451v93.546
	c0.503,0.673,2.419,2.424,5.042,2.764c2.975,0.388,13.574-2.066,13.574-2.066l0.323,29.342
	c29.956,0.721,120.487-2.776,120.487-2.776s0.139,0.036,0.32,0.159c1.663-1.406,3.511-2.783,4.527-2.872
	c2.132-0.195-4.267-2.328-2.909-4.461c1.357-2.134,1.46,1.356,3.351,0c1.886-1.357,0.334-6.012,1.886-6.981
	c1.551-0.968-6.013,0.389-2.716-5.235c3.298-5.623-1.552-4.073-3.491-7.175c-1.938-3.103,1.182-3.296,1.177-4.655
	c-0.014-1.356,0.376-4.265,2.896-5.235c2.52-0.968-4.46-2.714-0.193-4.07c4.266-1.359,2.751-6.399,2.539-9.309
	c-0.212-2.908,2.308-3.88,4.44-4.267c2.133-0.388-4.267-4.266-2.714-7.562c1.552-3.298,3.103,1.356,5.043-1.358
	c1.938-2.715,1.55-7.757,4.459-8.533c2.909-0.773,4.266-1.551,5.235-4.071s0.97-4.266,1.939-5.624
	c0.97-1.356-3.297-3.296-1.552-6.011c1.747-2.715,3.686-0.775,4.072-3.103c0.388-2.327-1.163-6.981,0-7.951
	c1.165-0.969,3.491,1.552,5.624,0c1.633-1.185,1.445-4.624,0.747-6.27c-1.966-0.941-0.329-4.099,0.445-3.904
	c0.775,0.194,3.104-1.939,3.298-3.879c0.193-1.939,2.327,0.388,3.684,0c1.357-0.388-0.97-4.46-1.163-5.817s-2.908-0.775-4.072-1.939
	c-1.163-1.163,1.745-1.551,2.327-1.939c0.582-0.388-0.582-3.684-0.775-4.46c-0.194-0.775,4.072-1.55,4.072-1.55s0-4.849,0-6.012
	s1.356,1.356,3.685,0c2.327-1.357-0.97-2.522-0.97-3.686c0-1.164,2.908-0.776,2.908-2.714c0-1.939-2.908-0.388-2.908-3.686
	c0-3.296,5.624-0.58,5.817-3.103c0.193-2.521,3.103-0.968,3.854-1.745c0.752-0.775-1.916-0.387-2.302-2.909
	c-0.388-2.521,6.205-0.968,4.265-1.55c-1.938-0.582-2.266-5.885-2.266-5.885l-28.954,3.104
	C213.389,78.514,216.488,70.242,218.297,69.466z"/>
</svg>
