<?xml version="1.0" encoding="iso-8859-1"?>
<!-- Generator: Adobe Illustrator 15.1.0, SVG Export Plug-In . SVG Version: 6.00 Build 0)  -->
<!DOCTYPE svg PUBLIC "-//W3C//DTD SVG 1.1//EN" "http://www.w3.org/Graphics/SVG/1.1/DTD/svg11.dtd">
<svg version="1.1" id="Layer_1" xmlns="http://www.w3.org/2000/svg" xmlns:xlink="http://www.w3.org/1999/xlink" x="0px" y="0px"
	 width="288px" height="288px" viewBox="0 0 288 288" style="enable-background:new 0 0 288 288;" xml:space="preserve">
<path d="M210.479,227.177c-0.502-0.836-0.502-4.011-0.502-4.93c0-0.92-1.17-1.588-1.17-2.005c0-0.419-1.254-1.923-1.254-2.925
	c0-0.782-0.094-2.468,0.298-3.375l-72.323-107.422l16.523-64.811c-27.74-7.467-58.222-16.234-64.92-18.324
	c-0.569-0.178-1.152-0.388-1.361-0.463c-0.005,0.291,0.168,0.636,0.135,0.851c-0.018,0.115-0.037,0.227-0.064,0.306
	c-0.279,0.779-2.173,3.229-2.173,3.229s0.779,1.171,1.447,1.561c0,0-0.265,4.177-0.299,5.291c-0.035,1.115-1.148,3.51-1.984,5.015
	c-0.836,1.503-1.616,2.284-1.728,3.287c-0.11,1.002,0.056,2.172-0.501,2.784s-0.779,1.392-2.896,3.788
	c-2.116,2.396-5.014,5.905-4.958,6.406c0.057,0.501,0.11,1.895,0,2.339c-0.11,0.445-0.11,0.445-0.11,0.445s-0.335,0.892-0.224,1.337
	c0.111,0.447,3.119,4.568,3.176,5.237c0.056,0.668-0.668,1.28-0.111,1.394c0.557,0.11,1.95,4.231,1.838,6.906
	c-0.111,2.673,0.112,4.177-0.167,4.345c-0.279,0.167-1.839,2.786-2.062,3.899s-0.501,3.343-0.334,4.011
	c0.167,0.669,0.78,2.396,0.223,3.343c-0.557,0.946-1.337,1.168-1.226,1.948c0.111,0.781,0.558,2.285,1.281,3.622
	c0.725,1.337,1.671,2.061,1.894,2.618c0.224,0.558,0.501,3.119,0.669,3.62c0.167,0.502,2.45,2.563,2.841,3.621
	c0.391,1.058-0.056,2.951,0.167,3.23c0.224,0.279,1.337,0.389,1.337,0.668c0,0.28-0.055,1.56,0.056,1.839
	c0.111,0.279,1.56,3.454,1.394,3.454c-0.168,0-1.616-1.95-1.616-1.95l-2.229,3.064c0,0,0.669,0.558,0.836,0.558
	s0.78-1.839,1.17-1.504c0.39,0.333,0.39,0.333,0.39,0.333s-0.166,0.78,0.558,1.171c0.724,0.389,1.226,3.063,1.727,3.229
	s0.836,0,0.836,0s2.339,2.729,2.674,2.173c0.334-0.557,0.891-1.17,0.668-1.727s-0.566-1.449,0.051-1.449
	c0.618,0,0.618-2.227,0.563-2.784c-0.057-0.558,0.5-0.946,1.614-0.334c1.115,0.612,2.063,1.948,2.229,1.894
	c0.167-0.056,1.615,1.727,2.674,0.891c1.058-0.836,0.668-1.225,1.504-0.946c0.835,0.278-0.558,1.113,0,1.447
	c0.557,0.335,1.838-0.11,1.56,0.447c-0.279,0.556-0.279,0.612,0.668,0.612s1.839,0,2.117-0.111c0.277-0.112,1.17-1.003,1.504-0.835
	c0.335,0.166-0.781,1.391-1.393,1.504c-0.613,0.111-1.003,0.277-0.445,0.444c0.557,0.168,3.119-0.502,3.509,0.111
	s1.671,1.838,1.113,2.284c-0.557,0.445-1.448-1.783-2.005-1.837c-0.557-0.057-1.448,0.723-1.838,0.501
	c-0.39-0.224-4.624-2.063-5.014-2.452c-0.39-0.39-2.228,0.334-2.563,0.111c-0.334-0.223-1.503-0.947-1.894-0.947
	c-0.39,0-0.835-0.389-1.615,0.28c-0.78,0.667-1.505,0.612-1.115,1.504c0.391,0.89,1.728,0.89,1.171,1.838
	c-0.557,0.946-1.171,0.835-0.836,1.615c0.334,0.779,1.505,1.28,1.728,2.283s0.056,3.176,0.223,3.677s0.056,1.894,0.835,2.061
	c0.78,0.168,1.282,0.612,0.446,0.669s-1.95-1.059-2.396-1.672c-0.445-0.611-2.507-2.729-2.674-3.619
	c-0.168-0.893,1.229-3.622,0.977-4.067s-1.312-1.17-1.979-0.445c-0.669,0.724-0.835,3.62-1.114,3.787
	c-0.278,0.168-0.725,0.78-0.892,1.672s0.892,1.226,0.892,2.229s-0.223,3.452-0.725,3.898c-0.501,0.446-0.222,1.226,0.446,3.064
	c0.669,1.838,2.511,5.069,3.372,5.57c0.861,0.502,1.976-0.278,2.645,0.334c0.668,0.613,2.061,4.122,0.835,5.85
	c-1.225,1.727-2.005,2.506-2.172,2.172s-0.223-1.56-0.836-1.226c-0.613,0.335-1.28,1.21-1.059,1.302
	c0.223,0.091,0.724,0.871,0.278,1.706c-0.445,0.836,0.057,3.231-0.557,3.398c-0.613,0.168,0.114,2.117,0.865,2.785
	c0.75,0.668,2.422,3.175,2.645,4.345s0.334,2.116,1.615,2.617l-0.111,3.232c0,0,1.393,1.614,1.504,2.115
	c0.111,0.502-0.111,1.729,0.167,2.452s1.838,1.727,2.005,2.173c0.168,0.445,1.338,3.374,1.616,3.803
	c0.278,0.43,1.504,1.209,1.838,1.433c0.335,0.224,0.78,1.894,0.501,2.173c-0.278,0.279-1.838,1.002-1.727,1.615
	s1.727,2.451,1.949,2.675c0.223,0.222,0.167-0.669,0.725,0c0.558,0.668,1.394,1.225,1.226,2.006c-0.167,0.778-1.95,2.95-1.95,3.729
	c0,0.781,0.669,0.949,0.669,1.283s-0.835,1.614-0.892,1.893c-0.056,0.28,0.335,1.728,0.168,1.784
	c-0.168,0.055-1.616,1.781-1.448,2.45c0.167,0.669,1.726,0.445,1.726,0.946c0,0.502,0.391,2.452,0.726,2.563
	c0.334,0.11,5.458,0.167,6.238,0.892c0.78,0.724,3.343,2.061,4.624,2.562c1.28,0.501,4.735,0.558,5.181,1.449
	c0.444,0.89,1.782,2.282,2.506,3.063c0.725,0.78,1.504,0.835,1.448,1.282c-0.056,0.445-0.329,2.729,0.002,2.729
	c0.332,0,1.001,0,1.057,0.279c0.056,0.278,3.51,3.619,4.346,3.731c0.835,0.112,1.726,0.668,2.951,0.725
	c1.226,0.056,3.231,0.445,3.732,0.892c0.502,0.445,1.839,4.901,1.337,5.348c-0.501,0.445-0.39-0.002-0.947,0.556
	c-0.557,0.558,0.112,1.226,0.669,1.337c0.557,0.112,1.393,1.17,1.727,0.614c0.334-0.558,0.279-1.504,0.892-1.227
	c0.612,0.278,2.396,0.947,2.841,2.006s1.949,3.62,2.396,3.453c0.445-0.167,2.005,1.672,2.061,2.229
	c0.056,0.558,2.061,2.785,2.674,3.788c0.613,1.002,4.178,6.852,3.286,12.312c0,0-0.779,0.167-0.89,0.778
	c-0.112,0.613-0.113,1.394,0.277,2.229s1.338,4.289,1.227,4.847c-0.112,0.556,44.006,5.681,44.006,5.681v-0.362
	c0,0,1.002-0.334,1.755,0c0.752,0.335,2.674-0.167,3.008-0.919s2.089-1.838,1.42-4.596c-0.668-2.758-2.105-0.167-3.017-1.755
	c-0.91-1.587,1.263-4.011,0.928-4.679c-0.334-0.669-0.928-1.421-0.928-1.421s0.176-2.506,1.597-2.005
	c1.42,0.501,2.005-1.839,3.092-2.841c1.086-1.003,0.334-2.508,0.585-2.591c0.25-0.084,1.002-3.426,1.587-4.596
	c0.585-1.169,0.084-1.169,1.17-1.671c1.086-0.501,0.418-2.507,2.424-2.841c2.005-0.335,4.01-1.337,4.428-2.507
	S210.979,228.012,210.479,227.177z"/>
</svg>
