<?xml version="1.0" encoding="iso-8859-1"?>
<!-- Generator: Adobe Illustrator 15.1.0, SVG Export Plug-In . SVG Version: 6.00 Build 0)  -->
<!DOCTYPE svg PUBLIC "-//W3C//DTD SVG 1.1//EN" "http://www.w3.org/Graphics/SVG/1.1/DTD/svg11.dtd">
<svg version="1.1" id="Layer_1" xmlns="http://www.w3.org/2000/svg" xmlns:xlink="http://www.w3.org/1999/xlink" x="0px" y="0px"
	 width="288px" height="288px" viewBox="0 0 288 288" style="enable-background:new 0 0 288 288;" xml:space="preserve">
<path d="M237.486,137.646l4.101-6.013l-20.904-81.411l-0.715-2.794l-80.111,21.61l-18.865,0.817c0,0,0.273,5.197-3.558,6.3
	c-3.806,1.09-4.366-4.649-4.366-4.649L43.635,86.38l11.466,67.499l7.143,42.038l9.843,12.303l-21.872,20.508l12.51,11.551
	c0-0.018-0.755-4.173,1.706-3.624c2.445,0.547,5.742,2.206,6.288,1.785c0.546-0.416,1.368-6.978,5.743-7.526
	c4.374-0.547,7.654-0.547,10.101-5.469c2.477-4.921,6.578-13.951,10.388-12.578c3.824,1.368,4.665,2.154,4.924,1.487
	c0.288-0.676,1.091-11.609,5.482-10.509c4.355,1.094,1.35,4.365,4.63,3.271c3.284-1.091,15.86-27.346,18.595-27.346
	c2.732,0,1.262,7.663,3.229,8.478c1.964,0.827,6.065-5.267,10.715-6.053c4.646-0.786,7.11-0.306,7.928,0
	c0.821,0.308,6.289-5.158,11.481-6.254c5.193-1.102,6.288,2.187,7.928,1.64c1.643-0.544,7.384-6.835,10.956-6.57
	c3.536,0.28,3.262-0.281,4.905-0.007c1.637,0.287-1.917-12.013-4.647-12.287c-2.736-0.274-1.639-6.563,2.713-4.104
	c4.393,2.464,6.31,7.376,7.132,10.111c0.816,2.735,2.732,6.018,6.831,1.923c4.099-4.108,3.829-6.844,7.652-7.112
	c3.832-0.277,7.114,0.813,7.387-0.827c0.271-1.648-5.743-7.663-4.923-10.66c0.803-3.016,6.563-7.385,6.836-4.377
	c0.274,3.007,0.545,10.938,2.187,11.202c1.642,0.279,4.375-2.734,7.93-4.374c3.552-1.641,10.114-2.185,11.209-0.823
	c1.094,1.369,4.926-3.827,4.926-3.827L237.486,137.646z"/>
</svg>
