<?xml version="1.0" encoding="iso-8859-1"?>
<!-- Generator: Adobe Illustrator 15.1.0, SVG Export Plug-In . SVG Version: 6.00 Build 0)  -->
<!DOCTYPE svg PUBLIC "-//W3C//DTD SVG 1.1//EN" "http://www.w3.org/Graphics/SVG/1.1/DTD/svg11.dtd">
<svg version="1.1" id="Layer_1" xmlns="http://www.w3.org/2000/svg" xmlns:xlink="http://www.w3.org/1999/xlink" x="0px" y="0px"
	 width="288px" height="288px" viewBox="0 0 288 288" style="enable-background:new 0 0 288 288;" xml:space="preserve">
<path d="M196.748,214.388c0,0-3.683-4.169-6.626-6.866c-2.939-2.696-5.147,0.489-6.863,1.224c-1.718,0.737,0-4.658,0-6.865
	c0-2.209,0.734-1.961,2.45-2.209c1.716-0.245,0-3.432,4.661-1.717c4.658,1.717,3.189-2.206,3.189-2.206
	c0-2.943-7.851-16.676-7.851-16.676c-0.979,5.395-7.356,2.94-12.749,0c-5.397-2.943-11.771-4.907-15.209-15.209
	c-3.435-10.301,0,0-4.907-5.394c-4.901-5.396-5.396-7.848-8.306-14.226c-0.231-0.482-0.354-0.905-0.521-1.342
	c-1.992-5.363,0.029-7.671,0.489-9.94c0.493-2.45-4.411-9.318-9.015-11.28c-4.595-1.96-4.72-4.415-9.132-6.376
	c-4.417-1.964-6.381-5.886-10.298-9.322c-3.928-3.432-0.493-9.318-0.493-13.241c0-3.925-3.435-2.942-4.904-6.377
	c-1.474-3.434,3.922-8.833,3.922-8.833l4.907-7.843l3.923-14.228c0,0-11.775-0.491-20.604,0
	c-8.827,0.49-14.282,18.641-14.282,18.641l22.042,74.816l24.92,84.599l62.48-12.018L196.748,214.388z"/>
</svg>
