<?xml version="1.0" encoding="iso-8859-1"?>
<!-- Generator: Adobe Illustrator 15.1.0, SVG Export Plug-In . SVG Version: 6.00 Build 0)  -->
<!DOCTYPE svg PUBLIC "-//W3C//DTD SVG 1.1//EN" "http://www.w3.org/Graphics/SVG/1.1/DTD/svg11.dtd">
<svg version="1.1" id="Layer_1" xmlns="http://www.w3.org/2000/svg" xmlns:xlink="http://www.w3.org/1999/xlink" x="0px" y="0px"
	 width="288px" height="288px" viewBox="0 0 288 288" style="enable-background:new 0 0 288 288;" xml:space="preserve">
<path d="M253.377,194.638c-0.385-0.688,0-8.887-0.535-14.861c-0.539-5.975-6.743-16.084-8.582-19.531
	c-1.837-3.447-2.832-4.254-3.677-6.034c-0.84-1.778-6.663-12.653-7.733-13.497c-1.073-0.843-6.741-9.651-8.351-12.024
	c-1.607-2.376-2.604-5.898-2.678-6.359c-0.079-0.459-2.147-4.748-2.147-5.207s2.298,0.767,2.757,0.767
	c0.461,0-5.36-6.739-6.279-8.197c-0.919-1.453-6.204-9.267-6.204-9.496c0-0.23,0.229-0.075-0.689-2.222
	c-0.919-2.145-3.677-5.746-3.677-5.746s-0.459-1.378-1.533-2.68c-1.069-1.301-1.758-2.527-1.299-3.906
	c0.459-1.378-1.458-0.382-2.452-3.524c-0.995-3.139-1.918-3.37-2.223-5.131c-0.305-1.763-0.765-3.293-2.068-4.901
	c0,0,0.079-3.524-0.381-4.06c-0.46-0.536-1.763-1.073-1.763-1.073s0.151-2.987,0.075-3.522c-0.075-0.537-1.299-0.614-1.529-0.614
	c-0.062,0-0.024-0.054,0.065-0.146c-4.898-0.219-8.058-1.808-9.296-1.998c-1.493-0.229-1.493,0.345-2.527,1.379
	c-1.035,1.034-1.379,2.184-1.035,3.37c0.346,1.187,2.873,2.489,2.069,4.099c-0.805,1.608,0,5.055,0,5.629c0,0.575-1.494,0-3.447,0
	s-0.92-2.527-2.068-3.561c-1.148-1.034-0.574-2.184-0.574-2.184s-67.326,4.94-68.59,4.94s-2.299-1.034-2.299-1.379
	s1.149-1.148-0.688-4.136s-2.375-3.409-2.375-3.409c-0.229,0.536-61.81,7.813-67.634,7.123c0,0,0.769,1.99,0,2.758
	c-0.765,0.766-0.688,2.145,0,2.526c0.69,0.384,1.839,1.303,2.376,1.916c0.536,0.612,1.609,0.994,2.679,1.531
	c1.074,0.537,1.839,0.842,1.839,1.838c0,0.997-0.689,2.835-1.225,2.988c-0.536,0.152-0.688,1.379,0.23,1.915
	c0.919,0.535,1.76,1.3,1.379,1.454c-0.31,0.124-1.587,2.19-1.563,4.549c1.248-0.412,3.006-1.262,3.285-1.484
	c0.383-0.308,1.339-0.613,1.646-0.842c0.307-0.23-0.112-1.034,0.498-1.341c0.613-0.307,1.532-1.149,1.915-2.068
	c0.382-0.919-0.842-1.724-0.842-2.413s-0.539-1.646,0.114-1.686c0.65-0.037,2.105,0.995,2.105,1.533c0,0.535-0.114,2.758,0.46,2.718
	c0.575-0.037,0.957-0.765,0.957-2.413c0-1.646,0.768-0.843,0.574-1.684c-0.19-0.844,0.653-0.689,0.804-0.039
	c0.154,0.651-0.688,1.303-0.344,1.801c0.344,0.497,3.296,1.456,3.561,1.685c0.27,0.23-1.223,0.461-1.568,0.153
	c-0.344-0.307-1.533,1.377-2.067,1.456c-0.537,0.075-1.609-0.194-2.03,0.23c-0.422,0.42-1.839,0.765-2.068,1.224
	s0.112,0.959,1.341,0.574c1.224-0.383,8.617-3.332,10.302-3.255c1.685,0.078,3.521-0.002,3.715-0.267
	c0.19-0.27,2.259-1.304,2.91-1.954c0.651-0.651,0.957-0.114,1.608,0.306c0.651,0.422,1.149-0.42,1.839-0.727
	c0.688-0.308,2.529-0.458,3.254-0.652c0.729-0.19,1.569,0.729,2.108,1.264c0.534,0.537,1.379,1.149,0.573,1.419
	c-0.804,0.267-2.258-0.46-2.911-0.614c-0.649-0.152-0.114,0.574-0.268,0.804c-0.152,0.23-2.186,0.115-2.91,0.077
	c-0.729-0.038-2.872,0.229-3.142-0.038c-0.267-0.269-0.765,0.04-0.728,0.536c0.038,0.498,2.646,0.191,4.979,0.422
	c2.337,0.229,7.584,1.11,9.614,2.183c2.029,1.071,6.05,3.024,6.396,3.753c0,0,0.23-0.536,0.23-1.11c0-0.575-0.729-0.422-0.768-0.882
	c-0.037-0.46-0.077-1.608-0.766-1.569c-0.69,0.039-1.609,1.034-1.725,0.498c-0.114-0.537-0.075-1.646-0.535-1.876
	c-0.459-0.23-0.651-0.689,1.072-0.537c1.724,0.153,2.106,0.345,2.068,0.689c-0.037,0.345,0.268,0.804,0.652,0.804
	c0.382,0,0.345-1.11,1.263-1.263c0.92-0.152,1.072,0.497,1.302,0.345c0.23-0.152,0.383-2.106,0.805-1.801
	c0.422,0.307,0.919,0.729,0.805,1.188c-0.115,0.461-1.227,1.418-1.646,1.454c-0.422,0.04-1.608,0-1.608,0.538
	c0,0.536-1.264,1.376-0.689,1.57c0.574,0.189,0.879,0.88,2.183,0.918c1.301,0.039,0.84,0.729,1.379,0.881
	c0.535,0.153,1.799-0.995,2.184-0.728c0.381,0.268-0.116,1.876,0.726,2.146c0.842,0.267,1.302-0.23,1.84-0.23
	c0.536,0,1.301,0.957,1.301,0.957s-0.92-0.267-1.569,0.077c-0.651,0.345-2.452-0.114-2.757-0.498
	c-0.308-0.383-2.108-0.845-2.987-1.34c-0.882-0.499-1.801-0.998-1.801-0.46c0,0.535,2.066,1.993,3.982,2.489
	c1.915,0.498,1.954,1.073,1.915,1.493c-0.038,0.422,1.378,0.039,2.527,0.881c1.148,0.842,3.446,3.485,3.409,4.94
	c-0.038,1.456-0.612,2.49,0.191,2.49c0.806,0,1.648-0.27,2.145-0.27c0.498,0,2.682,0.959,3.141,0.537c0.46-0.423,0.46-1.456,0-1.456
	c-0.459,0-2.068-0.036-0.804-0.46c1.264-0.42,2.451-0.269,3.177-0.42c0.729-0.154,0.575-1.149,1.149-1.149s1.418-0.613,1.304-1.11
	c-0.116-0.497,0.496-1.61,1.071-1.187c0.574,0.42-0.919,1.953-0.575,2.565c0.346,0.611,1.072-0.383,3.181-2.184
	c2.105-1.8,4.863-4.174,5.589-4.099c0.729,0.077,1.304-1.263,2.263-1.187c0.954,0.078,1.759,0.383,2.104,0.842
	c0.344,0.46,1.304-0.229,0.958-0.993c-0.345-0.768-2.487-0.155-2.603-0.92c-0.115-0.767,0.918-1.304,1.529-0.958
	c0.613,0.345-0.229-0.88,0.039-1.914c0.27-1.034,0.495-0.574,1.264-0.461c0.765,0.116,0.116-0.957,1.188-1.072
	c1.07-0.115,0.46,0.155,1.76,0.384c1.303,0.229,3.371-1.493,4.48-1.607c1.113-0.116,1.113,1.224,1.917,1.607
	c0.805,0.383,2.563,1.875,3.638,1.839c1.073-0.039,0.19,0.14,2.453,0.836c2.258,0.695,3.79,2.456,4.364,3.375
	c0.575,0.919,0.611,1.608,1.11,2.146c0.499,0.536,1.608,0.727,2.144,0.919c0.538,0.192,2.183,1.571,2.451,2.375
	c0.27,0.804,0.385,2.373,0.959,2.718c0.575,0.345,1.185,0.575,1.914,0.959c0.729,0.382,0.958,1.187,1.568,1.187
	c0.614,0,1.229,0.537,1.493,0.881c0.27,0.346,1.229,1.188,1.459,1.647c0.229,0.459,0.305,1.264,0.574,1.493
	c0.266,0.229,1.989-0.002,2.298,0.536c0.305,0.536,0.534,2.833,1.799,2.758c1.264-0.077,0.649-0.998,1.339-0.92
	c0.689,0.076,2.491,0.039,3.447,0.383c0.958,0.345,0.958,1.686,1.379,1.877c0.423,0.191,0.959,0.384,1.033,0.688
	c0.079,0.307-0.535,1.418,0.27,2.03c0.805,0.613,3.254,2.26,3.791,2.949c0.535,0.689,0.421,1.993,0,2.144
	c-0.42,0.155-0.994,0.155-0.844,0.422c0.154,0.268,1.993,2.756,1.608,3.18c-0.38,0.42-0.38,0-0.38,0.957s0.42,4.559,0.229,5.438
	c-0.193,0.882-0.689,2.222-0.653,2.872c0.039,0.652,0.345,2.377,0.039,2.527c-0.305,0.155-0.229,2.719-0.499,3.257
	c-0.266,0.535-0.305,0.535-0.075,0.957s0.42,0.689,0.306,1.379c-0.115,0.689-0.306,1.876-0.306,2.45s0.04,4.29-0.305,4.521
	c-0.345,0.229-0.424-0.155-0.461,0.573c-0.039,0.728,0.228,2.028,0.766,2.451c0.535,0.421,1.415,1.839,1.839,2.221
	c0.419,0.384,0.494,1.647,0.919,1.418c0.42-0.23,1.148-0.31,0-1.609c-1.149-1.303-1.608-2.452-1.073-2.872
	c0.538-0.422,0.652,0.65,0.918,1.034c0.271,0.382,0.845,1.264,1.229,1.264c0.38,0,0.189,1.149,0.919,1.109
	c0.724-0.037,0.495-0.499,0.765-1.454c0.269-0.958,0.725-2.298,0.344-2.834c-0.385-0.536,0-1.646,0.385-1.687
	c0.38-0.037-2.722-0.189-3.563-0.918c-0.843-0.728-0.004-0.689,0.191-1.454c0.19-0.767-0.689-1.534-0.076-1.879
	c0.61-0.344,2.104,0.459,2.258,0.805c0.155,0.344-0.309,0.883,0.346,0.919c0.649,0.04,1.763-0.267,1.763,0.767
	c0,1.034-0.271,2.068,0.151,2.642c0.423,0.575,0.882,1.227,1.723,0.92c0.844-0.307,0.154-1.38,0-2.104
	c-0.151-0.73-0.535-1.265,0.154-1.648s1.148-0.881,1.418-0.612c0.267,0.268-0.233,0.957,0.191,1.571
	c0.419,0.611,1.108,2.372,0.804,3.101c-0.306,0.728-1.724,0.806-1.764,1.532c-0.035,0.727,0.271,1.57-0.15,1.876
	c-0.424,0.307-2.107,2.452-2.031,2.872c0.078,0.422-0.841,1.264-0.381,1.838c0.459,0.575,1.949,0.537,2.603,0.192
	c0.65-0.345,0.804-0.728,1.034-0.115c0.229,0.612-0.844,1.84-1.993,1.646c-1.148-0.19-3.331-0.612-3.712-0.383
	c-0.384,0.23,0.265,0.651,0.61,1.379c0.345,0.728-0.115,1.072,1.112,1.112c1.225,0.036,1.605,0.609,2.028,1.378
	c0.421,0.765,0.19,1.569,0.614,1.608c0.42,0.038,0.115,0.956-0.229,1.187c-0.345,0.229-0.345,0.461,0.726,1.531
	c1.073,1.073,5.705,8.657,6.243,8.731c0.535,0.078,0.42-0.495,0.995,0c0.575,0.5,0.075,0.769,0.958,1.379
	c0.88,0.614,1.569,1.034,2.644,0.959c1.072-0.077,0.498,0.382,1.224,0.382c0.729,0,0.459-0.651,0.344-1.301
	c-0.114-0.651-0.955-2.453-1.377-2.758c-0.421-0.307-1.914-0.153-1.954-0.536c-0.035-0.383-1.799-1.916-1.109-2.069
	c0.689-0.152,1.069,0.153,1.608,0.69c0.534,0.536,0.306,1.226,0.88,0.804c0.575-0.422,0.385,0.537,1.418,0.537
	c1.035,0,1.684-0.689,2.527-0.844c0.844-0.153,1.725-1.874,1.609-2.298c-0.115-0.421,0.189-1.033,0.535-0.306
	c0.345,0.728,0.309,1.034-0.46,2.069c-0.766,1.033-2.184,1.453-2.413,2.143s0.499,0.229,0.769,0.729
	c0.266,0.498,0.574,1.494,0.381,2.488c-0.191,0.996-0.191,2.912,0.154,3.141c0.344,0.231,0.46,0.766,0.648,1.072
	c0.194,0.308,0.575,1.496,0.386,1.991c-0.191,0.499-1.149,0.115-0.154,0.919c0.998,0.805,1.188,0.652,2.262,0.536
	c1.069-0.114,2.259-0.727,1.988-0.458c-0.266,0.267-2.642,0.727-1.874,1.301c0.765,0.575,1.493,1.456,2.643,1.456
	s1.914-0.728,1.953-0.192c0.036,0.537,0,1.533,0,2.146s-0.807,0.422-0.499,0.727c0.305,0.309,1.76,1.724,1.684,2.568
	c-0.075,0.841,0.306,4.67,0.92,4.67s0.384,0.766,1.228,1.074c0.841,0.305,1.146,1.684,1.76,1.684c0.613,0,1.992-0.61,1.838,0
	c-0.15,0.614-0.84,2.298-1.454,1.838c-0.614-0.459-1.993,0.309-0.614,0.689c1.379,0.384,2.988-0.152,3.447-0.612
	c0.459-0.459,0.918-0.611,2.147-0.229c1.224,0.382,4.976,1.915,5.82,1.455c0.843-0.46,0.918,0.075,1.763,0.535
	c0.839,0.46,3.217,0.844,3.217,1.838c0,0.996-0.539,1.686-1.149,1.228c-0.614-0.46-1.608-0.552-1.608,0.145s0.689,1.156,1.608,2.151
	c0.919,0.997,0.381,1.151,0.765,1.532c0.385,0.384,1.609-1.379,2.373-1.532c0.769-0.151,2.912,0.308,3.066,0.921
	c0.151,0.611,1.07,2.22-0.309,1.685c-1.379-0.537-1.07-1.149-2.373-0.996c-1.304,0.152-1.914,0.673-1.914,1.104
	c0,0.428,0.766,0.582,1.148,1.576c0.381,0.997,0.23,1.764,0.766,2.224c0.534,0.459,1.646,0.765,3.123,0.993
	c1.473,0.23,1.778-0.764,2.162,0c0.384,0.768,1.608,1.379,1.608,2.068s0.075,0.845-1.225,1.148c-1.304,0.309-2.987-0.459-3.217-1.07
	c-0.23-0.612-1.153-0.92-1.688-0.92c-0.536,0-1.609,1.381-1.07,2.681c0.534,1.303,2.755,2.451,4.287,2.451
	c1.533,0,4.365-1.455,4.365-1.455s-0.534-1.456,1.149-1.378c1.688,0.076,2.297,1.07,2.911,0.766c0.614-0.307,0.845,0.229,1.839-0.46
	s2.449-1.532,2.834-1.838c0.383-0.307-0.231-1.686,0.612-1.686c0.845,0,1.304,1.377,1.993,1.456
	c0.689,0.074,0.151-0.919,0.765-1.303c0.614-0.384,0.841-3.447,1.455-3.447c0.613,0,1.228-0.153,1.303-0.612
	c0.075-0.46-0.46-2.221-0.844-4.366c-0.38-2.146-0.535-3.447,0-3.905c0.539-0.46-0.137-3.218,0.851-3.907
	c0.987-0.688,1.831-0.459,1.831-1.149c0-0.689-0.844-3.139-0.384-3.753c0.46-0.612,0.844-1.072,0.844-1.072s0.23,4.136,0.844,4.136
	C255.061,203.751,253.761,195.327,253.377,194.638z"/>
</svg>
