<?xml version="1.0" encoding="iso-8859-1"?>
<!-- Generator: Adobe Illustrator 15.1.0, SVG Export Plug-In . SVG Version: 6.00 Build 0)  -->
<!DOCTYPE svg PUBLIC "-//W3C//DTD SVG 1.1//EN" "http://www.w3.org/Graphics/SVG/1.1/DTD/svg11.dtd">
<svg version="1.1" id="Layer_1" xmlns="http://www.w3.org/2000/svg" xmlns:xlink="http://www.w3.org/1999/xlink" x="0px" y="0px"
	 width="288px" height="288px" viewBox="0 0 288 288" style="enable-background:new 0 0 288 288;" xml:space="preserve">
<path d="M240.227,166.135c1.057-0.353,0.231,2.585,2.935,0.822c1.52-0.99,0.809-2.206-0.253-3.099
	c-0.821-0.693-1.856-1.194-2.214-1.248c-0.819-0.118-4.817,0.235-5.521-0.938c-0.704-1.175,0.589-3.171-0.819-4.466
	c-1.41-1.29-2.115-5.048-1.878-5.989c0.23-0.938-1.646-1.291-2.588-4.813c-0.937-3.524-4.58-3.525-5.4-3.758
	c-0.82-0.236-3.875-2.351-4.697-4.112c-0.824-1.763-1.177-7.398-2.113-7.986c-0.942-0.585-3.875-3.871-4.465-5.051
	c-0.588-1.172,2.583-4.228,0.82-4.462c-1.762-0.232-9.276-1.995-10.923-3.875c-1.64-1.88-4.227-1.644-4.578-3.172
	c-0.353-1.527,0.352-1.994-1.058-3.287c-1.41-1.291-3.172-0.59-3.172-1.525c0-0.941,0-5.055-2.697-6.695
	c-2.704-1.646-5.168-3.056-5.637-3.056c-0.474,0-4.465-2.113-5.637-5.048c-1.18-2.937-4.817-4.464-6.228-4.933
	c-1.41-0.472-4.581-1.409-7.515-5.051c-2.94-3.643-6.11-7.634-7.751-8.456c-1.646-0.823-1.883-5.167-3.055-6.694
	c-1.174-1.528-2.82-0.939-3.524-3.405c-0.704-2.467-1.646-3.292-3.407-3.171c-1.763,0.115-5.049,0.115-7.047-2.233
	c-1.992-2.347-2.467-1.761-3.991-2.113c-1.524-0.354-3.408-1.174-4.696-2.937c-1.293-1.762-3.056-3.408-1.53-5.4
	c1.53-2,1.179-2.467,2.588-3.172c1.409-0.704,0.82-1.178,1.524-2.818c0.704-1.646,2.817-1.057,3.408-3.289
	c0.585-2.232,0.585-2.232,0.585-2.232s-0.189,0.027-0.463,0.068c-4.577,0.664-45.55,6.576-95.582,12.411l28.162,99.563
	c0,0,1.406,1.646,2.232,2.232c0.821,0.585,0.469,1.877,0.821,2.699c0.352,0.824,1.646,0,1.057,3.291
	c-0.586,3.288,0.237,1.526,2.467,3.171c2.231,1.642,2.936,2.708,2.936,3.645c0,0.935,0.703,1.521,0.823,3.283
	c0.115,1.762-1.997,3.757-0.94,4.229c1.056,0.469,5.05,1.762,4.699,2.466c-0.354,0.705-5.756,4.58-5.404,6.579
	c0.352,1.994,0.236,5.399,0.118,7.046c-0.118,1.644-2.469,5.872-1.996,6.929c0.47,1.057,1.291,6.813,1.996,7.398
	c0.704,0.587,3.053,1.76,3.405,5.167c0.353,3.408-0.821,8.809-0.821,9.512c0,0.706,1.174,2.353,1.174,2.938
	s-1.294,0.586-1.174,2.819c0.116,2.23-0.115,1.995,2.229,4.813c2.352,2.819,3.643,4.58,3.29,5.403c0,0,0.824,0.647,3.643,5.228
	c2.816,4.581,1.056,5.814,1.056,6.342c0,0.528,1.586,2.114,3.523,2.114c1.939,0,105.171-7.575,105.171-7.575s-0.88,1.762,0.88,3.348
	c1.762,1.586,0.177,5.46,3.171,5.46c2.995,0,5.286,0.882,5.286,0c0-0.88-1.234-6.165,0-8.631c1.232-2.468-2.643-4.465-3.172-6.285
	c-0.527-1.818,0-3.581,1.586-5.166c1.586-1.586,1.586-2.467,3.876-2.114c1.898,0.291,6.743,2.728,14.253,3.063
	c0.396-0.421,1.513-1.362,1.777-2.243c0.353-1.173-2.935-4.58-2.935-4.58s1.994,0.589,2.347,0c0.353-0.587-1.762-2.352-0.705-3.287
	c1.058-0.941,2.466-1.524,1.409-1.998c-1.057-0.469-7.161,0-7.161,0s-1.884-2.582,3.639-1.644c5.521,0.938,2.466-0.352,2.35-0.705
	c-0.114-0.353-1.998-0.701-2.114-1.88c-0.115-1.172-0.941-2.582,0.821-3.171c1.762-0.586,0.467-5.637,2.114-3.99
	c1.646,1.643,0.472,3.053,1.646,2.699c1.173-0.353,3.876-4.697,3.991-5.989c0.121-1.291-1.762-2.349-3.754-2.232
	c-1.999,0.118-5.876-0.586-5.406-1.644c0.473-1.057,5.759,0.701,7.519-0.586c1.763-1.294,0.705-2.703,1.878-3.994
	s1.647-5.052,1.647-5.052s0-0.115-1.647,0c-1.646,0.119-4.696,0.723-4.228-0.049c0.466-0.771,3.753-3.475,5.048-3.122
	c1.294,0.353,2.467,1.762,2.235-1.292c-0.236-3.051-0.59-3.17-1.531-3.17c-0.936,0-3.99,2.118-3.99,1.644
	c0-0.468,2.229-1.646,1.525-3.286c-0.706-1.646-0.821-2.588,0.474-2.818c1.287-0.237-0.589,1.761,1.523,1.761
	c2.114,0,2.819-1.998,3.64-3.055c0.825-1.058-4.229-2.229-3.755-2.702c0.468-0.469-3.056-0.116-2.819-1.642
	c0.231-1.527,1.526-2.703,2.935-1.41c1.409,1.292,0,2.113,2.23,1.996c2.234-0.118,4.817-0.353,4.701-1.057
	c-0.121-0.705-2.703-2.7-2.939-3.405C240.227,167.311,239.171,166.486,240.227,166.135z"/>
</svg>
