<?xml version="1.0" encoding="iso-8859-1"?>
<!-- Generator: Adobe Illustrator 15.1.0, SVG Export Plug-In . SVG Version: 6.00 Build 0)  -->
<!DOCTYPE svg PUBLIC "-//W3C//DTD SVG 1.1//EN" "http://www.w3.org/Graphics/SVG/1.1/DTD/svg11.dtd">
<svg version="1.1" id="Layer_1" xmlns="http://www.w3.org/2000/svg" xmlns:xlink="http://www.w3.org/1999/xlink" x="0px" y="0px"
	 width="288px" height="288px" viewBox="0 0 288 288" style="enable-background:new 0 0 288 288;" xml:space="preserve">
<g>
	<path d="M208.215,168.467c-0.796-3.449-2.388-2.388-2.653-2.919c-0.267-0.531-0.531-3.449-1.593-4.511s-8.227-5.175-11.145-5.839
		c-2.919-0.663-3.583-2.918-6.191-3.582c-2.609-0.664-1.77,0.93-1.638,3.317s2.256,3.051,1.46,4.245s0,0-0.796,0.93
		c0,0-2.919,2.786-3.583,3.582c-0.663,0.796-1.725,2.389,1.327,7.696c3.05,5.307,1.062,8.092,0.795,10.216
		c-0.265,2.123,2.389,3.185,4.115,3.847c1.726,0.664,1.856,2.124,2.52,2.124c0.665,0,3.185-4.91,4.379-6.236s3.714-3.848,5.043-3.45
		c1.327,0.398,4.642-0.397,5.97-0.928s5.705-4.645,5.705-5.839S208.215,168.467,208.215,168.467z"/>
	<path d="M137.364,121.233c-0.928-0.132-2.388-6.369-4.378-6.899c-1.99-0.531-2.786,3.051-3.45,3.184l-4.378-0.149
		c0,0,1.145,0.747,1.418,0.995s0.075,1.468,0.149,1.816c0.075,0.349,1.07,1.244,1.767,1.94c0.696,0.697,1.07,2.065,1.219,2.587
		c0.149,0.523,1.816-0.025,2.612-0.29c0.796-0.265,0-1.725,0.796-1.725c0.796,0,0.796,1.725,2.353,2.521
		c1.556,0.796,4.944,0.132,5.74,0c0.796-0.132-1.061-1.858-1.856-3.185S138.292,121.365,137.364,121.233z"/>
	<path d="M99.152,100.867c-0.995-0.729-3.649-0.863-3.649-0.863s0.332,0.796-0.465,0.863c-0.796,0.067-1.259-0.863-1.259-0.863
		s-2.048,1.361-3.184,1.725c-1.258,0.402-1.194,1.725-1.194,1.725s-1.062,0.663-1.261,1.359c-0.199,0.697-0.067,0.83,0.796,1.625
		c0.863,0.796,2.256,0.862,2.256,0.862s1.194,1.327,2.056,1.791c0.861,0.464,3.184,0.531,3.45,0.531
		c0.266,0,2.189-1.526,2.388-1.526c0.199,0,0.53-1.924,0.398-2.455c-0.132-0.53,0.53-0.73,0.995-1.924
		C100.943,102.525,100.147,101.596,99.152,100.867z"/>
	<path d="M182.01,140.711c0.532-1.367,1.395-2.03-1.26-3.225c-2.654-1.194-2.852-2.189-4.976-3.118
		c-2.123-0.929-4.247,1.26-4.909,1.061c-0.663-0.199-2.123-3.449-3.715-3.449c-1.593,0-2.522,1.062-2.256,2.521
		c0.266,1.459,0.662,2.47,2.587,3.258c1.925,0.788,1.328,0.656,2.521,0.125c0.632-0.281,0.994,0.994,1.061,1.724
		c0.067,0.73-0.198,3.449,0.863,3.781s2.387,0.066,3.913-0.398s1.661-0.662,2.522-0.53
		C179.224,142.594,181.478,142.079,182.01,140.711z"/>
	<path d="M157.863,134.633c-0.885-0.186-1.726-0.265-1.99,0.796c-0.265,1.062,0.995,1.128,1.592,1.526
		c0.597,0.398,0,2.189,0.797,2.786c0.796,0.597,1.989,0,2.851-1.194c0.861-1.194,0.532-1.658,0-2.454
		C160.581,135.297,159.912,135.064,157.863,134.633z"/>
	<path d="M160.316,128.397c-0.662,0-1.495-0.066-1.577-0.597c-0.08-0.531-0.479-0.862-1.209-0.066c0,0-2.784-0.332-3.647-0.332
		s-1.262-0.597-2.058-0.597h-0.796c0,0.397,0.197,1.127-0.266,1.459s-1.856,1.261-1.326,1.659c0.53,0.398,1.658,0.332,3.45,0
		c1.791-0.332,2.918,0.151,3.516,0.274c0.597,0.124,3.052,1.517,4.776,1.119s3.383-2.455,2.985-2.786
		C163.767,128.199,160.979,128.397,160.316,128.397z"/>
	<path d="M168.212,142.992c-0.597-0.398-1.129,0.664-1.791,1.128l-0.266,0.263c-1.261,0.329-0.929,0.201-0.796,1.064
		c0.132,0.863,2.985,0.132,3.515,0C169.404,145.315,168.81,143.39,168.212,142.992z"/>
	<path d="M80.875,105.875c-0.796-0.199-0.398,0.896-1.792,1.691c0,0-0.896,0.299-1.691,2.057c-0.796,1.759,0.696,2.421,0.696,2.421
		s0.597-1.99,0.995-2.421c0.397-0.431,2.985-0.167,2.289-0.664C80.675,108.462,81.671,106.074,80.875,105.875z"/>
</g>
</svg>
