<?xml version="1.0" encoding="iso-8859-1"?>
<!-- Generator: Adobe Illustrator 15.1.0, SVG Export Plug-In . SVG Version: 6.00 Build 0)  -->
<!DOCTYPE svg PUBLIC "-//W3C//DTD SVG 1.1//EN" "http://www.w3.org/Graphics/SVG/1.1/DTD/svg11.dtd">
<svg version="1.1" id="Layer_1" xmlns="http://www.w3.org/2000/svg" xmlns:xlink="http://www.w3.org/1999/xlink" x="0px" y="0px"
	 width="288px" height="288px" viewBox="0 0 288 288" style="enable-background:new 0 0 288 288;" xml:space="preserve">
<path d="M206.747,175.241c-0.574-0.575-2.153-0.145-3.157,1.862c-1.005,2.01,1.722,3.158,0,3.266s-5.739,0.037-6.601-0.683
	c-0.86-0.716-0.286-0.716-3.729-0.716c-3.444,0-4.161-0.861-5.31-2.008c-1.147-1.149-0.717,0.431-1.865,0.431
	c-1.146,0-0.717,2.293-1.291,2.293c-0.572,0-4.195-2.583-6.384-2.546s-2.476,3.266-3.156,3.229s-3.372-2.26-3.479-2.905
	c-0.108-0.646-0.358-4.449-0.216-5.165c0.145-0.716-1.398-5.202-2.08-5.632c-0.682-0.431-1.435,0.611-2.367,0
	c-0.933-0.609-1.829-2.224-2.045-3.155c-0.215-0.933-0.286-1.436,0.431-1.65c0.718-0.215,0-4.126,0-4.448
	c0-0.323-0.824-0.502-1.398-0.788c-0.574-0.287-1.22-3.372-1.793-5.201c-0.574-1.829,0.144-6.204-0.359-6.527
	c-0.503-0.322-0.573-1.005-0.395-1.796c0.18-0.788-0.646-1.184-0.969-1.576c-0.322-0.394-0.466-2.583-1.577-2.69
	s-2.475,3.336-4.411,3.373c-1.938,0.035-2.045,1.613-3.193,1.647c-1.148,0.037-1.757-1.255-2.045-2.045
	c-0.287-0.788-1.9-1.254-1.972-2.259c-0.072-1.004,1.722-0.717,1.326-2.187c-0.395-1.472-0.143-3.479,0.431-4.233
	c0.573-0.753,1.542-0.286,2.367-0.252c0.825,0.037,0.144-4.016-0.43-4.412c-0.575-0.394,0.071-1.54,0.358-2.008
	c0.287-0.466-0.108-1.254-0.251-2.08c-0.145-0.824,0.933-0.502,1.363-0.717s0.179-2.223,0.788-3.803
	c0.61-1.578,3.981-8.427,4.054-9.18c0.072-0.754-1.614-0.253-3.228-0.253c-1.614,0-2.225-1.577-2.188-2.081
	c0.036-0.501-0.683-1.147-2.08-1.325c-1.399-0.181-2.368-2.835-2.799-3.303c-0.431-0.465,0.215-2.581,0.252-2.905
	c0.036-0.322-1.974-1.469-2.26-2.077c-0.287-0.611-0.574-3.087-1.614-4.056s-2.834-4.876-3.838-5.38
	c-1.004-0.503-2.151-2.977-3.228-4.017c-1.076-1.039-0.395-1.936-0.107-2.332c0.287-0.395-0.574-1.685-0.897-2.33
	c-0.322-0.646,0.753-2.727,1.184-3.838s-0.896-2.439-1.399-2.655c-0.501-0.216-0.251-1.434-0.537-2.546
	c-0.287-1.112-2.368-5.236-2.368-5.236l5.739-27.978c-3.939-0.338-14.108-2.67-18.317-3.661l-15.913,70.249l-1.436,2.582
	c0,0,1.147,1.291,1.291,2.152c0.145,0.86,0.145,0.86,0.145,0.86s0.86,2.583,0.286,3.014c-0.574,0.43-1.578,2.438-0.717,3.588
	c0.772,1.028,0.049,1.135-0.109,1.146c1.207,4.928,2.44,5.614,2.44,5.614s0,0,0.376,0c0.377,0,2.853,2.474,3.121,2.689
	s0,4.357,0,4.843c0,0.483-2.852,3.98-4.25,5.326c-1.399,1.345-2.099,3.604-3.067,5.218c-0.968,1.614-3.389,3.39-3.819,3.981
	c-0.431,0.593,0.107,2.206,0,2.852c-0.107,0.646-1.453,1.399-2.582,2.69c-1.131,1.291-2.153,0-2.529,1.148
	c-0.377,1.148-3.443,5.577-4.789,6.169c-1.345,0.592-0.753,1.829-1.075,2.421s0,0.538-0.108,1.722
	c-0.106,1.184-0.106,1.99,0.216,2.475c0.323,0.484,1.452,0.161,1.452,0.377c0,0.215,1.991,0.538,1.991,0.538
	s0.107,1.398,0.107,1.614c0,0.214,1.614,0.968,1.668,1.398s-2.045,1.884-2.206,2.151c-0.161,0.27,0,0.861,0.323,1.669
	c0.322,0.807-0.215,0.968-0.915,1.452c-0.699,0.483-0.484,2.797-0.753,2.852c-0.269,0.054-1.076-0.215-1.561,0.86
	c-0.361,0.806-6.514,29.042-9.599,43.259c-1.042,4.805-1.736,8.015-1.736,8.015c10.12,2.193,33.647,6.846,48.548,9.771
	c4.357,0.816,8.726,1.628,13.049,2.421c32.815,6.033,62.825,11.113,62.825,11.113l10.548-66.781l0.41-2.594
	C211.338,183.563,207.319,175.813,206.747,175.241z"/>
</svg>
