<?xml version="1.0" encoding="iso-8859-1"?>
<!-- Generator: Adobe Illustrator 15.1.0, SVG Export Plug-In . SVG Version: 6.00 Build 0)  -->
<!DOCTYPE svg PUBLIC "-//W3C//DTD SVG 1.1//EN" "http://www.w3.org/Graphics/SVG/1.1/DTD/svg11.dtd">
<svg version="1.1" id="Layer_1" xmlns="http://www.w3.org/2000/svg" xmlns:xlink="http://www.w3.org/1999/xlink" x="0px" y="0px"
	 width="288px" height="288px" viewBox="0 0 288 288" style="enable-background:new 0 0 288 288;" xml:space="preserve">
<path d="M203.548,176.862c-0.489-1.141-1.215-0.428-0.359-3.277c0.854-2.849,0.143-1.566-1.558-2.137
	c-1.701-0.569-0.152-1.424-0.01-2.421s-1.424-1.567-2.706-2.849c-1.282-1.283,1.139-2.565,1.71-3.276c0.569-0.712,0,0-0.713-3.276
	s1.709-3.276,1.709-3.276l-7.549-89.882c0,0-2.849-2.85-3.419-4.844s-1.282-5.697-2.422-7.55c-1.14-1.852-4.416-5.412-4.843-8.831
	c-0.428-3.418,0.667-7.068,0.667-7.068L105,43.16c0.805,1.424,6.156,5.983,6.156,5.983s-0.413,4.179,1.867,4.749
	c2.278,0.569,6.265,2.657,6.456,3.796c0.192,1.141,1.519,10.635,0,11.396c-1.517,0.761-3.987,2.659-3.987,2.659s0.569,5.317,0,5.699
	c-0.571,0.38-3.039,3.037-5.508,3.037c-2.47,0-3.04,2.468-3.987,2.849c-0.951,0.381-7.789,1.52-8.358,1.52s-0.95,0.76-2.089,3.23
	c-1.14,2.469,0.19,5.887,1.899,7.407c1.71,1.517,2.279,7.406,2.279,7.406l-4.605,3.988c0,0,1.474,3.036,0,5.508
	c-1.473,2.47-8.12,2.47-7.552,4.368c0.57,1.898,4.181,6.838,0.762,7.407c-0.191,0.033-0.383,0.037-0.573,0.033l0.005,0.007
	c0,0-3.802,4.899-3.042,8.888c0.762,3.988,3.042,9.686,3.042,9.686v2.469l2.657,2.659v2.279c0,0,5.505,6.457,6.836,7.026
	c1.331,0.57,1.329,3.038,2.088,3.229c0.762,0.189,6.84,2.469,8.931,5.697c2.086,3.229,1.518,6.077,2.086,7.978
	c0.571,1.898,1.332,6.835,4.182,7.216c2.848,0.381,1.709-4.747,3.796-4.178c2.088,0.569,3.797,2.089,5.128,1.521
	c1.331-0.57,6.077,3.986,5.507,4.366c-0.57,0.381-3.036,3.419-2.466,4.75c0.57,1.329,1.897,3.228,0.57,3.797
	c-1.332,0.569-2.85,7.786-3.99,8.547c-1.139,0.762-2.661,4.747,0.188,6.268c2.849,1.52,1.901,2.659,3.988,4.369
	c2.093,1.709,7.029,4.178,7.029,4.178s-0.379,3.229,1.709,3.229s2.279,0.381,3.419,0s4.37,3.608,4.75,4.177
	c0.378,0.57,3.988,1.141,3.988,1.141v7.027c0,0,5.506,5.886,4.176,6.077c-1.327,0.191-4.176,2.089-2.467,3.799
	s3.228,5.509,4.937,7.219c1.71,1.709,0.761,1.328,3.42,1.328c0.261,0,0.486,0.016,0.709,0.034c2.885-3.299,6.039-6.98,6.648-7.591
	c0.997-0.996,2.421,0.286,5.127,0.997c2.394,0.63,7.226,3.144,9.496,3.722c0.916-0.686,1.798-1.373,2.65-2.052
	c0.179-0.642,0.246-1.22,0.246-1.385c0-0.428-3.276-4.416-3.276-4.416s0.713-3.987,1.282-5.27
	c0.571-1.282,10.399-3.989,10.826-4.701c0.428-0.712-2.28-2.706-2.99-5.556c-0.713-2.849,1.424-1.281,2.42-3.276
	c0.998-1.993,0-2.421,0-3.438c0-0.322,0.335-0.221,0.781,0.006v-0.006c-1.212-3.297-2.063-3.257-1.065-3.542
	c0.998-0.284,1.282-1.852,0.57-4.13c-0.713-2.28,0.142-1.995,0.712-3.562c0.569-1.567,2.564-1.14,1.3-2.138
	c-1.264-0.997-1.442-1.852-0.588-3.561s0.427-0.712,2.138-0.712c1.708,0,1.139-2.279,2.848-4.273c1.71-1.994-0.284-2.563,1.14-2.707
	c1.426-0.142,1.141-3.275,1.567-3.561c0.428-0.285,1.709-2.279,0.854-3.847c-0.854-1.566,1.14-1.852,1.927-1.852
	C204.341,182.132,204.043,178.002,203.548,176.862z"/>
</svg>
