<?xml version="1.0" encoding="iso-8859-1"?>
<!-- Generator: Adobe Illustrator 15.1.0, SVG Export Plug-In . SVG Version: 6.00 Build 0)  -->
<!DOCTYPE svg PUBLIC "-//W3C//DTD SVG 1.1//EN" "http://www.w3.org/Graphics/SVG/1.1/DTD/svg11.dtd">
<svg version="1.1" id="Layer_1" xmlns="http://www.w3.org/2000/svg" xmlns:xlink="http://www.w3.org/1999/xlink" x="0px" y="0px"
	 width="288px" height="288px" viewBox="0 0 288 288" style="enable-background:new 0 0 288 288;" xml:space="preserve">
<path d="M95.438,173.032c0.936,4.299,1.683,3.364,0.936,4.299c-0.749,0.933-3.925,2.615-2.244,4.299
	c1.684,1.682,3.739,2.429,3.552,3.737c-0.187,1.308-2.22,2.43,0.013,3.177c2.231,0.748,3.165-0.934,2.043,2.804
	c-1.121,3.738-0.169,2.804,0.473,4.3c0.649,1.495,1.04,6.915,0,6.915c-1.032,0-3.649,0.374-2.528,2.429
	c1.121,2.057-0.561,4.674-1.121,5.047c-0.561,0.374-0.187,4.485-2.057,4.672c-1.868,0.188,0.748,0.936-1.495,3.553
	c-2.242,2.615-1.495,5.607-3.737,5.607c-2.244,0-1.683-1.31-2.804,0.934c-1.122,2.242-0.888,3.363,0.771,4.672
	c1.659,1.31-0.958,0.748-1.705,2.804c-0.748,2.056-1.869,1.683-0.935,4.673s0.562,5.047-0.748,5.42
	c-1.309,0.374-0.192,0.322,1.398,4.646c0,0.003,0.004,0.008,0.004,0.011c1.256,0.642,3.262,2.095,3.645,0.95
	c0.561-1.683-1.12-4.486,0-6.354c1.121-1.869,3.364,2.057,3.364,2.057l5.42-1.683c0,0,1.869,2.99,3.926,2.99
	c2.055,0-1.121-5.794,0.935-5.794s0,0,1.308,0.811s3.363-0.438,5.233-0.811c1.869-0.374,4.299,2.616,6.354,2.99
	s3.55,3.551,6.354,2.804c2.803-0.747,0.748-5.981,1.869-6.543c1.122-0.56,5.605-2.429,6.169-3.924
	c0.56-1.494,2.055,2.43,3.175,3.178c1.123,0.746,2.991,0,4.674,0.187c1.682,0.187,1.494,3.551,2.43,2.119
	c0.935-1.433,1.495-3.054,2.804-3.054s-0.748-4.485,0-6.542c0.748-2.055,2.056-1.494,3.364-2.43
	c1.309-0.935,2.991-2.988,3.924-2.988c0.935,0,2.057,3.735,3.925,5.231c1.606,1.284,5.83,1.325,8.647,1.232
	c1.047-0.73,2.088-1.461,3.12-2.193c0.289-1.612,0.034-3.853-0.18-5.768c-0.372-3.364,0.562-4.111,2.057-6.5
	c1.495-2.387,1.495-0.603,4.112,0c2.616,0.604,3.177-9.947,5.607-10.882c2.429-0.934,4.484-4.673,4.299-5.233
	c-0.188-0.561-1.497-7.289-1.87-8.41c-0.374-1.122,6.542-1.683,7.476-1.683c0.936,0,3.926,2.431,3.926,2.431
	s5.419-4.486,6.729-5.234c1.308-0.747,6.354-1.122,6.169-2.056c-0.188-0.935,0.747-2.803,0.747-3.924
	c0-1.122-3.364-1.309-4.111-1.309c-0.75,0,0.56-2.617,1.494-3.364c0.935-0.749-2.43-3.552-2.43-5.046
	c0-0.941,1.259-1.364,2.798-1.905L188.27,42.271v-3.986l-76.007,7.976c0,0-0.44,0.613-3.927,2.855
	c-3.491,2.244-11.714,7.477-14.953,5.98c-3.24-1.494-5.605-4.298-5.605-4.298l9.904,117.935
	C97.682,168.733,94.504,168.733,95.438,173.032z"/>
</svg>
