<?xml version="1.0" encoding="iso-8859-1"?>
<!-- Generator: Adobe Illustrator 15.1.0, SVG Export Plug-In . SVG Version: 6.00 Build 0)  -->
<!DOCTYPE svg PUBLIC "-//W3C//DTD SVG 1.1//EN" "http://www.w3.org/Graphics/SVG/1.1/DTD/svg11.dtd">
<svg version="1.1" id="Layer_1" xmlns="http://www.w3.org/2000/svg" xmlns:xlink="http://www.w3.org/1999/xlink" x="0px" y="0px"
	 width="288px" height="288px" viewBox="0 0 288 288" style="enable-background:new 0 0 288 288;" xml:space="preserve">
<path d="M252.301,135.055c-0.229-1.364-5.004-3.867-7.733-4.55c-2.729-0.681-2.234-5.685-2.234-5.685s-6.409-5.459-7.374-7.164
	l-3.411-6.653c0,0-9.895-0.682-11.088-3.583c-1.194-2.9-0.683-5.8-2.56-7.505c-1.876-1.707-2.217-9.894-2.217-11.431
	c0-1.534,2.559-2.558,2.559-4.946s-3.071-3.071-3.925-4.265c-0.852-1.195-1.536-5.629-1.536-5.629l-170.88,3.41
	c0,0-0.123-0.239-0.346-0.682h-4.309c-1.022,1.364,0.342,4.206,1.444,5.002c1.105,0.798-0.876,5.119-0.649,7.052
	c0.229,1.935,2.844,0.911,3.867,4.663c1.023,3.754-1.82,3.184-2.047,4.095c-0.227,0.906,0.568,1.592-0.227,3.524
	c-0.793,1.935-2.503,7.053-3.983,8.644c-1.476,1.591,1.48,4.32,3.302,5.914c1.087,0.949,1.441,4.13,1.551,6.542
	c0.93,0.379,1.783,0.901,2.258,1.647c1.193,1.876-0.683,4.776,0,5.799c0.683,1.024,2.56,3.412,2.56,4.776
	c0,1.365-2.901,1.535-1.195,3.07s3.242,1.878,3.242,3.755c0,1.875,1.705,4.264,3.753,5.117c2.047,0.853,0,2.9,0.853,4.435
	c0.852,1.535,1.875,6.142,1.535,8.018c-0.341,1.876-1.74,5.801,0.066,6.994c1.81,1.194,1.639,1.878,3.686,3.412
	c2.048,1.535,2.218,2.729,2.048,5.459c-0.171,2.729,0.17,6.823,0.853,8.188c0.683,1.364,1.706,4.947,0.854,5.971
	c-0.854,1.022,1.877,4.264,1.193,6.823c-0.599,2.252-2.253,4.24-1.942,6.312c0.042,0.282,0.114,0.564,0.236,0.853
	c1.024,2.389,2.729,1.535,3.753,4.605c0.6,1.792,0.563,2.367,0.729,3.076c76.898,2.098,136.822-3.873,136.822-3.873s0,0,2.276,1.139
	c2.148,1.071,6.322,7.213,10.229,7.317c0.229,0.005,0.459,0,0.688-0.04c4.096-0.683-0.229-6.595-0.912-8.871
	c-0.681-2.271,7.28-2.273,9.045-5.229c1.765-2.959,0-6.597,0-6.597l5.514-4.777c0,0-0.682-7.05-2.729-8.87s-3.641-5.915-2.276-8.871
	s1.82-3.867,2.503-3.867s8.871-1.364,10.009-1.817c1.136-0.459,1.818-3.412,4.777-3.412c2.955,0,5.911-3.186,6.594-3.641
	c0.683-0.454,0-6.824,0-6.824s2.959-2.272,4.776-3.182C254.118,147.791,252.53,136.42,252.301,135.055z"/>
</svg>
