<?xml version="1.0" encoding="iso-8859-1"?>
<!-- Generator: Adobe Illustrator 15.1.0, SVG Export Plug-In . SVG Version: 6.00 Build 0)  -->
<!DOCTYPE svg PUBLIC "-//W3C//DTD SVG 1.1//EN" "http://www.w3.org/Graphics/SVG/1.1/DTD/svg11.dtd">
<svg version="1.1" id="Layer_1" xmlns="http://www.w3.org/2000/svg" xmlns:xlink="http://www.w3.org/1999/xlink" x="0px" y="0px"
	 width="288px" height="288px" viewBox="0 0 288 288" style="enable-background:new 0 0 288 288;" xml:space="preserve">
<path d="M244.378,121.574c-1.04-1.56-2.08-1.386-4.334-1.56c-2.253-0.173,0.52-1.905-1.561-2.6
	c-2.081-0.693-2.081-1.905-1.905-2.772c0.174-0.868-1.386-2.428-4.335-4.333c-2.945-1.906-0.864-3.121-0.171-3.294
	c0.692-0.173-0.175-1.906,0.521-3.293c0.692-1.388,1.905-1.907,3.81-2.08c1.908-0.173,1.561-2.947,0-3.64
	c-1.56-0.694-1.039-2.428-1.729-2.947c-0.695-0.521-2.08,1.56-2.08,1.56s0,0-1.391,0c-1.385,0-6.064-4.334-6.064-4.334
	c-29.92,1.89-154.375-4.373-176.927-5.535l-0.276,4.034L41.02,191.88c46.299,2.49,147.196,7.296,204.39,5.403L244.378,121.574z"/>
</svg>
