<?xml version="1.0" encoding="iso-8859-1"?>
<!-- Generator: Adobe Illustrator 15.1.0, SVG Export Plug-In . SVG Version: 6.00 Build 0)  -->
<!DOCTYPE svg PUBLIC "-//W3C//DTD SVG 1.1//EN" "http://www.w3.org/Graphics/SVG/1.1/DTD/svg11.dtd">
<svg version="1.1" id="Layer_1" xmlns="http://www.w3.org/2000/svg" xmlns:xlink="http://www.w3.org/1999/xlink" x="0px" y="0px"
	 width="288px" height="288px" viewBox="0 0 288 288" style="enable-background:new 0 0 288 288;" xml:space="preserve">
<path d="M256.841,138.955c-1.156-0.651-3.458-0.685-3.683-1.466c-0.3-1.048-1.048-1.197-2.995-2.097
	c-1.947-0.897-2.096-0.599-3.144-1.198c-1.049-0.599,0-3.145-1.948-3.742c-1.946-0.6-2.994-3.445-2.994-3.445
	s-1.947-1.349-1.947-2.662c0-1.245-2.013-1.915-2.729-2.748c-0.037-0.041-0.089-0.083-0.116-0.131
	c-0.6-0.898-2.695-4.193-3.594-4.492c-0.898-0.3-0.3-3.295,0.898-3.295s0.598-2.995-0.75-4.642c-1.347-1.647,0.3-2.845,0.3-2.845
	c0.262,0.353,0.992,0.274,1.872,0.011c-1.192-1.593-2.483-2.776-3.443-3.007c-1.872-0.449-3.669-2.545-3.669-2.545
	s-2.847,1.347-4.044-0.749c-1.198-2.097-0.6-6.29-1.646-5.989c-1.048,0.299-5.541,1.048-6.291,2.994
	c-0.748,1.946-1.347,3.294-2.545,3.445c-1.198,0.148-2.245,1.496-3.594,1.348c-1.348-0.15-3.443-1.798-3.893-1.798
	s-2.696-1.947-3.893-1.348c-1.199,0.599-2.547,4.192-4.044,3.894s-4.642-4.044-6.438-4.493c-1.798-0.448-4.193-0.299-5.691-0.149
	c-1.497,0.149-4.192,0.898-4.791-0.299c-0.6-1.198-1.498-3.445-2.547-5.242c-1.047-1.796-1.646-4.192-3.294-4.192
	c-1.648,0-2.695-1.348-3.295-1.947c-0.599-0.599-4.193,1.797-5.24,1.797c-1.049,0-1.049-3.037-2.995-1.893
	c-1.947,1.144-4.492,1.294-4.492,2.492c0,1.197,2.695,3.443,1.945,4.044c-0.748,0.598-1.796,2.695-1.198,2.695
	c0.601,0,3.296,0.149,3.296,1.048s-0.749,2.396-0.599,3.145c0.149,0.748-3.895,1.048-4.942,1.646
	c-1.049,0.601-5.393,4.194-5.393,4.194s-2.395-1.947-3.144-1.947s-6.289,0.448-5.991,1.348c0.301,0.898,1.351,6.289,1.499,6.738
	c0.149,0.449-1.499,3.445-3.444,4.193c-1.946,0.749-2.396,9.203-4.493,8.719c-2.096-0.483-2.096-1.912-3.294,0
	c-1.198,1.913-1.947,2.513-1.646,5.209c0.299,2.694,0.748,6.234-1.349,6.336c-2.096,0.103-6.439,0.252-7.937-0.945
	c-1.497-1.199-2.396-4.193-3.146-4.193c-0.749,0-2.096,1.646-3.144,2.396c-1.049,0.749-2.097,0.3-2.696,1.947
	c-0.599,1.647,1.049,5.241,0,5.241c-1.048,0-1.497,1.298-2.246,2.447c-0.748,1.147-0.6-1.549-1.946-1.699
	c-1.349-0.148-2.846,0.45-3.744-0.148c-0.898-0.6-2.096-3.744-2.546-2.547c-0.449,1.198-4.044,2.695-4.942,3.146
	c-0.898,0.448,0.75,4.641-1.497,5.241c-2.246,0.6-3.444-1.946-5.091-2.246c-1.647-0.3-3.594-2.696-5.092-2.396
	s-3.146,1.299-4.193,0.65c-1.049-0.65,0.6-0.65-1.049-0.65c-1.646,0,0.899,4.643-0.748,4.643c-1.646,0-3.145-2.396-3.145-2.396
	l-4.343,1.349c0,0-1.797-3.145-2.695-1.648c-0.898,1.497,0.449,3.744,0,5.092c-0.45,1.348-3.744-1.839-3.744-0.77
	s1.049,1.519,0,3.615c-1.048,2.097-3.294,0.448-2.546,3.443c0.749,2.996,3.595,5.092,3.145,5.841
	c-0.448,0.748-10.78,3.595-11.38,4.941c-0.6,1.349-1.349,5.541-1.349,5.541s3.444,4.192,3.444,4.643
	c0,0.449-0.448,3.743-2.246,3.743c-1.797,0-7.938-3.294-10.781-4.044c-2.846-0.748-4.343-2.096-5.393-1.047
	c-0.64,0.64-3.953,4.511-6.986,7.979c2.153,0.173,2.748,1.1,3.646,2.36c0.996,1.397-1.002,6.59-1.002,6.59l2.397,1.396
	c0,0-1.994,0.201-2.196,1.598c-0.201,1.397,0.397,6.189-1.399,6.788c-1.797,0.6-3.392-1.797-3.392-1.797s-0.781,2.04-1.652,3.919
	l41.831-2.825c0,0,1.198-1.801-0.996-6.99h6.79l0.996,1.599c0,0,41.729-4.993,44.326-5.193c2.597-0.198,30.151-1.197,30.75-1.396
	c0.286-0.097,4.366-0.687,9.814-1.344c6.031-0.728,13.743-1.536,19.934-1.851c4.059-0.207,14.962-1.525,27.517-3.168
	c1.613-1.547,3.519-3.104,4.829-3.323c2.695-0.448,3.144-1.796,4.492-2.246c1.348-0.449,5.989-2.096,5.989-2.096
	s1.947-4.792,2.547-4.792c0.598,0,5.24-1.647,5.24-3.444s0-2.696,0-2.696s3.594-2.246,4.044-3.444c0.449-1.197-2.247-1.197,0-3.294
	c2.246-2.096,9.136-4.193,10.032-6.29c0.899-2.096,9.584-11.23,9.584-11.23S257.258,139.544,256.841,138.955z"/>
</svg>
