<?xml version="1.0" encoding="iso-8859-1"?>
<!-- Generator: Adobe Illustrator 15.1.0, SVG Export Plug-In . SVG Version: 6.00 Build 0)  -->
<!DOCTYPE svg PUBLIC "-//W3C//DTD SVG 1.1//EN" "http://www.w3.org/Graphics/SVG/1.1/DTD/svg11.dtd">
<svg version="1.1" id="Layer_1" xmlns="http://www.w3.org/2000/svg" xmlns:xlink="http://www.w3.org/1999/xlink" x="0px" y="0px"
	 width="288px" height="288px" viewBox="0 0 288 288" style="enable-background:new 0 0 288 288;" xml:space="preserve">
<g>
	<path d="M251.243,235.189c1.327-0.19,4.553-1.329,2.276-3.795s-3.226-7.019-6.26-5.691c-3.036,1.328-9.676,1.708-7.968-0.949
		c1.707-2.654-7.019,0.19-8.157-2.085c-1.138-2.277-3.225-4.464-4.744-5.268c-1.517-0.804-6.258-5.546-4.931-6.305
		c1.328-0.758,6.639,2.086,7.019,0.569c0.38-1.518-2.466-7.588,0-7.019c2.467,0.568,5.312,3.415,7.588,3.604
		c2.275,0.189-3.034-7.778-1.517-7.21c1.517,0.569,6.069-1.706,5.5-3.035c-0.569-1.326-7.018-1.326-5.69-4.172
		c1.328-2.846,3.036-4.554-0.189-3.415c-3.225,1.138-3.795,8.726-7.208,8.726c-3.415,0-7.399-0.759-5.121-2.276
		c2.273-1.517-0.191-3.793-3.037-1.327c-2.846,2.465-2.846-3.036-0.947-3.604c1.896-0.569,6.829,0.424,6.829-1.874
		c0-2.3,0-4.766,3.035-5.904c0.278-0.104,0.462-0.228,0.599-0.354c1.38-1.271-3.428-3.631-3.255-5.525
		c0.188-2.087-0.569-7.398-3.224-8.726c-2.657-1.329-7.021-6.261-6.261-8.348c0.759-2.086-0.191-8.157,1.138-11.002
		c1.327-2.846,3.794-6.261,2.276-6.83c-1.519-0.569-82.709,4.363-82.709,4.363s3.604-1.42,2.277-4.411
		c-1.329-2.986-0.76-3.367-0.76-5.074s0.569-3.034,2.655-4.741c2.088-1.708-0.568-4.743-0.568-6.641s2.275-5.121,4.173-7.588
		c1.896-2.466,1.896-5.689,1.896-7.777c0-2.087,0.19-5.312,2.846-6.449c2.656-1.139,4.933-4.933,5.501-7.209
		c0.569-2.276,2.277-4.554,3.984-6.639c1.708-2.087-5.501-1.329-4.553-3.036c0.949-1.708,3.035-3.983,7.208-5.501
		c4.174-1.519,2.087-4.364,0.381-6.26c-1.709-1.897-5.122-4.554-5.122-5.881c0-1.328,3.413-3.605,2.465-4.742
		c-0.947-1.138-5.88,0.189-5.501-2.275c0.38-2.468,3.793-2.277,3.604-3.796c-0.189-1.518-6.45,0-4.174-5.88s4.174-5.311,2.276-5.88
		c-1.896-0.569-4.932,4.742-4.932,1.517c0-2.218-0.622-2.988-1.014-3.26c-0.181-0.123-0.313-0.155-0.313-0.155
		S60.05,49.478,30.747,48.771l0.569,51.856c0,0,4.933,4.933,6.198,5.442c1.266,0.503,3.92,8.727,4.553,9.229
		c0.631,0.503-1.011,6.195-1.011,6.195s3.919,4.682,4.045,5.82c0.128,1.139,5.44,3.794,4.046,4.933
		c-1.393,1.139,1.897,7.969,3.035,9.864c1.139,1.897,2.783,3.663,2.322,4.802c-0.463,1.139-1.436,3.036-1.436,4.429
		s2.024,1.139,1.267,3.29c-0.761,2.148-2.532,6.45-2.532,6.45s0,0-1.262,1.008c-1.266,1.014,2.656,2.655,0.631,4.554
		c-2.025,1.896-4.806,4.551-4.806,5.689c0,1.138,2.276,5.69,1.52,6.325c-0.76,0.635-2.657,4.808-1.52,6.574
		c1.139,1.773,1.898,3.545,1.644,4.934c-0.256,1.392,1.393,4.173,1.137,4.551c-0.236,0.356-1.366,4.337-2.957,6.093
		c0.526,1.629,0.817,3.422,0.177,4.785c-1.518,3.227-2.909,6.071-5.122,6.261s2.745,4.742,2.745,4.742s2.567-3.224,9.018-3.604
		c6.449-0.379,6.64,0.38,10.623-0.19c3.983-0.568,7.967-2.465,11.571-0.188c3.604,2.275,21.245,8.727,30.161,9.295
		c8.917,0.569,13.09-2.846,15.178-2.656c2.086,0.188-1.14-1.327-3.415-3.414c-2.276-2.087-2.657-5.691-1.329-5.691
		c1.329,0,0.76,3.034,3.415,1.896c2.656-1.139,6.26-3.604,6.07-4.362s3.795-3.226,5.123-1.518c1.327,1.707-2.657,3.035-1.52,5.121
		c1.139,2.088,2.278,2.656,4.553,0.569c2.278-2.087,6.641-0.189,7.02-1.138c0.38-0.949-1.896,5.501-1.327,5.501
		s2.276,1.517,4.174,0.189c1.894-1.327,1.896,5.423,0.947,5.563c0.355-0.048,0.949-0.124,0.949-0.124s3.415-1.067,5.88,0.163
		c2.467,1.227,5.123-1.619,5.123-2.946c0-1.329,1.896-7.209,0-7.398c-1.898-0.189-5.123-0.928-5.691-2.17
		c-0.569-1.244-7.019-9.212-9.295-9.212s-4.174-6.449-3.036-7.398c1.139-0.948,2.276,4.174,4.174,5.312
		c1.896,1.139,9.105,5.121,10.055,7.778c0.947,2.654,8.726,1.707,8.916,3.414c0.189,1.707-1.897,4.932-2.277,7.777
		s-1.137,8.158-0.189,8.726c0.948,0.571,0.38,3.415,3.984,5.502c1.178,0.686,2.08,0.979,2.866,1.066
		c-0.815,0.164-1.484,0.367-1.729,0.578c-0.87,0.747-2.654,1.391-2.654,1.391s-0.636-1.263-1.519-1.391
		c-0.89-0.126,0-3.034-1.518-4.3s-1.645,2.275-2.152,2.151c0,0-3.034-0.128-3.034,1.011c0,1.138,2.655,2.656,5.059,3.666
		c2.404,1.013,4.303,0.634,4.303,1.646c0,1.01,2.148,0.886,3.286,0.758c1.139-0.127,0.253-2.908,0.253-2.908l1.392,1.771
		c0,0,0.632-0.759,1.011-1.771c0.38-1.013,1.012,0.76,1.517,0.76c0.509,0,1.012-1.266,1.012-2.784c0-0.742-1.457-0.934-3.05-0.851
		c0.666-0.23,1.343-0.541,2.168-0.794c2.465-0.758,0.568,0.913,3.414,1.121c2.844,0.207,4.551,3.813,3.414,4.001
		c-1.14,0.189-3.982,4.172-2.087,3.984c1.897-0.189,6.639-0.189,8.727-2.656c2.087-2.467-0.759-6.069,4.173-7.398
		c4.933-1.327,6.641-3.415,9.485-1.139s5.313,3.984,4.743,4.553c-0.57,0.569-0.761,2.468,1.138,4.363
		c1.896,1.896,7.019-0.948,7.968-3.225s-0.19-3.794-1.329-4.553c-1.138-0.759-1.327-3.794,0.38-5.502
		c1.707-1.707-8.156-5.69-7.587-7.397c0.568-1.707,4.553-4.932,4.741-2.846c0.189,2.087-0.569,4.741,2.466,4.741
		s7.777,0.19,10.244,1.709c2.467,1.518,2.276,3.036,2.655,5.69c0.379,2.656,5.691,0,8.348,2.087
		c2.655,2.086,9.674,7.019,9.104,8.916c-0.569,1.896,3.983,4.363,5.312,1.896c1.329-2.465,3.415,1.898,5.882,2.277
		C253.709,242.396,249.913,235.378,251.243,235.189z"/>
	<path d="M144.252,221.975c0,0,0,0,0-0.003C143.974,222.011,143.835,222.028,144.252,221.975z"/>
	<path d="M134.892,220.392c-0.502,0-5.185-3.034-6.322-3.666s-0.507,1.518-2.528,2.024c-2.026,0.504-1.967,0.676-2.782,1.642
		c-2.025,2.401,6.321,3.669,6.197,4.302c-0.13,0.632,3.538,1.645,4.805,1.645c1.266,0,0.129-2.277,0.129-2.277
		s2.399-2.274,2.527-2.782C137.044,220.772,135.399,220.392,134.892,220.392z"/>
</g>
</svg>
