<?xml version="1.0" encoding="iso-8859-1"?>
<!-- Generator: Adobe Illustrator 15.1.0, SVG Export Plug-In . SVG Version: 6.00 Build 0)  -->
<!DOCTYPE svg PUBLIC "-//W3C//DTD SVG 1.1//EN" "http://www.w3.org/Graphics/SVG/1.1/DTD/svg11.dtd">
<svg version="1.1" id="Layer_1" xmlns="http://www.w3.org/2000/svg" xmlns:xlink="http://www.w3.org/1999/xlink" x="0px" y="0px"
	 width="288px" height="288px" viewBox="0 0 288 288" style="enable-background:new 0 0 288 288;" xml:space="preserve">
<g>
	<path d="M208.195,132.839c-0.504-1.564-3.225-5.295-4.467-6.437c-1.237-1.142-4.057-2.561-5.121-2.238
		c-1.07,0.318-2.118,3.407-2.919,3.604c-0.795,0.191-4.761-3.233-4.975-4.086c-0.204-0.85-0.89-3.154-0.715-4.16
		c0.177-1.006-0.131-2.498-0.131-2.498s-2.928-3.617-3.06-4.132c-0.121-0.512,1.519-1.453,1.475-1.863
		c-0.044-0.412-1.596-4.065-2.122-3.999c-0.527,0.068-10.564,0.657-11.326,0.482c-0.77-0.176-1.931-2.238-2.101-3.402
		c-0.161-1.164-0.281-3.846-0.304-4.443c-0.026-0.596-0.845-1.239-0.953-1.452c-0.114-0.213,0.488-1.927,0.065-2.909
		c-0.417-0.981-16.237-50.117-16.237-50.117s-3.745-0.047-4.194-0.901c-0.45-0.854-3.192-2.712-4.268-3.172
		c-1.075-0.461-7.329-4.351-8.858-4.217c-1.536,0.136-3.845,2.025-3.845,2.025s0.021,1.56-0.127,1.956
		c-0.143,0.396-2.928,1.319-3.493,1.46c-0.572,0.14-1.604,2.319-3.936,3.131c-2.329,0.81-6.011,4.48-6.011,4.48
		s-5.557-1.052-5.836-1.704c-0.286-0.652-2.721-7.166-2.721-7.166l-5.024-0.337L92.682,81.711c0,0,1.767,11.134,1.389,12.069
		c-0.373,0.935-2.267,5.496-3.038,6.283c-0.774,0.792-1.137,6.183-1.137,6.183s2.343,2.198,2.199,3.076
		c-0.146,0.877-1.557,3.993-1.557,3.993s1.438,2.904,1.575,3.472c0.141,0.565,1.808,0.521,1.804,2.451
		c-0.011,1.926-3.208,6.085-3.208,6.085s1.715,2.108,1.688,2.478c-0.028,0.368-4.36,5.283-5.793,6.355
		c-1.427,1.071-1.733,5.724-1.875,6.604c-0.154,0.879,2.994,2.883,3.071,4.187c0.076,1.307-2.562,1.35-3.61,1.486
		c-1.053,0.138-2.303,0.441-1.975,1.806c0.336,1.366,0.764,7.526,0.764,7.526s-4.267-4.619-5.091-4.537
		c-0.822,0.08-2.249,3.305-2.249,3.305l25.292,77.58l0.933,6.902c0,0,3.517,3.859,4.098,4.328c0.587,0.469,3.281,1.286,3.281,1.286
		l0.7,3.626c0,0,2.815,3.045,3.627,2.691c0.823-0.349-1.635-1.99,0.005-1.872c1.635,0.118,0.581,1.929,1.459,1.9
		c0.877-0.026,0.999,0.206,1.229-0.847c0.231-1.054,0.702-2.927,0.823-4.096c0.11-1.171-0.355-3.745-0.592-4.211
		c-0.231-0.468-0.192-3.862,0.608-4.099c0.795-0.232,2.671-0.467,2.666-1.053c0.005-0.587-0.698-2.106,0-2.689
		c0.702-0.588,1.059-2.11,1.174-3.16c0.115-1.057-0.587-1.755-0.702-2.575c-0.116-0.817-0.675-2.458,0.713-2.458
		c1.389,0.003,2.563-1.521,3.028-1.289c0.466,0.236,1.288-0.817,0.932-1.403c-0.345-0.585-0.926-1.871-1.168-2.222
		c-0.235-0.352-1.168-0.118-1.168-1.286c-0.006-1.171-0.353-3.16,0.113-3.862c0.468-0.704,1.049-2.228,1.526-2.693
		c0.46-0.469,1.748-1.989,2.221-2.689c0.467-0.702,1.521-2.693,2.338-2.343c0.821,0.351,0.816,1.289,0.816,1.289
		s-0.7,1.404-0.696,2.337c0,0.94,0.089,1.333-0.308,1.507c-0.394,0.177-0.482,1.581-0.219,1.756
		c0.263,0.176,1.361,0.133,1.449-0.438c0.087-0.571,0.788-1.624,0.652-2.15c-0.126-0.527,0.251-2.063,0.017-2.414
		c-0.236-0.352-0.435-0.614,0.081-0.57l0.911,0.179c0.723-0.238,0-1.736-0.165-1.912c-0.165-0.178,1.099-0.667,1.448,0.272
		c0.352,0.935,0.981,2.048,0.614,2.497c-0.367,0.453-1.14,0.519-0.784,0.735c0.352,0.215,1.091,0.758,1.415,0.857
		c0.324,0.103-0.334,2.313,0.598,2.445c0.938,0.132,1.536-0.856,1.382-1.48c-0.152-0.626,0.363-1.235-0.4-1.652
		c-0.768-0.414-1.475-2.83-1.475-2.83s-0.796-3.238-1.003-3.608c-0.216-0.368-1.136-2.376-1.355-2.318
		c-0.226,0.052-0.801,1.398-1.071,1.284c-0.268-0.115-0.405-0.925-0.284-1.676c0.115-0.752,0.418-1.007,0.643-1.063
		c0.224-0.054,0.631-1.602,0.432-2.152c-0.19-0.554,0.325-1.163,0.544-1.218c0.23-0.055,1.793,0.164,1.332,0.758
		c-0.455,0.594-0.977,2.649-0.977,2.649s-0.021,0.909,0.303,1.25c0.33,0.34,1.651,2.548,1.695,2.718
		c0.037,0.172,0.757,1.38,0.84,1.963c0.081,0.582,0.361,1.721,0.361,1.721s1.091,0.274,0.872,0.628
		c-0.213,0.354,0.054,1.972,0.57,2.087c0.516,0.115,0.482,0.727,0.829-0.321c0.344-1.048,0.18-2.454,0.06-2.964
		c-0.126-0.514-1.316-0.702-1.416-0.862c-0.098-0.153-0.942-1.151-1.025-1.491c-0.088-0.34-0.088-2.811,0.07-3.396
		c0.161-0.578,0.813-3.089,1.297-3.566c0.481-0.481,1.447-1.441,1.474-0.843c0.029,0.593-0.022,2.594-0.158,3.29
		c-0.132,0.694-1.092,0.69-1.092,0.69s-0.57,0.38-0.575,1.104c-0.006,0.724-0.176,1.248-0.062,1.703
		c0.109,0.452,1.147,1.259,1.147,1.259s0.487-1.479,0.301-1.977c-0.186-0.497,0.022-1.389,0.034-1.575
		c0.017-0.184,0.8-0.194,1.168-0.161c0.367,0.027,0.763,0.833,0.587,1.118c-0.187,0.288-0.708-0.129-0.879,0.636
		c-0.176,0.77-0.432,1.674-0.011,2.173c0.418,0.499,0.676,0.559,1.257,0.96c0.582,0.397,0.548,1.01,1.103,0.813
		c0.554-0.198,0.691-1.612,0.608-2.198c-0.082-0.58-1.102-1.778-1.271-1.977c-0.165-0.203-0.527-1.438-0.488-1.991
		c0.049-0.554,0.488-3.189,0.504-3.614c0.022-0.429,0.159-0.823,0.159-0.823s0.779,0.473,0.879,1.353
		c0.092,0.88,0.037,2.638-0.144,3.106c-0.191,0.467-0.252,0.482-0.04,1.092c0.216,0.612,0.31,1.25,0.632,1.35
		c0.329,0.104,1.093-0.477,1.278-0.688c0.192-0.209,0.478,0.228,0.74-0.182c0.264-0.409-0.076-0.568,0.083-1.629
		c0.159-1.063,0.724-3.189,0.642-4.013c-0.077-0.823,0.138-4.13,0.138-4.13s1.348-0.39,1.672,0.191
		c0.322,0.586,0.795,1.553,0.642,2.616c-0.164,1.064-0.943,1.313-0.147,1.361c0.789,0.049,3.043-1.827,3.181-1.259
		c0.138,0.566,0.598,2.925,0.714,2.898c0.114-0.027,1.079-0.508,1.312-1.286c0.229-0.779,0.511-2.112,0.646-2.51
		c0.143-0.395,1.338-0.203,1.465-0.658c0.132-0.453-0.357-1.959,0.071-2.185c0.428-0.228,1.338-1.413,1.524-1.88
		c0.192-0.47,0.291-1.034-0.235-0.966c-0.521,0.065-1.168,1.369-1.646,0.401c-0.482-0.966,0.231-9.874,0.231-9.874l1.024-0.25
		l0.357-3.222c0,0-1.981-1.202-2.358-1.769c-0.379-0.568-0.076-0.826,0.176-1.249c0.258-0.425,1.365-0.335,1.365-0.335l0.33-1.347
		c0,0,1.843-1.834,2.353-1.961c0.511-0.123,0.631-1.602,0.394-1.842c-0.24-0.242-0.991-0.846-0.991-0.846l0.121-1.228l2.638,0.194
		c0,0,0.18,2.244,0.169,2.668c-0.016,0.429,0.144,2.073-0.405,2.271c-0.554,0.194-1.382,0.517-0.816,0.861
		c0.57,0.343,0.492,0.541,1.026,0.23c0.526-0.31,1.48-1.087,1.48-1.325c0-0.24-0.183-1.219,0.12-1.233
		c0.296-0.014,1.415,0.616,0.97,1.025c-0.437,0.409-0.614,1.66-0.898,1.728c-0.285,0.069-0.399,1.063-0.774,1.273
		c-0.371,0.211-0.882,0.096-0.969,0.718c-0.091,0.624,0.103,1.901,0.398,2.613c0.297,0.711,0.511,0.6,1.02-0.011
		c0.517-0.604,0.775-1.995,1.017-1.995c0.247,0.005,0.79,0.531,1.432,1.159c0.631,0.629,1.261,0.714,2.013,0.59
		c0.752-0.12,2.046-0.258,2.21,0.181c0.165,0.441,2.019,1.612,2.391,1.163c0.374-0.452,0.556-0.678,0.391-1.36
		c-0.164-0.683-1.744-2.221-1.744-2.221s-0.115-0.215,0.538-0.497c0.657-0.276,1.771,0.348,1.635-0.458
		c-0.138-0.812-0.911-2.249-1.421-2.122c-0.516,0.125-0.764,2.053-0.764,2.053s-0.481,0.96-0.854,0.45
		c-0.362-0.513-1.196-1.933-1.277-2.518c-0.084-0.582,0.283-0.793,1.097-0.93c0.812-0.141,1.359-0.093,1.408-0.889
		c0.049-0.795,1.278-0.974,0.506-1.387c-0.763-0.418-1.712-1.328-1.492-1.927c0.214-0.592,1.92-1.974,2.089-1.053
		c0.166,0.925,0.28,1.617,0.598,2.442c0.325,0.826-0.876,2.566,0.499,2.051c1.383-0.522,1.126-0.579,1.345-1.656
		c0.219-1.075,0.318-1.885,1.113-2.079c0.802-0.194,1.608,0.147,1.65-0.402c0.05-0.556-1.437-1.454-1.492-1.683
		c-0.059-0.23-1.287,0.434-0.909-0.502c0.373-0.936,1.849-1.056,2.079-0.87c0.225,0.188,0.515,1.619,1.425,1.399
		c0.905-0.226,0.418-1.25,0.929-1.374c0.51-0.123,0.322,0.825,1.031,1.012c0.707,0.189,2.468,0.242,2.468,0.242
		s-0.176,0.768,0.022,1.56c0.19,0.796,1.377,3.158,2.528,2.697c1.146-0.465,1.635-0.943,1.731-1.751
		c0.111-0.812,1.087-0.745,1.104-0.932c0.012-0.184,0.48-1.205-0.352-1.421c-0.834-0.219-2.847-1.05-2.847-1.05
		s-1.125-2.137,0.181-1.973c1.311,0.165,2.078,0.877,2.008,1.075c-0.071,0.197,1.157,2.005,1.613,1.893
		c0.449-0.109-0.516-1.86-0.532-2.156c-0.012-0.302,0.164-1.306,0.746-1.629c0.586-0.324,0.987-2.105,0.789-2.183
		c-0.197-0.072-0.691-1.578-0.378-1.651c0.318-0.083,0.889-1.427,1.688-1.617c0.796-0.199,0.977,0.301,1.103,0.812
		c0.127,0.513,1.904,1.884,1.904,1.884s-0.698,1.072,0.279,1.138c0.976,0.061,0.483-2.709,0.483-2.709s0.202-1.136,0.745-1.146
		c0.538-0.012,1.003,0.416,1.158,1.041c0.153,0.627-0.747,1.388,0.235,0.966c0.981-0.423,1.195-0.532,1.464-0.899
		c0.27-0.367-0.005-1.021-0.131-1.533s-0.313-1.188-0.439-1.879c-0.132-0.69-0.17-1.104,0.242-1.629
		c0.416-0.521,1.437-0.532,2.073,0.097c0.631,0.627,1.782,0.888,1.688,0.249c-0.099-0.639-1.641-2.008-0.914-2.491
		c0.728-0.477,1.112-0.39,1.189,0.676c0.082,1.063,0.783,1.979,1.146,1.229c0.358-0.753,0.29-1.519,0.164-2.03
		c-0.125-0.51-0.334-1.366-0.45-1.818c-0.104-0.455,0.495-1.201,0.994-1.386c0.493-0.18,1.475,0.115,1.168,0.855
		c-0.302,0.738,0.252,0.845,0.428,1.163c0.176,0.319,0.813,1.188,1.323,1.063c0.51-0.124,0.064-1.222,0.521-1.331
		c0.455-0.114,0.384,0.327,1.021-0.011c0.641-0.338,2.144-3.535,2.516-3.99c0.373-0.452-0.607-0.271-0.317-1.308
		c0.284-1.032,0.213-0.353,0.8-1.158c0.582-0.808,0.352-0.028,1-1.086c0.642-1.063,1.311-2.008,1.311-2.008l0.827-1.048
		C212.741,136.906,208.695,134.403,208.195,132.839z"/>
	<path d="M177.971,168.227c-0.587-0.352-1.781-1.009-2.605-0.853c-0.817,0.153-1.666,1.312-1.666,1.312s0.51,0.597,0.263,1.066
		c-0.246,0.467-0.801,0.962-0.944,1.677c-0.143,0.709-0.389,1.901-0.333,2.338c0.059,0.439-0.336,1.394,0.169,1.812
		c0.516,0.417,3.604,2.325,3.604,2.325c1.029-0.387,0.098-0.702,0.812-1.465c0.718-0.762,0.515-1.388,0.544-1.668
		c0.021-0.273-2.738-2.673-2.03-3.116c0.702-0.442,1.504,0.764,1.574,1.241c0.065,0.479,0.208,1.437,1.031,1.103
		c0.822-0.336,2.122-2.596,2.293-2.819C180.851,170.956,178.554,168.58,177.971,168.227z"/>
	<path d="M158.071,175.534c-0.006-0.586-0.4-0.487-1.146-0.44c-0.861,0.051-0.088,3.138-0.176,3.341
		c-0.083,0.201-0.027,2.266,0.192,2.254c0.226-0.007,0.855-0.026,1.18-0.284c0.322-0.265,0.12-1.975-0.482-2.414
		C157.035,177.552,158.082,176.119,158.071,175.534z"/>
	<path d="M167.171,182.252c-0.829-0.064,0.077-0.422-0.296-0.831c-0.366-0.407,1.185-0.515,1.301-1.716
		c0.109-1.204-0.72-1.09-1.197-1.38c-0.478-0.288-0.955-0.016-1.7,0.235c-0.51,0.171-0.274,0.746-0.114,1.563
		c0.153,0.82,0.867,0.604,0.313,0.736c-0.556,0.137-1.131,0.005-1.235,0.674c-0.109,0.666,0.604,1.92,1.092,2.254
		c0.487,0.332,2.194-0.266,2.435-0.598C168.016,182.861,168.005,182.321,167.171,182.252z"/>
	<path d="M162.454,185.127c-0.076-0.302-0.11-1.92-1.146-1.53c-1.031,0.39-1.618,1.849-1.618,1.849s-1.793,2.105-0.297,2.687
		c0.686,0.265-0.428-1.206,0.713-1.711C161.247,185.916,162.525,185.423,162.454,185.127z"/>
	<path d="M164.165,187.688c-0.245-0.076-0.224,0.372-1.102,0.676c-0.873,0.304-1.563-1.129-1.777-1.19
		c-0.439-0.121-0.615,0.826-0.785,1.409c-0.175,0.587,1.383,0.478,1.958,0.608c0.57,0.133-0.171,1.169,0.317,1.504
		c0.489,0.331,1.119-0.411,1.92-0.833C165.493,189.44,164.412,187.763,164.165,187.688z"/>
	<path d="M168.631,186.188c-0.183,0.03-1.604,1.747-1.52,2.268c0.083,0.524,0.564,1.579,1.156,1.615
		c0.598,0.036,1.289,0.091,1.201-0.474c-0.092-0.563-0.132-0.718-0.378-1.525C168.851,187.263,169.201,186.095,168.631,186.188z"/>
	<path d="M174.362,179.318c-0.554,0.316,0.598,0.987,0.664,1.418c0.061,0.43-0.577,0.235-0.813,0.196
		c-0.234-0.038-0.729-0.765-1.141-0.223c-0.406,0.544-0.132,1.125-0.056,1.241c0.072,0.121,0.658-0.253,1.181-0.332
		c0.521-0.083,0.147,0.778,0.718,0.71c0.57-0.063,0.978-0.627,1.234-1.415C176.414,180.129,174.757,179.093,174.362,179.318z"/>
</g>
</svg>
