<?xml version="1.0" encoding="iso-8859-1"?>
<!-- Generator: Adobe Illustrator 15.1.0, SVG Export Plug-In . SVG Version: 6.00 Build 0)  -->
<!DOCTYPE svg PUBLIC "-//W3C//DTD SVG 1.1//EN" "http://www.w3.org/Graphics/SVG/1.1/DTD/svg11.dtd">
<svg version="1.1" id="Layer_1" xmlns="http://www.w3.org/2000/svg" xmlns:xlink="http://www.w3.org/1999/xlink" x="0px" y="0px"
	 width="288px" height="288px" viewBox="0 0 288 288" style="enable-background:new 0 0 288 288;" xml:space="preserve">
<path d="M260.801,168.06c-0.86-0.492-3.685,0.981-4.421,0c-0.736-0.982-1.228-1.473,0.246-2.088s0.123,0.367-1.474-1.104
	c-1.597-1.474-5.279-0.614-1.597-1.474c3.684-0.86,5.156,0.613,5.895-0.983c0.736-1.596,0.736-2.455,0.736-2.455l-31.282,6.017
	l-12.476-42.354L205.394,86.16L25.417,121.77l5.402,34.625c0,0,3.439-3.438,4.912-5.647c1.474-2.211,3.929-1.965,4.174-3.932
	c0.245-1.963,2.456-4.173,3.686-6.875c1.228-2.701,3.437-5.647,4.664-5.647c1.229,0,4.913,1.719,5.895,1.719
	c0.982,0,6.139-12.279,7.367-12.279c1.228,0,3.192,2.947,4.42,3.193c1.229,0.245,7.857-0.984,10.805-1.228
	c2.947-0.246,1.721-3.439,2.457-5.158c0.737-1.718,4.42-2.21,5.896-2.455c1.474-0.245,2.944-5.402,5.4-5.894
	s6.876,4.42,10.068,4.174c3.192-0.245,5.402-0.737,4.666,1.965c-0.737,2.701,4.911,6.14,6.385,6.14c0.945,0,2.296,1.93,3.139,3.96
	c0.469,1.128,0.79,2.287,0.79,3.163c0,0.06-0.006,0.149-0.006,0.218c2.325,0.679,4.673,1.228,5.899,1.094
	c2.947-0.332,8.513,0.981,9.165,3.928c0.66,2.947-4.912,6.875,0,7.529c4.91,0.655,11.465-0.326,13.431,3.603
	c1.963,3.93,1.302,2.943,6.544,3.273s7.529,7.859,7.529,9.496c0,1.639-1.312,5.89-1.636,8.186c0,0,0.209,1.351-1.879,3.929
	c-2.087,2.578-4.298,4.174-4.543,5.771c-0.246,1.595-0.736,5.648,0.98,6.997c1.719,1.352,1.476,3.563,3.193,2.702
	c1.719-0.859,5.279-5.523,6.754-7.735c1.473-2.209,1.473-2.209,1.473-2.209s-0.49,1.84,0.859,3.437
	c1.352,1.597,3.316,4.421,3.563,5.279c0.244,0.861,1.84,3.686,3.437,4.053c1.597,0.369,2.089,0.859,2.701,0
	c0.614-0.857-0.489-3.684-1.228-4.053c-0.736-0.368-1.718-0.612-2.087-2.085c-0.368-1.475,1.595-3.316,2.333-1.598
	c0.735,1.72,3.683,6.018,4.299,6.752c0.613,0.737,1.963,2.336,1.963,2.336s0.123-4.177,0.982-4.913
	c0.859-0.737-0.121,1.474,1.352,1.474c1.474,0,2.086-2.334,3.191-1.351c1.106,0.981-0.613,2.824-1.596,3.684
	c-0.98,0.859,0.614,0.491,2.455,0.491c1.842,0,3.684,0.489,5.279,1.719c1.596,1.228,1.473,2.702,1.473,2.702s1.598,0.613,2.459,0
	c0.859-0.614-0.615-2.825,0-4.421c0.613-1.595,1.35-0.737,1.963,0.615c0.613,1.349,0.736,4.078,0.736,4.078s5.158,4.271,6.018,4.271
	c0.858,0,0-3.44,0-3.44s-1.353-0.121-2.088-0.859c-0.738-0.735-0.982-2.701,0.491-2.333c0,0-0.614-2.21-2.087-3.56
	c-1.475-1.351-1.842-2.211-2.088-3.07c-0.246-0.86,0.246-3.438,0.246-3.438s-2.578,1.351-4.176,1.473
	c-1.597,0.125-1.597-1.596-2.824-1.718c-1.227-0.122,0.736-0.859-1.104-1.842c-1.844-0.983-3.807,0-5.035-1.228
	c-1.229-1.229-3.93-4.42-2.211-4.42c1.721,0,2.211,1.474,3.194,1.596c0.981,0.122,1.841,1.475,3.313,1.595
	c1.475,0.123,2.456,0.493,3.069,1.229c0.616,0.736,0.616,2.332,1.843,2.332s2.333-1.84,1.965-3.929
	c-0.367-2.088-3.686-2.456-6.139-4.911c-2.457-2.456-5.896-14.12-5.28-15.473c0.612-1.349-2.702,0.125-2.581-2.085
	c0.127-2.211,2.457-3.931,2.457-5.035c0-1.105-1.227-3.069-1.594-4.79c-0.369-1.718-3.441-0.98-2.703-2.823
	c0.736-1.842,2.825-3.683,1.719-4.419c-1.104-0.737-3.192-1.474-3.069-2.457c0.122-0.982-0.246-3.193,1.718-2.823
	c1.967,0.367,4.176,0.367,4.054-0.983c-0.124-1.35-3.685-4.421-5.28-4.052c-1.596,0.367-2.332,0.245-2.702-0.982
	c-0.366-1.228-2.333-4.912,0.675-3.438s3.746,2.089,4.482,0.981c0.738-1.104,0.859-3.068,1.352-4.543
	c0.314-0.935,0.283-1.726,0.942-2.459c0.377-0.418,0.975-0.821,2.005-1.224c2.823-1.104,3.437-3.07,4.174-3.929
	c0.736-0.858-0.123-0.614,2.701-2.456c2.824-1.841,4.176-4.666,3.193-4.789c-0.982-0.122-2.949-4.174,0-5.647
	c2.946-1.473,3.314-2.823,3.559-3.193c0.246-0.368,1.721,0.614,1.23,2.702c-0.492,2.088-2.089,3.683-1.105,4.053
	c0.982,0.367,3.827-2.824,4.059-3.685c0.239-0.86,1.957-3.561,2.449-2.578c0.49,0.98,1.473,2.947,0,3.806
	c-1.474,0.859,0.736,0.983,1.965,2.087c1.228,1.105,1.351,1.719-1.229,1.597c-2.579-0.123-3.315-2.087-4.913,0.247
	c-1.595,2.333-4.788,3.191-2.577,3.928c2.21,0.736,3.561-0.736,4.911-0.736s4.789,0.981,3.437,1.596
	c-1.35,0.614-2.453,2.212-4.05,1.475s-5.157-0.981-6.877,0.366c-1.72,1.352-2.208,2.703-2.456,3.316
	c-0.245,0.614-1.104,0.368-0.859,3.684c0.024,0.289,0.024,0.507,0.039,0.741c0.091,2.428-0.437,1.998-0.775,3.68
	c-0.367,1.842-1.105-0.492-0.737,2.947c0.37,3.437,0.86,3.315,1.966,4.42c1.104,1.105,0.244,1.227,1.229,3.561
	c0.981,2.333,0.981,2.211,2.824,0.982c1.842-1.228,2.332,0.123,1.227,1.842s-1.842,1.719-3.438,1.843
	c-1.598,0.123-3.438,0.491-3.808-0.737c-0.368-1.229-0.122-2.087-1.351-1.965c-1.227,0.123-2.085,1.842-1.964,3.929
	c0.123,2.088,0.245,3.562,0.983,6.386c0.736,2.824-1.352,3.484,1.228,2.05c2.577-1.436,0.735-3.523,1.597-5.12
	c0.858-1.595,1.595-2.332,3.068-2.332c1.473,0,1.596,0.367,2.09,1.841c0.488,1.474,0.735,0.491,2.209-0.367
	c1.472-0.862,1.718-1.966,2.578-0.736c0.859,1.227,3.806,2.7,1.228,3.068c-2.579,0.369-3.315,0.369-3.931,1.474
	c-0.612,1.104-0.367,2.823,0.247,2.947c0.614,0.123,2.087-0.446,2.823-0.774c0.737-0.332,1.843,0.65,0.492,2.002
	c-1.353,1.351-4.175,1.596-4.175,1.596s-1.229-1.227-1.966-2.21c-0.735-0.982-2.088-3.76-2.701-1.388
	c-0.613,2.371-1.475,4.582-1.35,6.422c0.123,1.843-0.736,3.563,0.736,4.175c1.473,0.615,2.088-1.104,2.823-2.456
	c0.737-1.35,2.457-3.559,3.562-2.208c1.104,1.35-0.123,2.699,1.104,1.35s3.808-2.823,3.931-1.105
	c0.123,1.719-1.597,2.211-1.72,3.315c-0.124,1.104-0.614,1.35,1.474,1.35c2.087,0,2.425,1.598,3.913,1.966
	c1.49,0.367,2.717,0.982,1.121,1.964c-1.597,0.982-3.315-1.228-5.157-1.228s-3.315,0-2.701,1.351
	c0.613,1.351,3.807,2.701,2.456,3.561c-1.351,0.86-1.966,2.087-3.192,2.333c-1.229,0.246-0.246,2.946-1.105,3.315
	c-0.861,0.368-0.861-1.842-2.211-1.842c-1.351,0-2.824,0.86-1.105,1.965c1.72,1.106,2.211,1.964,3.438,3.438
	c1.229,1.474,1.106,2.822,2.088,2.822c0.983,0-0.121-3.806,0.615-3.56c0.737,0.246,3.561,1.842,4.051,3.069
	s-0.367,2.456,1.107,2.456c1.473,0,2.701-0.123,3.805,1.228c1.104,1.352,2.087,0.737,2.087,3.562s-2.209,3.682-0.983,3.929
	c1.229,0.246,2.824,0.859,3.44-0.247c0.613-1.104,0-3.069,0-3.069s0.368-1.226-1.228-3.437c-1.599-2.21-3.931-2.332-2.58-3.806
	s0.981-4.789,2.211-4.789s3.191,0.49,2.824,1.718c-0.369,1.229-2.824,2.212-2.211,3.561c0.616,1.352,2.088,4.054,3.069,4.054
	c0.982,0,0.369-2.21,0-3.562c-0.367-1.35-0.612-4.176,1.351-4.912c1.964-0.737,3.316-2.21,3.193-0.613
	c-0.121,1.597-2.088,2.579-2.088,3.807c0,1.227-0.123,3.685,0.737,4.297c0.859,0.613,0.999-1.597,1.358-1.964
	c0.359-0.37,0.238-1.351,2.08-0.983c1.841,0.369,1.352,1.721,0.981,2.947c-0.367,1.228-0.122,2.58-2.211,2.701
	c-2.088,0.123-3.313-0.492-3.313,0.736c0,1.229-1.106,1.597-0.123,2.703c0.981,1.104,1.596-0.246,2.824-0.984
	c1.228-0.735,3.562-1.474,4.788-1.474c1.229,0,4.544-0.122,2.333,1.229c-2.209,1.352-3.314,0.368-3.685,1.352
	c-0.367,0.982-2.455,3.07-2.086,3.929c0.368,0.859,0.122,1.595,1.965,0.245c1.84-1.349,3.191-4.665,3.806-2.823
	s-0.86,2.578-1.966,3.929c-1.104,1.352-3.069-1.351-3.192,1.229c-0.121,2.578-0.981,3.807,0.123,3.93
	c1.107,0.123,1.965-1.597,2.211-0.737c0.245,0.86-4.42,2.701-0.981,2.578s2.701-0.86,3.929-1.718
	c1.228-0.86,5.279-3.316,5.279-3.316l15.227-4.419c0,0-0.368-3.563,0-4.79s1.842-2.947,2.456-3.438
	c0.613-0.491,0.857-3.317,0.857-5.404s-1.35-2.454,0-3.438c1.353-0.982,2.457-1.595,2.457,0.368c0,1.966,0.859,3.806,0.982,1.475
	c0.123-2.333,0-1.843,1.104-4.174C259.573,170.76,261.659,168.551,260.801,168.06z"/>
</svg>
