<?xml version="1.0" encoding="iso-8859-1"?>
<!-- Generator: Adobe Illustrator 15.1.0, SVG Export Plug-In . SVG Version: 6.00 Build 0)  -->
<!DOCTYPE svg PUBLIC "-//W3C//DTD SVG 1.1//EN" "http://www.w3.org/Graphics/SVG/1.1/DTD/svg11.dtd">
<svg version="1.1" id="Layer_1" xmlns="http://www.w3.org/2000/svg" xmlns:xlink="http://www.w3.org/1999/xlink" x="0px" y="0px"
	 width="288px" height="288px" viewBox="0 0 288 288" style="enable-background:new 0 0 288 288;" xml:space="preserve">
<g>
	<path d="M207.422,191.878c2.009-1.406,1.377-2.887,0.949-2.892l-0.414,0.005c-0.427-0.005-5.496,5.342-5.496,5.342
		s-0.949,0.781,0.842,0.781C205.104,195.114,205.411,193.284,207.422,191.878z"/>
	<path d="M250.828,160.571c0,0-3.964,0.951-4.12,0c-0.159-0.951,2.218-5.86,1.733-7.128c-0.467-1.262-2.524-7.603-4.913-9.976
		c-2.374-2.376-6.336-6.179-7.286-7.281c-0.95-1.115-4.752-2.698-7.921-2.693c-3.168-0.005-4.117,1.269-4.117,2.214
		c0,0.954,1.91,2.381,2.691,2.371c0.794,0.004,0.635-1.101,1.584-1.417c0.961-0.321,3.011-1.432,3.961-0.004
		c0.959,1.425,3.813,8.232,5.071,8.235c1.277-0.003,2.218,0.478,2.227-0.474c-0.009-0.951,1.416,0.628,2.364,2.693
		c0.961,2.055,2.385,5.385,1.9,6.02c-0.475,0.633-2.048,4.331-3.156,4.697c-1.108,0.376-3.654,3.064-5.544,3.223
		c-1.903,0.158-3.012,1.901-3.961,3.162c-0.95,1.278-4.446,2.863-4.446,2.863s-2.523-0.157-2.535-0.951
		c0.012-0.798-7.909-1.901-7.909-1.901s-4.91-2.534-6.664-5.387c-1.732-2.851-0.949-6.177-1.256-6.811
		c-0.318-0.635-5.238,0.634-6.98,0.158c-1.733-0.476-3.804-1.109-3.961-3.01c-0.158-1.9,1.584-2.06,1.584-2.06l-0.782-3.959
		c0,0,3.801,1.266,3.791,2.533c0,1.268-1.573,0.952,0,1.268c1.596,0.317,4.922-1.427,0.646-3.801
		c-4.279-2.378-7.615-6.812-9.032-7.289c-1.433-0.475-2.217-3.167-2.385-4.118c-0.158-0.944,1.587-0.95-2.06-1.419
		c-3.643-0.476-3.958-0.481-5.939-1.27c-1.979-0.79-3.406-2.851-5.149-1.742c-1.732,1.109,4.278,1.265,3.485,2.853
		c-0.79,1.588-1.269,3.644-3.168,3.644c-1.9-0.006-2.218,0.48-3.011-1.901c-0.793-2.371-1.277-2.22-2.384-2.848
		c-1.099-0.632-1.437-12.356-1.437-12.356s1.128,1.586,2.871,1.739c1.742,0.157,0-2.059,0.149-2.847
		c0.168-0.797,2.384-0.793,3.179-2.862c0.792-2.054-0.526-4.266-1.447-3.632c-0.932,0.629-1.246-1.584,1.289-2.693
		c2.521-1.114,5.742-0.799,6.107-2.381c0.386-1.585,0.375-2.7,1.177-3.49c0.793-0.793,3.485,0,3.485,0s0.634-5.229,1.099-5.86
		c0.484-0.635,1.121-1.74-1.099-1.423c-2.217,0.318-6.019,2.061-6.019,2.061s-1.268,2.852-1.744,2.852
		c-0.474,0-1.277-1.743-1.106-2.857c0.149-1.104-0.318-3.272-2.22-2.107c-1.91,1.162-3.179-0.333-3.179-0.333
		s0.636-3.414,1.109-3.891c0.478-0.476-1.287-3.803-2.228-3.803c-0.939,0.006,0.297,0.95-1.425,0.95s-6.229-1.743-4.05-2.37
		c2.169-0.638,6.099-0.159,5.475-0.794c-0.624-0.638-1.425-4.121-1.425-4.121l-6.804,1.266c0,0-6.482,4.754-6.165,5.393
		c0.306,0.634-0.021,3.009-0.021,3.009s-5.376-0.95-6.169,0.95c-0.791,1.902-1.257,3.168-0.779,4.279
		c0.474,1.107,0.315,2.375-1.903,2.533c-2.218,0.158-2.533,4.594-2.533,4.594L75.98,116.841l-0.022,0.004l-47.293,10.581h-0.011
		l0.484,0.661l-2.089,56.602l1.693,2.119l40.229-8.617c0,0,0.324,3.325,2.529,2.693c2.221-0.639,2.062-3.65,2.062-3.65l10.93-0.474
		l46.417-12.521l0.414,1.619l25.613-8.013l2.219,10.771h3.277c0.633,5.176,4.961,6.964,7.822,10.252
		c0.971,1.114,2.317,1.92,3.683,2.554c0.603-1.372,1.218-2.779,1.715-3.742c0.75-1.477,0.324-6.93,1.513-7.035
		c1.822-0.157,0.783,5.986,0.474,7.439c-0.237,1.14-0.731,2.793-1.216,4.348c1.683,0.599,3.038,1.02,3.229,1.491
		c0.237,0.589,1.672,4.666,2.82,8.325l0.95,0.489c0.634,0,1.426-1.108,1.503-1.426c0.081-0.311-1.255-3.415-0.393-3.723
		c0.87-0.314,3.245,2.458,3.245,3.565c0,1.113-0.793,3.247-0.632,3.802c0.158,0.56,2.068,0.316,3.325-0.47
		c1.268-0.8,0.485-1.81,0.405-2.609c-0.087-0.802-0.96-1.119,0.862-1.119s2.455,0.068,2.379-0.521
		c-0.081-0.589-3.172-2.963-2.922-3.757c0.216-0.785,0.699-0.635,1.336-1.108c0.634-0.47,0.871-3.248,0.871-3.639
		c0-0.396,1.901-0.162,3.404-0.005c1.508,0.164,2.467,0.952,2.853,0.157c0.397-0.791-1.742-2.454-1.029-3.008
		c0.712-0.55,1.514-1.347,1.9-0.636c0.397,0.714,0.555,2.485,1.188,1.96c0.632-0.533,0.317-6.631,0.474-8.452
		c0.158-1.822,1.101-2.853,1.666-2.063c0.554,0.794,0.079,1.824,1.187,1.901c1.108,0.081,1.267-0.71,1.585-1.819
		c0.316-1.11,1.571-1.967,1.98-0.353c0.396,1.618,0.156,1.936,0.871,2.886c0.712,0.951,1.742,1.187,1.027,2.376
		c-0.711,1.188-1.662,1.348-1.898,2.613c-0.239,1.269,0,1.772,0.634,2.907c0.633,1.134,1.672,3.509,1.515,3.826
		c-0.17,0.316-1.355,0.476-0.406,1.269c0.951,0.791,4.681-1.427,7.365-2.539c2.693-1.112,5.07-4.274,5.229-5.699
		c0.158-1.431,0.158-1.267,1.741-1.272c1.584,0,2.685-0.474,3.645-2.218c0.95-1.736,3.01-2.846,3.644-2.853
		c0.635,0,3.01-0.95,1.742,0.945c-1.266,1.913-1.107,3.493-0.478,2.541c0.637-0.955,3.329-2.055,3.646-3.802
		c0.315-1.742,9.031-3.484,11.249-5.074C250.351,163.74,250.828,160.571,250.828,160.571z"/>
	<path d="M224.007,193.316c-0.743,0.636-0.012,1.057,0,2.22c0,1.165,0.742,2.638,0.742,2.638s-1.586-0.419-2.219-0.841
		c-0.636-0.426-0.109-2.219-1.06-2.115c-0.96,0.105-2.11-0.418-2.11-0.418l-0.947-3.382c0,0-0.951,2.643-1.585,2.432
		c-0.635-0.214,0-1.901,0-3.615c0-1.713-0.952,0.543-3.911,1.644c-2.962,1.09-2.962,2.712-3.911,4.882
		c-0.942,2.178-0.881,5.483-2.425,5.854c-4.862,1.168-1.793,2.957-0.842,3.323c0.949,0.366,3.375,2.167,4.119,1.535
		c0.742-0.635,0-3.272,0.742-3.591c0.731-0.317,7.496-1.271,9.177-1.798c1.693-0.531,5.07-2.428,5.07-2.428s2.119-1.167,3.168-1.694
		c1.06-0.524-0.949-2.848-1.584-4.54C225.797,191.738,224.749,192.684,224.007,193.316z"/>
	<path d="M255.895,190.777c-1.79-2.533-4.325-3.802-4.534-3.201c-0.207,0.599,0.209,1.619,0.844,2.033
		c0.631,0.417,2.204,3.388,2.009,5.604c-0.206,2.218-1.267,1.58-2.754,1.54c-1.482-0.045-2.851-0.906-4.116-0.54
		c0,0-3.062-0.258-4.012,1.327c-0.949,1.585,0.744,2.95,1.792,3.485c1.059,0.526,5.494-0.11,8.03-0.654
		c2.535-0.543,6.236-1.356,6.97-3.622C260.856,194.487,257.697,193.313,255.895,190.777z"/>
</g>
</svg>
