<?xml version="1.0" encoding="iso-8859-1"?>
<!-- Generator: Adobe Illustrator 15.1.0, SVG Export Plug-In . SVG Version: 6.00 Build 0)  -->
<!DOCTYPE svg PUBLIC "-//W3C//DTD SVG 1.1//EN" "http://www.w3.org/Graphics/SVG/1.1/DTD/svg11.dtd">
<svg version="1.1" id="Layer_1" xmlns="http://www.w3.org/2000/svg" xmlns:xlink="http://www.w3.org/1999/xlink" x="0px" y="0px"
	 width="288px" height="288px" viewBox="0 0 288 288" style="enable-background:new 0 0 288 288;" xml:space="preserve">
<g>
	<path d="M254.137,188.35c0-0.644-0.647-1.473-0.647-1.473s-3.594-3.132-3.777-6.821c-0.184-3.685-1.105-7.924-1.935-9.03
		c-0.829-1.105-2.398-4.33-2.582-7.004c-0.183-2.673-3.317-10.689-6.725-11.795c-3.411-1.106-4.978-1.289-5.899-0.922
		c-0.921,0.369-0.921,2.488-1.658,2.488s-4.329,1.291-5.159,2.305c-0.829,1.013-1.568,0.551-1.752,2.304
		c-0.185,1.75-1.753,7.093-2.305,7.188c-0.553,0.09-3.685,5.066-4.514,4.884c-0.83-0.185-5.991-1.383-6.821-2.765
		c-0.83-1.383-0.369-6.08-0.552-7.558c-0.186-1.473,0.828-3.961,1.843-3.961c1.014,0,2.766,0,3.225-0.276
		c0.461-0.277,0.092-1.106,0.737-1.753c0.646-0.646,1.659-0.735,1.936-0.829c0.275-0.092,0-6.358,0-6.358s0.183-0.922,0.828-1.105
		c0.646-0.184,0.921-0.276,1.936,0s-0.183-1.751,1.476-2.487c1.659-0.738,0.276-1.844,0.369-4.518
		c0.09-2.672-0.095-10.596,0.09-10.872c0.188-0.276-1.288-5.624-2.025-6.082c-0.738-0.462-3.962-1.016-3.594-3.134
		c0.367-2.119-0.186-2.857,0.554-2.949c0.736-0.092,1.935,1.475,3.225,1.197c1.289-0.276-0.736-2.579-0.736-2.579
		s-1.938-1.658-2.121-3.227c-0.185-1.565-1.014-2.487-1.014-2.487s-1.935-2.026-2.488-2.213c-0.554-0.184-2.581,0.277-3.318,0
		c-0.735-0.275-2.117-2.302-2.488-2.302c-0.368,0-2.766,0.553-3.408,0c-0.645-0.554-1.107-1.291-2.855-1.658
		c-1.752-0.37-4.932,0-4.932,0s-0.508-4.515-5.207-5.163c-4.7-0.644-3.408,0.739-4.331,0.553c-0.922-0.183-6.081-3.04-7.371-3.317
		c-1.292-0.276-2.121,0-2.121,0v1.106l-5.528-0.184l2.304,1.842c0,0-1.013,2.765-2.211,2.858c-1.2,0.093-1.383,1.476-1.29,2.856
		c0.09,1.382,0.551,4.515,2.302,4.7c1.752,0.184,2.675-0.276,2.582,0.46c-0.094,0.737,0.827,1.843-1.199,1.936
		s-4.236,0.093-5.159,1.105s-1.753,1.199-2.12,1.382c-0.368,0.184-1.291,0.554-1.75,1.659c-0.46,1.106-0.28,2.581-0.094,3.501
		c0.186,0.923,0.738,5.163,0.463,7.281c-0.277,2.119-1.661,7.647-2.397,8.201c-0.737,0.552-1.105,0.186-1.936-0.091
		s-1.843-1.196-1.566-2.674c0.277-1.474,1.289-2.488,1.014-3.409c-0.277-0.922-1.016-1.844-1.383-1.198c0,0,0.367-2.485,0.829-2.581
		c0.462-0.091-0.276-2.212-0.46-2.947c-0.183-0.736,0.736-2.858,0.736-3.226c0-0.369-2.947,3.318-3.132,3.87
		c-0.186,0.554-2.028,4.424-2.028,4.424s-0.367,1.474-0.828,1.842c-0.462,0.37-2.489-0.459-2.489-0.459l-1.934,2.672
		c0,0-1.107-0.923-1.29,0.275c-0.187,1.2-0.923,6.451-0.923,6.451l-4.054,1.843l1.936,4.793c0,0,0.276,5.344-0.277,7.832
		c-0.552,2.488-2.12,7.74-3.04,8.479c-0.923,0.736-2.212,2.302-2.306,2.947c-0.092,0.646,2.029,3.871,2.029,3.871l1.289,5.897
		c0,0-2.396,3.041-2.396,3.962c0,0.922,2.396,8.48,4.423,11.981c2.026,3.499,3.501,5.346,5.438,10.874
		c1.934,5.529,1.934,17.6,1.934,19.812s-1.014,6.358-2.027,8.848c-1.013,2.488-2.948,5.068-3.132,5.806
		c-0.186,0.736-1.568,7.004-2.027,7.833c-0.462,0.83-6.359,6.267-6.359,6.267l56.214-5.899v2.95l36.492-6.082
		c0,0,0.92-5.346,2.949-8.109c2.028-2.765,3.687-6.266,3.687-9.585c0-3.316,3.502-6.08,4.423-8.292
		c0.921-2.213-0.737-5.715,0.738-6.635c1.475-0.923-2.767-2.58,0-4.057c2.763-1.474,7.369,1.659,7.555,0s0.92-2.304,1.383-3.408
		c0.461-1.105-0.276-2.95-0.463-4.058C252.754,193.05,254.137,188.998,254.137,188.35z"/>
	<path d="M142.54,91.775c1.52-0.277,4.008,0,5.39,0c1.383,0,3.317-1.521,3.317-1.521s2.488,0.139,3.87-0.414
		c1.383-0.554,1.659-1.521,2.213-3.179c0.552-1.66,1.382-2.212,3.87-1.797s8.984-0.554,11.749,2.854
		c2.765,3.413,5.115,4.057,6.359,4.057s0.138-1.936,0.69-4.057c0.554-2.117,0.139-2.993,0.969-3.408
		c0.828-0.415,2.764,0.139,3.594,1.383c0.829,1.244,4.285-0.414,5.805-0.276c1.521,0.138,6.497,0,7.88,0s2.488-0.691,3.869,0.578
		c1.383,1.274,1.937-0.302,1.798-1.685s2.903,0.69,4.838,1.521c1.936,0.83,2.766-1.659,2.766-2.626c0-0.969-0.83-2.765-3.043-3.732
		c-2.211-0.968-3.87-0.552-4.699-0.414s-4.837,2.764-5.805,2.625c-0.969-0.137-0.415-1.796-0.923-2.799
		c-0.508-1.002-2.533-2.177-4.883-3.145c-2.351-0.968,0-2.488,0-3.594s-1.798-3.18-2.488-5.253c-0.691-2.072-2.626-0.139-3.595,0
		c-0.967,0.139-3.594,2.212-3.594,2.212l-2.765-0.968l-3.732,2.627l-3.316-1.382c0,0-1.798,0-2.757,0.138s-0.838-0.83-1.114-2.074
		s-0.276-5.252-0.276-5.252s1.521-2.35,1.383-3.18c-0.139-0.829-4.977-0.138-6.774,0.82c-1.797,0.959-7.049,4.294-7.049,4.294
		l-9.123-0.138l-4.839,2.488l-2.166-0.415c-3.549,4.285-7.029,4.838-7.029,4.838s-3.936,4.976-4.35,4.976
		c-0.416,0-2.489-1.934-4.039-1.934c-1.552,0-0.385,1.796-1.491,1.658c-1.106-0.139-3.731-2.627-3.731-2.627
		s-2.627,1.659-3.456,1.659c-0.83,0-4.009,0.414-5.529-0.139c-1.521-0.552-0.969-2.626-0.969-2.626s-2.211-0.553-2.211-1.521
		c0-0.967-2.349-2.626-3.179-2.766c-0.829-0.138,0-1.382,0-1.796c0-0.415-2.765-2.212-3.456-2.074
		c-0.69,0.139-0.276-0.69-0.83-1.105c-0.552-0.414-6.22-0.968-7.464-0.968c-1.243,0-4.146,0.968-4.561,0.554
		c-0.414-0.415,1.796-2.073,1.104-2.359c-0.69-0.285-5.252,4.018-5.252,4.018s-1.244,3.041-1.798,3.041
		c-0.553,0-0.413-2.072-0.138-3.594c0.277-1.521,0.138-3.465,0.138-3.465c1.798-0.976,1.659-3.309,1.659-3.309l1.244-2.211
		c0,0,0.691-0.691,1.659-0.829c0.969-0.139-0.276-1.521,0.553-1.798c0.83-0.276,1.383-0.968,2.211-1.936
		c0.83-0.967,0.139-2.211,1.798-2.211c1.658,0,2.072-2.212,1.936-2.765c-0.138-0.553,0.552-1.382,2.625-1.105
		c2.074,0.275,3.87-0.276,3.318-1.383c-0.553-1.105-4.563-1.797-7.326-1.382c-2.765,0.414-4.976,0.968-4.976,0.968
		s-2.903,2.487-3.732,2.487s-3.18,4.009-3.18,4.424s-4.008,2.626-4.008,2.626l-4.839,4.839c0,0-1.659,2.487-2.212,3.315
		c-0.553,0.83-4.699,1.384-4.699,1.384s-3.042,3.871-4.01,4.562c-0.967,0.69-5.805,1.659-7.188,1.659
		c-1.381,0-4.284,0.829-4.838,0.829s-5.115,5.944-5.115,5.944s-7.188,2.625-7.74,2.764c-0.552,0.139-2.068,2.173-2.068,2.177
		c0.577,0.276,1.184,0.493,1.792,0.519c1.797,0.069,2.488,0.139,3.18,1.313s2.557,4.492,3.318,5.184
		c0.76,0.691,25.363,5.598,26.193,5.668c0.829,0.069,2.903,2.004,4.354,2.488c1.452,0.483,4.01,2.004,7.949,2.004
		s6.082-0.484,7.325,0c1.244,0.484,4.907,0.553,5.876,1.658c0.967,1.106,0.346,2.558,0.483,3.802
		c0.138,1.243,3.801,0.76,5.391,1.658s3.041,1.452,3.041,2.628c0,1.173-0.553,0.689,0,1.934c0.555,1.244-0.415,1.452,0,2.42
		c0.414,0.967,1.18,4.284,0.175,4.769c-1.004,0.483-2.04,2.557-1.142,3.041s4.699-1.313,5.528-0.898
		c0.83,0.414-1.59,5.874-1.036,6.842c0.377,0.661,1.908,1.672,2.846,2.247c3.081-3.821,5.478-9.378,6.139-10.886
		c0.968-2.212,3.732-9.124,4.7-9.676c0.967-0.554,2.487-1.659,1.797-3.041c-0.691-1.384-0.277-2.626,0.276-4.285
		c0.552-1.659,1.244-0.277,1.175,0.829c-0.064,1.105,1.313,4.976,1.313,4.976s1.382-0.83,2.35-1.657
		c0.967-0.83,1.936-2.488,1.936-2.488s-0.83-2.351,0.138-2.903c0.968-0.554,1.383,0.69,2.074,0.967
		c0.689,0.277,2.902-2.35,2.968-2.488c0.068-0.138,0.073,1.521,0,2.488c-0.069,0.968-2.139,4.009-2.968,5.114
		c-0.829,1.106,2.073,2.489,2.073,2.489c-0.83-0.692,1.797-4.285,2.626-4.839c0.83-0.553,3.18-2.35,4.146-2.765
		c0.969-0.414,0-3.04,0.276-3.485C139.36,94.064,141.019,92.052,142.54,91.775z"/>
</g>
</svg>
