<?xml version="1.0" encoding="iso-8859-1"?>
<!-- Generator: Adobe Illustrator 15.1.0, SVG Export Plug-In . SVG Version: 6.00 Build 0)  -->
<!DOCTYPE svg PUBLIC "-//W3C//DTD SVG 1.1//EN" "http://www.w3.org/Graphics/SVG/1.1/DTD/svg11.dtd">
<svg version="1.1" id="Layer_1" xmlns="http://www.w3.org/2000/svg" xmlns:xlink="http://www.w3.org/1999/xlink" x="0px" y="0px"
	 width="288px" height="288px" viewBox="0 0 288 288" style="enable-background:new 0 0 288 288;" xml:space="preserve">
<path d="M232.313,83.234c-2.171,0.763-3.438,0.864-5.065,0c-1.629-0.865-2.172-2.935-6.695-2.935
	c-4.525,0-10.675,0.906-12.486,0.906c-1.811,0-1.085-2.354-1.628-3.44c-0.543-1.085-2.895-1.445-4.343-1.085
	c-1.447,0.365-4.344,5.248-8.144,6.153c-3.798,0.903-7.236,0-8.685,0s0-1.628,0-2.534s-6.694-2.351-7.599-3.799
	c-0.906-1.448,0.724-2.352-4.161-3.077c-4.886-0.721-3.257,5.068-4.343,4.886c-1.085-0.179-2.354-2.532-2.354-4.523
	c0-1.992-3.074-1.992-5.609-3.257c-2.533-1.265-3.256-3.799-5.79-4.885c-2.534-1.086-6.152-0.725-10.131-0.725
	c-3.982,0-4.707,3.801-10.496,4.161c-5.791,0.365-1.629-2.351-2.532-3.619c-0.906-1.267-9.771-0.542-10.677-2.17
	c-0.906-1.629-5.428-0.18-7.962-2.352c-2.534-2.171-1.629-6.695-2.352-8.143c-0.723-1.447-3.8-13.752-3.8-13.752h-7.6v12.915H50.533
	c0,0.28,0,0.661,0,1.222c0,1.289,1.425,2.646,1.347,3.46c-0.082,0.814,0.417,3.528,1.096,5.36c0.678,1.833,0.068,2.171-0.749,3.867
	c-0.816,1.699,0.002,1.969,0.409,2.852c0.408,0.882-0.339,8.278-0.407,10.992c-0.068,2.714,1.357,4.004,1.831,5.633
	c0.476,1.628,1.222,3.935,1.629,6.92c0.407,2.986,2.24,6.583,2.985,8.142c0.747,1.561-0.067,5.022-0.271,6.718
	c-0.204,1.696,1.085,1.492,0.591,3.257c-0.494,1.764,0.833,7.6,0.63,11.399c-0.204,3.799,1.9,3.799,1.696,5.632
	c-0.204,1.832-0.475,2.917-0.814,5.971c-0.339,3.054,0.339,2.036,1.154,7.329c0.814,5.292,3.665,5.564,3.393,6.582
	c-0.273,1.019,0.271,3.937,0.678,6.989c0.407,3.054,0.339,2.782,0,3.8c-0.34,1.019,0,3.801,0,3.801c0,2.713-1.561,7.056-3.597,8.006
	s-3.121,2.646-3.732,3.325c-0.611,0.679,1.289,2.375,2.036,3.257c0.747,0.882,1.424,3.053,1.968,3.867
	c0.542,0.814,3.392,1.357,4.07,1.493c0.679,0.136,2.077,3.054,2.077,3.054v44.228v20.369h-0.458
	c0.177,0.352,0.276,0.542,0.276,0.542l135.939-2.713c0,0-1.085-9.954-1.085-10.948c0-0.995-0.996-1.222-1.539-2.578
	c-0.542-1.358-3.438-3.574-4.296-4.57c-0.86-0.995-2.398-0.949-3.982-1.266c-1.583-0.316-6.016-5.473-7.102-7.508
	c-1.085-2.036-2.622-3.892-5.699-5.022s-4.93-2.578-5.473-3.574c-0.544-0.997-1.133-1.493-2.082-1.493
	c-0.305,0-0.781-0.067-1.321-0.174c-1.158-0.225-2.64-0.632-3.563-1.001c-1.358-0.543-2.896-2.625-3.8-3.528
	c-0.906-0.905-2.624-0.679-2.262-1.811c0.36-1.133,0.633-4.93,0.679-5.972c0.044-1.04-0.679-4.387-1.133-5.109
	c-0.453-0.726,1.269-1.629,1.584-2.398c0.317-0.771-0.857-1.674-0.857-1.945c0-0.271,0-3.257,0.224-4.297
	c0.226-1.041,2.308-3.756,2.263-4.344c-0.044-0.587-1.855-3.891-2.352-4.929c-0.499-1.042-3.121-0.228-3.121-1.087
	c0-0.86-0.498-4.75,0.451-5.383c0.95-0.635,1.765-3.212,2.579-5.293c0.813-2.081,3.936-2.714,4.569-3.529
	c0.632-0.813,1.31-0.043,1.582-0.586c0.271-0.544,0.86-1.269,1.584-1.269c0.723,0,1.493-0.588,1.493-1.267
	c0-0.678,0.677-1.447,0.677-1.447v-21.035c0,0,1.901-0.361,1.901-0.723c0-0.363,1.176-1.267,1.536-1.267
	c0.238,0,0.857-0.624,1.285-1.356c0.229-0.386,0.402-0.802,0.435-1.178c0.093-1.085,7.691-5.791,10.314-8.322
	c2.623-2.536,4.978-5.428,7.69-8.505c2.715-3.078,6.514-8.323,11.129-12.034c4.614-3.707,10.766-7.508,15.56-8.865
	c4.795-1.358,4.342-2.352,5.7-3.077c1.356-0.722,2.533-1.086,3.257-1.717c0.724-0.637,4.614-3.711,4.614-3.711
	C235.116,83.104,232.313,83.234,232.313,83.234z"/>
</svg>
