<?xml version="1.0" encoding="iso-8859-1"?>
<!-- Generator: Adobe Illustrator 15.1.0, SVG Export Plug-In . SVG Version: 6.00 Build 0)  -->
<!DOCTYPE svg PUBLIC "-//W3C//DTD SVG 1.1//EN" "http://www.w3.org/Graphics/SVG/1.1/DTD/svg11.dtd">
<svg version="1.1" id="Layer_1" xmlns="http://www.w3.org/2000/svg" xmlns:xlink="http://www.w3.org/1999/xlink" x="0px" y="0px"
	 width="288px" height="288px" viewBox="0 0 288 288" style="enable-background:new 0 0 288 288;" xml:space="preserve">
<path d="M202.936,236.305l-8.001-63.372l3.68-128.342c-3.36-1.12-4.8-4.801-4.8-4.801l-72.493,5.281c0.961,0.16,1.761,4.642,0,5.921
	c-1.759,1.28-3.68-0.8-4.641,0c-0.959,0.8,0.32,4.642,0,6.562c-0.319,1.92-1.92,0.32-3.359,2.561c-1.44,2.24,2.079,3.841,1.279,4.96
	c-0.799,1.121-0.799,2.562-1.601,4.641c-0.8,2.081-1.921,2.722-4.321,3.361s-2.08,4.801-3.679,7.041
	c-1.602,2.24-2.881-1.6-4.162,1.121c-1.279,2.72,4.001,5.92,2.242,6.239c-1.763,0.32-3.842,1.121-3.667,3.521
	c0.175,2.401,1.425,6.561-2.096,7.682c-3.521,1.12,2.241,2.561,0.16,3.36c-2.08,0.8-2.399,3.2-2.396,4.32
	c0.01,1.121-2.565,1.281-0.966,3.841c1.601,2.561,5.603,1.281,2.881,5.921c-2.72,4.642,3.521,3.521,2.241,4.32
	c-1.279,0.801,0,4.642-1.561,5.762c-1.556,1.12-1.641-1.761-2.76,0c-1.122,1.761,4.16,3.521,2.399,3.681
	c-0.84,0.077-2.364,1.21-3.735,2.371c0.33,0.229,0.855,0.879,0.855,2.749c0,2.722,2.56-1.76,4.16-1.278c1.601,0.479,0,0-1.921,4.96
	c-1.92,4.961,3.361,3.681,3.521,4.961c0.159,1.28-2.721,1.119-3.041,3.201c-0.319,2.08,3.841,0.96,4.641,1.92
	c0.799,0.959-2.079,2.88-2.079,4.001c0,1.119,2.878,3.359,4.321,4.96c1.438,1.6,3.198,4-0.321,5.281
	c-3.521,1.279-5.281,3.199-6.082,4.64c-0.799,1.44,5.282,0.801,3.841,2.562c-1.439,1.76-2.88,3.68-3.36,5.601
	c-0.48,1.92-2.4,5.121-4.641,6.081c-2.24,0.961-2.4,3.681-2.4,5.441s0,4.48-1.601,6.561c-1.601,2.081-3.52,4.801-3.52,6.4
	c0,1.601,2.24,4.162,0.479,5.602c-1.76,1.44-2.24,2.561-2.24,4c0,1.44-0.48,1.762,0.641,4.281c1.12,2.523-1.921,3.721-1.921,3.721
	s68.491-4.161,69.772-3.681c1.279,0.48-0.801,3.361-1.92,5.762c-1.122,2.4-0.32,7.521-0.961,9.281
	c-0.642,1.761,3.04,5.921,5.281,7.042c2.24,1.119,2.879,5.601,2.72,7.36c-0.145,1.599,3.91,3.589,2.746,4.661
	c2.3,0.029,4.469-0.32,5.04-0.393c0.853-0.108,0.96-2.669,1.067-3.309c0.108-0.641,1.922-1.385,3.094-2.059
	c1.173-0.672-1.601-1.354-1.28-2.102c0.32-0.748,1.708-1.065,2.775-0.319c1.066,0.744-0.216,1.813,0.32,2.348
	c0.532,0.531,3.733-1.921,6.4-3.201c2.666-1.279,7.788-0.32,8.427-1.389c0.641-1.067-3.944-0.639-4.48-1.492
	c-0.534-0.853,2.988-0.853,4.48-0.319c1.493,0.531,2.988,2.772,3.841,2.986s4.161-1.387,5.12-1.707
	c0.961-0.319,1.495,0.854,2.028,1.281c0.533,0.426,2.454,0.106,2.881,1.172s1.6-0.853,2.668-1.172
	C204.001,238.331,202.936,236.305,202.936,236.305z"/>
</svg>
