<?xml version="1.0" encoding="iso-8859-1"?>
<!-- Generator: Adobe Illustrator 15.1.0, SVG Export Plug-In . SVG Version: 6.00 Build 0)  -->
<!DOCTYPE svg PUBLIC "-//W3C//DTD SVG 1.1//EN" "http://www.w3.org/Graphics/SVG/1.1/DTD/svg11.dtd">
<svg version="1.1" id="Layer_1" xmlns="http://www.w3.org/2000/svg" xmlns:xlink="http://www.w3.org/1999/xlink" x="0px" y="0px"
	 width="288px" height="288px" viewBox="0 0 288 288" style="enable-background:new 0 0 288 288;" xml:space="preserve">
<path d="M253.988,204.068c0,0,2.127-5.527,1.066-7.018c-1.064-1.484-1.705-2.552-4.682-2.552c-2.975,0-1.914,0.426-3.828-1.488
	s-3.613-6.169-5.527-8.082c-1.914-1.915,1.276-4.04,2.762-4.252c1.491-0.214-4.676-6.808-4.676-6.808v-7.867
	c0,0-4.042-0.639-4.466-1.275c-0.427-0.638-4.042-5.104-5.317-4.682c-1.277,0.429-1.491,0-3.829,0s-1.914-3.613-1.914-3.613
	s-5.528-2.767-7.869-4.681c-2.339-1.914-1.278-3.19-4.468-4.89c-3.189-1.704-1.485-6.168-0.209-7.018
	c1.275-0.854,2.976-8.934,4.466-9.57c1.489-0.639,0-2.767-0.638-4.254c-0.638-1.489,2.124-4.893,2.762-5.317
	c0.637-0.428-4.676-5.53-6.166-4.892c-1.491,0.638-3.404-1.064-5.742-1.702c-2.339-0.639-1.062,5.104-4.252,4.68
	c-3.189-0.429-4.042-5.956-4.681-8.082s0-5.315-2.338-8.932c-2.339-3.616-9.146-6.169-9.999-6.382
	c-0.85-0.21-0.848-2.977-2.338-3.615c-1.49-0.638-7.656-7.868-7.656-7.868v-2.552l-2.976-2.979v-2.763c0,0-2.552-6.382-3.404-10.848
	s3.404-9.952,3.404-9.952l-0.005-0.006c-3.653-0.099-7.556-5.841-9.565-6.843c-2.128-1.063-2.128-1.063-2.128-1.063
	s-56.03,5.582-127.933,3.621c0.111,0.472,0.319,1.007,0.914,2.069c1.437,2.552,0.797,4.466,3.51,8.294
	c2.712,3.828,2.712,2.871,4.146,4.466c1.437,1.595,2.075,3.509,3.031,5.104c0.957,1.597-2.712,2.233,2.552,4.945
	c0,0,5.74,5.315,7.445,5.315c1.699,0,1.699,0,1.699,0s1.704-2.552,2.551-1.914c0.853,0.639,0.216,2.764,2.129,3.617
	c1.915,0.85,2.338,4.251,0,4.466c-2.34,0.211-3.828,0.848-4.68,2.553c-0.851,1.699,0.215,3.828-0.639,4.038
	c-0.849,0.213-3.403,1.704,0.214,4.041c3.615,2.341,5.528,4.252,5.316,5.318c-0.212,1.062-0.212,2.553,2.34,3.402
	c2.553,0.85-0.853,2.978,1.914,3.189c2.765,0.212,4.041,0,5.317,1.914l1.214,89.137l0.05,3.748
	c0.293-0.01,1.529,21.024,1.529,21.024l0.002,0.007l148.627-6.939c0,0,1.914,2.337,1.914,3.188c0,0.848,2.977,1.914,2.977,1.914
	l-0.211,4.253c0,0-2.552,2.767-2.766,4.254c-0.215,1.488-2.553,1.702-4.043,2.34c-1.488,0.639-4.037,7.442-4.037,7.442l23.816-2.552
	c0,0,0.428-1.489,0.428-4.252c0-2.767,1.7-0.215,2.871-1.703c1.169-1.487-4.361-2.978-4.361-2.978s4.043-0.425,5.318-1.275
	c1.275-0.848-2.979-4.04-2.979-4.04l2.979-2.554l-0.957-4.466c0,0,2.232,2.342,3.296,2.127c1.061-0.209,3.827-7.441,3.827-7.441
	s1.7,2.551,3.613,1.913c1.915-0.639,1.277-5.742,1.491-7.231c0.214-1.486,2.338-1.701,2.338-1.701L253.988,204.068z"/>
</svg>
