<?xml version="1.0" encoding="iso-8859-1"?>
<!-- Generator: Adobe Illustrator 15.1.0, SVG Export Plug-In . SVG Version: 6.00 Build 0)  -->
<!DOCTYPE svg PUBLIC "-//W3C//DTD SVG 1.1//EN" "http://www.w3.org/Graphics/SVG/1.1/DTD/svg11.dtd">
<svg version="1.1" id="Layer_1" xmlns="http://www.w3.org/2000/svg" xmlns:xlink="http://www.w3.org/1999/xlink" x="0px" y="0px"
	 width="288px" height="288px" viewBox="0 0 288 288" style="enable-background:new 0 0 288 288;" xml:space="preserve">
<path d="M38.463,106.231c0.265,1.028,0.034,2.155,0.497,2.355c0.464,0.199,1.692,1.427,1.294,2.455s-1.393,2.952-1.095,3.549
	c0.299,0.597,1.095,1.79,0.83,2.156s-0.896,1.195,0.1,2.156c0.995,0.962,2.057,3.25,2.985,3.715
	c0.928,0.465,2.587,4.079,3.549,4.975s1.228,3.186,1.493,3.75c0.265,0.563,2.124,1.624,2.09,1.921
	c-0.034,0.299-0.631,2.256-0.233,2.687c0.398,0.433,1.294,2.888,2.588,3.054c1.293,0.165,1.958,0.762,1.924,1.226
	c-0.034,0.465,0.531,1.924,2.023,1.924c1.493,0,3.052-0.463,2.985,0.234c-0.066,0.696-3.185,7.03-3.749,8.489
	c-0.564,1.462-0.331,3.318-0.729,3.517c-0.398,0.199-1.394-0.1-1.261,0.663c0.132,0.765,0.497,1.493,0.232,1.924
	c-0.266,0.433-0.863,1.493-0.332,1.857c0.531,0.366,1.161,4.114,0.397,4.08c-0.763-0.032-1.659-0.464-2.189,0.232
	c-0.53,0.697-0.763,2.555-0.398,3.915c0.366,1.359-1.293,1.094-1.226,2.022c0.065,0.929,1.558,1.359,1.823,2.089
	c0.267,0.73,0.829,1.925,1.892,1.891c1.062-0.031,1.161-1.491,2.952-1.523c1.792-0.034,3.052-3.219,4.08-3.119
	s1.161,2.124,1.459,2.488c0.299,0.363,1.062,0.729,0.896,1.458c-0.166,0.73-0.101,1.361,0.365,1.66
	c0.465,0.299-0.199,4.345,0.332,6.036c0.531,1.691,1.127,4.545,1.658,4.811c0.532,0.265,1.294,0.43,1.294,0.729
	c0,0.298,0.663,3.915,0,4.113c-0.663,0.199-0.597,0.664-0.398,1.526c0.199,0.862,1.028,2.354,1.892,2.918
	c0.862,0.565,1.558-0.398,2.189,0c0.63,0.397,2.057,4.546,1.923,5.208c-0.132,0.662,0.1,4.18,0.199,4.776
	c0.1,0.598,2.588,2.653,3.218,2.688s0.895-2.951,2.918-2.985s5.374,2.354,5.904,2.354c0.531,0,0.134-2.12,1.194-2.12
	c1.062,0,0.663-1.461,1.725-0.398c1.062,1.061,1.725,1.856,4.909,1.856c3.184,0,2.653,0,3.449,0.662
	c0.796,0.666,4.512,0.73,6.104,0.632c1.592-0.1-0.929-1.161,0-3.02c0.929-1.856,2.389-2.255,2.92-1.723
	c0.529,0.528,4.245,7.694,4.245,7.694l-0.379,2.399l2.635-16.729c58.38,10.879,130.027,15.656,130.027,15.656l9.022-104.817
	c-92.611-3.98-209.105-30.782-209.105-30.782l-5.307,25.873C36.273,101.388,38.198,105.202,38.463,106.231z"/>
</svg>
