<?xml version="1.0" encoding="iso-8859-1"?>
<!-- Generator: Adobe Illustrator 15.1.0, SVG Export Plug-In . SVG Version: 6.00 Build 0)  -->
<!DOCTYPE svg PUBLIC "-//W3C//DTD SVG 1.1//EN" "http://www.w3.org/Graphics/SVG/1.1/DTD/svg11.dtd">
<svg version="1.1" id="Layer_1" xmlns="http://www.w3.org/2000/svg" xmlns:xlink="http://www.w3.org/1999/xlink" x="0px" y="0px"
	 width="288px" height="288px" viewBox="0 0 288 288" style="enable-background:new 0 0 288 288;" xml:space="preserve">
<path d="M248.987,193.003c-0.74-1.23-1.233-2.71-2.343-3.943c-1.108-1.231-1.108-0.492-3.203-3.449
	c-2.094-2.957-1.601-4.436-2.71-6.407c-1.108-1.971-0.493-1.602-1.232-3.819s-1.972-1.602-2.71-3.326
	c-0.74-1.726,0.738-3.327,1.231-5.176c0.493-1.848-1.479-4.188-0.862-4.928s-0.123-3.327-0.616-4.313s-0.739-3.943-0.616-5.914
	c0.123-1.972,0-2.834-1.478-3.943c-1.479-1.108-1.356-1.601-2.661-2.463c-1.307-0.863-0.296-3.696-0.051-5.053
	c0.247-1.355-0.493-4.682-1.108-5.791c-0.616-1.108,0.863-2.587-0.616-3.203c-1.479-0.616-2.711-2.341-2.711-3.696
	c0-1.356-1.108-1.603-2.341-2.71c-1.232-1.109,0.862-1.232,0.862-2.219s-1.355-2.71-1.848-3.45c-0.493-0.739,0.862-2.834,0-4.189
	c-0.343-0.536-0.959-0.916-1.631-1.19c-1.017-0.415-2.162-0.582-2.683-0.657c-0.861-0.124-2.093-1.602-2.093-1.602s0,0-0.617-0.739
	c-0.616-0.739,0.617-1.602,0-2.342c-0.616-0.739-2.111,0-2.111,0c-0.142-1.231-4.172-1.848-4.172-1.848
	c0.122-0.862-0.739-1.108-3.697-1.479c-2.957-0.369-1.478-2.957-3.941-3.45c-2.465-0.492-11.582,0-13.43,0
	c-1.849,0-1.479,2.096-3.082,2.711c-1.601,0.616-2.341-0.492-3.326-1.479c-0.985-0.985-6.775-3.203-7.64-3.696
	c-0.862-0.493-1.108-2.464-1.108-2.464c-43.188,0.21-113.244-5.819-132.399-7.551l-0.485,5.318L36,155.518
	c22.692,2.168,37.457,3.238,49.479,3.871l-2.201,32.188c21.374,1.101,139.324,7.036,167.68,5.246
	C246.893,194.729,249.726,194.235,248.987,193.003z"/>
</svg>
