<?xml version="1.0" encoding="iso-8859-1"?>
<!-- Generator: Adobe Illustrator 15.1.0, SVG Export Plug-In . SVG Version: 6.00 Build 0)  -->
<!DOCTYPE svg PUBLIC "-//W3C//DTD SVG 1.1//EN" "http://www.w3.org/Graphics/SVG/1.1/DTD/svg11.dtd">
<svg version="1.1" id="Layer_1" xmlns="http://www.w3.org/2000/svg" xmlns:xlink="http://www.w3.org/1999/xlink" x="0px" y="0px"
	 width="288px" height="288px" viewBox="0 0 288 288" style="enable-background:new 0 0 288 288;" xml:space="preserve">
<path d="M153.752,54.969c-1.237-0.268-2.521-0.549-3.828-0.837c-12.949-2.851-29.48-6.718-53.183-12.662l-19.679,77.186
	l86.132,127.932c0.131-0.306,0.301-0.549,0.542-0.657c1.095-0.498,2.189-3.882,2.289-5.275c0.1-1.392-1.394-5.571-1.294-6.567
	c0.1-0.995,1.194-1.393,1.194-2.587s-0.199-5.771,0.1-6.567s1.691-0.1,0.299-2.886c-1.394-2.787,1.094-4.18,2.288-4.18
	s2.487,0.199,3.185,0.597c0.696,0.398,1.691,0,2.388,0.398c0.697,0.397,1.691,1.791,1.691,2.886s1.991,1.393,2.488,1.194
	c0.497-0.199,1.891-3.683,3.682-3.981L210.805,66.38C210.805,66.38,167.968,58.051,153.752,54.969z"/>
</svg>
