<?xml version="1.0" encoding="iso-8859-1"?>
<!-- Generator: Adobe Illustrator 15.1.0, SVG Export Plug-In . SVG Version: 6.00 Build 0)  -->
<!DOCTYPE svg PUBLIC "-//W3C//DTD SVG 1.1//EN" "http://www.w3.org/Graphics/SVG/1.1/DTD/svg11.dtd">
<svg version="1.1" id="Layer_1" xmlns="http://www.w3.org/2000/svg" xmlns:xlink="http://www.w3.org/1999/xlink" x="0px" y="0px"
	 width="288px" height="288px" viewBox="0 0 288 288" style="enable-background:new 0 0 288 288;" xml:space="preserve">
<g>
	<path d="M273.636,199.721c-0.198-0.04-1.961-0.531-2.245,0c-0.282,0.53,1.107,1.103,0.408,1.349c-0.695,0.244-1.187,0-1.712,0.285
		c-0.535,0.287-1.634,2.697-2.457,2.941c-0.815,0.248-2.736-0.608-2.977-0.896c-0.249-0.285-2.007,1.308-2.457,1.471
		c-0.443,0.163-0.938,0.695-0.933,0.246c-0.006-0.448-1.023-0.818-1.027-1.35c0-0.53-0.322-1.023-1.226-0.691
		c-0.899,0.324-1.466,1.588-0.818,1.798c0.66,0.201,1.601-0.33,1.595,0.61c0,0.939-0.527,0.694-1.023,1.267
		c-0.488,0.571-1.429,2.9-1.96,2.699c-0.526-0.207,0.088,1.468-0.362,1.634c-0.455,0.161-4.82,1.961-4.984,1.39
		c-0.164-0.572,0.408-1.553,0.854-1.921c0.448-0.368,0.612-1.389,1.23-1.596c0.611-0.204,0.98-0.572,1.302-1.101
		c0.327-0.531-0.163-0.779,0.409-1.43c0.577-0.654,2.206-1.065,1.72-1.352c-0.495-0.283-0.938,0.164-0.658-0.897
		c0.286-1.061,0.898-2.082,1.925-2.735c1.017-0.656,3.183-1.678,2.529-2.168c-0.655-0.49-2.534,0.162-3.31,0.656
		c-0.776,0.49-2.329,3.432-2.942,4.494c-0.612,1.062-2.568,4.208-3.835,5.025c-1.266,0.816-6.537,2.777-8.866,3.148
		c-2.333,0.365-4.861,0.613-5.025,1.103c-0.168,0.491-0.209,1.185-0.735,1.183c-0.53,0.002-1.021-1.469-1.721-1.06
		c-0.689,0.407-0.898,1.552-0.321,1.881c0.566,0.328-0.041,0.691-0.776,1.02s-4.698,0.901-5.313,0.858
		c-0.611-0.038-1.143-1.306-1.512-0.939c-0.366,0.368-0.693,1.351-0.203,1.719c0.49,0.367-0.327,1.43-0.736,1.43
		c-0.407,0-0.572-2.577-1.313-2.087c-0.729,0.492-0.525,1.964-0.648,2.536c-0.122,0.569-1.634-0.082-1.634-0.449
		s-1.634,0.653-2.452,1.307c-0.817,0.654,0.409,2.616-0.162,2.697c-0.573,0.081-0.573-2.37-1.472-1.39s-1.961,0.899-1.308,1.39
		c0.654,0.49,2.697,1.716,1.797,2.043c-0.898,0.325-1.878-1.063-2.118-0.246c-0.25,0.817-0.505,1.145-1.317,1.145
		s-2.364,0.572-2.769,1.307c-0.413,0.736-1.229,2.699-1.307,3.841c0,0-1.354,2.087-1.349,2.985v0.896c0,0-0.782-0.529-1.885,0.002
		c-1.099,0.531-1.874,0.695-1.879,1.268c0.005,0.571-0.976,4.286-0.982,4.904c0.007,0.61,1.268-0.204,2.739-1.189
		c1.476-0.98,2.737-2.982,2.737-2.982s1.108,0.204,2.329-0.736c1.23-0.939,1.102-1.062,1.347-2.165
		c0.247-1.103,1.309-2.164,2.29-2.043c0.98,0.123,1.842,1.594,2.577,1.676c0.73,0.081,1.962-0.245,2.534-0.899
		c0.565-0.653,2.241-1.797,4.161-2.291c1.922-0.486,7.846-3.757,8.3-4.453c0.445-0.694,0.771-1.185,1.425-1.185
		c0.653,0,2.411,0.205,2.411-0.571c0-0.777,0.49-0.493,1.675-0.901c1.184-0.409,1.148-0.858,2.614-1.267
		c1.471-0.409,2.084-0.613,2.166-1.063c0.081-0.449-0.409-1.103,0.326-0.899c0.735,0.205,1.594,0.531,2.534-0.285
		c0.933-0.816,1.961-1.635,3.105-2.328c1.143-0.698,6.209-3.15,6.249-3.599c0.041-0.447-0.122-1.183,0-1.673
		c0.124-0.489,1.595-0.533,1.631-0.247c0.046,0.288-0.036,0.653,0.856,0.122c0.904-0.533,7.441-6.373,8.988-7.316
		c1.559-0.939,4.658-3.31,5.194-4.207C273.391,200.538,273.846,199.761,273.636,199.721z"/>
	<path d="M208.803,231.398c-0.004,0.058-0.01,0.093-0.015,0.148l0.424,0.096c0,0,2.042-5.069,3.269-5.639
		c1.226-0.574,2.768,0.079,2.364-0.736c-0.404-0.815-1.058-0.981-0.729-1.553c0.325-0.573,0.447,0.571,0.796-0.409
		c0.347-0.98,1.654-2.169,1.572-2.679c-0.081-0.509,0-0.917,0.98-1.571c0.98-0.652,0.98-2.124,0.98-2.124l-0.51-0.47l-3.738-3.452
		l6.536-6.129l-2.941-3.677l-2.134-12.563l-3.427-20.173l-0.874-1.093l1.078-29.197l-0.251-0.341l-0.014-0.022l-1.83-2.471
		l-5.807-30.397c0,0-3.259-2.939-3.141-3.427c0.117-0.493-1.685,0.408-2.007,0.815c-0.327,0.407-0.246,2.372-0.818,1.144
		c-0.571-1.223,0-7.27-0.005-8.006c0-0.734-1.716-1.8-1.71-2.451c-0.006-0.653,0-2.208-0.898-3.433
		c-0.906-1.225-1.063-4.251-1.558-4.738c-0.485-0.49-1.88-0.818-1.554-2.043c0.326-1.227,0.491-5.965,0.572-6.211
		c0.082-0.247,1.472-2.453,1.389-3.023c-0.081-0.571-2.63-3.677-2.006-4.331c0.617-0.652,0.781-2.613,0.781-3.104
		c0-0.49-4.908-6.128-4.908-6.536c0.006-0.41,0.572-3.352,0.572-3.352s-1.227-2.043-1.227-2.614s1.227-1.716,1.227-2.451
		s-1.716-0.899-2.207-1.635c-0.49-0.735-0.409-3.759-0.49-5.229c-0.082-1.471-0.571-1.797-0.571-1.797L148.8,53.682
		c-1.395,0.409-4.09,0.738-5.561,0.902c-1.472,0.163-2.043,1.715-4.332,2.777c-2.289,1.063-8.738,7.518-8.738,7.518
		s-11.194,14.546-11.604,16.019c-0.407,1.471-0.653,2.694-1.47,5.148c-0.817,2.452-2.86,4.986-2.86,4.986s-3.923,2.449-4.652,2.779
		c-0.741,0.326-1.797,1.552-1.722,2.206c0.088,0.654,1.216,2.042,0,2.37c-1.226,0.326-3.999,5.72-3.999,5.72
		s0.737,1.307,1.717,1.553c0.98,0.244,0.163,1.878,1.634,2.451c1.472,0.571,1.961-1.39,1.961-1.39s-2.451-1.552-0.98-2.37
		c1.472-0.817,2.452-0.327,3.023,0.328c0.571,0.652-1.143,2.777-0.404,3.022c0.731,0.243,3.265-2.532,3.265-1.392
		c0,1.145-0.409,1.879-1.062,3.762c-0.654,1.879-1.472,3.102-2.37,2.775c-0.899-0.327-1.961-0.324-2.365,0.738
		c-0.413,1.063-0.413,1.634,1.303,2.533c1.721,0.896,3.269,3.922,3.519,4.572c0.239,0.654,0.981,3.432,0.246,4.579
		c-0.736,1.142-1.717,3.512-3.025,3.35c-1.306-0.162-2.367-0.489-3.104,0c-0.735,0.491-5.883,6.375-6.128,6.701
		c-0.245,0.327-4.983,5.478-5.878,5.883c-0.904,0.409-1.804,1.065-2.456,1.475c-0.649,0.408-1.058,0.486-2.943,0.486
		c-1.879,0.006-6.699,0.985-7.925,1.475c-1.227,0.492-8.253,3.271-8.253,3.271l-5.226-2.615c0,0-10.872,0.084-12.67,0.251
		c-1.798,0.162-2.941,0.979-5.715,1.062c-2.784,0.081-5.964,0.899-7.113,1.308c-1.146,0.409-15.604,8.095-15.604,8.095
		s0.899,2.122,0.899,3.023c0,0.896,0.081,3.677,0.081,3.677l1.063,1.877l1.634,2.781c0,0,2.37-0.248,3.434,1.305
		c1.063,1.55,3.92,3.347,2.941,5.475c-0.981,2.121-4.734,5.066-4.82,5.475c-0.083,0.408-0.486,2.536-0.486,2.536
		s-0.736,0.898-1.145,1.549c-0.407,0.654-0.163,2.204-0.571,2.207c-0.415,0.002-6.205,3.514-6.374,4.252
		c-0.164,0.734-2.287,4.412-3.35,5.556c-1.063,1.144-7.707,6.486-7.707,6.486l2.614,11.548l138.581-27.481
		c0,0,3.707,3.485,4.36,5.229c0.659,1.741,3.269-1.744,4.79,0.435c1.527,2.18,1.527,2.18,1.527,2.18s2.396,4.356,2.401,5.011
		c0,0.652,0,3.702,0,3.702c1.092,0.654,3.707,3.051,3.707,3.051s1.521-0.87,2.615,0.218c1.088,1.088,5.899,0.218,5.899,0.218
		s0.774,1.308,1.122,2.401c4.495,3.39,29.177,10.093,29.177,10.093C210.191,220.607,209.048,229.106,208.803,231.398z"/>
</g>
</svg>
