<?xml version="1.0" encoding="iso-8859-1"?>
<!-- Generator: Adobe Illustrator 15.1.0, SVG Export Plug-In . SVG Version: 6.00 Build 0)  -->
<!DOCTYPE svg PUBLIC "-//W3C//DTD SVG 1.1//EN" "http://www.w3.org/Graphics/SVG/1.1/DTD/svg11.dtd">
<svg version="1.1" id="Layer_1" xmlns="http://www.w3.org/2000/svg" xmlns:xlink="http://www.w3.org/1999/xlink" x="0px" y="0px"
	 width="288px" height="288px" viewBox="0 0 288 288" style="enable-background:new 0 0 288 288;" xml:space="preserve">
<path d="M190.944,116.311c-0.634-5.446-4.587-13.694-5.446-13.694c-0.858,0.006,2.234,6.702,0.174,6.014
	c-2.062-0.681-7.391-3.087-8.949-2.921c-1.533,0.177-4.97,4.13-6.862,2.921c-1.89-1.198-4.982-1.88-4.982-3.597
	c-0.013-1.724,1.88-3.61,2.748-5.855c0.858-2.232,1.377-4.285,1.377-6.529c-0.013-2.229-0.172-2.571,1.201-4.296
	c1.364-1.713,2.922-5.66,3.427-6.357c0.514-0.689-1.194,3.951,1.559,3.957c2.673-0.006,2.735-1.852,3.222-6.387
	c0.01-0.117,0.021-0.192,0.032-0.314c0.514-4.819,2.921-22.692,1.888-26.471c0,0-51.907-14.097-61.359-21.225
	c0.215,0.668,0.363,1.306,0.363,1.815c-0.01,2.299-0.395,2.299-2.724,4.587c-2.336,2.293-1.42,0.924-3.244,7.337
	c-1.827,6.411-1.376,10.997-3.665,11.911c-2.297,0.917-0.922-4.125-2.297,0.917c-0.495,1.809-0.861,3.603-1.224,5.183
	c-0.646,2.813-1.259,4.896-2.43,4.896c-1.837,0.008-5.97,6.418-5.97,6.418l9.634,7.333c0,0-2.289,0.917-3.664,3.668
	c-1.373,2.745,1.838,5.953-0.911,5.953c-2.751,0.006-3.213,0.006-3.213,3.214c0,3.209,0.925,15.583,3.213,15.577
	c2.298,0,4.575-3.206,7.322,0c2.751,3.207,3.761,8.704,6.469,10.991c2.703,2.301,2.716,0.925,4.541,2.301
	c1.827,1.373,3.663,5.036,5.501,5.498c1.838,0.451,6.874,5.038,6.874,5.038s5.497,2.287,6.422,5.038c0.913,2.748,2.75,1.834,0,5.047
	c-2.748,3.199-3.674,7.323-7.336,7.323c-3.661,0-0.913-3.211-4.586,2.751c-3.663,5.962-3.663,7.337-6.416,8.253
	c-2.745,0.921-2.733,4.131-0.459,6.418c2.31,2.288,0.011,3.201,0.011,3.201l-18.441,9.971l-2.747,9.97l-1.107,1.767v0.01
	c0,0,0.269,1.438,0,3.952c-0.27,2.52-3.018,2.524-2.104,4.125s2.758,2.523,4.124,4.125c1.376,1.605-0.453,7.792,1.61,9.623
	c2.073,1.826,2.976-0.456,4.361,1.6c1.364,2.063,9.848,10.086,12.137,10.086c2.287-0.004,9.848,1.826,10.548,2.287
	c0.676,0.464,0.913,5.726,2.284,5.726c1.379,0,3.439-2.976,5.728-3.21c2.287-0.229,2.063-1.376,5.499,0.004
	c3.446,1.37,7.785-1.605,8.71,0.457c0.911,2.062,1.836,8.705,0,10.543c-1.823,1.829-2.052,11.678-0.451,12.141
	c1.601,0.457,3.899-2.298,4.813-3.437c0.909-1.149,1.6-5.274,4.111-7.11c2.525-1.833,3.972-3.428,2.676-5.038
	c-1.29-1.606-2.664-2.975-1.302-3.436c1.387-0.463,1.835-6.187,2.977-8.713c1.148-2.519,3.897-7.56,5.274-8.021
	c1.375-0.45-4.352-1.37-3.663-2.975c0.687-1.601,5.489-0.915,5.498-1.601c0-0.688,1.377-4.586,2.053-4.811
	c0.696-0.239-0.687,4.122,1.838,3.435c2.523-0.687,6.194-3.892,5.962-5.497c-0.227-1.612-6.887-2.063-6.65-3.899
	s-0.227-4.582,1.609-4.124c1.826,0.459,5.048-0.458,5.048-0.458s-2.964,3.892,0,3.892c2.966,0,3.878-1.829,4.564-5.041
	c0.69-3.205-4.112-1.368-5.948-3.431c-1.838-2.063-3.899-2.752-1.388-3.668c2.525-0.917,5.05,2.286,6.198,0.912
	c1.138-1.368-4.358-3.437-2.987-5.729c1.377-2.286,4.02-3.207,4.189-3.663c0.16-0.461,2.913-6.642,3.6-9.167
	c0.687-2.518-2.062-3.661-1.837-6.868c0.234-3.212,1.611-6.648,1.955-9.397c0.332-2.751-1.955-5.5-1.721-9.166
	c0.225-3.664,0.519-5.27,1.751-11.231C191.181,131.207,191.393,120.176,190.944,116.311z"/>
</svg>
