<?xml version="1.0" encoding="iso-8859-1"?>
<!-- Generator: Adobe Illustrator 15.1.0, SVG Export Plug-In . SVG Version: 6.00 Build 0)  -->
<!DOCTYPE svg PUBLIC "-//W3C//DTD SVG 1.1//EN" "http://www.w3.org/Graphics/SVG/1.1/DTD/svg11.dtd">
<svg version="1.1" id="Layer_1" xmlns="http://www.w3.org/2000/svg" xmlns:xlink="http://www.w3.org/1999/xlink" x="0px" y="0px"
	 width="288px" height="288px" viewBox="0 0 288 288" style="enable-background:new 0 0 288 288;" xml:space="preserve">
<path d="M196.191,203.421c-0.684-0.622-2.862,2.549-3.008,0.83c-0.152-1.844-3.543-3.984-3.897-4.099
	c-0.615-0.205-1.832,1.843-2.034,3.479c-0.213,1.641-1.643,5.328-2.459,3.894c-0.825-1.43-0.613-3.894,0-4.915
	c0.615-1.023-1.697-3.274-0.545-3.486c1.16-0.201,3.404-3.072,3.404-3.072l-1.226-6.347c0,0-4.716-1.431-5.742-2.252
	c-1.02-0.82-7.174-7.576-7.174-7.576l-1.632-12.082l-44.271-135.8l-3.276,3.893l-8.812-1.64l-6.136,5.942l-2.055,0.207
	c0,0,4.099,4.306,3.696,6.35c-0.413,2.051-0.825,3.89-0.825,3.89s0.825,5.737-0.404,7.374c-0.684,0.901-1.344,1.2-1.641,1.888
	c-0.249,0.561-0.249,1.371,0.21,3.027c1.019,3.687,2.66,4.309,2.648,5.945c0.012,1.636-0.602,6.759-1.218,6.959
	c-0.616,0.207,0.211,5.122,0.211,5.122l-2.669,2.46c0,0,6.567,6.092,8.219,8.765c0.212,0.347,0.367,0.647,0.386,0.861
	c0.104,0.911-0.299,2.072-0.721,3.015l-0.231,2.62c0.709,1.033,1.632,2.632,0.959,3.175c-0.336,0.268-0.823,0.66-1.333,1.088
	c-1.037,0.884-2.149,1.974-2.149,2.804c0,1.229,1.017,4.503-0.204,4.303c-1.229-0.211-4.502,0.615-4.916,2.043
	c-0.412,1.438,0.201,4.508-1.844,5.121c-2.053,0.618-10.245,2.466-10.857,5.739c-0.614,3.28,0.826,7.989,1.027,10.859
	c0.211,2.859,3.687,5.732,3.687,6.346c0,0.615-3.073,9.425-3.073,9.425s3.073,3.279,2.256,5.325
	c-0.814,2.044-3.983,2.457-4.04,5.128c-0.051,2.657,1.793,7.983,0.977,9.216c-0.823,1.221-3.484,4.502-3.693,5.934
	c-0.205,1.436,0.009,10.447,0.009,10.447s-2.468,0.614-2.058,3.894c0.424,3.272,1.028,17.004,3.076,17.004
	c2.063,0,0.009,14.133,1.036,15.358c1.017,1.228,1.43,8.601,1.43,8.601s3.696,0.828,1.642,3.074
	c-2.044,2.256-4.099,5.322-3.485,6.351c0.615,1.022,0.615,6.554,0.825,7.37c0.204,0.819,7.096,7.95,7.096,7.95h0.021l69.235-15.488
	c0,0,0.306-4.302,2.457-4.455s2.306-1.382,1.846-2.456c-0.464-1.078-0.011-2.306,0.757-4.149s5.981-0.923,5.981-0.923
	s0.317-2.303,0.021-2.917c-0.308-0.62,5.979-5.229,5.979-5.229l6.599-1.228c0,0,1.806-4.917,0.989-6.756
	C194.416,209.782,197.621,204.72,196.191,203.421z"/>
</svg>
