<?xml version="1.0" encoding="iso-8859-1"?>
<!-- Generator: Adobe Illustrator 15.1.0, SVG Export Plug-In . SVG Version: 6.00 Build 0)  -->
<!DOCTYPE svg PUBLIC "-//W3C//DTD SVG 1.1//EN" "http://www.w3.org/Graphics/SVG/1.1/DTD/svg11.dtd">
<svg version="1.1" id="Layer_1" xmlns="http://www.w3.org/2000/svg" xmlns:xlink="http://www.w3.org/1999/xlink" x="0px" y="0px"
	 width="288px" height="288px" viewBox="0 0 288 288" style="enable-background:new 0 0 288 288;" xml:space="preserve">
<path d="M129.938,207.828c66.148,3,120.508,4.135,120.508,4.135s-0.391-3.199,0-4.367c0.389-1.172,0.469-0.859,0-4.369
	s-1.094-6.863-0.781-8.033s-2.965-1.482-3.898-7.566c-0.938-6.084-1.717-4.914-1.328-8.424c0.391-3.51,0.703-4.758,0.938-6.863
	s-2.186-2.105-1.949-6.475c0.232-4.367-1.293-11.076-0.725-13.104s-0.916-1.795-0.68-3.744c0.232-1.949,1.168-5.927,0.311-7.721
	c-0.857-1.795-2.965-5.929-3.432-9.361c-0.469-3.432-1.326-6.083-1.873-7.955c-0.545-1.872-2.182-3.354-2.105-6.475
	c0.078-3.119,0.938-11.621,0.469-12.635s-1.41-1.326-0.471-3.276c0.939-1.949,1.641-2.341,0.861-4.445
	c-0.781-2.106-1.354-5.226-1.264-6.161c0.094-0.938-1.545-2.498-1.545-3.98c0-1.48,0-2.027,0-2.027S88.294,82.765,45.626,75.878
	L34.811,201.525C47.381,202.717,80.559,205.588,129.938,207.828z"/>
</svg>
