<?xml version="1.0" encoding="iso-8859-1"?>
<!-- Generator: Adobe Illustrator 15.1.0, SVG Export Plug-In . SVG Version: 6.00 Build 0)  -->
<!DOCTYPE svg PUBLIC "-//W3C//DTD SVG 1.1//EN" "http://www.w3.org/Graphics/SVG/1.1/DTD/svg11.dtd">
<svg version="1.1" id="Layer_1" xmlns="http://www.w3.org/2000/svg" xmlns:xlink="http://www.w3.org/1999/xlink" x="0px" y="0px"
	 width="288px" height="288px" viewBox="0 0 288 288" style="enable-background:new 0 0 288 288;" xml:space="preserve">
<path d="M251.331,112.413c-1.338-0.169-2.675,0.502-3.012,2.008c-0.334,1.506-0.334,9.035-0.334,9.035s-1.003-1.506-1.172-2.008
	c-0.168-0.501,0-5.69,0-7.196s-1.169-1.17-3.346-1.17c-2.175,0-11.043,4.016-13.219,4.352c-2.177,0.332-3.012-3.182-4.683-6.526
	c-1.675-3.348,0.835-2.177,0.164-4.436s-1.506-2.761-1.506-2.761l3.013,2.008c0,0,0,1.841-0.836,3.012
	c-0.835,1.17,2.51,4.854,2.51,4.854s5.521-0.502,5.855-1.34c0.334-0.837,2.847-2.341,3.851-2.51
	c1.004-0.168,5.021-3.012,5.855-3.263s5.689,1.424,7.529,1.59c1.84,0.167-2.177-3.849-5.02-7.362
	c-2.844-3.515-0.836-7.863-0.836-7.863s-109.096,21.416-116.626,22.421c-7.528,1.003-35.137,3.952-35.137,3.952l-0.35,0.221
	c-0.29,0.738-0.654,1.812-0.654,2.521c0,1.171-0.84,3.345,0,4.518c0.835,1.171,1.169,1.171-0.502,1.506
	c-1.675,0.334-5.021,7.53-6.361,8.534c-1.338,1.004-2.844-0.169-3.679-0.335c-0.84-0.168-6.192,2.845-6.693,4.852
	c-0.503,2.009-3.684,4.519-3.684,3.179c0-1.339-1.674-4.018-2.843-2.845c-1.173,1.173-0.839,4.854-2.008,4.687
	c-1.173-0.169-3.181-1.339-3.514-0.837c-0.333,0.499,0.979,4.127,0.18,4.994c-0.008,0.008-0.008,0.02-0.012,0.025
	c-0.839,0.838-6.863,3.347-8.369,4.853c-1.505,1.507-4.015,5.522-5.686,5.522c-1.675,0-2.176-1.841-5.02,0
	c-2.848,1.839-7.697,5.017-7.697,5.854s0.67,5.69-0.671,6.192c-1.337,0.503-2.843,1.337-4.518,0l-2.008,1.839l0.09,7.409
	c18.567-2.413,31.564-4.287,33.675-4.593l0.415-0.385c0,0,4.549-2.308,9.02-4.547c4.169-2.086,8.268-4.111,8.55-4.153
	c0.584-0.084,35.64-3.931,35.891-3.931c0.252,0,0.753,1.254,0.753,1.672s-1.258,0-0.419,1.088c0.835,1.087,1.172,1.003,1.925,0.082
	c0.753-0.919,1.922-1.421,1.922-1.421l4.604,4.518v4.101l30.452-4.686l35.471,25.684c8.745-3.759,15.855-3.602,15.855-3.602
	s0.667-8.534,0.667-9.707c0-1.172,5.69-9.368,8.031-12.38c2.342-3.012,4.185-2.678,4.185-2.678s4.349-5.688,7.196-7.697
	c2.844-2.007,6.689-0.501,10.204-1.17c3.514-0.671,2.848-2.344,3.514-4.353c0.671-2.007,4.017-4.35,3.012-6.691
	c-1.004-2.343-4.015-1.34-5.354,0.669c-1.337,2.008-6.356,3.681-9.368,3.514c-3.012-0.166-2.678-1.339-4.354-3.179
	c-1.675-1.841-2.341-4.351-0.835-2.344c1.506,2.009,6.858,4.017,7.863,4.184c1.003,0.167,3.682-4.518,4.686-6.692
	c1.005-2.176,1.173-4.518,1.337-6.022c0.169-1.502-1.168-0.002-4.016-0.002c-2.843,0-5.352,0.167-10.54-2.174
	c-5.188-2.344-4.519-3.182-4.519-3.182s4.016,1.676,4.855,2.009c0.835,0.333,10.039,1.173,11.709,1.173
	c1.675,0,9.373-0.169,12.551-2.511c3.18-2.343,1.843-5.188,3.682-7.026c1.839-1.843,2.342-0.671,3.181-3.182
	C257.022,119.774,252.673,112.579,251.331,112.413z"/>
</svg>
