<?xml version="1.0" encoding="iso-8859-1"?>
<!-- Generator: Adobe Illustrator 15.1.0, SVG Export Plug-In . SVG Version: 6.00 Build 0)  -->
<!DOCTYPE svg PUBLIC "-//W3C//DTD SVG 1.1//EN" "http://www.w3.org/Graphics/SVG/1.1/DTD/svg11.dtd">
<svg version="1.1" id="Layer_1" xmlns="http://www.w3.org/2000/svg" xmlns:xlink="http://www.w3.org/1999/xlink" x="0px" y="0px"
	 width="288px" height="288px" viewBox="0 0 288 288" style="enable-background:new 0 0 288 288;" xml:space="preserve">
<path d="M230.658,114.173L218.794,44.37c-5.339,4.547-18.392,8.306-25.509,14.633c-7.118,6.328-13.844,14.237-15.227,16.61
	c-1.384,2.373-6.525,2.373-9.886,1.581c-3.363-0.79-8.109,2.176-8.702,3.165c-0.593,0.988-4.35,3.163-6.328,3.361
	c-1.977,0.198-3.36,2.372-4.746,2.713c-1.384,0.337-3.361-0.934-5.536-1.527c-2.175-0.593-9.691,0.989-9.691,0.989s0,0-1.78,0.538
	c-1.779,0.533-2.174-0.142-2.174-1.725c0-1.582,7.713-2.57,9.492-2.57c1.781,0,1.386-1.779-1.384-2.571
	c-2.768-0.791-6.131,2.373-7.911,2.373c-1.779,0-3.56-1.978-5.535-3.36c-1.979-1.386-6.923-2.77-8.306-2.572
	c-1.386,0.198-4.549-0.395-7.744-2.336l-25.354,4.228L56.58,82.213l15.283,135.539c0.957-0.336,2.02-0.715,2.972-1.274
	c2.57-1.511,2.57,2.5,3.956,2.5c1.384,0,6.129-3.165,6.92-2.373c0.79,0.791,2.176,2.57,4.35,2.57c1.534,0,2.377,1.568,3.227,3.328
	c0.355,0.738,0.713,1.504,1.125,2.208c1.384,2.373,2.57,5.341,3.36,6.923c0.791,1.581,4.351,0.592,6.329,0.395
	c1.977-0.198,5.142-0.395,7.515,0.197c2.372,0.595,6.524,5.537,8.502,5.932c1.978,0.396,3.759-4.35,5.34-5.14
	c1.581-0.792,4.548,1.778,5.141,1.778c0.594,0,3.361,2.175,5.143,2.373c1.779,0.198,3.165-1.581,4.747-1.779
	c1.581-0.199,2.372-1.977,3.36-4.549c0.99-2.57,6.922-3.56,8.306-3.954c1.383-0.395,0.594,5.142,2.175,7.909
	c1.583,2.768,5.34,0.988,5.34,0.988s2.372,2.77,4.845,3.363c1.267,0.304,2.973,1.862,4.547,3.969
	c2.787-0.839,6.854-3.271,7.416-3.969c0.791-0.99,1.385-5.538,1.385-7.815c0-2.276,2.769,1.488,3.361,0
	c0.594-1.484-0.988-6.026-1.979-8.399c-0.989-2.373-0.395-0.99,1.386-3.758c1.779-2.769,0-3.362,0.395-5.933
	c0.396-2.569,3.56-5.34,4.548-5.34c0.99,0,3.363,3.165,4.55,5.934s3.559-2.769,4.547-3.362c0.989-0.593-2.372-5.537-2.571-6.327
	c-0.196-0.792,2.176-1.187,2.769-1.582c0.594-0.396,0-1.583-0.395-3.956c-0.395-2.371,0.988-1.977,1.187-2.57
	c0.197-0.593,0.988-3.164,1.779-3.56c0.792-0.394,3.362-0.197,3.759-1.383c0.393-1.187,2.174-6.525,2.965-6.525
	s1.978,0.395,2.966,1.383c0.988,0.99,3.758-0.79,3.758-0.79s3.163-1.978,3.56-3.758c0.394-1.779,3.164-3.163,4.744-5.932
	c1.582-2.77,5.142-5.143,5.933-6.328c0.094-0.143,0.192-0.3,0.292-0.463c0.709-1.205,1.365-2.964,0.499-4.876
	c-0.988-2.176-0.592-5.933,0-6.525c0.595-0.593,0.198-1.978-0.199-3.165c-0.393-1.187,2.572-2.174,2.572-2.174
	s-1.187-10.481-1.187-12.459c0-1.977,1.582-3.362,2.571-5.14c0.988-1.779,0.197-5.143-0.593-5.736
	c-0.792-0.593,0.195-3.756-0.792-6.129c-0.988-2.373-3.56-4.153-2.965-6.328C225.912,113.976,230.658,114.173,230.658,114.173z"/>
</svg>
