<?xml version="1.0" encoding="iso-8859-1"?>
<!-- Generator: Adobe Illustrator 15.1.0, SVG Export Plug-In . SVG Version: 6.00 Build 0)  -->
<!DOCTYPE svg PUBLIC "-//W3C//DTD SVG 1.1//EN" "http://www.w3.org/Graphics/SVG/1.1/DTD/svg11.dtd">
<svg version="1.1" id="Layer_1" xmlns="http://www.w3.org/2000/svg" xmlns:xlink="http://www.w3.org/1999/xlink" x="0px" y="0px"
	 width="288px" height="288px" viewBox="0 0 288 288" style="enable-background:new 0 0 288 288;" xml:space="preserve">
<path d="M110.41,107.004l-2.485,61.804c0,0,0.881-0.161,2.485,0.162c1.603,0.319,5.21,6.813,6.813,6.974
	c1.602,0.159,0.401-1.443,1.523-1.525c1.122-0.079,2.564,0.882,3.286,0.882c0.721,0,1.684-2.084,1.684-2.084
	s1.845,1.525,3.046,1.767c1.202,0.239,1.362,4.327,2.003,5.93c0.641,1.604,4.971-0.159,5.291,0.563
	c0.32,0.721,6.174,2.563,6.974,2.563c0.8,0,1.765-1.041,2.807-0.8c1.042,0.241,2.965,3.288,3.527,3.367
	c0.563,0.078,2.806-2.484,3.126-2.567c0.322-0.078,1.122,0,2.486,0.323c1.362,0.319,2.323-0.962,3.607,0
	c1.28,0.962,0.56,2.965,0.961,4.246c0.4,1.283,2.886,0.161,3.527,0.963c0.641,0.801-0.563,2.006-0.563,2.404
	c0,0.401,1.925,1.123,2.967,1.123c1.043,0,4.329-4.329,5.45-4.25c1.122,0.081,2.246,2.886,2.246,2.886s2.083-0.398,2.726-0.079
	c0.641,0.32,0.319,2.086,1.28,2.887c0.963,0.8,3.208-2.326,4.731-2.326c1.522,0,0.721,1.924,0.4,3.047
	c-0.32,1.124,2.324,2.725,2.886,2.725s1.043-2.164,1.122-3.205c0.078-1.041,1.123-0.722,1.683-0.722s1.283-3.446,2.086-3.288
	c0.8,0.162,0.962,2.729,1.685,2.729c0.72,0,2.563,0.879,3.203,0.879c0.643,0,2.646-2.562,3.529-2.081
	c0.881,0.48,0.079,1.36,0.24,1.841c0.16,0.48,3.046,1.684,4.089,2.165c1.04,0.48,2.165,2.246,3.045,2.164
	c0.882-0.079,1.202-1.763,1.764-1.763s1.522,0.56,2.003,0.402c0.481-0.161,0.402-2.165,0.643-2.404
	c0.241-0.242,1.763-0.482,2.886-0.722c1.122-0.241,2.083-1.045,2.646-0.963c0.561,0.079,2.886,1.041,3.286,1.041
	c0.399,0,0.882-1.762,1.765-1.762c0.881,0,4.007-1.285,4.407-1.203c0.4,0.079,4.649,2.484,5.612,2.646
	c0.961,0.16,3.847-3.528,4.729-3.366c0.881,0.159,3.848,2.724,4.49,3.043c0.641,0.321,2.805,1.286,3.285,2.488
	c0.482,1.202,5.531,2.802,7.615,3.686s3.848,1.124,3.929,1.364c0.01,0.027,0.04,0.073,0.081,0.13v-58.008l-5.051-34.389
	l-0.48-15.871c-69.979,2.404-212.348-6.254-212.348-6.254l-1.316,16.059L110.41,107.004z"/>
</svg>
