<?xml version="1.0" encoding="iso-8859-1"?>
<!-- Generator: Adobe Illustrator 15.1.0, SVG Export Plug-In . SVG Version: 6.00 Build 0)  -->
<!DOCTYPE svg PUBLIC "-//W3C//DTD SVG 1.1//EN" "http://www.w3.org/Graphics/SVG/1.1/DTD/svg11.dtd">
<svg version="1.1" id="Layer_1" xmlns="http://www.w3.org/2000/svg" xmlns:xlink="http://www.w3.org/1999/xlink" x="0px" y="0px"
	 width="288px" height="288px" viewBox="0 0 288 288" style="enable-background:new 0 0 288 288;" xml:space="preserve">
<path d="M244.474,115.651c-0.297-0.236-3.025-2.965-3.44-2.965s-0.415,0-0.415,0s-1.36-0.756-2.691-6.191
	c-0.021,0.002-0.038,0.004-0.038,0.004l-43.816-10.915c0,0-3.638,2.372-4.588,2.372c-0.948,0-3.005-2.057-3.005-2.057l-5.378,0.315
	l-1.423-0.791c0,0-1.583,1.583-2.057,1.583c-0.475,0-10.124-0.949-10.757-0.475c-0.633,0.475-1.424,1.423-1.424,1.423
	s-6.484,0-6.644-0.474c-0.158-0.475-0.792-2.691-1.74-2.691c-0.949,0-7.275,1.742-7.275,1.742s-1.267-1.898-2.057-1.898
	c-0.791,0-3.323,1.104-3.797,1.104c-0.475,0-0.316-2.687-0.95-3.002c-0.633-0.319-2.056-0.634-3.954-1.898
	c-1.899-1.268-5.221-0.475-6.011-0.634c-0.79-0.16-2.847-1.583-3.321-1.583c-0.475,0-7.436,3.166-10.125,2.532
	c-2.689-0.633-1.106-2.529-3.479-2.213c-2.373,0.315-6.17-2.847-6.012-4.271c0.159-1.423,1.265-3.796,0.949-4.43
	c-0.316-0.634,0.95-2.373,0.792-5.061c-0.159-2.69-4.904-9.175-4.904-9.175s-3.481,0.631-3.955,0.315
	c-0.055-0.036-0.113-0.136-0.176-0.274c-0.938,0.005-1.607-0.134-1.721-0.517c-0.475-1.581-1.424-3.322-1.424-3.322
	s-4.112,0.949-4.745,0.633c-0.633-0.316-2.057-1.423-2.057-1.423s0.633,2.213,0,2.847c-0.633,0.633-4.65-4.746-4.65-4.746
	s1.645,5.785,1.012,6.531c-0.633,0.746-2.531,2.327-2.531,2.327s-0.158,7.118-0.791,7.593c-0.633,0.475-1.266,2.689-1.266,3.639
	s0,3.164,0,3.164h-1.265c0,0-0.949,2.847-1.424,3.322c-0.474,0.475-0.632,3.478-1.582,5.536c-0.95,2.057-3.322,6.96-3.164,8.384
	c0,0-2.056,2.215-2.689,4.745c-0.633,2.53,0.949,4.428,1.265,5.063c0.316,0.632-2.53-0.949-2.214-1.741
	c0.316-0.792-2.373,5.22-2.373,5.22s0.95,0.475,0.791,1.424c-0.159,0.95-1.424,0-1.424,0l-4.271,10.915c0,0-0.752,0.632,0.494,0.988
	c1.245,0.355,1.424,0.712,1.008,0.889c-0.416,0.178-2.077-0.295-2.077-0.295l-3.44,6.584c0,0,1.721-0.653,1.899,0
	c0.177,0.652,0.355,1.068,0.83,1.661c0.475,0.593,1.008,0.652,1.542,0.949c0.534,0.296,0.95,0.83,0.712,1.008
	c-0.237,0.178-3.144-2.077-3.796-2.077c-0.653,0-1.424,0.535-1.78,0.653c-0.355,0.118-0.652,0.237-0.652,0.237
	s-1.246,3.263-2.788,4.626c-1.542,1.365-2.61,2.848-2.432,2.848s2.906-1.304,2.966-1.72c0.059-0.416,1.364-0.416,1.364-0.06
	c0,0.355-1.008,1.008-0.771,1.423s0.237,0.415,0.237,0.415s0.297,1.483-0.119,1.603c-0.415,0.118-0.771-1.898-1.068-1.898
	s-2.59,1.55-2.629,1.901c-0.04,0.353,0.395,1.302,0,1.302c-0.396,0-0.515-2.55-1.049-2.373c-0.534,0.178-1.127,0.593-1.305,1.661
	c-0.178,1.068-0.89,3.915-1.839,5.22c-0.949,1.305-5.457,6.229-5.753,7c-0.297,0.771,1.72,5.457,1.542,7.414
	c-0.178,1.958-2.551,5.813-2.551,5.813l1.483,0.296c0,0-1.898,1.01-2.017,1.483c-0.118,0.476-0.889,9.136-0.474,9.788
	c0.416,0.652,2.017,2.966,1.958,3.5c-0.002,0.014,0.106,0.056,0.268,0.114c0.297,0.108,0.857,0.292,1.665,0.543
	c9.511,2.968,52.79,15.416,92.176,26.018c28.258,7.086,47.967,11.697,63.405,15.097c1.614,0.348,3.15,0.684,4.563,0.997
	c0,0,0.765-3.537,1.914-8.835c3.401-15.675,10.184-46.81,10.583-47.695c0.533-1.187,1.424-0.891,1.72-0.949
	c0.297-0.061,0.06-2.61,0.83-3.144c0.771-0.534,1.364-0.712,1.01-1.603c-0.356-0.89-0.535-1.541-0.356-1.839
	c0.178-0.297,2.491-1.897,2.432-2.373c-0.06-0.474-1.839-1.304-1.839-1.542c0-0.237-0.119-1.779-0.119-1.779
	s-2.194-0.355-2.194-0.593s-1.245,0.119-1.602-0.416c-0.355-0.533-0.355-1.424-0.237-2.728c0.119-1.306-0.237-1.246,0.119-1.899
	c0.355-0.652-0.297-2.016,1.186-2.669c1.483-0.652,4.865-5.534,5.28-6.801c0.415-1.266,1.542,0.158,2.788-1.266
	c1.245-1.424,2.729-2.255,2.847-2.967c0.119-0.711-0.475-2.49,0-3.143s3.144-2.61,4.212-4.39c1.067-1.779,1.839-4.271,3.381-5.753
	c1.542-1.484,4.687-5.339,4.687-5.874C244.474,120.457,244.771,115.89,244.474,115.651z"/>
</svg>
