<?xml version="1.0" encoding="iso-8859-1"?>
<!-- Generator: Adobe Illustrator 15.1.0, SVG Export Plug-In . SVG Version: 6.00 Build 0)  -->
<!DOCTYPE svg PUBLIC "-//W3C//DTD SVG 1.1//EN" "http://www.w3.org/Graphics/SVG/1.1/DTD/svg11.dtd">
<svg version="1.1" id="Layer_1" xmlns="http://www.w3.org/2000/svg" xmlns:xlink="http://www.w3.org/1999/xlink" x="0px" y="0px"
	 width="288px" height="288px" viewBox="0 0 288 288" style="enable-background:new 0 0 288 288;" xml:space="preserve">
<path d="M51.803,215.35l37.532-6.433l130.98-25.915c0,0,1.988-6.613,5.204-6.792c3.218-0.179,7.508,0,7.508,0l9.59-5.183
	c0,0,1.189-0.475,0-1.667s-1.189-2.859,0.239-3.338c1.43-0.478,1.43-1.189,3.336-4.288c1.909-3.1,0.475-1.431,2.384-1.431
	c1.905,0,2.379-2.146,3.81-3.812c1.43-1.667,0.479-1.192,0-2.622c-0.475-1.43-3.334-2.619-3.334-2.619s-2.62-2.386-3.576-2.623
	c-0.948-0.237-1.903-2.145-2.858-2.858c-0.95-0.716-0.955,0-2.362-1.193c-1.414-1.193-1.928-4.049-3.356-5.719
	c-1.43-1.67-2.62,0-3.815,0c-1.189,0-1.664-6.434-1.664-8.102c0-1.667,0.234-1.667,1.664-1.667c1.431,0-0.234-1.669,0.48-3.1
	c0.715-1.43,1.905-1.904,1.905-1.904l-5.004-3.815c0,0,2.144-3.334,3.099-3.334c0.95,0,1.189-2.622,1.905-5.243
	c0.714-2.622,0,0,1.189-0.475c1.194-0.479,0.955-2.861,1.911-6.197c0.948-3.338,0.474-2.622,1.686-3.813
	c1.211-1.191,1.407-1.191,1.407-2.384s-1.407-3.575-1.407-3.575s-5.262,0.956-6.457-0.237c-1.189-1.191-2.86-0.238-2.86-0.238
	s-2.858-2.621-4.048-3.336c0,0,0-3.338,0-4.052c0-0.715-2.62-5.479-2.62-5.479s0,0-1.67-2.385c-1.665-2.384-4.528,1.431-5.244-0.475
	c-0.715-1.907-4.764-5.719-4.764-5.719L61.035,103.354l-2.86-12.631c0,0-8.104,7.386-11.219,9.771
	c-3.122,2.383-12.846,9.055-12.846,9.055l10.723,63.088L51.803,215.35z"/>
</svg>
