<?xml version="1.0" encoding="iso-8859-1"?>
<!-- Generator: Adobe Illustrator 15.1.0, SVG Export Plug-In . SVG Version: 6.00 Build 0)  -->
<!DOCTYPE svg PUBLIC "-//W3C//DTD SVG 1.1//EN" "http://www.w3.org/Graphics/SVG/1.1/DTD/svg11.dtd">
<svg version="1.1" id="Layer_1" xmlns="http://www.w3.org/2000/svg" xmlns:xlink="http://www.w3.org/1999/xlink" x="0px" y="0px"
	 width="288px" height="288px" viewBox="0 0 288 288" style="enable-background:new 0 0 288 288;" xml:space="preserve">
<g>
	<path d="M214.975,134.575c-3.32-10.576-7.466-22.359-8.149-24.061c-0.55-1.361-4.469-2.578-9.332-4.308
		c-1.776,5.726-3.49,10.954-3.49,11.948c0,2.53,4.55,4.629,5.229,8.308c0.067,0.283,0.266,0.533,0.266,0.845
		c0,4.277-0.604,15.267,0,17.414c0.623,2.111,3.654,12.702,6.689,14.428c3.09,1.721,11.301-4.988,12.849-7.424
		C219.722,150.641,217.602,142.976,214.975,134.575z"/>
	<path d="M193.029,133.262c0-4.472-0.171-8.521-1.203-10.634l-2.378-1.229c-2.567,0.629-6.405,5.806-7.666,7.38
		c-1.367,1.748-3.202,6.081-2.518,12.732c0.684,6.622-1.656,8.932-0.108,11.68c1.509,2.746,3.999,1.813,3.774,5.495
		c-0.205,3.641-5.918,11.195-3.635,13.715c4.146,4.588,7.543-0.904,9.123-4.354c1.638-3.417-0.42-6.18,1.607-9.14
		c2.061-2.971,3.658,1.136,6.636,1.136c3-0.016-1.144-8.011-1.827-11.894C194.171,144.259,193.001,139.437,193.029,133.262z"/>
	<path d="M169.704,146.291c-3.602,1.271-0.736,11.812-0.736,11.812s2.286,11.797,3.001,12.024c0.687,0.229,4.353-6.195,4.775-8.014
		c0.46-1.844-2.715-6.88-3.437-9.854C172.715,149.639,171.543,146.777,169.704,146.291z"/>
	<path d="M168.735,121.111c-1.407,0.026-2.518,3.231-0.911,3.449c1.596,0.241,2.054,3.666,2.977,6.198
		c0.911,2.503,3.201,3.431,6.007,2.271c2.775-1.133-0.288-6.622-1.663-8.011C173.771,123.661,172.283,121.043,168.735,121.111z"/>
	<path d="M165.565,104.729c6.146,1.518,3.715-6.419,7.062-7.02c3.376-0.607,5.176,8.243,4.89,12.203
		c-0.279,3.977,3.348,6.106,6.125,6.095c1.089,0.012,3.839-6.223,6.669-12.721c-3.945-1.83-7.837-4.16-10.643-7.38
		c-8.268-9.503-20.777-14.668-22.605-29.628h-9.472l-6.411-31.128L67.158,58.307l35.001,136.315l-6.864,10.067l9.153,13.732
		c0,0,3.797,5.039,8.386,3.804c4.57-1.197,19.225-17.396,25.63-19.826c6.437-2.434,9.784-7.32,18.632-5.496
		c8.836,1.833,7.92,1.522,7.92-4.274c0-5.79,0.97-22.584,0.032-23.805c-0.95-1.216-9.479-15.567-8.875-20.444
		c0.604-4.894,4.291-9.788,4.585-12.214c0.28-2.431-11.021-11.279-10.989-14.939c0-3.679,2.718-7.321,4.577-6.722
		c1.827,0.601,12.47,1.198,11.1-1.532c-0.69-1.412-4.861-4.909-8.582-8.373c-3.521-3.317-6.638-6.62-5.893-8.108
		C152.514,93.443,159.412,103.204,165.565,104.729z"/>
	<path d="M155.861,230.168c-2.378-0.713-2.146,3.975-2.111,7.94c0,3.954,3.625,2.448,3.713,3.229
		c0.139,0.805-3.713,1.964-6.146,4.396c-2.464,2.449,0.281,7.946,3.348,6.554c3.031-1.356,6.374-0.758,8.236-1.973
		c1.834-1.231,2.115-10.09,1.23-14.356C163.188,231.701,155.861,230.168,155.861,230.168z"/>
</g>
</svg>
