<?xml version="1.0" encoding="iso-8859-1"?>
<!-- Generator: Adobe Illustrator 15.1.0, SVG Export Plug-In . SVG Version: 6.00 Build 0)  -->
<!DOCTYPE svg PUBLIC "-//W3C//DTD SVG 1.1//EN" "http://www.w3.org/Graphics/SVG/1.1/DTD/svg11.dtd">
<svg version="1.1" id="Layer_1" xmlns="http://www.w3.org/2000/svg" xmlns:xlink="http://www.w3.org/1999/xlink" x="0px" y="0px"
	 width="288px" height="288px" viewBox="0 0 288 288" style="enable-background:new 0 0 288 288;" xml:space="preserve">
<path d="M245.996,174.569v-66.141c0,0-1.431-2.987-2.126-3.126c-0.694-0.14-3.612-0.694-4.167-1.529
	c-0.557-0.833-1.251-3.057-2.016-3.961c-0.765-0.902-2.71-2.64-2.084-3.334c0.624-0.694,1.736-2.432,3.82-3.404
	c2.085-0.973,3.683-5.419,3.683-8.198c0,0-48.421-1.01-107.341-3.683c-43.984-1.995-73.536-4.553-84.732-5.614l-0.607,7.063
	l-2.358,27.383l-6.729,73.816c21.602,1.952,100.609,8.752,149.314,8.515c0,0,0.277,2.223,1.25,2.779
	c0.974,0.557,7.504,3.058,8.615,4.169s1.945,2.362,3.752,1.667c1.806-0.694,1.39-3.057,3.475-3.057c2.083,0,12.366-0.556,15.146,0
	c2.778,0.556,1.11,3.474,4.445,3.891s4.307,0.694,4.169,1.667c0,0,4.546,0.695,4.705,2.084c0,0,1.687-0.833,2.381,0
	c0.696,0.834-0.694,1.807,0,2.641c0.696,0.834,0.696,0.834,0.696,0.834s1.389,1.667,2.36,1.807c0.587,0.084,1.879,0.272,3.025,0.74
	c-0.09-1.963-0.378-4.552-1.264-5.326c-1.483-1.296-3.892-3.519-2.685-4.817c1.201-1.297,2.591-5.463,3.24-7.039
	c0.649-1.577-0.002-2.132,0.185-2.872s2.502-0.278,1.667-3.336c-0.834-3.056-2.963-2.221-3.147-3.797
	c-0.188-1.576,1.427-5.096,0.526-5.744c-0.897-0.647-2.009-2.965-1.176-4.076H245.996z"/>
</svg>
