<?xml version="1.0" encoding="iso-8859-1"?>
<!-- Generator: Adobe Illustrator 15.1.0, SVG Export Plug-In . SVG Version: 6.00 Build 0)  -->
<!DOCTYPE svg PUBLIC "-//W3C//DTD SVG 1.1//EN" "http://www.w3.org/Graphics/SVG/1.1/DTD/svg11.dtd">
<svg version="1.1" id="Layer_1" xmlns="http://www.w3.org/2000/svg" xmlns:xlink="http://www.w3.org/1999/xlink" x="0px" y="0px"
	 width="288px" height="288px" viewBox="0 0 288 288" style="enable-background:new 0 0 288 288;" xml:space="preserve">
<path d="M199.484,63.773l-53.282,8.194v-7.173l-8.055-7.905c0,0-2.045,0.88-3.362,2.49c-1.316,1.605-1.908,1.759-3.37-0.146
	c-1.468-1.903,0.734-1.171,0.734-1.903c0-0.728-0.878-2.928-1.317-2.928s-61.777,6.736-62.799,6.88
	c-0.496,0.073-7.666,3.615-14.96,7.267c-7.822,3.918-15.781,7.96-15.781,7.96l-0.727,0.669c0.342-0.052,0.576-0.086,0.576-0.086
	s0,0-0.729,2.782c-0.736,2.782-3.37,2.049-4.248,4.1c-0.877,2.045-0.144,2.636-1.9,3.514c-1.755,0.878-1.317,1.46-3.226,3.952
	c-1.9,2.484,0.296,4.536,1.908,6.731c1.606,2.197,3.952,3.221,5.854,3.66c1.9,0.44,2.491-0.291,4.975,2.635
	c2.49,2.927,6.586,2.927,8.783,2.784c2.195-0.151,3.369,0.877,4.247,3.952c0.879,3.073,2.93,2.339,4.393,4.244
	c1.461,1.903,1.756,7.317,3.808,8.344c2.045,1.025,5.997,6,9.662,10.54c3.656,4.539,7.608,5.708,9.366,6.296
	c1.757,0.583,6.291,2.487,7.761,6.147c1.462,3.658,6.437,6.292,7.025,6.292c0.585,0,3.657,1.758,7.026,3.809
	c3.362,2.045,3.362,7.172,3.362,8.345c0,1.166,2.196,0.293,3.955,1.901c1.755,1.612,0.877,2.194,1.317,4.099
	c0.438,1.904,3.663,1.609,5.706,3.952c2.053,2.344,11.419,4.541,13.615,4.831c2.196,0.291-1.756,4.1-1.023,5.562
	c0.736,1.469,4.392,5.565,5.565,6.295c1.168,0.732,1.607,7.757,2.635,9.955c1.024,2.194,4.832,4.83,5.854,5.125
	c1.023,0.289,5.563,0.291,6.73,4.683c1.175,4.392,3.514,4.832,3.227,6.001c-0.297,1.174,0.583,5.856,2.34,7.465
	c1.756,1.613,0.144,4.102,1.021,5.566c0.878,1.462,5.861,1.021,6.883,1.169c0.445,0.066,1.735,0.691,2.759,1.556
	c4.905-2.244,6.484-5.495,7.78-6.095c1.901-0.879,3.219-6.001,2.053-7.465c-1.175-1.462-2.197,0.147-3.665,0
	c-1.462-0.146-3.217-2.488-2.484-3.219c0.728-0.734-2.194-5.269-3.073-7.761c-0.879-2.484-2.786-4.244-1.318-4.244
	c1.463,0,4.097,0.588,3.219,1.465c-0.878,0.879-0.439,2.341,0.584,4.536c1.03,2.196,5.708,6.297,6.443,6.148
	c0.728-0.145-0.583-2.196-1.319-4.244c-0.732-2.047-0.438-4.683,0.439-4.683c0.88,0,1.175,2.636,1.175,3.514
	c0,0.877,1.755,6.879,2.634,7.17c0.879,0.295,1.901-1.317,2.636-1.023c0.727,0.288,1.757-2.051,3.361-2.491
	c0.66-0.178,1.093-0.728,1.38-1.385c0.419-0.96,0.528-2.166,0.528-2.859c0-1.169-1.612-3.073-2.786-3.804
	c-1.167-0.735,0.439-2.636-5.413-1.903c-0.056,0.006-0.09,0.006-0.145,0.01c-5.682,0.68-5.132-1.037-5.86-1.022
	c-0.672,0.014,2.608-0.502,4.392-0.583c0.151-0.007,0.316-0.016,0.439-0.016c1.612,0,4.83-1.024,5.271-0.733
	c0.438,0.295,3.073,1.174,4.83,1.317c1.757,0.151,2.931-1.022,3.369-0.73c0.439,0.29,5.71-4.244,5.854-4.979
	c0.15-0.727-3.362-1.607-3.802-1.461c-0.439,0.144-1.908-1.174-1.173-2.344c0.727-1.17,4.391-6.147,4.391-5.417
	c0,0.735-2.052,5.857-2.052,5.857s4.103,2.487,4.688,2.487c0.583,0,2.93-3.075,3.369-3.514c0.438-0.44,4.24,0,4.24-0.584
	c0-0.589-2.483-1.317-2.196-1.757c0.295-0.438,2.196-0.734,3.227-0.734c1.021,0,3.952-4.244,3.217-5.854
	c-0.733-1.612-2.196-0.146-3.809-1.8c-1.604-1.654-3.218-2.446-3.803-3.03c-0.589-0.59,3.076-0.438,3.076-0.438
	c-1.317-1.471,0.583-5.127,0.583-4.541c0,0.588,0.438,3.513,0.735,4.393c0.287,0.878,4.239-4.393,4.239-4.393
	s-2.045,3.223-2.483,4.393c-0.439,1.17,0.582,2.047,1.317,3.221c0.728,1.168,2.779-0.587,5.559-1.026
	c2.785-0.438,1.756-4.391,2.193-4.682c0.442-0.296,1.176-1.317,1.176-1.317s3.809-2.196,3.809-4.101c0-1.903-1.469,0-2.197,0
	c-0.734,0,0.729-4.244,0.729-4.244s2.93-2.635,3.951-2.635c1.03,0,0.879,1.317,0.879,1.901c0,0.59,4.543-1.024,5.421-1.318
	c0.879-0.289-1.028-1.461-0.878-2.195c0.144-0.727,3.362-3.219,4.241-4.244c0.878-1.026,3.225-3.223,4.39-3.661
	c1.174-0.438-0.728-2.778-2.045-3.658c-1.317-0.878-4.39-2.634-4.981-4.979c-0.583-2.343,2.491-7.173,2.788-6.732
	c0.285,0.437-0.151,1.463-0.735,3.512c-0.592,2.051,0.145,3.952,1.317,3.952c1.167,0,1.317-3.366,1.317-3.366h1.901
	c0,0,1.907-9.952,2.929-11.126c1.024-1.168,3.515-5.414,4.098-8.049c0.591-2.635,5.859-9.223,10.396-11.712
	c4.535-2.485,5.412-4.393,5.412-4.393L199.484,63.773z"/>
</svg>
