<?xml version="1.0" encoding="iso-8859-1"?>
<!-- Generator: Adobe Illustrator 15.1.0, SVG Export Plug-In . SVG Version: 6.00 Build 0)  -->
<!DOCTYPE svg PUBLIC "-//W3C//DTD SVG 1.1//EN" "http://www.w3.org/Graphics/SVG/1.1/DTD/svg11.dtd">
<svg version="1.1" id="Layer_1" xmlns="http://www.w3.org/2000/svg" xmlns:xlink="http://www.w3.org/1999/xlink" x="0px" y="0px"
	 width="288px" height="288px" viewBox="0 0 288 288" style="enable-background:new 0 0 288 288;" xml:space="preserve">
<path d="M257.852,107.524c0-0.724,0.372-1.82,0.668-2.575c0.196-0.492,0.357-0.843,0.357-0.843h-7.522v1.538
	c0,0-25.559,3.671-46.007,6.347c-10.748,1.406-20.08,2.535-23.555,2.712c-5.299,0.27-11.9,0.961-17.063,1.584
	c-4.663,0.563-8.156,1.068-8.401,1.15c-0.512,0.17-24.099,1.025-26.321,1.195c-2.223,0.171-37.943,4.444-37.943,4.444l-0.854-1.368
	h-5.813c1.879,4.443,0.854,5.984,0.854,5.984l-35.808,2.418c-0.614,1.324-1.278,2.55-1.663,2.628
	c-0.492,0.098-1.286-0.479-1.878-0.991l-0.502,0.533l0.502,2.339l-2.396,2.051c0,0,3.421,2.564,2.396,3.246
	c-1.026,0.684-4.274,1.026-4.274,1.026s4.445,1.195,3.505,2.394c-0.741,0.941-1.735-0.101-2.127,0.481
	c-0.108,0.159-0.181,0.411-0.181,0.885c0,2.224-0.345,3.419-0.345,3.419s0.217,3.503,1.498,3.888
	c1.282,0.385-3.076-0.642-2.819,1.025c0.256,1.667,2.019,1.41,1.521,1.922c-0.497,0.514-2.419-0.512-2.548,1.154
	c-0.127,1.666-3.846-0.128-3.846,2.052c0,2.179,1.923,1.153,1.923,2.436c0,1.281-1.923,1.024-1.923,1.794s2.18,1.538,0.642,2.436
	c-1.539,0.897-2.436-0.769-2.436,0c0,0.77,0,3.975,0,3.975s-2.82,0.512-2.691,1.025c0.128,0.513,0.896,2.69,0.512,2.947
	c-0.384,0.257-2.308,0.513-1.538,1.281c0.769,0.77,2.564,0.385,2.692,1.283c0.128,0.897,1.667,3.589,0.769,3.846
	c-0.896,0.256-2.307-1.282-2.435,0c-0.129,1.281-1.667,2.691-2.18,2.563c-0.513-0.129-1.595,1.961-0.293,2.584
	c0.113,0.27-0.16-0.562-0.488-0.618c0,0,91.044-6.498,107.433-8.256c7.169-0.769,14.24-1.562,21.082-2.361
	c9.122-1.063,17.83-2.133,25.81-3.142c3.245-0.411,6.361-0.81,9.341-1.197l-0.092-7.568l2.051-1.878c1.711,1.365,3.25,0.513,4.615,0
	c1.369-0.514,0.686-5.471,0.686-6.326s4.954-4.102,7.862-5.979c2.904-1.881,3.417,0,5.127,0c1.707,0,4.271-4.103,5.809-5.641
	c1.538-1.539,7.69-4.102,8.548-4.957c0.004-0.006,0.004-0.018,0.013-0.026c0.816-0.886-0.524-4.591-0.185-5.102
	c0.341-0.513,2.392,0.683,3.589,0.855c1.194,0.171,0.854-3.59,2.051-4.787c1.194-1.197,2.905,1.538,2.905,2.906
	c0,1.367,3.248-1.196,3.762-3.247c0.513-2.051,5.979-5.128,6.838-4.957c0.853,0.171,2.391,1.368,3.758,0.343
	c1.369-1.025,4.786-8.376,6.497-8.717c1.707-0.343,1.365-0.343,0.513-1.538C256.994,110.941,257.852,108.721,257.852,107.524z"/>
</svg>
