<?xml version="1.0" encoding="iso-8859-1"?>
<!-- Generator: Adobe Illustrator 15.1.0, SVG Export Plug-In . SVG Version: 6.00 Build 0)  -->
<!DOCTYPE svg PUBLIC "-//W3C//DTD SVG 1.1//EN" "http://www.w3.org/Graphics/SVG/1.1/DTD/svg11.dtd">
<svg version="1.1" id="Layer_1" xmlns="http://www.w3.org/2000/svg" xmlns:xlink="http://www.w3.org/1999/xlink" x="0px" y="0px"
	 width="288px" height="288px" viewBox="0 0 288 288" style="enable-background:new 0 0 288 288;" xml:space="preserve">
<path d="M260.307,144.926c-0.476-0.794-1.854-3.652-1.271-4.129c0.584-0.477-1.64-1.588-1.693-2.064
	c-0.053-0.477-1.693-2.437-1.693-2.437s0.688-2.383,0.423-2.594c-0.264-0.21-1.375-3.652-1.905-3.862
	c-0.529-0.214-2.595-2.278-2.595-2.278l-0.237-21.706l-0.132-12.013c0,0-4.341,1.005-5.559,0.847
	c-1.075-0.141-1.857-0.854-2.064-1.131c-0.026-0.037-0.047-0.067-0.053-0.085c-0.054-0.159-1.219-0.318-2.594-0.901
	c-1.377-0.583-4.711-1.64-5.029-2.434c-0.317-0.794-1.746-1.431-2.169-1.643c-0.425-0.212-2.384-1.905-2.966-2.01
	c-0.582-0.107-2.487,2.328-3.123,2.223c-0.636-0.106-3.44-1.694-3.706-1.746c-0.264-0.055-2.328,0.793-2.91,0.793
	c-0.583,0-0.9,1.164-1.165,1.164c-0.264,0-1.8-0.636-2.17-0.688c-0.371-0.054-1.006,0.477-1.746,0.636
	c-0.742,0.158-1.747,0.317-1.906,0.477c-0.158,0.158-0.106,1.481-0.424,1.588c-0.317,0.104-0.953-0.266-1.323-0.266
	s-0.582,1.111-1.164,1.164c-0.582,0.054-1.324-1.112-2.011-1.43c-0.689-0.317-2.595-1.111-2.7-1.43
	c-0.106-0.317,0.422-0.898-0.159-1.216c-0.583-0.317-1.906,1.375-2.33,1.375c-0.423,0-1.641-0.581-2.116-0.581
	c-0.477,0-0.584-1.694-1.111-1.801c-0.53-0.104-1.008,2.171-1.378,2.171c-0.369,0-1.06-0.211-1.111,0.477
	c-0.053,0.688-0.37,2.116-0.741,2.116c-0.37,0-2.116-1.057-1.905-1.799c0.212-0.742,0.741-2.013-0.265-2.013
	s-2.488,2.064-3.124,1.536c-0.635-0.528-0.423-1.694-0.846-1.905c-0.424-0.211-1.8,0.052-1.8,0.052s-0.742-1.853-1.483-1.905
	c-0.74-0.052-2.91,2.806-3.599,2.806s-1.959-0.477-1.959-0.741c0-0.263,0.794-1.059,0.371-1.588
	c-0.424-0.528-2.064,0.212-2.328-0.636c-0.267-0.846,0.21-2.169-0.636-2.804c-0.848-0.635-1.482,0.211-2.382,0
	c-0.901-0.214-1.43-0.266-1.643-0.214c-0.211,0.056-1.692,1.747-2.063,1.695s-1.641-2.064-2.329-2.223
	c-0.688-0.159-1.324,0.527-1.854,0.527c-0.528,0-4.395-1.216-4.605-1.691c-0.211-0.477-3.07,0.687-3.493-0.372
	c-0.424-1.058-0.529-3.757-1.323-3.916c-0.793-0.158-2.011-1.166-2.011-1.166s-0.636,1.377-1.112,1.377s-1.43-0.635-2.17-0.583
	c-0.741,0.055,0.052,1.112-1.006,1.007c-1.059-0.105-3.44-4.394-4.5-4.604c-1.059-0.214-1.641-0.106-1.641-0.106l1.641-40.813
	l-50.574-2.895l-0.901,11.008l-6.885,84.073l-63.84-5.797c0,0-0.237,0.396-0.396,1.747c-0.158,1.35,2.064,2.382,2.064,2.382
	l-0.449-0.052c2.229,1.271,3.148,2.435,3.148,2.435c0.159,1.27,0.159,1.27,0.159,1.27s1.43,3.653,2.224,3.97
	c0.794,0.318,4.129,2.541,4.129,2.541s0.476,1.588,2.064,2.859c1.588,1.27,3.97,5.398,4.923,6.352
	c0.952,0.953,1.746,2.223,3.493,3.176s3.177,2.7,4.447,3.494c1.27,0.794,1.27,0.794,1.27,0.794s1.43,1.747,1.588,2.699
	c0.16,0.953,1.112,5.241,2.065,6.035c0.952,0.794,0.635,3.334,0.158,4.287s1.906,7.781,3.971,9.847
	c2.063,2.063,3.017,4.605,5.717,6.193s6.67,2.858,6.67,2.858s2.857,1.747,3.493,2.064s4.288,4.765,6.829,3.812
	c2.54-0.953,1.746-3.336,5.081-4.129c0,0,0.477-5.082,1.747-7.146c1.271-2.065,2.064-3.812,3.494-3.812c1.429,0,4.604,0,4.604,0
	s0.794-3.176,2.064-2.858c1.271,0.317,1.906,2.382,3.018,2.541s6.988,1.43,8.894,0.794c1.905-0.635,4.446,0.477,4.923,1.27
	c0.477,0.795,2.858,4.765,3.652,5.083c0.794,0.317,1.271,2.54,2.54,3.176c1.271,0.635,3.336,2.699,3.652,3.335
	c0.318,0.635,2.065,4.923,2.541,5.558c0.477,0.635,2.542,8.417,3.812,8.734c1.271,0.317,0.159,1.747,1.271,3.812
	c1.111,2.064,1.747,4.288,3.176,4.605c1.43,0.317,3.812,6.352,4.446,7.146c0.636,0.795,3.177,3.653,4.13,3.653
	s3.493,2.223,3.493,3.97s-1.43,3.176-0.794,3.812c0.635,0.635,0,4.923,0.794,5.717s2.858,3.335,3.812,4.446
	c0.953,1.112,0.158,6.987,3.335,8.258c3.176,1.271,5.876,4.446,7.939,3.812c2.064-0.636,3.335,0.317,6.512,2.699
	c3.176,2.383,6.987,1.906,8.734,1.906c1.746,0,8.416,6.353,8.733,3.971c0.318-2.383,3.494-3.494,3.494-3.494
	s-2.224-1.43-2.382-1.985c-0.159-0.556-1.191-4.923-1.191-4.923s-1.747-1.191-1.747-2.064c0-0.874,1.271-1.032,1.191-1.588
	c-0.079-0.557-1.509-5.797-1.509-5.797s-1.826-0.396-1.111-1.667c0.154-0.275,0.251-0.445,0.315-0.562
	c-0.008-0.032-0.541-2.057,1.034-1.662c0,0,0.794-4.764,1.111-5.319c0.318-0.557-3.731-0.159-3.731-0.159l-2.064-0.477
	c0,0,2.145-0.396,1.668-0.873s-2.145-1.747-1.351-1.826c0.794-0.08,1.43,1.667,2.382,1.509c0.954-0.159,1.747-1.271,1.747-1.271
	s-1.429-1.588-0.635-1.588s1.553,0.802,1.588,2.619c0.033,1.817,0.873,0.557,0.873,0.557l2.938-7.94c0,0-0.688-0.185-0.794-0.185
	c-0.107,0-1.06-0.503-1.482-1.033c-0.424-0.529,0.158-1.138-0.026-1.243c-0.187-0.106-1.985-0.265-1.985-0.688
	c0-0.425,1.295-0.504,1.878-0.504s0.29,0.502,0.953,0.477c0.663-0.026,1.429-0.503,1.854-0.185c0.424,0.317-0.688,0.899,0.239,0.952
	c0.925,0.054,1.533-1.509,2.751-2.806c1.219-1.297,1.245-1.72,1.245-2.196s0.131-0.979-0.134-0.979s-1.853,1.668-2.116,1.588
	c-0.266-0.079-0.848-0.635-0.848-1.006s2.898-2.091,3.13-2.091s-0.139,0.715,0.363,1.032c0.503,0.317,1.005-0.451,0.979-0.662
	c-0.026-0.211-0.026-0.211-0.026-0.211s-0.265-0.9,0.186-0.953s-0.08,1.958,0.477,1.932c0.556-0.026,0.661-0.847,1.587-1.244
	c0.927-0.396,0.874-1.298,0.742-1.746c-0.133-0.45,0.173-0.741,0.072-1.323c-0.1-0.583-1.184-1.085-0.469-1.667
	c0.714-0.584,1.905,0.344,2.063,0.82c0.16,0.477,0.424,1.191,1.112,1.191c0.688,0,1.43-0.954,2.383-1.271
	c0.952-0.317,2.46-1.032,2.354-1.217c-0.105-0.186-3.335-2.991-3.335-2.991s-0.344,0.502-0.741,0.238
	c-0.397-0.265,0.37-1.218-0.291-1.747c-0.662-0.529-1.085-1.376-0.317-1.376s1.694,0.08,1.535,0.477
	c-0.158,0.396-0.716,0.82,0.053,1.032c0.768,0.211,0.742,1.005,1.482,1.322c0.741,0.318,1.721-0.582,2.276-0.979
	c0.556-0.397,1.084-0.662,1.932-0.979s1.376-0.716,1.191-0.106c-0.186,0.609-1.191,1.826-0.662,2.172
	c0.529,0.344,0.715-0.372,1.481-0.557c0.769-0.186,2.198-1.166,2.436-0.821c0.238,0.345,0.477,0.742,0.636,0.742
	c0.158,0,0.528-1.165,0.74-1.747c0.213-0.583,3.018-1.429,3.468-1.006s0.768,0.423,1.88-0.079c1.111-0.503,5.689-3.732,6.114-3.732
	c0.423,0,1.349-1.191,1.48-1.614c0.134-0.425,0.821-1.338,0.584-1.536c-0.238-0.198-0.278-0.913,0.276-1.111
	c0.557-0.198,0.557-1.588,1.073-1.707s0.198,0.596,1.627-0.238c1.43-0.833,1.231-2.263,1.906-2.184s0.715,0.159,0.754-0.595
	c0.04-0.755,0.04-1.787,0-1.906c-0.039-0.119-0.039-0.119-0.039-0.119s-0.636,0.397-0.953-0.238
	c-0.317-0.635,0.477-0.556,0.595-0.992c0.12-0.438-1.944-0.675-1.746-1.231c0.198-0.556,0.357-0.992,0.357-1.19
	s-0.636-0.715-0.517-1.032c0.12-0.318,0.079-0.715-0.477-1.231c-0.555-0.516-0.595-1.271-0.277-1.31
	c0.317-0.04,0.635,1.032,1.071,1.151c0.438,0.119,1.351,0.595,1.39,0.953c0.04,0.356,0.219,0.595,0.626,0.437
	c0.407-0.159,1.359-3.058,2.432-2.739c1.071,0.317,1.151,0.714,1.151,1.35c0,0.635-0.477,2.66-0.715,2.858s-0.437,0.04-0.437,0.636
	c0,0.595,2.024,0.158,3.057-0.278s0.953-0.238,1.112,0.119c0.158,0.357,0.635,0.396,1.071,0.277
	c0.437-0.118-0.437,0.953-0.952,0.794c-0.517-0.158-1.589,0.278-1.945,0.597c-0.357,0.317-2.581,2.104-2.383,2.262
	c0.198,0.159,2.383-1.548,3.018-1.865s3.136-1.35,3.771-1.668c0.636-0.317,6.933-3.719,10.005-3.083c0,0-1.271-1.164-1.482-2.436
	c-0.213-1.271,0.952-4.235,0.952-4.235s0.935,0.517,1.906-0.317c0.047-0.041,0.092-0.099,0.138-0.15
	c0.666-0.734,1.139-2.4,1.237-2.549c0.107-0.159-0.583-1.323-0.476-1.905c0.106-0.581-0.212-1.323-0.688-2.065
	c-0.477-0.739,0.317-2.486,0.636-2.752c0.316-0.265-0.636-2.171-0.636-2.647s1.163-1.588,2.011-2.381
	c0.849-0.795-0.794-1.482-0.264-1.906c0.528-0.422,0.528-0.422,0.528-0.422s0.741-1.801,1.06-2.7c0.317-0.9-0.53-0.794-0.53-1.377
	s0.407-1.377,0.601-1.854S260.783,145.72,260.307,144.926z"/>
</svg>
