<?xml version="1.0" encoding="iso-8859-1"?>
<!-- Generator: Adobe Illustrator 15.1.0, SVG Export Plug-In . SVG Version: 6.00 Build 0)  -->
<!DOCTYPE svg PUBLIC "-//W3C//DTD SVG 1.1//EN" "http://www.w3.org/Graphics/SVG/1.1/DTD/svg11.dtd">
<svg version="1.1" id="Layer_1" xmlns="http://www.w3.org/2000/svg" xmlns:xlink="http://www.w3.org/1999/xlink" x="0px" y="0px"
	 width="288px" height="288px" viewBox="0 0 288 288" style="enable-background:new 0 0 288 288;" xml:space="preserve">
<path d="M88.661,68.752c0.158,2.852,0,8.712,0.952,10.139c0.951,1.425,4.277,1.742,4.277,3.168s-2.377,3.644-2.377,4.753
	c0,1.108,2.377,5.069,2.377,5.069s-1.099,5.701-1.11,6.495c0,0.792,9.517,11.721,9.517,12.673c0,0.95-0.319,4.753-1.516,6.018
	c-1.209,1.269,3.733,7.289,3.89,8.397c0.16,1.104-2.533,5.38-2.693,5.861c-0.156,0.476-0.476,9.662-1.108,12.04
	c-0.633,2.375,2.071,3.01,3.011,3.961c0.959,0.943,1.265,6.811,3.021,9.186c1.742,2.373,1.731,5.388,1.742,6.654
	c-0.011,1.263,3.315,3.328,3.315,4.752c0.009,1.428-1.099,13.149,0.009,15.52c1.11,2.382,0.952-1.426,1.586-2.216
	c0.626-0.789,4.117-2.536,3.892-1.581c-0.229,0.945,6.089,6.644,6.089,6.644l11.257,58.93l3.546,4.79l0.028,0.043h0.012
	l47.293-10.581v-0.004c0,0-7.106-7.353-7.316-8.197c-0.217-0.843-0.217-6.547-0.852-7.6c-0.632-1.062,1.487-4.223,3.595-6.55
	c2.118-2.316-1.693-3.169-1.693-3.169s-0.426-7.604-1.474-8.869c-1.06-1.265,1.06-15.838-1.068-15.838
	c-2.112,0-2.735-14.158-3.172-17.533c-0.424-3.382,2.121-4.015,2.121-4.015s-0.221-9.292-0.01-10.773
	c0.216-1.476,2.961-4.859,3.81-6.118c0.842-1.271-1.06-6.764-1.007-9.504c0.058-2.753,3.325-3.179,4.165-5.287
	c0.843-2.109-2.326-5.491-2.326-5.491s3.169-9.084,3.169-9.718c0-0.633-3.583-3.595-3.801-6.544
	c-0.208-2.96-1.693-7.815-1.06-11.197c0.632-3.377,9.079-5.281,11.196-5.919c2.108-0.632,1.476-3.799,1.901-5.28
	c0.427-1.473,3.802-2.324,5.068-2.107c1.26,0.207,0.211-3.168,0.211-4.437c0-0.856,1.146-1.979,2.216-2.891l0.386-4.396
	c-0.376-0.549-0.702-0.95-0.702-0.95s0.485-0.763,0.941-1.753l0.345-3.996c-1.702-2.756-8.475-9.037-8.475-9.037l2.752-2.537
	c0,0-0.853-5.067-0.217-5.281c0.635-0.207,1.267-5.489,1.256-7.176c0.011-1.688-1.681-2.33-2.731-6.131
	c-0.474-1.708-0.474-2.544-0.217-3.122L87.554,65.269C87.554,65.269,88.502,65.901,88.661,68.752z"/>
</svg>
