<?xml version="1.0" encoding="iso-8859-1"?>
<!-- Generator: Adobe Illustrator 15.1.0, SVG Export Plug-In . SVG Version: 6.00 Build 0)  -->
<!DOCTYPE svg PUBLIC "-//W3C//DTD SVG 1.1//EN" "http://www.w3.org/Graphics/SVG/1.1/DTD/svg11.dtd">
<svg version="1.1" id="Layer_1" xmlns="http://www.w3.org/2000/svg" xmlns:xlink="http://www.w3.org/1999/xlink" x="0px" y="0px"
	 width="288px" height="288px" viewBox="0 0 288 288" style="enable-background:new 0 0 288 288;" xml:space="preserve">
<g>
	<path d="M272.297,163.936c-1.228-0.877-4.387-0.526-6.846-0.526c-2.457,0-1.229,1.054-1.931,2.633
		c-0.702,1.58-2.983,1.404-4.74,2.283c-1.755,0.876,0.529-1.405,0.529-2.633c0-1.229-2.81-2.107-4.564-2.81
		c-1.755-0.701-2.809-0.877-3.336-2.458c-0.525-1.578-0.525-2.809-2.105-4.563c-1.58-1.754-1.58,1.58-3.688,0.176
		c-2.105-1.403-2.456,0-4.563,0c-2.107,0-1.403-0.525,0.176-1.93c1.578-1.405-0.352-3.687,1.403-3.335
		c1.756,0.35,1.404,2.982,3.511,2.982s4.213,0.353,5.09,0.526c0.878,0.177,0.352,2.282,1.58,4.388
		c1.229,2.106,2.457-0.35,3.336,1.23c0.876,1.579,3.86,2.983,4.914,2.983s0.877-2.281,2.282-2.281c1.404,0,2.105,1.053,2.105-3.472
		s-1.579-1.795-2.984-2.321c-1.403-0.527-2.281-0.175-2.105-2.281s-1.931,0-4.212,0c-2.283,0-3.511-2.106-6.319-2.985
		c-2.811-0.876-2.633-4.738-1.58-5.089c1.054-0.352,2.106,3.686,3.159,4.037c1.054,0.351,3.336,1.755,4.037,1.931
		c0.703,0.175,4.213-1.404,4.388-2.106c0.176-0.702-2.984-1.931-3.51-2.275c-0.526-0.347-1.756-0.709,0.351-2.464
		c2.105-1.755,4.037,2.633,6.671,2.458c2.632-0.176,0-2.633,0-4.739s-3.687-2.106-4.739-2.809c-1.054-0.703,1.403-1.932,1.053-3.159
		c-0.35-1.229-7.372,0-9.479,0c-2.105,0-1.93-1.58-1.93-2.283c0-0.702-1.579-2.982-3.861-4.036
		c-2.282-1.053-3.511-2.283-4.916-3.687c-1.403-1.403-2.28-2.458,0.352-2.458c2.634,0,3.861,3.16,5.619,3.861
		c1.754,0.703,5.44,4.213,7.37,6.145c1.932,1.932,5.441,2.106,5.267,0c-0.176-2.106-1.58-5.968-1.055-6.671
		c0.527-0.701-4.914-2.808-4.212-3.86c0.703-1.054,4.563,1.754,6.144,1.229c1.58-0.526,0-3.862,0-3.862s0,0-1.58-0.176
		c-1.579-0.175-5.09-0.877-6.845-2.281c-1.756-1.403-4.74-4.036-6.495-5.44c-1.755-1.405-5.265,1.404-6.144,0
		c-0.877-1.405-6.318,0-8.047,0c-1.727,0-0.378-0.528-0.026-2.106c0.351-1.58-2.809-2.984-2.634-4.213
		c0.176-1.229-2.281-4.389-2.808-3.687c-0.527,0.702-1.581,3.862-4.388,4.563c-2.811,0.703-2.986-0.701-5.091-2.041
		c-2.106-1.335,0.351-8.489,1.579-10.772c1.229-2.281,4.504-2.808,4.504-2.808c0.235-1.64,1.174-4.68,1.174-5.851
		c0-1.17-1.64-6.552-5.387-6.787s-3.274,0.469-4.679-2.34s-6.083-2.106-9.593-2.575c-3.513-0.469,0.466-3.274,0-5.381
		c-0.473-2.106-4.449-3.045-6.556-2.809c-0.877,0.096-2.55-0.297-4.219-0.781c-0.061,1.999-1.223,9.496-1.223,9.496
		s-20.01-12.11-20.707-11.233c-0.696,0.879,1.574,5.793,0,7.724c-1.573,1.931-0.182,4.563-0.005,5.793
		c0.176,1.229-3.335,3.159-4.037,6.494c-0.701,3.336-2.106,2.633-2.808,3.511c-0.703,0.878-0.878,3.159-0.878,3.159s0,0-1.932,0
		c-1.93,0-2.809,8.953-3.861,8.953s-4.212-3.336-4.212-3.336l-1.229,2.983v6.32h-2.106c0,1.403-3.16,12.11-4.038,12.461
		c-0.877,0.351-5.266,0-6.67-0.526s-1.931-2.282-2.808-3.687c-0.878-1.403-2.457-1.229-3.687-1.403s-1.404,1.755-1.404,3.159
		s-0.352,4.915-1.053,6.846c-0.702,1.93-1.58,4.036-1.58,5.441c0,1.403-3.51,2.456-3.687,5.44
		c-0.175,2.985,0.177,7.373-2.808,10.707c-2.983,3.336-3.687,7.899-4.739,10.357c-1.054,2.456-2.809,5.089-1.579,4.251
		c1.228-0.838,1.579,3.998,1.579,3.998s0,0-0.878,0.878c-0.877,0.877,0.526,2.282,0,2.282c-0.527,0-3.511,5.265-4.213,5.968
		c-0.702,0.7-1.403-1.757-2.983-2.458c-1.579-0.702-3.159,3.158-3.159,3.158h-0.702c0,0,0,0-1.404,1.132
		c-1.404,1.13-2.633,2.028-4.213,0.625c-1.58-1.404-3.51-0.177-3.159,1.054c0.351,1.229,0.351,3.686-1.229,4.974
		c-1.579,1.287-3.159,0.993-6.317,1.52c-3.16,0.527-4.39,2.106-4.39,2.106s-3.511-2.809-4.388-3.626
		c-0.877-0.819-1.756,4.328-3.336,4.505c-1.579,0.175-1.579,1.755-3.273,3.158c-1.701,1.404-2.869,1.053-5.15-1.078
		c-2.282-2.131-3.686-1.027-5.443-1.379c-1.754-0.352-1.928-1.755-3.509-2.281c-1.579-0.526-1.404-2.107-1.229-2.925
		c0.177-0.819-3.16-3.395-3.16-3.395s-10.18,10.707-11.233,13.164c-1.051,2.457-9.127,4.915-11.759,7.372
		c-2.634,2.458,0.525,2.458,0,3.861c-0.527,1.404-4.74,4.037-4.74,4.037s0,1.054,0,3.16c0,2.105-5.441,4.037-6.142,4.037
		c-0.703,0-2.985,5.617-2.985,5.617s-5.44,1.93-7.021,2.457c-1.58,0.526-2.106,2.106-5.266,2.632
		c-1.536,0.256-3.769,2.083-5.66,3.896c28.001-3.665,62.997-8.691,62.997-8.691v-2.106h10.301c0,0-0.22,0.48-0.488,1.154
		l0.488-0.307c0,0,38.616-4.125,49.146-5.528c10.532-1.406,163.123-31.36,163.123-31.36s-5.209-9.362-7.141-14.452
		C275.807,159.196,273.524,164.814,272.297,163.936z"/>
	<path d="M277.288,110.763c1.404,0.702-1.93,4.037-1.93,4.037s0.878,1.229,2.631,0.176c1.757-1.054,1.757,2.81,0.878,4.388
		c-0.878,1.58-2.281,0.176-3.509,0.351c-1.23,0.177-0.176,1.053,0.175,2.106s-0.526,3.687-1.754,5.092
		c-1.23,1.403,1.052,2.281,0.7,3.087c-0.352,0.805-1.611,2.704-1.611,2.704s-0.495,7.548,0.031,9.303
		c0.527,1.756-0.175,4.739,0,6.319c0.176,1.58,2.283,4.388,4.109,4.038c1.826-0.352-1.826-2.106,0-2.985
		c1.124-0.54,1.563,0.315,1.738,1.053c-0.131-1.085-0.296-2.907-0.055-3.86c0.351-1.404-1.229-2.282-1.404-3.862
		c-0.175-1.58-0.526-2.105,0-3.686c0.401-1.207,1.313-0.573,1.723-0.205c-0.264-0.31-0.668-1.041-0.668-2.604
		c0-2.281,1.403-1.755,1.579-3.687c0.176-1.93,3.511,1.405,4.212,1.23c0.702-0.178-0.526-4.214,0.175-6.846
		c0.704-2.634-0.35-1.933-1.579-2.634c-1.229-0.701,1.404-2.458,1.756-4.212c0.351-1.756,1.755-4.213,1.755-5.617
		s1.054-3.16,1.229-3.687c0.177-0.526,0.702-3.158,0.702-3.158L277.288,110.763z"/>
</g>
</svg>
