<?xml version="1.0" encoding="iso-8859-1"?>
<!-- Generator: Adobe Illustrator 15.1.0, SVG Export Plug-In . SVG Version: 6.00 Build 0)  -->
<!DOCTYPE svg PUBLIC "-//W3C//DTD SVG 1.1//EN" "http://www.w3.org/Graphics/SVG/1.1/DTD/svg11.dtd">
<svg version="1.1" id="Layer_1" xmlns="http://www.w3.org/2000/svg" xmlns:xlink="http://www.w3.org/1999/xlink" x="0px" y="0px"
	 width="288px" height="288px" viewBox="0 0 288 288" style="enable-background:new 0 0 288 288;" xml:space="preserve">
<path d="M46.867,95.376l71.97-70.866l121.602,119.673l-120.5,119.674l1.38-16.125c0,0-1.103-6.211-0.276-9.797
	c0.828-3.584-2.206-11.581-1.93-12.683c0.274-1.104,3.033-2.482,3.033-6.344c0-3.859-2.758-6.857-3.584-6.048
	c-0.828,0.811-1.103,4.394-1.654,3.292c-0.551-1.104-1.38-10.203-4.412-11.03c-3.035-0.827,11.028,3.033,12.408,0.275
	c1.377-2.758,1.93-16.27,0.276-20.404c-1.656-4.137-4.137-5.516-4.137-5.516s-3.584,0.276-3.86-0.828l-2.756,2.207
	c0,0-1.931-1.517-1.38-2.758c0.553-1.241,1.931-3.033,1.931-3.033l1.379-0.413l-0.139-1.654c0,0,2.208-2.346,2.62-2.207
	c0.415,0.138,0.689,4.688,0.689,4.688l-1.931,1.656c0,0,3.999,0.688,4.275,0c0.275-0.69-1.792-6.344-2.896-7.86
	c-1.104-1.517-4.274-4.136-4.274-4.136s-1.379-0.827-1.379,0.138c0,0.966,1.656,2.481,0.414,3.447c-1.239,0.965-3.998,0-4.411-0.689
	c-0.414-0.688,0-3.171-0.277-4.412c-0.274-1.241-2.894-4.688-2.894-4.688s-3.171,0.139-4-0.689c-0.825-0.826-4.41-8.272-4.41-8.822
	c0-0.552,0-2.482-0.275-3.033c-0.275-0.552-2.205-4.55-2.482-6.066c-0.276-1.518-0.138-3.31-1.241-4.413
	c-1.102-1.104-5.927-1.235-12.132-2.201c-6.205-0.969-14.891-6.347-17.511-9.656c-2.62-3.309-3.859-8.686-6.617-11.994
	c-2.757-3.31-6.066-6.066-7.584-8.686C48.384,100.753,46.867,95.376,46.867,95.376z"/>
</svg>
