<?xml version="1.0" encoding="iso-8859-1"?>
<!-- Generator: Adobe Illustrator 15.1.0, SVG Export Plug-In . SVG Version: 6.00 Build 0)  -->
<!DOCTYPE svg PUBLIC "-//W3C//DTD SVG 1.1//EN" "http://www.w3.org/Graphics/SVG/1.1/DTD/svg11.dtd">
<svg version="1.1" id="Layer_1" xmlns="http://www.w3.org/2000/svg" xmlns:xlink="http://www.w3.org/1999/xlink" x="0px" y="0px"
	 width="216px" height="216px" viewBox="0 0 216 216" style="enable-background:new 0 0 216 216;" xml:space="preserve">
<path d="M189.867,171.758c-0.195-1.167-1.75-2.918-1.75-2.918l1.944-3.501l21.588-95.299L67.39,32.019c0,0,0.146,1.702-0.388,1.944
	c-0.535,0.243-0.39,1.313-0.536,2.432c-0.146,1.119,1.265,0.972,1.12,2.334c-0.146,1.362,0.729,1.652,0.923,2.527
	c0.194,0.875-0.68,0.633-2.042,1.654c-1.361,1.021,0.973,4.083,1.654,4.279c0.679,0.194,0.048-1.265-0.146-2.771
	c-0.194-1.506,1.41-1.265,1.945-1.654c0.536-0.388,1.313-0.242,2.286,0.779c0.971,1.021-1.313,1.263-1.216,2.868
	c0.097,1.604,1.411,3.209,0.973,4.181c-0.438,0.973-1.265-0.146-1.75,0.195c-0.485,0.341-0.632,3.89-1.411,3.987
	c-0.778,0.098-0.679-1.265-0.826-2.14c-0.146-0.875-2.625-1.506-3.014-1.069c-0.388,0.438-0.681,2.723-0.243,3.257
	c0.437,0.534,1.994,0.049,2.236,0.049c0.243,0,0.146,1.215,0.146,2.042c0,0.828,3.5,3.452,3.404,4.133
	c-0.097,0.683-0.729,1.605-1.458,1.944c-0.729,0.34-1.995-1.652-2.724-1.36c-0.729,0.292-1.264,3.792-1.264,4.959
	s2.917,3.986,3.306,3.744c0.388-0.243-0.485-1.848-1.36-2.868c-0.875-1.021-0.39-2.578,0.485-3.307
	c0.875-0.73,1.946-0.243,2.188,0.389c0.243,0.633-0.339,3.014-0.194,4.57c0.146,1.556,1.896,1.459,3.355,2.529
	c1.458,1.069,0.777,2.042,0,1.166c-0.778-0.875-0.778,1.167-1.75,1.75c-0.972,0.584-2.724-0.68-2.946,0.243
	c-0.222,0.924-1.284,3.162-2.987,4.426c-1.702,1.264-0.583,1.507-0.68,2.82c-0.097,1.313-2.042,1.605-2.479,2.382
	c-0.438,0.777,1.361,0.632,2.966,0.827s1.652-3.063,2.333-3.063c0.682,0,0.923,3.111,0.827,4.036
	c-0.097,0.923-1.264-0.584-0.925,1.313c0.339,1.896-1.167,4.181-1.701,3.938c-0.535-0.242,0-3.987,0-3.987s0,0-0.097-0.778
	c-0.097-0.777-0.729-0.048-2.286,0.681c-1.557,0.73-1.264,4.765-1.75,5.349c-0.486,0.583,1.167,2.87,1.111,3.89
	c-0.056,1.021-3.784,0.485-3.833,0.875c-0.05,0.389,0.825,1.75,0.291,2.188s-0.924-0.924-1.653-1.557
	c-0.729-0.632-1.214-0.438-1.41,0.632c-0.194,1.069-1.216,1.701-2.917,2.771c-1.702,1.07-3.258,2.626-3.987,2.529
	c-0.73-0.097-1.021-3.454-1.605-3.695c-0.583-0.243-0.825,2.284-1.167,2.091c-0.341-0.194-0.097-1.849-0.729-2.042
	c-0.633-0.194-3.403,2.431-3.89,1.702s2.577-2.431,2.577-2.431s-3.452,0.922-3.84,0.631c-0.389-0.292,3.743-1.702,3.743-2.042
	s-1.993-0.631-3.112-1.021c-1.119-0.39-0.875-1.361,0.632-1.507s2.091,1.409,2.869,1.36c0.777-0.048,1.411-2.236,2.479-2.236
	c1.07,0,0.875-2.333,1.459-2.674c0.584-0.34,1.119,0.388,1.313,1.458c0.194,1.071-1.847,3.355-1.847,4.182s1.409,2.625,2.091,2.188
	c0.681-0.438,0.291-2.918-0.195-3.257c-0.487-0.339,1.264-1.751,1.264-2.383c0-0.632,2.188-1.458,2.966-1.069
	c0.778,0.389-2.188,2.625-2.091,2.82c0.097,0.195,1.896,2.577,2.626,2.625c0.729,0.049,0.827-0.924,0.682-2.771
	c-0.146-1.847,0.875-0.778,1.214-0.875c0.34-0.098,0.292-1.556,1.021-2.82c0.729-1.266,2.333-1.848,1.361-2.334
	c-0.972-0.487-0.388-1.555-0.438-2.528c-0.049-0.971-2.237,0.632-3.354,0.632c-1.118,0-0.292-0.875,0.583-1.021
	c0.875-0.146-0.924-1.264-0.194-2.382c0.728-1.118,1.36,1.36,1.896,1.118c0.534-0.243,0.146-2.431,0.244-3.695
	c0.098-1.266,1.604-0.34,2.431-1.265c0.826-0.923,0.936,0.657,1.811,0.074c0.875-0.584,0.328-3.428,0.656-5.398
	c0.329-1.968-0.947-2.588-1.385-1.896c-0.438,0.693-0.255,4.522-0.62,4.485c-0.364-0.036-0.474-1.714-2.115-1.057
	c-1.641,0.656-3.647,5.433-4.667,5.762c-1.021,0.329-1.094-0.292-3.392-0.401c-2.297-0.109-5.324,4.741-5.543,5.142
	c-0.219,0.4-1.203,0.547-2.225,1.787c-1.021,1.239,2.334,1.896,1.824,2.114c-0.511,0.219-2.772-0.109-3.282-0.219
	c-0.511-0.109,0.547-3.099,1.458-3.865c0.912-0.766,1.97-1.386,2.625-2.042c0.656-0.657,3.1-3.538,4.084-3.611
	c0.984-0.073,2.917-2.552,3.392-3.1c0.474-0.546,0.146-3.172,0.438-3.282c0.292-0.108,0,1.241,0.657,1.532
	c0.656,0.292,0.546-3.391,1.349-2.37c0.803,1.021-2.917,5.47-2.917,6.126c0,0.656,1.677,0.583,1.677,0.583l-0.073-1.896
	c0,0,0.875-0.072,1.021-0.292c0.146-0.219,0.948-2.261,1.458-2.188c0.51,0.074,1.823-1.604,1.823-1.604l1.677-0.147
	c0,0-1.313-0.729-0.948-2.188c0.365-1.458-0.292-2.552-0.292-2.552c0-3.136-0.875-3.574-0.657-4.158
	c0.219-0.583,1.532-0.729,1.387-1.458c-0.146-0.729-1.75-1.385-3.064-0.073c-1.313,1.313,0.511,2.261,0.511,2.99
	c0,0.729-1.239,1.896-1.896,1.604c-0.656-0.291,0.583-1.24,0.657-1.604c0.072-0.364-0.876-1.459-0.876-1.459v-1.896l-2.188,0.146
	c0,0,0.219,2.48-0.365,2.699c-0.583,0.219-0.729-4.011-0.875-5.105c-0.146-1.095-2.844-0.583-2.844-0.583
	c-3.574,1.896-6.271-1.823-6.271-1.823h-1.459c0,0,0,0-0.364-0.074c-0.365-0.073-0.948-1.386-0.948-1.386
	c-0.583,0.219-2.552,0-2.552,0l-0.875-1.604c-4.011,1.021-9.481-3.647-9.481-3.647v-0.948l-2.042-2.699c0,0-1.313,0.365-2.115,0
	c-0.803-0.365-5.616-6.344-5.616-6.344s-1.385-0.147-1.385-0.73s-2.042-2.771-2.479-1.458s0.948,2.552,0.948,2.99
	c0,0.438-2.528,2.114-2.528,2.114v2.407l-1.264,1.24c0,0,0.948,0.656,0.438,2.261c-0.51,1.604-0.852,8.387-0.852,8.387
	s2.529,2.723,3.242,6.223c0.712,3.501-2.074,15.949-2.074,15.949c4.668,4.084,0,15.169,0,15.169
	c-0.388,1.018,0.195,1.507,0.827,0.195c0.633-1.313,1.605-2.772,1.993-2.772s1.216,1.847,1.654,2.869
	c0.438,1.021,4.764,1.021,4.424,2.334c-0.341,1.313-6.078,0.827-6.466,0.973c-0.389,0.146,0.339,1.75,0.339,2.333
	c0,0.583-1.069-0.098-1.75-0.681c-0.682-0.583,0.681-2.819-0.194-2.723c-0.875,0.098-1.8,5.883-1.361,6.71
	c0.438,0.826,2.236,2.041,2.479,2.09c0.243,0.05,0.146-1.507,0.388-1.604c0.243-0.096,0.583,0.777,0.778,0.972
	c0.196,0.196,0.973-1.021,1.557-1.021c0.583,0,1.75,3.743,1.507,3.792s-0.826-0.972-1.313-1.264
	c-0.486-0.292-2.285,0.194-2.771,1.264c-0.487,1.07,0.341,4.035,0.242,4.765c-0.098,0.729-0.826,0.486-1.604,0.828
	c-0.778,0.34,1.8,3.841,1.459,4.131c-0.341,0.292-1.507-1.798-1.848-1.068s-2.042,0.826-2.674,0.389
	c-0.632-0.438,0.583-2.237,0.778-3.16s1.216-6.417,0.826-6.809c-0.389-0.389-2.236,5.934-2.819,8.559
	c-0.583,2.626-2.14,4.765-1.703,5.641c0.438,0.875,1.313-1.313,1.751-1.168c0.437,0.146,2.723,3.112,3.161,2.918
	c0.438-0.195,1.847-0.633,2.819-0.146c0.972,0.486,2.042-0.827,2.674-0.778c0.632,0.048,0.195,1.993,0.681,2.528
	c0.485,0.534,3.5,0.242,4.474,0.242c0.861,0,1.723,4.569,2.312,5.887c0.077,0.17,0.149,0.293,0.216,0.337
	c0.583,0.389,4.863-0.389,4.863-0.389s5.834,7.974,6.029,11.281c0.194,3.306-1.362,5.442-0.974,6.223
	c0.389,0.779-0.971,3.697-1.166,5.446c-0.195,1.751,4.474,5.64,7.392,5.251c2.917-0.389,0.971,1.943,4.277,2.722
	c3.306,0.779,11.864-3.112,12.448-3.112c0.583,0,3.112,1.75,4.084,1.946c0.972,0.195,5.056-0.78,7.39,0.779
	c2.333,1.555,4.084,1.941,4.862,2.334c0.778,0.388,0.583,3.691,1.167,3.691c0.583,0,3.696-1.358,4.668-1.358
	c0.972,0,2.528,2.334,2.528,2.334s7.778-2.142,8.945-2.142c1.167,0,1.945,2.726,2.14,3.309s8.168,0.583,8.168,0.583
	s0.972-1.166,1.75-1.75c0.778-0.583,12.642,0.584,13.225,0.584s2.528-1.947,2.528-1.947l1.751,0.972l6.611-0.388
	c0,0,2.528,2.529,3.695,2.529s5.64-2.917,5.64-2.917l53.873,13.42c0,0,0.021-0.002,0.047-0.005c0.215-0.014,1.195-0.154,0.148-1.555
	c-1.167-1.555,0.193-4.275,0.972-4.858c0.777-0.584-0.389-4.085-0.389-4.085S190.062,172.924,189.867,171.758z"/>
</svg>
