<?xml version="1.0" encoding="iso-8859-1"?>
<!-- Generator: Adobe Illustrator 15.1.0, SVG Export Plug-In . SVG Version: 6.00 Build 0)  -->
<!DOCTYPE svg PUBLIC "-//W3C//DTD SVG 1.1//EN" "http://www.w3.org/Graphics/SVG/1.1/DTD/svg11.dtd">
<svg version="1.1" id="Layer_1" xmlns="http://www.w3.org/2000/svg" xmlns:xlink="http://www.w3.org/1999/xlink" x="0px" y="0px"
	 width="288px" height="288px" viewBox="0 0 288 288" style="enable-background:new 0 0 288 288;" xml:space="preserve">
<path d="M249.465,84.285c-1.379,0-6.661-3.217-5.972-5.744c0.688-2.527-1.379-2.067-4.366-1.837
	c-2.988,0.229-7.126-4.368-9.422-3.907c-2.297,0.46-3.676,5.284-5.055,5.514c-1.379,0.23-4.826,0.69-5.515,2.299
	c-0.69,1.607,0.458,4.597-2.298,4.825c-2.758,0.229-8.963,1.38-10.112,1.149s-2.986-2.988-4.137-2.988
	c-1.146,0-5.974,11.49-6.893,11.49c-0.918,0-4.366-1.607-5.516-1.607c-1.147,0-3.216,2.758-4.364,5.284
	c-1.149,2.527-3.217,4.596-3.448,6.433c-0.229,1.839-2.526,1.61-3.905,3.679c-1.38,2.067-4.596,5.283-4.596,5.283l-5.055-32.399
	l-48.255,8.273l-8.964-54.92c0,0-5.514-0.229-6.203,2.297c-0.689,2.529,2.297,4.598,3.446,7.354c1.149,2.759,0,6.434,0.92,7.124
	c0.919,0.689,1.837,4.595,0.688,6.664c-1.149,2.066-2.986,3.677-2.986,5.974s1.378,14.477,1.378,14.477s-3.446,1.147-2.986,2.526
	c0.459,1.379,0.92,2.988,0.229,3.679c-0.689,0.688-1.15,5.055,0,7.582c1.148,2.528,0,4.825-0.918,6.203
	c-0.92,1.379-5.057,4.137-6.894,7.354c-1.841,3.219-5.056,4.825-5.516,6.895c-0.461,2.067-4.137,4.365-4.137,4.365
	s-3.217,2.068-4.365,0.919c-1.149-1.147-2.529-1.609-3.446-1.609c-0.92,0-2.989,6.205-3.448,7.584s-3.446,1.149-4.367,1.607
	c-0.918,0.461-1.837,3.447-2.067,4.137c-0.229,0.689-1.838,0.23-1.378,2.988c0.459,2.757,1.149,4.136,0.459,4.596
	c-0.688,0.459-3.447,0.919-3.215,1.838c0.228,0.919,4.134,6.663,2.985,7.353c-1.149,0.689-3.906,7.123-5.285,3.906
	s-4.137-6.893-5.284-6.893c-1.151,0-4.825,3.218-5.285,6.205c-0.462,2.986,1.609,3.676-0.462,6.893
	c-2.064,3.217-2.758,1.608-1.607,4.366c1.149,2.757,2.987,8.035,2.299,9.762c-0.691,1.727-3.906-2.645-3.906,0
	c0,2.646-0.69,7.932-1.608,9.08c-0.646,0.812-5.379,3.639-8.618,4.614c-1.35,0.404-2.471,0.523-2.872-0.017
	c0,0-2.526,1.837-0.46,4.365c2.067,2.525,2.988,7.122,1.15,7.122s-2.758,4.596-1.379,5.056c1.379,0.459,4.595,5.515,5.515,6.894
	c0.042,0.072,0.122,0.137,0.179,0.201c1.099,1.276,4.187,2.306,4.187,4.217c0,2.015,2.988,4.084,2.988,4.084
	s1.607,4.366,4.596,5.286c2.988,0.917,1.378,4.824,2.988,5.744c1.607,0.919,1.836,0.46,4.823,1.838
	c2.987,1.379,4.137,1.608,4.597,3.216c0.345,1.199,3.876,1.251,5.65,2.251c0.604,0.336,1.012,0.783,1.012,1.427
	c0,0,4.367,3.372,4.136,4.445c-0.228,1.07-0.457,3.139,1.611,3.828s2.297,2.526,4.593,2.987c2.301,0.46,4.138-0.985,7.125,1.805
	c2.987,2.789,4.517,3.249,6.744,1.411c2.217-1.838,2.217-3.905,4.284-4.135c2.069-0.231,3.219-6.97,4.368-5.896
	c1.146,1.07,5.743,4.746,5.743,4.746s1.61-2.067,5.747-2.757c4.134-0.689,6.203-0.306,8.271-1.989
	c2.068-1.688,2.068-4.904,1.608-6.512c-0.458-1.611,2.068-3.219,4.137-1.38c2.068,1.837,3.676,0.661,5.515-0.818
	c1.839-1.48,1.839-1.48,1.839-1.48h0.919c0,0,2.068-5.054,4.137-4.136c2.068,0.919,2.985,4.136,3.905,3.218
	c0.919-0.919,4.825-7.813,5.515-7.813s-1.148-1.84,0-2.987c1.149-1.149,1.149-1.149,1.149-1.149s-0.46-6.33-2.067-5.233
	c-1.609,1.097,0.688-2.35,2.067-5.565c1.379-3.218,2.299-9.192,6.205-13.56c3.906-4.364,3.446-10.109,3.675-14.017
	c0.231-3.907,4.826-5.285,4.826-7.123s1.149-4.596,2.068-7.122c0.918-2.528,1.379-7.125,1.379-8.963
	c0-1.839,0.229-4.364,1.839-4.136c1.609,0.229,3.676,0,4.825,1.837c1.148,1.839,1.837,4.137,3.676,4.826s7.584,1.149,8.731,0.689
	c1.149-0.459,5.286-14.476,5.286-16.313h2.758v-8.273l1.608-3.905c0,0,4.136,4.366,5.514,4.366s2.529-11.72,5.055-11.72
	c2.529,0,2.529,0,2.529,0s0.229-2.986,1.149-4.137c0.918-1.149,2.758-0.229,3.677-4.596c0.918-4.366,5.515-6.893,5.284-8.502
	c-0.231-1.609-2.054-5.056,0.006-7.584c2.062-2.526-0.91-8.96,0-10.11c0.913-1.148,27.108,14.706,27.108,14.706
	s1.521-9.815,1.602-12.433c0-0.067,0.008-0.147,0.008-0.205C253.144,88.652,250.845,84.285,249.465,84.285z"/>
</svg>
