<?xml version="1.0" encoding="iso-8859-1"?>
<!-- Generator: Adobe Illustrator 15.1.0, SVG Export Plug-In . SVG Version: 6.00 Build 0)  -->
<!DOCTYPE svg PUBLIC "-//W3C//DTD SVG 1.1//EN" "http://www.w3.org/Graphics/SVG/1.1/DTD/svg11.dtd">
<svg version="1.1" id="Layer_1" xmlns="http://www.w3.org/2000/svg" xmlns:xlink="http://www.w3.org/1999/xlink" x="0px" y="0px"
	 width="288px" height="288px" viewBox="0 0 288 288" style="enable-background:new 0 0 288 288;" xml:space="preserve">
<path d="M235.38,109.033c-0.663-0.666-2.991,0.498-3.324,0.997c-0.33,0.498-0.33,4.319-1.661,4.319c-1.328,0-2.41,1.911-2.41,3.491
	c0,1.578-1.994,3.489-2.74,4.569c-0.748,1.08-2.327,5.567-2.492,6.73c-0.167,1.163-3.407,2.16-5.152,2.077
	c-1.746-0.084-3.324,6.314-3.739,7.978c-0.415,1.661-1.91,1.661-3.406,2.491c-1.495,0.831-2.162,3.822-2.162,3.822h-2.407
	c0,0,0-2.327-0.085-4.071c-0.082-1.745,1.496-3.324,2.161-4.237c0.665-0.914,0.331-1.662,0.331-2.492
	c0-0.832,1.747-1.828,2.328-2.991c0.581-1.165-0.499-2.66-0.25-3.739c0.25-1.081,5.483-1.994,5.983-2.742
	c0.499-0.748,0.414-5.401,0.414-5.401s-0.381-0.221-0.897-0.539c-1.128-0.691-2.968-1.906-3.422-2.701
	c-0.666-1.164,2.243-7.729,1.246-8.227c-0.998-0.499-5.566,1.663-6.646,1.081c-1.08-0.583,0.165-3.075,1.373-3.656
	c1.207-0.581,0.287-4.57-0.211-5.733c-0.499-1.163,0.666-1.412,0-2.908c-0.664-1.495,0-0.914,0-2.325
	c0-1.413-1.744-2.079-3.655-3.158c-1.911-1.081-6.315-0.499-6.481-1.995c-0.166-1.495,0.582-3.239-0.581-4.569
	c-1.164-1.329-5.568-1.412-7.063-1.994s-4.07,0-8.807,0s-7.812-1.827-9.557-2.409c-1.744-0.582-4.237-2.908-5.234-2.991
	c-0.997-0.084-30.576-5.982-31.49-6.814c-0.915-0.831-3.157-4.818-3.988-6.23c-0.831-1.413-1.662-1.496-3.822-1.579
	c-0.732-0.03-1.46-0.291-2.155-0.624c-1.367-0.654-2.617-1.594-3.495-1.702c-1.329-0.166-4.322-2.16-5.815-2.327
	c-1.496-0.166-5.982,3.407-5.982,2.576s1.66-3.49,1.66-3.49s-0.581-1.662-0.498-2.576c0.083-0.913,2.742-3.655,3.324-4.901
	c0.583-1.246-1.246-3.572-1.994-4.238c-0.748-0.665-3.407,0.666-4.57,0.499s-3.656,3.075-4.486,3.962
	c-0.832,0.894-1.994,0.275-2.991,0.026s-2.576,1.495-3.823,2.825c-1.244,1.329-12.214,4.819-14.707,5.732
	c-2.492,0.914-4.734,0.914-5.401,0.748c-0.663-0.166-3.047-3.572-3.047-3.572h-0.006c-0.523,0.897-1.281,1.661-1.573,1.661
	c-0.441,0-1.882,1.106-1.882,1.551c0,0.443-2.328,0.886-2.328,0.886v25.758c0,0-0.829,0.942-0.829,1.772
	c0,0.832-0.943,1.551-1.828,1.551c-0.886,0-1.607,0.888-1.939,1.554c-0.334,0.664-1.164-0.279-1.938,0.718
	c-0.775,0.997-4.599,1.773-5.596,4.321s-1.994,5.704-3.158,6.481c-1.162,0.775-0.553,5.538-0.553,6.591
	c0,1.054,3.212,0.056,3.822,1.331c0.607,1.272,2.826,5.317,2.88,6.035c0.055,0.721-2.494,4.045-2.771,5.319
	c-0.274,1.274-0.274,4.931-0.274,5.263s1.438,1.438,1.051,2.382c-0.387,0.942-2.495,2.049-1.939,2.937
	c0.556,0.885,1.44,4.983,1.387,6.257c-0.056,1.275-0.39,5.926-0.831,7.312c-0.444,1.388,1.659,1.109,2.77,2.218
	c1.107,1.106,2.989,3.656,4.652,4.32c1.131,0.452,2.946,0.951,4.364,1.227c0.661,0.13,1.245,0.213,1.617,0.213
	c1.164,0,1.885,0.606,2.55,1.828c0.665,1.22,2.934,2.991,6.701,4.377c3.769,1.385,5.65,3.656,6.979,6.149
	c1.33,2.493,6.758,8.807,8.697,9.194c1.938,0.387,3.821,0.33,4.876,1.55c1.051,1.221,4.596,3.934,5.26,5.597
	c0.665,1.661,1.885,1.938,1.885,3.157c0,1.217,1.329,13.405,1.329,13.405s0.666,4.32,1.496,5.484
	c0.832,1.162,3.823,1.827,3.823,4.154s-2.493,3.324-2.493,4.818c0,1.497,0.333,9.473,2.16,11.135
	c1.829,1.662,1.33,4.486,2.493,7.312c1.162,2.826,10.802,3.49,10.802,3.49l3.322,6.481l92.231-5.817c0,0-0.832-5.151-0.832-7.479
	c0-2.325,1.163-3.987,1.163-5.151c0-1.163-1.828-2.823-2.824-3.656c-0.998-0.831-0.167-3.488-0.333-3.987
	c-0.167-0.498-2.16-2.658-2.16-2.658s0-2.826-0.166-4.155c-0.167-1.329,0.166-1.994,0-3.157c-0.167-1.163-0.998-2.992-1.33-4.819
	c-0.331-1.828,0.498-3.489,1.496-5.817c0.996-2.325,1.163-5.316,1.495-6.979c0.333-1.662,0.166-2.659,1.33-4.154
	c1.163-1.497-0.167-5.317-0.832-6.647c-0.664-1.33,1.331-9.804,1.829-12.297c0.498-2.492,2.326-2.492,3.158-4.155
	c0.83-1.661-0.665-4.984-0.998-6.979s1.994-10.636,2.16-12.298c0.167-1.662,2.825-7.146,2.991-7.81
	c0.167-0.665,1.164-2.328,1.994-3.823c0.832-1.495,1.661-4.486,1.661-5.815c0-1.33,2.327-4.985,3.159-6.648
	c0.829-1.661,0-2.824,0.165-4.154c0.166-1.328,1.495-0.166,1.495-2.325C235.38,108.865,236.045,109.697,235.38,109.033z"/>
</svg>
